# Exported by Sketchfab Model Ripper robust edition
o model_0
v -0.38420939445495605 -0.9101918935775757 -0.31664568185806274
v -0.39077940583229065 -0.9186927676200867 -0.3243960440158844
v -0.3823578357696533 -0.912971019744873 -0.32110723853111267
v -0.3811931610107422 -0.9131345152854919 -0.32827121019363403
v -0.37677332758903503 -0.9039388298988342 -0.32648658752441406
v -0.37737059593200684 -0.9069631695747375 -0.3347213566303253
v -0.37507110834121704 -0.8986257314682007 -0.3430580794811249
v -0.3736077845096588 -0.8951518535614014 -0.33604708313941956
v -0.3780873417854309 -0.900996208190918 -0.31947559118270874
v -0.37554892897605896 -0.8917596340179443 -0.32969892024993896
v -0.3779081404209137 -0.8892666101455688 -0.3256452679634094
v -0.3802972435951233 -0.8980126976966858 -0.3180478811264038
v -0.38083478808403015 -0.8878361582756042 -0.3254922926425934
v -0.3766837418079376 -0.8811743855476379 -0.331636518239975
v -0.3810737133026123 -0.880479633808136 -0.3313050866127014
v -0.3799090087413788 -0.8712839484214783 -0.3303617835044861
v -0.3824772834777832 -0.8708343505859375 -0.32737889885902405
v -0.38432884216308594 -0.8787221908569336 -0.33000484108924866
v -0.38680753111839294 -0.8781091570854187 -0.3275063931941986
v -0.3845379054546356 -0.8872231245040894 -0.32913804054260254
v -0.38767358660697937 -0.8858335614204407 -0.32806727290153503
v -0.38591161370277405 -0.8937622308731079 -0.32620614767074585
v -0.38432884216308594 -0.8787221908569336 -0.33000484108924866
v -0.3858518898487091 -0.917425811290741 -0.33194243907928467
v -0.3822682499885559 -0.9103553295135498 -0.3415029048919678
v -0.39068982005119324 -0.8857517838478088 -0.3267415463924408
v -0.3910183310508728 -0.8897979259490967 -0.32671603560447693
v -0.38898757100105286 -0.8913100957870483 -0.3264355957508087
v -0.3931983709335327 -0.8949065804481506 -0.32602769136428833
v -0.3912273645401001 -0.8980535864830017 -0.3254413306713104
v -0.39794668555259705 -0.8961327075958252 -0.328806608915329
v -0.39427345991134644 -0.8915553092956543 -0.3268180191516876
v -0.3949901759624481 -0.8872231245040894 -0.32618066668510437
v -0.3904508948326111 -0.8795804977416992 -0.3246764838695526
v -0.3901522755622864 -0.8724691271781921 -0.3210817277431488
v -0.38519489765167236 -0.8709569573402405 -0.32416659593582153
v -0.3902119994163513 -0.8648673892021179 -0.3186597526073456
v -0.3843885660171509 -0.8637639284133911 -0.3198834955692291
v -0.3854636549949646 -0.8561621308326721 -0.3156259059906006
v -0.3815813958644867 -0.8537508249282837 -0.3180733621120453
v -0.38053616881370544 -0.8623743057250977 -0.3227134048938751
v -0.3778185546398163 -0.8604943156242371 -0.3269200026988983
v -0.38501572608947754 -0.844228208065033 -0.31878721714019775
v -0.3785651624202728 -0.8501951694488525 -0.32202503085136414
v -0.3787144720554352 -0.8470890522003174 -0.3293674886226654
v -0.37587741017341614 -0.8596769571304321 -0.33199343085289
v -0.3772212862968445 -0.8625786900520325 -0.33811214566230774
v -0.3748023211956024 -0.8715699911117554 -0.33877497911453247
v -0.3772810101509094 -0.8713247776031494 -0.33370158076286316
v -0.3766837418079376 -0.8811743855476379 -0.331636518239975
v -0.38558313250541687 -0.8403864502906799 -0.3313050866127014
v -0.3835822641849518 -0.8449229598045349 -0.3410695195198059
v -0.37925201654434204 -0.8520342707633972 -0.3394123613834381
v -0.3891369104385376 -0.8376890420913696 -0.34122246503829956
v -0.39254137873649597 -0.8431246876716614 -0.34892183542251587
v -0.3873450756072998 -0.8514621257781982 -0.34570953249931335
v -0.3986634314060211 -0.8474160432815552 -0.3537403345108032
v -0.3994995951652527 -0.8371577262878418 -0.3489728271961212
v -0.40332216024398804 -0.8412446975708008 -0.35595834255218506
v -0.4072343111038208 -0.8466803431510925 -0.3589667081832886
v -0.40329229831695557 -0.8521977663040161 -0.3575645089149475
v -0.4068162143230438 -0.8573473691940308 -0.359527587890625
v -0.3984842300415039 -0.8595542907714844 -0.3550405502319336
v -0.3931386470794678 -0.8555899858474731 -0.35022208094596863
v -0.38940566778182983 -0.864254355430603 -0.34757062792778015
v -0.3836419880390167 -0.8593908548355103 -0.34443479776382446
v -0.3804764449596405 -0.8680552244186401 -0.343720942735672
v -0.37584754824638367 -0.8749213218688965 -0.3460409641265869
v -0.37396615743637085 -0.8855065703392029 -0.3425227105617523
v -0.3733389973640442 -0.8827274441719055 -0.3364039957523346
v -0.3772810101509094 -0.889552652835846 -0.3481824994087219
v -0.38023751974105835 -0.9014049172401428 -0.34991613030433655
v -0.3868373930454254 -0.9040614366531372 -0.3537658154964447
v -0.3880319595336914 -0.9136249423027039 -0.3462449014186859
v -0.39137667417526245 -0.9191423654556274 -0.336964875459671
v -0.398006409406662 -0.9208179712295532 -0.33449190855026245
v -0.3972001075744629 -0.9156275391578674 -0.347800076007843
v -0.4054723381996155 -0.9179571270942688 -0.3327837586402893
v -0.40747320652008057 -0.9126031994819641 -0.3479275405406952
v -0.3931983709335327 -0.9062683582305908 -0.35695263743400574
v -0.38758400082588196 -0.8963779211044312 -0.3569016456604004
v -0.3920336961746216 -0.8978492021560669 -0.36036890745162964
v -0.3966028392314911 -0.8989118337631226 -0.3629438579082489
v -0.4018588364124298 -0.905164897441864 -0.3587627708911896
v -0.4082496762275696 -0.8967048525810242 -0.3598335385322571
v -0.40747320652008057 -0.9126031994819641 -0.3479275405406952
v -0.3818800151348114 -0.8933535814285278 -0.3537912964820862
v -0.38083478808403015 -0.880602240562439 -0.35119086503982544
v -0.3857623040676117 -0.8735317587852478 -0.34876886010169983
v -0.39036130905151367 -0.8777822256088257 -0.3529754877090454
v -0.3949304521083832 -0.8688317537307739 -0.3511653542518616
v -0.3939150869846344 -0.8802343606948853 -0.35672318935394287
v -0.399200975894928 -0.8722648024559021 -0.3546326458454132
v -0.4026651680469513 -0.8633960485458374 -0.3574625253677368
v -0.40816009044647217 -0.8603308200836182 -0.36143970489501953
v -0.4098025858402252 -0.8517482280731201 -0.36154165863990784
v -0.38561299443244934 -0.8856291770935059 -0.355244517326355
v -0.4059501588344574 -0.8652352094650269 -0.3592471480369568
v -0.4102206826210022 -0.8647447824478149 -0.3620515763759613
v -0.4109075367450714 -0.8578786849975586 -0.3627399206161499
v -0.4032624363899231 -0.8732865452766418 -0.358431339263916
v -0.3989620506763458 -0.880561351776123 -0.3626379370689392
v -0.3899432122707367 -0.8884491920471191 -0.35799792408943176
v -0.39454224705696106 -0.8896752595901489 -0.3626379370689392
v -0.401261568069458 -0.8918822407722473 -0.3647029995918274
v -0.4056515395641327 -0.8815830945968628 -0.36388716101646423
v -0.40956366062164307 -0.8820735216140747 -0.3603944182395935
v -0.4138939082622528 -0.8718560934066772 -0.36141419410705566
v -0.41144508123397827 -0.8809700608253479 -0.3560858368873596
v -0.40908586978912354 -0.9009144306182861 -0.34884536266326904
v -0.4018588364124298 -0.905164897441864 -0.3587627708911896
v -0.40747320652008057 -0.9126031994819641 -0.3479275405406952
v -0.4056515395641327 -0.8815830945968628 -0.36388716101646423
v -0.4169698655605316 -0.8773326277732849 -0.3512418568134308
v -0.4069655239582062 -0.8936805129051208 -0.3437974154949188
v -0.407562792301178 -0.8910239934921265 -0.34094202518463135
v -0.41595450043678284 -0.8803978562355042 -0.34502115845680237
v -0.40780171751976013 -0.889184832572937 -0.3381631076335907
v -0.41595450043678284 -0.8816648125648499 -0.3407890796661377
v -0.41535723209381104 -0.8819509148597717 -0.3351292610168457
v -0.40777185559272766 -0.8869779109954834 -0.3343389332294464
v -0.40589043498039246 -0.8855065703392029 -0.33061671257019043
v -0.410399854183197 -0.8799074292182922 -0.3294694721698761
v -0.40400901436805725 -0.8772100210189819 -0.32396262884140015
v -0.4148196876049042 -0.873123049736023 -0.3267415463924408
v -0.4064578413963318 -0.8704256415367126 -0.32072481513023376
v -0.39761820435523987 -0.8671969771385193 -0.3187362253665924
v -0.39684173464775085 -0.8745535016059875 -0.32133668661117554
v -0.39597567915916443 -0.8815013766288757 -0.3239116370677948
v -0.40144073963165283 -0.8834630846977234 -0.32638460397720337
v -0.4208820164203644 -0.8741856813430786 -0.334134966135025
v -0.42509278655052185 -0.8743082880973816 -0.3403301537036896
v -0.4291243851184845 -0.8723465204238892 -0.34494468569755554
v -0.431991308927536 -0.8638456463813782 -0.35108888149261475
v -0.42330098152160645 -0.8703030347824097 -0.3583548367023468
v -0.41903045773506165 -0.8714882731437683 -0.36026695370674133
v -0.4138939082622528 -0.8718560934066772 -0.36141419410705566
v -0.4223752021789551 -0.864826500415802 -0.36416760087013245
v -0.41655176877975464 -0.8639273643493652 -0.36462652683258057
v -0.41634273529052734 -0.8560804128646851 -0.36386168003082275
v -0.4082496762275696 -0.872877836227417 -0.35985901951789856
v -0.425331711769104 -0.8599221706390381 -0.36047089099884033
v -0.425331711769104 -0.8599221706390381 -0.36047089099884033
v -0.415416955947876 -0.848396897315979 -0.3605983555316925
v -0.41195276379585266 -0.8438603281974792 -0.35567790269851685
v -0.40798088908195496 -0.8408768773078918 -0.3532559275627136
v -0.40690580010414124 -0.8400594592094421 -0.35001811385154724
v -0.3994995951652527 -0.8371577262878418 -0.3489728271961212
v -0.40332216024398804 -0.8412446975708008 -0.35595834255218506
v -0.4146703779697418 -0.8453316688537598 -0.35312846302986145
v -0.42132997512817383 -0.8501951694488525 -0.35575440526008606
v -0.431991308927536 -0.8638456463813782 -0.35108888149261475
v -0.42566022276878357 -0.8548951745033264 -0.35060447454452515
v -0.4169698655605316 -0.8495821356773376 -0.3454800844192505
v -0.40720444917678833 -0.844759464263916 -0.34094202518463135
v -0.39624446630477905 -0.8384246826171875 -0.3412989675998688
v -0.3962743282318115 -0.8423481583595276 -0.33459389209747314
v -0.3891369104385376 -0.8376890420913696 -0.34122246503829956
v -0.3902119994163513 -0.839896023273468 -0.33273276686668396
v -0.38558313250541687 -0.8403864502906799 -0.3313050866127014
v -0.3887188136577606 -0.8429611921310425 -0.3255942761898041
v -0.3787144720554352 -0.8470890522003174 -0.3293674886226654
v -0.3931087851524353 -0.8438603281974792 -0.3278377950191498
v -0.39955934882164 -0.8467212319374084 -0.32990285754203796
v -0.40281447768211365 -0.8462716937065125 -0.33584311604499817
v -0.4053528904914856 -0.8493777513504028 -0.33286023139953613
v -0.4116840064525604 -0.8512169122695923 -0.3360980451107025
v -0.4192693829536438 -0.8537099361419678 -0.3394123613834381
v -0.4285271167755127 -0.856652557849884 -0.3415538966655731
v -0.43315598368644714 -0.8592273592948914 -0.3411969840526581
v -0.42885562777519226 -0.8567343354225159 -0.336607962846756
v -0.42243492603302 -0.8550586700439453 -0.3340839743614197
v -0.41484954953193665 -0.8530969023704529 -0.33148354291915894
v -0.41804495453834534 -0.8537508249282837 -0.3273024260997772
v -0.40789130330085754 -0.8515030145645142 -0.32873010635375977
v -0.4250330626964569 -0.8561212420463562 -0.3308461606502533
v -0.43097594380378723 -0.8578786849975586 -0.33597058057785034
v -0.43226009607315063 -0.8590638637542725 -0.33370158076286316
v -0.4265262484550476 -0.8568569421768188 -0.3289850652217865
v -0.4196874797344208 -0.8545273542404175 -0.32510989904403687
v -0.41198262572288513 -0.8522794842720032 -0.3218465745449066
v -0.4131771922111511 -0.8524429798126221 -0.31820085644721985
v -0.420732706785202 -0.8551812767982483 -0.32261142134666443
v -0.4267054498195648 -0.8579604029655457 -0.32697099447250366
v -0.4103102684020996 -0.8519116640090942 -0.3249569237232208
v -0.40421807765960693 -0.8503177762031555 -0.32276439666748047
v -0.40212762355804443 -0.8494186401367188 -0.3261551558971405
v -0.3975584805011749 -0.8468029499053955 -0.3240136206150055
v -0.3926906883716583 -0.8451273441314697 -0.3215661346912384
v -0.3997683823108673 -0.848519504070282 -0.32103073596954346
v -0.40090319514274597 -0.8485603928565979 -0.31820085644721985
v -0.40559181571006775 -0.8502359986305237 -0.31957754492759705
v -0.4006642997264862 -0.8476612567901611 -0.3143256604671478
v -0.40618908405303955 -0.8499090671539307 -0.3153454661369324
v -0.39794668555259705 -0.8472934365272522 -0.31720656156539917
v -0.3960951566696167 -0.8469255566596985 -0.31888920068740845
v -0.39278027415275574 -0.8453316688537598 -0.3162122666835785
v -0.38937580585479736 -0.844555139541626 -0.31899118423461914
v -0.3862699866294861 -0.8432881832122803 -0.3224584460258484
v -0.3787144720554352 -0.8470890522003174 -0.3293674886226654
v -0.3785651624202728 -0.8501951694488525 -0.32202503085136414
v -0.38501572608947754 -0.844228208065033 -0.31878721714019775
v -0.38800209760665894 -0.844228208065033 -0.317283034324646
v -0.3899133503437042 -0.8444734215736389 -0.3148610591888428
v -0.3937060534954071 -0.8462308049201965 -0.31261754035949707
v -0.3965729773044586 -0.8458220958709717 -0.3144531548023224
v -0.39842450618743896 -0.8494595289230347 -0.3125665485858917
v -0.4006642997264862 -0.8476612567901611 -0.3143256604671478
v -0.40618908405303955 -0.8499090671539307 -0.3153454661369324
v -0.4044569730758667 -0.8528516888618469 -0.3138667643070221
v -0.4117138683795929 -0.8560395240783691 -0.3171555697917938
v -0.4131771922111511 -0.8524429798126221 -0.31820085644721985
v -0.420732706785202 -0.8551812767982483 -0.32261142134666443
v -0.4189707338809967 -0.8584508299827576 -0.3223564624786377
v -0.42437607049942017 -0.8591864705085754 -0.32602769136428833
v -0.4304981231689453 -0.8608213067054749 -0.3310246467590332
v -0.4303189516067505 -0.8664612770080566 -0.3357921242713928
v -0.434469997882843 -0.8631100058555603 -0.3391319215297699
v -0.4258095324039459 -0.868341326713562 -0.3295714557170868
v -0.42548102140426636 -0.8622516989707947 -0.3275063931941986
v -0.4187915623188019 -0.8674830198287964 -0.3220760226249695
v -0.4195680022239685 -0.8619656562805176 -0.32095426321029663
v -0.4113256335258484 -0.8593090772628784 -0.3150395154953003
v -0.40242624282836914 -0.8558351993560791 -0.3125155568122864
v -0.4095039367675781 -0.864581286907196 -0.31575337052345276
v -0.39935028553009033 -0.8609030246734619 -0.3127704858779907
v -0.38600122928619385 -0.8457403779029846 -0.31506502628326416
v -0.3937060534954071 -0.8462308049201965 -0.31261754035949707
v -0.3894653916358948 -0.848846435546875 -0.31274500489234924
v -0.39842450618743896 -0.8494595289230347 -0.3125665485858917
v -0.3949901759624481 -0.8525247573852539 -0.31284698843955994
v -0.40242624282836914 -0.8558351993560791 -0.3125155568122864
v -0.4044569730758667 -0.8528516888618469 -0.3138667643070221
v -0.3908391296863556 -0.8577969074249268 -0.31379029154777527
v -0.39761820435523987 -0.8671969771385193 -0.3187362253665924
v -0.39684173464775085 -0.8745535016059875 -0.32133668661117554
v -0.39597567915916443 -0.8815013766288757 -0.3239116370677948
v -0.3998579680919647 -0.8886944055557251 -0.32758286595344543
v -0.40144073963165283 -0.8834630846977234 -0.32638460397720337
v -0.40290406346321106 -0.8887761831283569 -0.330055832862854
v -0.40589043498039246 -0.8855065703392029 -0.33061671257019043
v -0.40777185559272766 -0.8869779109954834 -0.3343389332294464
v -0.40272489190101624 -0.8908196687698364 -0.33194243907928467
v -0.40780171751976013 -0.889184832572937 -0.3381631076335907
v -0.39935028553009033 -0.8609030246734619 -0.3127704858779907
v -0.3989023268222809 -0.892577052116394 -0.32855165004730225
v -0.40302351117134094 -0.8940075039863586 -0.33321717381477356
v -0.4032624363899231 -0.8974405527114868 -0.33403298258781433
v -0.407562792301178 -0.8910239934921265 -0.34094202518463135
v -0.4069655239582062 -0.8936805129051208 -0.3437974154949188
v -0.40260544419288635 -0.9017727375030518 -0.33535870909690857
v -0.40908586978912354 -0.9009144306182861 -0.34884536266326904
v -0.40481534600257874 -0.9099466800689697 -0.334823340177536
v -0.4054723381996155 -0.9179571270942688 -0.3327837586402893
v -0.39388522505760193 -0.9139927625656128 -0.3237076699733734
v -0.39466169476509094 -0.9088431596755981 -0.326333612203598
v -0.39555761218070984 -0.9038162231445312 -0.3278123140335083
v -0.39666256308555603 -0.8998518586158752 -0.32862815260887146
v -0.38868895173072815 -0.9013640284538269 -0.3240136206150055
v -0.3861505389213562 -0.9054918885231018 -0.3198834955692291
v -0.38420939445495605 -0.9101918935775757 -0.31664568185806274
v -0.3780873417854309 -0.900996208190918 -0.31947559118270874
v -0.40747320652008057 -0.9126031994819641 -0.3479275405406952
v -0.39077940583229065 -0.9186927676200867 -0.3243960440158844
v -0.398006409406662 -0.9208179712295532 -0.33449190855026245
v -0.4054723381996155 -0.9179571270942688 -0.3327837586402893
v -0.3802972435951233 -0.8980126976966858 -0.3180478811264038
v -0.3832537531852722 -0.8955605030059814 -0.32238197326660156
v -0.38083478808403015 -0.8878361582756042 -0.3254922926425934
v -0.3845379054546356 -0.8872231245040894 -0.32913804054260254
v -0.38432884216308594 -0.8787221908569336 -0.33000484108924866
v -0.425331711769104 -0.8599221706390381 -0.36047089099884033
v -0.4223752021789551 -0.864826500415802 -0.36416760087013245
v -0.41903045773506165 -0.8714882731437683 -0.36026695370674133
v -0.3780873417854309 -0.900996208190918 -0.31947559118270874
v -0.3861505389213562 -0.9054918885231018 -0.3198834955692291
v -0.3802972435951233 -0.8980126976966858 -0.3180478811264038
v -0.39254137873649597 -0.8431246876716614 -0.34892183542251587
v -0.3994995951652527 -0.8371577262878418 -0.3489728271961212
v -0.39624446630477905 -0.8384246826171875 -0.3412989675998688
v -0.39254137873649597 -0.8431246876716614 -0.34892183542251587
v -0.3891369104385376 -0.8376890420913696 -0.34122246503829956
v -0.39624446630477905 -0.8384246826171875 -0.3412989675998688
vn 0.5707874894142151 -0.5707874894142151 0.590256929397583
vn 0.3945120871067047 -0.9018706679344177 0.1760382205247879
vn 0.7393159866333008 -0.5809682011604309 0.34042292833328247
vn 0.7534090876579285 -0.6573742628097534 0.0152922747656703
vn 0.9365420937538147 -0.3261384665966034 0.12854042649269104
vn 0.8496549129486084 -0.49708864092826843 -0.1760382205247879
vn 0.9280939698219299 -0.261062890291214 -0.26549527049064636
vn 0.9911603331565857 -0.09797633439302444 0.08945280313491821
vn 0.9247376322746277 -0.07533153891563416 0.37307560443878174
vn 0.9234263300895691 0.10540098696947098 0.3690181374549866
vn 0.7421663999557495 0.33648681640625 0.5796254277229309
vn 0.5845330953598022 0.4358646273612976 0.6843559741973877
vn 0.32786989212036133 0.5729146003723145 0.7511792182922363
vn 0.176382377743721 0.3582003712654114 0.916832447052002
vn 0.3755607604980469 0.14691594243049622 0.9150791168212891
vn 0.7586454153060913 -0.21596857905387878 0.6146662831306458
vn 0.6185300350189209 -0.38610556721687317 0.6843559741973877
vn 0.5244193077087402 -0.23403622210025787 0.8186644315719604
vn 0.602934718132019 -0.284385621547699 0.7453821301460266
vn 0.50143963098526 0.08246999233961105 0.8612531423568726
vn 0.30505168437957764 0.0888601765036583 0.9481810927391052
vn -0.2812024652957916 0.36209455132484436 0.888714075088501
vn 0.5448658466339111 0.5315307974815369 0.6485338807106018
vn 0.5858868956565857 -0.7986940741539001 -0.1372016966342926
vn 0.7091977596282959 -0.6104327440261841 -0.3527185618877411
vn 0.3991299271583557 -0.18265306949615479 0.8985171914100647
vn 0.08456625044345856 0.06879974901676178 0.9940398335456848
vn 0.05015791580080986 0.19323794543743134 0.97986900806427
vn -0.19840171933174133 0.08724208176136017 0.976230263710022
vn -0.31554752588272095 0.06348492950201035 0.946783721446991
vn -0.542622983455658 -0.1379220187664032 0.8285757899284363
vn -0.276409387588501 -0.06693913042545319 0.9587059020996094
vn 0.013160884380340576 -0.27148959040641785 0.962351381778717
vn 0.34528666734695435 -0.3572540283203125 0.8678402304649353
vn 0.32313576340675354 -0.3723953664302826 0.8700028657913208
vn 0.562506377696991 -0.4347967207431793 0.7032341957092285
vn 0.2851388454437256 -0.4386138916015625 0.8522403836250305
vn 0.48295310139656067 -0.4150821566581726 0.7710143327713013
vn 0.45192214846611023 -0.2985689640045166 0.8406086564064026
vn 0.7361692190170288 -0.0527377687394619 0.67473965883255
vn 0.7412718534469604 -0.350399911403656 0.5724822878837585
vn 0.9381099343299866 -0.09796673059463501 0.33219319581985474
vn 0.7402521371841431 0.30866381525993347 0.5972883701324463
vn 0.9229975342750549 0.05277891084551811 0.3811691105365753
vn 0.9392350912094116 0.3262230157852173 -0.10684575140476227
vn 0.984122633934021 0.022653907537460327 0.1760382205247879
vn 0.8987239003181458 0.20955301821231842 -0.3852050006389618
vn 0.9779983758926392 0.2024758905172348 -0.05022686347365379
vn 0.8553518652915955 -0.02261817641556263 0.5175535082817078
vn 0.8501440286636353 0.17967577278614044 0.4949462115764618
vn 0.7502473592758179 0.6448689699172974 -0.1458524912595749
vn 0.7600029706954956 0.4663946032524109 -0.45262736082077026
vn 0.8114542961120605 0.22394715249538422 -0.5398051738739014
vn 0.7362071871757507 0.5619386434555054 -0.37712597846984863
vn 0.5842066407203674 0.2777455449104309 -0.762600839138031
vn 0.5945418477058411 0.09780024737119675 -0.7980946898460388
vn 0.5761103630065918 0.16414864361286163 -0.8007197380065918
vn 0.5489749312400818 0.38951846957206726 -0.7395281791687012
vn 0.6496877670288086 0.2297658920288086 -0.7246471047401428
vn 0.27541598677635193 0.37135547399520874 -0.8867024183273315
vn 0.5090050101280212 0.08272136002779007 -0.8567795157432556
vn 0.5373718738555908 0.0678858608007431 -0.8406086564064026
vn 0.5884434580802917 0.007561354897916317 -0.8085030317306519
vn 0.6175638437271118 0.05287010967731476 -0.7847417593002319
vn 0.5112797617912292 0.12721671164035797 -0.8499464392662048
vn 0.5319375395774841 0.12002590298652649 -0.838234007358551
vn 0.5632008910179138 0.31134721636772156 -0.7654199600219727
vn 0.785213053226471 0.25274795293807983 -0.5652954578399658
vn 0.9387456178665161 0.007552420254796743 -0.34452807903289795
vn 0.9725042581558228 0.0904502272605896 0.21460255980491638
vn 0.8170938491821289 -0.022655591368675232 -0.5760593414306641
vn 0.736866295337677 -0.39198896288871765 -0.5507928133010864
vn 0.5247650742530823 -0.5474563837051392 -0.651853621006012
vn 0.4878782033920288 -0.7242101430892944 -0.48733407258987427
vn 0.28476089239120483 -0.9301905632019043 -0.23163928091526031
vn -0.052839670330286026 -0.9649497866630554 -0.25706008076667786
vn 2.6441725870483823e-13 -0.85109543800354 -0.5250110030174255
vn -0.3239418566226959 -0.8918640613555908 -0.31565824151039124
vn -0.16884981095790863 -0.827081024646759 -0.5361219048500061
vn 0.21914756298065186 -0.6499984860420227 -0.7276512384414673
vn 0.5633960962295532 -0.19299347698688507 -0.8033295273780823
vn 0.6155195832252502 -0.14961780607700348 -0.7737894654273987
vn 0.05280560255050659 -0.3672710359096527 -0.9286137819290161
vn -0.07162199914455414 -0.6428921222686768 -0.762600839138031
vn -0.7126019597053528 -0.312033474445343 -0.6283578276634216
vn -0.16884981095790863 -0.827081024646759 -0.5361219048500061
vn 0.6400019526481628 -0.01512029767036438 -0.7682244777679443
vn 0.5805688500404358 0.23587824404239655 -0.7792953848838806
vn 0.37268391251564026 0.3980834484100342 -0.838234007358551
vn 0.40776100754737854 0.37834692001342773 -0.8310141563415527
vn 0.5024363994598389 0.1922597736120224 -0.8429672718048096
vn 0.551798403263092 0.4531545639038086 -0.7001210451126099
vn 0.5716568231582642 0.2567240297794342 -0.7792953848838806
vn 0.5340624451637268 -0.015119412913918495 -0.8453097939491272
vn 0.5632888078689575 0.015128628350794315 -0.8261215686798096
vn 0.3495084047317505 0.2090735286474228 -0.913308322429657
vn 0.3890867531299591 0.320997029542923 -0.8634653687477112
vn 0.5706394910812378 0.007564649451524019 -0.8211658596992493
vn 0.37030401825904846 -0.12628372013568878 -0.9202865362167358
vn 0.2696060240268707 0.12444603443145752 -0.9548956751823425
vn 0.38395774364471436 0.33860495686531067 -0.8590245246887207
vn 0.47443342208862305 0.43971914052963257 -0.762600839138031
vn 0.5723201036453247 0.22887550294399261 -0.7874425053596497
vn 0.42398127913475037 0.09732414036989212 -0.9004265069961548
vn -0.13667424023151398 -0.1273069977760315 -0.9824016690254211
vn -0.5812718272209167 -0.17139261960983276 -0.7954543828964233
vn -0.8986408710479736 -0.20234103500843048 -0.3892335295677185
vn -0.760290801525116 -0.37212613224983215 -0.5324283838272095
vn -0.729344367980957 -0.4683130383491516 -0.4987381398677826
vn -0.9874485731124878 -0.15792569518089294 0.002184694167226553
vn -0.8213001489639282 -0.36676910519599915 -0.43697428703308105
vn -0.9669020771980286 -0.15046565234661102 -0.2060592919588089
vn 0.21470576524734497 0.33662986755371094 -0.916832447052002
vn -0.81254643201828 -0.5772767663002014 -0.08074574917554855
vn -0.8721871972084045 -0.2275211215019226 0.43303996324539185
vn -0.8495283722877502 -0.5166096687316895 0.10684575140476227
vn -0.6219666004180908 -0.7366612553596497 -0.26549527049064636
vn -0.7645980715751648 -0.5928441286087036 0.25283506512641907
vn -0.6753941178321838 -0.7354336380958557 0.05459024757146835
vn -0.6432886719703674 -0.6419551968574524 0.417220801115036
vn -0.591877818107605 -0.6505774259567261 0.4758462607860565
vn -0.5082796812057495 -0.5269421339035034 0.681163489818573
vn -0.5056499242782593 -0.5416591763496399 0.6715083718299866
vn -0.29957908391952515 -0.4686873257160187 0.8310141563415527
vn -0.38282233476638794 -0.647983968257904 0.6584556698799133
vn -0.165606290102005 -0.5901457071304321 0.790128231048584
vn 0.06752680987119675 -0.5225238800048828 0.8499464392662048
vn -0.016893548890948296 -0.3665977120399475 0.9302261471748352
vn -0.07837075740098953 -0.36267679929733276 0.9286137819290161
vn -0.4080643057823181 -0.4040693938732147 0.8186644315719604
vn -0.5849507451057434 -0.6782106757164001 0.44481781125068665
vn -0.635138988494873 -0.7298444509506226 0.25283506512641907
vn -0.7025478482246399 -0.679843008518219 -0.2103329300880432
vn -0.7412248253822327 -0.5497298240661621 -0.3852050006389618
vn -0.6773781180381775 -0.5946723818778992 -0.43303996324539185
vn -0.34244686365127563 -0.512507975101471 -0.7874425053596497
vn 0.0855691209435463 -0.2535511553287506 -0.9635298252105713
vn -0.23899343609809875 -0.08877336978912354 -0.9669547080993652
vn 0.1740226298570633 -0.11428888887166977 -0.9780870079994202
vn -0.1818525791168213 0.29983580112457275 -0.9364978075027466
vn 0.29176220297813416 0.17934556305408478 -0.9395264387130737
vn -0.6580981612205505 -0.2690138816833496 -0.7032341957092285
vn -0.6437168121337891 0.4695543646812439 -0.6042742133140564
vn -0.3251264691352844 0.5782370567321777 -0.7482877969741821
vn -0.3317354619503021 0.8255554437637329 -0.456519216299057
vn -0.2692302465438843 0.826161801815033 -0.4949462115764618
vn -0.519729733467102 0.8147398829460144 0.25706008076667786
vn -0.3995139002799988 0.8979415893554688 0.18463370203971863
vn -0.2600453495979309 0.7905560731887817 -0.5544344186782837
vn -0.5915961265563965 0.7937151193618774 0.1415284425020218
vn -0.7134582996368408 0.6747474670410156 -0.18892620503902435
vn -0.759935736656189 0.5894665718078613 -0.27391019463539124
vn -0.6410161256790161 0.7649115324020386 0.0633138045668602
vn -0.5785254836082458 0.771246075630188 0.26549527049064636
vn -0.48634690046310425 0.7719911932945251 0.40926313400268555
vn -0.3752093017101288 0.8257232308387756 0.42118772864341736
vn -0.40384581685066223 0.8100363612174988 0.42514660954475403
vn -0.18734440207481384 0.9273436069488525 0.3239381015300751
vn -0.3181544542312622 0.8863816857337952 0.3363112509250641
vn 0.24400083720684052 0.8535181879997253 0.46040233969688416
vn 0.0018863173900172114 0.9474827647209167 0.3198012113571167
vn 0.49124348163604736 0.6626619696617126 0.5652954578399658
vn -0.41897058486938477 0.8513656854629517 0.31565824151039124
vn -0.48581504821777344 0.8213200569152832 0.2990269064903259
vn -0.4846412241458893 0.7388949990272522 0.46814218163490295
vn -0.4221409261226654 0.8368133306503296 0.34862664341926575
vn -0.43309563398361206 0.8205137252807617 0.37307560443878174
vn -0.42838385701179504 0.877743124961853 0.21460255980491638
vn -0.5296862721443176 0.8419774770736694 -0.10250037163496017
vn -0.7467501163482666 0.641385018825531 -0.1760382205247879
vn -0.34933769702911377 0.935873806476593 0.04586252197623253
vn -0.27764567732810974 0.9595881700515747 0.04586252197623253
vn -0.2974526882171631 0.9496777653694153 0.0981530249118805
vn -0.2757822275161743 0.9611580967903137 0.010923261754214764
vn -0.32599368691444397 0.9397988319396973 0.10250037163496017
vn -0.36156755685806274 0.9271649718284607 0.0981530249118805
vn -0.4810571074485779 0.8684557676315308 0.11986933648586273
vn -0.8606092929840088 0.32840362191200256 0.3892335295677185
vn -0.4404790699481964 0.8836053013801575 0.15880759060382843
vn -0.33507558703422546 0.9408515095710754 0.05022686347365379
vn -0.26842358708381653 0.9628823399543762 -0.028397228568792343
vn -0.30449435114860535 0.9517901539802551 -0.03713129088282585
vn -0.4407844543457031 0.8842178583145142 0.15449213981628418
vn -0.6952488422393799 0.24770037829875946 0.67473965883255
vn -0.23188289999961853 0.9723291397094727 -0.028397228568792343
vn -0.3259778320789337 0.9446479082107544 -0.03713129088282585
vn -0.4622541069984436 0.8760689496994019 0.1372016966342926
vn -0.435269832611084 0.8845946192741394 0.16742929816246033
vn -0.36306193470954895 0.9245749115943909 0.11553031951189041
vn -0.39142054319381714 0.9190683364868164 0.04586252197623253
vn -0.3099004030227661 0.9366715550422668 -0.16312000155448914
vn -0.2936745882034302 0.9478017091751099 -0.1242060661315918
vn -0.3368070423603058 0.9241424798965454 -0.18033768236637115
vn -0.32254624366760254 0.9389330744743347 -0.11986933648586273
vn -0.3310943841934204 0.9188700914382935 -0.21460255980491638
vn -0.39643341302871704 0.9176241755485535 -0.028397228568792343
vn -0.27574536204338074 0.9610296487808228 -0.01966099627315998
vn -0.24281427264213562 0.962088406085968 0.1242060661315918
vn 0.44910043478012085 0.8859805464744568 0.11553031951189041
vn 0.543760359287262 0.8286553025245667 0.1328723281621933
vn 0.6523736119270325 0.7350640296936035 0.18463370203971863
vn 0.49081510305404663 0.8652133941650391 0.10250037163496017
vn -0.02264375053346157 0.9848828315734863 0.17173540592193604
vn -0.011315636336803436 0.924436092376709 0.3811691105365753
vn -0.003765546716749668 0.5489551424980164 0.8358433246612549
vn -0.311014860868454 0.9035100936889648 0.2948545813560486
vn -0.15966886281967163 0.18218590319156647 0.9702134728431702
vn -0.2766551971435547 0.4741601049900055 0.8358433246612549
vn -0.39878615736961365 0.20995338261127472 0.8926864862442017
vn -0.4050361216068268 0.253390371799469 0.8784868121147156
vn -0.5236058235168457 0.1523175984621048 0.838234007358551
vn -0.4651889503002167 0.0675760805606842 0.882628321647644
vn -0.5180597305297852 -0.14498357474803925 0.8429672718048096
vn -0.6258761286735535 0.13457423448562622 0.7682244777679443
vn -0.5352400541305542 -0.2446240931749344 0.8085030317306519
vn -0.6991482973098755 -0.3283279240131378 0.6351318359375
vn -0.7184427976608276 -0.5443494319915771 0.43303996324539185
vn -0.9190139174461365 -0.3755592107772827 0.11986933648586273
vn -0.6637380123138428 -0.5399909019470215 0.5175535082817078
vn -0.7131505608558655 -0.19011232256889343 0.67473965883255
vn -0.50416100025177 -0.5588003993034363 0.6584556698799133
vn -0.6187015771865845 -0.07512397319078445 0.7820260524749756
vn -0.48091036081314087 0.08989772945642471 0.872148871421814
vn -0.1581922024488449 -0.04786509647965431 0.9862475395202637
vn -0.21135103702545166 -0.5262402892112732 0.8236515522003174
vn 0.07483544200658798 -0.40033426880836487 0.913308322429657
vn 0.5770555734634399 0.3708510994911194 0.7276512384414673
vn -0.003765546716749668 0.5489551424980164 0.8358433246612549
vn 0.31214281916618347 -0.030034948140382767 0.949560284614563
vn -0.15966886281967163 0.18218590319156647 0.9702134728431702
vn 0.07352390885353088 -0.061693884432315826 0.9953833818435669
vn -0.1581922024488449 -0.04786509647965431 0.9862475395202637
vn -0.4050361216068268 0.253390371799469 0.8784868121147156
vn 0.25995969772338867 -0.37763509154319763 0.888714075088501
vn 0.06752680987119675 -0.5225238800048828 0.8499464392662048
vn -0.016893548890948296 -0.3665977120399475 0.9302261471748352
vn -0.07837075740098953 -0.36267679929733276 0.9286137819290161
vn -0.33444762229919434 -0.3357802629470825 0.8805659413337708
vn -0.4080643057823181 -0.4040693938732147 0.8186644315719604
vn -0.623115599155426 -0.4322196841239929 0.651853621006012
vn -0.5082796812057495 -0.5269421339035034 0.681163489818573
vn -0.591877818107605 -0.6505774259567261 0.4758462607860565
vn -0.7260169386863708 -0.42134425044059753 0.5434780716896057
vn -0.7645980715751648 -0.5928441286087036 0.25283506512641907
vn 0.07483544200658798 -0.40033426880836487 0.913308322429657
vn -0.5061851739883423 -0.2712289094924927 0.8186644315719604
vn -0.715638279914856 -0.16803202033042908 0.677958071231842
vn -0.8413165807723999 -0.24917656183242798 0.4796847105026245
vn -0.8495283722877502 -0.5166096687316895 0.10684575140476227
vn -0.8721871972084045 -0.2275211215019226 0.43303996324539185
vn -0.8369743824005127 0.06407373398542404 0.5434780716896057
vn -0.9874485731124878 -0.15792569518089294 0.002184694167226553
vn -0.7605262994766235 0.23759706318378448 0.6042742133140564
vn -0.9203305840492249 0.06788766384124756 0.3852050006389618
vn -0.5925495624542236 -0.18183888494968414 0.7847417593002319
vn -0.6397187113761902 0.2292705923318863 0.7336177229881287
vn -0.6465947031974792 -0.018848909065127373 0.762600839138031
vn -0.5778828263282776 -0.06389357894659042 0.8136147856712341
vn -0.5676606893539429 0.27337098121643066 0.7765498161315918
vn -0.5710324645042419 0.3311370015144348 0.7511792182922363
vn -0.5461373925209045 0.12327256798744202 0.8285757899284363
vn -0.29225820302963257 0.45602869987487793 0.8406086564064026
vn -0.9669020771980286 -0.15046565234661102 -0.2060592919588089
vn -0.546612560749054 -0.46412643790245056 0.6969945430755615
vn -0.37367257475852966 -0.7125981450080872 0.5937783122062683
vn -0.17403464019298553 -0.8012340068817139 0.5724822878837585
vn -0.6217690110206604 0.38654831051826477 0.681163489818573
vn -0.623115599155426 0.4322196841239929 0.651853621006012
vn -0.6376460790634155 0.3536444306373596 0.6843559741973877
vn -0.65995854139328 0.24734126031398773 0.7094202041625977
vn -0.6927056312561035 0.09024559706449509 0.715552031993866
vn -0.8757491707801819 -0.47799965739250183 -0.06767380982637405
vn -0.8757491707801819 -0.47799965739250183 -0.06767380982637405
vn -0.8757491707801819 -0.47799965739250183 -0.06767380982637405
vn 0.1443336457014084 -0.3374123275279999 0.9302261471748352
vn 0.1443336457014084 -0.3374123275279999 0.9302261471748352
vn 0.1443336457014084 -0.3374123275279999 0.9302261471748352
vn 0.6430152058601379 0.7509855031967163 -0.15017375349998474
vn 0.6430152058601379 0.7509855031967163 -0.15017375349998474
vn 0.6430152058601379 0.7509855031967163 -0.15017375349998474
vn -0.07546036690473557 0.8287992477416992 -0.5544344186782837
vn -0.07546036690473557 0.8287992477416992 -0.5544344186782837
vn -0.07546036690473557 0.8287992477416992 -0.5544344186782837
vt 0.5714117288589478 0.7668642997741699
vt 0.5182592272758484 0.8136833906173706
vt 0.5395607948303223 0.7645537853240967
vt 0.4983777701854706 0.7594462037086487
vt 0.5377349257469177 0.7108030319213867
vt 0.47951069474220276 0.7199236154556274
vt 0.4651067852973938 0.6664161086082458
vt 0.5240411162376404 0.6521880030632019
vt 0.5876414775848389 0.7127487659454346
vt 0.5787150859832764 0.6475668549537659
vt 0.6180722713470459 0.6493909955024719
vt 0.6112760305404663 0.7110462188720703
vt 0.6428226232528687 0.6496341824531555
vt 0.618478000164032 0.5840874910354614
vt 0.6537777185440063 0.5831146240234375
vt 0.6548935174942017 0.5095418095588684
vt 0.6852229237556458 0.5029749870300293
vt 0.6844114065170288 0.5783719420433044
vt 0.7137264013290405 0.5783719420433044
vt 0.6787309646606445 0.6493909955024719
vt 0.7028727531433105 0.6514583230018616
vt 0.6685873866081238 0.7050874829292297
vt 0.6844114065170288 0.5783719420433044
vt 0.4693670868873596 0.7930100560188293
vt 0.4201706349849701 0.749352753162384
vt 0.723971426486969 0.6653216481208801
vt 0.7086545825004578 0.7031417489051819
vt 0.6919176578521729 0.7036281824111938
vt 0.6875559091567993 0.7554331421852112
vt 0.6637184619903564 0.7626080513000488
vt 0.6885702610015869 0.8038331270217896
vt 0.7115962505340576 0.7396241426467896
vt 0.7420270442962646 0.7067899703979492
vt 0.7484174966812134 0.6000181436538696
vt 0.7629228830337524 0.5089337229728699
vt 0.7172766923904419 0.4976242184638977
vt 0.7626185417175293 0.4205247461795807
vt 0.7194068431854248 0.4140795171260834
vt 0.7148422002792358 0.3271297812461853
vt 0.6827884316444397 0.3208061754703522
vt 0.6863386631011963 0.41310665011405945
vt 0.6512418389320374 0.41298502683639526
vt 0.6326790452003479 0.23178912699222565
vt 0.6474887132644653 0.31423935294151306
vt 0.6072186231613159 0.31995493173599243
vt 0.6150291562080383 0.4217408299446106
vt 0.5757734775543213 0.4534805119037628
vt 0.5790194272994995 0.5169599056243896
vt 0.621013879776001 0.5116091370582581
vt 0.618478000164032 0.5840874910354614
vt 0.5620796084403992 0.26790669560432434
vt 0.5373291969299316 0.33977702260017395
vt 0.5601522922515869 0.3846503794193268
vt 0.5112601518630981 0.2913770377635956
vt 0.47433745861053467 0.33965542912483215
vt 0.501319408416748 0.3893930912017822
vt 0.429604172706604 0.3709086775779724
vt 0.44593536853790283 0.3030514121055603
vt 0.4092155396938324 0.33430466055870056
vt 0.37766894698143005 0.357896625995636
vt 0.3858852684497833 0.3924332857131958
vt 0.35099127888679504 0.41590362787246704
vt 0.3986662030220032 0.4381578862667084
vt 0.4511086046695709 0.41724130511283875
vt 0.46317949891090393 0.4688031077384949
vt 0.513390302658081 0.43852272629737854
vt 0.5256640911102295 0.4927598834037781
vt 0.5170419812202454 0.538970947265625
vt 0.5162305235862732 0.597464382648468
vt 0.5696873068809509 0.5862764120101929
vt 0.45597752928733826 0.6176512837409973
vt 0.39907193183898926 0.6873326897621155
vt 0.342267781496048 0.7142080664634705
vt 0.37442299723625183 0.7886321544647217
vt 0.4312271475791931 0.8246281147003174
vt 0.4592234790325165 0.85588139295578
vt 0.32755956053733826 0.8557597398757935
vt 0.49188587069511414 0.8900532126426697
vt 0.4578033983707428 0.9591265916824341
vt 0.2933756411075592 0.7352462410926819
vt 0.3418620228767395 0.659241259098053
vt 0.3016933798789978 0.6655648350715637
vt 0.2642635107040405 0.6638623476028442
vt 0.21567565202713013 0.7024120688438416
vt 0.18149171769618988 0.6222724318504333
vt 0.18636064231395721 0.8018874526023865
vt 0.39430445432662964 0.6396623253822327
vt 0.4493841826915741 0.5680352449417114
vt 0.4541516900062561 0.5209729671478271
vt 0.39633315801620483 0.5424975752830505
vt 0.40333226323127747 0.48911166191101074
vt 0.35200563073158264 0.5534422993659973
vt 0.3540343642234802 0.501758873462677
vt 0.3564688265323639 0.4522644281387329
vt 0.32908108830451965 0.4281860291957855
vt 0.34886112809181213 0.37990766763687134
vt 0.3904498815536499 0.5935729146003723
vt 0.3267480731010437 0.4566422998905182
vt 0.29875174164772034 0.44484633207321167
vt 0.3237049877643585 0.40909358859062195
vt 0.3101125657558441 0.49859708547592163
vt 0.2933756411075592 0.5473618507385254
vt 0.34571659564971924 0.6067065596580505
vt 0.2985488772392273 0.608287513256073
vt 0.24813517928123474 0.6068282127380371
vt 0.24255619943141937 0.53094482421875
vt 0.20532917976379395 0.5144060850143433
vt 0.24103465676307678 0.45980411767959595
vt 0.1747969388961792 0.4899629056453705
vt 0.09374958276748657 0.6397839784622192
vt 0.21567565202713013 0.7024120688438416
vt 0.18636064231395721 0.8018874526023865
vt 0.24255619943141937 0.53094482421875
vt 0.14183025062084198 0.42356494069099426
vt 0.0458717867732048 0.5235267281532288
vt 0.030757823958992958 0.4684382975101471
vt 0.10095153748989105 0.3994865417480469
vt 0.017571143805980682 0.41456595063209534
vt 0.0818815678358078 0.36628755927085876
vt 0.06544893234968185 0.31460416316986084
vt 0.011180675588548183 0.3362503945827484
vt 0.00377584807574749 0.2672986686229706
vt 0.05855128914117813 0.23872077465057373
vt 0.0641302689909935 0.15031175315380096
vt 0.12022437900304794 0.1939690262079239
vt 0.1376713663339615 0.10957308113574982
vt 0.13594695925712585 0.03089270368218422
vt 0.06271016597747803 0.07977911829948425
vt 0.0019499999471008778 0.12197709828615189
vt 0.008441903628408909 0.18375396728515625
vt 0.11758703738451004 0.2657177448272705
vt 0.1356426477432251 0.3087669909000397
vt 0.16394329071044922 0.3208061754703522
vt 0.22003740072250366 0.3242112100124359
vt 0.20847369730472565 0.4042292535305023
vt 0.22054457664489746 0.43195587396621704
vt 0.24103465676307678 0.45980411767959595
vt 0.25543856620788574 0.4028915762901306
vt 0.27745017409324646 0.4201599061489105
vt 0.30656230449676514 0.3845287561416626
vt 0.2762329578399658 0.4829096496105194
vt 0.25817734003067017 0.3643418252468109
vt 0.25817734003067017 0.3643418252468109
vt 0.3376017212867737 0.347316712141037
vt 0.3685396909713745 0.32092779874801636
vt 0.3951159417629242 0.3107127249240875
vt 0.4069839417934418 0.2940524220466614
vt 0.44593536853790283 0.3030514121055603
vt 0.4092155396938324 0.33430466055870056
vt 0.35677313804626465 0.3031730055809021
vt 0.31244561076164246 0.31946849822998047
vt 0.22003740072250366 0.3242112100124359
vt 0.2808989882469177 0.30110567808151245
vt 0.3433835804462433 0.25854286551475525
vt 0.4144902229309082 0.23191073536872864
vt 0.47880062460899353 0.2721629738807678
vt 0.493813157081604 0.22558711469173431
vt 0.5112601518630981 0.2913770377635956
vt 0.5368220210075378 0.24735493957996368
vt 0.5620796084403992 0.26790669560432434
vt 0.5781064629554749 0.2219388782978058
vt 0.6072186231613159 0.31995493173599243
vt 0.535909116268158 0.20357605814933777
vt 0.4812350869178772 0.17743034660816193
vt 0.4463411271572113 0.20649465918540955
vt 0.42676398158073425 0.18071375787258148
vt 0.3767560124397278 0.1991981714963913
vt 0.3250236511230469 0.2244926393032074
vt 0.2676108777523041 0.2563539445400238
vt 0.23819445073604584 0.2629207670688629
vt 0.2642635107040405 0.23045143485069275
vt 0.30149051547050476 0.20211677253246307
vt 0.3524113893508911 0.17439013719558716
vt 0.32340067625045776 0.15687859058380127
vt 0.4054624140262604 0.15298713743686676
vt 0.27887028455734253 0.19287456572055817
vt 0.24914953112602234 0.23288358747959137
vt 0.23677434027194977 0.22619515657424927
vt 0.2640606164932251 0.18922631442546844
vt 0.304736465215683 0.1510414034128189
vt 0.36032339930534363 0.11662634462118149
vt 0.3376017212867737 0.09960122406482697
vt 0.2881009578704834 0.14374493062496185
vt 0.25381559133529663 0.1830243170261383
vt 0.38172638416290283 0.13280020654201508
vt 0.4384291172027588 0.11832885444164276
vt 0.4579048156738281 0.14605547487735748
vt 0.5118687748908997 0.1537167876958847
vt 0.5664413571357727 0.1736605018377304
vt 0.490262895822525 0.12331478297710419
vt 0.47940924763679504 0.10142534226179123
vt 0.41946056485176086 0.09607458859682083
vt 0.4842781722545624 0.07552284002304077
vt 0.39897051453590393 0.06591580808162689
vt 0.5195779204368591 0.11091076582670212
vt 0.5386478900909424 0.13401629030704498
vt 0.597582221031189 0.14873085916042328
vt 0.6093487739562988 0.19165848195552826
vt 0.6056970953941345 0.22935695946216583
vt 0.6072186231613159 0.31995493173599243
vt 0.6474887132644653 0.31423935294151306
vt 0.6326790452003479 0.23178912699222565
vt 0.6325775980949402 0.2016303390264511
vt 0.6524590849876404 0.18801024556159973
vt 0.5864242315292358 0.10568162053823471
vt 0.5467627644538879 0.1032494604587555
vt 0.5030438303947449 0.055457521229982376
vt 0.4842781722545624 0.07552284002304077
vt 0.39897051453590393 0.06591580808162689
vt 0.37493017315864563 0.038554009050130844
vt 0.3088953495025635 0.08525148034095764
vt 0.3376017212867737 0.09960122406482697
vt 0.2881009578704834 0.14374493062496185
vt 0.2645677924156189 0.13596200942993164
vt 0.24722224473953247 0.1724444180727005
vt 0.2285580188035965 0.21427756547927856
vt 0.18717212975025177 0.25294890999794006
vt 0.21415410935878754 0.2607318162918091
vt 0.17773859202861786 0.21962831914424896
vt 0.22135606408119202 0.18752381205558777
vt 0.1857520341873169 0.1576082408428192
vt 0.23312264680862427 0.13948865234851837
vt 0.27471140027046204 0.07673891633749008
vt 0.3184303343296051 0.016056528314948082
vt 0.21618282794952393 0.07819821685552597
vt 0.24154183268547058 0.0019499999471008778
vt 0.6552992463111877 0.22424942255020142
vt 0.7119005918502808 0.2032112330198288
vt 0.6999311447143555 0.24005846679210663
vt 0.7718492150306702 0.23008660972118378
vt 0.7580539584159851 0.2655961513519287
vt 0.8244945406913757 0.2762976586818695
vt 0.8328122496604919 0.245895653963089
vt 0.7536922097206116 0.32773783802986145
vt 0.8221614956855774 0.43840110301971436
vt 0.8118150234222412 0.5411598682403564
vt 0.7820942997932434 0.6492694020271301
vt 0.7477074861526489 0.7662562727928162
vt 0.7888904809951782 0.7421779036521912
vt 0.751460611820221 0.8072381615638733
vt 0.7829057574272156 0.8211014866828918
vt 0.7679946422576904 0.8665828704833984
vt 0.7312748432159424 0.8297356367111206
vt 0.7386796474456787 0.9041597247123718
vt 0.821958601474762 0.3347910940647125
vt 0.716870903968811 0.7879024744033813
vt 0.7035828232765198 0.8518683314323425
vt 0.6734563112258911 0.8699879050254822
vt 0.7137264013290405 0.9321296215057373
vt 0.6780209541320801 0.9580320715904236
vt 0.6326790452003479 0.8872562646865845
vt 0.583381175994873 0.9980411529541016
vt 0.5563991665840149 0.9019708037376404
vt 0.49188587069511414 0.8900532126426697
vt 0.5539647340774536 0.8237768411636353
vt 0.593017578125 0.8260874152183533
vt 0.6291288137435913 0.8208582997322083
vt 0.6592552661895752 0.8138049840927124
vt 0.6393738389015198 0.7645537853240967
vt 0.6024511456489563 0.7643105387687683
vt 0.5714117288589478 0.7668642997741699
vt 0.5876414775848389 0.7127487659454346
vt 0.4578033983707428 0.9591265916824341
vt 0.5182592272758484 0.8136833906173706
vt 0.4592234790325165 0.85588139295578
vt 0.49188587069511414 0.8900532126426697
vt 0.6112760305404663 0.7110462188720703
vt 0.6396781206130981 0.7066683769226074
vt 0.6428226232528687 0.6496341824531555
vt 0.6787309646606445 0.6493909955024719
vt 0.6844114065170288 0.5783719420433044
vt 0.25817734003067017 0.3643418252468109
vt 0.25543856620788574 0.4028915762901306
vt 0.22054457664489746 0.43195587396621704
vt 0.5876414775848389 0.7127487659454346
vt 0.6024511456489563 0.7643105387687683
vt 0.6112760305404663 0.7110462188720703
vt 0.47433745861053467 0.33965542912483215
vt 0.44593536853790283 0.3030514121055603
vt 0.47880062460899353 0.2721629738807678
vt 0.47433745861053467 0.33965542912483215
vt 0.5112601518630981 0.2913770377635956
vt 0.47880062460899353 0.2721629738807678
s on
f 1/1/1 2/2/2 3/3/3
f 2/2/2 4/4/4 3/3/3
f 3/3/3 4/4/4 5/5/5
f 4/4/4 6/6/6 5/5/5
f 6/6/6 7/7/7 5/5/5
f 7/7/7 8/8/8 5/5/5
f 5/5/5 8/8/8 9/9/9
f 8/8/8 10/10/10 9/9/9
f 10/10/10 11/11/11 9/9/9
f 9/9/9 11/11/11 12/12/12
f 12/12/12 11/11/11 13/13/13
f 11/11/11 14/14/14 13/13/13
f 13/13/13 14/14/14 15/15/15
f 14/14/14 16/16/16 15/15/15
f 16/16/16 17/17/17 15/15/15
f 15/15/15 17/17/17 18/18/18
f 17/17/17 19/19/19 18/18/18
f 18/18/18 19/19/19 20/20/20
f 19/19/19 21/21/21 20/20/20
f 20/20/20 21/21/21 22/22/22
f 1/1/1 3/3/3 9/9/9
f 9/9/9 3/3/3 5/5/5
f 13/13/13 15/15/15 23/23/23
f 24/24/24 25/25/25 4/4/4
f 25/25/25 6/6/6 4/4/4
f 4/4/4 2/2/2 24/24/24
f 19/19/19 26/26/26 21/21/21
f 26/26/26 27/27/27 21/21/21
f 21/21/21 27/27/27 28/28/28
f 27/27/27 29/29/29 28/28/28
f 28/28/28 29/29/29 22/22/22
f 22/22/22 29/29/29 30/30/30
f 30/30/30 29/29/29 31/31/31
f 31/31/31 29/29/29 32/32/32
f 29/29/29 27/27/27 32/32/32
f 32/32/32 27/27/27 33/33/33
f 27/27/27 26/26/26 33/33/33
f 33/33/33 26/26/26 34/34/34
f 26/26/26 19/19/19 34/34/34
f 34/34/34 19/19/19 35/35/35
f 19/19/19 36/36/36 35/35/35
f 35/35/35 36/36/36 37/37/37
f 36/36/36 38/38/38 37/37/37
f 37/37/37 38/38/38 39/39/39
f 39/39/39 38/38/38 40/40/40
f 38/38/38 41/41/41 40/40/40
f 40/40/40 41/41/41 42/42/42
f 42/42/42 41/41/41 16/16/16
f 16/16/16 41/41/41 17/17/17
f 41/41/41 36/36/36 17/17/17
f 17/17/17 36/36/36 19/19/19
f 22/22/22 21/21/21 28/28/28
f 41/41/41 38/38/38 36/36/36
f 43/43/43 40/40/40 44/44/44
f 40/40/40 42/42/42 44/44/44
f 44/44/44 42/42/42 45/45/45
f 42/42/42 46/46/46 45/45/45
f 45/45/45 46/46/46 47/47/47
f 47/47/47 46/46/46 48/48/48
f 46/46/46 49/49/49 48/48/48
f 48/48/48 49/49/49 50/50/50
f 50/50/50 49/49/49 16/16/16
f 49/49/49 46/46/46 16/16/16
f 16/16/16 46/46/46 42/42/42
f 51/51/51 45/45/45 52/52/52
f 52/52/52 45/45/45 53/53/53
f 45/45/45 47/47/47 53/53/53
f 51/51/51 52/52/52 54/54/54
f 54/54/54 52/52/52 55/55/55
f 52/52/52 56/56/56 55/55/55
f 56/56/56 57/57/57 55/55/55
f 55/55/55 57/57/57 58/58/58
f 58/58/58 57/57/57 59/59/59
f 59/59/59 57/57/57 60/60/60
f 57/57/57 61/61/61 60/60/60
f 60/60/60 61/61/61 62/62/62
f 62/62/62 61/61/61 63/63/63
f 61/61/61 57/57/57 63/63/63
f 63/63/63 57/57/57 64/64/64
f 57/57/57 56/56/56 64/64/64
f 64/64/64 56/56/56 65/65/65
f 56/56/56 66/66/66 65/65/65
f 65/65/65 66/66/66 67/67/67
f 66/66/66 53/53/53 67/67/67
f 53/53/53 47/47/47 67/67/67
f 47/47/47 48/48/48 67/67/67
f 67/67/67 48/48/48 68/68/68
f 68/68/68 48/48/48 69/69/69
f 69/69/69 48/48/48 70/70/70
f 48/48/48 50/50/50 70/70/70
f 70/70/70 50/50/50 10/10/10
f 50/50/50 11/11/11 10/10/10
f 52/52/52 53/53/53 56/56/56
f 53/53/53 66/66/66 56/56/56
f 65/65/65 63/63/63 64/64/64
f 10/10/10 8/8/8 70/70/70
f 70/70/70 8/8/8 69/69/69
f 8/8/8 7/7/7 69/69/69
f 69/69/69 7/7/7 71/71/71
f 71/71/71 7/7/7 72/72/72
f 7/7/7 6/6/6 72/72/72
f 6/6/6 25/25/25 72/72/72
f 72/72/72 25/25/25 73/73/73
f 73/73/73 25/25/25 74/74/74
f 25/25/25 24/24/24 74/74/74
f 74/74/74 24/24/24 75/75/75
f 24/24/24 2/2/2 75/75/75
f 2/2/2 76/76/76 75/75/75
f 75/75/75 76/76/76 77/77/77
f 76/76/76 78/78/78 77/77/77
f 77/77/77 78/78/78 79/79/79
f 75/75/75 77/77/77 74/74/74
f 74/74/74 77/77/77 73/73/73
f 77/77/77 80/80/80 73/73/73
f 73/73/73 80/80/80 81/81/81
f 81/81/81 80/80/80 82/82/82
f 82/82/82 80/80/80 83/83/83
f 80/80/80 84/84/84 83/83/83
f 83/83/83 84/84/84 85/85/85
f 77/77/77 86/86/86 80/80/80
f 80/80/80 86/86/86 84/84/84
f 73/73/73 81/81/81 72/72/72
f 81/81/81 87/87/87 72/72/72
f 72/72/72 87/87/87 71/71/71
f 87/87/87 88/88/88 71/71/71
f 71/71/71 88/88/88 69/69/69
f 69/69/69 88/88/88 68/68/68
f 68/68/68 88/88/88 67/67/67
f 88/88/88 89/89/89 67/67/67
f 67/67/67 89/89/89 65/65/65
f 89/89/89 90/90/90 65/65/65
f 65/65/65 90/90/90 91/91/91
f 90/90/90 92/92/92 91/91/91
f 92/92/92 93/93/93 91/91/91
f 91/91/91 93/93/93 63/63/63
f 93/93/93 94/94/94 63/63/63
f 63/63/63 94/94/94 62/62/62
f 94/94/94 95/95/95 62/62/62
f 95/95/95 96/96/96 62/62/62
f 62/62/62 96/96/96 60/60/60
f 65/65/65 91/91/91 63/63/63
f 89/89/89 88/88/88 97/97/97
f 88/88/88 87/87/87 97/97/97
f 89/89/89 97/97/97 90/90/90
f 93/93/93 98/98/98 94/94/94
f 94/94/94 98/98/98 95/95/95
f 98/98/98 99/99/99 95/95/95
f 99/99/99 100/100/100 95/95/95
f 95/95/95 100/100/100 96/96/96
f 99/99/99 98/98/98 101/101/101
f 98/98/98 93/93/93 101/101/101
f 101/101/101 93/93/93 102/102/102
f 93/93/93 92/92/92 102/102/102
f 102/102/102 92/92/92 103/103/103
f 92/92/92 90/90/90 103/103/103
f 90/90/90 97/97/97 103/103/103
f 97/97/97 87/87/87 103/103/103
f 87/87/87 81/81/81 103/103/103
f 81/81/81 82/82/82 103/103/103
f 103/103/103 82/82/82 104/104/104
f 82/82/82 83/83/83 104/104/104
f 104/104/104 83/83/83 105/105/105
f 83/83/83 85/85/85 105/105/105
f 105/105/105 85/85/85 106/106/106
f 85/85/85 107/107/107 106/106/106
f 106/106/106 107/107/107 108/108/108
f 108/108/108 107/107/107 109/109/109
f 109/109/109 107/107/107 110/110/110
f 107/107/107 85/85/85 110/110/110
f 85/85/85 111/111/111 110/110/110
f 110/110/110 111/111/111 112/112/112
f 103/103/103 104/104/104 102/102/102
f 102/102/102 104/104/104 113/113/113
f 104/104/104 105/105/105 113/113/113
f 113/113/113 101/101/101 102/102/102
f 109/109/109 110/110/110 114/114/114
f 110/110/110 115/115/115 114/114/114
f 115/115/115 116/116/116 114/114/114
f 114/114/114 116/116/116 117/117/117
f 116/116/116 118/118/118 117/117/117
f 117/117/117 118/118/118 119/119/119
f 119/119/119 118/118/118 120/120/120
f 118/118/118 121/121/121 120/120/120
f 121/121/121 122/122/122 120/120/120
f 120/120/120 122/122/122 123/123/123
f 122/122/122 124/124/124 123/123/123
f 123/123/123 124/124/124 125/125/125
f 125/125/125 124/124/124 126/126/126
f 126/126/126 124/124/124 127/127/127
f 127/127/127 124/124/124 128/128/128
f 128/128/128 124/124/124 129/129/129
f 129/129/129 124/124/124 130/130/130
f 124/124/124 122/122/122 130/130/130
f 125/125/125 131/131/131 123/123/123
f 123/123/123 131/131/131 120/120/120
f 120/120/120 131/131/131 119/119/119
f 131/131/131 132/132/132 119/119/119
f 119/119/119 132/132/132 117/117/117
f 132/132/132 133/133/133 117/117/117
f 133/133/133 134/134/134 117/117/117
f 117/117/117 134/134/134 114/114/114
f 134/134/134 135/135/135 114/114/114
f 114/114/114 135/135/135 109/109/109
f 135/135/135 136/136/136 109/109/109
f 109/109/109 136/136/136 137/137/137
f 136/136/136 138/138/138 137/137/137
f 137/137/137 138/138/138 139/139/139
f 138/138/138 140/140/140 139/139/139
f 140/140/140 100/100/100 139/139/139
f 100/100/100 99/99/99 139/139/139
f 139/139/139 99/99/99 137/137/137
f 99/99/99 141/141/141 137/137/137
f 137/137/137 141/141/141 113/113/113
f 113/113/113 141/141/141 101/101/101
f 141/141/141 99/99/99 101/101/101
f 136/136/136 135/135/135 142/142/142
f 135/135/135 134/134/134 142/142/142
f 138/138/138 143/143/143 140/140/140
f 143/143/143 144/144/144 140/140/140
f 140/140/140 144/144/144 100/100/100
f 100/100/100 144/144/144 96/96/96
f 96/96/96 144/144/144 60/60/60
f 144/144/144 145/145/145 60/60/60
f 60/60/60 145/145/145 146/146/146
f 145/145/145 147/147/147 146/146/146
f 147/147/147 148/148/148 146/146/146
f 148/148/148 149/149/149 146/146/146
f 146/146/146 149/149/149 60/60/60
f 147/147/147 145/145/145 150/150/150
f 145/145/145 144/144/144 150/150/150
f 150/150/150 144/144/144 151/151/151
f 144/144/144 143/143/143 151/151/151
f 143/143/143 152/152/152 151/151/151
f 152/152/152 153/153/153 151/151/151
f 153/153/153 154/154/154 151/151/151
f 151/151/151 154/154/154 150/150/150
f 154/154/154 155/155/155 150/150/150
f 150/150/150 155/155/155 147/147/147
f 147/147/147 155/155/155 148/148/148
f 148/148/148 155/155/155 156/156/156
f 155/155/155 157/157/157 156/156/156
f 156/156/156 157/157/157 158/158/158
f 157/157/157 159/159/159 158/158/158
f 158/158/158 159/159/159 160/160/160
f 159/159/159 161/161/161 160/160/160
f 160/160/160 161/161/161 162/162/162
f 161/161/161 159/159/159 163/163/163
f 163/163/163 159/159/159 164/164/164
f 159/159/159 157/157/157 164/164/164
f 164/164/164 157/157/157 165/165/165
f 157/157/157 155/155/155 165/165/165
f 165/165/165 155/155/155 166/166/166
f 166/166/166 155/155/155 167/167/167
f 167/167/167 155/155/155 168/168/168
f 155/155/155 154/154/154 168/168/168
f 154/154/154 153/153/153 168/168/168
f 168/168/168 153/153/153 169/169/169
f 153/153/153 152/152/152 169/169/169
f 152/152/152 170/170/170 169/169/169
f 170/170/170 171/171/171 169/169/169
f 169/169/169 171/171/171 168/168/168
f 171/171/171 172/172/172 168/168/168
f 168/168/168 172/172/172 173/173/173
f 172/172/172 174/174/174 173/173/173
f 174/174/174 175/175/175 173/173/173
f 173/173/173 175/175/175 166/166/166
f 175/175/175 164/164/164 166/166/166
f 166/166/166 164/164/164 165/165/165
f 168/168/168 173/173/173 167/167/167
f 167/167/167 173/173/173 166/166/166
f 174/174/174 172/172/172 176/176/176
f 172/172/172 171/171/171 176/176/176
f 176/176/176 171/171/171 177/177/177
f 171/171/171 170/170/170 177/177/177
f 170/170/170 178/178/178 177/177/177
f 177/177/177 178/178/178 176/176/176
f 178/178/178 179/179/179 176/176/176
f 176/176/176 179/179/179 174/174/174
f 179/179/179 180/180/180 174/174/174
f 174/174/174 180/180/180 181/181/181
f 181/181/181 180/180/180 182/182/182
f 182/182/182 180/180/180 183/183/183
f 180/180/180 179/179/179 183/183/183
f 183/183/183 179/179/179 184/184/184
f 179/179/179 178/178/178 184/184/184
f 181/181/181 185/185/185 174/174/174
f 174/174/174 185/185/185 175/175/175
f 185/185/185 186/186/186 175/175/175
f 175/175/175 186/186/186 187/187/187
f 186/186/186 188/188/188 187/187/187
f 187/187/187 188/188/188 164/164/164
f 164/164/164 188/188/188 163/163/163
f 163/163/163 188/188/188 161/161/161
f 161/161/161 188/188/188 189/189/189
f 189/189/189 188/188/188 190/190/190
f 188/188/188 186/186/186 190/190/190
f 190/190/190 186/186/186 191/191/191
f 186/186/186 192/192/192 191/191/191
f 191/191/191 192/192/192 193/193/193
f 193/193/193 192/192/192 194/194/194
f 194/194/194 192/192/192 182/182/182
f 182/182/182 192/192/192 181/181/181
f 192/192/192 186/186/186 181/181/181
f 181/181/181 186/186/186 185/185/185
f 175/175/175 187/187/187 164/164/164
f 193/193/193 195/195/195 191/191/191
f 191/191/191 195/195/195 190/190/190
f 195/195/195 196/196/196 190/190/190
f 190/190/190 196/196/196 189/189/189
f 196/196/196 197/197/197 189/189/189
f 197/197/197 198/198/198 189/189/189
f 189/189/189 198/198/198 161/161/161
f 198/198/198 199/199/199 161/161/161
f 161/161/161 199/199/199 200/200/200
f 200/200/200 199/199/199 201/201/201
f 201/201/201 199/199/199 202/202/202
f 202/202/202 199/199/199 203/203/203
f 199/199/199 198/198/198 203/203/203
f 198/198/198 197/197/197 203/203/203
f 203/203/203 197/197/197 204/204/204
f 204/204/204 197/197/197 205/205/205
f 197/197/197 206/206/206 205/205/205
f 205/205/205 206/206/206 207/207/207
f 206/206/206 208/208/208 207/207/207
f 208/208/208 209/209/209 207/207/207
f 207/207/207 209/209/209 210/210/210
f 210/210/210 209/209/209 211/211/211
f 209/209/209 212/212/212 211/211/211
f 212/212/212 213/213/213 211/211/211
f 211/211/211 213/213/213 214/214/214
f 214/214/214 213/213/213 215/215/215
f 213/213/213 184/184/184 215/215/215
f 215/215/215 184/184/184 216/216/216
f 184/184/184 178/178/178 216/216/216
f 216/216/216 178/178/178 217/217/217
f 217/217/217 178/178/178 218/218/218
f 178/178/178 170/170/170 218/218/218
f 170/170/170 134/134/134 218/218/218
f 134/134/134 133/133/133 218/218/218
f 133/133/133 132/132/132 218/218/218
f 218/218/218 132/132/132 217/217/217
f 132/132/132 131/131/131 217/217/217
f 131/131/131 219/219/219 217/217/217
f 219/219/219 220/220/220 217/217/217
f 217/217/217 220/220/220 216/216/216
f 216/216/216 220/220/220 215/215/215
f 220/220/220 214/214/214 215/215/215
f 193/193/193 206/206/206 195/195/195
f 206/206/206 197/197/197 195/195/195
f 195/195/195 197/197/197 196/196/196
f 131/131/131 221/221/221 219/219/219
f 219/219/219 221/221/221 220/220/220
f 221/221/221 222/222/222 220/220/220
f 220/220/220 222/222/222 214/214/214
f 222/222/222 223/223/223 214/214/214
f 214/214/214 223/223/223 211/211/211
f 211/211/211 223/223/223 210/210/210
f 210/210/210 223/223/223 224/224/224
f 224/224/224 223/223/223 225/225/225
f 223/223/223 222/222/222 225/225/225
f 222/222/222 221/221/221 225/225/225
f 225/225/225 221/221/221 125/125/125
f 221/221/221 131/131/131 125/125/125
f 125/125/125 126/126/126 225/225/225
f 126/126/126 127/127/127 225/225/225
f 127/127/127 226/226/226 225/225/225
f 225/225/225 226/226/226 224/224/224
f 202/202/202 203/203/203 227/227/227
f 203/203/203 204/204/204 227/227/227
f 204/204/204 228/228/228 227/227/227
f 227/227/227 228/228/228 229/229/229
f 228/228/228 230/230/230 229/229/229
f 229/229/229 230/230/230 231/231/231
f 231/231/231 230/230/230 232/232/232
f 230/230/230 233/233/233 232/232/232
f 43/43/43 227/227/227 40/40/40
f 227/227/227 229/229/229 40/40/40
f 40/40/40 229/229/229 39/39/39
f 229/229/229 234/234/234 39/39/39
f 39/39/39 234/234/234 37/37/37
f 234/234/234 235/235/235 37/37/37
f 37/37/37 235/235/235 35/35/35
f 235/235/235 236/236/236 35/35/35
f 35/35/35 236/236/236 34/34/34
f 236/236/236 237/237/237 34/34/34
f 34/34/34 237/237/237 33/33/33
f 33/33/33 237/237/237 238/238/238
f 237/237/237 239/239/239 238/238/238
f 238/238/238 239/239/239 240/240/240
f 239/239/239 241/241/241 240/240/240
f 241/241/241 242/242/242 240/240/240
f 240/240/240 242/242/242 243/243/243
f 242/242/242 244/244/244 243/243/243
f 229/229/229 231/231/231 234/234/234
f 231/231/231 245/245/245 234/234/234
f 234/234/234 245/245/245 235/235/235
f 245/245/245 231/231/231 232/232/232
f 243/243/243 246/246/246 240/240/240
f 240/240/240 246/246/246 238/238/238
f 238/238/238 246/246/246 33/33/33
f 33/33/33 246/246/246 32/32/32
f 32/32/32 246/246/246 31/31/31
f 31/31/31 246/246/246 247/247/247
f 246/246/246 243/243/243 247/247/247
f 243/243/243 244/244/244 247/247/247
f 247/247/247 244/244/244 248/248/248
f 244/244/244 249/249/249 248/248/248
f 249/249/249 250/250/250 248/248/248
f 248/248/248 250/250/250 251/251/251
f 250/250/250 252/252/252 251/251/251
f 251/251/251 252/252/252 253/253/253
f 252/252/252 254/254/254 253/253/253
f 254/254/254 255/255/255 253/253/253
f 255/255/255 256/256/256 253/253/253
f 253/253/253 256/256/256 251/251/251
f 256/256/256 257/257/257 251/251/251
f 251/251/251 257/257/257 248/248/248
f 257/257/257 258/258/258 248/248/248
f 248/248/248 258/258/258 247/247/247
f 247/247/247 258/258/258 31/31/31
f 31/31/31 258/258/258 30/30/30
f 30/30/30 258/258/258 259/259/259
f 258/258/258 257/257/257 259/259/259
f 257/257/257 256/256/256 259/259/259
f 259/259/259 256/256/256 260/260/260
f 256/256/256 261/261/261 260/260/260
f 260/260/260 261/261/261 262/262/262
f 252/252/252 263/263/263 254/254/254
f 256/256/256 255/255/255 261/261/261
f 261/261/261 255/255/255 264/264/264
f 264/264/264 255/255/255 265/265/265
f 255/255/255 266/266/266 265/265/265
f 260/260/260 267/267/267 259/259/259
f 267/267/267 268/268/268 259/259/259
f 259/259/259 268/268/268 22/22/22
f 268/268/268 269/269/269 22/22/22
f 22/22/22 269/269/269 270/270/270
f 269/269/269 271/271/271 270/270/270
f 269/269/269 268/268/268 267/267/267
f 259/259/259 22/22/22 30/30/30
f 272/272/272 273/273/273 274/274/274
f 275/275/275 277/277/277 276/276/276
f 278/278/278 279/279/279 280/280/280
f 281/281/281 283/283/283 282/282/282

