# Exported by Sketchfab Model Ripper robust edition
o model_1
v -0.28179946541786194 -1.0836673974990845 -0.32897111773490906
v -0.2797307074069977 -1.075765609741211 -0.34159860014915466
v -0.2740134298801422 -1.08012855052948 -0.3269258141517639
v -0.2707786560058594 -1.073681116104126 -0.3360852003097534
v -0.26423385739326477 -1.0714997053146362 -0.3273407816886902
v -0.2683713734149933 -1.0644705295562744 -0.3474084436893463
v -0.27822616696357727 -1.0659247636795044 -0.35209187865257263
v -0.28785526752471924 -1.067427635192871 -0.3542853593826294
v -0.2887956202030182 -1.0782864093780518 -0.3447999358177185
v -0.3001549541950226 -1.0782864093780518 -0.343169629573822
v -0.29033777117729187 -1.0842006206512451 -0.3326467275619507
v -0.28469571471214294 -1.0842006206512451 -0.3183889091014862
v -0.2722831964492798 -1.0798861980438232 -0.31827035546302795
v -0.2968825697898865 -1.0682517290115356 -0.3557378351688385
v -0.3111381530761719 -1.0721298456192017 -0.33976078033447266
v -0.30433008074760437 -1.0790621042251587 -0.3222423791885376
v -0.2972587049007416 -1.0845400094985962 -0.3271629512310028
v -0.3079786002635956 -1.065003752708435 -0.35570818185806274
v -0.30256223678588867 -1.0593804121017456 -0.3630297780036926
v -0.29515233635902405 -1.058992624282837 -0.36131054162979126
v -0.28770482540130615 -1.0583138465881348 -0.35885024070739746
v -0.28785526752471924 -1.067427635192871 -0.3542853593826294
v -0.27822616696357727 -1.0659247636795044 -0.35209187865257263
v -0.2785646915435791 -1.0566656589508057 -0.35570818185806274
v -0.2694997787475586 -1.053853988647461 -0.3528329133987427
v -0.2683713734149933 -1.0644705295562744 -0.3474084436893463
v -0.26058533787727356 -1.0502667427062988 -0.3518843650817871
v -0.26099908351898193 -1.0621920824050903 -0.340887188911438
v -0.25076815485954285 -1.0477943420410156 -0.3463413119316101
v -0.2544543147087097 -1.0594288110733032 -0.33320990204811096
v -0.2556203305721283 -1.0312637090682983 -0.34862375259399414
v -0.2654751241207123 -1.0352872610092163 -0.35440394282341003
v -0.2666035294532776 -1.0257858037948608 -0.3494833707809448
v -0.2590431869029999 -1.020841121673584 -0.3432881832122803
v -0.2548304498195648 -1.0182232856750488 -0.3367965817451477
v -0.2541157901287079 -1.0027107000350952 -0.33377310633659363
v -0.25832852721214294 -1.0079946517944336 -0.346726655960083
v -0.26220273971557617 -0.9985416531562805 -0.3472602069377899
v -0.26927411556243896 -1.0046497583389282 -0.3553524911403656
v -0.2758941054344177 -0.995002806186676 -0.35253649950027466
v -0.26968786120414734 -0.9905428886413574 -0.34254714846611023
v -0.27623263001441956 -0.9876343011856079 -0.3412725329399109
v -0.2825893461704254 -0.9853073954582214 -0.3486534059047699
v -0.28454527258872986 -0.9971358180046082 -0.35923558473587036
v -0.2905634641647339 -0.989282488822937 -0.3532182574272156
v -0.2666035294532776 -1.0257858037948608 -0.3494833707809448
v -0.2680704593658447 -1.0153146982192993 -0.35007619857788086
v -0.27698493003845215 -1.0187081098556519 -0.3505801260471344
v -0.27927935123443604 -1.0084794759750366 -0.35662710666656494
v -0.27649593353271484 -1.0303910970687866 -0.34924623370170593
v -0.2759317457675934 -1.041977047920227 -0.34906837344169617
v -0.2654751241207123 -1.0352872610092163 -0.35440394282341003
v -0.26058533787727356 -1.0502667427062988 -0.3518843650817871
v -0.28315356373786926 -1.0465824604034424 -0.3514990210533142
v -0.2892845869064331 -1.0473580360412598 -0.35784241557121277
v -0.2847709655761719 -1.0339299440383911 -0.3497501611709595
v -0.2958293855190277 -1.0468733310699463 -0.364749014377594
v -0.3057970106601715 -1.048909306526184 -0.363355815410614
v -0.31433531641960144 -1.0533207654953003 -0.35594531893730164
v -0.31219133734703064 -1.057926058769226 -0.34029436111450195
v -0.3111381530761719 -1.0721298456192017 -0.33976078033447266
v -0.30433008074760437 -1.0790621042251587 -0.3222423791885376
v -0.3029383718967438 -1.069366693496704 -0.32443588972091675
v -0.2872910797595978 -1.0773168802261353 -0.31474295258522034
v -0.28856992721557617 -1.0700453519821167 -0.3160175383090973
v -0.299854040145874 -1.0605438947677612 -0.3253251314163208
v -0.30891895294189453 -1.049975872039795 -0.3341881036758423
v -0.3154261112213135 -1.0283066034317017 -0.3421024978160858
v -0.3066997528076172 -1.046970248222351 -0.3311646282672882
v -0.2988760769367218 -1.0554052591323853 -0.3238430321216583
v -0.2895478904247284 -1.0640826225280762 -0.31643253564834595
v -0.27709776163101196 -1.0638402700424194 -0.31749963760375977
v -0.27408865094184875 -1.0695605278015137 -0.31465402245521545
v -0.27183184027671814 -1.0760564804077148 -0.31213444471359253
v -0.260284423828125 -1.0683971643447876 -0.31921887397766113
v -0.2972587049007416 -1.0845400094985962 -0.3271629512310028
v -0.30433008074760437 -1.0790621042251587 -0.3222423791885376
v -0.260284423828125 -1.0683971643447876 -0.31921887397766113
v -0.26099908351898193 -1.0621920824050903 -0.340887188911438
v -0.2544543147087097 -1.0594288110733032 -0.33320990204811096
v -0.252686470746994 -1.0563262701034546 -0.3270147442817688
v -0.26122477650642395 -1.0642280578613281 -0.316877156496048
v -0.2572753429412842 -1.0525935888290405 -0.3237837553024292
v -0.26588886976242065 -1.0597681999206543 -0.3192485272884369
v -0.27408865094184875 -1.0695605278015137 -0.31465402245521545
v -0.26235318183898926 -0.9945180416107178 -0.3332692086696625
v -0.29011210799217224 -1.0592349767684937 -0.3171736001968384
v -0.27965548634529114 -1.0592349767684937 -0.3180035650730133
v -0.2705153524875641 -1.055938482284546 -0.3205527663230896
v -0.26476046442985535 -1.049394130706787 -0.3237837553024292
v -0.27032729983329773 -1.0465339422225952 -0.32182738184928894
v -0.27461525797843933 -1.0521572828292847 -0.32028600573539734
v -0.2772105932235718 -1.0498788356781006 -0.32034528255462646
v -0.27532991766929626 -1.045467495918274 -0.3206416964530945
v -0.26679161190986633 -1.0387775897979736 -0.3229537904262543
v -0.2725088894367218 -1.0384867191314697 -0.3193374574184418
v -0.26968786120414734 -1.0300517082214355 -0.31729215383529663
v -0.26449716091156006 -1.029712438583374 -0.3227759301662445
v -0.2674310505390167 -1.0207926034927368 -0.3157804012298584
v -0.26107433438301086 -1.0210349559783936 -0.3194856643676758
v -0.2587422728538513 -1.0117758512496948 -0.3147725760936737
v -0.26449716091156006 -1.0123090744018555 -0.31050413846969604
v -0.2601715922355652 -1.0020804405212402 -0.3104448616504669
v -0.27649593353271484 -1.0214712619781494 -0.3129347860813141
v -0.27826377749443054 -1.0304880142211914 -0.31533578038215637
v -0.27976831793785095 -1.0389230251312256 -0.31705501675605774
v -0.28104719519615173 -1.0457583665847778 -0.31874462962150574
v -0.2819875478744507 -1.0508968830108643 -0.319307804107666
v -0.2814985513687134 -1.0550174713134766 -0.3186853229999542
v -0.2901873290538788 -1.0550174713134766 -0.31797391176223755
v -0.2978605329990387 -1.051769495010376 -0.32212379574775696
v -0.2894350588321686 -1.050848364830017 -0.3186853229999542
v -0.28830665349960327 -1.0460492372512817 -0.3189224600791931
v -0.2880057394504547 -1.0395532846450806 -0.31859639286994934
v -0.2941743731498718 -1.0458552837371826 -0.3192485272884369
v -0.2963559627532959 -1.0485700368881226 -0.3200784921646118
v -0.304555743932724 -1.0448857545852661 -0.3282300531864166
v -0.31305646896362305 -1.0322332382202148 -0.335195928812027
v -0.3266350030899048 -1.0075099468231201 -0.3375079929828644
v -0.3233250081539154 -1.0184657573699951 -0.3309274911880493
v -0.3246038556098938 -1.0062010288238525 -0.32283520698547363
v -0.3175700902938843 -1.0219560861587524 -0.32698509097099304
v -0.319563627243042 -1.011339545249939 -0.3203156292438507
v -0.31038588285446167 -1.023119568824768 -0.3213827610015869
v -0.31128862500190735 -1.033735990524292 -0.33006787300109863
v -0.30748963356018066 -1.0341722965240479 -0.3237244784832001
v -0.30180996656417847 -1.0428496599197388 -0.3236355483531952
v -0.29616791009902954 -1.040959119796753 -0.3204045593738556
v -0.2983871102333069 -1.0328149795532227 -0.3195449411869049
v -0.28834426403045654 -1.031506061553955 -0.3158397078514099
v -0.288043349981308 -1.0228286981582642 -0.3116898238658905
v -0.30045586824417114 -1.0236527919769287 -0.3152172267436981
v -0.3016218841075897 -1.0159449577331543 -0.30881455540657043
v -0.312605082988739 -1.0149269104003906 -0.3147132992744446
v -0.3098216652870178 -1.0078006982803345 -0.31290513277053833
v -0.2880057394504547 -1.0151692628860474 -0.30519822239875793
v -0.30060631036758423 -1.0092065334320068 -0.3075992166996002
v -0.27446478605270386 -1.0136665105819702 -0.30587998032569885
v -0.26739341020584106 -1.0049406290054321 -0.30819207429885864
v -0.27649593353271484 -1.0067827701568604 -0.3047832250595093
v -0.28834426403045654 -1.0084309577941895 -0.3040718138217926
v -0.2995155155658722 -1.0051829814910889 -0.3096741735935211
v -0.3071887195110321 -1.0045043230056763 -0.31180837750434875
v -0.31644168496131897 -1.0046981573104858 -0.3151579201221466
v -0.3098216652870178 -1.0024198293685913 -0.31210482120513916
v -0.3189617991447449 -1.0020804405212402 -0.31767749786376953
v -0.30071917176246643 -1.0008200407028198 -0.3095259666442871
v -0.2887580096721649 -1.0044074058532715 -0.3066210448741913
v -0.27848947048187256 -1.002662181854248 -0.3057614266872406
v -0.27032729983329773 -1.000383734703064 -0.30679887533187866
v -0.2641962468624115 -0.9978144764900208 -0.30887383222579956
v -0.2679952383041382 -0.9965540766716003 -0.3099409341812134
v -0.26427149772644043 -0.9969903826713562 -0.31343868374824524
v -0.2710043489933014 -0.9978144764900208 -0.31249016523361206
v -0.27307307720184326 -0.9975720643997192 -0.30810314416885376
v -0.2750290036201477 -0.9984931349754333 -0.31243085861206055
v -0.28127288818359375 -0.9992203116416931 -0.31213444471359253
v -0.280219703912735 -0.9987355470657349 -0.30703601241111755
v -0.2898111939430237 -0.9997535347938538 -0.30751028656959534
v -0.28984880447387695 -0.9998020529747009 -0.3121640980243683
v -0.30034303665161133 -1.0002868175506592 -0.3128458559513092
v -0.30071917176246643 -1.0008200407028198 -0.3095259666442871
v -0.31016018986701965 -1.001159429550171 -0.31456509232521057
v -0.3089565634727478 -1.0006260871887207 -0.3173218071460724
v -0.29917699098587036 -0.9998020529747009 -0.3160768449306488
v -0.2890589237213135 -0.9998020529747009 -0.31643253564834595
v -0.2809719741344452 -0.9996080994606018 -0.3163139820098877
v -0.27484092116355896 -0.9987355470657349 -0.31613612174987793
v -0.2694621682167053 -0.9979113936424255 -0.31512829661369324
v -0.2661897838115692 -0.9966509938240051 -0.31966352462768555
v -0.27303546667099 -0.9972327351570129 -0.32052314281463623
v -0.2796930968761444 -0.9990264177322388 -0.32105669379234314
v -0.28770482540130615 -0.9998989701271057 -0.3217088282108307
v -0.2969954013824463 -0.9998505115509033 -0.3221534490585327
v -0.30700063705444336 -1.0000444650650024 -0.3221534490585327
v -0.3156518042087555 -1.000238299369812 -0.32250913977622986
v -0.31809669733047485 -1.001013994216919 -0.32084921002388
v -0.32287362217903137 -1.0018864870071411 -0.32597726583480835
v -0.2898111939430237 -0.9997535347938538 -0.30751028656959534
v -0.280219703912735 -0.9987355470657349 -0.30703601241111755
v -0.27307307720184326 -0.9975720643997192 -0.30810314416885376
v -0.3171563446521759 -1.00009286403656 -0.32834863662719727
v -0.3266350030899048 -1.0075099468231201 -0.3375079929828644
v -0.3051575720310211 -0.9992203116416931 -0.3295639455318451
v -0.2947009801864624 -0.9983476996421814 -0.32882291078567505
v -0.2858617603778839 -0.9980083703994751 -0.32760757207870483
v -0.2775491178035736 -0.9965055584907532 -0.326540470123291
v -0.2687475085258484 -0.9949058294296265 -0.3268072307109833
v -0.26276692748069763 -0.9951967000961304 -0.3259179890155792
v -0.26133760809898376 -0.996941864490509 -0.3180035650730133
v -0.25908079743385315 -0.996941864490509 -0.3165511190891266
v -0.26032203435897827 -0.9967479705810547 -0.31302371621131897
v -0.2563726007938385 -0.9993172287940979 -0.31465402245521545
v -0.2601715922355652 -1.0020804405212402 -0.3104448616504669
v -0.2588927149772644 -0.9962632060050964 -0.32322055101394653
v -0.25629737973213196 -0.9977174997329712 -0.31942638754844666
v -0.2518589496612549 -1.0064918994903564 -0.3251769244670868
v -0.26679161190986633 -0.9913185238838196 -0.3336545526981354
v -0.2745024263858795 -0.9921426177024841 -0.33350634574890137
v -0.27623263001441956 -0.9876343011856079 -0.3412725329399109
v -0.283341646194458 -0.9949543476104736 -0.33220207691192627
v -0.2898111939430237 -0.9919002652168274 -0.3365594446659088
v -0.29176709055900574 -0.9862769246101379 -0.34731951355934143
v -0.2944376766681671 -0.9869071245193481 -0.35022440552711487
v -0.2973339259624481 -0.9953905940055847 -0.3551449775695801
v -0.2926698327064514 -1.0008200407028198 -0.3621997833251953
v -0.2984623312950134 -1.0060070753097534 -0.3631186783313751
v -0.30222371220588684 -1.0000444650650024 -0.3585834503173828
v -0.30196040868759155 -1.0096913576126099 -0.36356332898139954
v -0.3059474527835846 -1.0058132410049438 -0.3617551624774933
v -0.307677686214447 -0.9938878417015076 -0.35461142659187317
v -0.3116271197795868 -1.002953052520752 -0.35671600699424744
v -0.3217076063156128 -1.0045043230056763 -0.3511136770248413
v -0.32114338874816895 -1.0110971927642822 -0.35615283250808716
v -0.31459861993789673 -1.0115820169448853 -0.35908737778663635
v -0.30068156123161316 -0.9893794655799866 -0.35138046741485596
v -0.31283077597618103 -0.9941787123680115 -0.3478826880455017
v -0.31696829199790955 -0.9986870288848877 -0.3399682939052582
v -0.3038034737110138 -0.9948089122772217 -0.33774513006210327
v -0.3030512034893036 -0.9903489947319031 -0.34776413440704346
v -0.30068156123161316 -0.9893794655799866 -0.35138046741485596
v -0.3041796088218689 -1.0354326963424683 -0.3583759665489197
v -0.3091822564601898 -1.036014437675476 -0.3525661528110504
v -0.3113638460636139 -1.0346086025238037 -0.34776413440704346
v -0.2959798276424408 -1.034075379371643 -0.36187371611595154
v -0.29011210799217224 -1.0347540378570557 -0.35624173283576965
v -0.2855984568595886 -1.0220530033111572 -0.35114333033561707
v -0.31283077597618103 -1.02200448513031 -0.3547300100326538
v -0.3048190474510193 -1.024428367614746 -0.3538703918457031
v -0.29831188917160034 -1.0253978967666626 -0.3545818030834198
v -0.2927074432373047 -1.024428367614746 -0.35339611768722534
v -0.31283077597618103 -1.02200448513031 -0.3547300100326538
v -0.3182847499847412 -1.0201624631881714 -0.35238829255104065
v -0.3217076063156128 -1.0175446271896362 -0.3488016128540039
v -0.3217076063156128 -1.0045043230056763 -0.3511136770248413
v -0.32114338874816895 -1.0110971927642822 -0.35615283250808716
v -0.31459861993789673 -1.0115820169448853 -0.35908737778663635
v -0.30666211247444153 -1.0144420862197876 -0.3591170310974121
v -0.3059474527835846 -1.0058132410049438 -0.3617551624774933
v -0.30196040868759155 -1.0096913576126099 -0.36356332898139954
v -0.3005310893058777 -1.016187310218811 -0.35846489667892456
v -0.29530277848243713 -1.0150723457336426 -0.3585834503173828
v -0.2886451482772827 -1.0117274522781372 -0.35739779472351074
v -0.3048190474510193 -1.024428367614746 -0.3538703918457031
v -0.29831188917160034 -1.0253978967666626 -0.3545818030834198
v -0.2984623312950134 -1.0060070753097534 -0.3631186783313751
v -0.2926698327064514 -1.0008200407028198 -0.3621997833251953
v -0.2518589496612549 -1.0064918994903564 -0.3251769244670868
v -0.25554510951042175 -1.0188050270080566 -0.3303050100803375
v -0.25467997789382935 -1.0099822282791138 -0.3192485272884369
v -0.25629737973213196 -0.9977174997329712 -0.31942638754844666
v -0.2587422728538513 -1.0117758512496948 -0.3147725760936737
v -0.26107433438301086 -1.0210349559783936 -0.3194856643676758
v -0.25753864645957947 -1.020356297492981 -0.32434695959091187
v -0.26449716091156006 -1.029712438583374 -0.3227759301662445
v -0.2617889940738678 -1.0301971435546875 -0.32790398597717285
v -0.26679161190986633 -1.0387775897979736 -0.3229537904262543
v -0.2597954571247101 -1.0312151908874512 -0.3326170742511749
v -0.25742578506469727 -1.0317484140396118 -0.33854547142982483
v -0.2556203305721283 -1.0312637090682983 -0.34862375259399414
v -0.24963974952697754 -1.0451281070709229 -0.3375079929828644
v -0.252686470746994 -1.0563262701034546 -0.3270147442817688
v -0.2572753429412842 -1.0525935888290405 -0.3237837553024292
v -0.2566359043121338 -1.0435768365859985 -0.3317278027534485
v -0.2620522677898407 -1.0402804613113403 -0.326688677072525
v -0.26476046442985535 -1.049394130706787 -0.3237837553024292
v -0.27032729983329773 -1.0465339422225952 -0.32182738184928894
v -0.3217076063156128 -1.0045043230056763 -0.3511136770248413
v -0.32114338874816895 -1.0110971927642822 -0.35615283250808716
v -0.3182847499847412 -1.0201624631881714 -0.35238829255104065
vn 0.3345741629600525 -0.8977648615837097 -0.2864931523799896
vn 0.4122867286205292 -0.7392832040786743 -0.5324283838272095
vn 0.5030539631843567 -0.8360822200775146 -0.21886809170246124
vn 0.5310055017471313 -0.721228301525116 -0.44481781125068665
vn 0.6810587048530579 -0.6917340159416199 -0.2401314377784729
vn 0.5297787189483643 -0.6124452352523804 -0.5867242813110352
vn 0.3840186595916748 -0.5645288228988647 -0.7306414246559143
vn 0.19022013247013092 -0.6490502953529358 -0.736579954624176
vn 0.16502027213573456 -0.8005772829055786 -0.5760593414306641
vn -0.3370612859725952 -0.8297751545906067 -0.44481781125068665
vn 0.0037766085006296635 -0.9641047716140747 -0.26549527049064636
vn 0.05845363810658455 -0.9339019060134888 0.3527185618877411
vn 0.5659754276275635 -0.8168897032737732 0.1111890971660614
vn -0.11667656153440475 -0.7197523713111877 -0.6843559741973877
vn -0.45315954089164734 -0.7999982833862305 -0.3932546079158783
vn -0.5811941027641296 -0.80058753490448 -0.1458524912595749
vn -0.34389549493789673 -0.921528160572052 -0.18033768236637115
vn -0.7244381308555603 -0.548740565776825 -0.417220801115036
vn -0.25294050574302673 -0.3777022063732147 -0.8907088041305542
vn 0.3983224332332611 -0.2706996500492096 -0.8763908743858337
vn 0.2955457866191864 -0.25018423795700073 -0.9219872951507568
vn 0.19022013247013092 -0.6490502953529358 -0.736579954624176
vn 0.3840186595916748 -0.5645288228988647 -0.7306414246559143
vn 0.3221546411514282 0.16711194813251495 -0.931820809841156
vn 0.25648102164268494 -0.05992422252893448 -0.9646899104118347
vn 0.5297787189483643 -0.6124452352523804 -0.5867242813110352
vn 0.5243583917617798 -0.2896484136581421 -0.8007197380065918
vn 0.6436623334884644 -0.6516730785369873 -0.401274174451828
vn 0.8002532124519348 -0.3028748035430908 -0.5175535082817078
vn 0.8107059597969055 -0.5610020756721497 -0.16742929816246033
vn 0.46132177114486694 0.2467155009508133 -0.8522403836250305
vn 0.4378848671913147 0.19109632074832916 -0.8784868121147156
vn 0.30834582448005676 0.4886985421180725 -0.8161473870277405
vn 0.7897738218307495 0.10540372133255005 -0.6042742133140564
vn 0.9952501654624939 -0.06034696102142334 -0.0763898640871048
vn 0.9230354428291321 0.2971339821815491 -0.24437066912651062
vn 0.7548844814300537 -0.03022683411836624 -0.6551609039306641
vn 0.6475015878677368 0.5794565677642822 -0.4949462115764618
vn 0.4271230399608612 0 -0.9041935205459595
vn 0.44623759388923645 0.6270477175712585 -0.6385006904602051
vn 0.43671441078186035 0.8620908856391907 -0.25706008076667786
vn 0.5138025879859924 0.7239037156105042 -0.46040233969688416
vn 0.21532006561756134 0.9361047744750977 -0.2781098484992981
vn 0.21598638594150543 0.3262246549129486 -0.9202865362167358
vn -0.0773092657327652 0.6149826049804688 -0.7847417593002319
vn 0.09567524492740631 -0.007625519298017025 -0.9953833818435669
vn 0.317818284034729 -0.21406672894954681 -0.9236704111099243
vn 0.1628757119178772 -0.2871558666229248 -0.9439348578453064
vn 0.20799337327480316 -0.3023541569709778 -0.9302261471748352
vn 0.07528745383024216 -0.022466178983449936 -0.9969087839126587
vn -0.10818203538656235 0.1469620168209076 -0.983208417892456
vn -0.44227924942970276 -0.022674093022942543 -0.8965907096862793
vn -0.19967254996299744 -0.04140826314687729 -0.9789873361587524
vn 0.3578341603279114 0.27398091554641724 -0.8926864862442017
vn 0.6275122165679932 0.15706193447113037 -0.762600839138031
vn 0.44053828716278076 0.04528871178627014 -0.8965907096862793
vn 0.16691464185714722 0.07376105338335037 -0.983208417892456
vn -0.4653725028038025 0.13807983696460724 -0.87427818775177
vn -0.9294145107269287 0.0037773065268993378 -0.3690181374549866
vn -0.9773676991462708 -0.02263665944337845 0.2103329300880432
vn -0.9942224621772766 -0.07540775835514069 0.0763898640871048
vn -0.7750436067581177 0.1313437521457672 0.6181069612503052
vn -0.5852248668670654 0.24240808188915253 0.7737894654273987
vn -0.3465425372123718 -0.2629455626010895 0.9004265069961548
vn -0.3094882369041443 0.18954430520534515 0.931820809841156
vn -0.6913496851921082 0.07518880814313889 0.7185974717140198
vn -0.7977374792098999 -0.08283419907093048 0.5972883701324463
vn -0.9442036151885986 -0.3115502595901489 0.10684575140476227
vn -0.8333461880683899 -0.1611962914466858 0.528724730014801
vn -0.7021063566207886 -0.09021635353565216 0.7063339352607727
vn -0.38632306456565857 0.026343155652284622 0.9219872951507568
vn 0.02066953480243683 0.30457407236099243 0.9522643685340881
vn 0.009397692047059536 0.403164803981781 0.9150791168212891
vn 0.15917611122131348 -0.23060640692710876 0.9599394202232361
vn 0.25624915957450867 0.4212260842323303 0.8700028657913208
vn -0.307528018951416 -0.6931907534599304 0.651853621006012
vn -0.1831331104040146 -0.7781498432159424 0.6007870435714722
vn 0.7586429715156555 -0.645336389541626 0.08945280313491821
vn 0.6436623334884644 -0.6516730785369873 -0.401274174451828
vn 0.8107059597969055 -0.5610020756721497 -0.16742929816246033
vn 0.9166370034217834 -0.12036050856113434 0.3811691105365753
vn 0.3293215334415436 0.23276062309741974 0.9150791168212891
vn 0.45926782488822937 0.40067821741104126 0.7927988767623901
vn 0.03387526795268059 0.43762919306755066 0.8985171914100647
vn 0.3181454539299011 -0.4058477282524109 0.8567795157432556
vn 0.6664764285087585 0.7371879816055298 -0.1111890971660614
vn -0.23199298977851868 0.0950796976685524 0.9680594801902771
vn 0.1275264173746109 0.1959148347377777 0.9722933769226074
vn 0.1675187051296234 0.2650900185108185 0.949560284614563
vn 0.3097122311592102 0.17301563918590546 0.9349566102027893
vn 0.2720653712749481 0.06705808639526367 0.9599394202232361
vn 0.16212543845176697 0.15018664300441742 0.9752739667892456
vn 0.2077207863330841 0.044663578271865845 0.9771679639816284
vn 0.33705273270606995 -0.17363466322422028 0.9253358840942383
vn 0.5853674411773682 -0.12725117802619934 0.8007197380065918
vn 0.348740816116333 -0.3035435676574707 0.8867024183273315
vn 0.4426773488521576 -0.27878859639167786 0.8522403836250305
vn 0.7092471122741699 -0.36307182908058167 0.6042742133140564
vn 0.44351279735565186 -0.4475117325782776 0.7765498161315918
vn 0.6215972900390625 -0.47677046060562134 0.6215357780456543
vn 0.617292582988739 -0.399152547121048 0.677958071231842
vn 0.43718212842941284 -0.4345181882381439 0.7874425053596497
vn 0.5848588943481445 -0.11225761473178864 0.8033295273780823
vn 0.20055675506591797 -0.5149371027946472 0.8334367275238037
vn 0.1321869045495987 -0.2565312087535858 0.9574540853500366
vn 0.037386704236269 -0.2264479249715805 0.9733054637908936
vn 0.17326374351978302 -0.181219682097435 0.9680594801902771
vn 0.12096555531024933 0.03657333180308342 0.9919826984405518
vn 0.13451506197452545 0.18068508803844452 0.9742990136146545
vn -0.08191412687301636 0.18674540519714355 0.9789873361587524
vn -0.5818533897399902 -0.06014552712440491 0.8110666871070862
vn -0.12152745574712753 -0.011151229962706566 0.9925254583358765
vn -0.07586082071065903 -0.05879656970500946 0.9953833818435669
vn -0.1622905135154724 -0.1622905135154724 0.9733054637908936
vn -0.2616715133190155 0.030024008825421333 0.9646899104118347
vn -0.5707598328590393 -0.18188217282295227 0.8007197380065918
vn -0.7794251441955566 -0.29171720147132874 0.5544344186782837
vn -0.8712552785873413 -0.48414289951324463 0.08074574917554855
vn -0.947127103805542 -0.30813711881637573 -0.08945280313491821
vn -0.8809542655944824 -0.45416349172592163 0.1328723281621933
vn -0.8924941420555115 -0.16141586005687714 0.42118772864341736
vn -0.6768422722816467 -0.5159922242164612 0.5250110030174255
vn -0.6429968476295471 -0.37413620948791504 0.6682642698287964
vn -0.5429447293281555 -0.5042693018913269 0.6715083718299866
vn -0.7869846224784851 -0.44710803031921387 0.42514660954475403
vn -0.587598443031311 -0.3283689022064209 0.7395281791687012
vn -0.5778670310974121 -0.24242199957370758 0.7792953848838806
vn -0.3306436240673065 -0.17713291943073273 0.926983654499054
vn -0.3688068389892578 -0.3329186737537384 0.8678402304649353
vn -0.1270674467086792 -0.3399468660354614 0.931820809841156
vn -0.03198542073369026 -0.5443718433380127 0.838234007358551
vn -0.2896367609500885 -0.5518566966056824 0.7820260524749756
vn -0.37685224413871765 -0.43804770708084106 0.8161473870277405
vn -0.5670400261878967 -0.3803008198738098 0.7306414246559143
vn -0.4842427372932434 -0.03386155143380165 0.87427818775177
vn -0.054533835500478745 -0.4707756042480469 0.8805659413337708
vn -0.3413850665092468 0.05977179855108261 0.9380210638046265
vn 0.2738189399242401 -0.41911110281944275 0.865661084651947
vn 0.3726004660129547 -0.08945345878601074 0.9236704111099243
vn 0.15505576133728027 -0.022293653339147568 0.9876541495323181
vn -0.14574946463108063 0.18276405334472656 0.9722933769226074
vn -0.30376502871513367 0.2652488946914673 0.9150791168212891
vn -0.29245617985725403 -0.12418557703495026 0.9481810927391052
vn -0.5191999077796936 -0.16671882569789886 0.838234007358551
vn -0.3749306797981262 0.3909015655517578 0.8406086564064026
vn -0.5986678600311279 0.5094512701034546 0.6181069612503052
vn -0.24362772703170776 -0.037445068359375 0.9691457152366638
vn -0.18614959716796875 0.25748980045318604 0.9481810927391052
vn -0.04301697388291359 0.32315364480018616 0.9453682899475098
vn 0.19976907968521118 0.2024235874414444 0.9587059020996094
vn 0.3793046176433563 0.5239923596382141 0.762600839138031
vn -9.783542248911758e-14 0.9460783004760742 0.3239381015300751
vn -0.05283254012465477 0.9984862804412842 0.0152922747656703
vn -0.16908371448516846 0.973418116569519 -0.15449213981628418
vn -0.16711527109146118 0.9791451692581177 -0.11553031951189041
vn -0.13735467195510864 0.9842615127563477 -0.1111890971660614
vn -0.10368626564741135 0.9913270473480225 -0.08074574917554855
vn -0.13178682327270508 0.9889653921127319 -0.06767380982637405
vn -0.08297525346279144 0.9965491890907288 0.002184694167226553
vn -0.04529581964015961 0.9989712238311768 0.002184694167226553
vn -0.08854617923498154 0.991645336151123 0.09380380809307098
vn -0.1614888459444046 0.9593042135238647 0.23163928091526031
vn -0.16337715089321136 0.9579483270645142 0.23588760197162628
vn -0.10177125036716461 0.9827384352684021 0.15449213981628418
vn -0.0377180390059948 0.9984264373779297 0.04149730131030083
vn -0.007551383227109909 0.9999118447303772 -0.010923261754214764
vn -0.10552351921796799 0.9943568110466003 0.010923261754214764
vn -0.14475643634796143 0.9826995134353638 0.11553031951189041
vn -0.17267289757728577 0.9841046929359436 0.04149730131030083
vn -0.09604690223932266 0.9811943769454956 0.16742929816246033
vn -0.1503659188747406 0.9590239524841309 0.2401314377784729
vn -0.19479331374168396 0.9551276564598083 0.22312943637371063
vn -0.06788292527198792 0.9876039624214172 0.1415284425020218
vn -0.03586798533797264 0.991055428981781 0.12854042649269104
vn -0.03395935520529747 0.9964995384216309 0.0763898640871048
vn -0.09801355004310608 0.9903329610824585 0.0981530249118805
vn -0.2206949144601822 0.9523937106132507 0.2103329300880432
vn -0.6045156121253967 0.7960869669914246 0.028397228568792343
vn -0.1325072944164276 0.15500189363956451 0.9789873361587524
vn -0.035646792501211166 0.2863755524158478 0.9574540853500366
vn 0.11220796406269073 0.5109752416610718 0.8522403836250305
vn -0.3403768539428711 0.9400835037231445 0.01966099627315998
vn -0.6583763957023621 0.7503766417503357 -0.058952588587999344
vn -0.1390639692544937 0.9479361176490784 0.2864931523799896
vn -0.09982454031705856 0.891987681388855 0.4409002661705017
vn -0.10168914496898651 0.9049238562583923 0.41324591636657715
vn -0.1726246327161789 0.9065417051315308 0.3852050006389618
vn -0.10165202617645264 0.9238465428352356 0.3690181374549866
vn 0.3042772114276886 0.9413513541221619 0.1458524912595749
vn 0.024529965594410896 0.990829586982727 0.1328723281621933
vn 0.246389240026474 0.9632633924484253 0.10684575140476227
vn 0.31651571393013 0.8959798216819763 0.31150925159454346
vn 0.8437114357948303 0.2166282683610916 0.4911448359489441
vn 0.5848588943481445 -0.11225761473178864 0.8033295273780823
vn 0.635217547416687 0.767135500907898 -0.08945280313491821
vn 0.6661442518234253 0.7368205785751343 -0.11553031951189041
vn 0.8154334425926208 0.5737881660461426 -0.0763898640871048
vn 0.08663313090801239 0.9541574120521545 0.2864931523799896
vn -0.037707000970840454 0.8828482627868652 0.46814218163490295
vn -0.013201825320720673 0.8896155953407288 0.456519216299057
vn -0.1370837688446045 0.8233075737953186 0.5507928133010864
vn -0.15748363733291626 0.854533314704895 0.4949462115764618
vn -0.21871955692768097 0.9049699306488037 0.3649536371231079
vn -0.14635810256004333 0.7527273297309875 -0.641857385635376
vn -0.13302335143089294 0.5876646041870117 -0.7980946898460388
vn -0.24441058933734894 0.6837825775146484 -0.6875353455543518
vn -0.26527541875839233 0.5601868629455566 -0.7847417593002319
vn -0.05094769224524498 0.5281261205673218 -0.8476362228393555
vn -0.15218865871429443 0.44882315397262573 -0.8805659413337708
vn -0.30727213621139526 0.44157668948173523 -0.8429672718048096
vn -0.36606565117836 0.6340442895889282 -0.681163489818573
vn -0.4721303880214691 0.4120577871799469 -0.7792953848838806
vn -0.6423341035842896 0.6156274080276489 -0.456519216299057
vn -0.4322242736816406 0.4442550539970398 -0.7847417593002319
vn -0.4306222200393677 0.37450122833251953 -0.8211658596992493
vn 0.001889859326183796 0.5305745005607605 -0.8476362228393555
vn -0.5680633783340454 0.8229818940162659 -0.002184694167226553
vn -0.40791991353034973 0.8874384760856628 0.21460255980491638
vn -0.2822968065738678 0.8785929679870605 0.3852050006389618
vn -0.32537445425987244 0.9037623405456543 0.2781098484992981
vn -0.41728663444519043 0.9087722897529602 -0.002184694167226553
vn -0.45957764983177185 0.3002570569515228 -0.8358433246612549
vn -0.964262068271637 0.07920310646295547 -0.25283506512641907
vn -0.858534574508667 -0.3035559356212616 -0.41324591636657715
vn 0.27145299315452576 0.36462464928627014 -0.8907088041305542
vn 0.6555019021034241 0.1792270839214325 -0.7336177229881287
vn 0.36632969975471497 -0.1686200350522995 -0.9150791168212891
vn 0.2131304144859314 0.379219651222229 -0.9004265069961548
vn 0.0991290956735611 0.37847861647605896 -0.9202865362167358
vn -0.17292428016662598 0.5248622894287109 -0.8334367275238037
vn 0.3493663966655731 -0.030248908326029778 -0.9364978075027466
vn -0.4860598146915436 -0.4166257679462433 -0.7682244777679443
vn -0.6476964354515076 -0.4052208960056305 -0.6452018022537231
vn -0.9097538590431213 -0.3579217195510864 -0.2103329300880432
vn -0.8963025212287903 -0.0754668191075325 -0.43697428703308105
vn -0.43207818269729614 -0.43474799394607544 -0.790128231048584
vn -0.22616349160671234 -0.371594101190567 -0.9004265069961548
vn -0.14830482006072998 -0.41728976368904114 -0.8965907096862793
vn -0.2855595648288727 -0.2615247964859009 -0.9219872951507568
vn -0.02458854392170906 -0.4655616879463196 -0.8846737742424011
vn 0.06785810738801956 -0.47679591178894043 -0.8763908743858337
vn 0.2694911062717438 -0.40374764800071716 -0.87427818775177
vn 0.3015625774860382 -0.33491915464401245 -0.8926864862442017
vn -0.09937818348407745 -0.47904106974601746 -0.872148871421814
vn 0.009452061727643013 -0.4151267409324646 -0.9097144603729248
vn 0.3666788339614868 -0.2879217267036438 -0.8846737742424011
vn 0.4016382694244385 -0.2442416548728943 -0.882628321647644
vn 0.9848255515098572 -0.15789218246936798 0.07203252613544464
vn 0.9637488722801208 -0.2611667513847351 0.05459024757146835
vn 0.8826082944869995 -0.22412149608135223 0.41324591636657715
vn 0.9402129054069519 0.12790447473526 0.31565824151039124
vn 0.617292582988739 -0.399152547121048 0.677958071231842
vn 0.6215972900390625 -0.47677046060562134 0.6215357780456543
vn 0.8265306949615479 -0.4285508990287781 0.3649536371231079
vn 0.7092471122741699 -0.36307182908058167 0.6042742133140564
vn 0.8135697245597839 -0.12026461213827133 0.5688942670822144
vn 0.5853674411773682 -0.12725117802619934 0.8007197380065918
vn 0.9172060489654541 -0.03018353506922722 0.3972681760787964
vn 0.9517019987106323 0.1801632195711136 0.24860523641109467
vn 0.97664475440979 0.20990878343582153 0.04586252197623253
vn 0.939325749874115 0.2318221479654312 0.25283506512641907
vn 0.9166370034217834 -0.12036050856113434 0.3811691105365753
vn 0.45926782488822937 0.40067821741104126 0.7927988767623901
vn 0.7260087728500366 0.30837732553482056 0.6146662831306458
vn 0.5950098633766174 0.20720435678958893 0.7765498161315918
vn 0.3097122311592102 0.17301563918590546 0.9349566102027893
vn 0.2720653712749481 0.06705808639526367 0.9599394202232361
vn -0.9568290710449219 -0.22447392344474792 0.18463370203971863
vn -0.9568290710449219 -0.22447392344474792 0.18463370203971863
vn -0.9568290710449219 -0.22447392344474792 0.18463370203971863
vt 0.15339039266109467 0.26644739508628845
vt 0.08225235342979431 0.31290164589881897
vt 0.1441115140914917 0.2163449078798294
vt 0.08717817813158035 0.22339816391468048
vt 0.1371237188577652 0.14374493062496185
vt 0.0019499999471008778 0.22874891757965088
vt 0.007792253978550434 0.35193783044815063
vt 0.06518381088972092 0.46624934673309326
vt 0.11272371560335159 0.3792996108531952
vt 0.17022982239723206 0.4240513741970062
vt 0.16381479799747467 0.3206845819950104
vt 0.20723076164722443 0.23872077465057373
vt 0.1894748955965042 0.18265949189662933
vt 0.1547650396823883 0.5491859912872314
vt 0.2409096509218216 0.4135930836200714
vt 0.2481265515089035 0.31436094641685486
vt 0.20356504619121552 0.3163066804409027
vt 0.23277631402015686 0.5165950655937195
vt 0.2519068419933319 0.5815337300300598
vt 0.24973030388355255 0.6267719268798828
vt 0.27332842350006104 0.6932914853096008
vt 0.20871996879577637 0.6920753717422485
vt 0.2816908657550812 0.8077245950698853
vt 0.3348439335823059 0.7708773612976074
vt 0.41285520792007446 0.8264522552490234
vt 0.3786035478115082 0.8952823877334595
vt 0.490866482257843 0.8561245799064636
vt 0.4695594310760498 0.9542622566223145
vt 0.5720852613449097 0.8853105306625366
vt 0.5675030946731567 0.9886773228645325
vt 0.6408176422119141 0.8052924275398254
vt 0.5536420345306396 0.7869296669960022
vt 0.6089716553688049 0.7497175931930542
vt 0.6991256475448608 0.7432723641395569
vt 0.7633904218673706 0.7294090390205383
vt 0.8218129873275757 0.6254342198371887
vt 0.7289096713066101 0.674320638179779
vt 0.7425416111946106 0.6232452988624573
vt 0.6712890267372131 0.6498774290084839
vt 0.6896176338195801 0.5964915156364441
vt 0.7544552087783813 0.561225175857544
vt 0.7418543100357056 0.5347146391868591
vt 0.6980946660041809 0.5431056022644043
vt 0.6334862112998962 0.5973427891731262
vt 0.6536477208137512 0.5456593632698059
vt 0.6089716553688049 0.7497175931930542
vt 0.6402449011802673 0.6992502808570862
vt 0.5760946273803711 0.6954804062843323
vt 0.6092007756233215 0.6459859609603882
vt 0.5224833488464355 0.7292874455451965
vt 0.4553547203540802 0.7605407238006592
vt 0.5536420345306396 0.7869296669960022
vt 0.490866482257843 0.8561245799064636
vt 0.3932664692401886 0.731476366519928
vt 0.3452683389186859 0.685630202293396
vt 0.4625716209411621 0.7013176083564758
vt 0.3301472067832947 0.6283528208732605
vt 0.31491151452064514 0.5713186264038086
vt 0.30127960443496704 0.5067448019981384
vt 0.31193313002586365 0.4082423150539398
vt 0.2409096509218216 0.4135930836200714
vt 0.2481265515089035 0.31436094641685486
vt 0.29452091455459595 0.30633482336997986
vt 0.25305235385894775 0.2230333387851715
vt 0.29371902346611023 0.21148058772087097
vt 0.340686172246933 0.2821348309516907
vt 0.36371153593063354 0.357896625995636
vt 0.434964120388031 0.4228352904319763
vt 0.3853622376918793 0.33053481578826904
vt 0.3687519133090973 0.26267755031585693
vt 0.32625237107276917 0.20491375029087067
vt 0.31239134073257446 0.13194894790649414
vt 0.26714250445365906 0.1431368887424469
vt 0.22796504199504852 0.15967558324337006
vt 0.19875377416610718 0.09425047039985657
vt 0.20356504619121552 0.3163066804409027
vt 0.2481265515089035 0.31436094641685486
vt 0.19875377416610718 0.09425047039985657
vt 0.03998192772269249 0.13073287904262543
vt 0.1096307635307312 0.052660536020994186
vt 0.17469742894172668 0.014597232453525066
vt 0.23243264853954315 0.07856304198503494
vt 0.24663734436035156 0.0019499999471008778
vt 0.28466928005218506 0.07090173661708832
vt 0.26714250445365906 0.1431368887424469
vt 0.8123049736022949 0.5558744668960571
vt 0.35408899188041687 0.1990765631198883
vt 0.3456119894981384 0.1352323740720749
vt 0.33942607045173645 0.0698072612285614
vt 0.3385096490383148 0.015205271542072296
vt 0.42545613646507263 0.042567070573568344
vt 0.3829565942287445 0.08561630547046661
vt 0.40838760137557983 0.09704745560884476
vt 0.4456176459789276 0.07856304198503494
vt 0.5340533256530762 0.024812303483486176
vt 0.5250035524368286 0.07005047798156738
vt 0.6197397112846375 0.08281932026147842
vt 0.6402449011802673 0.038797225803136826
vt 0.7147049903869629 0.1191801130771637
vt 0.7400214076042175 0.07965750992298126
vt 0.8321228623390198 0.15164944529533386
vt 0.8026824593544006 0.18533486127853394
vt 0.8930655717849731 0.2736222743988037
vt 0.6707162261009216 0.1512846201658249
vt 0.5881228446960449 0.12817910313606262
vt 0.5090805292129517 0.11723438650369644
vt 0.4460758566856384 0.12003137171268463
vt 0.4067838490009308 0.13146251440048218
vt 0.37711435556411743 0.13608361780643463
vt 0.3791763186454773 0.19214491546154022
vt 0.390402615070343 0.24480117857456207
vt 0.40518006682395935 0.18156501650810242
vt 0.4386298358440399 0.16903939843177795
vt 0.4860551953315735 0.16928261518478394
vt 0.4315274953842163 0.2072243094444275
vt 0.41262608766555786 0.22558711469173431
vt 0.4042636454105377 0.30353784561157227
vt 0.4345059096813202 0.37431368231773376
vt 0.5350843071937561 0.4140795171260834
vt 0.5069040060043335 0.3683549165725708
vt 0.572887122631073 0.36130163073539734
vt 0.5006035566329956 0.3366152048110962
vt 0.5623481869697571 0.33454787731170654
vt 0.5183594226837158 0.2912554442882538
vt 0.4444721043109894 0.33710163831710815
vt 0.4650918245315552 0.2901609539985657
vt 0.42935097217559814 0.2657177448272705
vt 0.4558129608631134 0.2204795777797699
vt 0.5010617971420288 0.23142430186271667
vt 0.546768844127655 0.17402532696723938
vt 0.6173340678215027 0.1962795853614807
vt 0.5601716637611389 0.24139615893363953
vt 0.6179068684577942 0.2604885995388031
vt 0.5786148309707642 0.3015921115875244
vt 0.6227181553840637 0.3082805573940277
vt 0.6812552213668823 0.22522228956222534
vt 0.6558242440223694 0.2789730131626129
vt 0.7496439814567566 0.210994154214859
vt 0.8364759087562561 0.2629207670688629
vt 0.7788552045822144 0.2593941390514374
vt 0.7134448885917664 0.2602453827857971
vt 0.6766730546951294 0.29684939980506897
vt 0.6467744708061218 0.31423935294151306
vt 0.6109190583229065 0.33442628383636475
vt 0.6449416279792786 0.3271297812461853
vt 0.6089716553688049 0.3499920964241028
vt 0.6873266100883484 0.3180091977119446
vt 0.7286805510520935 0.2856614589691162
vt 0.7866448760032654 0.28894487023353577
vt 0.8436927795410156 0.3135097026824951
vt 0.8952420949935913 0.35704535245895386
vt 0.8675200343132019 0.3620312809944153
vt 0.8810374140739441 0.41030967235565186
vt 0.8474730849266052 0.3748001158237457
vt 0.8340702652931213 0.3347910940647125
vt 0.8252496123313904 0.36251771450042725
vt 0.7909979224205017 0.34792476892471313
vt 0.7901960611343384 0.3164282739162445
vt 0.7394486665725708 0.312171995639801
vt 0.7455199956893921 0.3378312885761261
vt 0.6938561797142029 0.33430466055870056
vt 0.6873266100883484 0.3180091977119446
vt 0.6478054523468018 0.339047372341156
vt 0.6549078226089478 0.35181620717048645
vt 0.7023331522941589 0.35060012340545654
vt 0.751133143901825 0.36227449774742126
vt 0.7938618063926697 0.37419208884239197
vt 0.8245622515678406 0.3885418176651001
vt 0.8506805896759033 0.40216192603111267
vt 0.855148196220398 0.45177799463272095
vt 0.8266242742538452 0.42648354172706604
vt 0.7937472462654114 0.40666142106056213
vt 0.7564026713371277 0.392068475484848
vt 0.7112683653831482 0.38233983516693115
vt 0.6633847951889038 0.37419208884239197
vt 0.6231763362884521 0.3722463548183441
vt 0.6124082803726196 0.36373379826545715
vt 0.5864045023918152 0.37966445088386536
vt 0.7394486665725708 0.312171995639801
vt 0.7901960611343384 0.3164282739162445
vt 0.8340702652931213 0.3347910940647125
vt 0.6090862154960632 0.3949870467185974
vt 0.5350843071937561 0.4140795171260834
vt 0.6647594571113586 0.40787750482559204
vt 0.7129867076873779 0.4176061451435089
vt 0.7564026713371277 0.42769959568977356
vt 0.7948927879333496 0.44667044281959534
vt 0.8212401866912842 0.4868010878562927
vt 0.8441510200500488 0.5127035975456238
vt 0.8776007890701294 0.46904632449150085
vt 0.8899726271629333 0.47731566429138184
vt 0.8955857753753662 0.4390091598033905
vt 0.9096758961677551 0.5010292530059814
vt 0.9362524151802063 0.46916794776916504
vt 0.8638542890548706 0.5195136666297913
vt 0.8860777616500854 0.517324686050415
vt 0.8674054741859436 0.6198402643203735
vt 0.7992458343505859 0.533863365650177
vt 0.778740644454956 0.5009075999259949
vt 0.7418543100357056 0.5347146391868591
vt 0.7559444308280945 0.46089857816696167
vt 0.7191725969314575 0.4685598909854889
vt 0.6750693321228027 0.5165950655937195
vt 0.6569697856903076 0.5220674276351929
vt 0.612179160118103 0.5460242033004761
vt 0.5906429886817932 0.5851819515228271
vt 0.5536420345306396 0.5784935355186462
vt 0.5760946273803711 0.5466322302818298
vt 0.5300439596176147 0.5722914934158325
vt 0.5394373536109924 0.5497940182685852
vt 0.5947669744491577 0.5105146765708923
vt 0.54848712682724 0.5159870386123657
vt 0.5326786637306213 0.47184330224990845
vt 0.5028946399688721 0.49580007791519165
vt 0.5038110613822937 0.5236483216285706
vt 0.6321115493774414 0.5127035975456238
vt 0.596599817276001 0.47609958052635193
vt 0.588466465473175 0.4393739700317383
vt 0.6553660035133362 0.44752171635627747
vt 0.6353190541267395 0.4933679401874542
vt 0.6321115493774414 0.5127035975456238
vt 0.39189180731773376 0.5604955554008484
vt 0.3902880549430847 0.5063799619674683
vt 0.4005979299545288 0.4685598909854889
vt 0.4009415805339813 0.6180161237716675
vt 0.42259228229522705 0.6626462936401367
vt 0.5165265798568726 0.6696995496749878
vt 0.44997069239616394 0.5180543661117554
vt 0.4476796090602875 0.5657246708869934
vt 0.4550110697746277 0.6047608852386475
vt 0.47505801916122437 0.6374734044075012
vt 0.44997069239616394 0.5180543661117554
vt 0.461998850107193 0.48753073811531067
vt 0.4762035608291626 0.46247950196266174
vt 0.5326786637306213 0.47184330224990845
vt 0.5028946399688721 0.49580007791519165
vt 0.5038110613822937 0.5236483216285706
vt 0.4939594268798828 0.5572121143341064
vt 0.5394373536109924 0.5497940182685852
vt 0.5300439596176147 0.5722914934158325
vt 0.4975106120109558 0.5883437991142273
vt 0.5182448625564575 0.6096251606941223
vt 0.5549021363258362 0.632365882396698
vt 0.4476796090602875 0.5657246708869934
vt 0.4550110697746277 0.6047608852386475
vt 0.5536420345306396 0.5784935355186462
vt 0.5906429886817932 0.5851819515228271
vt 0.8674054741859436 0.6198402643203735
vt 0.8116176724433899 0.7291658520698547
vt 0.9061247110366821 0.6255558133125305
vt 0.8860777616500854 0.517324686050415
vt 0.9402618408203125 0.6226372122764587
vt 0.8929510116577148 0.7459477186203003
vt 0.8535444140434265 0.7363407015800476
vt 0.8383087515830994 0.8372753262519836
vt 0.7974129915237427 0.8291276097297668
vt 0.8047444224357605 0.9123075008392334
vt 0.757891833782196 0.8277899026870728
vt 0.7098937034606934 0.8200070261955261
vt 0.6408176422119141 0.8052924275398254
vt 0.6347463130950928 0.9051325917243958
vt 0.6339443922042847 0.9980411529541016
vt 0.692825198173523 0.991717517375946
vt 0.699583888053894 0.9112130403518677
vt 0.7609847784042358 0.9061054587364197
vt 0.7561735510826111 0.9767597317695618
vt 0.8022242188453674 0.974327564239502
vt 0.5326786637306213 0.47184330224990845
vt 0.5028946399688721 0.49580007791519165
vt 0.461998850107193 0.48753073811531067
s on
f 1/1/1 2/2/2 3/3/3
f 2/2/2 4/4/4 3/3/3
f 3/3/3 4/4/4 5/5/5
f 5/5/5 4/4/4 6/6/6
f 6/6/6 4/4/4 7/7/7
f 4/4/4 2/2/2 7/7/7
f 7/7/7 2/2/2 8/8/8
f 2/2/2 9/9/9 8/8/8
f 8/8/8 9/9/9 10/10/10
f 10/10/10 9/9/9 11/11/11
f 9/9/9 1/1/1 11/11/11
f 11/11/11 1/1/1 12/12/12
f 1/1/1 3/3/3 12/12/12
f 12/12/12 3/3/3 13/13/13
f 3/3/3 5/5/5 13/13/13
f 9/9/9 2/2/2 1/1/1
f 8/8/8 10/10/10 14/14/14
f 14/14/14 10/10/10 15/15/15
f 15/15/15 10/10/10 16/16/16
f 16/16/16 10/10/10 17/17/17
f 10/10/10 11/11/11 17/17/17
f 17/17/17 11/11/11 12/12/12
f 15/15/15 18/18/18 14/14/14
f 18/18/18 19/19/19 14/14/14
f 19/19/19 20/20/20 14/14/14
f 20/20/20 21/21/21 14/14/14
f 14/14/14 21/21/21 22/22/22
f 22/22/22 21/21/21 23/23/23
f 21/21/21 24/24/24 23/23/23
f 24/24/24 25/25/25 23/23/23
f 23/23/23 25/25/25 26/26/26
f 25/25/25 27/27/27 26/26/26
f 26/26/26 27/27/27 28/28/28
f 27/27/27 29/29/29 28/28/28
f 28/28/28 29/29/29 30/30/30
f 29/29/29 27/27/27 31/31/31
f 27/27/27 32/32/32 31/31/31
f 32/32/32 33/33/33 31/31/31
f 33/33/33 34/34/34 31/31/31
f 31/31/31 34/34/34 35/35/35
f 35/35/35 34/34/34 36/36/36
f 34/34/34 37/37/37 36/36/36
f 36/36/36 37/37/37 38/38/38
f 37/37/37 39/39/39 38/38/38
f 39/39/39 40/40/40 38/38/38
f 38/38/38 40/40/40 41/41/41
f 41/41/41 40/40/40 42/42/42
f 42/42/42 40/40/40 43/43/43
f 40/40/40 44/44/44 43/43/43
f 43/43/43 44/44/44 45/45/45
f 34/34/34 46/46/46 37/37/37
f 46/46/46 47/47/47 37/37/37
f 37/37/37 47/47/47 39/39/39
f 47/47/47 48/48/48 39/39/39
f 48/48/48 49/49/49 39/39/39
f 49/49/49 44/44/44 39/39/39
f 39/39/39 44/44/44 40/40/40
f 47/47/47 46/46/46 48/48/48
f 48/48/48 46/46/46 50/50/50
f 50/50/50 46/46/46 51/51/51
f 46/46/46 52/52/52 51/51/51
f 52/52/52 53/53/53 51/51/51
f 53/53/53 25/25/25 51/51/51
f 25/25/25 24/24/24 51/51/51
f 51/51/51 24/24/24 54/54/54
f 24/24/24 55/55/55 54/54/54
f 55/55/55 56/56/56 54/54/54
f 54/54/54 56/56/56 50/50/50
f 56/56/56 48/48/48 50/50/50
f 50/50/50 51/51/51 54/54/54
f 24/24/24 21/21/21 55/55/55
f 21/21/21 20/20/20 55/55/55
f 55/55/55 20/20/20 57/57/57
f 20/20/20 19/19/19 57/57/57
f 57/57/57 19/19/19 58/58/58
f 58/58/58 19/19/19 59/59/59
f 19/19/19 18/18/18 59/59/59
f 59/59/59 18/18/18 60/60/60
f 18/18/18 61/61/61 60/60/60
f 61/61/61 62/62/62 60/60/60
f 60/60/60 62/62/62 63/63/63
f 62/62/62 64/64/64 63/63/63
f 64/64/64 65/65/65 63/63/63
f 65/65/65 66/66/66 63/63/63
f 63/63/63 66/66/66 60/60/60
f 66/66/66 67/67/67 60/60/60
f 60/60/60 67/67/67 68/68/68
f 68/68/68 67/67/67 69/69/69
f 69/69/69 67/67/67 70/70/70
f 67/67/67 66/66/66 70/70/70
f 70/70/70 66/66/66 71/71/71
f 66/66/66 65/65/65 71/71/71
f 71/71/71 65/65/65 72/72/72
f 72/72/72 65/65/65 73/73/73
f 65/65/65 74/74/74 73/73/73
f 73/73/73 74/74/74 75/75/75
f 65/65/65 64/64/64 74/74/74
f 74/74/74 64/64/64 12/12/12
f 12/12/12 64/64/64 76/76/76
f 64/64/64 77/77/77 76/76/76
f 12/12/12 13/13/13 74/74/74
f 74/74/74 13/13/13 78/78/78
f 13/13/13 5/5/5 78/78/78
f 78/78/78 5/5/5 79/79/79
f 5/5/5 6/6/6 79/79/79
f 79/79/79 80/80/80 78/78/78
f 80/80/80 81/81/81 78/78/78
f 78/78/78 81/81/81 82/82/82
f 81/81/81 83/83/83 82/82/82
f 83/83/83 84/84/84 82/82/82
f 84/84/84 72/72/72 82/82/82
f 82/82/82 72/72/72 73/73/73
f 78/78/78 82/82/82 85/85/85
f 36/36/36 38/38/38 86/86/86
f 38/38/38 41/41/41 86/86/86
f 70/70/70 71/71/71 87/87/87
f 71/71/71 72/72/72 87/87/87
f 87/87/87 72/72/72 88/88/88
f 72/72/72 84/84/84 89/89/89
f 84/84/84 83/83/83 89/89/89
f 83/83/83 90/90/90 89/89/89
f 90/90/90 91/91/91 89/89/89
f 89/89/89 91/91/91 92/92/92
f 92/92/92 91/91/91 93/93/93
f 93/93/93 91/91/91 94/94/94
f 91/91/91 95/95/95 94/94/94
f 94/94/94 95/95/95 96/96/96
f 96/96/96 95/95/95 97/97/97
f 95/95/95 98/98/98 97/97/97
f 97/97/97 98/98/98 99/99/99
f 98/98/98 100/100/100 99/99/99
f 100/100/100 101/101/101 99/99/99
f 99/99/99 101/101/101 102/102/102
f 101/101/101 103/103/103 102/102/102
f 102/102/102 104/104/104 99/99/99
f 99/99/99 104/104/104 97/97/97
f 104/104/104 105/105/105 97/97/97
f 97/97/97 105/105/105 96/96/96
f 105/105/105 106/106/106 96/96/96
f 106/106/106 107/107/107 96/96/96
f 96/96/96 107/107/107 94/94/94
f 94/94/94 107/107/107 93/93/93
f 107/107/107 108/108/108 93/93/93
f 93/93/93 108/108/108 109/109/109
f 108/108/108 110/110/110 109/109/109
f 109/109/109 110/110/110 88/88/88
f 88/88/88 110/110/110 87/87/87
f 110/110/110 111/111/111 87/87/87
f 87/87/87 111/111/111 70/70/70
f 93/93/93 109/109/109 92/92/92
f 92/92/92 109/109/109 89/89/89
f 109/109/109 88/88/88 89/89/89
f 89/89/89 88/88/88 72/72/72
f 111/111/111 110/110/110 112/112/112
f 110/110/110 108/108/108 112/112/112
f 108/108/108 107/107/107 112/112/112
f 112/112/112 107/107/107 113/113/113
f 107/107/107 106/106/106 113/113/113
f 106/106/106 114/114/114 113/113/113
f 114/114/114 115/115/115 113/113/113
f 113/113/113 115/115/115 112/112/112
f 115/115/115 116/116/116 112/112/112
f 112/112/112 116/116/116 111/111/111
f 116/116/116 117/117/117 111/111/111
f 111/111/111 117/117/117 70/70/70
f 70/70/70 117/117/117 69/69/69
f 117/117/117 118/118/118 69/69/69
f 69/69/69 118/118/118 68/68/68
f 68/68/68 118/118/118 119/119/119
f 118/118/118 120/120/120 119/119/119
f 119/119/119 120/120/120 121/121/121
f 120/120/120 122/122/122 121/121/121
f 121/121/121 122/122/122 123/123/123
f 123/123/123 122/122/122 124/124/124
f 122/122/122 125/125/125 124/124/124
f 124/124/124 125/125/125 126/126/126
f 125/125/125 117/117/117 126/126/126
f 126/126/126 117/117/117 127/127/127
f 117/117/117 116/116/116 127/127/127
f 116/116/116 115/115/115 127/127/127
f 127/127/127 115/115/115 128/128/128
f 115/115/115 114/114/114 128/128/128
f 117/117/117 125/125/125 118/118/118
f 125/125/125 122/122/122 118/118/118
f 118/118/118 122/122/122 120/120/120
f 127/127/127 128/128/128 126/126/126
f 126/126/126 128/128/128 129/129/129
f 129/129/129 128/128/128 130/130/130
f 128/128/128 114/114/114 130/130/130
f 114/114/114 106/106/106 130/130/130
f 106/106/106 105/105/105 130/130/130
f 105/105/105 104/104/104 130/130/130
f 104/104/104 131/131/131 130/130/130
f 131/131/131 132/132/132 130/130/130
f 130/130/130 132/132/132 129/129/129
f 132/132/132 124/124/124 129/129/129
f 129/129/129 124/124/124 126/126/126
f 132/132/132 133/133/133 124/124/124
f 124/124/124 133/133/133 134/134/134
f 133/133/133 135/135/135 134/134/134
f 135/135/135 123/123/123 134/134/134
f 134/134/134 123/123/123 124/124/124
f 132/132/132 136/136/136 133/133/133
f 136/136/136 137/137/137 133/133/133
f 133/133/133 137/137/137 135/135/135
f 132/132/132 131/131/131 136/136/136
f 131/131/131 104/104/104 136/136/136
f 136/136/136 104/104/104 138/138/138
f 104/104/104 102/102/102 138/138/138
f 138/138/138 102/102/102 139/139/139
f 102/102/102 103/103/103 139/139/139
f 139/139/139 140/140/140 138/138/138
f 138/138/138 140/140/140 136/136/136
f 140/140/140 141/141/141 136/136/136
f 136/136/136 141/141/141 137/137/137
f 141/141/141 142/142/142 137/137/137
f 137/137/137 142/142/142 135/135/135
f 142/142/142 143/143/143 135/135/135
f 135/135/135 143/143/143 144/144/144
f 143/143/143 145/145/145 144/144/144
f 145/145/145 146/146/146 144/144/144
f 144/144/144 146/146/146 123/123/123
f 146/146/146 121/121/121 123/123/123
f 123/123/123 135/135/135 144/144/144
f 145/145/145 143/143/143 147/147/147
f 143/143/143 142/142/142 147/147/147
f 147/147/147 142/142/142 148/148/148
f 142/142/142 141/141/141 148/148/148
f 148/148/148 141/141/141 149/149/149
f 141/141/141 140/140/140 149/149/149
f 149/149/149 140/140/140 150/150/150
f 140/140/140 139/139/139 150/150/150
f 139/139/139 103/103/103 150/150/150
f 103/103/103 151/151/151 150/150/150
f 150/150/150 151/151/151 152/152/152
f 151/151/151 153/153/153 152/152/152
f 153/153/153 154/154/154 152/152/152
f 152/152/152 154/154/154 155/155/155
f 154/154/154 156/156/156 155/155/155
f 156/156/156 157/157/157 155/155/155
f 155/155/155 157/157/157 158/158/158
f 158/158/158 157/157/157 159/159/159
f 157/157/157 160/160/160 159/159/159
f 160/160/160 161/161/161 159/159/159
f 159/159/159 161/161/161 162/162/162
f 161/161/161 163/163/163 162/162/162
f 162/162/162 163/163/163 145/145/145
f 145/145/145 163/163/163 146/146/146
f 146/146/146 163/163/163 164/164/164
f 164/164/164 163/163/163 165/165/165
f 163/163/163 161/161/161 165/165/165
f 161/161/161 160/160/160 165/165/165
f 165/165/165 160/160/160 166/166/166
f 166/166/166 160/160/160 167/167/167
f 160/160/160 157/157/157 167/167/167
f 157/157/157 156/156/156 167/167/167
f 167/167/167 156/156/156 168/168/168
f 156/156/156 154/154/154 168/168/168
f 168/168/168 154/154/154 169/169/169
f 154/154/154 153/153/153 169/169/169
f 153/153/153 170/170/170 169/169/169
f 169/169/169 170/170/170 168/168/168
f 170/170/170 171/171/171 168/168/168
f 168/168/168 171/171/171 167/167/167
f 171/171/171 172/172/172 167/167/167
f 172/172/172 173/173/173 167/167/167
f 167/167/167 173/173/173 166/166/166
f 166/166/166 173/173/173 165/165/165
f 173/173/173 174/174/174 165/165/165
f 174/174/174 175/175/175 165/165/165
f 165/165/165 175/175/175 164/164/164
f 175/175/175 176/176/176 164/164/164
f 176/176/176 177/177/177 164/164/164
f 164/164/164 177/177/177 146/146/146
f 146/146/146 177/177/177 178/178/178
f 177/177/177 176/176/176 178/178/178
f 147/147/147 148/148/148 179/179/179
f 179/179/179 148/148/148 180/180/180
f 148/148/148 149/149/149 180/180/180
f 149/149/149 150/150/150 180/180/180
f 180/180/180 150/150/150 181/181/181
f 150/150/150 152/152/152 181/181/181
f 146/146/146 178/178/178 121/121/121
f 178/178/178 119/119/119 121/121/121
f 176/176/176 182/182/182 178/178/178
f 182/182/182 183/183/183 178/178/178
f 182/182/182 176/176/176 184/184/184
f 176/176/176 175/175/175 184/184/184
f 175/175/175 174/174/174 184/184/184
f 184/184/184 174/174/174 185/185/185
f 185/185/185 174/174/174 186/186/186
f 174/174/174 173/173/173 186/186/186
f 186/186/186 173/173/173 187/187/187
f 173/173/173 172/172/172 187/187/187
f 172/172/172 171/171/171 187/187/187
f 187/187/187 171/171/171 188/188/188
f 188/188/188 171/171/171 189/189/189
f 171/171/171 170/170/170 189/189/189
f 189/189/189 170/170/170 190/190/190
f 170/170/170 153/153/153 190/190/190
f 190/190/190 153/153/153 191/191/191
f 153/153/153 192/192/192 191/191/191
f 191/191/191 192/192/192 193/193/193
f 192/192/192 151/151/151 193/193/193
f 193/193/193 151/151/151 194/194/194
f 151/151/151 192/192/192 153/153/153
f 189/189/189 190/190/190 195/195/195
f 190/190/190 191/191/191 195/195/195
f 195/195/195 191/191/191 196/196/196
f 191/191/191 193/193/193 196/196/196
f 196/196/196 197/197/197 195/195/195
f 197/197/197 36/36/36 195/195/195
f 195/195/195 36/36/36 189/189/189
f 36/36/36 86/86/86 189/189/189
f 189/189/189 86/86/86 198/198/198
f 86/86/86 41/41/41 198/198/198
f 198/198/198 41/41/41 199/199/199
f 41/41/41 200/200/200 199/199/199
f 189/189/189 198/198/198 188/188/188
f 188/188/188 198/198/198 187/187/187
f 198/198/198 199/199/199 187/187/187
f 187/187/187 199/199/199 201/201/201
f 199/199/199 202/202/202 201/201/201
f 201/201/201 202/202/202 186/186/186
f 186/186/186 202/202/202 185/185/185
f 202/202/202 184/184/184 185/185/185
f 201/201/201 186/186/186 187/187/187
f 199/199/199 200/200/200 202/202/202
f 200/200/200 43/43/43 202/202/202
f 202/202/202 43/43/43 203/203/203
f 203/203/203 43/43/43 204/204/204
f 43/43/43 45/45/45 204/204/204
f 204/204/204 45/45/45 205/205/205
f 45/45/45 44/44/44 205/205/205
f 44/44/44 206/206/206 205/205/205
f 206/206/206 207/207/207 205/205/205
f 205/205/205 207/207/207 208/208/208
f 207/207/207 209/209/209 208/208/208
f 209/209/209 210/210/210 208/208/208
f 208/208/208 210/210/210 211/211/211
f 210/210/210 212/212/212 211/211/211
f 211/211/211 212/212/212 213/213/213
f 213/213/213 212/212/212 214/214/214
f 214/214/214 212/212/212 215/215/215
f 212/212/212 210/210/210 215/215/215
f 208/208/208 211/211/211 205/205/205
f 211/211/211 216/216/216 205/205/205
f 205/205/205 216/216/216 204/204/204
f 211/211/211 213/213/213 217/217/217
f 213/213/213 183/183/183 217/217/217
f 217/217/217 183/183/183 218/218/218
f 183/183/183 182/182/182 218/218/218
f 182/182/182 184/184/184 218/218/218
f 218/218/218 184/184/184 219/219/219
f 184/184/184 202/202/202 219/219/219
f 219/219/219 202/202/202 220/220/220
f 202/202/202 203/203/203 220/220/220
f 220/220/220 203/203/203 221/221/221
f 203/203/203 204/204/204 221/221/221
f 218/218/218 219/219/219 217/217/217
f 219/219/219 220/220/220 217/217/217
f 217/217/217 220/220/220 211/211/211
f 220/220/220 221/221/221 211/211/211
f 58/58/58 59/59/59 222/222/222
f 222/222/222 59/59/59 223/223/223
f 59/59/59 60/60/60 223/223/223
f 223/223/223 60/60/60 224/224/224
f 60/60/60 68/68/68 224/224/224
f 58/58/58 222/222/222 57/57/57
f 222/222/222 225/225/225 57/57/57
f 57/57/57 225/225/225 55/55/55
f 225/225/225 226/226/226 55/55/55
f 55/55/55 226/226/226 56/56/56
f 226/226/226 227/227/227 56/56/56
f 56/56/56 227/227/227 48/48/48
f 228/228/228 229/229/229 222/222/222
f 229/229/229 230/230/230 222/222/222
f 222/222/222 230/230/230 225/225/225
f 230/230/230 231/231/231 225/225/225
f 225/225/225 231/231/231 226/226/226
f 231/231/231 227/227/227 226/226/226
f 222/222/222 223/223/223 232/232/232
f 223/223/223 224/224/224 232/232/232
f 232/232/232 224/224/224 233/233/233
f 224/224/224 234/234/234 233/233/233
f 233/233/233 234/234/234 235/235/235
f 235/235/235 234/234/234 119/119/119
f 119/119/119 234/234/234 68/68/68
f 234/234/234 224/224/224 68/68/68
f 233/233/233 236/236/236 232/232/232
f 236/236/236 237/237/237 232/232/232
f 232/232/232 237/237/237 238/238/238
f 237/237/237 239/239/239 238/238/238
f 239/239/239 240/240/240 238/238/238
f 238/238/238 240/240/240 241/241/241
f 240/240/240 242/242/242 241/241/241
f 241/241/241 242/242/242 231/231/231
f 242/242/242 243/243/243 231/231/231
f 231/231/231 243/243/243 227/227/227
f 232/232/232 238/238/238 244/244/244
f 244/244/244 238/238/238 245/245/245
f 238/238/238 241/241/241 245/245/245
f 245/245/245 241/241/241 231/231/231
f 240/240/240 246/246/246 242/242/242
f 242/242/242 246/246/246 243/243/243
f 246/246/246 247/247/247 243/243/243
f 247/247/247 44/44/44 243/243/243
f 44/44/44 49/49/49 243/243/243
f 49/49/49 48/48/48 243/243/243
f 243/243/243 48/48/48 227/227/227
f 248/248/248 249/249/249 36/36/36
f 36/36/36 249/249/249 35/35/35
f 249/249/249 248/248/248 250/250/250
f 248/248/248 251/251/251 250/250/250
f 251/251/251 193/193/193 250/250/250
f 193/193/193 194/194/194 250/250/250
f 194/194/194 252/252/252 250/250/250
f 252/252/252 253/253/253 250/250/250
f 250/250/250 253/253/253 254/254/254
f 253/253/253 255/255/255 254/254/254
f 254/254/254 255/255/255 256/256/256
f 255/255/255 257/257/257 256/256/256
f 250/250/250 254/254/254 249/249/249
f 254/254/254 258/258/258 249/249/249
f 249/249/249 258/258/258 35/35/35
f 258/258/258 259/259/259 35/35/35
f 35/35/35 259/259/259 260/260/260
f 259/259/259 261/261/261 260/260/260
f 260/260/260 261/261/261 29/29/29
f 29/29/29 261/261/261 30/30/30
f 30/30/30 261/261/261 262/262/262
f 262/262/262 261/261/261 263/263/263
f 261/261/261 264/264/264 263/263/263
f 263/263/263 264/264/264 265/265/265
f 264/264/264 256/256/256 265/265/265
f 256/256/256 257/257/257 265/265/265
f 265/265/265 257/257/257 266/266/266
f 257/257/257 267/267/267 266/266/266
f 254/254/254 256/256/256 258/258/258
f 256/256/256 264/264/264 258/258/258
f 264/264/264 261/261/261 258/258/258
f 258/258/258 261/261/261 259/259/259
f 263/263/263 265/265/265 266/266/266
f 268/268/268 269/269/269 270/270/270

