# Exported by Sketchfab Model Ripper robust edition
o model_20
v 0.13163574039936066 -0.6414076685905457 -0.30111581087112427
v 0.14090117812156677 -0.6361778378486633 -0.2984537184238434
v 0.13761472702026367 -0.6317863464355469 -0.2994646430015564
v 0.14858278632164001 -0.6346208453178406 -0.29720690846443176
v 0.13884219527244568 -0.643363893032074 -0.29986900091171265
v 0.1479492485523224 -0.64372318983078 -0.29828524589538574
v 0.15887771546840668 -0.6355391144752502 -0.29484811425209045
v 0.15662075579166412 -0.645000696182251 -0.2962633967399597
v 0.1479492485523224 -0.6526259183883667 -0.29939723014831543
v 0.15456177294254303 -0.651508092880249 -0.29774606227874756
v 0.15076056122779846 -0.660570502281189 -0.29926246404647827
v 0.15871933102607727 -0.6568177938461304 -0.29673516750335693
v 0.16374801099300385 -0.663644552230835 -0.2952524721622467
v 0.15472015738487244 -0.6679162383079529 -0.2981504499912262
v 0.16818276047706604 -0.6706708669662476 -0.29323065280914307
v 0.15796701610088348 -0.6755414605140686 -0.29670146107673645
v 0.15931327641010284 -0.6818092465400696 -0.29622969031333923
v 0.17178598046302795 -0.6761003732681274 -0.29221972823143005
v 0.1747952699661255 -0.6803321242332458 -0.2925567030906677
v 0.1605011522769928 -0.6867596507072449 -0.29720690846443176
v 0.17776496708393097 -0.6836856007575989 -0.2947470247745514
v 0.16216418147087097 -0.6907519102096558 -0.2999364137649536
v 0.18057627975940704 -0.6860011219978333 -0.2989254891872406
v 0.16414397954940796 -0.693626344203949 -0.30482250452041626
v 0.16659891605377197 -0.6948239803314209 -0.31216850876808167
v 0.18330839276313782 -0.6871588826179504 -0.30559754371643066
v 0.18532778322696686 -0.6864402890205383 -0.3144599497318268
v 0.19669181108474731 -0.671708881855011 -0.30856290459632874
v 0.1953059434890747 -0.6722677946090698 -0.2999364137649536
v 0.19221746921539307 -0.6713895201683044 -0.29383718967437744
v 0.1887330263853073 -0.6699522733688354 -0.2900630831718445
v 0.18501101434230804 -0.6679561734199524 -0.28834453225135803
v 0.1806158721446991 -0.6652414202690125 -0.2887152135372162
v 0.17546840012073517 -0.6614088416099548 -0.2905011475086212
v 0.16980618238449097 -0.6551809310913086 -0.29279255867004395
v 0.16390639543533325 -0.6488332748413086 -0.29484811425209045
v 0.16810356080532074 -0.6397309303283691 -0.292118638753891
v 0.17455770075321198 -0.6464778780937195 -0.28989461064338684
v 0.178556889295578 -0.6533445119857788 -0.2887488901615143
v 0.18322919309139252 -0.6527456641197205 -0.2868618369102478
v 0.18002192676067352 -0.6414476037025452 -0.28726622462272644
v 0.17222154140472412 -0.6328243613243103 -0.2899957001209259
v 0.16085751354694366 -0.6278340220451355 -0.29437634348869324
v 0.14814722537994385 -0.6269956827163696 -0.29751020669937134
v 0.13460543751716614 -0.627594530582428 -0.3010147213935852
v 0.12712180614471436 -0.6393716335296631 -0.30327242612838745
v 0.13294240832328796 -0.6244805455207825 -0.3037104904651642
v 0.14767208695411682 -0.6216460466384888 -0.29879069328308105
v 0.16236215829849243 -0.6229235529899597 -0.29457852244377136
v 0.12431050091981888 -0.6376150846481323 -0.3063388764858246
v 0.12276626378297806 -0.6360580921173096 -0.3105510473251343
v 0.1323484629392624 -0.6217259168624878 -0.30772048234939575
v 0.14759288728237152 -0.618092954158783 -0.30037447810173035
v 0.12288504838943481 -0.6535041928291321 -0.30799004435539246
v 0.12712180614471436 -0.6393716335296631 -0.30327242612838745
v 0.12589433789253235 -0.6536638736724854 -0.3049235939979553
v 0.13072504103183746 -0.6536638736724854 -0.30273327231407166
v 0.13163574039936066 -0.6414076685905457 -0.30111581087112427
v 0.13844624161720276 -0.6534243822097778 -0.3010821044445038
v 0.13884219527244568 -0.643363893032074 -0.29986900091171265
v 0.1479492485523224 -0.64372318983078 -0.29828524589538574
v 0.1479492485523224 -0.6526259183883667 -0.29939723014831543
v 0.14090117812156677 -0.6630457043647766 -0.3012842833995819
v 0.15076056122779846 -0.660570502281189 -0.29926246404647827
v 0.15472015738487244 -0.6679162383079529 -0.2981504499912262
v 0.14545470476150513 -0.6708305478096008 -0.3004418611526489
v 0.14992904663085938 -0.6768987774848938 -0.2989591658115387
v 0.14771167933940887 -0.6812503337860107 -0.2997342050075531
v 0.15931327641010284 -0.6818092465400696 -0.29622969031333923
v 0.14640501141548157 -0.6861608028411865 -0.30141907930374146
v 0.1605011522769928 -0.6867596507072449 -0.29720690846443176
v 0.15796701610088348 -0.6755414605140686 -0.29670146107673645
v 0.13900057971477509 -0.6752619743347168 -0.30222782492637634
v 0.13341756165027618 -0.6656805872917175 -0.3031376302242279
v 0.12882442772388458 -0.6675968766212463 -0.30539536476135254
v 0.13547654449939728 -0.6791344285011292 -0.3044855296611786
v 0.14616744220256805 -0.6902728080749512 -0.30462032556533813
v 0.16216418147087097 -0.6907519102096558 -0.2999364137649536
v 0.16414397954940796 -0.693626344203949 -0.30482250452041626
v 0.1468009650707245 -0.6933867931365967 -0.310146689414978
v 0.1334967464208603 -0.6820887327194214 -0.3080911338329315
v 0.12605272233486176 -0.6688344478607178 -0.30879878997802734
v 0.12466686218976974 -0.6694332957267761 -0.3136512041091919
v 0.1214200034737587 -0.6529852151870728 -0.3125728964805603
v 0.1325860470533371 -0.6841647028923035 -0.31351640820503235
v 0.13329876959323883 -0.6849232316017151 -0.3209972083568573
v 0.1484244018793106 -0.6944646835327148 -0.31793075799942017
v 0.13492220640182495 -0.684124767780304 -0.32901716232299805
v 0.15068137645721436 -0.69354647397995 -0.32659095525741577
v 0.12482524663209915 -0.6692336797714233 -0.3202221691608429
v 0.1214991882443428 -0.6522666215896606 -0.31850361824035645
v 0.12272666394710541 -0.6345010995864868 -0.3168187439441681
v 0.1329028159379959 -0.6193305253982544 -0.3139207661151886
v 0.1482660174369812 -0.6155379414558411 -0.30323874950408936
v 0.16351044178009033 -0.620168924331665 -0.29565683007240295
v 0.17780455946922302 -0.6267561316490173 -0.2905685603618622
v 0.17542880773544312 -0.6286724209785461 -0.28932175040245056
v 0.18477344512939453 -0.6390522718429565 -0.2860867977142334
v 0.1883370727300644 -0.6529452800750732 -0.2858846187591553
v 0.19265303015708923 -0.6533844470977783 -0.28696292638778687
v 0.18877261877059937 -0.6377348303794861 -0.2868281602859497
v 0.18010112643241882 -0.6259177923202515 -0.2936350107192993
v 0.16489629447460175 -0.6186518669128418 -0.29825153946876526
v 0.14996863901615143 -0.6140208840370178 -0.30829334259033203
v 0.12720100581645966 -0.668355405330658 -0.3273659944534302
v 0.19661261141300201 -0.6537038087844849 -0.2902989685535431
v 0.19249464571475983 -0.6368565559387207 -0.28986090421676636
v 0.18303121626377106 -0.6252390742301941 -0.29879069328308105
v 0.16711366176605225 -0.6176937222480774 -0.30303654074668884
v 0.20041382312774658 -0.6540631055831909 -0.2962633967399597
v 0.20247280597686768 -0.6543425917625427 -0.3047214150428772
v 0.19661261141300201 -0.6363774538040161 -0.295825332403183
v 0.19985948503017426 -0.6365770697593689 -0.3041485548019409
v 0.2019580602645874 -0.6541030406951904 -0.3143588602542877
v 0.19471201300621033 -0.6692736148834229 -0.31796446442604065
v 0.1861197054386139 -0.6836856007575989 -0.32456913590431213
v 0.16885589063167572 -0.6938658356666565 -0.32113200426101685
v 0.1703605353832245 -0.6907119750976562 -0.3304998576641083
v 0.15281954407691956 -0.6906720399856567 -0.33501529693603516
v 0.1707564890384674 -0.6859611868858337 -0.3396318256855011
v 0.15503692626953125 -0.6861608028411865 -0.34269827604293823
v 0.15733347833156586 -0.6803321242332458 -0.34943774342536926
v 0.1462070345878601 -0.6743437647819519 -0.35031387209892273
v 0.14125753939151764 -0.6786553859710693 -0.3443157374858856
v 0.13745634257793427 -0.6819290518760681 -0.33683493733406067
v 0.1312793791294098 -0.6665987968444824 -0.33504897356033325
v 0.12419171631336212 -0.651148796081543 -0.3252430856227875
v 0.12458766996860504 -0.6331437230110168 -0.32426583766937256
v 0.13500139117240906 -0.6179332733154297 -0.32106462121009827
v 0.1527007669210434 -0.6131026148796082 -0.3151675760746002
v 0.17024174332618713 -0.616735577583313 -0.3097423017024994
v 0.18639686703681946 -0.6246801614761353 -0.3057997226715088
v 0.18893100321292877 -0.6250793933868408 -0.3143588602542877
v 0.17317184805870056 -0.6174941062927246 -0.3169872462749481
v 0.15610601007938385 -0.613821268081665 -0.3230190575122833
v 0.13797108829021454 -0.6181328892707825 -0.32797256112098694
v 0.12767615914344788 -0.632584810256958 -0.33114010095596313
v 0.12878483533859253 -0.6495918035507202 -0.33292606472969055
v 0.13413028419017792 -0.6483941078186035 -0.3404742479324341
v 0.136189267039299 -0.6644030809402466 -0.3424623906612396
v 0.14272259175777435 -0.662207305431366 -0.3475169837474823
v 0.14082199335098267 -0.6480348110198975 -0.3449223041534424
v 0.1324276626110077 -0.632584810256958 -0.33895787596702576
v 0.14264340698719025 -0.6196499466896057 -0.3358914256095886
v 0.16018438339233398 -0.6166158318519592 -0.3320162296295166
v 0.17649789154529572 -0.6205681562423706 -0.32898348569869995
v 0.18944574892520905 -0.6288321018218994 -0.32426583766937256
v 0.2008097767829895 -0.6377348303794861 -0.3133479356765747
v 0.19910715520381927 -0.6397708654403687 -0.3230190575122833
v 0.1984340250492096 -0.6529452800750732 -0.32396256923675537
v 0.1972065567970276 -0.6408487558364868 -0.3318140506744385
v 0.19019807875156403 -0.6349402666091919 -0.3341054618358612
v 0.1786360740661621 -0.6278340220451355 -0.33973291516304016
v 0.1888122260570526 -0.6444417834281921 -0.3404742479324341
v 0.19459322094917297 -0.6496716737747192 -0.3338358700275421
v 0.16450034081935883 -0.6225243806838989 -0.34293416142463684
v 0.14913712441921234 -0.6242011189460754 -0.3440461754798889
v 0.14058440923690796 -0.6334232091903687 -0.3474496006965637
v 0.14822642505168915 -0.6367766857147217 -0.3506845235824585
v 0.14977066218852997 -0.6471166014671326 -0.3488311767578125
v 0.17899243533611298 -0.6380941271781921 -0.3461690843105316
v 0.1660841703414917 -0.6334232091903687 -0.3485616147518158
v 0.15527449548244476 -0.6329042315483093 -0.35051605105400085
v 0.184219092130661 -0.6549414396286011 -0.3433722257614136
v 0.18821828067302704 -0.6608100533485413 -0.33612731099128723
v 0.1918611079454422 -0.6659999489784241 -0.327062726020813
v 0.1848922222852707 -0.6788949370384216 -0.3341391682624817
v 0.18263526260852814 -0.6723875403404236 -0.3425297737121582
v 0.1705189198255539 -0.6791743636131287 -0.34711262583732605
v 0.17903202772140503 -0.6638840436935425 -0.3495388329029083
v 0.17736901342868805 -0.6486336588859558 -0.35031387209892273
v 0.1671532690525055 -0.6458390951156616 -0.3522683084011078
v 0.1585213541984558 -0.645439863204956 -0.351729154586792
v 0.1594320684671402 -0.6593328714370728 -0.35398685932159424
v 0.16743043065071106 -0.6578158140182495 -0.3548629879951477
v 0.17531001567840576 -0.6573367714881897 -0.3522346019744873
v 0.1696082055568695 -0.6693534255027771 -0.3538520932197571
v 0.15907570719718933 -0.6711499691009521 -0.35449233651161194
v 0.15190884470939636 -0.6691139340400696 -0.35422274470329285
v 0.15123571455478668 -0.6597321033477783 -0.3522346019744873
vn -0.285837858915329 -0.06331532448530197 0.9561840295791626
vn -0.20601513981819153 -0.05196652561426163 0.9771679639816284
vn -0.2874622344970703 0.07442912459373474 0.9548956751823425
vn -0.20548512041568756 -0.033491674810647964 0.9780870079994202
vn -0.17534807324409485 -0.11998254060745239 0.9771679639816284
vn -0.20241279900074005 -0.10819189250469208 0.9733054637908936
vn -0.27955693006515503 -0.05225824564695358 0.9587059020996094
vn -0.25940296053886414 -0.11658945679664612 0.9587059020996094
vn -0.19527225196361542 -0.09403815865516663 0.976230263710022
vn -0.2581541836261749 -0.08506596833467484 0.962351381778717
vn -0.24971142411231995 -0.022474436089396477 0.9680594801902771
vn -0.30831778049468994 -0.026241710409522057 0.9509214162826538
vn -0.33834704756736755 0.003756156424060464 0.9410139322280884
vn -0.2785930335521698 0.03003784269094467 0.9599394202232361
vn -0.3340623378753662 0.011289108544588089 0.9424833655357361
vn -0.30831778049468994 0.026241710409522057 0.9509214162826538
vn -0.2712915539741516 -0.13064712285995483 0.953589141368866
vn -0.25482067465782166 -0.10605806112289429 0.961154580116272
vn -0.06163187325000763 -0.33270758390426636 0.9410139322280884
vn -0.1646302342414856 -0.4847409129142761 0.8590245246887207
vn 0.17141073942184448 -0.6202827095985413 0.7654199600219727
vn 0.0018859859555959702 -0.7696189284324646 0.6385006904602051
vn 0.42311176657676697 -0.778089702129364 0.4642767012119293
vn 0.024519404396414757 -0.9471673369407654 0.3198012113571167
vn 0.20786358416080475 -0.976106584072113 0.0633138045668602
vn 0.6032045483589172 -0.7788782119750977 0.17173540592193604
vn 0.6529819369316101 -0.7530569434165955 -0.08074574917554855
vn 0.876740038394928 -0.47785651683807373 -0.05459024757146835
vn 0.8226199746131897 -0.47566619515419006 0.31150925159454346
vn 0.6640046834945679 -0.4544502794742584 0.5937783122062683
vn 0.37320441007614136 -0.43174660205841064 0.8211658596992493
vn 0.018777096644043922 -0.24577230215072632 0.9691457152366638
vn -0.2500058710575104 -0.09543225169181824 0.9635298252105713
vn -0.37823647260665894 -0.026281462982296944 0.9253358840942383
vn -0.3776412904262543 -0.033772747963666916 0.9253358840942383
vn -0.3367818593978882 -0.08181946724653244 0.9380210638046265
vn -0.3475700616836548 -0.08924082666635513 0.933397650718689
vn -0.40164878964424133 -0.06742493063211441 0.913308322429657
vn -0.36965447664260864 -0.0636933445930481 0.926983654499054
vn -0.2780800461769104 -0.059619463980197906 0.9587059020996094
vn -0.3404121994972229 -0.03754400834441185 0.9395264387130737
vn -0.3249470889568329 0.026232440024614334 0.9453682899475098
vn -0.2717081308364868 0.0485447458922863 0.961154580116272
vn -0.23636429011821747 0.11621249467134476 0.9646899104118347
vn -0.3798731565475464 0.24250198900699615 0.8926864862442017
vn -0.5562196969985962 0.06388919800519943 0.8285757899284363
vn -0.6040286421775818 0.4537770450115204 0.6551609039306641
vn -0.29051730036735535 0.3237774074077606 0.9004265069961548
vn -0.23662544786930084 0.2751697897911072 0.931820809841156
vn -0.8000164031982422 0.190612331032753 0.5688942670822144
vn -0.931399941444397 0.297076016664505 0.2103329300880432
vn -0.6183875799179077 0.6916728615760803 0.37307560443878174
vn -0.3155514597892761 0.6018574237823486 0.7336177229881287
vn -0.8797597885131836 -0.08285869657993317 0.46814218163490295
vn -0.5562196969985962 0.06388919800519943 0.8285757899284363
vn -0.5653206706047058 -0.11964923143386841 0.8161473870277405
vn -0.3210963308811188 -0.09285597503185272 0.9424833655357361
vn -0.285837858915329 -0.06331532448530197 0.9561840295791626
vn -0.1904878318309784 -0.09411241114139557 0.9771679639816284
vn -0.17534807324409485 -0.11998254060745239 0.9771679639816284
vn -0.20241279900074005 -0.10819189250469208 0.9733054637908936
vn -0.19527225196361542 -0.09403815865516663 0.976230263710022
vn -0.21351492404937744 -0.03722634166479111 0.976230263710022
vn -0.24971142411231995 -0.022474436089396477 0.9680594801902771
vn -0.2785930335521698 0.03003784269094467 0.9599394202232361
vn -0.259143590927124 -0.0037519836332648993 0.9658315181732178
vn -0.2792990505695343 0.022547351196408272 0.9599394202232361
vn -0.3126058876514435 -0.09250026941299438 0.9453682899475098
vn -0.2712915539741516 -0.13064712285995483 0.953589141368866
vn -0.35855838656425476 -0.34393197298049927 0.8678402304649353
vn -0.1646302342414856 -0.4847409129142761 0.8590245246887207
vn -0.30831778049468994 0.026241710409522057 0.9509214162826538
vn -0.323282390832901 -0.09990659356117249 0.9410139322280884
vn -0.29531410336494446 -0.09240160882472992 0.9509214162826538
vn -0.5522011518478394 -0.21344886720180511 0.8059239983558655
vn -0.5071426033973694 -0.34424370527267456 0.790128231048584
vn -0.34636518359184265 -0.7204762697219849 0.6007870435714722
vn 0.0018859859555959702 -0.7696189284324646 0.6385006904602051
vn 0.024519404396414757 -0.9471673369407654 0.3198012113571167
vn -0.4129742383956909 -0.8861221075057983 0.2103329300880432
vn -0.6574205756187439 -0.5614902377128601 0.5025205612182617
vn -0.8175423741340637 -0.3243374824523926 0.4758462607860565
vn -0.9394585490226746 -0.33301323652267456 0.08074574917554855
vn -0.9899320602416992 -0.06787767261266708 0.1242060661315918
vn -0.7565029859542847 -0.6298521757125854 0.1760382205247879
vn -0.749625563621521 -0.6509168744087219 -0.11986933648586273
vn -0.27764567732810974 -0.9595881700515747 -0.04586252197623253
vn -0.6509360671043396 -0.7029963731765747 -0.2864931523799896
vn -0.2079223394393921 -0.944903552532196 -0.25283506512641907
vn -0.9308364987373352 -0.27546390891075134 -0.2401314377784729
vn -0.9860212206840515 -0.0339709147810936 -0.16312000155448914
vn -0.9400008916854858 0.3367761969566345 -0.05459024757146835
vn -0.6193369626998901 0.7818139791488647 0.07203252613544464
vn -0.22593377530574799 0.8930012583732605 0.3892335295677185
vn 0.013194983825087547 0.737937867641449 0.67473965883255
vn 0.1436874270439148 0.6029380559921265 0.7847417593002319
vn -0.1779099702835083 0.253172904253006 0.9509214162826538
vn -0.05885747820138931 0.10690682381391525 0.9925254583358765
vn 0.03486879914999008 -0.11695058643817902 0.9925254583358765
vn 0.47054699063301086 -0.11926089972257614 0.87427818775177
vn 0.43789711594581604 0.34886717796325684 0.8285757899284363
vn 0.386464387178421 0.7900731563568115 0.4758462607860565
vn 0.19648189842700958 0.911679208278656 0.36088213324546814
vn -0.0622621588408947 0.9824123382568359 0.1760382205247879
vn -0.8791400194168091 -0.2860470414161682 -0.3811691105365753
vn 0.7783294916152954 -0.06030966341495514 0.6249527335166931
vn 0.6233661770820618 0.5208792686462402 0.5831804275512695
vn 0.46569570899009705 0.8267329335212708 0.31565824151039124
vn 0.22078968584537506 0.943105161190033 0.24860523641109467
vn 0.9230882525444031 -0.07539310306310654 0.37712597846984863
vn 0.9888057708740234 -0.06788288801908493 0.1328723281621933
vn 0.8318980932235718 0.38745781779289246 0.3972681760787964
vn 0.8044576048851013 0.5602156519889832 0.1975002884864807
vn 0.9629004001617432 -0.15785950422286987 -0.21886809170246124
vn 0.8666790127754211 -0.4024030864238739 -0.2948545813560486
vn 0.6882332563400269 -0.6628693342208862 -0.2948545813560486
vn 0.26123183965682983 -0.9457408785820007 -0.19321508705615997
vn 0.29680076241493225 -0.8890268802642822 -0.34862664341926575
vn -0.09982454031705856 -0.891987681388855 -0.4409002661705017
vn 0.34816768765449524 -0.7689945101737976 -0.5361219048500061
vn -0.1352073699235916 -0.7716295719146729 -0.6215357780456543
vn 0.01888393424451351 -0.6465936899185181 -0.762600839138031
vn -0.412285715341568 -0.41495946049690247 -0.8110666871070862
vn -0.555029571056366 -0.4909365475177765 -0.6715083718299866
vn -0.6744480729103088 -0.5478577017784119 -0.4949462115764618
vn -0.8320087790489197 -0.1279522180557251 -0.5398051738739014
vn -0.8962149620056152 -0.04904760792851448 -0.4409002661705017
vn -0.9086803197860718 0.2825479805469513 -0.30735430121421814
vn -0.5942781567573547 0.7884247899055481 -0.15880759060382843
vn -0.037743259221315384 0.9990940093994141 0.01966099627315998
vn 0.3257297873497009 0.9341451525688171 0.1458524912595749
vn 0.5205003619194031 0.8286247253417969 0.2060592919588089
vn 0.5787654519081116 0.8139458298683167 -0.05022686347365379
vn 0.3169960081577301 0.9463112354278564 -0.0633138045668602
vn 0.09421879053115845 0.9782807230949402 -0.18463370203971863
vn -0.39179882407188416 0.8595722913742065 -0.3280687630176544
vn -0.8280490636825562 0.3700482249259949 -0.42118772864341736
vn -0.8509613871574402 -0.015105394646525383 -0.5250110030174255
vn -0.7350131273269653 -0.011338600888848305 -0.677958071231842
vn -0.7205004692077637 -0.09041126072406769 -0.6875353455543518
vn -0.5952349305152893 0.018895087763667107 -0.8033295273780823
vn -0.5489159226417542 0.007563944440335035 -0.8358433246612549
vn -0.7350082993507385 0.26305288076400757 -0.6249527335166931
vn -0.30288881063461304 0.7953752279281616 -0.5250110030174255
vn 0.052821896970272064 0.9357720613479614 -0.34862664341926575
vn 0.40949547290802 0.8702222108840942 -0.27391019463539124
vn 0.6653442978858948 0.6840320825576782 -0.2990269064903259
vn 0.9082897901535034 0.4032946825027466 -0.1111890971660614
vn 0.9250920414924622 0.2755673825740814 -0.2612801790237427
vn 0.8895888924598694 -0.23901647329330444 -0.3892335295677185
vn 0.844028890132904 0.2750362753868103 -0.46040233969688416
vn 0.6221596598625183 0.5527384877204895 -0.5544344186782837
vn 0.5432948470115662 0.6207026839256287 -0.5652954578399658
vn 0.6356253027915955 0.20096242427825928 -0.7453821301460266
vn 0.7856317162513733 -0.21637290716171265 -0.5796254277229309
vn 0.1943228840827942 0.7446848154067993 -0.6385006904602051
vn -0.11088457703590393 0.616768479347229 -0.7792953848838806
vn -0.5215532779693604 0.248768150806427 -0.8161473870277405
vn -0.23847107589244843 0.1471322476863861 -0.9599394202232361
vn -0.3547419011592865 0.00377795472741127 -0.9349566102027893
vn 0.4594056010246277 0.32629692554473877 -0.8261215686798096
vn 0.19282737374305725 0.4371253252029419 -0.8784868121147156
vn 0.024517560377717018 0.3415975868701935 -0.9395264387130737
vn 0.7186893224716187 -0.045291781425476074 -0.6938546895980835
vn 0.8258402347564697 -0.22388896346092224 -0.5175535082817078
vn 0.8672094345092773 -0.2893129885196686 -0.405272513628006
vn 0.7395808696746826 -0.498145192861557 -0.45262736082077026
vn 0.7077134251594543 -0.37734371423721313 -0.5972883701324463
vn 0.34038257598876953 -0.5769657492637634 -0.7424622178077698
vn 0.7099969387054443 -0.12029128521680832 -0.6938546895980835
vn 0.5544588565826416 0.14954571425914764 -0.8186644315719604
vn 0.1748432070016861 0.24000848829746246 -0.9548956751823425
vn -0.15423984825611115 0.08029218763113022 -0.9847655892372131
vn -0.1583530604839325 0.09069451689720154 -0.983208417892456
vn 0.06637780368328094 0.09719724208116531 -0.9930492043495178
vn 0.3661174476146698 0.06028640642762184 -0.9286137819290161
vn 0.3195023536682129 -0.2713877260684967 -0.9078915119171143
vn 8.965740747480383e-14 -0.2885856032371521 -0.9574540853500366
vn -0.3869253396987915 0.015107817947864532 -0.9219872951507568
vn -0.34508582949638367 0.14702734351158142 -0.926983654499054
vt 0.18003205955028534 0.805900514125824
vt 0.10452623665332794 0.6707940101623535
vt 0.15029102563858032 0.717248260974884
vt 0.07648468762636185 0.5686432719230652
vt 0.07077926397323608 0.6926834583282471
vt 0.02404334396123886 0.5035830140113831
vt 0.08765275031328201 0.45943930745124817
vt 0.05864006280899048 0.3938925862312317
vt 0.0019499999471008778 0.331264466047287
vt 0.050264015793800354 0.3163066804409027
vt 0.050385408103466034 0.1953067183494568
vt 0.09942777454853058 0.23154591023921967
vt 0.18245990574359894 0.14763638377189636
vt 0.1491985023021698 0.0951017290353775
vt 0.2818799614906311 0.09315600246191025
vt 0.28357943892478943 0.029068583622574806
vt 0.3993874192237854 0.0019499999471008778
vt 0.36139172315597534 0.07953590154647827
vt 0.4208737909793854 0.07479318976402283
vt 0.4938303828239441 0.00876004807651043
vt 0.47465044260025024 0.08075198531150818
vt 0.5831748843193054 0.03794596716761589
vt 0.5317046642303467 0.0924263522028923
vt 0.6790745854377747 0.10033087432384491
vt 0.7952467203140259 0.210994154214859
vt 0.5794117450714111 0.12939518690109253
vt 0.6151009798049927 0.1737821102142334
vt 0.48314788937568665 0.18813185393810272
vt 0.44236016273498535 0.15882432460784912
vt 0.400601327419281 0.14690673351287842
vt 0.3653976619243622 0.1403399109840393
vt 0.33165067434310913 0.14252884685993195
vt 0.29134851694107056 0.1456906497478485
vt 0.23587238788604736 0.16490471363067627
vt 0.1661933809518814 0.22242529690265656
vt 0.10270535945892334 0.304632306098938
vt 0.11800075322389603 0.3620312809944153
vt 0.16097351908683777 0.280067503452301
vt 0.21207955479621887 0.22145244479179382
vt 0.23356594145298004 0.2203579694032669
vt 0.18063902854919434 0.29830870032310486
vt 0.14203636348247528 0.3868393301963806
vt 0.11775796860456467 0.49142220616340637
vt 0.11860771477222443 0.6076794266700745
vt 0.19265682995319366 0.7454612851142883
vt 0.28115159273147583 0.8597728610038757
vt 0.22312621772289276 0.760175883769989
vt 0.14810596406459808 0.6259206533432007
vt 0.13790903985500336 0.504069447517395
vt 0.3758373558521271 0.8864049911499023
vt 0.3877337872982025 0.8671908974647522
vt 0.2497110664844513 0.7600542902946472
vt 0.16704311966896057 0.6335819363594055
vt 0.6008981466293335 0.8569758534431458
vt 0.45753416419029236 0.9189959168434143
vt 0.6251765489578247 0.8681637644767761
vt 0.6618369221687317 0.880932629108429
vt 0.5497921109199524 0.9431959390640259
vt 0.7259318828582764 0.8991737961769104
vt 0.6575881838798523 0.9633828401565552
vt 0.743533730506897 0.9980411529541016
vt 0.802044689655304 0.9289677739143372
vt 0.8145480751991272 0.8228039741516113
vt 0.8845912218093872 0.8490713238716125
vt 0.9577906131744385 0.7592030167579651
vt 0.8875046372413635 0.7386512756347656
vt 0.934968888759613 0.6588764190673828
vt 0.9221013784408569 0.6180161237716675
vt 0.9962718486785889 0.5499156713485718
vt 0.9116616249084473 0.5707105994224548
vt 0.9792770147323608 0.47330260276794434
vt 0.9960290789604187 0.645134687423706
vt 0.8558213114738464 0.7075195908546448
vt 0.7721822261810303 0.7990904450416565
vt 0.7525167465209961 0.7817004919052124
vt 0.84173983335495 0.6783336997032166
vt 0.9003722071647644 0.5248643755912781
vt 0.9472295045852661 0.39814886450767517
vt 0.8949095606803894 0.3101046681404114
vt 0.8770649433135986 0.48132872581481934
vt 0.8313001394271851 0.6532824635505676
vt 0.7377068996429443 0.7673507332801819
vt 0.7231398820877075 0.7509336471557617
vt 0.5858455300331116 0.8384914398193359
vt 0.8166117072105408 0.6284744143486023
vt 0.7984029054641724 0.5995317101478577
vt 0.8462313413619995 0.43596896529197693
vt 0.7740031480789185 0.5803176760673523
vt 0.812727153301239 0.42490261793136597
vt 0.7060235738754272 0.728557825088501
vt 0.5749202370643616 0.8167235851287842
vt 0.40776345133781433 0.8354512453079224
vt 0.2795735001564026 0.7533658146858215
vt 0.18598027527332306 0.6362573504447937
vt 0.15247608721256256 0.509784996509552
vt 0.1760261207818985 0.39875689148902893
vt 0.16279439628124237 0.39571669697761536
vt 0.20054730772972107 0.30098408460617065
vt 0.25966522097587585 0.21804741024971008
vt 0.2830938696861267 0.2176825851202011
vt 0.21960586309432983 0.3029297888278961
vt 0.1930210143327713 0.40240514278411865
vt 0.16849982738494873 0.5137980580329895
vt 0.2130506932735443 0.6351628303527832
vt 0.6901212334632874 0.7013176083564758
vt 0.30967873334884644 0.22096601128578186
vt 0.24133501946926117 0.3070644736289978
vt 0.21936307847499847 0.40775588154792786
vt 0.19508467614650726 0.5164734721183777
vt 0.3441540598869324 0.23130269348621368
vt 0.38518455624580383 0.2443147450685501
vt 0.27374669909477234 0.31302326917648315
vt 0.3122279644012451 0.32372477650642395
vt 0.423301637172699 0.26912277936935425
vt 0.5161665081977844 0.22899213433265686
vt 0.6284540891647339 0.23032982647418976
vt 0.7622280716896057 0.25598910450935364
vt 0.7289667129516602 0.30256497859954834
vt 0.776066780090332 0.4308614134788513
vt 0.7018962502479553 0.347316712141037
vt 0.7338223457336426 0.44484633207321167
vt 0.6931560635566711 0.459074467420578
vt 0.6825949549674988 0.5370252132415771
vt 0.7157349586486816 0.5513749718666077
vt 0.7470541000366211 0.5670623779296875
vt 0.6705771088600159 0.6707940101623535
vt 0.5697003602981567 0.7834029793739319
vt 0.4248797297477722 0.802617073059082
vt 0.3128349184989929 0.7336653470993042
vt 0.24691905081272125 0.6287176609039307
vt 0.23186644911766052 0.5169599056243896
vt 0.25675180554389954 0.41298502683639526
vt 0.29814648628234863 0.4189438223838806
vt 0.27071189880371094 0.5134332776069641
vt 0.28892070055007935 0.6144894957542419
vt 0.34257593750953674 0.7114110589027405
vt 0.44175320863723755 0.7668642997741699
vt 0.5631452202796936 0.7424210906028748
vt 0.5596248507499695 0.6971829533576965
vt 0.6513972282409668 0.6367437839508057
vt 0.6316102743148804 0.6040312051773071
vt 0.559503436088562 0.6570522785186768
vt 0.46190428733825684 0.7255175709724426
vt 0.3792363405227661 0.6795497536659241
vt 0.3368705213069916 0.5944241881370544
vt 0.3341999053955078 0.5051639080047607
vt 0.349616676568985 0.4230785071849823
vt 0.35289427638053894 0.3350343108177185
vt 0.39368197321891785 0.35181620717048645
vt 0.4547421634197235 0.30353784561157227
vt 0.42463693022727966 0.3738272786140442
vt 0.40885597467422485 0.4194302558898926
vt 0.4019366502761841 0.4911789894104004
vt 0.467609703540802 0.40751269459724426
vt 0.46979478001594543 0.35558605194091797
vt 0.3982948660850525 0.5662111043930054
vt 0.42172354459762573 0.6367437839508057
vt 0.4797489047050476 0.6676321625709534
vt 0.49540847539901733 0.6228804588317871
vt 0.5490637421607971 0.6056120991706848
vt 0.46360376477241516 0.4725729525089264
vt 0.459112286567688 0.5418895483016968
vt 0.4719798266887665 0.5933297276496887
vt 0.5259992480278015 0.3937709629535675
vt 0.5342538952827454 0.3375880718231201
vt 0.5327972173690796 0.27836498618125916
vt 0.6209278106689453 0.29064738750457764
vt 0.6067249178886414 0.3459790349006653
vt 0.6649931073188782 0.3914604187011719
vt 0.5797759294509888 0.40495890378952026
vt 0.5178660154342651 0.4574935734272003
vt 0.5223575234413147 0.5150141716003418
vt 0.5313405394554138 0.5596442818641663
vt 0.5948285460472107 0.5212161540985107
vt 0.5766197443008423 0.4847337603569031
vt 0.5602318048477173 0.4456976056098938
vt 0.6216561794281006 0.4402252435684204
vt 0.6469057202339172 0.48534178733825684
vt 0.6482409834861755 0.5265669226646423
vt 0.6076960563659668 0.5624412894248962
s on
f 1/1/1 2/2/2 3/3/3
f 3/3/3 2/2/2 4/4/4
f 2/2/2 5/5/5 4/4/4
f 5/5/5 6/6/6 4/4/4
f 4/4/4 6/6/6 7/7/7
f 7/7/7 6/6/6 8/8/8
f 6/6/6 9/9/9 8/8/8
f 8/8/8 9/9/9 10/10/10
f 9/9/9 11/11/11 10/10/10
f 10/10/10 11/11/11 12/12/12
f 12/12/12 11/11/11 13/13/13
f 11/11/11 14/14/14 13/13/13
f 13/13/13 14/14/14 15/15/15
f 14/14/14 16/16/16 15/15/15
f 16/16/16 17/17/17 15/15/15
f 15/15/15 17/17/17 18/18/18
f 18/18/18 17/17/17 19/19/19
f 17/17/17 20/20/20 19/19/19
f 19/19/19 20/20/20 21/21/21
f 20/20/20 22/22/22 21/21/21
f 21/21/21 22/22/22 23/23/23
f 22/22/22 24/24/24 23/23/23
f 24/24/24 25/25/25 23/23/23
f 23/23/23 25/25/25 26/26/26
f 25/25/25 27/27/27 26/26/26
f 27/27/27 28/28/28 26/26/26
f 28/28/28 29/29/29 26/26/26
f 26/26/26 29/29/29 23/23/23
f 29/29/29 30/30/30 23/23/23
f 30/30/30 31/31/31 23/23/23
f 23/23/23 31/31/31 21/21/21
f 21/21/21 31/31/31 19/19/19
f 31/31/31 32/32/32 19/19/19
f 32/32/32 33/33/33 19/19/19
f 19/19/19 33/33/33 18/18/18
f 18/18/18 33/33/33 15/15/15
f 33/33/33 34/34/34 15/15/15
f 15/15/15 34/34/34 13/13/13
f 34/34/34 35/35/35 13/13/13
f 13/13/13 35/35/35 12/12/12
f 35/35/35 36/36/36 12/12/12
f 12/12/12 36/36/36 10/10/10
f 10/10/10 36/36/36 8/8/8
f 36/36/36 37/37/37 8/8/8
f 8/8/8 37/37/37 7/7/7
f 2/2/2 1/1/1 5/5/5
f 37/37/37 36/36/36 38/38/38
f 36/36/36 35/35/35 38/38/38
f 35/35/35 34/34/34 38/38/38
f 38/38/38 34/34/34 39/39/39
f 34/34/34 40/40/40 39/39/39
f 40/40/40 41/41/41 39/39/39
f 39/39/39 41/41/41 38/38/38
f 38/38/38 41/41/41 37/37/37
f 41/41/41 42/42/42 37/37/37
f 37/37/37 42/42/42 7/7/7
f 42/42/42 43/43/43 7/7/7
f 7/7/7 43/43/43 4/4/4
f 43/43/43 44/44/44 4/4/4
f 4/4/4 44/44/44 3/3/3
f 44/44/44 45/45/45 3/3/3
f 3/3/3 45/45/45 46/46/46
f 46/46/46 45/45/45 47/47/47
f 47/47/47 45/45/45 48/48/48
f 45/45/45 44/44/44 48/48/48
f 48/48/48 44/44/44 49/49/49
f 44/44/44 43/43/43 49/49/49
f 49/49/49 43/43/43 42/42/42
f 40/40/40 34/34/34 33/33/33
f 3/3/3 46/46/46 1/1/1
f 46/46/46 47/47/47 50/50/50
f 50/50/50 47/47/47 51/51/51
f 51/51/51 47/47/47 52/52/52
f 52/52/52 47/47/47 53/53/53
f 47/47/47 48/48/48 53/53/53
f 53/53/53 48/48/48 49/49/49
f 51/51/51 54/54/54 50/50/50
f 50/50/50 54/54/54 55/55/55
f 54/54/54 56/56/56 55/55/55
f 56/56/56 57/57/57 55/55/55
f 55/55/55 57/57/57 58/58/58
f 57/57/57 59/59/59 58/58/58
f 58/58/58 59/59/59 60/60/60
f 60/60/60 59/59/59 61/61/61
f 61/61/61 59/59/59 62/62/62
f 59/59/59 63/63/63 62/62/62
f 62/62/62 63/63/63 64/64/64
f 64/64/64 63/63/63 65/65/65
f 63/63/63 66/66/66 65/65/65
f 65/65/65 66/66/66 67/67/67
f 66/66/66 68/68/68 67/67/67
f 67/67/67 68/68/68 69/69/69
f 68/68/68 70/70/70 69/69/69
f 69/69/69 70/70/70 71/71/71
f 65/65/65 67/67/67 72/72/72
f 72/72/72 67/67/67 69/69/69
f 70/70/70 68/68/68 73/73/73
f 68/68/68 66/66/66 73/73/73
f 66/66/66 63/63/63 73/73/73
f 73/73/73 63/63/63 74/74/74
f 63/63/63 59/59/59 74/74/74
f 59/59/59 57/57/57 74/74/74
f 57/57/57 56/56/56 74/74/74
f 56/56/56 75/75/75 74/74/74
f 74/74/74 75/75/75 73/73/73
f 75/75/75 76/76/76 73/73/73
f 73/73/73 76/76/76 70/70/70
f 76/76/76 77/77/77 70/70/70
f 70/70/70 77/77/77 71/71/71
f 71/71/71 77/77/77 78/78/78
f 78/78/78 77/77/77 79/79/79
f 79/79/79 77/77/77 80/80/80
f 80/80/80 77/77/77 81/81/81
f 77/77/77 76/76/76 81/81/81
f 76/76/76 75/75/75 81/81/81
f 81/81/81 75/75/75 82/82/82
f 75/75/75 56/56/56 82/82/82
f 56/56/56 54/54/54 82/82/82
f 82/82/82 54/54/54 83/83/83
f 83/83/83 54/54/54 84/84/84
f 54/54/54 51/51/51 84/84/84
f 83/83/83 85/85/85 82/82/82
f 82/82/82 85/85/85 81/81/81
f 81/81/81 85/85/85 80/80/80
f 85/85/85 86/86/86 80/80/80
f 80/80/80 86/86/86 87/87/87
f 86/86/86 88/88/88 87/87/87
f 88/88/88 89/89/89 87/87/87
f 89/89/89 25/25/25 87/87/87
f 25/25/25 79/79/79 87/87/87
f 87/87/87 79/79/79 80/80/80
f 85/85/85 83/83/83 86/86/86
f 86/86/86 83/83/83 90/90/90
f 90/90/90 83/83/83 91/91/91
f 83/83/83 84/84/84 91/91/91
f 84/84/84 51/51/51 91/91/91
f 91/91/91 51/51/51 92/92/92
f 92/92/92 51/51/51 93/93/93
f 51/51/51 52/52/52 93/93/93
f 93/93/93 52/52/52 94/94/94
f 52/52/52 53/53/53 94/94/94
f 94/94/94 53/53/53 95/95/95
f 53/53/53 49/49/49 95/95/95
f 95/95/95 49/49/49 96/96/96
f 49/49/49 97/97/97 96/96/96
f 96/96/96 97/97/97 98/98/98
f 97/97/97 42/42/42 98/98/98
f 42/42/42 41/41/41 98/98/98
f 41/41/41 40/40/40 98/98/98
f 98/98/98 40/40/40 99/99/99
f 40/40/40 33/33/33 99/99/99
f 33/33/33 32/32/32 99/99/99
f 32/32/32 31/31/31 99/99/99
f 99/99/99 31/31/31 100/100/100
f 31/31/31 30/30/30 100/100/100
f 49/49/49 42/42/42 97/97/97
f 99/99/99 100/100/100 98/98/98
f 100/100/100 101/101/101 98/98/98
f 98/98/98 101/101/101 96/96/96
f 101/101/101 102/102/102 96/96/96
f 96/96/96 102/102/102 95/95/95
f 102/102/102 103/103/103 95/95/95
f 95/95/95 103/103/103 94/94/94
f 103/103/103 104/104/104 94/94/94
f 94/94/94 104/104/104 93/93/93
f 88/88/88 86/86/86 105/105/105
f 105/105/105 86/86/86 90/90/90
f 100/100/100 106/106/106 101/101/101
f 106/106/106 107/107/107 101/101/101
f 101/101/101 107/107/107 102/102/102
f 107/107/107 108/108/108 102/102/102
f 102/102/102 108/108/108 103/103/103
f 108/108/108 109/109/109 103/103/103
f 103/103/103 109/109/109 104/104/104
f 100/100/100 30/30/30 106/106/106
f 30/30/30 29/29/29 106/106/106
f 106/106/106 29/29/29 110/110/110
f 29/29/29 111/111/111 110/110/110
f 110/110/110 111/111/111 112/112/112
f 111/111/111 113/113/113 112/112/112
f 113/113/113 108/108/108 112/112/112
f 108/108/108 107/107/107 112/112/112
f 107/107/107 106/106/106 112/112/112
f 112/112/112 106/106/106 110/110/110
f 29/29/29 28/28/28 111/111/111
f 111/111/111 28/28/28 114/114/114
f 114/114/114 28/28/28 115/115/115
f 28/28/28 27/27/27 115/115/115
f 115/115/115 27/27/27 116/116/116
f 27/27/27 117/117/117 116/116/116
f 116/116/116 117/117/117 118/118/118
f 117/117/117 119/119/119 118/118/118
f 118/118/118 119/119/119 120/120/120
f 119/119/119 121/121/121 120/120/120
f 120/120/120 121/121/121 122/122/122
f 122/122/122 121/121/121 123/123/123
f 123/123/123 121/121/121 124/124/124
f 121/121/121 119/119/119 124/124/124
f 124/124/124 119/119/119 125/125/125
f 119/119/119 89/89/89 125/125/125
f 89/89/89 88/88/88 125/125/125
f 88/88/88 105/105/105 125/125/125
f 125/125/125 105/105/105 126/126/126
f 126/126/126 105/105/105 127/127/127
f 105/105/105 90/90/90 127/127/127
f 90/90/90 91/91/91 127/127/127
f 127/127/127 91/91/91 128/128/128
f 91/91/91 92/92/92 128/128/128
f 92/92/92 93/93/93 128/128/128
f 128/128/128 93/93/93 129/129/129
f 129/129/129 93/93/93 130/130/130
f 93/93/93 104/104/104 130/130/130
f 104/104/104 109/109/109 130/130/130
f 130/130/130 109/109/109 131/131/131
f 109/109/109 108/108/108 131/131/131
f 131/131/131 108/108/108 132/132/132
f 108/108/108 113/113/113 132/132/132
f 113/113/113 133/133/133 132/132/132
f 132/132/132 133/133/133 131/131/131
f 133/133/133 134/134/134 131/131/131
f 131/131/131 134/134/134 130/130/130
f 134/134/134 135/135/135 130/130/130
f 135/135/135 136/136/136 130/130/130
f 130/130/130 136/136/136 129/129/129
f 136/136/136 137/137/137 129/129/129
f 129/129/129 137/137/137 128/128/128
f 137/137/137 138/138/138 128/128/128
f 128/128/128 138/138/138 127/127/127
f 127/127/127 138/138/138 126/126/126
f 138/138/138 139/139/139 126/126/126
f 139/139/139 140/140/140 126/126/126
f 126/126/126 140/140/140 125/125/125
f 125/125/125 140/140/140 124/124/124
f 140/140/140 141/141/141 124/124/124
f 124/124/124 141/141/141 123/123/123
f 27/27/27 25/25/25 117/117/117
f 25/25/25 89/89/89 117/117/117
f 117/117/117 89/89/89 119/119/119
f 116/116/116 118/118/118 120/120/120
f 141/141/141 140/140/140 142/142/142
f 140/140/140 139/139/139 142/142/142
f 142/142/142 139/139/139 143/143/143
f 139/139/139 138/138/138 143/143/143
f 138/138/138 137/137/137 143/143/143
f 137/137/137 136/136/136 143/143/143
f 143/143/143 136/136/136 144/144/144
f 144/144/144 136/136/136 145/145/145
f 136/136/136 135/135/135 145/145/145
f 145/145/145 135/135/135 146/146/146
f 135/135/135 134/134/134 146/146/146
f 134/134/134 133/133/133 146/146/146
f 146/146/146 133/133/133 147/147/147
f 133/133/133 148/148/148 147/147/147
f 147/147/147 148/148/148 149/149/149
f 148/148/148 114/114/114 149/149/149
f 149/149/149 114/114/114 150/150/150
f 114/114/114 115/115/115 150/150/150
f 133/133/133 113/113/113 148/148/148
f 113/113/113 111/111/111 148/148/148
f 148/148/148 111/111/111 114/114/114
f 150/150/150 151/151/151 149/149/149
f 149/149/149 151/151/151 147/147/147
f 151/151/151 152/152/152 147/147/147
f 147/147/147 152/152/152 153/153/153
f 153/153/153 152/152/152 154/154/154
f 152/152/152 151/151/151 154/154/154
f 154/154/154 151/151/151 155/155/155
f 151/151/151 150/150/150 155/155/155
f 147/147/147 153/153/153 146/146/146
f 153/153/153 156/156/156 146/146/146
f 146/146/146 156/156/156 145/145/145
f 145/145/145 156/156/156 144/144/144
f 156/156/156 157/157/157 144/144/144
f 144/144/144 157/157/157 158/158/158
f 157/157/157 159/159/159 158/158/158
f 159/159/159 160/160/160 158/158/158
f 160/160/160 142/142/142 158/158/158
f 142/142/142 143/143/143 158/158/158
f 158/158/158 143/143/143 144/144/144
f 153/153/153 161/161/161 156/156/156
f 161/161/161 162/162/162 156/156/156
f 156/156/156 162/162/162 157/157/157
f 162/162/162 163/163/163 157/157/157
f 157/157/157 163/163/163 159/159/159
f 153/153/153 154/154/154 161/161/161
f 161/161/161 154/154/154 164/164/164
f 154/154/154 155/155/155 164/164/164
f 164/164/164 155/155/155 165/165/165
f 155/155/155 150/150/150 165/165/165
f 165/165/165 150/150/150 166/166/166
f 150/150/150 115/115/115 166/166/166
f 115/115/115 116/116/116 166/166/166
f 166/166/166 116/116/116 167/167/167
f 116/116/116 120/120/120 167/167/167
f 167/167/167 120/120/120 168/168/168
f 168/168/168 120/120/120 169/169/169
f 120/120/120 122/122/122 169/169/169
f 167/167/167 168/168/168 166/166/166
f 166/166/166 168/168/168 165/165/165
f 168/168/168 170/170/170 165/165/165
f 165/165/165 170/170/170 164/164/164
f 170/170/170 171/171/171 164/164/164
f 164/164/164 171/171/171 161/161/161
f 171/171/171 172/172/172 161/161/161
f 161/161/161 172/172/172 162/162/162
f 162/162/162 172/172/172 163/163/163
f 172/172/172 173/173/173 163/163/163
f 163/163/163 173/173/173 159/159/159
f 159/159/159 173/173/173 160/160/160
f 160/160/160 173/173/173 174/174/174
f 174/174/174 173/173/173 175/175/175
f 173/173/173 172/172/172 175/175/175
f 175/175/175 172/172/172 176/176/176
f 172/172/172 171/171/171 176/176/176
f 171/171/171 170/170/170 176/176/176
f 176/176/176 170/170/170 177/177/177
f 170/170/170 168/168/168 177/177/177
f 168/168/168 169/169/169 177/177/177
f 177/177/177 169/169/169 178/178/178
f 169/169/169 122/122/122 178/178/178
f 122/122/122 123/123/123 178/178/178
f 178/178/178 123/123/123 179/179/179
f 123/123/123 141/141/141 179/179/179
f 141/141/141 180/180/180 179/179/179
f 179/179/179 180/180/180 178/178/178
f 180/180/180 174/174/174 178/178/178
f 178/178/178 174/174/174 177/177/177
f 174/174/174 175/175/175 177/177/177
f 177/177/177 175/175/175 176/176/176
f 174/174/174 180/180/180 160/160/160
f 160/160/160 180/180/180 142/142/142
f 180/180/180 141/141/141 142/142/142

