# Exported by Sketchfab Model Ripper robust edition
o model_9
v 0.03714076802134514 -0.6704965829849243 -0.308610737323761
v 0.03050244227051735 -0.6742215752601624 -0.3095254600048065
v 0.041779596358537674 -0.676718533039093 -0.30769601464271545
v 0.03970012068748474 -0.6814668774604797 -0.3080314099788666
v 0.05125720053911209 -0.6829404830932617 -0.30626291036605835
v 0.03746068477630615 -0.6866245269775391 -0.3089156448841095
v 0.05165709927678108 -0.6882619261741638 -0.3077569901943207
v 0.0358210988342762 -0.6903904676437378 -0.31095853447914124
v 0.05173708125948906 -0.6919869184494019 -0.31071460247039795
v 0.06525366753339767 -0.6831451654434204 -0.30787894129753113
v 0.0669732317328453 -0.6866245269775391 -0.30992183089256287
v 0.05165709927678108 -0.6946885585784912 -0.3148308992385864
v 0.026143543422222137 -0.6774144172668457 -0.3108365833759308
v 0.024903856217861176 -0.6625553369522095 -0.3097389042377472
v 0.06793298572301865 -0.6889986991882324 -0.3142210841178894
v 0.07885023206472397 -0.6763091683387756 -0.3122391700744629
v 0.08076974749565125 -0.6782740354537964 -0.31653839349746704
v 0.06797298043966293 -0.6902676820755005 -0.32071566581726074
v 0.08160953223705292 -0.6796658039093018 -0.32291099429130554
v 0.0901273861527443 -0.6647248864173889 -0.3175750970840454
v 0.09184695035219193 -0.6655026078224182 -0.32510635256767273
v 0.0809297040104866 -0.6797066926956177 -0.33047276735305786
v 0.0666133239865303 -0.6896945834159851 -0.3283993899822235
v 0.050577372312545776 -0.6975129842758179 -0.32849085330963135
v 0.05129719153046608 -0.6966943144798279 -0.3211120367050171
v 0.033341724425554276 -0.6951388120651245 -0.31986191868782043
v 0.0343414731323719 -0.6932149529457092 -0.31437352299690247
v 0.021384745836257935 -0.6810575127601624 -0.31486138701438904
v 0.023264270275831223 -0.6797885894775391 -0.3119037449359894
v 0.01710582710802555 -0.6640290021896362 -0.3123306334018707
v 0.01974515989422798 -0.6637015342712402 -0.3103487193584442
v 0.01666593737900257 -0.6482694149017334 -0.3094644844532013
v 0.019145311787724495 -0.6490880846977234 -0.30766549706459045
v 0.01574617065489292 -0.6640699505805969 -0.31541022658348083
v 0.020105069503188133 -0.6815487146377563 -0.3199838697910309
v 0.014466493390500546 -0.6637015342712402 -0.32074615359306335
v 0.012267048470675945 -0.6629647016525269 -0.32849085330963135
v 0.019265281036496162 -0.6810575127601624 -0.3278810381889343
v 0.011987118981778622 -0.6620232462882996 -0.33763816952705383
v 0.019305270165205002 -0.6796248555183411 -0.33711981773376465
v 0.015946120023727417 -0.6605086922645569 -0.3483709990978241
v 0.021784644573926926 -0.6765957474708557 -0.34739527106285095
v 0.02694334089756012 -0.672993540763855 -0.3575792908668518
v 0.024623926728963852 -0.6578069925308228 -0.35852450132369995
v 0.02506381645798683 -0.64397132396698 -0.3559327721595764
v 0.015706179663538933 -0.6443397402763367 -0.3475172519683838
v 0.01206709910184145 -0.6446672081947327 -0.33605262637138367
v 0.011667200364172459 -0.6451993584632874 -0.3266918957233429
v 0.013706685043871403 -0.6463454961776733 -0.318642258644104
v 0.015306280925869942 -0.6474097967147827 -0.313001424074173
v 0.02202458493411541 -0.6342290639877319 -0.3133673369884491
v 0.02286437153816223 -0.6350067853927612 -0.30931201577186584
v 0.024543948471546173 -0.6364394426345825 -0.30705568194389343
v 0.03454142436385155 -0.6237908601760864 -0.31101951003074646
v 0.03482135385274887 -0.6226856708526611 -0.31547120213508606
v 0.03538120910525322 -0.6221125721931458 -0.32184383273124695
v 0.02162468433380127 -0.6336150169372559 -0.3196789622306824
v 0.04985755309462547 -0.6155222058296204 -0.3160810172557831
v 0.09184695035219193 -0.6661575436592102 -0.3335828483104706
v 0.05033743381500244 -0.6137210726737976 -0.32263660430908203
v 0.06953258812427521 -0.618510365486145 -0.32376477122306824
v 0.06945260614156723 -0.6192881464958191 -0.3328815698623657
v 0.08516863733530045 -0.6312408447265625 -0.3234293460845947
v 0.06873279064893723 -0.6199021339416504 -0.3164469301700592
v 0.0838489681482315 -0.6321004629135132 -0.31602004170417786
v 0.06713318824768066 -0.6224400401115417 -0.31205621361732483
v 0.0493776760995388 -0.6183056831359863 -0.3117208182811737
v 0.0490177683532238 -0.6219897866249084 -0.3091595768928528
v 0.034701380878686905 -0.6262469291687012 -0.3085802495479584
v 0.028023069724440575 -0.6386498808860779 -0.30678126215934753
v 0.02422402799129486 -0.6498658061027527 -0.30790942907333374
v 0.03258191794157028 -0.6505207419395447 -0.3087022006511688
v 0.03322175517678261 -0.6609589457511902 -0.3086717128753662
v 0.04565861448645592 -0.6675083637237549 -0.3080314099788666
v 0.05073733255267143 -0.6145806908607483 -0.3317534029483795
v 0.04237944260239601 -0.6590350270271301 -0.3092510402202606
v 0.042579393833875656 -0.6504389047622681 -0.3097084164619446
v 0.045258715748786926 -0.6419655680656433 -0.309220552444458
v 0.03522125259041786 -0.6412696838378906 -0.30793991684913635
v 0.039140261709690094 -0.6344336867332458 -0.3077569901943207
v 0.03622099757194519 -0.6302993893623352 -0.30742159485816956
v 0.04857787862420082 -0.6269837021827698 -0.30848875641822815
v 0.06509370356798172 -0.6257966160774231 -0.30955594778060913
v 0.07813041657209396 -0.6363576054573059 -0.30854976177215576
v 0.08132960647344589 -0.6340652704238892 -0.3110805153846741
v 0.04909774661064148 -0.6575614213943481 -0.3108670711517334
v 0.06265432387590408 -0.6302993893623352 -0.30848875641822815
v 0.08848779648542404 -0.6487606167793274 -0.3116293251514435
v 0.09180696308612823 -0.64835125207901 -0.31632494926452637
v 0.09352652728557587 -0.6480647325515747 -0.3242526054382324
v 0.09296666830778122 -0.648514986038208 -0.33321696519851685
v 0.08480872958898544 -0.6316502094268799 -0.33321696519851685
v 0.08304917067289352 -0.6338606476783752 -0.34297409653663635
v 0.06857282668352127 -0.622726559638977 -0.34205934405326843
v 0.0508573018014431 -0.6195337176322937 -0.34047383069992065
v 0.03590108081698418 -0.6228494048118591 -0.3292531371116638
v 0.020944856107234955 -0.6327553987503052 -0.32766759395599365
v 0.02158469520509243 -0.6321823596954346 -0.33708932995796204
v 0.024463968351483345 -0.6328372955322266 -0.3472733199596405
v 0.03610102832317352 -0.6242411136627197 -0.33794307708740234
v 0.036500927060842514 -0.6268199682235718 -0.3475172519683838
v 0.027183281257748604 -0.6344336867332458 -0.35486558079719543
v 0.02506381645798683 -0.64397132396698 -0.3559327721595764
v 0.03478136286139488 -0.6419246196746826 -0.3614821135997772
v 0.03678085654973984 -0.6328372955322266 -0.355353444814682
v 0.05089729279279709 -0.6264515519142151 -0.34739527106285095
v 0.06633339077234268 -0.6286619901657104 -0.3506578207015991
v 0.07973001152276993 -0.6378721594810486 -0.3516640365123749
v 0.08732809126377106 -0.6516669392585754 -0.35151156783103943
v 0.09088718891143799 -0.6499477028846741 -0.34236428141593933
v 0.07429138571023941 -0.643643856048584 -0.35800614953041077
v 0.0625743418931961 -0.6354161500930786 -0.3587379455566406
v 0.049337685108184814 -0.6331647634506226 -0.35550588369369507
v 0.04673834145069122 -0.6414743661880493 -0.36245784163475037
v 0.05805548280477524 -0.6431117057800293 -0.365384966135025
v 0.05445639416575432 -0.6505616903305054 -0.36742785573005676
v 0.067013218998909 -0.6504798531532288 -0.3625797927379608
v 0.03454142436385155 -0.6549416184425354 -0.363707959651947
v 0.045698605477809906 -0.6519944071769714 -0.36608627438545227
v 0.03666088730096817 -0.6686545014381409 -0.36264076828956604
v 0.047498151659965515 -0.6627190709114075 -0.366452157497406
v 0.05833541229367256 -0.6563743352890015 -0.3686780035495758
v 0.06249436363577843 -0.6629647016525269 -0.36492761969566345
v 0.05125720053911209 -0.6704965829849243 -0.3634335398674011
v 0.04077984765172005 -0.6776599884033203 -0.3635860085487366
v 0.02694334089756012 -0.672993540763855 -0.3575792908668518
v 0.024623926728963852 -0.6578069925308228 -0.35852450132369995
v 0.047538138926029205 -0.6821627616882324 -0.3606283664703369
v 0.05581605061888695 -0.676718533039093 -0.35876843333244324
v 0.05973505973815918 -0.6823674440383911 -0.3534325063228607
v 0.067013218998909 -0.6691457629203796 -0.3600185513496399
v 0.03478136286139488 -0.6856012344360352 -0.35578030347824097
v 0.047578129917383194 -0.6893671154975891 -0.35495704412460327
v 0.03238196671009064 -0.6912091374397278 -0.34599268436431885
v 0.021784644573926926 -0.6765957474708557 -0.34739527106285095
v 0.019305270165205002 -0.6796248555183411 -0.33711981773376465
v 0.0317821204662323 -0.6941154599189758 -0.336906373500824
v 0.0325019396841526 -0.6952616572380066 -0.3280639946460724
v 0.019265281036496162 -0.6810575127601624 -0.3278810381889343
v 0.020105069503188133 -0.6815487146377563 -0.3199838697910309
v 0.04941766709089279 -0.6969808340072632 -0.3367234468460083
v 0.04861786589026451 -0.6948522925376892 -0.3458402454853058
v 0.06245437264442444 -0.6862152218818665 -0.34547436237335205
v 0.07193198055028915 -0.6742624640464783 -0.35431674122810364
v 0.07429138571023941 -0.6639471054077148 -0.36075034737586975
v 0.07269179075956345 -0.6574386358261108 -0.36239686608314514
v 0.08120963722467422 -0.6537545323371887 -0.3583720326423645
v 0.08124962449073792 -0.6657072901725769 -0.35654258728027344
v 0.07597096264362335 -0.6774962544441223 -0.3472733199596405
v 0.08656828105449677 -0.6665259599685669 -0.3502309322357178
v 0.089007668197155 -0.6661575436592102 -0.34184592962265015
v 0.07845032960176468 -0.6781103014945984 -0.338583379983902
v 0.06453384459018707 -0.6882619261741638 -0.3365100026130676
v 0.04945765435695648 -0.675613284111023 -0.30714717507362366
v 0.05869532376527786 -0.6716017723083496 -0.3078484535217285
v 0.06273430585861206 -0.6783968210220337 -0.30717766284942627
v 0.07217191904783249 -0.6706603169441223 -0.3077874779701233
v 0.07605093717575073 -0.673975944519043 -0.3091900646686554
v 0.08340907841920853 -0.6628828644752502 -0.3091900646686554
v 0.08724810928106308 -0.6639061570167542 -0.3122696578502655
v 0.08432884514331818 -0.649497389793396 -0.30940350890159607
v 0.0790901705622673 -0.6503570079803467 -0.3081228733062744
v 0.06609345227479935 -0.6649295091629028 -0.30879366397857666
v 0.05941513925790787 -0.6576023697853088 -0.3091900646686554
v 0.05349663645029068 -0.6635786890983582 -0.30903759598731995
v 0.05189703777432442 -0.6518306732177734 -0.3100742995738983
v 0.0556160993874073 -0.6441760063171387 -0.30934250354766846
v 0.06401398032903671 -0.6503570079803467 -0.30879366397857666
v 0.07089224457740784 -0.6570702195167542 -0.30903759598731995
v 0.07805043458938599 -0.6612045168876648 -0.3080923855304718
v 0.07409143447875977 -0.6504389047622681 -0.3077569901943207
v 0.07393147796392441 -0.6393457651138306 -0.30800092220306396
v 0.059535108506679535 -0.6365213394165039 -0.3083972930908203
v 0.06889274716377258 -0.6437257528305054 -0.3081228733062744
v 0.04781806841492653 -0.6337378025054932 -0.3087022006511688
vn -0.10440661758184433 -0.007467308547347784 0.9945066571235657
vn -0.17429453134536743 -0.03704744949936867 0.9839963912963867
vn -0.11727931350469589 0.04707266762852669 0.9919826984405518
vn -0.18837478756904602 -0.051766298711299896 0.9807319641113281
vn -0.01963263750076294 -0.04859248176217079 0.9986256957054138
vn -0.2016017585992813 -0.23474499583244324 0.9509214162826538
vn 0.009406677447259426 -0.4466743767261505 0.8946471214294434
vn -0.2614228427410126 -0.5732612609863281 0.7765498161315918
vn 0.08650512993335724 -0.693182647228241 0.715552031993866
vn 0.23217487335205078 -0.29974719882011414 0.9253358840942383
vn 0.3562504053115845 -0.6497400403022766 0.6715083718299866
vn 0.12228807806968689 -0.9059800505638123 0.405272513628006
vn -0.2679501175880432 -0.1373700052499771 0.953589141368866
vn -0.07707718014717102 -0.08895181119441986 0.9930492043495178
vn 0.5080947279930115 -0.7820510864257812 0.36088213324546814
vn 0.6031565070152283 -0.4689529538154602 0.6452018022537231
vn 0.6925463080406189 -0.6445492506027222 0.3239381015300751
vn 0.4958585202693939 -0.8664000034332275 0.058952588587999344
vn 0.745983898639679 -0.6566163301467896 0.1111890971660614
vn 0.852584719657898 -0.35315215587615967 0.3852050006389618
vn 0.92572420835495 -0.3614853322505951 0.1111890971660614
vn 0.6585342884063721 -0.7306236624717712 -0.18033768236637115
vn 0.4835999310016632 -0.8527160882949829 -0.1975002884864807
vn 0.20240981876850128 -0.9788891077041626 -0.028397228568792343
vn 0.07921096682548523 -0.9848135709762573 0.15449213981628418
vn -0.3593372404575348 -0.9081974029541016 0.21460255980491638
vn -0.4351116716861725 -0.7737619280815125 0.46040233969688416
vn -0.7330030798912048 -0.49714550375938416 0.4642767012119293
vn -0.5746378898620605 -0.30421245098114014 0.7597671151161194
vn -0.6690923571586609 -0.2007504552602768 0.715552031993866
vn -0.341422975063324 -0.17396369576454163 0.9236704111099243
vn -0.8115959167480469 0.11651668697595596 0.5724822878837585
vn -0.17796702682971954 -0.09046798199415207 0.97986900806427
vn -0.9316388964653015 -0.18002447485923767 0.31565824151039124
vn -0.8399653434753418 -0.513292133808136 0.1760382205247879
vn -0.9594892263412476 -0.15406958758831024 0.23588760197162628
vn -0.978868842124939 -0.18388578295707703 0.08945280313491821
vn -0.8671136498451233 -0.49772214889526367 -0.01966099627315998
vn -0.9575580954551697 -0.22823897004127502 -0.1760382205247879
vn -0.8209712505340576 -0.5255658626556396 -0.22312943637371063
vn -0.8544750809669495 -0.13170209527015686 -0.5025205612182617
vn -0.780223548412323 -0.4475541412830353 -0.43697428703308105
vn -0.6241956949234009 -0.3065900206565857 -0.7185974717140198
vn -0.6368065476417542 0.0037818721029907465 -0.7710143327713013
vn -0.6241298913955688 0.14245358109474182 -0.7682244777679443
vn -0.8209677934646606 0.2639675438404083 -0.5062933564186096
vn -0.9421899914741516 0.29025065898895264 -0.16742929816246033
vn -0.9669502973556519 0.20604605972766876 0.15017375349998474
vn -0.9346237182617188 0.25010591745376587 0.25283506512641907
vn -0.9221854209899902 0.2643452286720276 0.28230419754981995
vn -0.753882110118866 0.6353181600570679 0.16742929816246033
vn -0.6944631934165955 0.6051596403121948 0.3892335295677185
vn -0.36998888850212097 0.30227336287498474 0.8784868121147156
vn -0.40366268157958984 0.7544499635696411 0.5175535082817078
vn -0.5687909126281738 0.8143277168273926 0.11553031951189041
vn -0.5492110252380371 0.8355437517166138 0.0152922747656703
vn -0.7536013126373291 0.6389188170433044 0.15449213981628418
vn -0.05843876302242279 0.9456807374954224 0.3198012113571167
vn 0.9420458674430847 -0.31164464354515076 -0.1242060661315918
vn -0.01510031707584858 0.9996926784515381 0.01966099627315998
vn 0.41187602281570435 0.9068386554718018 0.08945280313491821
vn 0.42008572816848755 0.8785347938537598 -0.22738653421401978
vn 0.7759130597114563 0.6280792355537415 0.058952588587999344
vn 0.460302472114563 0.8249197006225586 0.3280687630176544
vn 0.7019082903862 0.5714675188064575 0.42514660954475403
vn 0.3115747570991516 0.6525737047195435 0.6907016038894653
vn -0.011311312206089497 0.7320439219474792 0.681163489818573
vn 0.013174747116863728 0.434808611869812 0.9004265069961548
vn -0.11818534135818481 0.3344970941543579 0.9349566102027893
vn 0.04014737904071808 -0.03368765115737915 0.9986256957054138
vn 0.05969132110476494 -0.13070575892925262 0.9896226525306702
vn 0.06852200627326965 -0.06720591336488724 0.9953833818435669
vn -0.04131331294775009 0.014182877726852894 0.9990455508232117
vn 0.0037324668373912573 0.13065338134765625 0.991421103477478
vn -0.1987159699201584 0.9385181665420532 -0.28230419754981995
vn 0.10676009207963943 0.08958235383033752 0.9902410507202148
vn 0.07230954617261887 -0.048872724175453186 0.9961841106414795
vn 0.05659066513180733 -0.08805679529905319 0.9945066571235657
vn 0.11835841089487076 -0.10909057408571243 0.986960232257843
vn 0.10913219302892685 -0.06372156739234924 0.9919826984405518
vn 0.02211543545126915 0.11118180304765701 0.9935539960861206
vn 0.0325416661798954 0.08098305016756058 0.9961841106414795
vn 0.12620680034160614 0.2960952818393707 0.946783721446991
vn 0.26127421855926514 0.22141771018505096 0.9395264387130737
vn 0.5539572834968567 0.4648253321647644 0.6907016038894653
vn 0.016666516661643982 0.09452051669359207 0.9953833818435669
vn 0.029489878565073013 0.10043330490589142 0.9945066571235657
vn 0.7081890106201172 0.11254753172397614 0.6969945430755615
vn 0.9329808354377747 0.16514816880226135 0.3198012113571167
vn 0.989502489566803 0.13550686836242676 0.05022686347365379
vn 0.9648605585098267 0.20251309871673584 -0.16742929816246033
vn 0.7897495031356812 0.5849838852882385 -0.18463370203971863
vn 0.7036837935447693 0.5970312356948853 -0.3852050006389618
vn 0.35372450947761536 0.7960249781608582 -0.4911448359489441
vn -0.08676515519618988 0.8688942790031433 -0.48733407258987427
vn -0.49534350633621216 0.8428492546081543 -0.2103329300880432
vn -0.6851509809494019 0.7278472781181335 0.028397228568792343
vn -0.6480610966682434 0.7520958781242371 -0.11986933648586273
vn -0.6290351748466492 0.7290910482406616 -0.26970529556274414
vn -0.44235068559646606 0.8818830847740173 -0.16312000155448914
vn -0.23698244988918304 0.8491504788398743 -0.4719987213611603
vn -0.4914906620979309 0.5661624670028687 -0.661737859249115
vn -0.6241298913955688 0.14245358109474182 -0.7682244777679443
vn -0.2272871881723404 0.3936729431152344 -0.8907088041305542
vn -0.05092744156718254 0.7060444355010986 -0.7063339352607727
vn -0.02267277240753174 0.7551491260528564 -0.6551609039306641
vn 0.20496796071529388 0.709023654460907 -0.67473965883255
vn 0.5300793647766113 0.5541073679924011 -0.641857385635376
vn 0.8205865621566772 0.16515092551708221 -0.5471406579017639
vn 0.9261348247528076 0.22438357770442963 -0.30319350957870483
vn 0.4257577061653137 0.41640374064445496 -0.8033295273780823
vn 0.19166059792041779 0.6143276691436768 -0.7654199600219727
vn -0.041561610996723175 0.6846870183944702 -0.7276512384414673
vn -0.14999450743198395 0.42498525977134705 -0.8926864862442017
vn 0.11423942446708679 0.48353147506713867 -0.8678402304649353
vn -0.015157311223447323 0.2119269073009491 -0.9771679639816284
vn 0.3779087960720062 0.22327516973018646 -0.8985171914100647
vn -0.3537510633468628 0.06024176627397537 -0.933397650718689
vn -0.23163577914237976 0.09594667702913284 -0.9680594801902771
vn -0.2560847997665405 -0.11374059319496155 -0.9599394202232361
vn -0.10578920692205429 -0.2084568291902542 -0.9722933769226074
vn 0.22345520555973053 -0.05238509550690651 -0.9733054637908936
vn 0.24555175006389618 -0.31483739614486694 -0.916832447052002
vn 0.12361171096563339 -0.29718801379203796 -0.946783721446991
vn -0.21931932866573334 -0.29929161071777344 -0.9286137819290161
vn -0.6241956949234009 -0.3065900206565857 -0.7185974717140198
vn -0.6368065476417542 0.0037818721029907465 -0.7710143327713013
vn 0.20490729808807373 -0.5132214426994324 -0.8334367275238037
vn 0.3088853657245636 -0.46696043014526367 -0.8285757899284363
vn 0.4014357924461365 -0.6122626662254333 -0.681163489818573
vn 0.2796735167503357 -0.5297458171844482 -0.8007197380065918
vn -0.3437766432762146 -0.6759471297264099 -0.651853621006012
vn 0.23259638249874115 -0.7452066540718079 -0.6249527335166931
vn -0.5261725783348083 -0.7454167604446411 -0.40926313400268555
vn -0.780223548412323 -0.4475541412830353 -0.43697428703308105
vn -0.8209712505340576 -0.5255658626556396 -0.22312943637371063
vn -0.48881393671035767 -0.8516852855682373 -0.18892620503902435
vn -0.47136861085891724 -0.8818686604499817 -0.010923261754214764
vn -0.8671136498451233 -0.49772214889526367 -0.01966099627315998
vn -0.8399653434753418 -0.513292133808136 0.1760382205247879
vn 0.16712398827075958 -0.9622969031333923 -0.21460255980491638
vn 0.08484137803316116 -0.9011394381523132 -0.42514660954475403
vn 0.4843502938747406 -0.7835190296173096 -0.3892335295677185
vn 0.38860175013542175 -0.647883415222168 -0.6551609039306641
vn 0.3685745596885681 -0.3498511016368866 -0.8612531423568726
vn 0.31129810214042664 0.0377984344959259 -0.949560284614563
vn 0.5226786136627197 0.12733100354671478 -0.8429672718048096
vn 0.5965584516525269 -0.39236268401145935 -0.7001210451126099
vn 0.5636767148971558 -0.7327882647514343 -0.3811691105365753
vn 0.7970452308654785 -0.4209456741809845 -0.43303996324539185
vn 0.8707690834999084 -0.40257367491722107 -0.28230419754981995
vn 0.5862446427345276 -0.7593560218811035 -0.28230419754981995
vn 0.5068937540054321 -0.8100120425224304 -0.2948545813560486
vn -0.022180303931236267 0.10673747956752777 0.9940398335456848
vn 0.013003209605813026 0.12134326994419098 0.9925254583358765
vn 0.05413088575005531 0.028410080820322037 0.9981296062469482
vn 0.05630545690655708 0.007259785197675228 0.9983872175216675
vn 0.3673149347305298 -0.267801433801651 0.8907088041305542
vn 0.3865967094898224 -0.14026430249214172 0.9115201234817505
vn 0.7221987247467041 -0.26598086953163147 0.6385006904602051
vn 0.33950531482696533 0.04501292482018471 0.9395264387130737
vn 0.16026733815670013 0.014961598441004753 0.986960232257843
vn -0.016578061506152153 0.06785761564970016 0.9975572824478149
vn -0.07952897250652313 0.03594936057925224 0.9961841106414795
vn -0.049844857305288315 0.18000668287277222 0.9824016690254211
vn -0.06854644417762756 -0.07910680770874023 0.9945066571235657
vn -0.05170171707868576 -0.06483190506696701 0.9965559244155884
vn -0.06834679841995239 -0.038751062005758286 0.9969087839126587
vn -0.07848163694143295 -0.0036826597061008215 0.9969087839126587
vn 0.02239719219505787 -0.013620034791529179 0.9996563792228699
vn -0.053775470703840256 -0.044583484530448914 0.9975572824478149
vn 0.017523931339383125 0.03519279882311821 0.9992268681526184
vn -0.03769964724779129 -0.036406129598617554 0.9986256957054138
vn -0.059356916695833206 -0.014630165882408619 0.9981296062469482
vn 0.028410080820322037 -0.05413088575005531 0.9981296062469482
vt 0.622594952583313 0.33296698331832886
vt 0.6524075865745544 0.312171995639801
vt 0.6594959497451782 0.37832677364349365
vt 0.6898297667503357 0.39255490899086
vt 0.6757573485374451 0.44752171635627747
vt 0.7219356894493103 0.41444432735443115
vt 0.6967095732688904 0.4792613983154297
vt 0.7469533085823059 0.4348744750022888
vt 0.7122413516044617 0.5079609155654907
vt 0.6490719318389893 0.5114875435829163
vt 0.6561602354049683 0.538484513759613
vt 0.726105272769928 0.5390925407409668
vt 0.6828456521034241 0.29988959431648254
vt 0.5389944911003113 0.2620695233345032
vt 0.6613722443580627 0.5702241659164429
vt 0.5953882932662964 0.5589146614074707
vt 0.5939289331436157 0.5891950130462646
vt 0.6656460762023926 0.6123005747795105
vt 0.5898635983467102 0.6271367073059082
vt 0.5231500267982483 0.5916271805763245
vt 0.5109539031982422 0.6296904683113098
vt 0.5814201831817627 0.6706724166870117
vt 0.6543881893157959 0.6633759140968323
vt 0.7264180183410645 0.6464723944664001
vt 0.7302748560905457 0.5890734195709229
vt 0.7829160690307617 0.5195136666297913
vt 0.767280101776123 0.4633307456970215
vt 0.728815495967865 0.29064738750457764
vt 0.7062996625900269 0.29587653279304504
vt 0.5118920803070068 0.22668159008026123
vt 0.5245051383972168 0.24078811705112457
vt 0.3883676826953888 0.2522192597389221
vt 0.40869447588920593 0.2590292990207672
vt 0.49656879901885986 0.2123318463563919
vt 0.6602255702018738 0.2033328413963318
vt 0.44997352361679077 0.19676601886749268
vt 0.37627583742141724 0.17439013719558716
vt 0.5508778691291809 0.120517797768116
vt 0.28798454999923706 0.16344542801380157
vt 0.42693647742271423 0.06457812339067459
vt 0.1811385601758957 0.15700019896030426
vt 0.29590681195259094 0.03843240067362785
vt 0.18426576256752014 0.0019499999471008778
vt 0.07877487689256668 0.11492383480072021
vt 0.0019499999471008778 0.24492278695106506
vt 0.0656406432390213 0.33552074432373047
vt 0.16279232501983643 0.2739870846271515
vt 0.24743519723415375 0.25452980399131775
vt 0.31529542803764343 0.2485710233449936
vt 0.3603271245956421 0.24954389035701752
vt 0.2909032702445984 0.30536195635795593
vt 0.32092440128326416 0.3019569218158722
vt 0.3431275188922882 0.30134889483451843
vt 0.28277257084846497 0.3640986382961273
vt 0.2517090439796448 0.3773539066314697
vt 0.2078240066766739 0.39729762077331543
vt 0.2443079948425293 0.31715792417526245
vt 0.25942280888557434 0.434996098279953
vt 0.49417129158973694 0.6682402491569519
vt 0.22971439361572266 0.4641820192337036
vt 0.27954113483428955 0.5248643755912781
vt 0.24305711686611176 0.5629277229309082
vt 0.35198792815208435 0.569251298904419
vt 0.30924952030181885 0.49434077739715576
vt 0.37700551748275757 0.5381196737289429
vt 0.33072295784950256 0.4725729525089264
vt 0.2886100113391876 0.41979509592056274
vt 0.3135233521461487 0.40617498755455017
vt 0.30622655153274536 0.35546445846557617
vt 0.37002143263816833 0.3047539293766022
vt 0.4351714253425598 0.27325743436813354
vt 0.46800702810287476 0.29976800084114075
vt 0.5456658601760864 0.30110567808151245
vt 0.6017469763755798 0.3658011257648468
vt 0.19041591882705688 0.504555881023407
vt 0.5417047142982483 0.3406282663345337
vt 0.4836430251598358 0.3405066728591919
vt 0.4314188063144684 0.35607248544692993
vt 0.40754783153533936 0.32226547598838806
vt 0.37075111269950867 0.34755992889404297
vt 0.3370816111564636 0.34901922941207886
vt 0.34250208735466003 0.39255490899086
vt 0.35146671533584595 0.45603427290916443
vt 0.41140472888946533 0.49458399415016174
vt 0.3966026306152344 0.5140413045883179
vt 0.534929096698761 0.36932775378227234
vt 0.37596312165260315 0.43827950954437256
vt 0.46206536889076233 0.5452945232391357
vt 0.450390487909317 0.5713186264038086
vt 0.43256545066833496 0.6063417792320251
vt 0.412864089012146 0.6448915004730225
vt 0.3281169533729553 0.6093819737434387
vt 0.3077901601791382 0.6525527834892273
vt 0.22596175968647003 0.6092603802680969
vt 0.15038776397705078 0.5534422993659973
vt 0.16862976551055908 0.4351176917552948
vt 0.18311911821365356 0.339290589094162
vt 0.12578712403774261 0.3976624310016632
vt 0.06178376078605652 0.48777395486831665
vt 0.12443199753761292 0.485706627368927
vt 0.08972007781267166 0.5583065748214722
vt 0.04062303900718689 0.5984372496604919
vt 0.02686336077749729 0.6624030470848083
vt 0.10556455701589584 0.7386512756347656
vt 0.08544623851776123 0.6413648724555969
vt 0.1411104053258896 0.6137598752975464
vt 0.21251480281352997 0.6621598601341248
vt 0.2933008074760437 0.69706130027771
vt 0.37294015288352966 0.7243015170097351
vt 0.39451783895492554 0.6842924952507019
vt 0.28694215416908264 0.744123637676239
vt 0.2091791182756424 0.7210180759429932
vt 0.139963760972023 0.683319628238678
vt 0.15976935625076294 0.7640673518180847
vt 0.22231335937976837 0.7815788984298706
vt 0.24910303950309753 0.8293708562850952
vt 0.2933008074760437 0.7947125434875488
vt 0.2078240066766739 0.8840944170951843
vt 0.22992287576198578 0.8508954644203186
vt 0.404629111289978 0.939426064491272
vt 0.3412511944770813 0.8854321241378784
vt 0.3047671914100647 0.8386130332946777
vt 0.3689790368080139 0.842747688293457
vt 0.42224568128585815 0.8810542225837708
vt 0.4913567900657654 0.9165637493133545
vt 0.5201270580291748 0.9980411529541016
vt 0.2075112760066986 0.9340752959251404
vt 0.5282577872276306 0.878135621547699
vt 0.4890635311603546 0.8541788458824158
vt 0.5462912917137146 0.819155752658844
vt 0.433086633682251 0.8248713612556458
vt 0.6136302947998047 0.8871346116065979
vt 0.6003918647766113 0.8388562798500061
vt 0.7290239930152893 0.8068733811378479
vt 0.7276688814163208 0.896984875202179
vt 0.8502551317214966 0.7284361720085144
vt 0.7735344767570496 0.7026553153991699
vt 0.8009495735168457 0.6012341976165771
vt 0.8557798266410828 0.5514965653419495
vt 0.8041810393333435 0.39012274146080017
vt 0.7158897519111633 0.7110462188720703
vt 0.6730471253395081 0.7780522704124451
vt 0.600704550743103 0.7742823958396912
vt 0.48656174540519714 0.795077383518219
vt 0.40098071098327637 0.8024954795837402
vt 0.35365575551986694 0.7971447110176086
vt 0.35824233293533325 0.7604190707206726
vt 0.4280831217765808 0.7742823958396912
vt 0.5262771844863892 0.7585949897766113
vt 0.4501819908618927 0.7415698766708374
vt 0.47645047307014465 0.7076412439346313
vt 0.5557771325111389 0.7146944999694824
vt 0.6347910165786743 0.7170050144195557
vt 0.6421920657157898 0.41043126583099365
vt 0.609981894493103 0.43852272629737854
vt 0.634061336517334 0.4815719425678253
vt 0.5869448781013489 0.501272439956665
vt 0.5917398929595947 0.5317960381507874
vt 0.5340952277183533 0.5359307527542114
vt 0.5285704731941223 0.5609819889068604
vt 0.4708215296268463 0.5242563486099243
vt 0.4807243347167969 0.49981313943862915
vt 0.5669307708740234 0.45943930745124817
vt 0.5340952277183533 0.41590362787246704
vt 0.571204662322998 0.3974192142486572
vt 0.49938327074050903 0.3801508843898773
vt 0.45414310693740845 0.3954734802246094
vt 0.49146103858947754 0.43049660325050354
vt 0.522420346736908 0.46928954124450684
vt 0.5336782336235046 0.5088121294975281
vt 0.4856235980987549 0.47695085406303406
vt 0.42797887325286865 0.4750051200389862
vt 0.4104665517807007 0.41675490140914917
vt 0.4526837468147278 0.4527508616447449
vt 0.3826344907283783 0.3778403401374817
s on
f 1/1/1 2/2/2 3/3/3
f 2/2/2 4/4/4 3/3/3
f 3/3/3 4/4/4 5/5/5
f 4/4/4 6/6/6 5/5/5
f 5/5/5 6/6/6 7/7/7
f 6/6/6 8/8/8 7/7/7
f 8/8/8 9/9/9 7/7/7
f 7/7/7 9/9/9 10/10/10
f 10/10/10 9/9/9 11/11/11
f 11/11/11 9/9/9 12/12/12
f 9/9/9 8/8/8 12/12/12
f 10/10/10 5/5/5 7/7/7
f 4/4/4 2/2/2 13/13/13
f 13/13/13 2/2/2 14/14/14
f 2/2/2 1/1/1 14/14/14
f 4/4/4 13/13/13 6/6/6
f 13/13/13 8/8/8 6/6/6
f 12/12/12 15/15/15 11/11/11
f 15/15/15 16/16/16 11/11/11
f 11/11/11 16/16/16 10/10/10
f 16/16/16 15/15/15 17/17/17
f 17/17/17 15/15/15 18/18/18
f 15/15/15 12/12/12 18/18/18
f 18/18/18 19/19/19 17/17/17
f 19/19/19 20/20/20 17/17/17
f 17/17/17 20/20/20 16/16/16
f 20/20/20 19/19/19 21/21/21
f 21/21/21 19/19/19 22/22/22
f 19/19/19 18/18/18 22/22/22
f 22/22/22 18/18/18 23/23/23
f 23/23/23 18/18/18 24/24/24
f 24/24/24 18/18/18 25/25/25
f 18/18/18 12/12/12 25/25/25
f 25/25/25 12/12/12 26/26/26
f 26/26/26 12/12/12 27/27/27
f 12/12/12 8/8/8 27/27/27
f 27/27/27 8/8/8 28/28/28
f 28/28/28 8/8/8 29/29/29
f 8/8/8 13/13/13 29/29/29
f 29/29/29 13/13/13 30/30/30
f 13/13/13 31/31/31 30/30/30
f 30/30/30 31/31/31 32/32/32
f 32/32/32 31/31/31 33/33/33
f 33/33/33 31/31/31 14/14/14
f 31/31/31 13/13/13 14/14/14
f 32/32/32 34/34/34 30/30/30
f 30/30/30 34/34/34 29/29/29
f 29/29/29 34/34/34 28/28/28
f 28/28/28 34/34/34 35/35/35
f 34/34/34 36/36/36 35/35/35
f 36/36/36 37/37/37 35/35/35
f 35/35/35 37/37/37 38/38/38
f 37/37/37 39/39/39 38/38/38
f 38/38/38 39/39/39 40/40/40
f 39/39/39 41/41/41 40/40/40
f 40/40/40 41/41/41 42/42/42
f 42/42/42 41/41/41 43/43/43
f 43/43/43 41/41/41 44/44/44
f 44/44/44 41/41/41 45/45/45
f 45/45/45 41/41/41 46/46/46
f 46/46/46 41/41/41 47/47/47
f 41/41/41 39/39/39 47/47/47
f 39/39/39 37/37/37 47/47/47
f 47/47/47 37/37/37 48/48/48
f 37/37/37 36/36/36 48/48/48
f 48/48/48 36/36/36 49/49/49
f 36/36/36 34/34/34 49/49/49
f 49/49/49 34/34/34 50/50/50
f 34/34/34 32/32/32 50/50/50
f 50/50/50 32/32/32 51/51/51
f 51/51/51 32/32/32 52/52/52
f 32/32/32 53/53/53 52/52/52
f 53/53/53 54/54/54 52/52/52
f 54/54/54 55/55/55 52/52/52
f 52/52/52 55/55/55 51/51/51
f 55/55/55 56/56/56 51/51/51
f 56/56/56 57/57/57 51/51/51
f 51/51/51 57/57/57 50/50/50
f 57/57/57 49/49/49 50/50/50
f 53/53/53 32/32/32 33/33/33
f 56/56/56 55/55/55 58/58/58
f 58/58/58 55/55/55 54/54/54
f 22/22/22 59/59/59 21/21/21
f 56/56/56 58/58/58 60/60/60
f 58/58/58 61/61/61 60/60/60
f 60/60/60 61/61/61 62/62/62
f 62/62/62 61/61/61 63/63/63
f 61/61/61 64/64/64 63/63/63
f 63/63/63 64/64/64 65/65/65
f 65/65/65 64/64/64 66/66/66
f 64/64/64 58/58/58 66/66/66
f 66/66/66 58/58/58 67/67/67
f 58/58/58 54/54/54 67/67/67
f 67/67/67 54/54/54 68/68/68
f 68/68/68 54/54/54 69/69/69
f 54/54/54 53/53/53 69/69/69
f 69/69/69 53/53/53 70/70/70
f 53/53/53 33/33/33 70/70/70
f 70/70/70 33/33/33 71/71/71
f 33/33/33 14/14/14 71/71/71
f 71/71/71 14/14/14 72/72/72
f 72/72/72 14/14/14 73/73/73
f 14/14/14 1/1/1 73/73/73
f 73/73/73 1/1/1 74/74/74
f 1/1/1 3/3/3 74/74/74
f 58/58/58 64/64/64 61/61/61
f 66/66/66 67/67/67 68/68/68
f 72/72/72 70/70/70 71/71/71
f 56/56/56 60/60/60 75/75/75
f 75/75/75 60/60/60 62/62/62
f 74/74/74 76/76/76 73/73/73
f 73/73/73 76/76/76 72/72/72
f 76/76/76 77/77/77 72/72/72
f 77/77/77 78/78/78 72/72/72
f 72/72/72 78/78/78 79/79/79
f 78/78/78 80/80/80 79/79/79
f 79/79/79 80/80/80 70/70/70
f 80/80/80 81/81/81 70/70/70
f 70/70/70 81/81/81 69/69/69
f 81/81/81 82/82/82 69/69/69
f 69/69/69 82/82/82 68/68/68
f 82/82/82 83/83/83 68/68/68
f 68/68/68 83/83/83 66/66/66
f 83/83/83 84/84/84 66/66/66
f 84/84/84 85/85/85 66/66/66
f 66/66/66 85/85/85 65/65/65
f 72/72/72 79/79/79 70/70/70
f 82/82/82 81/81/81 80/80/80
f 74/74/74 86/86/86 76/76/76
f 76/76/76 86/86/86 77/77/77
f 82/82/82 87/87/87 83/83/83
f 83/83/83 87/87/87 84/84/84
f 84/84/84 88/88/88 85/85/85
f 85/85/85 88/88/88 65/65/65
f 88/88/88 89/89/89 65/65/65
f 65/65/65 89/89/89 63/63/63
f 89/89/89 90/90/90 63/63/63
f 63/63/63 90/90/90 91/91/91
f 91/91/91 90/90/90 59/59/59
f 59/59/59 90/90/90 21/21/21
f 90/90/90 89/89/89 21/21/21
f 21/21/21 89/89/89 20/20/20
f 89/89/89 88/88/88 20/20/20
f 91/91/91 92/92/92 63/63/63
f 63/63/63 92/92/92 62/62/62
f 92/92/92 93/93/93 62/62/62
f 93/93/93 94/94/94 62/62/62
f 94/94/94 95/95/95 62/62/62
f 62/62/62 95/95/95 75/75/75
f 95/95/95 96/96/96 75/75/75
f 75/75/75 96/96/96 56/56/56
f 96/96/96 97/97/97 56/56/56
f 56/56/56 97/97/97 57/57/57
f 57/57/57 97/97/97 49/49/49
f 49/49/49 97/97/97 48/48/48
f 48/48/48 97/97/97 47/47/47
f 97/97/97 98/98/98 47/47/47
f 47/47/47 98/98/98 99/99/99
f 99/99/99 98/98/98 100/100/100
f 98/98/98 97/97/97 100/100/100
f 97/97/97 96/96/96 100/100/100
f 96/96/96 95/95/95 100/100/100
f 95/95/95 101/101/101 100/100/100
f 100/100/100 101/101/101 99/99/99
f 101/101/101 102/102/102 99/99/99
f 99/99/99 102/102/102 46/46/46
f 46/46/46 102/102/102 103/103/103
f 103/103/103 102/102/102 104/104/104
f 104/104/104 102/102/102 105/105/105
f 102/102/102 101/101/101 105/105/105
f 105/105/105 101/101/101 106/106/106
f 101/101/101 95/95/95 106/106/106
f 106/106/106 95/95/95 107/107/107
f 95/95/95 94/94/94 107/107/107
f 107/107/107 94/94/94 108/108/108
f 94/94/94 93/93/93 108/108/108
f 108/108/108 93/93/93 109/109/109
f 109/109/109 93/93/93 110/110/110
f 93/93/93 92/92/92 110/110/110
f 110/110/110 92/92/92 91/91/91
f 47/47/47 99/99/99 46/46/46
f 109/109/109 111/111/111 108/108/108
f 108/108/108 111/111/111 107/107/107
f 111/111/111 112/112/112 107/107/107
f 107/107/107 112/112/112 106/106/106
f 112/112/112 113/113/113 106/106/106
f 106/106/106 113/113/113 105/105/105
f 105/105/105 113/113/113 104/104/104
f 104/104/104 113/113/113 114/114/114
f 113/113/113 115/115/115 114/114/114
f 114/114/114 115/115/115 116/116/116
f 116/116/116 115/115/115 117/117/117
f 115/115/115 112/112/112 117/117/117
f 117/117/117 112/112/112 111/111/111
f 113/113/113 112/112/112 115/115/115
f 104/104/104 114/114/114 118/118/118
f 114/114/114 119/119/119 118/118/118
f 118/118/118 119/119/119 120/120/120
f 120/120/120 119/119/119 121/121/121
f 119/119/119 116/116/116 121/121/121
f 121/121/121 116/116/116 122/122/122
f 116/116/116 117/117/117 122/122/122
f 117/117/117 123/123/123 122/122/122
f 122/122/122 123/123/123 121/121/121
f 123/123/123 124/124/124 121/121/121
f 121/121/121 124/124/124 120/120/120
f 124/124/124 125/125/125 120/120/120
f 125/125/125 126/126/126 120/120/120
f 120/120/120 126/126/126 118/118/118
f 126/126/126 127/127/127 118/118/118
f 127/127/127 103/103/103 118/118/118
f 118/118/118 103/103/103 104/104/104
f 116/116/116 119/119/119 114/114/114
f 125/125/125 124/124/124 128/128/128
f 124/124/124 129/129/129 128/128/128
f 128/128/128 129/129/129 130/130/130
f 130/130/130 129/129/129 131/131/131
f 131/131/131 129/129/129 123/123/123
f 129/129/129 124/124/124 123/123/123
f 125/125/125 128/128/128 132/132/132
f 132/132/132 128/128/128 133/133/133
f 128/128/128 130/130/130 133/133/133
f 125/125/125 132/132/132 126/126/126
f 132/132/132 134/134/134 126/126/126
f 126/126/126 134/134/134 135/135/135
f 135/135/135 134/134/134 136/136/136
f 134/134/134 137/137/137 136/136/136
f 137/137/137 138/138/138 136/136/136
f 136/136/136 138/138/138 139/139/139
f 139/139/139 138/138/138 140/140/140
f 138/138/138 26/26/26 140/140/140
f 26/26/26 27/27/27 140/140/140
f 140/140/140 27/27/27 28/28/28
f 26/26/26 138/138/138 25/25/25
f 25/25/25 138/138/138 24/24/24
f 24/24/24 138/138/138 141/141/141
f 138/138/138 137/137/137 141/141/141
f 137/137/137 134/134/134 141/141/141
f 141/141/141 134/134/134 142/142/142
f 134/134/134 132/132/132 142/142/142
f 132/132/132 133/133/133 142/142/142
f 142/142/142 133/133/133 143/143/143
f 133/133/133 130/130/130 143/143/143
f 143/143/143 130/130/130 144/144/144
f 130/130/130 131/131/131 144/144/144
f 144/144/144 131/131/131 145/145/145
f 131/131/131 123/123/123 145/145/145
f 145/145/145 123/123/123 146/146/146
f 123/123/123 117/117/117 146/146/146
f 146/146/146 117/117/117 147/147/147
f 117/117/117 111/111/111 147/147/147
f 111/111/111 109/109/109 147/147/147
f 109/109/109 148/148/148 147/147/147
f 147/147/147 148/148/148 145/145/145
f 145/145/145 148/148/148 144/144/144
f 148/148/148 149/149/149 144/144/144
f 144/144/144 149/149/149 143/143/143
f 141/141/141 142/142/142 143/143/143
f 145/145/145 146/146/146 147/147/147
f 149/149/149 148/148/148 150/150/150
f 148/148/148 109/109/109 150/150/150
f 150/150/150 109/109/109 151/151/151
f 109/109/109 110/110/110 151/151/151
f 110/110/110 91/91/91 151/151/151
f 91/91/91 59/59/59 151/151/151
f 59/59/59 22/22/22 151/151/151
f 151/151/151 22/22/22 152/152/152
f 22/22/22 153/153/153 152/152/152
f 152/152/152 153/153/153 143/143/143
f 143/143/143 153/153/153 141/141/141
f 153/153/153 23/23/23 141/141/141
f 141/141/141 23/23/23 24/24/24
f 150/150/150 151/151/151 149/149/149
f 151/151/151 152/152/152 149/149/149
f 149/149/149 152/152/152 143/143/143
f 22/22/22 23/23/23 153/153/153
f 5/5/5 154/154/154 3/3/3
f 3/3/3 154/154/154 74/74/74
f 74/74/74 154/154/154 155/155/155
f 154/154/154 5/5/5 155/155/155
f 155/155/155 5/5/5 156/156/156
f 5/5/5 10/10/10 156/156/156
f 156/156/156 10/10/10 157/157/157
f 10/10/10 158/158/158 157/157/157
f 157/157/157 158/158/158 159/159/159
f 158/158/158 16/16/16 159/159/159
f 159/159/159 16/16/16 160/160/160
f 16/16/16 20/20/20 160/160/160
f 20/20/20 88/88/88 160/160/160
f 160/160/160 88/88/88 159/159/159
f 88/88/88 161/161/161 159/159/159
f 159/159/159 161/161/161 162/162/162
f 162/162/162 161/161/161 84/84/84
f 161/161/161 88/88/88 84/84/84
f 156/156/156 157/157/157 155/155/155
f 157/157/157 163/163/163 155/155/155
f 163/163/163 164/164/164 155/155/155
f 164/164/164 165/165/165 155/155/155
f 155/155/155 165/165/165 74/74/74
f 74/74/74 165/165/165 86/86/86
f 165/165/165 164/164/164 86/86/86
f 164/164/164 166/166/166 86/86/86
f 86/86/86 166/166/166 77/77/77
f 166/166/166 167/167/167 77/77/77
f 77/77/77 167/167/167 78/78/78
f 10/10/10 16/16/16 158/158/158
f 166/166/166 164/164/164 167/167/167
f 167/167/167 164/164/164 168/168/168
f 164/164/164 163/163/163 168/168/168
f 168/168/168 163/163/163 169/169/169
f 163/163/163 157/157/157 169/169/169
f 169/169/169 157/157/157 170/170/170
f 157/157/157 159/159/159 170/170/170
f 159/159/159 162/162/162 170/170/170
f 170/170/170 162/162/162 171/171/171
f 171/171/171 162/162/162 172/172/172
f 162/162/162 84/84/84 172/172/172
f 84/84/84 87/87/87 172/172/172
f 172/172/172 87/87/87 173/173/173
f 87/87/87 82/82/82 173/173/173
f 170/170/170 171/171/171 169/169/169
f 169/169/169 171/171/171 168/168/168
f 171/171/171 174/174/174 168/168/168
f 168/168/168 174/174/174 173/173/173
f 173/173/173 174/174/174 172/172/172
f 174/174/174 171/171/171 172/172/172
f 168/168/168 173/173/173 167/167/167
f 167/167/167 173/173/173 78/78/78
f 173/173/173 175/175/175 78/78/78
f 78/78/78 175/175/175 80/80/80
f 80/80/80 175/175/175 82/82/82
f 175/175/175 173/173/173 82/82/82

