# Exported by Sketchfab Model Ripper robust edition
o model_13
v -0.4466610252857208 -0.7765336036682129 -0.32364487648010254
v -0.4497738480567932 -0.7771850228309631 -0.3261643350124359
v -0.4459001421928406 -0.7780807614326477 -0.3225023150444031
v -0.44998136162757874 -0.7779993414878845 -0.3259592652320862
v -0.4537167251110077 -0.7773479223251343 -0.3308517336845398
v -0.45243701338768005 -0.7758821249008179 -0.32994353771209717
v -0.4493587911128998 -0.7740092277526855 -0.32707253098487854
v -0.440885066986084 -0.7747828364372253 -0.3198363482952118
v -0.43998581171035767 -0.7774293422698975 -0.3193090260028839
v -0.44136926531791687 -0.7796279788017273 -0.31813716888427734
v -0.447110652923584 -0.7797908186912537 -0.32226794958114624
v -0.4504309892654419 -0.7790579795837402 -0.32563701272010803
v -0.4544776380062103 -0.7804015874862671 -0.33047088980674744
v -0.4493587911128998 -0.7839438319206238 -0.32370346784591675
v -0.4496009051799774 -0.790865421295166 -0.3281857669353485
v -0.4430294334888458 -0.7847580909729004 -0.3183422386646271
v -0.4421647787094116 -0.7920868992805481 -0.32179921865463257
v -0.45800548791885376 -0.7757192850112915 -0.33817577362060547
v -0.45887014269828796 -0.7782436609268188 -0.3378828167915344
v -0.4564836621284485 -0.7872824668884277 -0.3357149064540863
v -0.4565528333187103 -0.7736835479736328 -0.3370332419872284
v -0.4603227972984314 -0.7743756771087646 -0.3487516939640045
v -0.4608069956302643 -0.7827630639076233 -0.3461150527000427
v -0.45779794454574585 -0.7938376665115356 -0.3481071889400482
v -0.45420095324516296 -0.7958326935768127 -0.3397577702999115
v -0.4490475356578827 -0.7987642288208008 -0.33205288648605347
v -0.45330169796943665 -0.8052379488945007 -0.34207218885421753
v -0.45523855090141296 -0.803202211856842 -0.3493083417415619
v -0.45330169796943665 -0.8018993139266968 -0.3583022654056549
v -0.45022347569465637 -0.8102866411209106 -0.35657379031181335
v -0.45260995626449585 -0.8117117285728455 -0.34907397627830505
v -0.4523678421974182 -0.8139510750770569 -0.3426873981952667
v -0.45174527168273926 -0.8188369274139404 -0.3494548201560974
v -0.4492204487323761 -0.8170454502105713 -0.3562222421169281
v -0.44427454471588135 -0.8167197108268738 -0.3622279465198517
v -0.4448625445365906 -0.8105716705322266 -0.36263811588287354
v -0.4466610252857208 -0.8024286031723022 -0.36410292983055115
v -0.4582821726799011 -0.7932268977165222 -0.3596791923046112
v -0.45869719982147217 -0.7819487452507019 -0.3617299199104309
v -0.453578382730484 -0.7692862749099731 -0.3631068468093872
v -0.44915127754211426 -0.7938376665115356 -0.36755988001823425
v -0.45869719982147217 -0.7819487452507019 -0.3617299199104309
v -0.4483903646469116 -0.7839438319206238 -0.36961060762405396
v -0.453578382730484 -0.7692862749099731 -0.3631068468093872
v -0.444516658782959 -0.7734799385070801 -0.37037229537963867
v -0.44133469462394714 -0.7602066993713379 -0.3651575744152069
v -0.43701136112213135 -0.7650111317634583 -0.37034299969673157
v -0.43251508474349976 -0.7690826654434204 -0.3725109398365021
v -0.43545493483543396 -0.7756378650665283 -0.3727160096168518
v -0.43791061639785767 -0.7845545411109924 -0.3700500428676605
v -0.438809871673584 -0.793430507183075 -0.36679816246032715
v -0.4384639859199524 -0.8023878931999207 -0.3643079996109009
v -0.4376339018344879 -0.8106530904769897 -0.3650110960006714
v -0.43683841824531555 -0.8168418407440186 -0.3659485876560211
v -0.44413620233535767 -0.8221348524093628 -0.36214005947113037
v -0.44859790802001953 -0.8225420117378235 -0.35660308599472046
v -0.45053476095199585 -0.8240484595298767 -0.3508903384208679
v -0.4497392475605011 -0.8268578052520752 -0.3522672653198242
v -0.4480445086956024 -0.826572835445404 -0.3561050593852997
v -0.4440670311450958 -0.8264914155006409 -0.36052876710891724
v -0.4367692470550537 -0.8264914155006409 -0.36275529861450195
v -0.44327154755592346 -0.8294228911399841 -0.3575405776500702
v -0.4378414452075958 -0.8306036591529846 -0.3568667471408844
v -0.4272233247756958 -0.8267356753349304 -0.36205217242240906
v -0.43670007586479187 -0.8220941424369812 -0.36618295311927795
v -0.4267045259475708 -0.8216462731361389 -0.36477673053741455
v -0.44603848457336426 -0.8301150798797607 -0.35370275378227234
v -0.4407121241092682 -0.8333722949028015 -0.3506852686405182
v -0.4437211751937866 -0.8335351347923279 -0.34491389989852905
v -0.43268802762031555 -0.8355709314346313 -0.34775564074516296
v -0.4296098053455353 -0.8318658471107483 -0.35507968068122864
v -0.4483903646469116 -0.8296265006065369 -0.34916186332702637
v -0.45032721757888794 -0.8269799947738647 -0.3454412519931793
v -0.4516761004924774 -0.8214833736419678 -0.3431854248046875
v -0.4467993974685669 -0.8315808176994324 -0.3396991789340973
v -0.4379451870918274 -0.8342273235321045 -0.33454304933547974
v -0.4355241358280182 -0.8366702198982239 -0.34092962741851807
v -0.42808797955513 -0.8360595107078552 -0.33108609914779663
v -0.4258744418621063 -0.8381360173225403 -0.3382050693035126
v -0.4165014326572418 -0.8373216986656189 -0.33606645464897156
v -0.4236263036727905 -0.8364666700363159 -0.3453533351421356
v -0.41484126448631287 -0.8361002206802368 -0.3432440161705017
v -0.4130081832408905 -0.8330872654914856 -0.34971848130226135
v -0.4209977090358734 -0.8328837156295776 -0.3527067005634308
v -0.4180578291416168 -0.8272649645805359 -0.359063982963562
v -0.4186803996562958 -0.8354488015174866 -0.3281271755695343
v -0.40961867570877075 -0.8280385732650757 -0.3548746109008789
v -0.40771642327308655 -0.8325579762458801 -0.34681814908981323
v -0.4073013663291931 -0.8343494534492493 -0.34154483675956726
v -0.4083389639854431 -0.8353673815727234 -0.33451375365257263
v -0.41027581691741943 -0.8330872654914856 -0.3269553482532501
v -0.4022171199321747 -0.8318251371383667 -0.3341329097747803
v -0.4013524651527405 -0.830562949180603 -0.3412811756134033
v -0.39751332998275757 -0.8245777487754822 -0.34201356768608093
v -0.400522381067276 -0.823071300983429 -0.35039228200912476
v -0.3981359004974365 -0.8181040287017822 -0.34136906266212463
v -0.4032547175884247 -0.8174933195114136 -0.34845873713493347
v -0.4067825675010681 -0.8100830912590027 -0.34690603613853455
v -0.4008336663246155 -0.8108566999435425 -0.3404316008090973
v -0.40356600284576416 -0.80198073387146 -0.339904248714447
v -0.40923821926116943 -0.8007999658584595 -0.3458513915538788
v -0.4072321951389313 -0.7920054793357849 -0.34640800952911377
v -0.4015254080295563 -0.7935933470726013 -0.34075385332107544
v -0.4032893180847168 -0.7843917012214661 -0.3487516939640045
v -0.3977208733558655 -0.7863460183143616 -0.3423651456832886
v -0.3998306393623352 -0.7763707637786865 -0.3507145643234253
v -0.4073013663291931 -0.8343494534492493 -0.34154483675956726
v -0.40771642327308655 -0.8325579762458801 -0.34681814908981323
v -0.4038081169128418 -0.8289750218391418 -0.3485466241836548
v -0.3956456482410431 -0.7955069541931152 -0.33392783999443054
v -0.39488473534584045 -0.8033243417739868 -0.33398643136024475
v -0.3942967653274536 -0.811752438545227 -0.3334297835826874
v -0.39574941992759705 -0.8192440271377563 -0.33401572704315186
v -0.3976171016693115 -0.8257585167884827 -0.3337227702140808
v -0.40024569630622864 -0.8262878060340881 -0.32979705929756165
v -0.40391188859939575 -0.8293007612228394 -0.3273361921310425
v -0.4112788438796997 -0.826206386089325 -0.32220935821533203
v -0.4197871685028076 -0.8280385732650757 -0.32367417216300964
v -0.42808797955513 -0.8360595107078552 -0.33108609914779663
v -0.42884889245033264 -0.8279978632926941 -0.3275705575942993
v -0.4381181299686432 -0.8266949653625488 -0.33246302604675293
v -0.4379451870918274 -0.8342273235321045 -0.33454304933547974
v -0.44742193818092346 -0.8249441981315613 -0.33732619881629944
v -0.44652268290519714 -0.8160275220870972 -0.3370918333530426
v -0.4473181962966919 -0.8071515560150146 -0.33530476689338684
v -0.4404354393482208 -0.7998228073120117 -0.3262522220611572
v -0.4330684542655945 -0.7911097407341003 -0.31758055090904236
v -0.4344865083694458 -0.7833330631256104 -0.31488528847694397
v -0.43351808190345764 -0.7779993414878845 -0.3151782751083374
v -0.43268802762031555 -0.7749456763267517 -0.3156470060348511
v -0.4332413971424103 -0.7728692293167114 -0.31605714559555054
v -0.4232458472251892 -0.771484911441803 -0.31324470043182373
v -0.4232112467288971 -0.7701820135116577 -0.31324470043182373
v -0.41221269965171814 -0.767698347568512 -0.314328670501709
v -0.4112788438796997 -0.7692455649375916 -0.31286385655403137
v -0.42345336079597473 -0.7755564451217651 -0.31403571367263794
v -0.41096755862236023 -0.7732763886451721 -0.31274667382240295
v -0.42383381724357605 -0.7821930646896362 -0.31324470043182373
v -0.40162914991378784 -0.7685126662254333 -0.3164379894733429
v -0.4032893180847168 -0.7661918997764587 -0.31892818212509155
v -0.40792393684387207 -0.7656219005584717 -0.3256077170372009
v -0.3970291316509247 -0.7628939151763916 -0.32651588320732117
v -0.4151179790496826 -0.7676576375961304 -0.32089102268218994
v -0.4232112467288971 -0.7701820135116577 -0.31324470043182373
v -0.42379921674728394 -0.7693676948547363 -0.31954339146614075
v -0.4175390303134918 -0.767494797706604 -0.32718971371650696
v -0.41394200921058655 -0.765784740447998 -0.33199429512023926
v -0.4010757803916931 -0.7621610760688782 -0.3310568034648895
v -0.39695996046066284 -0.758293092250824 -0.335627019405365
v -0.3948155641555786 -0.7604917287826538 -0.33246302604675293
v -0.397409588098526 -0.7568680644035339 -0.3405194878578186
v -0.3948501646518707 -0.758944571018219 -0.34081244468688965
v -0.3996922969818115 -0.7582523822784424 -0.34763845801353455
v -0.39090728759765625 -0.7644818425178528 -0.34356626868247986
v -0.3917027711868286 -0.7650518417358398 -0.33310753107070923
v -0.39505767822265625 -0.7662733197212219 -0.32446515560150146
v -0.3932245969772339 -0.7715256214141846 -0.3241136074066162
v -0.3998652398586273 -0.7716070413589478 -0.31561771035194397
v -0.3991734981536865 -0.7788543701171875 -0.31599855422973633
v -0.4114517867565155 -0.7804830074310303 -0.31327399611473083
v -0.42296916246414185 -0.7898882627487183 -0.3157641887664795
v -0.43120077252388 -0.799415647983551 -0.3218285143375397
v -0.4298518896102905 -0.8089023232460022 -0.3246702253818512
v -0.43929407000541687 -0.8087801933288574 -0.3288010060787201
v -0.43870609998703003 -0.8179004192352295 -0.3302365243434906
v -0.42919474840164185 -0.8185111880302429 -0.3260178565979004
v -0.40079906582832336 -0.7565423250198364 -0.34549984335899353
v -0.42037513852119446 -0.818226158618927 -0.32179921865463257
v -0.41200515627861023 -0.8170861601829529 -0.3205687701702118
v -0.40387728810310364 -0.8155389428138733 -0.32015863060951233
v -0.40474197268486023 -0.8232341408729553 -0.32367417216300964
v -0.3993464410305023 -0.8206691145896912 -0.32765844464302063
v -0.3964065611362457 -0.8137474656105042 -0.32446515560150146
v -0.3942967653274536 -0.811752438545227 -0.3334297835826874
v -0.39488473534584045 -0.8033243417739868 -0.33398643136024475
v -0.39623361825942993 -0.8052786588668823 -0.3235276937484741
v -0.3965103328227997 -0.7968912720680237 -0.323322594165802
v -0.39540356397628784 -0.7883003354072571 -0.32384994626045227
v -0.3946080505847931 -0.7878117561340332 -0.33392783999443054
v -0.3918757140636444 -0.7796279788017273 -0.3350410759449005
v -0.39315542578697205 -0.778610110282898 -0.34429869055747986
v -0.39000803232192993 -0.7708741426467896 -0.3453240394592285
v -0.3985855281352997 -0.7681055068969727 -0.3508317470550537
v -0.39903515577316284 -0.7616317868232727 -0.3492790460586548
v -0.39000803232192993 -0.77205491065979 -0.33539265394210815
v -0.3932591676712036 -0.7792615294456482 -0.3246995210647583
v -0.40041860938072205 -0.788585364818573 -0.31678956747055054
v -0.4121089279651642 -0.7889925241470337 -0.3144458532333374
v -0.413215696811676 -0.7977870106697083 -0.3165258765220642
v -0.4220007359981537 -0.798560619354248 -0.3186938166618347
v -0.42089393734931946 -0.808250904083252 -0.3212425708770752
v -0.412800669670105 -0.807192325592041 -0.3193090260028839
v -0.40425774455070496 -0.8065001368522644 -0.31828364729881287
v -0.39623361825942993 -0.8052786588668823 -0.3235276937484741
v -0.4039464592933655 -0.7974613308906555 -0.31684815883636475
v -0.453578382730484 -0.7692862749099731 -0.3631068468093872
v -0.4570370614528656 -0.7716070413589478 -0.346759557723999
v -0.44894376397132874 -0.7655404210090637 -0.35783353447914124
v -0.44026249647140503 -0.7585374116897583 -0.3623451590538025
v -0.4296098053455353 -0.7560537457466125 -0.3635462820529938
v -0.42677369713783264 -0.7603288888931274 -0.36676886677742004
v -0.4513648450374603 -0.7720956206321716 -0.3342500925064087
v -0.4431332051753998 -0.7727878093719482 -0.32288315892219543
v -0.4338293671607971 -0.7713220119476318 -0.32036370038986206
v -0.4332413971424103 -0.7728692293167114 -0.31605714559555054
v -0.4321000277996063 -0.7705891728401184 -0.3302658200263977
v -0.42366087436676025 -0.7688384056091309 -0.32842013239860535
v -0.4298518896102905 -0.767698347568512 -0.33958199620246887
v -0.4215165078639984 -0.7666804790496826 -0.33659377694129944
v -0.44119635224342346 -0.7712405920028687 -0.33246302604675293
v -0.4386369287967682 -0.7680647969245911 -0.3417792022228241
v -0.44794073700904846 -0.7688791155815125 -0.34415221214294434
v -0.44323694705963135 -0.7633825540542603 -0.3527945876121521
v -0.4355241358280182 -0.7624460458755493 -0.34968918561935425
v -0.4269120395183563 -0.7622017860412598 -0.34687674045562744
v -0.41795408725738525 -0.7624868154525757 -0.34286317229270935
v -0.40896153450012207 -0.7623646259307861 -0.33732619881629944
v -0.40373894572257996 -0.7578859329223633 -0.34210148453712463
v -0.397409588098526 -0.7568680644035339 -0.3405194878578186
v -0.40079906582832336 -0.7565423250198364 -0.34549984335899353
v -0.4103795886039734 -0.7573566436767578 -0.3508610427379608
v -0.4140457808971405 -0.7573973536491394 -0.3474333882331848
v -0.42366087436676025 -0.7565423250198364 -0.35250163078308105
v -0.43196168541908264 -0.7568273544311523 -0.3567202687263489
v -0.439328670501709 -0.7587002515792847 -0.35800930857658386
v -0.43109703063964844 -0.7547915577888489 -0.3609975278377533
v -0.4218623638153076 -0.7565423250198364 -0.3568960428237915
v -0.4200984537601471 -0.7590259909629822 -0.35932764410972595
v -0.40871942043304443 -0.759514570236206 -0.3532926142215729
v -0.39903515577316284 -0.7616317868232727 -0.3492790460586548
v -0.4084773361682892 -0.7619574666023254 -0.35464024543762207
v -0.40875402092933655 -0.7663140296936035 -0.355460524559021
v -0.3985855281352997 -0.7681055068969727 -0.3508317470550537
v -0.3998306393623352 -0.7763707637786865 -0.3507145643234253
v -0.41017207503318787 -0.7743349671363831 -0.3543179929256439
v -0.41148635745048523 -0.7832516431808472 -0.3540250360965729
v -0.4032893180847168 -0.7843917012214661 -0.3487516939640045
v -0.4133540391921997 -0.7918832898139954 -0.35305824875831604
v -0.4072321951389313 -0.7920054793357849 -0.34640800952911377
v -0.40923821926116943 -0.8007999658584595 -0.3458513915538788
v -0.4139074385166168 -0.8005149960517883 -0.3522379696369171
v -0.41200515627861023 -0.8089430332183838 -0.3528824746608734
v -0.4067825675010681 -0.8100830912590027 -0.34690603613853455
v -0.4032547175884247 -0.8174933195114136 -0.34845873713493347
v -0.40965327620506287 -0.8163125514984131 -0.35393714904785156
v -0.407508909702301 -0.8216462731361389 -0.3569253385066986
v -0.400522381067276 -0.823071300983429 -0.35039228200912476
v -0.4038081169128418 -0.8289750218391418 -0.3485466241836548
v -0.4171240031719208 -0.8212798237800598 -0.3601479232311249
v -0.41843828558921814 -0.8161497116088867 -0.3576284646987915
v -0.4279150366783142 -0.8167197108268738 -0.36269670724868774
v -0.43670007586479187 -0.8220941424369812 -0.36618295311927795
v -0.42902183532714844 -0.8100016713142395 -0.3611147105693817
v -0.43016317486763 -0.8016142845153809 -0.36137837171554565
v -0.4195796549320221 -0.8088616132736206 -0.35727691650390625
v -0.4215511083602905 -0.8007999658584595 -0.357042521238327
v -0.430681973695755 -0.7929012179374695 -0.3630775511264801
v -0.4218623638153076 -0.7923311591148376 -0.35795071721076965
v -0.42120522260665894 -0.7834959626197815 -0.35798001289367676
v -0.41954505443573 -0.773968517780304 -0.36000144481658936
v -0.4180232584476471 -0.7663140296936035 -0.36123189330101013
v -0.4185766279697418 -0.7619167566299438 -0.3603822886943817
v -0.42539021372795105 -0.7671283483505249 -0.36881959438323975
v -0.4273616671562195 -0.7752307057380676 -0.3678235411643982
v -0.43545493483543396 -0.7756378650665283 -0.3727160096168518
v -0.4301286041736603 -0.7839845418930054 -0.3651282787322998
vn -0.5829933881759644 0.23893322050571442 0.7765498161315918
vn -0.6896257996559143 0.28667306900024414 0.6650074124336243
vn -0.5185632109642029 0.458632230758667 0.7216291427612305
vn -0.6877032518386841 0.36945679783821106 0.6249527335166931
vn -0.7768802642822266 0.28454551100730896 0.5616858005523682
vn -0.6665189266204834 0.5401405692100525 0.5138099193572998
vn -0.5966729521751404 0.5766665935516357 0.5580654144287109
vn -0.4859462082386017 0.48861318826675415 0.7246471047401428
vn -0.502583920955658 0.277845174074173 0.8186644315719604
vn -0.4750248193740845 0.30975720286369324 0.8236515522003174
vn -0.6162425875663757 0.20736202597618103 0.7597671151161194
vn -0.7386058568954468 0.17189615964889526 0.651853621006012
vn -0.8291422128677368 -0.0715937539935112 0.5544344186782837
vn -0.7464430332183838 -0.1756187528371811 0.641857385635376
vn -0.7143424153327942 -0.3703271448612213 0.5937783122062683
vn -0.4969133734703064 -0.23333027958869934 0.8358433246612549
vn -0.47929179668426514 -0.47262826561927795 0.7395281791687012
vn -0.8452197909355164 0.338867723941803 0.41324591636657715
vn -0.9417206645011902 0.007547362241894007 0.3363112509250641
vn -0.873252272605896 -0.2821497321128845 0.3972681760787964
vn -0.6452540755271912 0.6839293837547302 0.34042292833328247
vn -0.9422861933708191 0.32957741618156433 -0.058952588587999344
vn -0.9990071058273315 -0.030186811462044716 -0.03276457265019417
vn -0.9605928063392639 -0.2684636414051056 0.07203252613544464
vn -0.855943500995636 -0.2999359965324402 0.42118772864341736
vn -0.7149460911750793 -0.3395138382911682 0.6112139225006104
vn -0.8798391819000244 -0.22761763632297516 0.417220801115036
vn -0.9471227526664734 -0.3009907305240631 -0.1111890971660614
vn -0.840186595916748 -0.415386438369751 -0.34862664341926575
vn -0.8301606178283691 -0.2566350996494293 -0.4949462115764618
vn -0.9756741523742676 -0.19142606854438782 -0.10684575140476227
vn -0.9320425391197205 -0.1241326630115509 0.34042292833328247
vn -0.9705302119255066 -0.13173937797546387 -0.2017817199230194
vn -0.838432788848877 -0.0979987382888794 -0.5361219048500061
vn -0.647731363773346 -0.08670554310083389 -0.7569189071655273
vn -0.5358010530471802 -0.14944125711917877 -0.8310141563415527
vn -0.3889099657535553 -0.33290523290634155 -0.8590245246887207
vn -0.83873450756073 -0.3249274790287018 -0.43697428703308105
vn -0.994305431842804 0.06414539366960526 -0.08510008454322815
vn -0.9478206634521484 0.20969721674919128 -0.2401314377784729
vn -0.4136047959327698 -0.2613186836242676 -0.872148871421814
vn -0.6192578673362732 -0.02645917423069477 -0.7847417593002319
vn -0.37320172786712646 -0.03770597651600838 -0.926983654499054
vn -0.5370827913284302 0.24905547499656677 -0.8059239983558655
vn -0.36863473057746887 0.18231706321239471 -0.9115201234817505
vn -0.4579443037509918 0.6322349905967712 -0.6249527335166931
vn -0.17455293238162994 0.5127458572387695 -0.8406086564064026
vn 0.15590672194957733 0.15055736899375916 -0.976230263710022
vn -0.2651131749153137 -0.05995670706033707 -0.962351381778717
vn 0.12272897362709045 -0.27039197087287903 -0.9548956751823425
vn 0.2160949558019638 -0.2761789858341217 -0.9364978075027466
vn 0.21952767670154572 -0.066962830722332 -0.9733054637908936
vn 0.11655858159065247 0.09122546017169952 -0.9889853596687317
vn -0.1534346640110016 0.04865461215376854 -0.986960232257843
vn -0.5898466110229492 -0.17892801761627197 -0.7874425053596497
vn -0.8768733739852905 -0.10925206542015076 -0.46814218163490295
vn -0.9632494449615479 -0.16154344379901886 -0.21460255980491638
vn -0.8728044629096985 -0.40954193472862244 -0.26549527049064636
vn -0.7172242999076843 -0.43153953552246094 -0.5471406579017639
vn -0.43138977885246277 -0.5167213678359985 -0.7395281791687012
vn -0.12584741413593292 -0.6871300935745239 -0.715552031993866
vn -0.27089759707450867 -0.8044032454490662 -0.528724730014801
vn -0.037761323153972626 -0.8456323742866516 -0.5324283838272095
vn 0.09790132939815521 -0.7195209860801697 -0.6875353455543518
vn -0.15409503877162933 -0.45223408937454224 -0.8784868121147156
vn 0.2940426170825958 -0.08204590529203415 -0.9522643685340881
vn -0.5031608939170837 -0.8060961961746216 -0.31150925159454346
vn -0.17445681989192963 -0.9145346879959106 -0.3649536371231079
vn -0.4324003756046295 -0.8997524976730347 -0.058952588587999344
vn -0.10369203984737396 -0.9431902170181274 -0.31565824151039124
vn -0.001887829857878387 -0.8689215779304504 -0.4949462115764618
vn -0.689023494720459 -0.7197253704071045 -0.08510008454322815
vn -0.8923546671867371 -0.4512872099876404 0.006554040592163801
vn -0.9094114899635315 -0.14651960134506226 0.3892335295677185
vn -0.6877776980400085 -0.5202200412750244 0.5062933564186096
vn -0.3452077805995941 -0.918422281742096 0.19321508705615997
vn -0.21725822985172272 -0.9761117100715637 -0.002184694167226553
vn -0.11675241589546204 -0.9615426659584045 0.24860523641109467
vn -0.037746138870716095 -0.9991703629493713 0.0152922747656703
vn 0.12989671528339386 -0.9878688454627991 0.08510008454322815
vn 0.04338653385639191 -0.9492521286010742 -0.31150925159454346
vn 0.18760840594768524 -0.9480101466178894 -0.25706008076667786
vn 0.20594556629657745 -0.863490641117096 -0.46040233969688416
vn 0.13168789446353912 -0.8290294408798218 -0.5434780716896057
vn 0.289828360080719 -0.5322141051292419 -0.7954543828964233
vn -0.011315051466226578 -0.7611016631126404 0.6485338807106018
vn 0.37073609232902527 -0.6647996306419373 -0.6485338807106018
vn 0.40947824716567993 -0.8173626661300659 -0.405272513628006
vn 0.36152297258377075 -0.9172069430351257 -0.16742929816246033
vn 0.37376120686531067 -0.920836329460144 0.1111890971660614
vn 0.2794484794139862 -0.8014727830886841 0.528724730014801
vn 0.6678577661514282 -0.7199116945266724 0.18892620503902435
vn 0.6682652235031128 -0.7083197832107544 -0.22738653421401978
vn 0.9278655052185059 -0.31895703077316284 -0.19321508705615997
vn 0.8312830328941345 -0.09800837188959122 -0.5471406579017639
vn 0.8392639756202698 0.3389488756656647 -0.42514660954475403
vn 0.6815558671951294 0.46903160214424133 -0.5616858005523682
vn 0.7306982278823853 0.3369085192680359 -0.5937783122062683
vn 0.7707656025886536 0.23097118735313416 -0.5937783122062683
vn 0.6852806210517883 0.030235351994633675 -0.7276512384414673
vn 0.7630773782730103 0.037783246487379074 -0.6452018022537231
vn 0.6577871441841125 -0.32815998792648315 -0.677958071231842
vn 0.6253765225410461 -0.3806842565536499 -0.681163489818573
vn 0.561721682548523 -0.4099835157394409 -0.7185974717140198
vn 0.7318065166473389 -0.4254165291786194 -0.5324283838272095
vn 0.4659649133682251 -0.2537509799003601 -0.8476362228393555
vn 0.36152297258377075 -0.9172069430351257 -0.16742929816246033
vn 0.40947824716567993 -0.8173626661300659 -0.405272513628006
vn 0.6002030372619629 -0.5868456959724426 -0.5434780716896057
vn 0.9517224431037903 -0.12053504586219788 -0.28230419754981995
vn 0.566642165184021 0.022689295932650566 -0.8236515522003174
vn 0.6800895929336548 0.06034252047538757 -0.7306414246559143
vn 0.9893243908882141 -0.14293669164180756 -0.028397228568792343
vn 0.8792184591293335 -0.45751485228538513 0.1328723281621933
vn 0.7580437660217285 -0.391955703496933 0.5212872624397278
vn 0.5159013867378235 -0.5519148111343384 0.6551609039306641
vn 0.07475626468658447 -0.3758251368999481 0.9236704111099243
vn -0.23874686658382416 -0.3683297038078308 0.8985171914100647
vn -0.3620152771472931 -0.3979334831237793 0.8429672718048096
vn -0.4291025996208191 -0.2578796148300171 0.865661084651947
vn -0.4921254515647888 -0.22625112533569336 0.8406086564064026
vn -0.4533407390117645 -0.2457866668701172 0.8567795157432556
vn -0.6431025266647339 -0.11615895479917526 0.7569189071655273
vn -0.6772229075431824 -0.12749773263931274 0.7246471047401428
vn -0.6677343249320984 -0.29289543628692627 0.6843559741973877
vn -0.48004695773124695 -0.40280720591545105 0.7792953848838806
vn -0.2556632161140442 -0.44784510135650635 0.8567795157432556
vn -0.2045828402042389 -0.21522101759910583 0.9548956751823425
vn -0.24811159074306488 0.1302190124988556 0.9599394202232361
vn -0.31733083724975586 0.14924144744873047 0.9364978075027466
vn -0.3749668598175049 0.0561552569270134 0.9253358840942383
vn -0.1237138956785202 0.02579042688012123 0.9919826984405518
vn -0.082589291036129 -0.007433170452713966 0.9965559244155884
vn -0.08857613056898117 0.9390431046485901 0.33219319581985474
vn 0.05525016039609909 0.16033007204532623 0.9855159521102905
vn -0.11926700174808502 0.025858372449874878 0.9925254583358765
vn 0.10673747956752777 0.022180303931236267 0.9940398335456848
vn -0.06900918483734131 -0.08993452042341232 0.9935539960861206
vn 0.4390309751033783 0.5228909254074097 0.7306414246559143
vn -0.03770818933844566 0.9453265070915222 0.3239381015300751
vn -0.2004251331090927 0.9604674577713013 0.19321508705615997
vn 0.15387186408042908 0.8823041319847107 0.44481781125068665
vn -0.19489845633506775 0.9749864339828491 0.10684575140476227
vn -0.22640199959278107 0.9579941034317017 0.1760382205247879
vn -0.19861425459384918 0.9767459034919739 0.08074574917554855
vn -0.21528807282447815 0.9674688577651978 0.1328723281621933
vn -0.26648008823394775 0.9300875067710876 0.25283506512641907
vn -0.29680076241493225 0.8890268802642822 0.34862664341926575
vn -0.19473648071289062 0.8968030214309692 0.3972681760787964
vn 0.749811589717865 0.625882089138031 0.21460255980491638
vn 0.6100366711616516 0.7857155799865723 -0.10250037163496017
vn 0.7276512384414673 0.6729551553726196 -0.1328723281621933
vn 0.5423773527145386 0.6437679529190063 -0.5398051738739014
vn 0.8480203747749329 0.4634453058242798 -0.25706008076667786
vn 0.9232638478279114 0.31863704323768616 0.21460255980491638
vn 0.7164236903190613 0.46367737650871277 0.5212872624397278
vn 0.8994459509849548 0.08290009945631027 0.42909738421440125
vn 0.5225417017936707 0.15592923760414124 0.838234007358551
vn 0.4886658489704132 -0.08977194130420685 0.8678402304649353
vn 0.08258792757987976 -0.1530228853225708 0.9847655892372131
vn -0.11760670691728592 -0.3084730803966522 0.9439348578453064
vn -0.2849014699459076 -0.3882913887500763 0.8763908743858337
vn -0.37578341364860535 -0.21913224458694458 0.9004265069961548
vn -0.5554037094116211 -0.22444286942481995 0.8007197380065918
vn -0.5169602632522583 -0.19528262317180634 0.8334367275238037
vn -0.42750614881515503 -0.17606061697006226 0.8867024183273315
vn 0.3014734983444214 0.8055781126022339 -0.5100564956665039
vn -0.282929390668869 -0.1445808857679367 0.9481810927391052
vn -0.0692039430141449 -0.15481965243816376 0.9855159521102905
vn 0.21477316319942474 -0.24525746703147888 0.9453682899475098
vn 0.5422816872596741 -0.42006462812423706 0.7276512384414673
vn 0.7546497583389282 -0.43932822346687317 0.48733407258987427
vn 0.8211935758590698 -0.2236170470714569 0.5250110030174255
vn 0.9743234515190125 -0.052826281636953354 0.21886809170246124
vn 0.9848449230194092 0.04525443911552429 0.16742929816246033
vn 0.9928452968597412 0.030182113870978355 0.11553031951189041
vn 0.8398945331573486 -0.10534295439720154 0.5324283838272095
vn 0.9552555084228516 -0.17269571125507355 0.2401314377784729
vn 0.959929883480072 -0.2392941564321518 -0.1458524912595749
vn 0.95691978931427 -0.29027843475341797 -0.006554040592163801
vn 0.7461490035057068 -0.4656521677970886 -0.4758462607860565
vn 0.8824910521507263 -0.04530385509133339 -0.46814218163490295
vn 0.48551419377326965 0.060268912464380264 -0.872148871421814
vn 0.5248230695724487 0.30300673842430115 -0.7954543828964233
vn 0.9888461828231812 -0.030170055106282234 0.1458524912595749
vn 0.9062305092811584 -0.1204177662730217 0.405272513628006
vn 0.5819776058197021 -0.14195063710212708 0.8007197380065918
vn 0.0890948474407196 -0.1493280827999115 0.9847655892372131
vn -0.10125075280666351 -0.2702404856681824 0.9574540853500366
vn -0.26094967126846313 -0.30219781398773193 0.916832447052002
vn -0.2653041481971741 -0.19647057354450226 0.9439348578453064
vn -0.10193303227424622 -0.1815364509820938 0.9780870079994202
vn 0.37646469473838806 -0.13301344215869904 0.916832447052002
vn 0.5501017570495605 -0.05264298990368843 0.8334367275238037
vn 0.2706214487552643 -0.20311786234378815 0.9410139322280884
vn -0.6164701581001282 0.7868660092353821 -0.028397228568792343
vn -0.48929691314697266 0.8625925183296204 0.12854042649269104
vn -0.5437844395637512 0.8312347531318665 0.11553031951189041
vn -0.4710967540740967 0.8713458180427551 -0.1372016966342926
vn 0.11660003662109375 0.7579073309898376 -0.641857385635376
vn 0.32183927297592163 0.5297167301177979 -0.7847417593002319
vn -0.26648008823394775 0.9300875067710876 0.25283506512641907
vn -0.20237837731838226 0.9545363783836365 0.21886809170246124
vn -0.2354831099510193 0.9541792869567871 0.18463370203971863
vn -0.35820093750953674 0.8610785007476807 0.36088213324546814
vn -0.16908371448516846 0.973418116569519 0.15449213981628418
vn -0.2209010273218155 0.9629822969436646 0.15449213981628418
vn -0.19840656220912933 0.9128668904304504 0.3568037748336792
vn -0.24622556567192078 0.9043408632278442 0.34862664341926575
vn -0.11859291791915894 0.9694748520851135 0.21460255980491638
vn -0.1539306491613388 0.9116004705429077 0.3811691105365753
vn -0.3040924668312073 0.9016990065574646 0.30735430121421814
vn -0.4131174683570862 0.8361208438873291 0.36088213324546814
vn -0.24188873171806335 0.8323161005973816 0.4987381398677826
vn -0.23267655074596405 0.8015540838241577 0.5507928133010864
vn -0.26868936419487 0.8147425055503845 0.5138099193572998
vn -0.29629114270210266 0.8532801270484924 0.42909738421440125
vn -0.23507103323936462 0.9088685512542725 0.34452807903289795
vn -0.2152910977602005 0.94325190782547 0.25283506512641907
vn -0.20596633851528168 0.9556871652603149 0.2103329300880432
vn 0.07726682722568512 0.9925878643989563 -0.09380380809307098
vn -0.20188088715076447 0.8602830767631531 0.46814218163490295
vn -0.12593476474285126 0.9240695238113403 0.36088213324546814
vn -0.2671653628349304 0.8222504258155823 0.5025205612182617
vn -0.40860503911972046 0.8435053825378418 0.34862664341926575
vn -0.129831463098526 0.9897819757461548 0.058952588587999344
vn 0.26649734377861023 0.9228402376174927 -0.2781098484992981
vn 0.4172784090042114 0.659782350063324 -0.6249527335166931
vn 0.3587316870689392 0.6616250872612 -0.6584556698799133
vn 0.5248230695724487 0.30300673842430115 -0.7954543828964233
vn 0.4709557592868805 0.2675401270389557 -0.8406086564064026
vn 0.4467734098434448 0 -0.8946471214294434
vn 0.48551419377326965 0.060268912464380264 -0.872148871421814
vn 0.4659649133682251 -0.2537509799003601 -0.8476362228393555
vn 0.4286177158355713 -0.16270875930786133 -0.888714075088501
vn 0.42328548431396484 -0.20444241166114807 -0.882628321647644
vn 0.561721682548523 -0.4099835157394409 -0.7185974717140198
vn 0.5731586813926697 -0.18583327531814575 -0.7980946898460388
vn 0.6577871441841125 -0.32815998792648315 -0.677958071231842
vn 0.7630773782730103 0.037783246487379074 -0.6452018022537231
vn 0.6399396657943726 0.06789365410804749 -0.7654199600219727
vn 0.6573171615600586 0.2865881621837616 -0.6969945430755615
vn 0.7306982278823853 0.3369085192680359 -0.5937783122062683
vn 0.6815558671951294 0.46903160214424133 -0.5616858005523682
vn 0.49955618381500244 0.36107882857322693 -0.7874425053596497
vn 0.5345670580863953 0.06036712974309921 -0.8429672718048096
vn 0.8312830328941345 -0.09800837188959122 -0.5471406579017639
vn 0.6002030372619629 -0.5868456959724426 -0.5434780716896057
vn 0.3835693895816803 0.19671203196048737 -0.9023185968399048
vn 0.3884880542755127 0.33912524580955505 -0.8567795157432556
vn 0.3531935513019562 0.2799377739429474 -0.8926864862442017
vn 0.22388513386249542 0.24261580407619476 -0.9439348578453064
vn 0.36779356002807617 0.1334187239408493 -0.9202865362167358
vn 0.3987431824207306 -0.06028299033641815 -0.9150791168212891
vn 0.4393745958805084 0.15589182078838348 -0.8846737742424011
vn 0.4963259696960449 -0.022668343037366867 -0.8678402304649353
vn 0.4652893543243408 -0.16309767961502075 -0.8700028657913208
vn 0.5303299427032471 -0.09031213074922562 -0.8429672718048096
vn 0.5085923075675964 -0.16366170346736908 -0.8453097939491272
vn 0.5716568231582642 -0.2567240297794342 -0.7792953848838806
vn 0.6206706166267395 -0.142495259642601 -0.7710143327713013
vn 0.5480665564537048 0.3963243365287781 -0.736579954624176
vn 0.6134200096130371 0.06041659787297249 -0.7874425053596497
vn 0.61732017993927 -0.30627167224884033 -0.7246471047401428
vn 0.5089852213859558 -0.3352670967578888 -0.7927988767623901
vn 0.5624091625213623 -0.28401806950569153 -0.7765498161315918
vt 0.5111926794052124 0.4602905511856079
vt 0.5076949596405029 0.4787749648094177
vt 0.5015740394592285 0.4546965956687927
vt 0.5027763247489929 0.4792613983154297
vt 0.5091159343719482 0.5061367750167847
vt 0.5179694890975952 0.49859708547592163
vt 0.5263857841491699 0.4791398048400879
vt 0.5235438942909241 0.4297669529914856
vt 0.5071484446525574 0.42490261793136597
vt 0.4902065098285675 0.4273347854614258
vt 0.4903157949447632 0.459074467420578
vt 0.49610885977745056 0.4802342653274536
vt 0.49075302481651306 0.5099065899848938
vt 0.46758076548576355 0.47427546977996826
vt 0.4273572862148285 0.49847546219825745
vt 0.4592737555503845 0.43560412526130676
vt 0.4159897565841675 0.44934582710266113
vt 0.522450864315033 0.5417678952217102
vt 0.5082414746284485 0.5462673902511597
vt 0.4586179256439209 0.5449297428131104
vt 0.5330532789230347 0.5317960381507874
vt 0.5425626635551453 0.5850603580474854
vt 0.4963274598121643 0.5926000475883484
vt 0.442550390958786 0.6204482913017273
vt 0.41806653141975403 0.5726563334465027
vt 0.3900849521160126 0.5232834815979004
vt 0.3777337074279785 0.5975859761238098
vt 0.40462225675582886 0.6410000324249268
vt 0.43282243609428406 0.6966965198516846
vt 0.3888826072216034 0.7005879878997803
vt 0.3656010925769806 0.6492694020271301
vt 0.3412265181541443 0.6097468137741089
vt 0.3335753083229065 0.6549849510192871
vt 0.35281261801719666 0.6987638473510742
vt 0.3628685176372528 0.7444884777069092
vt 0.4003594219684601 0.7495959997177124
vt 0.44998300075531006 0.7510553002357483
vt 0.4754506051540375 0.6767528057098389
vt 0.530430018901825 0.6621598601341248
vt 0.5984164476394653 0.639905571937561
vt 0.5024484395980835 0.7373135685920715
vt 0.530430018901825 0.6621598601341248
vt 0.5581929683685303 0.7215045094490051
vt 0.5984164476394653 0.639905571937561
vt 0.6174352169036865 0.6952372193336487
vt 0.6712122559547424 0.6262854933738708
vt 0.675803005695343 0.6671457886695862
vt 0.6823611855506897 0.6975477337837219
vt 0.6457446813583374 0.7264904379844666
vt 0.5915303826332092 0.760175883769989
vt 0.5311951041221619 0.7868080139160156
vt 0.4659412205219269 0.794590950012207
vt 0.40582457184791565 0.7938612699508667
vt 0.36232200264930725 0.7898482084274292
vt 0.33062413334846497 0.7395025491714478
vt 0.3237380385398865 0.6998583078384399
vt 0.30854490399360657 0.6660512685775757
vt 0.2955378592014313 0.6745638251304626
vt 0.30056580901145935 0.6968181133270264
vt 0.30286115407943726 0.7266120910644531
vt 0.2924773693084717 0.7600542902946472
vt 0.27804937958717346 0.7136000394821167
vt 0.2534562051296234 0.7245447635650635
vt 0.26285627484321594 0.792766809463501
vt 0.32647061347961426 0.7809708714485168
vt 0.3072332739830017 0.8189125657081604
vt 0.2737865746021271 0.6875758767127991
vt 0.2352025955915451 0.6801578402519226
vt 0.23378166556358337 0.6425809264183044
vt 0.18842092156410217 0.672496497631073
vt 0.21279548108577728 0.7350029945373535
vt 0.27422377467155457 0.6602141261100769
vt 0.28460755944252014 0.6377166509628296
vt 0.3084356188774109 0.619718611240387
vt 0.24788175523281097 0.6105980277061462
vt 0.20230239629745483 0.5777638554573059
vt 0.18612556159496307 0.6211779117584229
vt 0.15453699231147766 0.542375922203064
vt 0.13617408275604248 0.5970995426177979
vt 0.08403655141592026 0.5519829988479614
vt 0.13431593775749207 0.6632543206214905
vt 0.08939240127801895 0.6495125889778137
vt 0.12119957059621811 0.7438803911209106
vt 0.16798125207424164 0.742299497127533
vt 0.22711418569087982 0.8157507181167603
vt 0.12415075302124023 0.49044933915138245
vt 0.17464874684810638 0.8304653167724609
vt 0.07846210151910782 0.7485015392303467
vt 0.03987814113497734 0.6261638402938843
vt 0.05365031957626343 0.4629659354686737
vt 0.10797391086816788 0.426726758480072
vt 0.08359934389591217 0.357896625995636
vt 0.0647992268204689 0.2935659885406494
vt 0.11125300079584122 0.2257087230682373
vt 0.07463649660348892 0.16733688116073608
vt 0.16415564715862274 0.1725660264492035
vt 0.1368298977613449 0.11346453428268433
vt 0.22361648082733154 0.05132284760475159
vt 0.23880960047245026 0.11796402931213379
vt 0.33597996830940247 0.06907761842012405
vt 0.33936837315559387 0.006814320106059313
vt 0.456322580575943 0.0019499999471008778
vt 0.4408015310764313 0.06165952980518341
vt 0.5780861377716064 0.023474616929888725
vt 0.541251003742218 0.0763740986585617
vt 0.7001775503158569 0.07795500010251999
vt 0.024466417729854584 0.35035690665245056
vt 0.0019499999471008778 0.2936875820159912
vt 0.03091529570519924 0.23932881653308868
vt 0.4158804714679718 0.12136905640363693
vt 0.3339032232761383 0.14143437147140503
vt 0.25214457511901855 0.17840321362018585
vt 0.1829557716846466 0.22072279453277588
vt 0.1337694227695465 0.2781217694282532
vt 0.1395624727010727 0.30888858437538147
vt 0.128085657954216 0.35595089197158813
vt 0.16404634714126587 0.3818534016609192
vt 0.17224407196044922 0.44095489382743835
vt 0.15453699231147766 0.542375922203064
vt 0.19585351645946503 0.49421918392181396
vt 0.23159560561180115 0.5388492941856384
vt 0.20230239629745483 0.5777638554573059
vt 0.2737865746021271 0.5877357125282288
vt 0.3106216788291931 0.5626844763755798
vt 0.35051727294921875 0.5445649027824402
vt 0.3660382926464081 0.46491166949272156
vt 0.41500604152679443 0.39571669697761536
vt 0.46605053544044495 0.3936493694782257
vt 0.5000437498092651 0.39024433493614197
vt 0.5201555490493774 0.38914987444877625
vt 0.5335997939109802 0.3936493694782257
vt 0.5464975237846375 0.35205942392349243
vt 0.555023193359375 0.3536403477191925
vt 0.583551287651062 0.31436094641685486
vt 0.5702162981033325 0.30657804012298584
vt 0.5185160040855408 0.3486544191837311
vt 0.5435463786125183 0.29733583331108093
vt 0.47326454520225525 0.34500616788864136
vt 0.5978699326515198 0.2711901068687439
vt 0.6209328770637512 0.2868775427341461
vt 0.6648727059364319 0.3261569142341614
vt 0.6785355806350708 0.27435192465782166
vt 0.6209328770637512 0.34379008412361145
vt 0.555023193359375 0.3536403477191925
vt 0.5907652378082275 0.37285441160202026
vt 0.6550354361534119 0.373462438583374
vt 0.6949310302734375 0.3779619336128235
vt 0.7125288248062134 0.31302326917648315
vt 0.7499104142189026 0.3069428503513336
vt 0.72083580493927 0.27982428669929504
vt 0.7854338884353638 0.32518407702445984
vt 0.7761431336402893 0.2978222668170929
vt 0.8515622019767761 0.3790563941001892
vt 0.7548290491104126 0.23422127962112427
vt 0.6959147453308105 0.23932881653308868
vt 0.6474935412406921 0.2523408830165863
vt 0.6127351522445679 0.22145244479179382
vt 0.5765558481216431 0.25732681155204773
vt 0.5272602438926697 0.2349509298801422
vt 0.4937041997909546 0.2901609539985657
vt 0.41839441657066345 0.34135791659355164
vt 0.35937079787254333 0.40787750482559204
vt 0.3003471791744232 0.42538905143737793
vt 0.3208961486816406 0.485949844121933
vt 0.2753168046474457 0.5096634030342102
vt 0.24733524024486542 0.4548181891441345
vt 0.8297016024589539 0.3773539066314697
vt 0.23126769065856934 0.3976624310016632
vt 0.2313769906759262 0.34646546840667725
vt 0.24077706038951874 0.29174187779426575
vt 0.17825573682785034 0.3268865644931793
vt 0.1867813766002655 0.2736222743988037
vt 0.24842827022075653 0.23446449637413025
vt 0.25214457511901855 0.17840321362018585
vt 0.3339032232761383 0.14143437147140503
vt 0.3205682337284088 0.20807555317878723
vt 0.3936919569969177 0.18934792280197144
vt 0.47249940037727356 0.1805921494960785
vt 0.5013554096221924 0.12903036177158356
vt 0.5896722078323364 0.14642030000686646
vt 0.6437771916389465 0.11930172145366669
vt 0.7207265496253967 0.17207959294319153
vt 0.7911176681518555 0.184605211019516
vt 0.8374621272087097 0.2962413728237152
vt 0.6573308110237122 0.18886148929595947
vt 0.555023193359375 0.19178009033203125
vt 0.45304349064826965 0.22473585605621338
vt 0.43293172121047974 0.28639110922813416
vt 0.3686615526676178 0.30001121759414673
vt 0.36079174280166626 0.3524242639541626
vt 0.29608437418937683 0.3700574040412903
vt 0.3008936941623688 0.31837400794029236
vt 0.31018444895744324 0.2658393681049347
vt 0.3205682337284088 0.20807555317878723
vt 0.37981048226356506 0.2469901144504547
vt 0.5984164476394653 0.639905571937561
vt 0.5609255433082581 0.5685216784477234
vt 0.6231189370155334 0.6022070646286011
vt 0.6796286106109619 0.608287513256073
vt 0.7335149645805359 0.6076794266700745
vt 0.7347173094749451 0.6412432789802551
vt 0.5504324436187744 0.5072312355041504
vt 0.5365509986877441 0.4461840093135834
vt 0.5581929683685303 0.40799909830093384
vt 0.5335997939109802 0.3936493694782257
vt 0.6159049272537231 0.43463125824928284
vt 0.6404981017112732 0.4007026255130768
vt 0.6692448258399963 0.4656412899494171
vt 0.6928542852401733 0.4272131621837616
vt 0.5868303775787354 0.4712352752685547
vt 0.6378748416900635 0.4989618957042694
vt 0.6008211374282837 0.5349578857421875
vt 0.6474935412406921 0.565359890460968
vt 0.6818146705627441 0.5316744446754456
vt 0.7200707197189331 0.4975025951862335
vt 0.7428057193756104 0.4499538838863373
vt 0.7456476092338562 0.3813669681549072
vt 0.7981130480766296 0.3803941011428833
vt 0.7854338884353638 0.32518407702445984
vt 0.8297016024589539 0.3773539066314697
vt 0.8173503875732422 0.4978674352169037
vt 0.7905711531639099 0.477923721075058
vt 0.7583267688751221 0.5381196737289429
vt 0.7188683748245239 0.5668191313743591
vt 0.6814867258071899 0.5842090845108032
vt 0.727831244468689 0.5912623405456543
vt 0.7715524435043335 0.5703458189964294
vt 0.7802966833114624 0.5980724096298218
vt 0.8326528072357178 0.526323676109314
vt 0.8810740113258362 0.46661415696144104
vt 0.8342923521995544 0.5606171488761902
vt 0.8346202373504639 0.6181377172470093
vt 0.8972508907318115 0.597464382648468
vt 0.874078631401062 0.7374351620674133
vt 0.8033595681190491 0.7221125960350037
vt 0.7374498844146729 0.8220743536949158
vt 0.792538583278656 0.8553949594497681
vt 0.6411539316177368 0.8955255746841431
vt 0.6786448955535889 0.9402773380279541
vt 0.5408138036727905 0.98989337682724
vt 0.5297741889953613 0.9343185424804688
vt 0.41227346658706665 0.9463577270507812
vt 0.38636866211891174 0.9980411529541016
vt 0.2660260498523712 0.9757868647575378
vt 0.3102937638759613 0.928116500377655
vt 0.2374979704618454 0.8927286267280579
vt 0.18317437171936035 0.9272652864456177
vt 0.11682745069265366 0.8446934223175049
vt 0.2806726396083832 0.85588139295578
vt 0.34024277329444885 0.8831215500831604
vt 0.35314053297042847 0.8378834128379822
vt 0.32647061347961426 0.7809708714485168
vt 0.41347578167915344 0.8445718288421631
vt 0.4860529899597168 0.8404371738433838
vt 0.4220014214515686 0.9008763432502747
vt 0.5096624493598938 0.8877426981925964
vt 0.5585208535194397 0.8208582997322083
vt 0.5959025025367737 0.856854259967804
vt 0.6770053505897522 0.8089407086372375
vt 0.7451010942459106 0.7330573201179504
vt 0.7800780534744263 0.6617950201034546
vt 0.787619948387146 0.6212995648384094
vt 0.7241148948669434 0.6850221157073975
vt 0.6884821653366089 0.7390161156654358
vt 0.6457446813583374 0.7264904379844666
vt 0.6288027167320251 0.7914291620254517
s on
f 1/1/1 2/2/2 3/3/3
f 3/3/3 2/2/2 4/4/4
f 4/4/4 2/2/2 5/5/5
f 5/5/5 2/2/2 6/6/6
f 6/6/6 2/2/2 7/7/7
f 2/2/2 1/1/1 7/7/7
f 7/7/7 1/1/1 8/8/8
f 8/8/8 1/1/1 9/9/9
f 1/1/1 3/3/3 9/9/9
f 9/9/9 3/3/3 10/10/10
f 10/10/10 3/3/3 11/11/11
f 3/3/3 4/4/4 11/11/11
f 11/11/11 4/4/4 12/12/12
f 4/4/4 13/13/13 12/12/12
f 12/12/12 13/13/13 14/14/14
f 13/13/13 15/15/15 14/14/14
f 14/14/14 15/15/15 16/16/16
f 15/15/15 17/17/17 16/16/16
f 4/4/4 5/5/5 13/13/13
f 5/5/5 18/18/18 13/13/13
f 18/18/18 19/19/19 13/13/13
f 19/19/19 20/20/20 13/13/13
f 13/13/13 20/20/20 15/15/15
f 12/12/12 14/14/14 11/11/11
f 14/14/14 16/16/16 11/11/11
f 11/11/11 16/16/16 10/10/10
f 18/18/18 5/5/5 21/21/21
f 21/21/21 5/5/5 6/6/6
f 21/21/21 22/22/22 18/18/18
f 18/18/18 22/22/22 19/19/19
f 22/22/22 23/23/23 19/19/19
f 19/19/19 23/23/23 20/20/20
f 23/23/23 24/24/24 20/20/20
f 24/24/24 25/25/25 20/20/20
f 20/20/20 25/25/25 15/15/15
f 15/15/15 25/25/25 26/26/26
f 26/26/26 25/25/25 27/27/27
f 25/25/25 24/24/24 27/27/27
f 27/27/27 24/24/24 28/28/28
f 24/24/24 29/29/29 28/28/28
f 29/29/29 30/30/30 28/28/28
f 30/30/30 31/31/31 28/28/28
f 28/28/28 31/31/31 27/27/27
f 27/27/27 31/31/31 32/32/32
f 32/32/32 31/31/31 33/33/33
f 31/31/31 30/30/30 33/33/33
f 33/33/33 30/30/30 34/34/34
f 34/34/34 30/30/30 35/35/35
f 35/35/35 30/30/30 36/36/36
f 36/36/36 30/30/30 37/37/37
f 30/30/30 29/29/29 37/37/37
f 37/37/37 29/29/29 38/38/38
f 29/29/29 24/24/24 38/38/38
f 38/38/38 24/24/24 39/39/39
f 24/24/24 23/23/23 39/39/39
f 39/39/39 23/23/23 40/40/40
f 23/23/23 22/22/22 40/40/40
f 37/37/37 38/38/38 41/41/41
f 38/38/38 42/42/42 41/41/41
f 41/41/41 42/42/42 43/43/43
f 42/42/42 44/44/44 43/43/43
f 43/43/43 44/44/44 45/45/45
f 44/44/44 46/46/46 45/45/45
f 46/46/46 47/47/47 45/45/45
f 47/47/47 48/48/48 45/45/45
f 48/48/48 49/49/49 45/45/45
f 49/49/49 50/50/50 45/45/45
f 45/45/45 50/50/50 43/43/43
f 50/50/50 51/51/51 43/43/43
f 43/43/43 51/51/51 41/41/41
f 41/41/41 51/51/51 37/37/37
f 51/51/51 52/52/52 37/37/37
f 52/52/52 53/53/53 37/37/37
f 37/37/37 53/53/53 36/36/36
f 53/53/53 54/54/54 36/36/36
f 36/36/36 54/54/54 35/35/35
f 54/54/54 55/55/55 35/35/35
f 35/35/35 55/55/55 34/34/34
f 55/55/55 56/56/56 34/34/34
f 34/34/34 56/56/56 33/33/33
f 33/33/33 56/56/56 57/57/57
f 57/57/57 56/56/56 58/58/58
f 58/58/58 56/56/56 59/59/59
f 56/56/56 55/55/55 59/59/59
f 59/59/59 55/55/55 60/60/60
f 55/55/55 61/61/61 60/60/60
f 60/60/60 61/61/61 62/62/62
f 62/62/62 61/61/61 63/63/63
f 63/63/63 61/61/61 64/64/64
f 61/61/61 65/65/65 64/64/64
f 64/64/64 65/65/65 66/66/66
f 61/61/61 55/55/55 65/65/65
f 65/65/65 55/55/55 54/54/54
f 60/60/60 62/62/62 59/59/59
f 59/59/59 62/62/62 67/67/67
f 62/62/62 68/68/68 67/67/67
f 67/67/67 68/68/68 69/69/69
f 69/69/69 68/68/68 70/70/70
f 70/70/70 68/68/68 71/71/71
f 68/68/68 63/63/63 71/71/71
f 71/71/71 63/63/63 64/64/64
f 59/59/59 67/67/67 58/58/58
f 58/58/58 67/67/67 72/72/72
f 67/67/67 69/69/69 72/72/72
f 69/69/69 73/73/73 72/72/72
f 72/72/72 73/73/73 58/58/58
f 58/58/58 73/73/73 57/57/57
f 57/57/57 73/73/73 33/33/33
f 73/73/73 74/74/74 33/33/33
f 33/33/33 74/74/74 32/32/32
f 62/62/62 63/63/63 68/68/68
f 74/74/74 73/73/73 75/75/75
f 73/73/73 69/69/69 75/75/75
f 75/75/75 69/69/69 76/76/76
f 69/69/69 77/77/77 76/76/76
f 76/76/76 77/77/77 78/78/78
f 77/77/77 79/79/79 78/78/78
f 78/78/78 79/79/79 80/80/80
f 79/79/79 81/81/81 80/80/80
f 80/80/80 81/81/81 82/82/82
f 82/82/82 81/81/81 83/83/83
f 83/83/83 81/81/81 84/84/84
f 81/81/81 71/71/71 84/84/84
f 71/71/71 64/64/64 84/84/84
f 84/84/84 64/64/64 85/85/85
f 64/64/64 66/66/66 85/85/85
f 69/69/69 70/70/70 77/77/77
f 70/70/70 81/81/81 77/77/77
f 77/77/77 81/81/81 79/79/79
f 81/81/81 70/70/70 71/71/71
f 78/78/78 80/80/80 86/86/86
f 85/85/85 87/87/87 84/84/84
f 84/84/84 87/87/87 83/83/83
f 87/87/87 88/88/88 83/83/83
f 83/83/83 88/88/88 82/82/82
f 88/88/88 89/89/89 82/82/82
f 82/82/82 89/89/89 80/80/80
f 89/89/89 90/90/90 80/80/80
f 80/80/80 90/90/90 91/91/91
f 91/91/91 90/90/90 92/92/92
f 90/90/90 93/93/93 92/92/92
f 92/92/92 93/93/93 94/94/94
f 93/93/93 95/95/95 94/94/94
f 94/94/94 95/95/95 96/96/96
f 95/95/95 97/97/97 96/96/96
f 97/97/97 98/98/98 96/96/96
f 96/96/96 98/98/98 99/99/99
f 99/99/99 98/98/98 100/100/100
f 98/98/98 101/101/101 100/100/100
f 101/101/101 102/102/102 100/100/100
f 100/100/100 102/102/102 103/103/103
f 102/102/102 104/104/104 103/103/103
f 103/103/103 104/104/104 105/105/105
f 104/104/104 106/106/106 105/105/105
f 80/80/80 91/91/91 86/86/86
f 90/90/90 107/107/107 93/93/93
f 107/107/107 108/108/108 93/93/93
f 108/108/108 109/109/109 93/93/93
f 93/93/93 109/109/109 95/95/95
f 105/105/105 110/110/110 103/103/103
f 103/103/103 110/110/110 100/100/100
f 110/110/110 111/111/111 100/100/100
f 111/111/111 112/112/112 100/100/100
f 100/100/100 112/112/112 99/99/99
f 112/112/112 113/113/113 99/99/99
f 99/99/99 113/113/113 96/96/96
f 96/96/96 113/113/113 94/94/94
f 113/113/113 114/114/114 94/94/94
f 94/94/94 114/114/114 92/92/92
f 114/114/114 115/115/115 92/92/92
f 115/115/115 116/116/116 92/92/92
f 92/92/92 116/116/116 91/91/91
f 116/116/116 117/117/117 91/91/91
f 91/91/91 117/117/117 86/86/86
f 117/117/117 118/118/118 86/86/86
f 86/86/86 118/118/118 119/119/119
f 118/118/118 120/120/120 119/119/119
f 120/120/120 121/121/121 119/119/119
f 119/119/119 121/121/121 122/122/122
f 122/122/122 121/121/121 75/75/75
f 121/121/121 123/123/123 75/75/75
f 75/75/75 123/123/123 74/74/74
f 123/123/123 124/124/124 74/74/74
f 74/74/74 124/124/124 32/32/32
f 32/32/32 124/124/124 27/27/27
f 124/124/124 125/125/125 27/27/27
f 27/27/27 125/125/125 26/26/26
f 125/125/125 126/126/126 26/26/26
f 26/26/26 126/126/126 15/15/15
f 15/15/15 126/126/126 17/17/17
f 126/126/126 127/127/127 17/17/17
f 17/17/17 127/127/127 16/16/16
f 127/127/127 128/128/128 16/16/16
f 128/128/128 129/129/129 16/16/16
f 16/16/16 129/129/129 10/10/10
f 129/129/129 130/130/130 10/10/10
f 10/10/10 130/130/130 9/9/9
f 130/130/130 131/131/131 9/9/9
f 9/9/9 131/131/131 8/8/8
f 113/113/113 115/115/115 114/114/114
f 124/124/124 123/123/123 121/121/121
f 130/130/130 132/132/132 131/131/131
f 131/131/131 132/132/132 133/133/133
f 133/133/133 132/132/132 134/134/134
f 134/134/134 132/132/132 135/135/135
f 132/132/132 136/136/136 135/135/135
f 135/135/135 136/136/136 137/137/137
f 137/137/137 136/136/136 138/138/138
f 136/136/136 129/129/129 138/138/138
f 138/138/138 129/129/129 128/128/128
f 132/132/132 130/130/130 136/136/136
f 136/136/136 130/130/130 129/129/129
f 137/137/137 139/139/139 135/135/135
f 135/135/135 139/139/139 134/134/134
f 139/139/139 140/140/140 134/134/134
f 134/134/134 140/140/140 141/141/141
f 141/141/141 140/140/140 142/142/142
f 140/140/140 139/139/139 142/142/142
f 141/141/141 143/143/143 134/134/134
f 134/134/134 143/143/143 144/144/144
f 144/144/144 143/143/143 145/145/145
f 145/145/145 143/143/143 146/146/146
f 143/143/143 141/141/141 146/146/146
f 146/146/146 141/141/141 147/147/147
f 147/147/147 141/141/141 148/148/148
f 141/141/141 142/142/142 148/148/148
f 148/148/148 142/142/142 149/149/149
f 142/142/142 150/150/150 149/149/149
f 149/149/149 150/150/150 151/151/151
f 150/150/150 152/152/152 151/151/151
f 151/151/151 152/152/152 153/153/153
f 153/153/153 152/152/152 154/154/154
f 152/152/152 150/150/150 154/154/154
f 154/154/154 150/150/150 155/155/155
f 150/150/150 142/142/142 155/155/155
f 155/155/155 142/142/142 156/156/156
f 142/142/142 139/139/139 156/156/156
f 156/156/156 139/139/139 157/157/157
f 139/139/139 158/158/158 157/157/157
f 157/157/157 158/158/158 159/159/159
f 158/158/158 137/137/137 159/159/159
f 159/159/159 137/137/137 160/160/160
f 137/137/137 138/138/138 160/160/160
f 160/160/160 138/138/138 161/161/161
f 138/138/138 128/128/128 161/161/161
f 128/128/128 127/127/127 161/161/161
f 161/161/161 127/127/127 162/162/162
f 127/127/127 126/126/126 162/162/162
f 162/162/162 126/126/126 163/163/163
f 163/163/163 126/126/126 164/164/164
f 126/126/126 125/125/125 164/164/164
f 125/125/125 124/124/124 164/164/164
f 164/164/164 124/124/124 165/165/165
f 124/124/124 121/121/121 165/165/165
f 121/121/121 166/166/166 165/165/165
f 166/166/166 163/163/163 165/165/165
f 165/165/165 163/163/163 164/164/164
f 151/151/151 153/153/153 167/167/167
f 157/157/157 155/155/155 156/156/156
f 139/139/139 137/137/137 158/158/158
f 121/121/121 120/120/120 166/166/166
f 120/120/120 168/168/168 166/166/166
f 166/166/166 168/168/168 163/163/163
f 120/120/120 118/118/118 168/168/168
f 118/118/118 117/117/117 168/168/168
f 168/168/168 117/117/117 169/169/169
f 169/169/169 117/117/117 170/170/170
f 170/170/170 117/117/117 171/171/171
f 117/117/117 116/116/116 171/171/171
f 116/116/116 115/115/115 171/171/171
f 171/171/171 115/115/115 172/172/172
f 115/115/115 113/113/113 172/172/172
f 172/172/172 113/113/113 173/173/173
f 113/113/113 174/174/174 173/173/173
f 174/174/174 175/175/175 173/173/173
f 173/173/173 175/175/175 176/176/176
f 175/175/175 110/110/110 176/176/176
f 176/176/176 110/110/110 177/177/177
f 177/177/177 110/110/110 178/178/178
f 110/110/110 179/179/179 178/178/178
f 178/178/178 179/179/179 180/180/180
f 179/179/179 105/105/105 180/180/180
f 180/180/180 105/105/105 181/181/181
f 105/105/105 106/106/106 181/181/181
f 181/181/181 106/106/106 182/182/182
f 106/106/106 183/183/183 182/182/182
f 183/183/183 184/184/184 182/182/182
f 182/182/182 184/184/184 154/154/154
f 184/184/184 153/153/153 154/154/154
f 172/172/172 173/173/173 171/171/171
f 173/173/173 170/170/170 171/171/171
f 110/110/110 105/105/105 179/179/179
f 181/181/181 182/182/182 180/180/180
f 180/180/180 182/182/182 185/185/185
f 182/182/182 155/155/155 185/185/185
f 155/155/155 157/157/157 185/185/185
f 185/185/185 157/157/157 180/180/180
f 157/157/157 186/186/186 180/180/180
f 180/180/180 186/186/186 178/178/178
f 186/186/186 187/187/187 178/178/178
f 178/178/178 187/187/187 177/177/177
f 182/182/182 154/154/154 155/155/155
f 157/157/157 159/159/159 186/186/186
f 186/186/186 159/159/159 187/187/187
f 187/187/187 159/159/159 188/188/188
f 159/159/159 160/160/160 188/188/188
f 160/160/160 161/161/161 188/188/188
f 188/188/188 161/161/161 189/189/189
f 161/161/161 190/190/190 189/189/189
f 189/189/189 190/190/190 191/191/191
f 190/190/190 163/163/163 191/191/191
f 163/163/163 168/168/168 191/191/191
f 191/191/191 168/168/168 192/192/192
f 168/168/168 169/169/169 192/192/192
f 169/169/169 170/170/170 192/192/192
f 192/192/192 170/170/170 193/193/193
f 170/170/170 173/173/173 193/193/193
f 173/173/173 194/194/194 193/193/193
f 194/194/194 177/177/177 193/193/193
f 193/193/193 177/177/177 195/195/195
f 177/177/177 187/187/187 195/195/195
f 187/187/187 188/188/188 195/195/195
f 188/188/188 189/189/189 195/195/195
f 195/195/195 189/189/189 192/192/192
f 189/189/189 191/191/191 192/192/192
f 161/161/161 162/162/162 190/190/190
f 162/162/162 163/163/163 190/190/190
f 195/195/195 192/192/192 193/193/193
f 22/22/22 197/197/197 196/196/196
f 197/197/197 198/198/198 196/196/196
f 196/196/196 198/198/198 46/46/46
f 198/198/198 199/199/199 46/46/46
f 199/199/199 200/200/200 46/46/46
f 46/46/46 200/200/200 47/47/47
f 200/200/200 201/201/201 47/47/47
f 47/47/47 201/201/201 48/48/48
f 22/22/22 21/21/21 197/197/197
f 197/197/197 21/21/21 202/202/202
f 21/21/21 6/6/6 202/202/202
f 6/6/6 7/7/7 202/202/202
f 202/202/202 7/7/7 203/203/203
f 7/7/7 8/8/8 203/203/203
f 203/203/203 8/8/8 204/204/204
f 8/8/8 205/205/205 204/204/204
f 205/205/205 144/144/144 204/204/204
f 144/144/144 145/145/145 204/204/204
f 204/204/204 145/145/145 206/206/206
f 145/145/145 207/207/207 206/206/206
f 206/206/206 207/207/207 208/208/208
f 208/208/208 207/207/207 209/209/209
f 207/207/207 146/146/146 209/209/209
f 209/209/209 146/146/146 147/147/147
f 204/204/204 206/206/206 203/203/203
f 203/203/203 206/206/206 210/210/210
f 206/206/206 211/211/211 210/210/210
f 210/210/210 211/211/211 202/202/202
f 211/211/211 212/212/212 202/202/202
f 202/202/202 212/212/212 197/197/197
f 197/197/197 212/212/212 198/198/198
f 198/198/198 212/212/212 213/213/213
f 213/213/213 212/212/212 214/214/214
f 212/212/212 211/211/211 214/214/214
f 214/214/214 211/211/211 215/215/215
f 211/211/211 208/208/208 215/215/215
f 208/208/208 209/209/209 215/215/215
f 215/215/215 209/209/209 216/216/216
f 216/216/216 209/209/209 217/217/217
f 209/209/209 147/147/147 217/217/217
f 147/147/147 148/148/148 217/217/217
f 217/217/217 148/148/148 218/218/218
f 148/148/148 149/149/149 218/218/218
f 149/149/149 219/219/219 218/218/218
f 219/219/219 220/220/220 218/218/218
f 220/220/220 221/221/221 218/218/218
f 221/221/221 222/222/222 218/218/218
f 218/218/218 222/222/222 217/217/217
f 217/217/217 222/222/222 216/216/216
f 216/216/216 222/222/222 215/215/215
f 222/222/222 223/223/223 215/215/215
f 223/223/223 224/224/224 215/215/215
f 215/215/215 224/224/224 214/214/214
f 224/224/224 225/225/225 214/214/214
f 214/214/214 225/225/225 213/213/213
f 213/213/213 225/225/225 198/198/198
f 198/198/198 225/225/225 199/199/199
f 199/199/199 225/225/225 226/226/226
f 225/225/225 224/224/224 226/226/226
f 224/224/224 223/223/223 226/226/226
f 226/226/226 223/223/223 227/227/227
f 227/227/227 223/223/223 221/221/221
f 223/223/223 222/222/222 221/221/221
f 146/146/146 207/207/207 145/145/145
f 211/211/211 206/206/206 208/208/208
f 203/203/203 210/210/210 202/202/202
f 199/199/199 226/226/226 200/200/200
f 226/226/226 227/227/227 200/200/200
f 200/200/200 227/227/227 228/228/228
f 228/228/228 227/227/227 229/229/229
f 227/227/227 221/221/221 229/229/229
f 221/221/221 167/167/167 229/229/229
f 167/167/167 153/153/153 229/229/229
f 153/153/153 230/230/230 229/229/229
f 229/229/229 230/230/230 231/231/231
f 231/231/231 230/230/230 232/232/232
f 230/230/230 233/233/233 232/232/232
f 233/233/233 234/234/234 232/232/232
f 232/232/232 234/234/234 235/235/235
f 235/235/235 234/234/234 236/236/236
f 234/234/234 237/237/237 236/236/236
f 236/236/236 237/237/237 238/238/238
f 237/237/237 239/239/239 238/238/238
f 239/239/239 240/240/240 238/238/238
f 238/238/238 240/240/240 241/241/241
f 241/241/241 240/240/240 242/242/242
f 240/240/240 243/243/243 242/242/242
f 243/243/243 244/244/244 242/242/242
f 242/242/242 244/244/244 245/245/245
f 245/245/245 244/244/244 246/246/246
f 244/244/244 247/247/247 246/246/246
f 247/247/247 248/248/248 246/246/246
f 246/246/246 248/248/248 87/87/87
f 248/248/248 88/88/88 87/87/87
f 87/87/87 85/85/85 246/246/246
f 85/85/85 249/249/249 246/246/246
f 246/246/246 249/249/249 250/250/250
f 250/250/250 249/249/249 251/251/251
f 249/249/249 66/66/66 251/251/251
f 66/66/66 252/252/252 251/251/251
f 252/252/252 54/54/54 251/251/251
f 54/54/54 53/53/53 251/251/251
f 251/251/251 53/53/53 253/253/253
f 53/53/53 52/52/52 253/253/253
f 253/253/253 52/52/52 254/254/254
f 52/52/52 51/51/51 254/254/254
f 85/85/85 66/66/66 249/249/249
f 246/246/246 250/250/250 245/245/245
f 245/245/245 250/250/250 255/255/255
f 250/250/250 251/251/251 255/255/255
f 251/251/251 253/253/253 255/255/255
f 253/253/253 254/254/254 255/255/255
f 255/255/255 254/254/254 256/256/256
f 254/254/254 257/257/257 256/256/256
f 257/257/257 258/258/258 256/256/256
f 256/256/256 258/258/258 238/238/238
f 258/258/258 259/259/259 238/238/238
f 238/238/238 259/259/259 236/236/236
f 259/259/259 260/260/260 236/236/236
f 236/236/236 260/260/260 235/235/235
f 260/260/260 261/261/261 235/235/235
f 235/235/235 261/261/261 232/232/232
f 261/261/261 262/262/262 232/232/232
f 232/232/232 262/262/262 231/231/231
f 231/231/231 262/262/262 229/229/229
f 229/229/229 262/262/262 228/228/228
f 228/228/228 262/262/262 200/200/200
f 200/200/200 262/262/262 201/201/201
f 262/262/262 263/263/263 201/201/201
f 201/201/201 263/263/263 48/48/48
f 245/245/245 255/255/255 242/242/242
f 242/242/242 255/255/255 241/241/241
f 255/255/255 256/256/256 241/241/241
f 241/241/241 256/256/256 238/238/238
f 51/51/51 257/257/257 254/254/254
f 262/262/262 261/261/261 263/263/263
f 261/261/261 264/264/264 263/263/263
f 263/263/263 264/264/264 48/48/48
f 48/48/48 264/264/264 265/265/265
f 264/264/264 266/266/266 265/265/265
f 265/265/265 266/266/266 50/50/50
f 50/50/50 266/266/266 51/51/51
f 51/51/51 266/266/266 257/257/257
f 257/257/257 266/266/266 258/258/258
f 258/258/258 266/266/266 259/259/259
f 259/259/259 266/266/266 260/260/260
f 266/266/266 264/264/264 260/260/260
f 260/260/260 264/264/264 261/261/261

