# Exported by Sketchfab Model Ripper robust edition
o model_27
v -0.21113397181034088 -1.009956955909729 -0.2759145498275757
v -0.21535919606685638 -1.0110782384872437 -0.27847373485565186
v -0.20997409522533417 -1.0117119550704956 -0.27431026101112366
v -0.21560773253440857 -1.01205313205719 -0.2779771685600281
v -0.2209928333759308 -1.0119068622589111 -0.2837449312210083
v -0.2192944586277008 -1.009956955909729 -0.2830955684185028
v -0.2150278091430664 -1.007275938987732 -0.2803453803062439
v -0.20334629714488983 -1.0073246955871582 -0.2724386155605316
v -0.20214499533176422 -1.0105419158935547 -0.27144548296928406
v -0.2036362588405609 -1.0130767822265625 -0.26923006772994995
v -0.21142393350601196 -1.013808012008667 -0.2734317183494568
v -0.21610482037067413 -1.0132718086242676 -0.27728962898254395
v -0.22186273336410522 -1.0156116485595703 -0.2825608253479004
v -0.21444787085056305 -1.019121527671814 -0.2740810811519623
v -0.21548347175121307 -1.028237223625183 -0.27862653136253357
v -0.20570744574069977 -1.019413948059082 -0.26819872856140137
v -0.2052517831325531 -1.0289684534072876 -0.27156007289886475
v -0.22753779590129852 -1.0108344554901123 -0.29275941848754883
v -0.22832484543323517 -1.0139542818069458 -0.2918044924736023
v -0.2249280959367752 -1.024727463722229 -0.2878701984882355
v -0.22554944455623627 -1.008202075958252 -0.291919082403183
v -0.2306859940290451 -1.0106881856918335 -0.30589917302131653
v -0.22861480712890625 -1.020242691040039 -0.3014683425426483
v -0.21867309510707855 -1.0059109926223755 -0.2896272540092468
v -0.2277449071407318 -1.0069833993911743 -0.30486786365509033
v -0.2221941202878952 -1.0080071687698364 -0.3247303068637848
v -0.2066187709569931 -1.0052772760391235 -0.2763347029685974
v -0.19468872249126434 -1.0032298564910889 -0.2751505970954895
v -0.19328030943870544 -1.004546046257019 -0.26938286423683167
v -0.18039751052856445 -1.0009875297546387 -0.2682369351387024
v -0.18217873573303223 -1.0008900165557861 -0.2764874994754791
v -0.17169851064682007 -0.9990376234054565 -0.28026899695396423
v -0.17571662366390228 -0.999768853187561 -0.2880229949951172
v -0.16357944905757904 -0.9973315000534058 -0.28825217485427856
v -0.17211274802684784 -0.9983551502227783 -0.295356810092926
v -0.15604031085968018 -0.9939679503440857 -0.2973812520503998
v -0.15077948570251465 -0.9945529103279114 -0.29203367233276367
v -0.1571173369884491 -0.9972339868545532 -0.28068915009498596
v -0.15496329963207245 -0.9996713399887085 -0.2777479887008667
v -0.1670176237821579 -0.9982576966285706 -0.2722858190536499
v -0.165609210729599 -0.9999150633811951 -0.2702995836734772
v -0.18043893575668335 -1.002596139907837 -0.268007755279541
v -0.18039751052856445 -1.0009875297546387 -0.2682369351387024
v -0.19328030943870544 -1.004546046257019 -0.26938286423683167
v -0.1925346851348877 -1.0070809125900269 -0.26858070492744446
v -0.19348742067813873 -1.010785698890686 -0.2672438323497772
v -0.18085317313671112 -1.0077146291732788 -0.2682369351387024
v -0.165609210729599 -0.9999150633811951 -0.2702995836734772
v -0.16523639857769012 -1.004887342453003 -0.26949745416641235
v -0.18122598528862 -1.0157579183578491 -0.26594510674476624
v -0.19460587203502655 -1.0173178911209106 -0.2656777501106262
v -0.19332173466682434 -1.0273109674453735 -0.2680841386318207
v -0.2038433849811554 -1.0392053127288818 -0.2762964963912964
v -0.18060462176799774 -1.025653600692749 -0.26816055178642273
v -0.19170621037483215 -1.0381816625595093 -0.27247679233551025
v -0.16639626026153564 -1.013808012008667 -0.2691536545753479
v -0.15504613518714905 -1.0128331184387207 -0.2764874994754791
v -0.1540519744157791 -1.0043997764587402 -0.2768694758415222
v -0.1487497240304947 -1.0056672096252441 -0.28890150785446167
v -0.14899826049804688 -0.9989401698112488 -0.2896272540092468
v -0.1458914875984192 -0.9984039068222046 -0.30162110924720764
v -0.1485425978899002 -0.9921642541885376 -0.3007807731628418
v -0.15169081091880798 -0.9898731708526611 -0.30486786365509033
v -0.15305779874324799 -0.9888007044792175 -0.31139954924583435
v -0.16113543510437012 -0.9902144074440002 -0.3120107054710388
v -0.15305779874324799 -0.9888007044792175 -0.31139954924583435
v -0.15811149775981903 -0.9890444874763489 -0.3173200786113739
v -0.17082861065864563 -0.9906530976295471 -0.32220929861068726
v -0.17476387321949005 -0.990165650844574 -0.31701451539993286
v -0.16681049764156342 -0.994942843914032 -0.3039511442184448
v -0.18217873573303223 -1.0000126361846924 -0.29967308044433594
v -0.18350429832935333 -1.0014749765396118 -0.2881757616996765
v -0.19423305988311768 -1.0037660598754883 -0.28859594464302063
v -0.20583172142505646 -1.0047410726547241 -0.2894744575023651
v -0.20421619713306427 -1.0022062063217163 -0.3027288317680359
v -0.19299034774303436 -1.0015724897384644 -0.3016975224018097
v -0.19058775901794434 -0.9958690404891968 -0.31281283497810364
v -0.17882339656352997 -0.995771586894989 -0.30933690071105957
v -0.20168933272361755 -0.996405303478241 -0.3147226870059967
v -0.21610482037067413 -1.003424882888794 -0.30383655428886414
v -0.2195015698671341 -1.0011825561523438 -0.3217891454696655
v -0.1683017611503601 -1.0242398977279663 -0.26972663402557373
v -0.18752239644527435 -0.9897269010543823 -0.3218655288219452
v -0.19845828413963318 -0.9905556440353394 -0.3256088197231293
v -0.20777863264083862 -0.9929442405700684 -0.3255324363708496
v -0.21171389520168304 -0.9979164600372314 -0.3170526921749115
v -0.1980854719877243 -0.9886544942855835 -0.3317585587501526
v -0.2096427083015442 -0.9933342337608337 -0.3309946060180664
v -0.21142393350601196 -0.9958203434944153 -0.33416494727134705
v -0.1966770589351654 -0.9906043410301208 -0.3351580798625946
v -0.18603114783763885 -0.9903606176376343 -0.32793885469436646
v -0.16917166113853455 -0.9937241673469543 -0.32534146308898926
v -0.15811149775981903 -0.9890444874763489 -0.3173200786113739
v -0.18424992263317108 -0.9938216805458069 -0.3309946060180664
v -0.1825101226568222 -0.9975752234458923 -0.3321405351161957
v -0.1937359720468521 -0.996405303478241 -0.33913058042526245
v -0.20695015788078308 -1.0025473833084106 -0.3408876359462738
v -0.20177218317985535 -1.0079096555709839 -0.3438670039176941
v -0.21428216993808746 -1.0127843618392944 -0.3359602093696594
v -0.1923689842224121 -1.0051310062408447 -0.3408494293689728
v -0.18197160959243774 -1.0030837059020996 -0.33259889483451843
v -0.16958589851856232 -1.0024012327194214 -0.32690754532814026
v -0.16908881068229675 -0.9969415068626404 -0.3266783356666565
v -0.15666167438030243 -0.9962102770805359 -0.3215981423854828
v -0.1570759117603302 -0.9914818406105042 -0.31999388337135315
v -0.149992436170578 -0.9914330840110779 -0.31193432211875916
v -0.14746558666229248 -0.9982089400291443 -0.3140351474285126
v -0.15666167438030243 -0.9962102770805359 -0.3215981423854828
v -0.14816978573799133 -1.0063984394073486 -0.3140351474285126
v -0.15670309960842133 -1.0043023824691772 -0.32209470868110657
v -0.15670309960842133 -1.0043023824691772 -0.32209470868110657
v -0.15790438652038574 -1.0142467021942139 -0.32049044966697693
v -0.15048952400684357 -1.0157579183578491 -0.31193432211875916
v -0.15454906225204468 -1.0251661539077759 -0.30803820490837097
v -0.16171537339687347 -1.023898720741272 -0.3159831762313843
v -0.15914709866046906 -1.0339406728744507 -0.30360737442970276
v -0.16598202288150787 -1.03316068649292 -0.3110939860343933
v -0.16179822385311127 -1.0442750453948975 -0.30032241344451904
v -0.1685917228460312 -1.0436900854110718 -0.3079618215560913
v -0.16498784720897675 -1.054755687713623 -0.30895495414733887
v -0.1585257351398468 -1.0549994707107544 -0.3005515933036804
v -0.1541348248720169 -1.0637251138687134 -0.3021176755428314
v -0.15960276126861572 -1.0634814500808716 -0.31178152561187744
v -0.15823577344417572 -1.0719634294509888 -0.31178152561187744
v -0.15380342304706573 -1.0725971460342407 -0.3009335696697235
v -0.15811149775981903 -1.0799092054367065 -0.29810699820518494
v -0.16233673691749573 -1.078885555267334 -0.30738887190818787
v -0.1668519228696823 -1.08302903175354 -0.3036837577819824
v -0.1654849350452423 -1.0845402479171753 -0.29654091596603394
v -0.165609210729599 -1.084783911705017 -0.28702986240386963
v -0.15798723697662354 -1.0803967714309692 -0.2884049415588379
v -0.15334776043891907 -1.0728896856307983 -0.29031479358673096
v -0.15314064919948578 -1.0645538568496704 -0.2918044924736023
v -0.15471474826335907 -1.0551456212997437 -0.29146072268486023
v -0.155791774392128 -1.0447624921798706 -0.29211005568504333
v -0.15533611178398132 -1.034623146057129 -0.2944018840789795
v -0.15227074921131134 -1.0250686407089233 -0.2974194586277008
v -0.1484183371067047 -1.0156116485595703 -0.30047520995140076
v -0.14614002406597137 -1.0065934658050537 -0.30204129219055176
v -0.15036524832248688 -1.0142467021942139 -0.28809937834739685
v -0.1543419361114502 -1.024093747138977 -0.2864951193332672
v -0.15732444822788239 -1.0345256328582764 -0.2846616506576538
v -0.15740729868412018 -1.0453474521636963 -0.28328657150268555
v -0.155791774392128 -1.0447624921798706 -0.29211005568504333
v -0.15628886222839355 -1.0559256076812744 -0.28279000520706177
v -0.155791774392128 -1.065577507019043 -0.2834393382072449
v -0.15533611178398132 -1.0725971460342407 -0.28416508436203003
v -0.15906424820423126 -1.0762044191360474 -0.27977243065834045
v -0.16034838557243347 -1.068161129951477 -0.2768694758415222
v -0.16088689863681793 -1.0577292442321777 -0.27610552310943604
v -0.16204676032066345 -1.0463224649429321 -0.27664026618003845
v -0.16179822385311127 -1.0348180532455444 -0.27652567625045776
v -0.1586500108242035 -1.0237524509429932 -0.2759145498275757
v -0.16946162283420563 -1.035549283027649 -0.2709871232509613
v -0.17985899746418 -1.0368167161941528 -0.27052876353263855
v -0.19050490856170654 -1.0503684282302856 -0.27469223737716675
v -0.19460587203502655 -1.014929175376892 -0.33767908811569214
v -0.2050860971212387 -1.0158554315567017 -0.34146058559417725
v -0.17890624701976776 -1.049149751663208 -0.2721712291240692
v -0.16925451159477234 -1.047589898109436 -0.2725149989128113
v -0.1683017611503601 -1.0599229335784912 -0.2721330225467682
v -0.1783677339553833 -1.0615803003311157 -0.2712163031101227
v -0.18992498517036438 -1.0624090433120728 -0.27484503388404846
v -0.2023935467004776 -1.0621165037155151 -0.2785501182079315
v -0.20289063453674316 -1.050612211227417 -0.27820634841918945
v -0.2138679325580597 -1.0494422912597656 -0.28542560338974
v -0.21544204652309418 -1.0386203527450562 -0.282331645488739
v -0.22173845767974854 -1.0479798316955566 -0.29371434450149536
v -0.2221941202878952 -1.0358418226242065 -0.29237744212150574
v -0.2237682193517685 -1.033989429473877 -0.3037601411342621
v -0.22302259504795074 -1.022143840789795 -0.3183514177799225
v -0.21714042127132416 -1.0246787071228027 -0.33015426993370056
v -0.20740582048892975 -1.0263360738754272 -0.3356928527355194
v -0.2050860971212387 -1.0158554315567017 -0.34146058559417725
v -0.20831714570522308 -1.0374504327774048 -0.3317967355251312
v -0.21842455863952637 -1.0362805128097534 -0.3258762061595917
v -0.22306402027606964 -1.0345743894577026 -0.3152574598789215
v -0.21842455863952637 -1.0473461151123047 -0.3235844075679779
v -0.20777863264083862 -1.048223614692688 -0.32870277762413025
v -0.20707443356513977 -1.0579242706298828 -0.32690754532814026
v -0.21743038296699524 -1.0580217838287354 -0.3218655288219452
v -0.20686732232570648 -1.0659675598144531 -0.32790064811706543
v -0.21830028295516968 -1.065577507019043 -0.32270586490631104
v -0.22310544550418854 -1.0575342178344727 -0.313042014837265
v -0.22298116981983185 -1.0463224649429321 -0.31350037455558777
v -0.22310544550418854 -1.0464686155319214 -0.3036455512046814
v -0.22530090808868408 -1.0580705404281616 -0.30295801162719727
v -0.2234782576560974 -1.0593866109848022 -0.2928358018398285
v -0.22675074636936188 -1.0666500329971313 -0.30253785848617554
v -0.22463811933994293 -1.0656750202178955 -0.3136531710624695
v -0.21718184649944305 -1.072645902633667 -0.32075780630111694
v -0.22339540719985962 -1.0723047256469727 -0.31243085861206055
v -0.22476239502429962 -1.0731333494186401 -0.3028816282749176
v -0.2221112698316574 -1.0765944719314575 -0.3037601411342621
v -0.22045432031154633 -1.0768381357192993 -0.309642493724823
v -0.2150692343711853 -1.0772769451141357 -0.316135972738266
v -0.20550033450126648 -1.077423095703125 -0.31984108686447144
v -0.20624595880508423 -1.072645902633667 -0.3256470263004303
v -0.1939430832862854 -1.0647976398468018 -0.3248831033706665
v -0.1953514963388443 -1.0567055940628052 -0.32285866141319275
v -0.20777863264083862 -1.048223614692688 -0.32870277762413025
v -0.19692561030387878 -1.0466148853302002 -0.32419553399086
v -0.20831714570522308 -1.0374504327774048 -0.3317967355251312
v -0.18313147127628326 -1.0550968647003174 -0.31949731707572937
v -0.18159879744052887 -1.063822627067566 -0.31957370042800903
v -0.18068747222423553 -1.0708422660827637 -0.3217127323150635
v -0.19332173466682434 -1.072012186050415 -0.325761616230011
v -0.18168164789676666 -1.0781055688858032 -0.31858059763908386
v -0.19348742067813873 -1.0777643918991089 -0.32075780630111694
v -0.16821891069412231 -1.0706959962844849 -0.31972649693489075
v -0.16942019760608673 -1.0633351802825928 -0.3172054886817932
v -0.17294122278690338 -1.054560661315918 -0.3153720498085022
v -0.17542664706707 -1.0441287755966187 -0.31541022658348083
v -0.1685917228460312 -1.0436900854110718 -0.3079618215560913
v -0.16498784720897675 -1.054755687713623 -0.30895495414733887
v -0.15960276126861572 -1.0634814500808716 -0.31178152561187744
v -0.15823577344417572 -1.0719634294509888 -0.31178152561187744
v -0.18565833568572998 -1.0450550317764282 -0.3200320601463318
v -0.19750553369522095 -1.0363292694091797 -0.32832083106040955
v -0.19758838415145874 -1.0253124237060547 -0.33198773860931396
v -0.20740582048892975 -1.0263360738754272 -0.3356928527355194
v -0.18366998434066772 -1.0123456716537476 -0.3292757570743561
v -0.1711599975824356 -1.0121506452560425 -0.32366079092025757
v -0.15790438652038574 -1.0142467021942139 -0.32049044966697693
v -0.1726098358631134 -1.0231674909591675 -0.3215217590332031
v -0.1854097843170166 -1.0238499641418457 -0.32453930377960205
v -0.18619683384895325 -1.034720540046692 -0.32274407148361206
v -0.17484672367572784 -1.0335993766784668 -0.31816041469573975
v -0.16171537339687347 -1.023898720741272 -0.3159831762313843
v -0.16598202288150787 -1.03316068649292 -0.3110939860343933
v -0.22190415859222412 -1.0759607553482056 -0.2938671410083771
v -0.21842455863952637 -1.0794217586517334 -0.29906192421913147
v -0.22430673241615295 -1.0688436031341553 -0.2916899025440216
v -0.21349512040615082 -1.0607515573501587 -0.2861895263195038
v -0.20206215977668762 -1.0733283758163452 -0.2799634337425232
v -0.1898007094860077 -1.0743520259857178 -0.2751888036727905
v -0.17795349657535553 -1.0739620923995972 -0.27194204926490784
v -0.18942789733409882 -1.0848326683044434 -0.27843552827835083
v -0.20218642055988312 -1.0829315185546875 -0.28133851289749146
v -0.21424074470996857 -1.0803967714309692 -0.2866097092628479
v -0.215110644698143 -1.0720609426498413 -0.2842796742916107
v -0.21109254658222198 -1.0834678411483765 -0.29382893443107605
v -0.20218642055988312 -1.0829315185546875 -0.28133851289749146
v -0.21573200821876526 -1.0805916786193848 -0.3054408133029938
v -0.21270807087421417 -1.0802505016326904 -0.311208575963974
v -0.20579029619693756 -1.0816154479980469 -0.31113216280937195
v -0.2082757204771042 -1.0841015577316284 -0.3019648790359497
v -0.19787834584712982 -1.0865389108657837 -0.2993674874305725
v -0.20023950934410095 -1.086880087852478 -0.2897036671638489
v -0.18627968430519104 -1.0874162912368774 -0.29787781834602356
v -0.18785378336906433 -1.08843994140625 -0.28783199191093445
v -0.18942789733409882 -1.0848326683044434 -0.27843552827835083
v -0.1953100711107254 -1.08302903175354 -0.31021544337272644
v -0.18424992263317108 -1.0841015577316284 -0.30868756771087646
v -0.17053864896297455 -1.0785930156707764 -0.3146844804286957
v -0.16233673691749573 -1.078885555267334 -0.30738887190818787
v -0.1738939732313156 -1.0840040445327759 -0.30631935596466064
v -0.17509526014328003 -1.0868313312530518 -0.29696106910705566
v -0.1668519228696823 -1.08302903175354 -0.3036837577819824
v -0.1654849350452423 -1.0845402479171753 -0.29654091596603394
v -0.17592373490333557 -1.0872212648391724 -0.28702986240386963
v -0.17729072272777557 -1.0838090181350708 -0.2766020894050598
v -0.16676907241344452 -1.0807867050170898 -0.2772132456302643
v -0.16739043593406677 -1.0716222524642944 -0.2723240256309509
vn -0.48315298557281494 0.37152814865112305 0.7927988767623901
vn -0.6055510640144348 0.395270973443985 0.6907016038894653
vn -0.41965624690055847 0.5814527273178101 0.6969945430755615
vn -0.602553129196167 0.4787970185279846 0.6385006904602051
vn -0.705126941204071 0.3766309916973114 0.6007870435714722
vn -0.5921947360038757 0.6268751621246338 0.5062933564186096
vn -0.517169713973999 0.6701160073280334 0.5324283838272095
vn -0.3858569264411926 0.6080132126808167 0.6938546895980835
vn -0.3900044858455658 0.41663312911987305 0.8211658596992493
vn -0.3634949326515198 0.44458967447280884 0.8186644315719604
vn -0.5174248218536377 0.33497142791748047 0.7874425053596497
vn -0.6606759428977966 0.27875784039497375 0.6969945430755615
vn -0.772367000579834 0.007535836659371853 0.6351318359375
vn -0.6721577644348145 -0.07519238442182541 0.736579954624176
vn -0.6578578352928162 -0.29289716482162476 0.6938546895980835
vn -0.38655149936676025 -0.1149265319108963 0.9150791168212891
vn -0.3856521248817444 -0.38032814860343933 0.8406086564064026
vn -0.812869668006897 0.3938506841659546 0.42909738421440125
vn -0.9475388526916504 -0.07163899391889572 0.31150925159454346
vn -0.8878122568130493 -0.2749817669391632 0.3690181374549866
vn -0.6209887266159058 0.7156117558479309 0.3198012113571167
vn -0.9885350465774536 0.07921992242336273 -0.12854042649269104
vn -0.9551880955696106 -0.25757089257240295 -0.1458524912595749
vn -0.22987493872642517 0.9587100148200989 0.16742929816246033
vn -0.5427922010421753 0.839523196220398 0.024029340595006943
vn -0.8969048261642456 0.06793531775474548 -0.43697428703308105
vn -0.16899891197681427 0.9777587652206421 0.1242060661315918
vn -0.20986148715019226 0.9727919101715088 0.0981530249118805
vn -0.3057591915130615 0.909294068813324 0.28230419754981995
vn -0.20062793791294098 0.975964367389679 0.08510008454322815
vn -0.18767400085926056 0.9822095036506653 -0.006554040592163801
vn -0.18022020161151886 0.9834297895431519 0.01966099627315998
vn -0.19696807861328125 0.9793366193771362 0.04586252197623253
vn -0.1728096902370453 0.9800524711608887 0.0981530249118805
vn -0.22253118455410004 0.9604411721229553 0.16742929816246033
vn -0.24071471393108368 0.9335784316062927 0.26549527049064636
vn 0.2804142236709595 0.9020746946334839 0.3280687630176544
vn 0.02264292910695076 0.9800412654876709 0.1975002884864807
vn 0.6761069893836975 0.45487770438194275 0.5796254277229309
vn -0.043388642370700836 0.9757372140884399 0.21460255980491638
vn 0.12949791550636292 0.801954448223114 0.5831804275512695
vn 0.026092717424035072 0.17191840708255768 0.9847655892372131
vn 0.07178129255771637 0.13923628628253937 0.9876541495323181
vn -0.2460547536611557 0.2010217010974884 0.9481810927391052
vn -0.18394717574119568 0.2985553741455078 0.9364978075027466
vn -0.11015031486749649 0.27575555443763733 0.9548956751823425
vn 0.04068947210907936 0.17348045110702515 0.9839963912963867
vn 0.2480708360671997 0.08851149678230286 0.9646899104118347
vn 0.3435281813144684 0.10371726751327515 0.933397650718689
vn 0.10272310674190521 0.036507800221443176 0.9940398335456848
vn -0.05659066513180733 -0.08805679529905319 0.9945066571235657
vn -0.11999130249023438 -0.34250855445861816 0.931820809841156
vn -0.37901708483695984 -0.303288072347641 0.87427818775177
vn 0.07539025694131851 -0.2077426165342331 0.9752739667892456
vn -0.1546163558959961 -0.27281683683395386 0.949560284614563
vn 0.33713498711586 -0.09649805724620819 0.9364978075027466
vn 0.7269519567489624 -0.12754318118095398 0.67473965883255
vn 0.7621917724609375 0.05271007493138313 0.6452018022537231
vn 0.951015293598175 -0.060362379997968674 0.30319350957870483
vn 0.8971076011657715 0.26055529713630676 0.3568037748336792
vn 0.9894570708274841 0.12804260849952698 0.06767380982637405
vn 0.8343780040740967 0.5492812991142273 0.04586252197623253
vn -0.1317249834537506 0.9451092481613159 0.2990269064903259
vn 0.5898010730743408 0.765542209148407 -0.25706008076667786
vn -0.1838713437318802 0.9509925246238708 0.24860523641109467
vn -0.17639701068401337 0.9714238047599792 0.15880759060382843
vn -0.17454949021339417 0.9778472185134888 0.11553031951189041
vn 0.05661773309111595 0.9769002199172974 -0.2060592919588089
vn -0.13725145161151886 0.9208533763885498 0.3649536371231079
vn -0.23332463204860687 0.9108632206916809 0.34042292833328247
vn -0.19314728677272797 0.9480340480804443 0.25283506512641907
vn -0.2062036097049713 0.9761661291122437 0.06767380982637405
vn -0.1448194980621338 0.9879510402679443 0.05459024757146835
vn -0.09041431546211243 0.9901561737060547 0.10684575140476227
vn -0.10353144258260727 0.9561665654182434 0.27391019463539124
vn -0.14838314056396484 0.9549359083175659 0.25706008076667786
vn -0.15022654831409454 0.8809518814086914 0.4487268626689911
vn -0.18918558955192566 0.8870229721069336 0.42118772864341736
vn -0.16688917577266693 0.9006258845329285 0.401274174451828
vn -0.2535080015659332 0.9412475228309631 0.22312943637371063
vn -0.6166467666625977 0.7870914340019226 0.0152922747656703
vn 0.41579505801200867 -0.1406460553407669 0.8985171914100647
vn -0.07919462770223618 0.9653619527816772 0.24860523641109467
vn -0.1946180760860443 0.8914188146591187 0.40926313400268555
vn -0.3536017835140228 0.8930961489677429 0.2781098484992981
vn -0.3534409701824188 0.8877726197242737 0.2948545813560486
vn -0.12045355886220932 0.992024302482605 -0.03713129088282585
vn -0.4954811632633209 0.8531648516654968 -0.16312000155448914
vn -0.6682038307189941 0.4388149380683899 -0.6007870435714722
vn 0.015102004632353783 0.692115068435669 -0.7216291427612305
vn 0.21524366736412048 0.8921031951904297 -0.3972681760787964
vn 0.26920607686042786 0.584517240524292 -0.7654199600219727
vn 0.21982085704803467 0.7547334432601929 -0.6181069612503052
vn 0.3294065594673157 0.5907124876976013 -0.736579954624176
vn 0.45536938309669495 0.30000409483909607 -0.838234007358551
vn 0.21037453413009644 0.4374701976776123 -0.87427818775177
vn -0.3731653392314911 0.37717434763908386 -0.8476362228393555
vn -0.04570295661687851 -0.025649743154644966 -0.9986256957054138
vn -0.68209308385849 -0.030200820416212082 -0.7306414246559143
vn 0.5159094929695129 -0.060301169753074646 -0.8545181155204773
vn 0.5232299566268921 -0.2693571150302887 -0.8085030317306519
vn 0.3405908942222595 -0.1472218930721283 -0.9286137819290161
vn 0.36660680174827576 0.14775581657886505 -0.9185682535171509
vn 0.5071092844009399 0.11242341250181198 -0.8545181155204773
vn 0.5053919553756714 0.5214154720306396 -0.6875353455543518
vn 0.7684891819953918 0.5518047213554382 -0.3239381015300751
vn 0.878853440284729 0.22409266233444214 -0.42118772864341736
vn 0.5071092844009399 0.11242341250181198 -0.8545181155204773
vn 0.8701574802398682 -0.1651458442211151 -0.4642767012119293
vn 0.5000865459442139 -0.0903129130601883 -0.8612531423568726
vn 0.5000865459442139 -0.0903129130601883 -0.8612531423568726
vn 0.44517064094543457 -0.35708510875701904 -0.8211658596992493
vn 0.8142605423927307 -0.40768563747406006 -0.41324591636657715
vn 0.7615645527839661 -0.5057406425476074 -0.405272513628006
vn 0.5053919553756714 -0.5214154720306396 -0.6875353455543518
vn 0.6876616477966309 -0.5014826655387878 -0.5250110030174255
vn 0.6126886606216431 -0.4516817331314087 -0.6485338807106018
vn 0.8136236667633057 -0.04528693109750748 -0.5796254277229309
vn 0.7037732005119324 -0.03776602819561958 -0.7094202041625977
vn 0.6938768029212952 0.39697596430778503 -0.6007870435714722
vn 0.8554105758666992 0.3323412835597992 -0.3972681760787964
vn 0.8905858397483826 0.29691290855407715 -0.34452807903289795
vn 0.6400521397590637 0.361532986164093 -0.677958071231842
vn 0.7726331949234009 -0.3026563823223114 -0.5580654144287109
vn 0.9406499266624451 -0.29015207290649414 -0.1760382205247879
vn 0.6408070921897888 -0.7395308017730713 -0.2060592919588089
vn 0.5071056485176086 -0.6947562098503113 -0.5100564956665039
vn 0.3464009165763855 -0.8757289052009583 -0.3363112509250641
vn 0.3332625925540924 -0.9377110600471497 -0.0981530249118805
vn 0.392864853143692 -0.9065260291099548 0.15449213981628418
vn 0.7235943078994751 -0.6662504076957703 0.18033768236637115
vn 0.9570837020874023 -0.2756609320640564 0.08945280313491821
vn 0.9909160137176514 0.1279197335243225 0.04149730131030083
vn 0.9596589207649231 0.165378600358963 -0.22738653421401978
vn 0.804951548576355 -0.060413017868995667 -0.590256929397583
vn 0.9602774977684021 -0.26121464371681213 -0.0981530249118805
vn 0.9402450919151306 -0.34043535590171814 0.006554040592163801
vn 0.9500076174736023 -0.31185203790664673 0.0152922747656703
vn 0.9893243908882141 -0.14293669164180756 0.028397228568792343
vn 0.9205400943756104 -0.2463322877883911 0.30319350957870483
vn 0.9263755679130554 -0.2752244174480438 0.25706008076667786
vn 0.9175886511802673 -0.11287684738636017 0.3811691105365753
vn 0.9383355975151062 0.06032029539346695 0.34042292833328247
vn 0.9799095392227173 0.07541675865650177 0.18463370203971863
vn 0.9122026562690735 0.08285705000162125 0.401274174451828
vn 0.8993474245071411 0.015090244822204113 0.43697428703308105
vn 0.8968578577041626 -0.15771441161632538 0.41324591636657715
vn 0.6621044874191284 -0.40839213132858276 0.6283578276634216
vn 0.7391151189804077 -0.05277658626437187 0.6715083718299866
vn 0.6043256521224976 0.04519793391227722 0.7954543828964233
vn 0.7332092523574829 0.05269768089056015 0.677958071231842
vn 0.6725826263427734 -0.13474531471729279 0.7276512384414673
vn 0.792372465133667 -0.23802290856838226 0.5616858005523682
vn 0.24452602863311768 -0.13683336973190308 0.9599394202232361
vn -0.07311974465847015 -0.17652668058872223 0.9815762042999268
vn -0.24544212222099304 -0.09555932134389877 0.9646899104118347
vn 0.5077267289161682 -0.4369935393333435 -0.7424622178077698
vn 0.3392587900161743 -0.4894539415836334 -0.8033295273780823
vn -0.06708621233701706 -0.04874098300933838 0.9965559244155884
vn 0.30527463555336 0 0.9522643685340881
vn 0.2616715133190155 0.030024008825421333 0.9646899104118347
vn -0.11764085292816162 -0.003734381403774023 0.9930492043495178
vn -0.30559349060058594 -0.0485912561416626 0.9509214162826538
vn -0.4050438702106476 -0.0712076723575592 0.9115201234817505
vn -0.450387179851532 -0.10445208847522736 0.8867024183273315
vn -0.6009421348571777 -0.18931160867214203 0.7765498161315918
vn -0.6769253015518188 -0.23658132553100586 0.6969945430755615
vn -0.8935414552688599 -0.015093604102730751 0.4487268626689911
vn -0.8961483240127563 -0.213109090924263 0.3892335295677185
vn -0.986171305179596 -0.16536876559257507 -0.010923261754214764
vn -0.938793420791626 -0.12803950905799866 -0.3198012113571167
vn -0.7451560497283936 -0.16869233548641205 -0.6452018022537231
vn -0.5293323993682861 -0.2728898227214813 -0.8033295273780823
vn -0.5497080683708191 -0.1893463134765625 -0.8136147856712341
vn -0.49408605694770813 -0.23074384033679962 -0.838234007358551
vn -0.7937850952148438 -0.13165283203125 -0.5937783122062683
vn -0.9636013507843018 -0.056613750755786896 -0.2612801790237427
vn -0.713527262210846 -0.1501191258430481 -0.6843559741973877
vn -0.4349396228790283 -0.23221233487129211 -0.8700028657913208
vn -0.08078362047672272 -0.01871494948863983 -0.9965559244155884
vn -0.6093780398368835 -0.011329219676554203 -0.7927988767623901
vn -0.197998046875 -0.08815440535545349 -0.976230263710022
vn -0.6729561686515808 -0.015103636309504509 -0.7395281791687012
vn -0.9398822784423828 0.0791766569018364 -0.33219319581985474
vn -0.981635570526123 -0.02642901986837387 -0.18892620503902435
vn -0.9984862804412842 0.05283254012465477 0.0152922747656703
vn -0.9844242930412292 0.17272897064685822 0.03276457265019417
vn -0.8333461880683899 0.1611962914466858 0.528724730014801
vn -0.9992275834083557 -0.0377483032643795 0.010923261754214764
vn -0.9037935137748718 -0.04906746372580528 -0.42514660954475403
vn -0.5258742570877075 -0.5178635120391846 -0.67473965883255
vn -0.8544360399246216 -0.41267284750938416 -0.31565824151039124
vn -0.9055432677268982 -0.42411333322525024 -0.010923261754214764
vn -0.6933676600456238 -0.7173991799354553 -0.06767380982637405
vn -0.5689820051193237 -0.7593545317649841 -0.31565824151039124
vn -0.3522106111049652 -0.8059267997741699 -0.4758462607860565
vn -0.15399938821792603 -0.8347061276435852 -0.528724730014801
vn -0.071527399122715 -0.48783078789711 -0.8700028657913208
vn 0.25814107060432434 0.13811339437961578 -0.9561840295791626
vn 0.31129810214042664 0.0377984344959259 -0.949560284614563
vn 0.3794441819190979 -0.14795264601707458 -0.913308322429657
vn 0.35422050952911377 -0.1753857433795929 -0.9185682535171509
vn 0.3525473177433014 -0.2991141080856323 -0.8867024183273315
vn 0.3199286460876465 0.09680259227752686 -0.9424833655357361
vn 0.2603171467781067 0.20966656506061554 -0.9424833655357361
vn 0.2666368782520294 -0.022694144397974014 -0.9635298252105713
vn 0.16392207145690918 -0.319215327501297 -0.933397650718689
vn 0.1737978458404541 -0.6765941381454468 -0.715552031993866
vn -0.0037780797574669123 -0.829788327217102 -0.5580654144287109
vn 0.39570364356040955 -0.18996179103851318 -0.8985171914100647
vn 0.32419925928115845 0.28410547971725464 -0.9023185968399048
vn 0.5204076766967773 0.28954705595970154 -0.8033295273780823
vn 0.5403234958648682 -0.037783101201057434 -0.8406086564064026
vn 0.7037732005119324 -0.03776602819561958 -0.7094202041625977
vn 0.6938768029212952 0.39697596430778503 -0.6007870435714722
vn 0.6400521397590637 0.361532986164093 -0.677958071231842
vn 0.7726331949234009 -0.3026563823223114 -0.5580654144287109
vn 0.39933356642723083 -0.16233853995800018 -0.9023185968399048
vn 0.38512852787971497 -0.28916269540786743 -0.8763908743858337
vn 0.4518888592720032 -0.38246962428092957 -0.8059239983558655
vn 0.3585163354873657 -0.4253016412258148 -0.8310141563415527
vn 0.4690532982349396 -0.38372042775154114 -0.7954543828964233
vn 0.3140290677547455 -0.29530805349349976 -0.9023185968399048
vn 0.44517064094543457 -0.35708510875701904 -0.8211658596992493
vn 0.3056454658508301 -0.3417135179042816 -0.888714075088501
vn 0.38962316513061523 -0.30829712748527527 -0.8678402304649353
vn 0.4451521337032318 -0.21197786927223206 -0.8700028657913208
vn 0.45952653884887695 -0.3198398947715759 -0.8285757899284363
vn 0.5053919553756714 -0.5214154720306396 -0.6875353455543518
vn 0.6126886606216431 -0.4516817331314087 -0.6485338807106018
vn -0.7735445499420166 -0.599306583404541 0.2060592919588089
vn -0.5488964915275574 -0.8350651860237122 0.03713129088282585
vn -0.7807671427726746 -0.06399956345558167 0.6215357780456543
vn -0.5471093654632568 0.04513590782880783 0.8358433246612549
vn -0.3688012659549713 -0.10401271283626556 0.9236704111099243
vn -0.31022459268569946 -0.1351056694984436 0.9410139322280884
vn -0.09746594727039337 -0.2537325322628021 0.962351381778717
vn -0.240982785820961 -0.29271289706230164 0.9253358840942383
vn -0.3291797935962677 -0.1322753131389618 0.9349566102027893
vn -0.5439468622207642 -0.5159698128700256 0.661737859249115
vn -0.46619534492492676 -0.0037651099264621735 0.8846737742424011
vn -0.39462026953697205 -0.914479672908783 0.08945280313491821
vn -0.3021017909049988 -0.8980321288108826 0.3198012113571167
vn -0.4474460184574127 -0.8856437802314758 -0.1242060661315918
vn -0.27181684970855713 -0.900126576423645 -0.34042292833328247
vn -0.11111331731081009 -0.9126908779144287 -0.3932546079158783
vn -0.21523340046405792 -0.9526910781860352 -0.21460255980491638
vn -0.1448475420475006 -0.9736681580543518 -0.1760382205247879
vn -0.2080334722995758 -0.9696388244628906 0.12854042649269104
vn 0.0018880139105021954 -0.9819895029067993 -0.18892620503902435
vn -0.028319157660007477 -0.9912998676300049 0.12854042649269104
vn -0.06789036095142365 -0.9347996115684509 0.34862664341926575
vn -0.0679011195898056 -0.9301362633705139 -0.36088213324546814
vn 0.05472254380583763 -0.9034687280654907 -0.42514660954475403
vn 0.2776659429073334 -0.7714698314666748 -0.5724822878837585
vn 0.5071056485176086 -0.6947562098503113 -0.5100564956665039
vn 0.14483198523521423 -0.922883927822113 -0.3568037748336792
vn 0.15407653152942657 -0.9752131104469299 -0.15880759060382843
vn 0.3464009165763855 -0.8757289052009583 -0.3363112509250641
vn 0.3332625925540924 -0.9377110600471497 -0.0981530249118805
vn 0.15038138628005981 -0.9735976457595825 0.17173540592193604
vn 0.10697460174560547 -0.6934769749641418 0.7124928832054138
vn 0.3762156367301941 -0.7396112680435181 0.5580654144287109
vn 0.298888623714447 -0.19858112931251526 0.933397650718689
vt 0.43584734201431274 0.39931368827819824
vt 0.45542624592781067 0.4025551974773407
vt 0.42940211296081543 0.4090381860733032
vt 0.45566946268081665 0.40758511424064636
vt 0.48497697710990906 0.40043145418167114
vt 0.47719407081604004 0.3918246924877167
vt 0.4566422998905182 0.3836650252342224
vt 0.40386444330215454 0.38713008165359497
vt 0.398027241230011 0.40333762764930725
vt 0.3994865417480469 0.42088645696640015
vt 0.43329358100891113 0.42043933272361755
vt 0.4562774896621704 0.414291650056839
vt 0.4882603883743286 0.4187627136707306
vt 0.4482513666152954 0.442794531583786
vt 0.4725729525089264 0.48202791810035706
vt 0.40641820430755615 0.4517366290092468
vt 0.41857901215553284 0.493876188993454
vt 0.5242563486099243 0.3859005570411682
vt 0.5288774371147156 0.39976078271865845
vt 0.5247427821159363 0.44804802536964417
vt 0.5136764645576477 0.37550538778305054
vt 0.5666975378990173 0.36220404505729675
vt 0.5776422619819641 0.4074733257293701
vt 0.48801717162132263 0.35795655846595764
vt 0.5542935132980347 0.34599652886390686
vt 0.6276231408119202 0.31067532300949097
vt 0.4219840466976166 0.3738287389278412
vt 0.3830694854259491 0.3510264456272125
vt 0.36640918254852295 0.37707024812698364
vt 0.32640013098716736 0.35393261909484863
vt 0.3482895791530609 0.31637588143348694
vt 0.3205629587173462 0.2829548716545105
vt 0.35291069746017456 0.24796897172927856
vt 0.30524036288261414 0.23511473834514618
vt 0.3602071702480316 0.20571765303611755
vt 0.296362966299057 0.18280357122421265
vt 0.2561107277870178 0.217342346906662
vt 0.2646232843399048 0.2775896191596985
vt 0.2485710233449936 0.2987152934074402
vt 0.288336843252182 0.3209587037563324
vt 0.2794594466686249 0.3343718349933624
vt 0.32408958673477173 0.36242759227752686
vt 0.32640013098716736 0.35393261909484863
vt 0.36640918254852295 0.37707024812698364
vt 0.36105841398239136 0.3903715908527374
vt 0.36105841398239136 0.41060304641723633
vt 0.3188604414463043 0.39003628492355347
vt 0.2794594466686249 0.3343718349933624
vt 0.2681499123573303 0.3598567545413971
vt 0.31180718541145325 0.4351937770843506
vt 0.36239612102508545 0.44447118043899536
vt 0.36130163073539734 0.49465861916542053
vt 0.43195587396621704 0.5430576205253601
vt 0.3032946288585663 0.48962870240211487
vt 0.37066546082496643 0.5499877333641052
vt 0.25842127203941345 0.4087028503417969
vt 0.21306148171424866 0.3719285726547241
vt 0.23409967124462128 0.32375311851501465
vt 0.2017519474029541 0.2825077474117279
vt 0.23324841260910034 0.2469629943370819
vt 0.22510068118572235 0.18995723128318787
vt 0.2654745280742645 0.16983754932880402
vt 0.2951468825340271 0.14099934697151184
vt 0.3167931139469147 0.1037779375910759
vt 0.3727327883243561 0.09505940973758698
vt 0.3167931139469147 0.1037779375910759
vt 0.37455689907073975 0.06074417755007744
vt 0.4936111569404602 0.07829301059246063
vt 0.469654381275177 0.10634878277778625
vt 0.36786848306655884 0.15150628983974457
vt 0.41055288910865784 0.20895914733409882
vt 0.3801508843898773 0.2640647292137146
vt 0.41432273387908936 0.2902202904224396
vt 0.4514131546020508 0.32062336802482605
vt 0.48376089334487915 0.2669709026813507
vt 0.4497106671333313 0.23433230817317963
vt 0.485463410615921 0.1815740317106247
vt 0.4375498592853546 0.15642443299293518
vt 0.5204865336418152 0.22259582579135895
vt 0.5207297205924988 0.30508652329444885
vt 0.595640242099762 0.28686702251434326
vt 0.25161123275756836 0.46962079405784607
vt 0.5292422771453857 0.1417817771434784
vt 0.5576985478401184 0.1840331107378006
vt 0.5743588805198669 0.22438423335552216
vt 0.5561176538467407 0.25992900133132935
vt 0.5832362174987793 0.17486746609210968
vt 0.5989236831665039 0.22617265582084656
vt 0.6170432567596436 0.23533828556537628
vt 0.6002613306045532 0.16916689276695251
vt 0.5640221834182739 0.1284804344177246
vt 0.5242563486099243 0.06342680007219315
vt 0.37455689907073975 0.06074417755007744
vt 0.5929648876190186 0.12032078206539154
vt 0.6166784167289734 0.11350245028734207
vt 0.6339467763900757 0.1689433455467224
vt 0.656930685043335 0.23008482158184052
vt 0.6869678497314453 0.22349002957344055
vt 0.68100905418396 0.28910255432128906
vt 0.6763879656791687 0.18034449219703674
vt 0.6568090915679932 0.122220978140831
vt 0.6164352297782898 0.0648798868060112
vt 0.5589146614074707 0.0630914717912674
vt 0.4728161692619324 0.010892080143094063
vt 0.3791780173778534 0.03805364668369293
vt 0.28906649351119995 0.11081982403993607
vt 0.23604540526866913 0.12434472143650055
vt 0.28930971026420593 0.04934302344918251
vt 0.16903939843177795 0.1613425761461258
vt 0.6024503111839294 0.0019499999471008778
vt 0.1792544573545456 0.09248855710029602
vt 0.07418515533208847 0.17922674119472504
vt 0.11285649240016937 0.23790913820266724
vt 0.07041530311107635 0.34085482358932495
vt 0.01873190328478813 0.3027392029762268
vt 0.06153792142868042 0.45084241032600403
vt 0.0019499999471008778 0.4320640563964844
vt 0.07406354695558548 0.5650774836540222
vt 0.010584168136119843 0.5554647445678711
vt 0.044147975742816925 0.6755121946334839
vt 0.11212684959173203 0.6679114103317261
vt 0.1525007039308548 0.7492843270301819
vt 0.0898725837469101 0.7724219560623169
vt 0.13936704397201538 0.8394875526428223
vt 0.20637305080890656 0.8074078559875488
vt 0.2710685133934021 0.854130208492279
vt 0.21075093746185303 0.8863217234611511
vt 0.26523131132125854 0.9175072312355042
vt 0.32664334774017334 0.8951520323753357
vt 0.443022221326828 0.8646371960639954
vt 0.3405066728591919 0.8346812129020691
vt 0.26365041732788086 0.7879588603973389
vt 0.20880520343780518 0.7353123426437378
vt 0.16879618167877197 0.6625461578369141
vt 0.13620522618293762 0.5739077925682068
vt 0.112370066344738 0.48180437088012695
vt 0.1178424209356308 0.3832179307937622
vt 0.1363268345594406 0.2940206825733185
vt 0.1805921494960785 0.22885528206825256
vt 0.17463335394859314 0.3385075330734253
vt 0.15967558324337006 0.41775670647621155
vt 0.16478310525417328 0.5031535625457764
vt 0.18642933666706085 0.587209165096283
vt 0.13620522618293762 0.5739077925682068
vt 0.2163449078798294 0.6661229729652405
vt 0.2564755380153656 0.7307295203208923
vt 0.2907690107822418 0.7765576839447021
vt 0.3364936113357544 0.7877352833747864
vt 0.304632306098938 0.7376596331596375
vt 0.26377201080322266 0.6730530858039856
vt 0.23069465160369873 0.5987220406532288
vt 0.21135897934436798 0.5212612748146057
vt 0.20491375029087067 0.4448065161705017
vt 0.25829967856407166 0.536127507686615
vt 0.3110775351524353 0.5470815300941467
vt 0.3870825469493866 0.6088936924934387
vt 0.7284361720085144 0.21790122985839844
vt 0.7129919528961182 0.26059967279434204
vt 0.3282242715358734 0.6131411790847778
vt 0.27568960189819336 0.607664167881012
vt 0.31192877888679504 0.6802067756652832
vt 0.3615448474884033 0.6789772510528564
vt 0.4191870391368866 0.663663923740387
vt 0.47415387630462646 0.6365023255348206
vt 0.4506835341453552 0.5888857841491699
vt 0.513068437576294 0.5574766993522644
vt 0.49580007791519165 0.5171256065368652
vt 0.5686432719230652 0.5276325345039368
vt 0.5530774593353271 0.48538118600845337
vt 0.6079226732254028 0.45710188150405884
vt 0.6468372344970703 0.37550538778305054
vt 0.7018040418624878 0.34867915511131287
vt 0.7429075241088867 0.3167112171649933
vt 0.7129919528961182 0.26059967279434204
vt 0.766377866268158 0.3769584894180298
vt 0.7129919528961182 0.40467894077301025
vt 0.6591196060180664 0.4283754527568817
vt 0.7255175709724426 0.4545310139656067
vt 0.778538703918457 0.4385470449924469
vt 0.7835246324539185 0.495217502117157
vt 0.7291658520698547 0.5048302412033081
vt 0.7803627848625183 0.5409338474273682
vt 0.7289226055145264 0.5411574244499207
vt 0.6789417266845703 0.5175727009773254
vt 0.6688482761383057 0.47576847672462463
vt 0.6191105842590332 0.4996885359287262
vt 0.6292040348052979 0.5416045188903809
vt 0.58189857006073 0.5686542987823486
vt 0.6356492638587952 0.5736842155456543
vt 0.6830763816833496 0.5537881255149841
vt 0.7266120910644531 0.5774846076965332
vt 0.6830763816833496 0.5839676260948181
vt 0.6444050669670105 0.6010693311691284
vt 0.6526744365692139 0.6176121830940247
vt 0.6785768866539001 0.6117998361587524
vt 0.7126271724700928 0.609899640083313
vt 0.7500824332237244 0.6207419633865356
vt 0.7717286348342896 0.5811732411384583
vt 0.8327758312225342 0.5497641563415527
vt 0.8376401662826538 0.4905228912830353
vt 0.778538703918457 0.4385470449924469
vt 0.8307085037231445 0.4198804497718811
vt 0.766377866268158 0.3769584894180298
vt 0.8951607346534729 0.48493409156799316
vt 0.8783788681030273 0.564630389213562
vt 0.8513818979263306 0.6255483031272888
vt 0.8123456835746765 0.5993927121162415
vt 0.8104000091552734 0.6828894019126892
vt 0.7853487133979797 0.6476799249649048
vt 0.8926069736480713 0.6643345952033997
vt 0.9270220398902893 0.5951452255249023
vt 0.9429526925086975 0.495217502117157
vt 0.9300622344017029 0.37863510847091675
vt 0.9886773228645325 0.369357705116272
vt 0.9980411529541016 0.5174608826637268
vt 0.9791918992996216 0.6398556232452393
vt 0.9262924194335938 0.7263702750205994
vt 0.8806893825531006 0.39730170369148254
vt 0.8076030015945435 0.3490144908428192
vt 0.7778090238571167 0.28038400411605835
vt 0.7429075241088867 0.3167112171649933
vt 0.7277065515518188 0.1595541536808014
vt 0.7204100489616394 0.09941866993904114
vt 0.7393808960914612 0.02911156788468361
vt 0.8190341591835022 0.16838446259498596
vt 0.8018874526023865 0.23042014241218567
vt 0.8485848903656006 0.3115695118904114
vt 0.8910260796546936 0.2665237784385681
vt 0.8573406934738159 0.11484376341104507
vt 0.9408853650093079 0.23287922143936157
vt 0.6108412742614746 0.6301311254501343
vt 0.6367437839508057 0.6434324383735657
vt 0.5927216410636902 0.6036401987075806
vt 0.5266885161399841 0.5998398065567017
vt 0.5057719349861145 0.6822187304496765
vt 0.46223628520965576 0.7166457176208496
vt 0.4111609160900116 0.739448070526123
vt 0.513068437576294 0.7596794962882996
vt 0.5471186637878418 0.7134042382240295
vt 0.5806824564933777 0.6693645119667053
vt 0.5553880333900452 0.6417558193206787
vt 0.6176512837409973 0.6855720281600952
vt 0.5471186637878418 0.7134042382240295
vt 0.6684834361076355 0.6446620225906372
vt 0.6982774138450623 0.6395202875137329
vt 0.7103165984153748 0.6635521650314331
vt 0.6603357195854187 0.6838953495025635
vt 0.6529176235198975 0.730394184589386
vt 0.5952754616737366 0.7319590449333191
vt 0.6452563405036926 0.7844938039779663
vt 0.5719267129898071 0.781475841999054
vt 0.513068437576294 0.7596794962882996
vt 0.7225990295410156 0.7033444046974182
vt 0.7319628000259399 0.7479430437088013
vt 0.827181875705719 0.7362065315246582
vt 0.8408019542694092 0.7977951169013977
vt 0.7358542680740356 0.7955595850944519
vt 0.6338251829147339 0.8298748135566711
vt 0.7421779036521912 0.8391522169113159
vt 0.6142463088035583 0.8803975582122803
vt 0.5283910036087036 0.83367520570755
vt 0.4630875289440155 0.789076566696167
vt 0.4043508768081665 0.8064018487930298
vt 0.3566805422306061 0.7490608096122742
s on
f 1/1/1 2/2/2 3/3/3
f 3/3/3 2/2/2 4/4/4
f 4/4/4 2/2/2 5/5/5
f 5/5/5 2/2/2 6/6/6
f 6/6/6 2/2/2 7/7/7
f 2/2/2 1/1/1 7/7/7
f 7/7/7 1/1/1 8/8/8
f 8/8/8 1/1/1 9/9/9
f 1/1/1 3/3/3 9/9/9
f 9/9/9 3/3/3 10/10/10
f 10/10/10 3/3/3 11/11/11
f 3/3/3 4/4/4 11/11/11
f 11/11/11 4/4/4 12/12/12
f 4/4/4 13/13/13 12/12/12
f 12/12/12 13/13/13 14/14/14
f 13/13/13 15/15/15 14/14/14
f 14/14/14 15/15/15 16/16/16
f 15/15/15 17/17/17 16/16/16
f 4/4/4 5/5/5 13/13/13
f 5/5/5 18/18/18 13/13/13
f 18/18/18 19/19/19 13/13/13
f 19/19/19 20/20/20 13/13/13
f 13/13/13 20/20/20 15/15/15
f 12/12/12 14/14/14 11/11/11
f 14/14/14 16/16/16 11/11/11
f 11/11/11 16/16/16 10/10/10
f 18/18/18 5/5/5 21/21/21
f 21/21/21 5/5/5 6/6/6
f 21/21/21 22/22/22 18/18/18
f 18/18/18 22/22/22 19/19/19
f 22/22/22 23/23/23 19/19/19
f 19/19/19 23/23/23 20/20/20
f 6/6/6 24/24/24 21/21/21
f 24/24/24 25/25/25 21/21/21
f 21/21/21 25/25/25 22/22/22
f 25/25/25 26/26/26 22/22/22
f 22/22/22 26/26/26 23/23/23
f 6/6/6 7/7/7 24/24/24
f 24/24/24 7/7/7 27/27/27
f 7/7/7 8/8/8 27/27/27
f 27/27/27 8/8/8 28/28/28
f 8/8/8 29/29/29 28/28/28
f 29/29/29 30/30/30 28/28/28
f 28/28/28 30/30/30 31/31/31
f 30/30/30 32/32/32 31/31/31
f 31/31/31 32/32/32 33/33/33
f 32/32/32 34/34/34 33/33/33
f 33/33/33 34/34/34 35/35/35
f 35/35/35 34/34/34 36/36/36
f 36/36/36 34/34/34 37/37/37
f 34/34/34 38/38/38 37/37/37
f 37/37/37 38/38/38 39/39/39
f 38/38/38 40/40/40 39/39/39
f 39/39/39 40/40/40 41/41/41
f 41/41/41 40/40/40 42/42/42
f 40/40/40 43/43/43 42/42/42
f 43/43/43 44/44/44 42/42/42
f 42/42/42 44/44/44 45/45/45
f 44/44/44 9/9/9 45/45/45
f 9/9/9 10/10/10 45/45/45
f 45/45/45 10/10/10 46/46/46
f 10/10/10 16/16/16 46/46/46
f 30/30/30 40/40/40 32/32/32
f 32/32/32 40/40/40 34/34/34
f 40/40/40 38/38/38 34/34/34
f 9/9/9 44/44/44 8/8/8
f 46/46/46 47/47/47 45/45/45
f 45/45/45 47/47/47 42/42/42
f 42/42/42 47/47/47 48/48/48
f 47/47/47 49/49/49 48/48/48
f 48/48/48 49/49/49 39/39/39
f 49/49/49 47/47/47 50/50/50
f 47/47/47 46/46/46 50/50/50
f 50/50/50 46/46/46 51/51/51
f 46/46/46 16/16/16 51/51/51
f 51/51/51 16/16/16 52/52/52
f 16/16/16 17/17/17 52/52/52
f 52/52/52 17/17/17 53/53/53
f 17/17/17 15/15/15 53/53/53
f 51/51/51 52/52/52 54/54/54
f 54/54/54 52/52/52 55/55/55
f 52/52/52 53/53/53 55/55/55
f 51/51/51 54/54/54 50/50/50
f 54/54/54 56/56/56 50/50/50
f 50/50/50 56/56/56 49/49/49
f 56/56/56 57/57/57 49/49/49
f 49/49/49 57/57/57 58/58/58
f 57/57/57 59/59/59 58/58/58
f 58/58/58 59/59/59 39/39/39
f 59/59/59 60/60/60 39/39/39
f 39/39/39 60/60/60 37/37/37
f 60/60/60 61/61/61 37/37/37
f 61/61/61 62/62/62 37/37/37
f 37/37/37 62/62/62 63/63/63
f 62/62/62 64/64/64 63/63/63
f 39/39/39 49/49/49 58/58/58
f 59/59/59 61/61/61 60/60/60
f 37/37/37 63/63/63 36/36/36
f 36/36/36 63/63/63 65/65/65
f 63/63/63 66/66/66 65/65/65
f 66/66/66 67/67/67 65/65/65
f 67/67/67 68/68/68 65/65/65
f 68/68/68 69/69/69 65/65/65
f 69/69/69 70/70/70 65/65/65
f 65/65/65 70/70/70 36/36/36
f 36/36/36 70/70/70 35/35/35
f 70/70/70 71/71/71 35/35/35
f 35/35/35 71/71/71 33/33/33
f 71/71/71 72/72/72 33/33/33
f 33/33/33 72/72/72 31/31/31
f 72/72/72 73/73/73 31/31/31
f 31/31/31 73/73/73 28/28/28
f 28/28/28 73/73/73 27/27/27
f 73/73/73 74/74/74 27/27/27
f 27/27/27 74/74/74 24/24/24
f 24/24/24 74/74/74 75/75/75
f 74/74/74 73/73/73 75/75/75
f 75/75/75 73/73/73 76/76/76
f 73/73/73 72/72/72 76/76/76
f 72/72/72 71/71/71 76/76/76
f 76/76/76 71/71/71 77/77/77
f 71/71/71 78/78/78 77/77/77
f 77/77/77 78/78/78 69/69/69
f 69/69/69 78/78/78 70/70/70
f 78/78/78 71/71/71 70/70/70
f 76/76/76 77/77/77 75/75/75
f 77/77/77 79/79/79 75/75/75
f 79/79/79 80/80/80 75/75/75
f 75/75/75 80/80/80 24/24/24
f 24/24/24 80/80/80 25/25/25
f 80/80/80 81/81/81 25/25/25
f 25/25/25 81/81/81 26/26/26
f 54/54/54 82/82/82 56/56/56
f 56/56/56 82/82/82 57/57/57
f 77/77/77 69/69/69 83/83/83
f 83/83/83 69/69/69 68/68/68
f 83/83/83 84/84/84 77/77/77
f 77/77/77 84/84/84 79/79/79
f 84/84/84 85/85/85 79/79/79
f 79/79/79 85/85/85 86/86/86
f 85/85/85 81/81/81 86/86/86
f 81/81/81 80/80/80 86/86/86
f 86/86/86 80/80/80 79/79/79
f 85/85/85 84/84/84 87/87/87
f 87/87/87 84/84/84 83/83/83
f 87/87/87 88/88/88 85/85/85
f 85/85/85 88/88/88 81/81/81
f 88/88/88 89/89/89 81/81/81
f 81/81/81 89/89/89 26/26/26
f 89/89/89 88/88/88 90/90/90
f 88/88/88 87/87/87 90/90/90
f 90/90/90 87/87/87 91/91/91
f 87/87/87 83/83/83 91/91/91
f 83/83/83 68/68/68 91/91/91
f 91/91/91 68/68/68 92/92/92
f 68/68/68 93/93/93 92/92/92
f 92/92/92 94/94/94 91/91/91
f 91/91/91 94/94/94 90/90/90
f 94/94/94 95/95/95 90/90/90
f 95/95/95 96/96/96 90/90/90
f 90/90/90 96/96/96 97/97/97
f 96/96/96 98/98/98 97/97/97
f 98/98/98 99/99/99 97/97/97
f 97/97/97 99/99/99 89/89/89
f 99/99/99 26/26/26 89/89/89
f 95/95/95 94/94/94 92/92/92
f 90/90/90 97/97/97 89/89/89
f 98/98/98 96/96/96 100/100/100
f 96/96/96 95/95/95 100/100/100
f 100/100/100 95/95/95 101/101/101
f 101/101/101 95/95/95 102/102/102
f 95/95/95 103/103/103 102/102/102
f 102/102/102 103/103/103 104/104/104
f 103/103/103 92/92/92 104/104/104
f 104/104/104 92/92/92 105/105/105
f 92/92/92 93/93/93 105/105/105
f 93/93/93 64/64/64 105/105/105
f 105/105/105 64/64/64 106/106/106
f 64/64/64 62/62/62 106/106/106
f 62/62/62 107/107/107 106/106/106
f 106/106/106 107/107/107 105/105/105
f 105/105/105 107/107/107 108/108/108
f 108/108/108 107/107/107 109/109/109
f 109/109/109 107/107/107 61/61/61
f 107/107/107 62/62/62 61/61/61
f 95/95/95 92/92/92 103/103/103
f 104/104/104 110/110/110 102/102/102
f 108/108/108 109/109/109 111/111/111
f 111/111/111 109/109/109 112/112/112
f 109/109/109 113/113/113 112/112/112
f 113/113/113 114/114/114 112/112/112
f 112/112/112 114/114/114 115/115/115
f 114/114/114 116/116/116 115/115/115
f 115/115/115 116/116/116 117/117/117
f 116/116/116 118/118/118 117/117/117
f 117/117/117 118/118/118 119/119/119
f 119/119/119 118/118/118 120/120/120
f 118/118/118 121/121/121 120/120/120
f 121/121/121 122/122/122 120/120/120
f 120/120/120 122/122/122 123/123/123
f 123/123/123 122/122/122 124/124/124
f 122/122/122 125/125/125 124/124/124
f 125/125/125 126/126/126 124/124/124
f 124/124/124 126/126/126 127/127/127
f 127/127/127 126/126/126 128/128/128
f 128/128/128 126/126/126 129/129/129
f 129/129/129 126/126/126 130/130/130
f 130/130/130 126/126/126 131/131/131
f 126/126/126 125/125/125 131/131/131
f 131/131/131 125/125/125 132/132/132
f 132/132/132 125/125/125 133/133/133
f 125/125/125 122/122/122 133/133/133
f 122/122/122 121/121/121 133/133/133
f 133/133/133 121/121/121 134/134/134
f 121/121/121 118/118/118 134/134/134
f 134/134/134 118/118/118 135/135/135
f 135/135/135 118/118/118 136/136/136
f 118/118/118 116/116/116 136/136/136
f 116/116/116 114/114/114 136/136/136
f 136/136/136 114/114/114 137/137/137
f 137/137/137 114/114/114 138/138/138
f 114/114/114 113/113/113 138/138/138
f 113/113/113 109/109/109 138/138/138
f 138/138/138 109/109/109 139/139/139
f 109/109/109 61/61/61 139/139/139
f 61/61/61 59/59/59 139/139/139
f 139/139/139 59/59/59 138/138/138
f 59/59/59 140/140/140 138/138/138
f 140/140/140 141/141/141 138/138/138
f 138/138/138 141/141/141 137/137/137
f 137/137/137 141/141/141 136/136/136
f 141/141/141 142/142/142 136/136/136
f 142/142/142 143/143/143 136/136/136
f 136/136/136 143/143/143 144/144/144
f 143/143/143 145/145/145 144/144/144
f 144/144/144 145/145/145 134/134/134
f 134/134/134 145/145/145 133/133/133
f 145/145/145 146/146/146 133/133/133
f 146/146/146 147/147/147 133/133/133
f 133/133/133 147/147/147 132/132/132
f 132/132/132 147/147/147 131/131/131
f 131/131/131 147/147/147 148/148/148
f 148/148/148 147/147/147 149/149/149
f 147/147/147 146/146/146 149/149/149
f 146/146/146 145/145/145 149/149/149
f 149/149/149 145/145/145 150/150/150
f 150/150/150 145/145/145 151/151/151
f 145/145/145 143/143/143 151/151/151
f 143/143/143 142/142/142 151/151/151
f 151/151/151 142/142/142 152/152/152
f 152/152/152 142/142/142 153/153/153
f 142/142/142 141/141/141 153/153/153
f 141/141/141 140/140/140 153/153/153
f 153/153/153 140/140/140 57/57/57
f 140/140/140 59/59/59 57/57/57
f 57/57/57 82/82/82 153/153/153
f 153/153/153 82/82/82 152/152/152
f 152/152/152 82/82/82 154/154/154
f 82/82/82 54/54/54 154/154/154
f 154/154/154 54/54/54 155/155/155
f 54/54/54 55/55/55 155/155/155
f 155/155/155 55/55/55 156/156/156
f 55/55/55 53/53/53 156/156/156
f 100/100/100 157/157/157 98/98/98
f 157/157/157 158/158/158 98/98/98
f 101/101/101 157/157/157 100/100/100
f 156/156/156 159/159/159 155/155/155
f 155/155/155 159/159/159 154/154/154
f 159/159/159 160/160/160 154/154/154
f 154/154/154 160/160/160 152/152/152
f 152/152/152 160/160/160 151/151/151
f 151/151/151 160/160/160 150/150/150
f 150/150/150 160/160/160 161/161/161
f 161/161/161 160/160/160 162/162/162
f 160/160/160 159/159/159 162/162/162
f 159/159/159 156/156/156 162/162/162
f 162/162/162 156/156/156 163/163/163
f 163/163/163 156/156/156 164/164/164
f 164/164/164 156/156/156 165/165/165
f 156/156/156 53/53/53 165/165/165
f 165/165/165 53/53/53 166/166/166
f 53/53/53 167/167/167 166/166/166
f 166/166/166 167/167/167 168/168/168
f 167/167/167 169/169/169 168/168/168
f 168/168/168 169/169/169 170/170/170
f 169/169/169 20/20/20 170/170/170
f 20/20/20 23/23/23 170/170/170
f 170/170/170 23/23/23 171/171/171
f 23/23/23 26/26/26 171/171/171
f 171/171/171 26/26/26 172/172/172
f 26/26/26 99/99/99 172/172/172
f 172/172/172 99/99/99 173/173/173
f 173/173/173 99/99/99 174/174/174
f 99/99/99 98/98/98 174/174/174
f 53/53/53 15/15/15 167/167/167
f 167/167/167 15/15/15 169/169/169
f 15/15/15 20/20/20 169/169/169
f 173/173/173 175/175/175 172/172/172
f 175/175/175 176/176/176 172/172/172
f 172/172/172 176/176/176 171/171/171
f 176/176/176 177/177/177 171/171/171
f 171/171/171 177/177/177 170/170/170
f 177/177/177 176/176/176 178/178/178
f 176/176/176 175/175/175 178/178/178
f 175/175/175 179/179/179 178/178/178
f 179/179/179 180/180/180 178/178/178
f 178/178/178 180/180/180 181/181/181
f 180/180/180 182/182/182 181/181/181
f 182/182/182 183/183/183 181/181/181
f 183/183/183 184/184/184 181/181/181
f 181/181/181 184/184/184 178/178/178
f 184/184/184 185/185/185 178/178/178
f 178/178/178 185/185/185 177/177/177
f 177/177/177 185/185/185 170/170/170
f 185/185/185 186/186/186 170/170/170
f 170/170/170 186/186/186 168/168/168
f 186/186/186 187/187/187 168/168/168
f 168/168/168 187/187/187 188/188/188
f 188/188/188 187/187/187 189/189/189
f 187/187/187 184/184/184 189/189/189
f 189/189/189 184/184/184 190/190/190
f 184/184/184 183/183/183 190/190/190
f 190/190/190 183/183/183 191/191/191
f 183/183/183 182/182/182 191/191/191
f 185/185/185 184/184/184 186/186/186
f 184/184/184 187/187/187 186/186/186
f 191/191/191 192/192/192 190/190/190
f 190/190/190 192/192/192 189/189/189
f 189/189/189 192/192/192 193/193/193
f 193/193/193 192/192/192 194/194/194
f 194/194/194 192/192/192 195/195/195
f 192/192/192 191/191/191 195/195/195
f 195/195/195 191/191/191 196/196/196
f 196/196/196 191/191/191 197/197/197
f 197/197/197 191/191/191 198/198/198
f 191/191/191 182/182/182 198/198/198
f 198/198/198 182/182/182 199/199/199
f 182/182/182 180/180/180 199/199/199
f 199/199/199 180/180/180 200/200/200
f 180/180/180 201/201/201 200/200/200
f 200/200/200 201/201/201 202/202/202
f 201/201/201 203/203/203 202/202/202
f 202/202/202 204/204/204 200/200/200
f 200/200/200 204/204/204 199/199/199
f 204/204/204 205/205/205 199/199/199
f 205/205/205 206/206/206 199/199/199
f 199/199/199 206/206/206 207/207/207
f 206/206/206 208/208/208 207/207/207
f 208/208/208 209/209/209 207/207/207
f 207/207/207 209/209/209 198/198/198
f 209/209/209 197/197/197 198/198/198
f 198/198/198 199/199/199 207/207/207
f 208/208/208 206/206/206 210/210/210
f 206/206/206 205/205/205 210/210/210
f 210/210/210 205/205/205 211/211/211
f 205/205/205 204/204/204 211/211/211
f 211/211/211 204/204/204 212/212/212
f 204/204/204 213/213/213 212/212/212
f 213/213/213 214/214/214 212/212/212
f 214/214/214 215/215/215 212/212/212
f 215/215/215 216/216/216 212/212/212
f 212/212/212 216/216/216 211/211/211
f 211/211/211 216/216/216 210/210/210
f 216/216/216 217/217/217 210/210/210
f 213/213/213 204/204/204 218/218/218
f 204/204/204 202/202/202 218/218/218
f 218/218/218 202/202/202 219/219/219
f 202/202/202 203/203/203 219/219/219
f 219/219/219 203/203/203 220/220/220
f 203/203/203 221/221/221 220/220/220
f 221/221/221 158/158/158 220/220/220
f 158/158/158 157/157/157 220/220/220
f 220/220/220 157/157/157 222/222/222
f 157/157/157 101/101/101 222/222/222
f 222/222/222 101/101/101 223/223/223
f 101/101/101 102/102/102 223/223/223
f 223/223/223 102/102/102 224/224/224
f 102/102/102 110/110/110 224/224/224
f 224/224/224 225/225/225 223/223/223
f 223/223/223 225/225/225 222/222/222
f 225/225/225 226/226/226 222/222/222
f 222/222/222 226/226/226 220/220/220
f 226/226/226 227/227/227 220/220/220
f 220/220/220 227/227/227 219/219/219
f 219/219/219 227/227/227 218/218/218
f 218/218/218 227/227/227 228/228/228
f 227/227/227 226/226/226 228/228/228
f 226/226/226 225/225/225 228/228/228
f 228/228/228 225/225/225 229/229/229
f 225/225/225 224/224/224 229/229/229
f 229/229/229 230/230/230 228/228/228
f 230/230/230 214/214/214 228/228/228
f 214/214/214 213/213/213 228/228/228
f 228/228/228 213/213/213 218/218/218
f 193/193/193 194/194/194 231/231/231
f 231/231/231 194/194/194 232/232/232
f 193/193/193 231/231/231 189/189/189
f 231/231/231 233/233/233 189/189/189
f 189/189/189 233/233/233 188/188/188
f 233/233/233 234/234/234 188/188/188
f 188/188/188 234/234/234 168/168/168
f 168/168/168 234/234/234 166/166/166
f 166/166/166 234/234/234 165/165/165
f 165/165/165 234/234/234 164/164/164
f 234/234/234 235/235/235 164/164/164
f 164/164/164 235/235/235 163/163/163
f 235/235/235 236/236/236 163/163/163
f 163/163/163 236/236/236 162/162/162
f 162/162/162 236/236/236 237/237/237
f 237/237/237 236/236/236 238/238/238
f 236/236/236 235/235/235 238/238/238
f 238/238/238 235/235/235 239/239/239
f 239/239/239 235/235/235 240/240/240
f 235/235/235 241/241/241 240/240/240
f 240/240/240 241/241/241 233/233/233
f 233/233/233 241/241/241 234/234/234
f 241/241/241 235/235/235 234/234/234
f 233/233/233 231/231/231 240/240/240
f 231/231/231 242/242/242 240/240/240
f 240/240/240 242/242/242 243/243/243
f 231/231/231 232/232/232 242/242/242
f 242/242/242 232/232/232 244/244/244
f 232/232/232 194/194/194 244/244/244
f 194/194/194 195/195/195 244/244/244
f 244/244/244 195/195/195 245/245/245
f 195/195/195 196/196/196 245/245/245
f 196/196/196 197/197/197 245/245/245
f 245/245/245 197/197/197 246/246/246
f 197/197/197 209/209/209 246/246/246
f 246/246/246 247/247/247 245/245/245
f 245/245/245 247/247/247 244/244/244
f 244/244/244 247/247/247 242/242/242
f 247/247/247 248/248/248 242/242/242
f 242/242/242 248/248/248 249/249/249
f 248/248/248 250/250/250 249/249/249
f 250/250/250 251/251/251 249/249/249
f 251/251/251 252/252/252 249/249/249
f 252/252/252 243/243/243 249/249/249
f 249/249/249 243/243/243 242/242/242
f 250/250/250 248/248/248 253/253/253
f 248/248/248 247/247/247 253/253/253
f 247/247/247 246/246/246 253/253/253
f 246/246/246 209/209/209 253/253/253
f 253/253/253 209/209/209 254/254/254
f 209/209/209 208/208/208 254/254/254
f 254/254/254 208/208/208 255/255/255
f 208/208/208 210/210/210 255/255/255
f 255/255/255 210/210/210 256/256/256
f 210/210/210 217/217/217 256/256/256
f 253/253/253 254/254/254 250/250/250
f 254/254/254 257/257/257 250/250/250
f 250/250/250 257/257/257 258/258/258
f 257/257/257 259/259/259 258/258/258
f 259/259/259 260/260/260 258/258/258
f 260/260/260 261/261/261 258/258/258
f 258/258/258 261/261/261 250/250/250
f 250/250/250 261/261/261 251/251/251
f 251/251/251 261/261/261 252/252/252
f 252/252/252 261/261/261 262/262/262
f 262/262/262 261/261/261 263/263/263
f 261/261/261 130/130/130 263/263/263
f 130/130/130 131/131/131 263/263/263
f 131/131/131 148/148/148 263/263/263
f 263/263/263 148/148/148 264/264/264
f 148/148/148 149/149/149 264/264/264
f 149/149/149 150/150/150 264/264/264
f 150/150/150 161/161/161 264/264/264
f 161/161/161 162/162/162 264/264/264
f 162/162/162 237/237/237 264/264/264
f 264/264/264 237/237/237 262/262/262
f 237/237/237 238/238/238 262/262/262
f 256/256/256 259/259/259 255/255/255
f 259/259/259 257/257/257 255/255/255
f 255/255/255 257/257/257 254/254/254
f 261/261/261 260/260/260 130/130/130
f 264/264/264 262/262/262 263/263/263

