# Exported by Sketchfab Model Ripper robust edition
o model_14
v -0.33225905895233154 -0.9245718121528625 -0.2997271418571472
v -0.33614063262939453 -0.9261065125465393 -0.30212053656578064
v -0.33107301592826843 -0.9258872866630554 -0.29829734563827515
v -0.3362843990325928 -0.9269834756851196 -0.3017786145210266
v -0.34110042452812195 -0.9276850819587708 -0.3069073259830475
v -0.3396627902984619 -0.9257557392120361 -0.30622348189353943
v -0.33603280782699585 -0.9228616952896118 -0.30361253023147583
v -0.32514283061027527 -0.9212831258773804 -0.29618367552757263
v -0.32377707958221436 -0.9238702058792114 -0.29525119066238403
v -0.32507094740867615 -0.9261941909790039 -0.29366597533226013
v -0.3322950005531311 -0.92781662940979 -0.2977689206600189
v -0.33667972683906555 -0.9280797243118286 -0.30128130316734314
v -0.34163951873779297 -0.9310175776481628 -0.3060370087623596
v -0.3347748816013336 -0.9328153729438782 -0.2985459864139557
v -0.3348108232021332 -0.9409711956977844 -0.30218270421028137
v -0.3265804648399353 -0.9318506717681885 -0.2930442988872528
v -0.32525065541267395 -0.9401819109916687 -0.29559311270713806
v -0.3436521887779236 -0.9289128184318542 -0.31501999497413635
v -0.3443709909915924 -0.9315875768661499 -0.31430506706237793
v -0.343077152967453 -0.9393488168716431 -0.31054404377937317
v -0.34250208735466003 -0.9258434176445007 -0.31427398324012756
v -0.34411942958831787 -0.9296582341194153 -0.3249354660511017
v -0.34397566318511963 -0.9366740584373474 -0.3213919997215271
v -0.3382970690727234 -0.9224231839179993 -0.3116319477558136
v -0.3425380289554596 -0.9254049062728882 -0.324282705783844
v -0.33944714069366455 -0.9259310960769653 -0.3386741578578949
v -0.32830560207366943 -0.9200115203857422 -0.29960280656814575
v -0.3170921504497528 -0.9168105721473694 -0.297520250082016
v -0.31583425402641296 -0.9175998568534851 -0.29282671213150024
v -0.30386605858802795 -0.9129518866539001 -0.2906509041786194
v -0.30526772141456604 -0.9133026599884033 -0.2973337471485138
v -0.2952403426170349 -0.9106279015541077 -0.2992919981479645
v -0.2987625002861023 -0.9119433760643005 -0.30581942200660706
v -0.2873334288597107 -0.9084354639053345 -0.3048247694969177
v -0.29513251781463623 -0.9104963541030884 -0.3112589418888092
v -0.2800374925136566 -0.9048837423324585 -0.31129002571105957
v -0.2749699056148529 -0.9045329689979553 -0.30656540393829346
v -0.2811516523361206 -0.9072954058647156 -0.2979554235935211
v -0.2792108654975891 -0.9092247486114502 -0.29549986124038696
v -0.291107177734375 -0.9091370701789856 -0.29254698753356934
v -0.2897054851055145 -0.9103648066520691 -0.2908063232898712
v -0.3037582337856293 -0.9143550395965576 -0.2904333174228668
v -0.30386605858802795 -0.9129518866539001 -0.2906509041786194
v -0.31583425402641296 -0.9175998568534851 -0.29282671213150024
v -0.31493574380874634 -0.919660747051239 -0.29208073019981384
v -0.31558266282081604 -0.9229055643081665 -0.2911171615123749
v -0.3037222921848297 -0.9188275933265686 -0.290619820356369
v -0.2897054851055145 -0.9103648066520691 -0.2908063232898712
v -0.2889866828918457 -0.9145742654800415 -0.29012250900268555
v -0.30350664258003235 -0.9257557392120361 -0.2888481020927429
v -0.3161936402320862 -0.9286497235298157 -0.28993600606918335
v -0.3140731453895569 -0.9372002482414246 -0.2916455566883087
v -0.32287856936454773 -0.9489955306053162 -0.29913657903671265
v -0.30203309655189514 -0.9343062043190002 -0.2904644012451172
v -0.31144949793815613 -0.946627676486969 -0.294878214597702
v -0.28938204050064087 -0.9224231839179993 -0.289904922246933
v -0.2780967056751251 -0.9201869368553162 -0.29459846019744873
v -0.27795296907424927 -0.9129080176353455 -0.294878214597702
v -0.27353227138519287 -0.9136534929275513 -0.30423417687416077
v -0.2737119793891907 -0.908128559589386 -0.3046382665634155
v -0.27116021513938904 -0.9078215956687927 -0.31371450424194336
v -0.2729572355747223 -0.9026474356651306 -0.31327933073043823
v -0.27594029903411865 -0.9010688662528992 -0.31679171323776245
v -0.2771263122558594 -0.9005427360534668 -0.32210689783096313
v -0.28470978140830994 -0.90273517370224 -0.32338130474090576
v -0.2771263122558594 -0.9005427360534668 -0.32210689783096313
v -0.281690776348114 -0.9015073776245117 -0.3272666931152344
v -0.2935870587825775 -0.9045767784118652 -0.33239537477493286
v -0.2975764572620392 -0.904445230960846 -0.32866543531417847
v -0.29002895951271057 -0.9072515368461609 -0.31753769516944885
v -0.30451297760009766 -0.9132588505744934 -0.31567272543907166
v -0.30605843663215637 -0.9143550395965576 -0.3067208230495453
v -0.31612175703048706 -0.9176437258720398 -0.308088481426239
v -0.3271195590496063 -0.919836163520813 -0.30992236733436584
v -0.3252865970134735 -0.9178629517555237 -0.32024192810058594
v -0.31464821100234985 -0.9159336090087891 -0.3183458745479584
v -0.3123839497566223 -0.9111102223396301 -0.32692477107048035
v -0.3013142943382263 -0.9095317125320435 -0.3229772448539734
v -0.3229145109653473 -0.9129518866539001 -0.32950466871261597
v -0.3359968662261963 -0.9203622937202454 -0.3223244845867157
v -0.33822518587112427 -0.9194415211677551 -0.3363740146160126
v -0.2902805507183075 -0.9317191243171692 -0.29049548506736755
v -0.3096165359020233 -0.9057168364524841 -0.3337630331516266
v -0.31989550590515137 -0.9078215956687927 -0.337834894657135
v -0.3286290466785431 -0.9109786748886108 -0.3386741578578949
v -0.3322950005531311 -0.9154950976371765 -0.33233320713043213
v -0.31946423649787903 -0.9063307642936707 -0.3426527678966522
v -0.3301745057106018 -0.9117241501808167 -0.3431501090526581
v -0.3178469240665436 -0.907953143119812 -0.3452015817165375
v -0.3312886655330658 -0.9143112301826477 -0.3456678092479706
v -0.3264007568359375 -0.9197046160697937 -0.3505478501319885
v -0.3325825035572052 -0.9293951392173767 -0.34728413820266724
v -0.31946423649787903 -0.9063307642936707 -0.3426527678966522
v -0.3238130211830139 -0.9311491250991821 -0.3513249158859253
v -0.3209737241268158 -0.9237825274467468 -0.35247498750686646
v -0.32507094740867615 -0.9397434592247009 -0.34607189893722534
v -0.3336966633796692 -0.9390418529510498 -0.3421865403652191
v -0.33991438150405884 -0.9377264380455017 -0.3341049551963806
v -0.3384048640727997 -0.946803092956543 -0.3221379816532135
v -0.3389439880847931 -0.9485132098197937 -0.3136523365974426
v -0.33380448818206787 -0.9500479102134705 -0.3050423562526703
v -0.33132460713386536 -0.9593437910079956 -0.3072492480278015
v -0.32093778252601624 -0.9588614702224731 -0.300473153591156
v -0.3299229145050049 -0.9690782427787781 -0.30787089467048645
v -0.33822518587112427 -0.9591684341430664 -0.3145848214626312
v -0.3394830822944641 -0.969297468662262 -0.31399425864219666
v -0.33937525749206543 -0.9775410294532776 -0.3131239116191864
v -0.3308214247226715 -0.979163408279419 -0.3063478171825409
v -0.3290962874889374 -0.9861792325973511 -0.30805739760398865
v -0.31824225187301636 -0.9784618616104126 -0.30162322521209717
v -0.31953611969947815 -0.9687712788581848 -0.30062854290008545
v -0.3092571198940277 -0.9570636749267578 -0.2964634299278259
v -0.300307959318161 -0.943996787071228 -0.2922050654888153
v -0.2904602587223053 -0.9416289329528809 -0.2914590835571289
v -0.29833123087882996 -0.954608142375946 -0.29335513710975647
v -0.2891663908958435 -0.9520649313926697 -0.29260915517807007
v -0.2829127311706543 -0.9401381015777588 -0.29484713077545166
v -0.2808641493320465 -0.9303159713745117 -0.29438087344169617
v -0.2738916873931885 -0.9211515784263611 -0.30367469787597656
v -0.2764434516429901 -0.9303598403930664 -0.30240029096603394
v -0.27824047207832336 -0.9397872686386108 -0.3011258840560913
v -0.28205016255378723 -0.9501794576644897 -0.2947849631309509
v -0.27734196186065674 -0.9491270780563354 -0.2998203933238983
v -0.2733166217803955 -0.9400942325592041 -0.3095804452896118
v -0.27306506037712097 -0.9487763047218323 -0.307746559381485
v -0.27457454800605774 -0.9579845070838928 -0.29848381876945496
v -0.27946245670318604 -0.9599577188491821 -0.2936970591545105
v -0.2724181115627289 -0.9572829008102417 -0.30600592494010925
v -0.27105239033699036 -0.9655264616012573 -0.30606809258461
v -0.274143248796463 -0.9662719368934631 -0.29950955510139465
v -0.27335256338119507 -0.9726738333702087 -0.30034881830215454
v -0.2787436544895172 -0.9689028263092041 -0.2948160469532013
v -0.27446672320365906 -0.9487324357032776 -0.31937161087989807
v -0.27364009618759155 -0.9570198655128479 -0.3164497911930084
v -0.2713039517402649 -0.9650880098342896 -0.31492674350738525
v -0.2711242735385895 -0.9728491902351379 -0.3134036660194397
v -0.27080079913139343 -0.9727176427841187 -0.30479368567466736
v -0.2751855254173279 -0.9796457886695862 -0.3038922846317291
v -0.27687475085258484 -0.9759186506271362 -0.29720941185951233
v -0.28542858362197876 -0.972629964351654 -0.2921118140220642
v -0.28718966245651245 -0.9627201557159424 -0.2921428978443146
v -0.29685765504837036 -0.9652195572853088 -0.29245373606681824
v -0.3077116906642914 -0.967411994934082 -0.2964634299278259
v -0.3065975308418274 -0.9778041243553162 -0.2966499328613281
v -0.3053036630153656 -0.9868807792663574 -0.29913657903671265
v -0.29538410902023315 -0.9759186506271362 -0.29291996359825134
v -0.31752344965934753 -0.9868369698524475 -0.30268004536628723
v -0.2938027083873749 -0.984512984752655 -0.2964634299278259
v -0.28395500779151917 -0.9806981086730957 -0.2959350347518921
v -0.2821579873561859 -0.9842936992645264 -0.3035503625869751
v -0.2749699056148529 -0.9795580506324768 -0.31160086393356323
v -0.2918619215488434 -0.9876700639724731 -0.3045760989189148
v -0.3053036630153656 -0.9868807792663574 -0.29913657903671265
v -0.30314725637435913 -0.9901255965232849 -0.3063478171825409
v -0.31504353880882263 -0.9903010129928589 -0.30908313393592834
v -0.31752344965934753 -0.9868369698524475 -0.30268004536628723
v -0.32553818821907043 -0.9887224435806274 -0.31343474984169006
v -0.33642813563346863 -0.9834606051445007 -0.31464698910713196
v -0.3398784399032593 -0.9759186506271362 -0.3218582570552826
v -0.3394830822944641 -0.969297468662262 -0.31399425864219666
v -0.3403097093105316 -0.9685081839561462 -0.32216906547546387
v -0.33775794506073 -0.958335280418396 -0.32235556840896606
v -0.3357812166213989 -0.9582476019859314 -0.32981550693511963
v -0.33427172899246216 -0.945882260799408 -0.32953575253486633
v -0.33132460713386536 -0.9584668278694153 -0.3352239429950714
v -0.32985103130340576 -0.9468469619750977 -0.33528611063957214
v -0.3240286707878113 -0.9475923776626587 -0.33879849314689636
v -0.3236333429813385 -0.9580721855163574 -0.33767950534820557
v -0.3224472999572754 -0.9669734835624695 -0.33771058917045593
v -0.3314683735370636 -0.9677627682685852 -0.3353482782840729
v -0.3374704122543335 -0.9680258631706238 -0.32962900400161743
v -0.33107301592826843 -0.9747785329818726 -0.3355347514152527
v -0.33721885085105896 -0.9751731753349304 -0.32950466871261597
v -0.33621251583099365 -0.9806981086730957 -0.32878974080085754
v -0.3381892442703247 -0.9813997149467468 -0.32201364636421204
v -0.33610469102859497 -0.984337568283081 -0.3224177360534668
v -0.33272626996040344 -0.986223042011261 -0.318314790725708
v -0.3298150897026062 -0.987143874168396 -0.32310155034065247
v -0.33419984579086304 -0.984512984752655 -0.3268004357814789
v -0.33031827211380005 -0.9803912043571472 -0.33444684743881226
v -0.3212612569332123 -0.9739454388618469 -0.3389538824558258
v -0.3095446527004242 -0.9716214537620544 -0.3361875116825104
v -0.3117729723453522 -0.9647372364997864 -0.3345711827278137
v -0.31400129199028015 -0.9560551643371582 -0.33603209257125854
v -0.3002360761165619 -0.9617116451263428 -0.33102771639823914
v -0.29804369807243347 -0.969122052192688 -0.33112096786499023
v -0.2964623272418976 -0.9750416278839111 -0.3323642909526825
v -0.3083226680755615 -0.9775848984718323 -0.3368091583251953
v -0.29696547985076904 -0.9813997149467468 -0.33009523153305054
v -0.3205065131187439 -0.9796457886695862 -0.33780381083488464
v -0.3197517693042755 -0.9836360216140747 -0.3334832787513733
v -0.3290603458881378 -0.984512984752655 -0.33146288990974426
v -0.3267601430416107 -0.9866615533828735 -0.3273599445819855
v -0.3225191831588745 -0.9892047643661499 -0.31958919763565063
v -0.31245583295822144 -0.9899940490722656 -0.3164808750152588
v -0.3013502359390259 -0.9893801808357239 -0.3141496479511261
v -0.29071182012557983 -0.987494707107544 -0.31234684586524963
v -0.2817267179489136 -0.9843814373016357 -0.311072438955307
v -0.2829127311706543 -0.9834606051445007 -0.3168538808822632
v -0.2787795960903168 -0.9794703722000122 -0.3193405270576477
v -0.2863989770412445 -0.9803912043571472 -0.325930118560791
v -0.28945392370224 -0.9852145314216614 -0.319620281457901
v -0.29926568269729614 -0.9865738749504089 -0.3225109875202179
v -0.30821484327316284 -0.9825397729873657 -0.3329859673976898
v -0.32000333070755005 -0.9870561957359314 -0.3265828490257263
v -0.3099040687084198 -0.9870123267173767 -0.3248111307621002
v -0.305842787027359 -0.9091370701789856 -0.34066346287727356
v -0.3038301169872284 -0.9122064709663391 -0.3413783609867096
v -0.3144325613975525 -0.9127326607704163 -0.34799903631210327
v -0.3123120665550232 -0.9201869368553162 -0.3491801917552948
v -0.31382158398628235 -0.9288251399993896 -0.34681788086891174
v -0.30285972356796265 -0.9169421195983887 -0.3416270315647125
v -0.3238130211830139 -0.9311491250991821 -0.3513249158859253
v -0.3160139322280884 -0.9379894733428955 -0.3425906002521515
v -0.32985103130340576 -0.9468469619750977 -0.33528611063957214
v -0.33427172899246216 -0.945882260799408 -0.32953575253486633
v -0.3034347593784332 -0.9533365368843079 -0.331866979598999
v -0.3156186044216156 -0.9471977353096008 -0.33901605010032654
v -0.3046567440032959 -0.9445229768753052 -0.3341049551963806
v -0.304728627204895 -0.935095489025116 -0.3355036675930023
v -0.30386605858802795 -0.925054132938385 -0.339140385389328
v -0.2740354537963867 -0.9026036262512207 -0.32216906547546387
v -0.2804328501224518 -0.9036121368408203 -0.32925599813461304
v -0.281690776348114 -0.9015073776245117 -0.3272666931152344
v -0.27169930934906006 -0.9093124270439148 -0.3232569694519043
v -0.2719149589538574 -0.9153635501861572 -0.32338130474090576
v -0.27169930934906006 -0.9148373603820801 -0.3146159052848816
v -0.27234622836112976 -0.9223793745040894 -0.3132171630859375
v -0.27299317717552185 -0.931192934513092 -0.31132110953330994
v -0.2728494107723236 -0.932113766670227 -0.32154741883277893
v -0.2738916873931885 -0.9406642913818359 -0.3203662633895874
v -0.2725618779659271 -0.9231247901916504 -0.3226664066314697
v -0.2796062231063843 -0.9233440160751343 -0.32959792017936707
v -0.2816188931465149 -0.9322014451026917 -0.32720452547073364
v -0.2738916873931885 -0.9406642913818359 -0.3203662633895874
v -0.28470978140830994 -0.9406642913818359 -0.32394081354141235
v -0.27446672320365906 -0.9487324357032776 -0.31937161087989807
v -0.28589579463005066 -0.9495655298233032 -0.3220447301864624
v -0.28140324354171753 -0.9581599235534668 -0.3226664066314697
v -0.27364009618759155 -0.9570198655128479 -0.3164497911930084
v -0.2766591012477875 -0.9656141996383667 -0.3234434723854065
v -0.2753292918205261 -0.9731122851371765 -0.32244881987571716
v -0.28460195660591125 -0.9735507965087891 -0.32953575253486633
v -0.2787795960903168 -0.9794703722000122 -0.3193405270576477
v -0.2863989770412445 -0.9803912043571472 -0.325930118560791
v -0.29696547985076904 -0.9813997149467468 -0.33009523153305054
v -0.2964623272418976 -0.9750416278839111 -0.3323642909526825
v -0.29804369807243347 -0.969122052192688 -0.33112096786499023
v -0.2863989770412445 -0.9670611619949341 -0.32813701033592224
v -0.3002360761165619 -0.9617116451263428 -0.33102771639823914
v -0.290568083524704 -0.9599138498306274 -0.3269558548927307
v -0.29383864998817444 -0.9511879682540894 -0.3271734416484833
v -0.3034347593784332 -0.9533365368843079 -0.331866979598999
v -0.2940542995929718 -0.9420674443244934 -0.32934924960136414
v -0.3046567440032959 -0.9445229768753052 -0.3341049551963806
v -0.2749699056148529 -0.9795580506324768 -0.31160086393356323
v -0.29276043176651 -0.9328591823577881 -0.3317737281322479
v -0.29207757115364075 -0.9232563376426697 -0.3334521949291229
v -0.29125094413757324 -0.9147496819496155 -0.33593884110450745
v -0.30285972356796265 -0.9169421195983887 -0.3416270315647125
v -0.3038301169872284 -0.9122064709663391 -0.3413783609867096
v -0.304728627204895 -0.935095489025116 -0.3355036675930023
v -0.30386605858802795 -0.925054132938385 -0.339140385389328
v -0.2788514792919159 -0.9145304560661316 -0.33090341091156006
v -0.27964216470718384 -0.9074708223342896 -0.3304060697555542
v -0.291646271944046 -0.9071199893951416 -0.3346955180168152
v -0.30792734026908875 -0.9062430262565613 -0.33842548727989197
v -0.3178469240665436 -0.907953143119812 -0.3452015817165375
v -0.305842787027359 -0.9091370701789856 -0.34066346287727356
v -0.29125094413757324 -0.9099263548851013 -0.3357212543487549
vn -0.5331787467002869 0.30928096175193787 0.7874425053596497
vn -0.6517156958580017 0.32699164748191833 0.6843559741973877
vn -0.4984227120876312 0.5197503566741943 0.6938546895980835
vn -0.6590641140937805 0.408075213432312 0.6317508816719055
vn -0.8553666472434998 0.3175714612007141 0.40926313400268555
vn -0.7407338619232178 0.5717543363571167 0.3527185618877411
vn -0.591877818107605 0.6505774259567261 0.4758462607860565
vn -0.47552770376205444 0.5487882494926453 0.6875353455543518
vn -0.4613545536994934 0.35381200909614563 0.8136147856712341
vn -0.43937742710113525 0.38615843653678894 0.8110666871070862
vn -0.5619909763336182 0.2694465219974518 0.7820260524749756
vn -0.6862676739692688 0.20793098211288452 0.6969945430755615
vn -0.8283480405807495 -0.049015577882528305 0.5580654144287109
vn -0.6503039598464966 -0.13103458285331726 0.7482877969741821
vn -0.620676577091217 -0.3467307388782501 0.7032341957092285
vn -0.3975090980529785 -0.13311490416526794 0.9078915119171143
vn -0.3617621660232544 -0.3830394446849823 0.8499464392662048
vn -0.9437633752822876 0.28998422622680664 0.15880759060382843
vn -0.992760956287384 0.007551841903477907 0.11986933648586273
vn -0.8983975648880005 -0.346613347530365 0.26970529556274414
vn -0.8343198299407959 0.539039134979248 0.11553031951189041
vn -0.9808258414268494 0.12421143800020218 -0.15017375349998474
vn -0.9475045204162598 -0.2610471248626709 -0.18463370203971863
vn -0.41028425097465515 0.906660258769989 0.0981530249118805
vn -0.8006294965744019 0.5984864830970764 -0.028397228568792343
vn -0.8894249200820923 0.022660665214061737 -0.456519216299057
vn -0.2864021360874176 0.9547009468078613 0.08074574917554855
vn -0.3135780096054077 0.9479919672012329 0.05459024757146835
vn -0.4073716402053833 0.8763381242752075 0.25706008076667786
vn -0.30444198846817017 0.9516265392303467 0.04149730131030083
vn -0.28476792573928833 0.9570408463478088 -0.05459024757146835
vn -0.2828977704048157 0.9585902690887451 -0.03276457265019417
vn -0.297502338886261 0.9547185897827148 -0.002184694167226553
vn -0.2774547338485718 0.9589282870292664 0.058952588587999344
vn -0.3314826190471649 0.9346638917922974 0.12854042649269104
vn -0.35398197174072266 0.9038991332054138 0.2401314377784729
vn 0.12981581687927246 0.9342352747917175 0.33219319581985474
vn -0.11673475801944733 0.9758501052856445 0.18463370203971863
vn 0.5505838990211487 0.4959172010421753 0.6715083718299866
vn -0.1782141625881195 0.964835524559021 0.19321508705615997
vn -0.041461262851953506 0.7983331680297852 0.6007870435714722
vn -0.09765437990427017 0.15415839850902557 0.983208417892456
vn -0.05627799406647682 0.1322113275527954 0.9896226525306702
vn -0.3214206099510193 0.159554585814476 0.933397650718689
vn -0.2791494131088257 0.2565719187259674 0.9253358840942383
vn -0.21758122742176056 0.2427697479724884 0.9453682899475098
vn -0.08909419178962708 0.15431566536426544 0.9839963912963867
vn 0.09145829826593399 0.09935019910335541 0.990840494632721
vn 0.17534807324409485 0.11998254060745239 0.9771679639816284
vn -0.023890703916549683 0.03656744584441185 0.9990455508232117
vn -0.13958635926246643 -0.08849570900201797 0.9862475395202637
vn -0.159554585814476 -0.3214206099510193 0.933397650718689
vn -0.3651832044124603 -0.30806198716163635 0.8784868121147156
vn -0.020514793694019318 -0.18565037846565247 0.9824016690254211
vn -0.19434170424938202 -0.2617442309856415 0.9453682899475098
vn 0.19287198781967163 -0.06621303409337997 0.9789873361587524
vn 0.6298134326934814 -0.06771194934844971 0.7737894654273987
vn 0.6642572283744812 0.12732750177383423 0.736579954624176
vn 0.9488429427146912 0.007546685636043549 0.31565824151039124
vn 0.8804718852043152 0.2460150271654129 0.405272513628006
vn 0.9891785979270935 0.09043487906455994 0.11553031951189041
vn 0.8266798257827759 0.5614460706710815 0.03713129088282585
vn -0.26073193550109863 0.9244856834411621 0.2781098484992981
vn 0.5017051696777344 0.8085945844650269 -0.30735430121421814
vn -0.3040943145751953 0.9261424541473389 0.22312943637371063
vn -0.293832391500473 0.9483110308647156 0.11986933648586273
vn -0.2792629599571228 0.9571712613105774 0.0763898640871048
vn -0.039641231298446655 0.9644486904144287 -0.2612801790237427
vn -0.26970887184143066 0.8960171341896057 0.3527185618877411
vn -0.3516668379306793 0.8798054456710815 0.3198012113571167
vn -0.3130936324596405 0.9220996499061584 0.22738653421401978
vn -0.3046455681324005 0.952262818813324 0.01966099627315998
vn -0.25393757224082947 0.9671589136123657 0.010923261754214764
vn -0.22095876932144165 0.9729323983192444 0.06767380982637405
vn -0.24463047087192535 0.9360717535018921 0.25283506512641907
vn -0.2717653512954712 0.9340700507164001 0.23163928091526031
vn -0.28381413221359253 0.8515024781227112 0.4409002661705017
vn -0.3175714612007141 0.8553666472434998 0.40926313400268555
vn -0.2982480823993683 0.8715189695358276 0.3892335295677185
vn -0.45179277658462524 0.8679993152618408 0.2060592919588089
vn -0.7723445892333984 0.6338468194007874 -0.04149730131030083
vn 0.2678140103816986 -0.09570079296827316 0.9587059020996094
vn -0.20955078303813934 0.9519988298416138 0.22312943637371063
vn -0.317809522151947 0.8609152436256409 0.3972681760787964
vn -0.4667612910270691 0.8487221598625183 0.24860523641109467
vn -0.4776941239833832 0.8374488353729248 0.26549527049064636
vn -0.22268010675907135 0.9707789421081543 -0.08945280313491821
vn -0.5532701015472412 0.7923460602760315 -0.25706008076667786
vn 0.007560675963759422 0.6401359438896179 -0.7682244777679443
vn -0.6338403820991516 0.3543183505535126 -0.6875353455543518
vn -0.28124961256980896 0.32667988538742065 -0.9023185968399048
vn -0.6073133945465088 -0.10537887364625931 -0.7874425053596497
vn -0.22268010675907135 0.9707789421081543 -0.08945280313491821
vn -0.44328632950782776 -0.2326546162366867 -0.865661084651947
vn 0.06113334000110626 0 -0.9981296062469482
vn -0.08852823823690414 -0.5674075484275818 -0.8186644315719604
vn -0.6288931965827942 -0.46252283453941345 -0.6249527335166931
vn -0.8153259754180908 -0.42496395111083984 -0.3932546079158783
vn -0.9317463040351868 -0.2864648103713989 -0.22312943637371063
vn -0.9083964824676514 -0.27888670563697815 0.31150925159454346
vn -0.6587669849395752 -0.2754206359386444 0.7001210451126099
vn -0.5772344470024109 -0.23502276837825775 0.7820260524749756
vn -0.4535508155822754 -0.13746003806591034 0.8805659413337708
vn -0.5526020526885986 0.0037658947985619307 0.8334367275238037
vn -0.9186564683914185 -0.03769795969128609 0.3932546079158783
vn -0.5402607917785645 0.09738680720329285 0.8358433246612549
vn -0.78256756067276 -0.13501141965389252 0.607749879360199
vn -0.4765675663948059 -0.03382764384150505 0.8784868121147156
vn -0.48331478238105774 -0.5379015207290649 0.6907016038894653
vn -0.38199830055236816 -0.12925739586353302 0.9150791168212891
vn -0.423185795545578 -0.10072677582502365 0.9004265069961548
vn -0.28599709272384644 -0.10676263272762299 0.9522643685340881
vn -0.1431705206632614 -0.16835346817970276 0.9752739667892456
vn 0.10230080038309097 -0.11287153512239456 0.9883291721343994
vn -0.15125685930252075 -0.0550529919564724 0.986960232257843
vn 0.11842294782400131 0.029483530670404434 0.9925254583358765
vn 0.5299876928329468 -0.06755995005369186 0.8453097939491272
vn 0.7241175174713135 -0.15725885331630707 0.6715083718299866
vn 0.9266811013221741 -0.15020844340324402 0.34452807903289795
vn 0.9124627113342285 -0.09792737662792206 0.3972681760787964
vn 0.8321932554244995 -0.007545407861471176 0.5544344186782837
vn 0.5689929127693176 0.1635042428970337 0.8059239983558655
vn 0.8036253452301025 0.21630722284317017 0.5544344186782837
vn 0.9785104393959045 -0.007543907035142183 0.2060592919588089
vn 0.9767969846725464 0.12796328961849213 0.17173540592193604
vn 0.8210358023643494 0.15009158849716187 0.5507928133010864
vn 0.3799169957637787 0.0748501867055893 0.9219872951507568
vn 0.9942998290061951 0.10551747679710388 0.0152922747656703
vn 0.9834659099578857 0.11298034340143204 0.1415284425020218
vn 0.8273162245750427 -0.007544739171862602 0.5616858005523682
vn 0.8174284100532532 -0.12774918973445892 0.5616858005523682
vn 0.6126615405082703 -0.0676763728260994 0.7874425053596497
vn 0.9947043061256409 0.007548347115516663 -0.10250037163496017
vn 0.9829105734825134 0.16542962193489075 -0.08074574917554855
vn 0.8931580781936646 0.15770076215267181 -0.42118772864341736
vn 0.9451784491539001 -0.28289487957954407 -0.16312000155448914
vn 0.9526965022087097 -0.25364693999290466 0.16742929816246033
vn 0.7213541865348816 -0.6413897275924683 0.2612801790237427
vn 0.5694491863250732 -0.3708540201187134 0.7336177229881287
vn 0.15663647651672363 -0.17920328676700592 0.9712626934051514
vn 0.06018242612481117 0.0354621484875679 0.9975572824478149
vn -0.1993236392736435 -0.011260946281254292 0.97986900806427
vn -0.34001004695892334 -0.0671536922454834 0.9380210638046265
vn -0.335157185792923 -0.14949564635753632 0.9302261471748352
vn -0.26225709915161133 -0.2848871350288391 0.9219872951507568
vn -0.15292741358280182 -0.23479683697223663 0.9599394202232361
vn -0.35117948055267334 -0.14292138814926147 0.9253358840942383
vn 0.0883256271481514 -0.6408109068870544 0.762600839138031
vn 0.3505765199661255 -0.6851372122764587 0.6385006904602051
vn 0.44321680068969727 -0.8682004809379578 0.22312943637371063
vn 0.6927186250686646 -0.699393630027771 -0.1760382205247879
vn 0.22801314294338226 -0.9457024931907654 0.23163928091526031
vn 0.0037741255946457386 -0.910611629486084 0.41324591636657715
vn 0.07350487262010574 -0.9808543920516968 0.18033768236637115
vn -0.08478710055351257 -0.979943573474884 0.18033768236637115
vn -0.20014813542366028 -0.9059554934501648 0.37307560443878174
vn -0.2594066858291626 -0.9571757912635803 0.12854042649269104
vn -0.7128517031669617 -0.6741738319396973 0.19321508705615997
vn -0.9783944487571716 -0.16527889668941498 -0.1242060661315918
vn -0.9954118132591248 0.03396323695778847 0.08945280313491821
vn -0.9882959127426147 0.11298195272684097 -0.10250037163496017
vn -0.9767035245895386 0.10176975280046463 -0.18892620503902435
vn -0.8850992918014526 0.09049569070339203 -0.456519216299057
vn -0.815619170665741 0.1054733544588089 -0.5688942670822144
vn -0.5660747289657593 0.03402258828282356 -0.8236515522003174
vn -0.6581810712814331 0.08284316956996918 -0.7482877969741821
vn -0.11553449928760529 -0.39469337463378906 -0.9115201234817505
vn 0.03818274289369583 -0.06866591423749924 -0.9969087839126587
vn 0.0037879212759435177 0.11329668015241623 -0.9935539960861206
vn -0.44547656178474426 0.034016162157058716 -0.8946471214294434
vn -0.8535194396972656 0.06035671755671501 -0.5175535082817078
vn -0.5401844382286072 -0.09780937433242798 -0.8358433246612549
vn -0.8035719990730286 -0.13530130684375763 -0.5796254277229309
vn -0.7984467148780823 -0.38331443071365356 -0.4642767012119293
vn -0.9087998270988464 -0.4065510630607605 -0.09380380809307098
vn -0.6354034543037415 -0.7647525668144226 -0.10684575140476227
vn -0.4255850613117218 -0.9029961228370667 0.058952588587999344
vn -0.300875723361969 -0.9455404281616211 -0.1242060661315918
vn -0.4756892919540405 -0.7786034941673279 -0.40926313400268555
vn -0.4121938645839691 -0.4442393183708191 -0.7954543828964233
vn -0.10933221131563187 -0.029949186369776726 -0.9935539960861206
vn 0.2530372142791748 0.17077696323394775 -0.9522643685340881
vn 0.24818205833435059 0.07466685771942139 -0.9658315181732178
vn 0.2604731023311615 -0.12423929572105408 -0.9574540853500366
vn 0.33244165778160095 0.11159936338663101 -0.9364978075027466
vn 0.2739243507385254 0.1915477216243744 -0.9424833655357361
vn 0.31349292397499084 -0.00757737597450614 -0.949560284614563
vn 0.2596806287765503 -0.2650328576564789 -0.9286137819290161
vn 0.3011845052242279 -0.6198180913925171 -0.7246471047401428
vn 0.039641622453927994 -0.413337767124176 -0.9097144603729248
vn 2.523776001552014e-13 -0.812342643737793 -0.5831804275512695
vn -0.2200108915567398 -0.7846206426620483 -0.5796254277229309
vn -0.10932651907205582 -0.9293208718299866 -0.3527185618877411
vn -0.05471516773104668 -0.977901041507721 -0.2017817199230194
vn 0.011319913901388645 -0.9872446656227112 -0.15880759060382843
vn 0.13735058903694153 -0.9769988059997559 -0.16312000155448914
vn 0.27197086811065674 -0.9542561173439026 -0.1242060661315918
vn 0.4222731590270996 -0.904823362827301 -0.05459024757146835
vn 0.45135125517845154 -0.8346507549285889 -0.31565824151039124
vn 0.5889103412628174 -0.6329752802848816 -0.5025205612182617
vn 0.3914242088794708 -0.7232885956764221 -0.5688942670822144
vn 0.27181684970855713 -0.900126576423645 -0.34042292833328247
vn 0.20024339854717255 -0.8845922350883484 -0.42118772864341736
vn 0.150198295712471 -0.8034899234771729 -0.5760593414306641
vn 0.05471649020910263 -0.9178000688552856 -0.3932546079158783
vn 0.0848677009344101 -0.9303163886070251 -0.3568037748336792
vn 0.28962892293930054 0.5746715664863586 -0.7654199600219727
vn 0.4340094029903412 0.3115880787372589 -0.8453097939491272
vn 0.2097983956336975 0.4163374900817871 -0.8846737742424011
vn 0.5266523361206055 -0.015113983303308487 -0.8499464392662048
vn 0.5658978223800659 -0.3644965887069702 -0.7395281791687012
vn 0.5545718669891357 -0.20721140503883362 -0.8059239983558655
vn 0.4304707944393158 -0.441167950630188 -0.7874425053596497
vn 0.4679185450077057 -0.3959161639213562 -0.790128231048584
vn -0.5841350555419922 -0.6814640164375305 -0.4409002661705017
vn -0.6310046911239624 -0.6590422987937927 -0.40926313400268555
vn 0.42438656091690063 -0.11208434402942657 -0.8985171914100647
vn 0.2997722923755646 -0.275689035654068 -0.913308322429657
vn 0.46409109234809875 -0.1774057000875473 -0.8678402304649353
vn 0.45305579900741577 -0.2463115006685257 -0.8567795157432556
vn 0.5247651934623718 -0.32335084676742554 -0.7874425053596497
vn 0.7608780860900879 0.5191933512687683 -0.3892335295677185
vn 0.4919488728046417 0.4959552586078644 -0.715552031993866
vn 0.17407003045082092 0.7262676954269409 -0.6650074124336243
vn 0.8750118613243103 0.23152661323547363 -0.42514660954475403
vn 0.9062639474868774 -0.06791509687900543 -0.417220801115036
vn 0.993131697177887 -0.07541624456644058 0.08945280313491821
vn 0.9909324049949646 -0.07543191313743591 0.1111890971660614
vn 0.9818751215934753 -0.015103524550795555 0.18892620503902435
vn 0.9133874773979187 -0.14294558763504028 -0.3811691105365753
vn 0.9933563470840454 -0.10554515570402145 -0.04586252197623253
vn 0.9124490022659302 -0.09805523604154587 -0.3972681760787964
vn 0.47882798314094543 -0.21980643272399902 -0.8499464392662048
vn 0.4285259246826172 -0.34312015771865845 -0.8358433246612549
vn 0.37573057413101196 -0.2627048194408417 -0.888714075088501
vn 0.37077397108078003 -0.31331178545951843 -0.87427818775177
vn 0.34544801712036133 -0.09713161736726761 -0.933397650718689
vn 0.40320339798927307 -0.00756327947601676 -0.9150791168212891
vn 0.49851855635643005 0.19217321276664734 -0.8453097939491272
vn 0.6303603649139404 -0.0904584601521492 -0.7710143327713013
vn 0.5690580010414124 0.270450234413147 -0.7765498161315918
vn 0.7701448798179626 -0.29549604654312134 -0.5652954578399658
vn 0.4299847483634949 -0.16991755366325378 -0.8867024183273315
vn 0.5889103412628174 -0.6329752802848816 -0.5025205612182617
vn 0.3914242088794708 -0.7232885956764221 -0.5688942670822144
vn 0.3011845052242279 -0.6198180913925171 -0.7246471047401428
vn 0.31349292397499084 -0.00757737597450614 -0.949560284614563
vn 0.2739243507385254 0.1915477216243744 -0.9424833655357361
vn 0.2950843870639801 0.262978196144104 -0.9185682535171509
vn 0.33244165778160095 0.11159936338663101 -0.9364978075027466
vn 0.380011647939682 0.2564730942249298 -0.888714075088501
vn 0.4700108766555786 -0.007553502917289734 -0.882628321647644
vn 0.42438656091690063 -0.11208434402942657 -0.8985171914100647
vn 0.4489022493362427 -0.24609678983688354 -0.8590245246887207
vn 0.46409109234809875 -0.1774057000875473 -0.8678402304649353
vn 0.6927186250686646 -0.699393630027771 -0.1760382205247879
vn 0.36237430572509766 -0.2679471969604492 -0.8926864862442017
vn 0.38857343792915344 -0.25053849816322327 -0.8867024183273315
vn 0.38945138454437256 -0.10467945784330368 -0.9150791168212891
vn 0.5545718669891357 -0.20721140503883362 -0.8059239983558655
vn 0.4340094029903412 0.3115880787372589 -0.8453097939491272
vn 0.45305579900741577 -0.2463115006685257 -0.8567795157432556
vn 0.5247651934623718 -0.32335084676742554 -0.7874425053596497
vn 0.5434234142303467 -0.045328933745622635 -0.838234007358551
vn 0.5201194286346436 0.1638277918100357 -0.838234007358551
vn 0.23891596496105194 0.5644612908363342 -0.790128231048584
vn 0.13165640830993652 0.8819268941879272 -0.45262736082077026
vn 0.007560675963759422 0.6401359438896179 -0.7682244777679443
vn 0.28962892293930054 0.5746715664863586 -0.7654199600219727
vn 0.3793354630470276 0.1688910275697708 -0.9097144603729248
vt 0.5751311779022217 0.5155006051063538
vt 0.5863157510757446 0.5341066122055054
vt 0.5626782178878784 0.5155006051063538
vt 0.5822800397872925 0.537146806716919
vt 0.6063787937164307 0.5581849813461304
vt 0.6092614531517029 0.5463890433311462
vt 0.6026890277862549 0.5242563486099243
vt 0.5606027245521545 0.4808422923088074
vt 0.5430763363838196 0.485463410615921
vt 0.531545877456665 0.4964081346988678
vt 0.5564517378807068 0.5252292156219482
vt 0.5769760608673096 0.5414031147956848
vt 0.5917350649833679 0.571075439453125
vt 0.5463048815727234 0.5494292378425598
vt 0.5220908522605896 0.5868844985961914
vt 0.5117133855819702 0.5181759595870972
vt 0.477929025888443 0.5449297428131104
vt 0.634974479675293 0.5827497839927673
vt 0.6229827404022217 0.5947890281677246
vt 0.5782443881034851 0.6154623627662659
vt 0.6426998972892761 0.5652382373809814
vt 0.6710649132728577 0.6068282127380371
vt 0.6299010515213013 0.6362573504447937
vt 0.6455824971199036 0.533376932144165
vt 0.6862851977348328 0.5806824564933777
vt 0.7386336326599121 0.6240965127944946
vt 0.5847014784812927 0.48777395486831665
vt 0.5644077658653259 0.44095489382743835
vt 0.5352356433868408 0.4447247385978699
vt 0.5090613961219788 0.40106746554374695
vt 0.5468814373016357 0.39316293597221375
vt 0.531315267086029 0.35327550768852234
vt 0.5731709599494934 0.34901922941207886
vt 0.5280867218971252 0.3136312961578369
vt 0.5835484266281128 0.3193468749523163
vt 0.5208225250244141 0.272041380405426
vt 0.4825412333011627 0.2735006511211395
vt 0.47689130902290344 0.31314486265182495
vt 0.45763537287712097 0.31545543670654297
vt 0.4874993562698364 0.3552212417125702
vt 0.47366276383399963 0.3563157021999359
vt 0.5023736953735352 0.4047156870365143
vt 0.5090613961219788 0.40106746554374695
vt 0.5352356433868408 0.4447247385978699
vt 0.5216296315193176 0.4486161768436432
vt 0.5076777338981628 0.45992574095726013
vt 0.4816187918186188 0.4165116846561432
vt 0.47366276383399963 0.3563157021999359
vt 0.45152419805526733 0.3630041480064392
vt 0.44656607508659363 0.43292874097824097
vt 0.4828871488571167 0.4778020977973938
vt 0.4387253522872925 0.4973810017108917
vt 0.4364192485809326 0.5714402794837952
vt 0.39986756443977356 0.44885939359664917
vt 0.3909890651702881 0.5204865336418152
vt 0.41566434502601624 0.37856999039649963
vt 0.4005593955516815 0.32627853751182556
vt 0.43734169006347656 0.31740114092826843
vt 0.42777135968208313 0.2766624689102173
vt 0.4594802260398865 0.2765408754348755
vt 0.46351590752601624 0.24090972542762756
vt 0.49049729108810425 0.24820619821548462
vt 0.5132123827934265 0.24163936078548431
vt 0.5283173322677612 0.22485746443271637
vt 0.5697118043899536 0.23288358747959137
vt 0.5283173322677612 0.22485746443271637
vt 0.553223192691803 0.2096564620733261
vt 0.6191776394844055 0.2032112330198288
vt 0.6421233415603638 0.24078811705112457
vt 0.5843555331230164 0.27727052569389343
vt 0.6369346380233765 0.34403330087661743
vt 0.597385048866272 0.3763810396194458
vt 0.6242510676383972 0.4205247461795807
vt 0.6409702897071838 0.4747619032859802
vt 0.7013901472091675 0.4551830291748047
vt 0.6756771206855774 0.39158204197883606
vt 0.7174175381660461 0.3443981409072876
vt 0.6497334837913513 0.29709261655807495
vt 0.7563906311988831 0.4281860291957855
vt 0.702658474445343 0.5277829766273499
vt 0.7595038414001465 0.5742372274398804
vt 0.3720790445804596 0.3975408375263214
vt 0.7268725633621216 0.280067503452301
vt 0.7979004383087158 0.37686747312545776
vt 0.8172716498374939 0.4988403022289276
vt 0.7636548280715942 0.5112442970275879
vt 0.9235828518867493 0.6396623253822327
vt 0.841831624507904 0.5500372648239136
vt 0.9137819409370422 0.6631326675415039
vt 0.8297246098518372 0.5803176760673523
vt 0.8196930885314941 0.6591196060180664
vt 0.7565059065818787 0.6847789287567139
vt 0.8248817920684814 0.3536403477191925
vt 0.7681517004966736 0.7393808960914612
vt 0.8118523359298706 0.7156673669815063
vt 0.7079625129699707 0.774403989315033
vt 0.693318784236908 0.7255175709724426
vt 0.6707190275192261 0.6812523007392883
vt 0.5829718708992004 0.6911025643348694
vt 0.542730450630188 0.6563226580619812
vt 0.4928033947944641 0.6194754242897034
vt 0.45129358768463135 0.6429457664489746
vt 0.39341047406196594 0.5955186486244202
vt 0.4078235924243927 0.6617950201034546
vt 0.4963778257369995 0.685630202293396
vt 0.44990992546081543 0.7058171033859253
vt 0.41335824131965637 0.720045268535614
vt 0.36746683716773987 0.6921970248222351
vt 0.3408313989639282 0.7160321474075317
vt 0.3107367753982544 0.6526744365692139
vt 0.3498251736164093 0.6214211583137512
vt 0.3409467041492462 0.5452945232391357
vt 0.3530537188053131 0.4688031077384949
vt 0.3259570598602295 0.4201599061489105
vt 0.30082055926322937 0.4933679401874542
vt 0.27430039644241333 0.4447247385978699
vt 0.30785417556762695 0.3763810396194458
vt 0.35397616028785706 0.3498704731464386
vt 0.3886829614639282 0.28262126445770264
vt 0.3409467041492462 0.304632306098938
vt 0.2936716377735138 0.3334534168243408
vt 0.25711995363235474 0.4027699828147888
vt 0.24512824416160583 0.36239612102508545
vt 0.2834095060825348 0.2761760354042053
vt 0.23475079238414764 0.30767250061035156
vt 0.19324100017547607 0.39060917496681213
vt 0.20384906232357025 0.4325639307498932
vt 0.1842472106218338 0.34354686737060547
vt 0.13443544507026672 0.37869158387184143
vt 0.1482720524072647 0.4240513741970062
vt 0.11148975044488907 0.4553046226501465
vt 0.15830357372760773 0.46783024072647095
vt 0.23521201312541962 0.22887052595615387
vt 0.18113397061824799 0.27155494689941406
vt 0.12832428514957428 0.31606346368789673
vt 0.08081862330436707 0.35813984274864197
vt 0.09788376092910767 0.4268483519554138
vt 0.060870856046676636 0.5129468441009521
vt 0.11517950892448425 0.4962865114212036
vt 0.17167896032333374 0.5151357650756836
vt 0.22126011550426483 0.47816693782806396
vt 0.2512394189834595 0.5255940556526184
vt 0.2955165207386017 0.5760613679885864
vt 0.25469857454299927 0.6150975227355957
vt 0.22402742505073547 0.6589980125427246
vt 0.20730820298194885 0.5673055648803711
vt 0.28444725275039673 0.6895216107368469
vt 0.1741003692150116 0.610719621181488
vt 0.13397422432899475 0.555509626865387
vt 0.09765315055847168 0.5905327200889587
vt 0.03077624924480915 0.6126653552055359
vt 0.14562003314495087 0.656930685043335
vt 0.22402742505073547 0.6589980125427246
vt 0.2066163718700409 0.7026553153991699
vt 0.26841986179351807 0.7272201180458069
vt 0.28444725275039673 0.6895216107368469
vt 0.3239968717098236 0.7449748516082764
vt 0.3859156370162964 0.7371919751167297
vt 0.44126203656196594 0.7515417337417603
vt 0.44990992546081543 0.7058171033859253
vt 0.4759688675403595 0.7402321696281433
vt 0.526357114315033 0.7215045094490051
vt 0.5446906089782715 0.762972891330719
vt 0.6135277152061462 0.7278281450271606
vt 0.5547221899032593 0.803589940071106
vt 0.6267877817153931 0.7707557678222656
vt 0.6355509757995605 0.8157507181167603
vt 0.5577201247215271 0.8477336168289185
vt 0.49072790145874023 0.8656100034713745
vt 0.4967237412929535 0.8180612921714783
vt 0.4932646155357361 0.7778090238571167
vt 0.4538303017616272 0.8231688141822815
vt 0.4537149965763092 0.7852271199226379
vt 0.4232744574546814 0.7886321544647217
vt 0.4126664102077484 0.7609055042266846
vt 0.3958318829536438 0.7679588198661804
vt 0.36954233050346375 0.7577437162399292
vt 0.36412301659584045 0.7820653319358826
vt 0.3976767659187317 0.7872944474220276
vt 0.419930636882782 0.8234120607376099
vt 0.43941718339920044 0.8693798780441284
vt 0.41059091687202454 0.9245898723602295
vt 0.4794279932975769 0.9232522249221802
vt 0.5624476075172424 0.9042813777923584
vt 0.46974238753318787 0.9980411529541016
vt 0.3770371675491333 0.9844210147857666
vt 0.3037031888961792 0.9532893896102905
vt 0.35732001066207886 0.9071999788284302
vt 0.22829371690750122 0.8926069736480713
vt 0.3995216488838196 0.8641507029533386
vt 0.36435362696647644 0.8479768633842468
vt 0.39133498072624207 0.8144130706787109
vt 0.36273935437202454 0.8051708340644836
vt 0.31996119022369385 0.7775658369064331
vt 0.26392295956611633 0.7697829008102417
vt 0.1981991082429886 0.7537306547164917
vt 0.1346660554409027 0.7084924578666687
vt 0.08139514178037643 0.6530392169952393
vt 0.08001148700714111 0.7110462188720703
vt 0.04069247841835022 0.7151809334754944
vt 0.10284187644720078 0.8148995041847229
vt 0.1279783695936203 0.7640673518180847
vt 0.20442557334899902 0.8173316121101379
vt 0.31177452206611633 0.8802029490470886
vt 0.33010801672935486 0.8162371516227722
vt 0.2745310068130493 0.8243849277496338
vt 0.9464132785797119 0.7694180607795715
vt 0.9311929941177368 0.7930100560188293
vt 0.8887607455253601 0.7104381918907166
vt 0.8505948185920715 0.7561628222465515
vt 0.793980062007904 0.7956854104995728
vt 0.901559591293335 0.8193989992141724
vt 0.7681517004966736 0.7393808960914612
vt 0.720184862613678 0.8350864052772522
vt 0.6267877817153931 0.7707557678222656
vt 0.6135277152061462 0.7278281450271606
vt 0.569827139377594 0.9768813252449036
vt 0.6426998972892761 0.869623064994812
vt 0.6654149889945984 0.9452632665634155
vt 0.7556988000869751 0.9112130403518677
vt 0.8421775102615356 0.8626914024353027
vt 0.5092920064926147 0.21999314427375793
vt 0.54319167137146 0.19591476023197174
vt 0.553223192691803 0.2096564620733261
vt 0.47527703642845154 0.2045489251613617
vt 0.44449058175086975 0.1938474178314209
vt 0.42880910634994507 0.23191073536872864
vt 0.38510850071907043 0.23689664900302887
vt 0.3365651071071625 0.2548946440219879
vt 0.34578952193260193 0.19688762724399567
vt 0.29055842757225037 0.21050772070884705
vt 0.4022889733314514 0.19178009033203125
vt 0.43434375524520874 0.1443529725074768
vt 0.37081068754196167 0.1405831128358841
vt 0.29055842757225037 0.21050772070884705
vt 0.3049715459346771 0.141799196600914
vt 0.23521201312541962 0.22887052595615387
vt 0.2390170842409134 0.15347357094287872
vt 0.17456158995628357 0.20138712227344513
vt 0.18113397061824799 0.27155494689941406
vt 0.11898457258939743 0.24601726233959198
vt 0.07113300263881683 0.2789730131626129
vt 0.06513714045286179 0.19178009033203125
vt 0.023166120052337646 0.2987951338291168
vt 0.014402939938008785 0.20479214191436768
vt 0.0019499999471008778 0.12063940614461899
vt 0.04899444058537483 0.10920825600624084
vt 0.0938480868935585 0.0885348990559578
vt 0.11160505563020706 0.1696474254131317
vt 0.15311485528945923 0.05874093621969223
vt 0.167412668466568 0.13024644553661346
vt 0.2389017790555954 0.09291278570890427
vt 0.22829371690750122 0.022380143404006958
vt 0.3188081383705139 0.07467158138751984
vt 0.3140806257724762 0.0019499999471008778
vt 0.03723333030939102 0.3988785147666931
vt 0.4026348888874054 0.07807660847902298
vt 0.48842179775238037 0.09838514029979706
vt 0.559334397315979 0.13207055628299713
vt 0.6220602989196777 0.09692584723234177
vt 0.6741781234741211 0.14909568428993225
vt 0.41185927391052246 0.004017335828393698
vt 0.5288938283920288 0.0364866703748703
vt 0.48853710293769836 0.16405346989631653
vt 0.5275101661682129 0.18120019137859344
vt 0.6022278070449829 0.176335871219635
vt 0.7267572283744812 0.2392072081565857
vt 0.8319153785705566 0.32360315322875977
vt 0.7114216685295105 0.19469867646694183
vt 0.5867769718170166 0.1590675413608551
s on
f 1/1/1 2/2/2 3/3/3
f 3/3/3 2/2/2 4/4/4
f 4/4/4 2/2/2 5/5/5
f 5/5/5 2/2/2 6/6/6
f 6/6/6 2/2/2 7/7/7
f 2/2/2 1/1/1 7/7/7
f 7/7/7 1/1/1 8/8/8
f 8/8/8 1/1/1 9/9/9
f 1/1/1 3/3/3 9/9/9
f 9/9/9 3/3/3 10/10/10
f 10/10/10 3/3/3 11/11/11
f 3/3/3 4/4/4 11/11/11
f 11/11/11 4/4/4 12/12/12
f 4/4/4 13/13/13 12/12/12
f 12/12/12 13/13/13 14/14/14
f 13/13/13 15/15/15 14/14/14
f 14/14/14 15/15/15 16/16/16
f 15/15/15 17/17/17 16/16/16
f 4/4/4 5/5/5 13/13/13
f 5/5/5 18/18/18 13/13/13
f 18/18/18 19/19/19 13/13/13
f 19/19/19 20/20/20 13/13/13
f 13/13/13 20/20/20 15/15/15
f 12/12/12 14/14/14 11/11/11
f 14/14/14 16/16/16 11/11/11
f 11/11/11 16/16/16 10/10/10
f 18/18/18 5/5/5 21/21/21
f 21/21/21 5/5/5 6/6/6
f 21/21/21 22/22/22 18/18/18
f 18/18/18 22/22/22 19/19/19
f 22/22/22 23/23/23 19/19/19
f 19/19/19 23/23/23 20/20/20
f 6/6/6 24/24/24 21/21/21
f 24/24/24 25/25/25 21/21/21
f 21/21/21 25/25/25 22/22/22
f 25/25/25 26/26/26 22/22/22
f 22/22/22 26/26/26 23/23/23
f 6/6/6 7/7/7 24/24/24
f 24/24/24 7/7/7 27/27/27
f 7/7/7 8/8/8 27/27/27
f 27/27/27 8/8/8 28/28/28
f 8/8/8 29/29/29 28/28/28
f 29/29/29 30/30/30 28/28/28
f 28/28/28 30/30/30 31/31/31
f 30/30/30 32/32/32 31/31/31
f 31/31/31 32/32/32 33/33/33
f 32/32/32 34/34/34 33/33/33
f 33/33/33 34/34/34 35/35/35
f 35/35/35 34/34/34 36/36/36
f 36/36/36 34/34/34 37/37/37
f 34/34/34 38/38/38 37/37/37
f 37/37/37 38/38/38 39/39/39
f 38/38/38 40/40/40 39/39/39
f 39/39/39 40/40/40 41/41/41
f 41/41/41 40/40/40 42/42/42
f 40/40/40 43/43/43 42/42/42
f 43/43/43 44/44/44 42/42/42
f 42/42/42 44/44/44 45/45/45
f 44/44/44 9/9/9 45/45/45
f 9/9/9 10/10/10 45/45/45
f 45/45/45 10/10/10 46/46/46
f 10/10/10 16/16/16 46/46/46
f 30/30/30 40/40/40 32/32/32
f 32/32/32 40/40/40 34/34/34
f 40/40/40 38/38/38 34/34/34
f 9/9/9 44/44/44 8/8/8
f 46/46/46 47/47/47 45/45/45
f 45/45/45 47/47/47 42/42/42
f 42/42/42 47/47/47 48/48/48
f 47/47/47 49/49/49 48/48/48
f 48/48/48 49/49/49 39/39/39
f 49/49/49 47/47/47 50/50/50
f 47/47/47 46/46/46 50/50/50
f 50/50/50 46/46/46 51/51/51
f 46/46/46 16/16/16 51/51/51
f 51/51/51 16/16/16 52/52/52
f 16/16/16 17/17/17 52/52/52
f 52/52/52 17/17/17 53/53/53
f 17/17/17 15/15/15 53/53/53
f 51/51/51 52/52/52 54/54/54
f 54/54/54 52/52/52 55/55/55
f 52/52/52 53/53/53 55/55/55
f 51/51/51 54/54/54 50/50/50
f 54/54/54 56/56/56 50/50/50
f 50/50/50 56/56/56 49/49/49
f 56/56/56 57/57/57 49/49/49
f 49/49/49 57/57/57 58/58/58
f 57/57/57 59/59/59 58/58/58
f 58/58/58 59/59/59 39/39/39
f 59/59/59 60/60/60 39/39/39
f 39/39/39 60/60/60 37/37/37
f 60/60/60 61/61/61 37/37/37
f 61/61/61 62/62/62 37/37/37
f 37/37/37 62/62/62 63/63/63
f 62/62/62 64/64/64 63/63/63
f 39/39/39 49/49/49 58/58/58
f 59/59/59 61/61/61 60/60/60
f 37/37/37 63/63/63 36/36/36
f 36/36/36 63/63/63 65/65/65
f 63/63/63 66/66/66 65/65/65
f 66/66/66 67/67/67 65/65/65
f 67/67/67 68/68/68 65/65/65
f 68/68/68 69/69/69 65/65/65
f 69/69/69 70/70/70 65/65/65
f 65/65/65 70/70/70 36/36/36
f 36/36/36 70/70/70 35/35/35
f 70/70/70 71/71/71 35/35/35
f 35/35/35 71/71/71 33/33/33
f 71/71/71 72/72/72 33/33/33
f 33/33/33 72/72/72 31/31/31
f 72/72/72 73/73/73 31/31/31
f 31/31/31 73/73/73 28/28/28
f 28/28/28 73/73/73 27/27/27
f 73/73/73 74/74/74 27/27/27
f 27/27/27 74/74/74 24/24/24
f 24/24/24 74/74/74 75/75/75
f 74/74/74 73/73/73 75/75/75
f 75/75/75 73/73/73 76/76/76
f 73/73/73 72/72/72 76/76/76
f 72/72/72 71/71/71 76/76/76
f 76/76/76 71/71/71 77/77/77
f 71/71/71 78/78/78 77/77/77
f 77/77/77 78/78/78 69/69/69
f 69/69/69 78/78/78 70/70/70
f 78/78/78 71/71/71 70/70/70
f 76/76/76 77/77/77 75/75/75
f 77/77/77 79/79/79 75/75/75
f 79/79/79 80/80/80 75/75/75
f 75/75/75 80/80/80 24/24/24
f 24/24/24 80/80/80 25/25/25
f 80/80/80 81/81/81 25/25/25
f 25/25/25 81/81/81 26/26/26
f 54/54/54 82/82/82 56/56/56
f 56/56/56 82/82/82 57/57/57
f 77/77/77 69/69/69 83/83/83
f 83/83/83 69/69/69 68/68/68
f 83/83/83 84/84/84 77/77/77
f 77/77/77 84/84/84 79/79/79
f 84/84/84 85/85/85 79/79/79
f 79/79/79 85/85/85 86/86/86
f 85/85/85 81/81/81 86/86/86
f 81/81/81 80/80/80 86/86/86
f 86/86/86 80/80/80 79/79/79
f 87/87/87 89/89/89 88/88/88
f 88/88/88 89/89/89 90/90/90
f 89/89/89 91/91/91 90/90/90
f 91/91/91 92/92/92 90/90/90
f 92/92/92 26/26/26 90/90/90
f 26/26/26 81/81/81 90/90/90
f 90/90/90 81/81/81 88/88/88
f 81/81/81 85/85/85 88/88/88
f 88/88/88 85/85/85 93/93/93
f 85/85/85 84/84/84 93/93/93
f 93/93/93 84/84/84 83/83/83
f 94/94/94 92/92/92 95/95/95
f 95/95/95 92/92/92 91/91/91
f 94/94/94 96/96/96 92/92/92
f 96/96/96 97/97/97 92/92/92
f 92/92/92 97/97/97 26/26/26
f 97/97/97 98/98/98 26/26/26
f 26/26/26 98/98/98 23/23/23
f 98/98/98 99/99/99 23/23/23
f 23/23/23 99/99/99 20/20/20
f 99/99/99 100/100/100 20/20/20
f 20/20/20 100/100/100 15/15/15
f 100/100/100 101/101/101 15/15/15
f 15/15/15 101/101/101 53/53/53
f 101/101/101 102/102/102 53/53/53
f 53/53/53 102/102/102 103/103/103
f 103/103/103 102/102/102 104/104/104
f 102/102/102 105/105/105 104/104/104
f 105/105/105 106/106/106 104/104/104
f 106/106/106 107/107/107 104/104/104
f 104/104/104 107/107/107 108/108/108
f 107/107/107 109/109/109 108/108/108
f 109/109/109 110/110/110 108/108/108
f 108/108/108 110/110/110 104/104/104
f 110/110/110 111/111/111 104/104/104
f 104/104/104 111/111/111 103/103/103
f 111/111/111 112/112/112 103/103/103
f 103/103/103 112/112/112 53/53/53
f 53/53/53 112/112/112 55/55/55
f 112/112/112 113/113/113 55/55/55
f 55/55/55 113/113/113 54/54/54
f 113/113/113 114/114/114 54/54/54
f 54/54/54 114/114/114 82/82/82
f 102/102/102 101/101/101 105/105/105
f 101/101/101 100/100/100 105/105/105
f 105/105/105 100/100/100 99/99/99
f 114/114/114 113/113/113 115/115/115
f 115/115/115 113/113/113 112/112/112
f 115/115/115 116/116/116 114/114/114
f 116/116/116 117/117/117 114/114/114
f 114/114/114 117/117/117 82/82/82
f 117/117/117 118/118/118 82/82/82
f 82/82/82 118/118/118 57/57/57
f 118/118/118 119/119/119 57/57/57
f 57/57/57 119/119/119 59/59/59
f 119/119/119 118/118/118 120/120/120
f 120/120/120 118/118/118 121/121/121
f 118/118/118 117/117/117 121/121/121
f 121/121/121 117/117/117 122/122/122
f 117/117/117 116/116/116 122/122/122
f 122/122/122 123/123/123 121/121/121
f 123/123/123 124/124/124 121/121/121
f 121/121/121 124/124/124 120/120/120
f 124/124/124 123/123/123 125/125/125
f 125/125/125 123/123/123 126/126/126
f 123/123/123 122/122/122 126/126/126
f 126/126/126 122/122/122 127/127/127
f 122/122/122 116/116/116 127/127/127
f 125/125/125 126/126/126 128/128/128
f 128/128/128 126/126/126 129/129/129
f 126/126/126 130/130/130 129/129/129
f 129/129/129 130/130/130 131/131/131
f 131/131/131 130/130/130 132/132/132
f 130/130/130 126/126/126 132/132/132
f 132/132/132 126/126/126 127/127/127
f 128/128/128 133/133/133 125/125/125
f 125/125/125 133/133/133 124/124/124
f 133/133/133 128/128/128 134/134/134
f 128/128/128 129/129/129 134/134/134
f 134/134/134 129/129/129 135/135/135
f 135/135/135 129/129/129 136/136/136
f 129/129/129 137/137/137 136/136/136
f 136/136/136 137/137/137 138/138/138
f 137/137/137 131/131/131 138/138/138
f 138/138/138 131/131/131 139/139/139
f 131/131/131 132/132/132 139/139/139
f 139/139/139 132/132/132 140/140/140
f 132/132/132 127/127/127 140/140/140
f 140/140/140 127/127/127 141/141/141
f 127/127/127 116/116/116 141/141/141
f 141/141/141 116/116/116 142/142/142
f 116/116/116 115/115/115 142/142/142
f 115/115/115 112/112/112 142/142/142
f 142/142/142 112/112/112 143/143/143
f 112/112/112 111/111/111 143/143/143
f 111/111/111 110/110/110 143/143/143
f 143/143/143 110/110/110 144/144/144
f 110/110/110 145/145/145 144/144/144
f 145/145/145 146/146/146 144/144/144
f 144/144/144 146/146/146 142/142/142
f 146/146/146 140/140/140 142/142/142
f 142/142/142 140/140/140 141/141/141
f 129/129/129 131/131/131 137/137/137
f 142/142/142 143/143/143 144/144/144
f 145/145/145 110/110/110 147/147/147
f 147/147/147 110/110/110 109/109/109
f 145/145/145 148/148/148 146/146/146
f 146/146/146 148/148/148 140/140/140
f 148/148/148 149/149/149 140/140/140
f 140/140/140 149/149/149 139/139/139
f 139/139/139 149/149/149 138/138/138
f 149/149/149 150/150/150 138/138/138
f 138/138/138 150/150/150 151/151/151
f 150/150/150 149/149/149 152/152/152
f 149/149/149 148/148/148 152/152/152
f 148/148/148 153/153/153 152/152/152
f 152/152/152 153/153/153 154/154/154
f 154/154/154 153/153/153 155/155/155
f 153/153/153 156/156/156 155/155/155
f 155/155/155 156/156/156 157/157/157
f 156/156/156 109/109/109 157/157/157
f 157/157/157 109/109/109 158/158/158
f 109/109/109 107/107/107 158/158/158
f 158/158/158 107/107/107 159/159/159
f 107/107/107 160/160/160 159/159/159
f 159/159/159 160/160/160 161/161/161
f 160/160/160 105/105/105 161/161/161
f 161/161/161 105/105/105 162/162/162
f 105/105/105 99/99/99 162/162/162
f 162/162/162 99/99/99 163/163/163
f 99/99/99 164/164/164 163/163/163
f 163/163/163 164/164/164 165/165/165
f 164/164/164 166/166/166 165/165/165
f 166/166/166 167/167/167 165/165/165
f 167/167/167 168/168/168 165/165/165
f 168/168/168 169/169/169 165/165/165
f 169/169/169 170/170/170 165/165/165
f 165/165/165 170/170/170 171/171/171
f 170/170/170 172/172/172 171/171/171
f 172/172/172 173/173/173 171/171/171
f 171/171/171 173/173/173 159/159/159
f 173/173/173 174/174/174 159/159/159
f 159/159/159 174/174/174 175/175/175
f 174/174/174 176/176/176 175/175/175
f 175/175/175 176/176/176 158/158/158
f 176/176/176 177/177/177 158/158/158
f 158/158/158 177/177/177 157/157/157
f 157/157/157 177/177/177 178/178/178
f 177/177/177 176/176/176 178/178/178
f 178/178/178 176/176/176 179/179/179
f 176/176/176 174/174/174 179/179/179
f 179/179/179 174/174/174 180/180/180
f 174/174/174 173/173/173 180/180/180
f 173/173/173 172/172/172 180/180/180
f 180/180/180 172/172/172 181/181/181
f 172/172/172 170/170/170 181/181/181
f 170/170/170 169/169/169 181/181/181
f 181/181/181 169/169/169 182/182/182
f 182/182/182 169/169/169 183/183/183
f 169/169/169 168/168/168 183/183/183
f 183/183/183 168/168/168 184/184/184
f 168/168/168 167/167/167 184/184/184
f 165/165/165 171/171/171 163/163/163
f 163/163/163 171/171/171 162/162/162
f 162/162/162 171/171/171 161/161/161
f 171/171/171 159/159/159 161/161/161
f 159/159/159 175/175/175 158/158/158
f 184/184/184 185/185/185 183/183/183
f 183/183/183 185/185/185 182/182/182
f 185/185/185 186/186/186 182/182/182
f 186/186/186 187/187/187 182/182/182
f 182/182/182 187/187/187 188/188/188
f 187/187/187 189/189/189 188/188/188
f 188/188/188 190/190/190 182/182/182
f 182/182/182 190/190/190 181/181/181
f 181/181/181 190/190/190 180/180/180
f 190/190/190 191/191/191 180/180/180
f 180/180/180 191/191/191 192/192/192
f 191/191/191 193/193/193 192/192/192
f 192/192/192 193/193/193 179/179/179
f 179/179/179 193/193/193 178/178/178
f 193/193/193 194/194/194 178/178/178
f 178/178/178 194/194/194 157/157/157
f 194/194/194 195/195/195 157/157/157
f 157/157/157 195/195/195 155/155/155
f 195/195/195 196/196/196 155/155/155
f 155/155/155 196/196/196 154/154/154
f 154/154/154 196/196/196 152/152/152
f 196/196/196 197/197/197 152/152/152
f 152/152/152 197/197/197 198/198/198
f 197/197/197 199/199/199 198/198/198
f 198/198/198 199/199/199 151/151/151
f 151/151/151 199/199/199 200/200/200
f 200/200/200 199/199/199 201/201/201
f 199/199/199 202/202/202 201/201/201
f 201/201/201 202/202/202 203/203/203
f 203/203/203 202/202/202 196/196/196
f 196/196/196 202/202/202 197/197/197
f 202/202/202 199/199/199 197/197/197
f 180/180/180 192/192/192 179/179/179
f 152/152/152 198/198/198 150/150/150
f 150/150/150 198/198/198 151/151/151
f 201/201/201 203/203/203 189/189/189
f 203/203/203 204/204/204 189/189/189
f 189/189/189 204/204/204 188/188/188
f 188/188/188 204/204/204 190/190/190
f 190/190/190 204/204/204 191/191/191
f 204/204/204 205/205/205 191/191/191
f 191/191/191 205/205/205 193/193/193
f 193/193/193 205/205/205 194/194/194
f 205/205/205 206/206/206 194/194/194
f 194/194/194 206/206/206 195/195/195
f 195/195/195 206/206/206 196/196/196
f 196/196/196 206/206/206 203/203/203
f 203/203/203 206/206/206 204/204/204
f 206/206/206 205/205/205 204/204/204
f 207/207/207 208/208/208 89/89/89
f 208/208/208 209/209/209 89/89/89
f 89/89/89 209/209/209 91/91/91
f 91/91/91 209/209/209 95/95/95
f 209/209/209 210/210/210 95/95/95
f 95/95/95 210/210/210 211/211/211
f 211/211/211 210/210/210 212/212/212
f 212/212/212 210/210/210 208/208/208
f 210/210/210 209/209/209 208/208/208
f 95/95/95 211/211/211 213/213/213
f 211/211/211 214/214/214 213/213/213
f 213/213/213 214/214/214 96/96/96
f 214/214/214 167/167/167 96/96/96
f 96/96/96 167/167/167 97/97/97
f 167/167/167 215/215/215 97/97/97
f 97/97/97 215/215/215 98/98/98
f 215/215/215 216/216/216 98/98/98
f 98/98/98 216/216/216 99/99/99
f 185/185/185 184/184/184 217/217/217
f 217/217/217 184/184/184 218/218/218
f 184/184/184 167/167/167 218/218/218
f 167/167/167 214/214/214 218/218/218
f 218/218/218 214/214/214 219/219/219
f 219/219/219 214/214/214 220/220/220
f 220/220/220 214/214/214 221/221/221
f 214/214/214 211/211/211 221/221/221
f 221/221/221 211/211/211 212/212/212
f 217/217/217 218/218/218 219/219/219
f 62/62/62 222/222/222 64/64/64
f 222/222/222 223/223/223 64/64/64
f 64/64/64 223/223/223 224/224/224
f 223/223/223 222/222/222 225/225/225
f 222/222/222 62/62/62 225/225/225
f 62/62/62 61/61/61 225/225/225
f 225/225/225 61/61/61 226/226/226
f 61/61/61 227/227/227 226/226/226
f 226/226/226 227/227/227 228/228/228
f 227/227/227 59/59/59 228/228/228
f 59/59/59 119/119/119 228/228/228
f 119/119/119 120/120/120 228/228/228
f 228/228/228 120/120/120 229/229/229
f 120/120/120 124/124/124 229/229/229
f 229/229/229 124/124/124 230/230/230
f 230/230/230 124/124/124 231/231/231
f 124/124/124 133/133/133 231/231/231
f 59/59/59 227/227/227 61/61/61
f 229/229/229 230/230/230 228/228/228
f 228/228/228 230/230/230 232/232/232
f 230/230/230 233/233/233 232/232/232
f 233/233/233 226/226/226 232/232/232
f 232/232/232 226/226/226 228/228/228
f 233/233/233 230/230/230 234/234/234
f 230/230/230 235/235/235 234/234/234
f 234/234/234 235/235/235 236/236/236
f 235/235/235 237/237/237 236/236/236
f 236/236/236 237/237/237 238/238/238
f 238/238/238 237/237/237 239/239/239
f 237/237/237 240/240/240 239/239/239
f 240/240/240 135/135/135 239/239/239
f 239/239/239 135/135/135 241/241/241
f 135/135/135 242/242/242 241/241/241
f 241/241/241 242/242/242 243/243/243
f 242/242/242 244/244/244 243/243/243
f 244/244/244 245/245/245 243/243/243
f 245/245/245 246/246/246 243/243/243
f 246/246/246 247/247/247 243/243/243
f 247/247/247 248/248/248 243/243/243
f 243/243/243 248/248/248 249/249/249
f 248/248/248 250/250/250 249/249/249
f 250/250/250 251/251/251 249/249/249
f 249/249/249 251/251/251 241/241/241
f 241/241/241 251/251/251 239/239/239
f 239/239/239 251/251/251 238/238/238
f 238/238/238 251/251/251 252/252/252
f 251/251/251 250/250/250 252/252/252
f 250/250/250 253/253/253 252/252/252
f 252/252/252 253/253/253 254/254/254
f 253/253/253 255/255/255 254/254/254
f 135/135/135 136/136/136 242/242/242
f 136/136/136 256/256/256 242/242/242
f 242/242/242 256/256/256 244/244/244
f 136/136/136 138/138/138 256/256/256
f 243/243/243 249/249/249 241/241/241
f 252/252/252 254/254/254 238/238/238
f 238/238/238 254/254/254 236/236/236
f 236/236/236 254/254/254 234/234/234
f 254/254/254 257/257/257 234/234/234
f 234/234/234 257/257/257 233/233/233
f 257/257/257 258/258/258 233/233/233
f 233/233/233 258/258/258 259/259/259
f 258/258/258 260/260/260 259/259/259
f 259/259/259 260/260/260 261/261/261
f 255/255/255 262/262/262 254/254/254
f 254/254/254 262/262/262 257/257/257
f 262/262/262 263/263/263 257/257/257
f 257/257/257 263/263/263 258/258/258
f 263/263/263 260/260/260 258/258/258
f 259/259/259 264/264/264 233/233/233
f 233/233/233 264/264/264 226/226/226
f 264/264/264 265/265/265 226/226/226
f 226/226/226 265/265/265 225/225/225
f 225/225/225 265/265/265 223/223/223
f 265/265/265 266/266/266 223/223/223
f 223/223/223 266/266/266 224/224/224
f 224/224/224 266/266/266 68/68/68
f 266/266/266 267/267/267 68/68/68
f 68/68/68 267/267/267 83/83/83
f 83/83/83 267/267/267 93/93/93
f 93/93/93 267/267/267 268/268/268
f 268/268/268 267/267/267 269/269/269
f 267/267/267 266/266/266 269/269/269
f 269/269/269 266/266/266 261/261/261
f 266/266/266 270/270/270 261/261/261
f 261/261/261 270/270/270 259/259/259
f 270/270/270 265/265/265 259/259/259
f 259/259/259 265/265/265 264/264/264
f 265/265/265 270/270/270 266/266/266

