# Exported by Sketchfab Model Ripper robust edition
o model_12
v -0.07726817578077316 -1.244443416595459 -0.30212855339050293
v -0.07509653270244598 -1.2414228916168213 -0.3133881390094757
v -0.07007928937673569 -1.2447099685668945 -0.300599068403244
v -0.06633508205413818 -1.2417337894439697 -0.3092227578163147
v -0.05952061712741852 -1.2412896156311035 -0.30157533288002014
v -0.06300273537635803 -1.2336935997009277 -0.31950607895851135
v -0.07247558236122131 -1.2336046695709229 -0.3231508135795593
v -0.08191099017858505 -1.2331604957580566 -0.3247128427028656
v -0.08344612270593643 -1.2405788898468018 -0.31462475657463074
v -0.09306874126195908 -1.2393795251846313 -0.31325799226760864
v -0.08412007987499237 -1.2433329820632935 -0.3048946261405945
v -0.08865056931972504 -1.2425333261489868 -0.30102211236953735
v -0.0787658542394638 -1.2437326908111572 -0.2954573929309845
v -0.07977679371833801 -1.2419114112854004 -0.29269132018089294
v -0.09303129464387894 -1.2404899597167969 -0.2983211278915405
v -0.068356953561306 -1.2437326908111572 -0.29513198137283325
v -0.10415159910917282 -1.2359590530395508 -0.31179359555244446
v -0.10692231357097626 -1.223521113395691 -0.3118261396884918
v -0.0954650342464447 -1.2363144159317017 -0.296466201543808
v -0.10415159910917282 -1.2359590530395508 -0.31179359555244446
v -0.09048523753881454 -1.2319611310958862 -0.325624018907547
v -0.10171786695718765 -1.2280076742172241 -0.326860636472702
v -0.09452898055315018 -1.22316575050354 -0.33183959126472473
v -0.10722185671329498 -1.2172577381134033 -0.32865044474601746
v -0.09688783437013626 -1.21481454372406 -0.3311561942100525
v -0.09827318787574768 -1.2025543451309204 -0.33301109075546265
v -0.0871528908610344 -1.214548110961914 -0.3305053412914276
v -0.08805149793624878 -1.2240097522735596 -0.3311236500740051
v -0.08037586510181427 -1.22520911693573 -0.33083078265190125
v -0.07067836076021194 -1.2256089448928833 -0.32920366525650024
v -0.06101830303668976 -1.2248092889785767 -0.3255263864994049
v -0.06131783872842789 -1.2137484550476074 -0.3261446952819824
v -0.07067836076021194 -1.2152143716812134 -0.3283575773239136
v -0.07910283654928207 -1.2156141996383667 -0.33089587092399597
v -0.05367964878678322 -1.22316575050354 -0.32168641686439514
v -0.05517733469605446 -1.2338712215423584 -0.31442949175834656
v -0.05566408112645149 -1.2394238710403442 -0.2954573929309845
v -0.06757067143917084 -1.2416893243789673 -0.2918452024459839
v -0.08063796162605286 -1.2378246784210205 -0.2911943793296814
v -0.06775788217782974 -1.2385355234146118 -0.2902181148529053
v -0.055065009742975235 -1.2372472286224365 -0.29275640845298767
v -0.0441693551838398 -1.2311615943908691 -0.30167296528816223
v -0.04716472327709198 -1.233204960823059 -0.30772581696510315
v -0.04132375866174698 -1.2204116582870483 -0.31215155124664307
v -0.04604146257042885 -1.2219663858413696 -0.31823694705963135
v -0.04607890546321869 -1.2086844444274902 -0.31931084394454956
v -0.05225684866309166 -1.210594654083252 -0.32367148995399475
v -0.04420679807662964 -1.1990450620651245 -0.3311561942100525
v -0.054990123957395554 -1.2026876211166382 -0.3379249572753906
v -0.07067836076021194 -1.2152143716812134 -0.3283575773239136
v -0.06644740700721741 -1.2049087285995483 -0.34153714776039124
v -0.07910283654928207 -1.2156141996383667 -0.33089587092399597
v -0.07835399359464645 -1.20561945438385 -0.3421880006790161
v -0.08992360532283783 -1.2043756246566772 -0.33925920724868774
v -0.0871528908610344 -1.214548110961914 -0.3305053412914276
v -0.09827318787574768 -1.2025543451309204 -0.33301109075546265
v -0.0894368588924408 -1.1909605264663696 -0.3411141037940979
v -0.09875994175672531 -1.1878509521484375 -0.33681854605674744
v -0.078391432762146 -1.1914490461349487 -0.34179750084877014
v -0.07835399359464645 -1.20561945438385 -0.3421880006790161
v -0.06861905008554459 -1.189805507659912 -0.33890125155448914
v -0.06644740700721741 -1.2049087285995483 -0.34153714776039124
v -0.060157135128974915 -1.1875845193862915 -0.3335968554019928
v -0.054990123957395554 -1.2026876211166382 -0.3379249572753906
v -0.04420679807662964 -1.1990450620651245 -0.3311561942100525
v -0.05263127014040947 -1.185274600982666 -0.3266328275203705
v -0.04525517672300339 -1.181321144104004 -0.3185623586177826
v -0.058696892112493515 -1.1765235662460327 -0.32259759306907654
v -0.06599809974431992 -1.1781227588653564 -0.32884570956230164
v -0.07341163605451584 -1.1798107624053955 -0.332165002822876
v -0.07988911867141724 -1.1811434030532837 -0.33353176712989807
v -0.08629172295331955 -1.1809213161468506 -0.33317381143569946
v -0.0894368588924408 -1.1909605264663696 -0.3411141037940979
v -0.0925445482134819 -1.1777673959732056 -0.3315141499042511
v -0.09875994175672531 -1.1878509521484375 -0.33681854605674744
v -0.10557439923286438 -1.1847859621047974 -0.3307656943798065
v -0.09962110966444016 -1.1746134757995605 -0.32839012145996094
v -0.10624835640192032 -1.1733253002166748 -0.32575419545173645
v -0.09370525181293488 -1.1674617528915405 -0.32549384236335754
v -0.08823870867490768 -1.1714152097702026 -0.3279995918273926
v -0.08554287999868393 -1.174302577972412 -0.3307656943798065
v -0.08228541165590286 -1.1723480224609375 -0.3307656943798065
v -0.038253504782915115 -1.194425344467163 -0.3216538727283478
v -0.08479403704404831 -1.16608464717865 -0.32682809233665466
v -0.08947429805994034 -1.1587551832199097 -0.32494062185287476
v -0.10516253858804703 -1.1672840118408203 -0.32087287306785583
v -0.10954326391220093 -1.1824315786361694 -0.3240945339202881
v -0.1050502136349678 -1.1998002529144287 -0.31787899136543274
v -0.10302833467721939 -1.201310634613037 -0.3255263864994049
v -0.10692231357097626 -1.223521113395691 -0.3118261396884918
v -0.10722185671329498 -1.2172577381134033 -0.32865044474601746
v -0.10171786695718765 -1.2280076742172241 -0.326860636472702
v -0.10415159910917282 -1.2359590530395508 -0.31179359555244446
v -0.10654789209365845 -1.192737340927124 -0.3114681541919708
v -0.1119770035147667 -1.179766297340393 -0.3192782998085022
v -0.11029210686683655 -1.1697715520858765 -0.3073027729988098
v -0.09441665560007095 -1.158266544342041 -0.31797659397125244
v -0.09887226670980453 -1.1623088121414185 -0.310036301612854
v -0.08520589768886566 -1.1607097387313843 -0.30827903747558594
v -0.08692823350429535 -1.1651073694229126 -0.3001760244369507
v -0.07090301811695099 -1.1601321697235107 -0.3075956404209137
v -0.08408263325691223 -1.1559566259384155 -0.3181718587875366
v -0.07228837162256241 -1.1537799835205078 -0.3181067705154419
v -0.08176122605800629 -1.1552903652191162 -0.3218816816806793
v -0.07517141848802567 -1.1538687944412231 -0.3209379315376282
v -0.06307761371135712 -1.1544907093048096 -0.3198965787887573
v -0.07183907181024551 -1.1569783687591553 -0.324354887008667
v -0.07962702214717865 -1.1615092754364014 -0.3261772394180298
v -0.08176122605800629 -1.1552903652191162 -0.3218816816806793
v -0.07674398273229599 -1.1699048280715942 -0.3295941650867462
v -0.0693678930401802 -1.1678171157836914 -0.32676300406455994
v -0.06060643866658211 -1.1659958362579346 -0.3218816816806793
v -0.05693711340427399 -1.1579556465148926 -0.31280240416526794
v -0.05117103084921837 -1.1621311902999878 -0.31433188915252686
v -0.050309862941503525 -1.1729254722595215 -0.31543830037117004
v -0.04386981949210167 -1.1671507358551025 -0.3055780231952667
v -0.037916526198387146 -1.1770122051239014 -0.3065868318080902
v -0.03671837970614433 -1.192737340927124 -0.3120213747024536
v -0.0988348200917244 -1.1641300916671753 -0.2984512746334076
v -0.04424424096941948 -1.206774353981018 -0.3130952715873718
v -0.045517273247241974 -1.2052640914916992 -0.3069447875022888
v -0.03990095853805542 -1.1931815147399902 -0.30421125888824463
v -0.035333022475242615 -1.181321144104004 -0.29841873049736023
v -0.04057491570711136 -1.170038104057312 -0.2958153784275055
v -0.0443565659224987 -1.1682168245315552 -0.2983211278915405
v -0.04386981949210167 -1.1671507358551025 -0.3055780231952667
v -0.0479135662317276 -1.1635081768035889 -0.30574074387550354
v -0.05117103084921837 -1.1621311902999878 -0.31433188915252686
v -0.05570152401924133 -1.1629751920700073 -0.3052526116371155
v -0.05693711340427399 -1.1579556465148926 -0.31280240416526794
v -0.06483739614486694 -1.1643521785736084 -0.3036905825138092
v -0.05914619565010071 -1.1671063899993896 -0.29828858375549316
v -0.050197534263134 -1.166884183883667 -0.29893940687179565
v -0.0545782595872879 -1.1687943935394287 -0.29252859950065613
v -0.047726355493068695 -1.1693273782730103 -0.291942834854126
v -0.0428963266313076 -1.1704379320144653 -0.29051098227500916
v -0.0406123585999012 -1.170926570892334 -0.2891767621040344
v -0.03802885115146637 -1.172081470489502 -0.2922031879425049
v -0.03817862272262573 -1.173858404159546 -0.28745201230049133
v -0.04166073724627495 -1.1706600189208984 -0.2855645716190338
v -0.0456295982003212 -1.1701713800430298 -0.28582489490509033
v -0.05094637721776962 -1.1701713800430298 -0.28732186555862427
v -0.05645036697387695 -1.1701269149780273 -0.2881028652191162
v -0.05236917734146118 -1.1699937582015991 -0.28462085127830505
v -0.04907427355647087 -1.1693273782730103 -0.28218019008636475
v -0.04540494456887245 -1.1711931228637695 -0.28107374906539917
v -0.04158585146069527 -1.1759905815124512 -0.2823428809642792
v -0.0385156013071537 -1.1844749450683594 -0.2924635112285614
v -0.03802885115146637 -1.172081470489502 -0.2922031879425049
v -0.043682608753442764 -1.1934924125671387 -0.2983536422252655
v -0.05158289149403572 -1.1727921962738037 -0.27811241149902344
v -0.048812177032232285 -1.1773675680160522 -0.2790561318397522
v -0.047726355493068695 -1.1855854988098145 -0.28335168957710266
v -0.042634230107069016 -1.1858075857162476 -0.28790760040283203
v -0.04787612333893776 -1.1931370496749878 -0.2942533493041992
v -0.06004480645060539 -1.1739472150802612 -0.2767781913280487
v -0.058359913527965546 -1.177589774131775 -0.2766154706478119
v -0.05697455629706383 -1.184741497039795 -0.2782425880432129
v -0.061617374420166016 -1.1908715963363647 -0.2881354093551636
v -0.053529880940914154 -1.1921154260635376 -0.2910316586494446
v -0.052144523710012436 -1.2020657062530518 -0.2972797751426697
v -0.04828798770904541 -1.2036648988723755 -0.301347553730011
v -0.045891694724559784 -1.2174798250198364 -0.30626142024993896
v -0.04694007337093353 -1.227208137512207 -0.297344833612442
v -0.05708688125014305 -1.2330716848373413 -0.29204046726226807
v -0.06869393587112427 -1.2342710494995117 -0.2917150557041168
v -0.06775788217782974 -1.2385355234146118 -0.2902181148529053
v -0.0802261009812355 -1.2331604957580566 -0.29370012879371643
v -0.09149616956710815 -1.2284518480300903 -0.2983211278915405
v -0.08958662301301956 -1.223832130432129 -0.2978004515171051
v -0.09999553114175797 -1.21601402759552 -0.30593597888946533
v -0.09771156311035156 -1.2138373851776123 -0.3031373620033264
v -0.10329043120145798 -1.1976680755615234 -0.30580583214759827
v -0.10886930674314499 -1.18158757686615 -0.3008919358253479
v -0.10752139240503311 -1.1687943935394287 -0.2924635112285614
v -0.10475067794322968 -1.1651073694229126 -0.29584789276123047
v -0.09714993089437485 -1.1647520065307617 -0.29269132018089294
v -0.0886131301522255 -1.1659513711929321 -0.29269132018089294
v -0.0904477909207344 -1.1663511991500854 -0.2878425121307373
v -0.09962110966444016 -1.165151834487915 -0.29096657037734985
v -0.10070692747831345 -1.1661291122436523 -0.2876472771167755
v -0.10493788868188858 -1.1747024059295654 -0.28898149728775024
v -0.09909691661596298 -1.168883204460144 -0.2845883071422577
v -0.0931810662150383 -1.17239248752594 -0.28211510181427
v -0.09864760935306549 -1.1805659532546997 -0.28410017490386963
v -0.08640404790639877 -1.1834088563919067 -0.27899104356765747
v -0.08374565839767456 -1.175812840461731 -0.27765682339668274
v -0.07123999297618866 -1.1842085123062134 -0.27593207359313965
v -0.0706409215927124 -1.1771011352539062 -0.27557411789894104
v -0.058359913527965546 -1.177589774131775 -0.2766154706478119
v -0.06004480645060539 -1.1739472150802612 -0.2767781913280487
v -0.07075324654579163 -1.1736361980438232 -0.27664801478385925
v -0.06135528162121773 -1.1696827411651611 -0.2786656320095062
v -0.05158289149403572 -1.1727921962738037 -0.27811241149902344
v -0.05416639894247055 -1.1695939302444458 -0.28009748458862305
v -0.04907427355647087 -1.1693273782730103 -0.28218019008636475
v -0.04540494456887245 -1.1711931228637695 -0.28107374906539917
v -0.10692231357097626 -1.223521113395691 -0.3118261396884918
v -0.05697455629706383 -1.184741497039795 -0.2782425880432129
v -0.07097790390253067 -1.1689720153808594 -0.27863308787345886
v -0.08209820091724396 -1.1681724786758423 -0.28019511699676514
v -0.0821356475353241 -1.1721704006195068 -0.27882832288742065
v -0.08969894796609879 -1.1702601909637451 -0.2811388373374939
v -0.09164594113826752 -1.1680835485458374 -0.28218019008636475
v -0.09160849452018738 -1.1667953729629517 -0.28497880697250366
v -0.08209820091724396 -1.1681724786758423 -0.28019511699676514
v -0.08172378689050674 -1.1676393747329712 -0.283742219209671
v -0.07097790390253067 -1.1689720153808594 -0.27863308787345886
v -0.0712774395942688 -1.168883204460144 -0.2835144102573395
v -0.0627031996846199 -1.1696827411651611 -0.28380730748176575
v -0.06135528162121773 -1.1696827411651611 -0.2786656320095062
v -0.05416639894247055 -1.1695939302444458 -0.28009748458862305
v -0.05645036697387695 -1.1699937582015991 -0.2843930423259735
v -0.05236917734146118 -1.1699937582015991 -0.28462085127830505
v -0.09160849452018738 -1.1667953729629517 -0.28497880697250366
v -0.08056307584047318 -1.1672395467758179 -0.28696388006210327
v -0.08172378689050674 -1.1676393747329712 -0.283742219209671
v -0.0712774395942688 -1.168883204460144 -0.2835144102573395
v -0.07869097590446472 -1.167417287826538 -0.29314690828323364
v -0.07644444704055786 -1.1660401821136475 -0.2998831272125244
v -0.06760811060667038 -1.1671507358551025 -0.2990695834159851
v -0.06951765716075897 -1.1689720153808594 -0.2931143641471863
v -0.0706409215927124 -1.168883204460144 -0.2877449095249176
v -0.06262831389904022 -1.1699937582015991 -0.2880377769470215
v -0.0627031996846199 -1.1696827411651611 -0.28380730748176575
v -0.05645036697387695 -1.1699937582015991 -0.2843930423259735
v -0.06146760657429695 -1.169460654258728 -0.2928214967250824
v -0.06506204605102539 -1.2241430282592773 -0.2955550253391266
v -0.06719624996185303 -1.2212556600570679 -0.29529470205307007
v -0.07138976454734802 -1.2256977558135986 -0.2950994372367859
v -0.07157697528600693 -1.221433401107788 -0.2950668931007385
v -0.07906539738178253 -1.2246761322021484 -0.29542484879493713
v -0.07004185020923615 -1.2304508686065674 -0.29431843757629395
v -0.07970190793275833 -1.228896141052246 -0.2953597605228424
v -0.0610557422041893 -1.2289849519729614 -0.294839084148407
v -0.054990123957395554 -1.2228103876113892 -0.29848381876945496
v -0.05203219875693321 -1.2135708332061768 -0.30203092098236084
v -0.056150827556848526 -1.2109500169754028 -0.2983211278915405
v -0.06064388155937195 -1.2189013957977295 -0.2975400984287262
v -0.06476251035928726 -1.2168580293655396 -0.2956526577472687
v -0.06101830303668976 -1.2091730833053589 -0.2959129810333252
v -0.057236649096012115 -1.2005109786987305 -0.2942533493041992
v -0.06457529962062836 -1.1990007162094116 -0.291942834854126
v -0.06757067143917084 -1.208018183708191 -0.29366758465766907
v -0.07015417516231537 -1.21601402759552 -0.2946438491344452
v -0.07655677199363708 -1.2153476476669312 -0.294806569814682
v -0.07786724716424942 -1.2206782102584839 -0.29522961378097534
v -0.08760219067335129 -1.2206782102584839 -0.2972472310066223
v -0.06457529962062836 -1.1990007162094116 -0.291942834854126
v -0.07434768974781036 -1.1980679035186768 -0.2909014821052551
v -0.07569560408592224 -1.2073962688446045 -0.2930167317390442
v -0.08202332258224487 -1.214237093925476 -0.2957177460193634
v -0.08475659042596817 -1.217391014099121 -0.2965638339519501
v -0.061617374420166016 -1.1908715963363647 -0.2881354093551636
v -0.07266279309988022 -1.189805507659912 -0.2868662476539612
v -0.07123999297618866 -1.1842085123062134 -0.27593207359313965
v -0.08501868695020676 -1.1886061429977417 -0.2892093062400818
v -0.08640404790639877 -1.1834088563919067 -0.27899104356765747
v -0.09531526267528534 -1.1873623132705688 -0.2939279079437256
v -0.09864760935306549 -1.1805659532546997 -0.28410017490386963
v -0.10493788868188858 -1.1747024059295654 -0.28898149728775024
v -0.10250414907932281 -1.1855411529541016 -0.29802823066711426
v -0.10752139240503311 -1.1687943935394287 -0.2924635112285614
v -0.10886930674314499 -1.18158757686615 -0.3008919358253479
v -0.10010785609483719 -1.1988674402236938 -0.3021610975265503
v -0.09524038434028625 -1.2121493816375732 -0.3005339801311493
v -0.09078477323055267 -1.2098838090896606 -0.29750755429267883
v -0.08426984399557114 -1.2079737186431885 -0.29396045207977295
v -0.08520589768886566 -1.1981122493743896 -0.2926587760448456
v -0.09411711990833282 -1.198512077331543 -0.297702819108963
vn -0.05281473696231842 -0.9837263822555542 -0.17173540592193604
vn 0.06792319566011429 -0.8871170282363892 -0.456519216299057
vn 0.12612901628017426 -0.985762894153595 -0.1111890971660614
vn 0.2822606563568115 -0.8540388941764832 -0.43697428703308105
vn 0.41116708517074585 -0.8805104494094849 -0.23588760197162628
vn 0.365798681974411 -0.716671884059906 -0.5937783122062683
vn 0.19586586952209473 -0.7054451107978821 -0.681163489818573
vn -0.020775217562913895 -0.7609022259712219 -0.6485338807106018
vn -0.09241178631782532 -0.8985185027122498 -0.42909738421440125
vn -0.2573569416999817 -0.8996427059173584 -0.3527185618877411
vn -0.16724388301372528 -0.9750674366950989 -0.1458524912595749
vn -0.3008231222629547 -0.9502555131912231 0.08074574917554855
vn -0.10736411064863205 -0.9637198448181152 0.24437066912651062
vn -0.26130935549736023 -0.6677694320678711 0.6969945430755615
vn -0.6345217227935791 -0.6998236179351807 0.3280687630176544
vn 0.21331462264060974 -0.9491259455680847 0.23163928091526031
vn -0.7859843373298645 -0.17220894992351532 0.5937783122062683
vn -0.8296673893928528 -0.30999866127967834 0.4642767012119293
vn -0.5741610527038574 0.011298619210720062 0.8186644315719604
vn -0.29121989011764526 -0.8791853785514832 -0.37712597846984863
vn -0.15376393496990204 -0.7512494921684265 -0.641857385635376
vn -0.26402509212493896 -0.6732176542282104 -0.6907016038894653
vn -0.13308171927928925 -0.260770708322525 -0.9561840295791626
vn -0.27066826820373535 -0.1817069947719574 -0.9453682899475098
vn -0.08351239562034607 -0.07007522135972977 -0.9940398335456848
vn -0.0713832750916481 -0.1538269817829132 -0.9855159521102905
vn 0.05240868031978607 0 -0.9986256957054138
vn 0.007583487778902054 -0.21233287453651428 -0.9771679639816284
vn 0.06778453290462494 -0.43764176964759827 -0.8965907096862793
vn 0.2603171467781067 -0.20966656506061554 -0.9424833655357361
vn 0.3980430066585541 -0.38333407044410706 -0.8334367275238037
vn 0.41631126403808594 -0.4683840870857239 -0.7792953848838806
vn 0.25038018822669983 0.08175073564052582 -0.9646899104118347
vn 0.12277064472436905 0.029960688203573227 -0.9919826984405518
vn 0.45952653884887695 -0.3198398947715759 -0.8285757899284363
vn 0.43772751092910767 -0.7506150007247925 -0.4949462115764618
vn 0.46756845712661743 -0.880261242389679 0.08074574917554855
vn 0.07899018377065659 -0.6553550958633423 0.7511792182922363
vn -0.1985480934381485 0.1312534064054489 0.9712626934051514
vn 0.15080001950263977 -0.5761258602142334 0.8033295273780823
vn 0.46099817752838135 -0.23933136463165283 0.8545181155204773
vn 0.856561005115509 -0.45677146315574646 0.2401314377784729
vn 0.5985957980155945 -0.7212091088294983 -0.34862664341926575
vn 0.9994269013404846 -0.03019949607551098 -0.0152922747656703
vn 0.6137697100639343 -0.393628865480423 -0.6843559741973877
vn 0.8190497756004333 -0.3525421619415283 -0.45262736082077026
vn 0.48809608817100525 -0.4774152338504791 -0.7306414246559143
vn 0.5983347296714783 -0.669031023979187 -0.4409002661705017
vn 0.3812008500099182 -0.7735327482223511 -0.5062933564186096
vn 0.2708197236061096 -0.789483368396759 -0.5507928133010864
vn 0.2127302885055542 -0.786625862121582 -0.5796254277229309
vn -0.018883194774389267 -0.7523826360702515 -0.6584556698799133
vn -0.0828719511628151 -0.7451410889625549 -0.661737859249115
vn -0.3377005159854889 -0.3897271752357483 -0.8567795157432556
vn -0.38059288263320923 -0.659206211566925 -0.6485338807106018
vn -0.695564866065979 -0.19778968393802643 -0.6907016038894653
vn -0.39095643162727356 -0.16193945705890656 -0.9060511589050293
vn -0.5847405791282654 -0.22533784806728363 -0.7792953848838806
vn 0.00757737597450614 0.31349292397499084 -0.949560284614563
vn 0.015155431814491749 0.08595072478055954 -0.9961841106414795
vn 0.24960654973983765 0.3268449902534485 -0.9115201234817505
vn 0.23911257088184357 0.25650936365127563 -0.9364978075027466
vn 0.37903890013694763 0.46837422251701355 -0.7980946898460388
vn 0.31364914774894714 0.3603958487510681 -0.8784868121147156
vn 0.4969175159931183 0.4728601276874542 -0.7276512384414673
vn 0.4617617130279541 0.5565136075019836 -0.6907016038894653
vn 0.5475381016731262 0.5328383445739746 -0.6452018022537231
vn 0.4865846633911133 0.4411740303039551 -0.7540562748908997
vn 0.40830519795417786 0.4617587625980377 -0.7874425053596497
vn 0.20085884630680084 0.49108919501304626 -0.8476362228393555
vn 0.003777894424274564 0.49303221702575684 -0.8700028657913208
vn -5.827157739625097e-14 0.563491940498352 -0.8261215686798096
vn -0.05472762882709503 0.5930148363113403 -0.8033295273780823
vn -0.1766049712896347 0.5312935709953308 -0.8285757899284363
vn -0.276061475276947 0.5738701820373535 -0.7710143327713013
vn -0.7611764073371887 -0.003777765901759267 -0.6485338807106018
vn -0.1981855183839798 0.43893226981163025 -0.8763908743858337
vn -0.5239897966384888 0.45722249150276184 -0.7185974717140198
vn -0.26608991622924805 0.4105514883995056 -0.872148871421814
vn -0.17255467176437378 0.39932066202163696 -0.9004265069961548
vn -0.17255467176437378 0.39932066202163696 -0.9004265069961548
vn -0.03958665952086449 0.35254642367362976 -0.9349566102027893
vn 0.9031085968017578 0.060375481843948364 -0.42514660954475403
vn -0.17431844770908356 0.3321360647678375 -0.926983654499054
vn -0.29299846291542053 0.5729609131813049 -0.7654199600219727
vn -0.6823362112045288 0.5889768004417419 -0.43303996324539185
vn -0.9062639474868774 -0.06791509687900543 -0.417220801115036
vn -0.9606375098228455 -0.17641229927539825 -0.21460255980491638
vn -0.971562385559082 0.04908904433250427 -0.23163928091526031
vn -0.9876850247383118 -0.056615423411130905 -0.1458524912595749
vn -0.9892147779464722 0.03773321211338043 -0.1415284425020218
vn -0.9143082499504089 -0.34349116683006287 -0.21460255980491638
vn -0.9430025815963745 -0.2061038464307785 -0.2612801790237427
vn -0.9232030510902405 -0.14278365671634674 0.3568037748336792
vn -0.998369574546814 -0.033982109278440475 -0.04586252197623253
vn -0.93719482421875 0.34378841519355774 0.058952588587999344
vn -0.4307340681552887 0.9018839597702026 0.03276457265019417
vn -0.25163909792900085 0.9330583214759827 0.25706008076667786
vn -0.12405992299318314 0.8965821266174316 0.42514660954475403
vn 0.030169429257512093 0.9455971121788025 0.3239381015300751
vn 0.0056574465706944466 0.8487744927406311 0.528724730014801
vn -0.16889739036560059 0.9337202906608582 0.31565824151039124
vn -0.03958721086382866 0.9151021242141724 0.401274174451828
vn -0.26842358708381653 0.9628823399543762 0.028397228568792343
vn -0.03962624445557594 0.795790433883667 -0.6042742133140564
vn 0.43501952290534973 0.8138642907142639 -0.3852050006389618
vn 0.1502729207277298 0.4331343173980713 -0.888714075088501
vn 0.0056696077808737755 0.42708539962768555 -0.9041935205459595
vn 0.030242005363106728 0.5770518183708191 -0.8161473870277405
vn 0.16315427422523499 0.35560277104377747 -0.9202865362167358
vn 0.3577437996864319 0.2804589569568634 -0.8907088041305542
vn 0.5530427098274231 0.25615179538726807 -0.7927988767623901
vn 0.60038822889328 0.4632719159126282 -0.651853621006012
vn 0.6193037629127502 0.27186909317970276 -0.736579954624176
vn 0.6207549571990967 0.3402288556098938 -0.7063339352607727
vn 0.7080912590026855 0.29432275891304016 -0.641857385635376
vn 0.8715941309928894 0.36051538586616516 -0.33219319581985474
vn 0.9496777653694153 -0.2974526882171631 0.0981530249118805
vn -0.18398329615592957 0.9805969595909119 0.06767380982637405
vn 0.986227810382843 -0.16537824273109436 0.002184694167226553
vn 0.8744849562644958 -0.260345458984375 0.40926313400268555
vn 0.9055561423301697 -0.36080652475357056 0.22312943637371063
vn 0.9995682239532471 0.007548788096755743 -0.028397228568792343
vn 0.748242199420929 0.6508539915084839 -0.12854042649269104
vn 0.47062239050865173 0.8654602766036987 0.17173540592193604
vn 0.7701891660690308 0.634215235710144 0.06767380982637405
vn 0.24629095196723938 0.9191703200340271 0.30735430121421814
vn 0.44722023606300354 0.8802126049995422 0.15880759060382843
vn 0.12773066759109497 0.8594841957092285 0.4949462115764618
vn 0.15768253803253174 0.8652783036231995 0.4758462607860565
vn 0.016962170600891113 0.8121655583381653 0.5831804275512695
vn -0.009434734471142292 0.9069244265556335 0.42118772864341736
vn 0.06594214588403702 0.9135812520980835 0.401274174451828
vn 0.015087652020156384 0.9604308009147644 0.2781098484992981
vn 0.06788046658039093 0.977949857711792 0.1975002884864807
vn 0.19862471520900726 0.9671237468719482 0.15880759060382843
vn 0.4202955663204193 0.8988462090492249 0.1242060661315918
vn 0.7734187245368958 0.6216078400611877 -0.1242060661315918
vn 0.9115226864814758 0.12032119184732437 0.3932546079158783
vn 0.4740316569805145 0.8235629796981812 0.31150925159454346
vn 0.11867936700582504 0.9918729066848755 0.04586252197623253
vn -0.011317833326756954 0.9966704845428467 0.08074574917554855
vn 0.020755233243107796 0.9884417653083801 0.15017375349998474
vn -0.016987692564725876 0.9936540722846985 -0.1111890971660614
vn 0.1614658683538437 0.9350340366363525 0.31565824151039124
vn 0.49169763922691345 0.5543554425239563 0.6715083718299866
vn 0.6490378975868225 -0.2219764143228531 0.7276512384414673
vn 0.809959352016449 -0.4277205467224121 0.401274174451828
vn 0.9594829678535461 -0.04524806886911392 0.2781098484992981
vn 0.6491390466690063 -0.5359373688697815 0.5398051738739014
vn 0.24957770109176636 0.28541991114616394 0.9253358840942383
vn 0.3699679374694824 -0.22881397604942322 0.9004265069961548
vn 0.3367505967617035 -0.6762863993644714 0.6551609039306641
vn 0.5220745801925659 -0.6512030363082886 0.5507928133010864
vn 0.46698763966560364 -0.6356948018074036 0.6146662831306458
vn 0.07058178633451462 0.27550172805786133 0.9587059020996094
vn 0.15614767372608185 -0.08584290742874146 0.9839963912963867
vn 0.19679658114910126 -0.6300800442695618 0.7511792182922363
vn 0.09205777943134308 -0.7293135523796082 0.677958071231842
vn 0.2682795524597168 -0.6550713181495667 0.7063339352607727
vn 0.48091956973075867 -0.42760807275772095 0.7654199600219727
vn 0.6547545790672302 -0.2997700572013855 0.6938546895980835
vn 0.7661189436912537 0.149986132979393 0.6249527335166931
vn 0.552307665348053 0.31017109751701355 0.7737894654273987
vn 0.1322753131389618 0.3291797935962677 0.9349566102027893
vn -0.016942566260695457 0.3868493437767029 0.9219872951507568
vn 0.04873945936560631 0.33899039030075073 0.9395264387130737
vn -0.16902878880500793 0.3528482913970947 0.9202865362167358
vn -0.4845868647098541 0.25007861852645874 0.838234007358551
vn -0.45268604159355164 0.0413910411298275 0.8907088041305542
vn -0.6600552201271057 -0.007540781516581774 0.7511792182922363
vn -0.7709434628486633 -0.15359044075012207 0.6181069612503052
vn -0.8900594115257263 -0.2784930169582367 0.36088213324546814
vn -0.9904890656471252 -0.13547691702842712 -0.024029340595006943
vn -0.9058656096458435 0.28243115544319153 0.31565824151039124
vn -0.42569079995155334 0.9032204747200012 0.05459024757146835
vn 0.06223376467823982 0.989177405834198 0.1328723281621933
vn 0.1336146891117096 0.9847761392593384 0.1111890971660614
vn 0.06597789376974106 0.9813894629478455 0.18033768236637115
vn -0.050921861082315445 0.9704452753067017 0.23588760197162628
vn -0.41295698285102844 0.7253232598304749 0.5507928133010864
vn -0.5737976431846619 0.09374035149812698 0.8136147856712341
vn -0.49593639373779297 0.14133648574352264 0.8567795157432556
vn -0.4194031357765198 0.05632338300347328 0.9060511589050293
vn -0.4430857300758362 0.0823763981461525 0.8926864862442017
vn -0.3287639915943146 -0.030020486563444138 0.9439348578453064
vn -0.2452419102191925 0.05212777480483055 0.9680594801902771
vn -0.04343276470899582 -0.09999225288629532 0.9940398335456848
vn -0.0433809868991375 0.10473096370697021 0.9935539960861206
vn 0.15614767372608185 -0.08584290742874146 0.9839963912963867
vn 0.07058178633451462 0.27550172805786133 0.9587059020996094
vn -0.05242098867893219 0.3549942374229431 0.933397650718689
vn 0.06006952375173569 0.4466570019721985 0.8926864862442017
vn 0.24957770109176636 0.28541991114616394 0.9253358840942383
vn 0.19865544140338898 0.6260472536087036 0.7540562748908997
vn 0.1614658683538437 0.9350340366363525 0.31565824151039124
vn 0.49169763922691345 0.5543554425239563 0.6715083718299866
vn -0.62741619348526 0.1272008717060089 0.7682244777679443
vn 0.19679658114910126 -0.6300800442695618 0.7511792182922363
vn -0.039400652050971985 0.38925600051879883 0.9202865362167358
vn -0.14777883887290955 0.33591771125793457 0.9302261471748352
vn -0.1858907788991928 0.3069421648979187 0.933397650718689
vn -0.26215487718582153 0.18674954771995544 0.946783721446991
vn -0.1954333335161209 0.6771475672721863 0.7094202041625977
vn 0.02264401689171791 0.9704762697219849 0.2401314377784729
vn 0.018863921985030174 0.972618818283081 0.23163928091526031
vn 0.086736299097538 0.9889935255050659 0.11986933648586273
vn 0.08291822671890259 0.9958643913269043 0.03713129088282585
vn 0.12050187587738037 0.9924222230911255 0.024029340595006943
vn 0.06033686175942421 0.9974871873855591 -0.03713129088282585
vn 0.0377483032643795 0.9992275834083557 -0.010923261754214764
vn -0.011328878812491894 0.9976431727409363 -0.06767380982637405
vn 0.026423441246151924 0.9970521926879883 -0.07203252613544464
vn -0.016987692564725876 0.9936540722846985 -0.1111890971660614
vn 0.02264401689171791 0.9704762697219849 0.2401314377784729
vn 0.13174651563167572 0.988662838935852 0.07203252613544464
vn 0.086736299097538 0.9889935255050659 0.11986933648586273
vn 0.12050187587738037 0.9924222230911255 0.024029340595006943
vn 0.1297745257616043 0.9773054718971252 0.16742929816246033
vn 0.06787801533937454 0.8769053220748901 0.4758462607860565
vn 0.06785906851291656 0.8910888433456421 0.4487268626689911
vn 0.10356512665748596 0.9781373143196106 0.18033768236637115
vn 0.15044690668582916 0.9884998202323914 0.0152922747656703
vn 0.05850254371762276 0.9972332119941711 0.04586252197623253
vn 0.06033686175942421 0.9974871873855591 -0.03713129088282585
vn 0.026423441246151924 0.9970521926879883 -0.07203252613544464
vn -0.02262824960052967 0.9649977684020996 0.2612801790237427
vn 0.12363369762897491 0.15675276517868042 0.97986900806427
vn 0.17678330838680267 -0.022332925349473953 0.9839963912963867
vn 0.016609512269496918 0.09894249588251114 0.994954526424408
vn -0.0055099427700042725 -0.047727812081575394 0.9988451600074768
vn -0.10734397917985916 0.03643837198615074 0.9935539960861206
vn -0.02437133900821209 0.3084712624549866 0.9509214162826538
vn -0.11817526817321777 0.2447742074728012 0.962351381778717
vn 0.0876799076795578 0.4058716595172882 0.9097144603729248
vn 0.2512645721435547 0.2446180284023285 0.9364978075027466
vn 0.5190272331237793 0.1267360895872116 0.8453097939491272
vn 0.45747363567352295 -0.1838829070329666 0.8700028657913208
vn 0.26374828815460205 0.08135557919740677 0.961154580116272
vn 0.30051496624946594 -0.10316692292690277 0.9481810927391052
vn 0.2812235355377197 -0.2228950411081314 0.933397650718689
vn 0.285972535610199 -0.3827279210090637 0.8784868121147156
vn 0.15662220120429993 -0.3363717198371887 0.9286137819290161
vn 0.11887850612401962 -0.21592707931995392 0.9691457152366638
vn 0.09688493609428406 -0.10611483454704285 0.9896226525306702
vn -0.058221012353897095 -0.14542905986309052 0.9876541495323181
vn -0.13333038985729218 -0.04056753218173981 0.9902410507202148
vn -0.257841020822525 0.026219869032502174 0.9658315181732178
vn 0.15662220120429993 -0.3363717198371887 0.9286137819290161
vn -0.05609837546944618 -0.30852586030960083 0.949560284614563
vn -0.0373087115585804 -0.23076756298542023 0.9722933769226074
vn -0.21290278434753418 -0.2009589970111847 0.9561840295791626
vn -0.30890771746635437 -0.07435514032840729 0.9481810927391052
vn 0.09205777943134308 -0.7293135523796082 0.677958071231842
vn -0.10334204882383347 -0.7187597155570984 0.6875353455543518
vn -0.07161431014537811 -0.878685712814331 0.4719987213611603
vn -0.2350264936685562 -0.6965166330337524 0.677958071231842
vn -0.26039594411849976 -0.8649100661277771 0.42909738421440125
vn -0.505794882774353 -0.5910482406616211 0.6283578276634216
vn -0.5413736701011658 -0.7669517397880554 0.34452807903289795
vn -0.7462552785873413 -0.5720273852348328 0.34042292833328247
vn -0.6530009508132935 -0.4278128445148468 0.6249527335166931
vn -0.7805291414260864 -0.3962176740169525 0.4835140109062195
vn -0.5770844221115112 -0.4099584221839905 0.7063339352607727
vn -0.6260144114494324 -0.2644069790840149 0.7336177229881287
vn -0.5653206706047058 -0.11964923143386841 0.8161473870277405
vn -0.4245837926864624 -0.18299579620361328 0.8867024183273315
vn -0.28473517298698425 -0.19759128987789154 0.9380210638046265
vn -0.33742427825927734 -0.26187580823898315 0.9041935205459595
vn -0.5064607262611389 -0.20214177668094635 0.838234007358551
vt 0.49711188673973083 0.6149759292602539
vt 0.49275416135787964 0.5620764493942261
vt 0.5253865718841553 0.6095035672187805
vt 0.52994704246521 0.5647518038749695
vt 0.5646063089370728 0.5854251980781555
vt 0.5344061255455017 0.5049206614494324
vt 0.4912340044975281 0.5063799619674683
vt 0.45049411058425903 0.5170814990997314
vt 0.46012169122695923 0.5702241659164429
vt 0.42373955249786377 0.5879789590835571
vt 0.46802645921707153 0.6132734417915344
vt 0.4530276954174042 0.6347980499267578
vt 0.49782130122184753 0.6459859609603882
vt 0.49609845876693726 0.6616734266281128
vt 0.43508997559547424 0.6506070494651794
vt 0.5382571816444397 0.6292040348052979
vt 0.37813520431518555 0.6052472591400146
vt 0.32452476024627686 0.6240965127944946
vt 0.4210033118724823 0.6656864881515503
vt 0.37813520431518555 0.6052472591400146
vt 0.4138079583644867 0.5277829766273499
vt 0.361616313457489 0.5468754768371582
vt 0.37864193320274353 0.5026101469993591
vt 0.32401806116104126 0.5298503041267395
vt 0.3484417200088501 0.4866794943809509
vt 0.302026629447937 0.4643036127090454
vt 0.3897896707057953 0.4578583836555481
vt 0.4064099192619324 0.48899003863334656
vt 0.4409678876399994 0.477923721075058
vt 0.4858628213405609 0.4667357802391052
vt 0.5341020822525024 0.45968252420425415
vt 0.5277174711227417 0.4165116846561432
vt 0.478870153427124 0.4309830367565155
vt 0.43245506286621094 0.44229257106781006
vt 0.573524534702301 0.45433175563812256
vt 0.5703828930854797 0.5135548710823059
vt 0.5878138542175293 0.6042744517326355
vt 0.5457565188407898 0.6434321999549866
vt 0.4935649037361145 0.6797930002212524
vt 0.5500129461288452 0.656930685043335
vt 0.5959213376045227 0.615827202796936
vt 0.6288577914237976 0.5546583533287048
vt 0.6085891723632812 0.5324041247367859
vt 0.6456807255744934 0.4802342653274536
vt 0.6118322014808655 0.46247950196266174
vt 0.6162912845611572 0.40532374382019043
vt 0.5728151202201843 0.4015538990497589
vt 0.5612620115280151 0.3362503945827484
vt 0.5025843977928162 0.3507217466831207
vt 0.478870153427124 0.4309830367565155
vt 0.449582040309906 0.3696925938129425
vt 0.43245506286621094 0.44229257106781006
vt 0.3978970944881439 0.39559510350227356
vt 0.34712424874305725 0.42769959568977356
vt 0.3897896707057953 0.4578583836555481
vt 0.302026629447937 0.4643036127090454
vt 0.32209253311157227 0.38233983516693115
vt 0.2767922282218933 0.40532374382019043
vt 0.3686089813709259 0.34914085268974304
vt 0.3978970944881439 0.39559510350227356
vt 0.411679744720459 0.3189820647239685
vt 0.449582040309906 0.3696925938129425
vt 0.4536357522010803 0.2897961437702179
vt 0.5025843977928162 0.3507217466831207
vt 0.5612620115280151 0.3362503945827484
vt 0.4969092011451721 0.2700956463813782
vt 0.5388652086257935 0.24115294218063354
vt 0.447656512260437 0.2311810851097107
vt 0.40387633442878723 0.26219111680984497
vt 0.364960640668869 0.2871207594871521
vt 0.33536848425865173 0.312415212392807
vt 0.30415481328964233 0.3322373330593109
vt 0.32209253311157227 0.38233983516693115
vt 0.2690901458263397 0.3467086851596832
vt 0.2767922282218933 0.40532374382019043
vt 0.23605233430862427 0.42624032497406006
vt 0.23128920793533325 0.3670172095298767
vt 0.20108899474143982 0.3908523917198181
vt 0.22895832359790802 0.31959009170532227
vt 0.26513776183128357 0.3096182346343994
vt 0.2892574071884155 0.30925342440605164
vt 0.30101320147514343 0.2925931215286255
vt 0.5975428223609924 0.31569865345954895
vt 0.26756998896598816 0.28140518069267273
vt 0.2239925116300583 0.2741087079048157
vt 0.1754492223262787 0.3713951110839844
vt 0.20575077831745148 0.4442383050918579
vt 0.2455785721540451 0.5355659127235413
vt 0.2679753601551056 0.5005428194999695
vt 0.32452476024627686 0.6240965127944946
vt 0.32401806116104126 0.5298503041267395
vt 0.361616313457489 0.5468754768371582
vt 0.37813520431518555 0.6052472591400146
vt 0.21061523258686066 0.5504021048545837
vt 0.18132710456848145 0.45177799463272095
vt 0.11231252551078796 0.4270915687084198
vt 0.180921733379364 0.2884584367275238
vt 0.1379523128271103 0.3271297812461853
vt 0.18173247575759888 0.22230370342731476
vt 0.13389858603477478 0.22218209505081177
vt 0.2778056561946869 0.14009669423103333
vt 0.22439788281917572 0.23312680423259735
vt 0.29108157753944397 0.19153687357902527
vt 0.2494296133518219 0.23422127962112427
vt 0.2820620536804199 0.20929163694381714
vt 0.34641486406326294 0.176335871219635
vt 0.31135016679763794 0.2150072157382965
vt 0.28267011046409607 0.25051674246788025
vt 0.2494296133518219 0.23422127962112427
vt 0.3227005898952484 0.2671770453453064
vt 0.35908272862434387 0.23689664900302887
vt 0.40195080637931824 0.20138712227344513
vt 0.39060041308403015 0.14751477539539337
vt 0.4404611587524414 0.15578411519527435
vt 0.4921461045742035 0.19700923562049866
vt 0.5206234455108643 0.15152783691883087
vt 0.5930837392807007 0.2125750631093979
vt 0.6348370313644409 0.3153338134288788
vt 0.08322708308696747 0.3426956236362457
vt 0.6463901400566101 0.4120121896266937
vt 0.6763876676559448 0.43596896529197693
vt 0.6714218854904175 0.3340614438056946
vt 0.6445659399032593 0.23409967124462128
vt 0.5830507874488831 0.1431368887424469
vt 0.543222963809967 0.12599016726016998
vt 0.5206234455108643 0.15152783691883087
vt 0.47978225350379944 0.13340824842453003
vt 0.4404611587524414 0.15578411519527435
vt 0.41218647360801697 0.1151670515537262
vt 0.39060041308403015 0.14751477539539337
vt 0.3325308561325073 0.1111539825797081
vt 0.3971877098083496 0.07953590154647827
vt 0.4830252230167389 0.10373589396476746
vt 0.4639727473258972 0.062024351209402084
vt 0.5428175926208496 0.0897509753704071
vt 0.5937930941581726 0.11747760325670242
vt 0.6175073981285095 0.1325569897890091
vt 0.6183181405067444 0.15736502408981323
vt 0.6460860967636108 0.15991878509521484
vt 0.6388907432556152 0.12477408349514008
vt 0.6113254427909851 0.09327761083841324
vt 0.5329872965812683 0.05691681429743767
vt 0.45475053787231445 0.034176118671894073
vt 0.5341020822525024 0.03551380708813667
vt 0.6074744462966919 0.06020023301243782
vt 0.6782118678092957 0.11541026085615158
vt 0.6873326897621155 0.16478310525417328
vt 0.6872313618659973 0.2563539445400238
vt 0.6183181405067444 0.15736502408981323
vt 0.7027368545532227 0.3605719804763794
vt 0.7573606967926025 0.14751477539539337
vt 0.748442530632019 0.18776702880859375
vt 0.7543204426765442 0.27289262413978577
vt 0.7188503742218018 0.269974023103714
vt 0.7285792827606201 0.3816101849079132
vt 0.8320505023002625 0.17025546729564667
vt 0.8199906945228577 0.19713084399700165
vt 0.8207001090049744 0.272527813911438
vt 0.8142141699790955 0.43572574853897095
vt 0.7618198394775391 0.40666142106056213
vt 0.7151007056236267 0.4922734498977661
vt 0.6982777714729309 0.46406039595603943
vt 0.6670641303062439 0.5086905360221863
vt 0.6445659399032593 0.578615128993988
vt 0.599975049495697 0.6326090693473816
vt 0.5549787282943726 0.674807071685791
vt 0.5500129461288452 0.656930685043335
vt 0.4882950484752655 0.6957236528396606
vt 0.41056498885154724 0.6956020593643188
vt 0.4094502031803131 0.7091005444526672
vt 0.3158092796802521 0.6594844460487366
vt 0.31702539324760437 0.6755366921424866
vt 0.2304784655570984 0.6039096117019653
vt 0.14545169472694397 0.5237699151039124
vt 0.06539072096347809 0.4587096571922302
vt 0.0675189197063446 0.4047156870365143
vt 0.05373627319931984 0.3458574116230011
vt 0.09234795719385147 0.23349162936210632
vt 0.05495239049196243 0.24273383617401123
vt 0.04015631228685379 0.39328452944755554
vt 0.020495768636465073 0.44144129753112793
vt 0.07603172957897186 0.5204865336418152
vt 0.033974386751651764 0.5158653855323792
vt 0.05059463903307915 0.6090171337127686
vt 0.10744806379079819 0.6067065596580505
vt 0.14474228024482727 0.7104381918907166
vt 0.09224661439657211 0.715424120426178
vt 0.1859888881444931 0.8176964521408081
vt 0.12994620203971863 0.8192773461341858
vt 0.14818795025348663 0.9104833602905273
vt 0.11403536051511765 0.8994170427322388
vt 0.10217822343111038 0.8161155581474304
vt 0.07866664975881577 0.8850672841072083
vt 0.08413917571306229 0.9614371061325073
vt 0.06214774027466774 0.9354130029678345
vt 0.040358997881412506 0.9675174951553345
vt 0.04451406002044678 0.9980411529541016
vt 0.32452476024627686 0.6240965127944946
vt 0.2150743305683136 0.915347695350647
vt 0.06397191435098648 0.8123456835746765
vt 0.03407572954893112 0.7188291549682617
vt 0.0655934065580368 0.7219909429550171
vt 0.038534823805093765 0.6430673599243164
vt 0.022319942712783813 0.6150975227355957
vt 0.0019499999471008778 0.6018422842025757
vt 0.03407572954893112 0.7188291549682617
vt 0.008435951545834541 0.7198020219802856
vt 0.06397191435098648 0.8123456835746765
vt 0.028299180790781975 0.8125889301300049
vt 0.04015631228685379 0.8749738335609436
vt 0.07866664975881577 0.8850672841072083
vt 0.06214774027466774 0.9354130029678345
vt 0.03255558758974075 0.9155908823013306
vt 0.02708306349813938 0.9421014189720154
vt 0.03225155547261238 0.2471117228269577
vt 0.13612812757492065 0.12258513271808624
vt 0.11119775474071503 0.11662634462118149
vt 0.2357483059167862 0.03077109530568123
vt 0.1768680214881897 0.13401629030704498
vt 0.21547970175743103 0.14605547487735748
vt 0.302026629447937 0.09595298767089844
vt 0.2776029706001282 0.07503640651702881
vt 0.25439542531967163 0.05424144119024277
vt 0.364960640668869 0.028460543602705002
vt 0.35979214310646057 0.0019499999471008778
vt 0.4604257345199585 0.01094899233430624
vt 0.3756016492843628 0.05557912960648537
vt 0.5905501246452332 0.6796714067459106
vt 0.5823413729667664 0.6948723793029785
vt 0.5457565188407898 0.7036281824111938
vt 0.5473780035972595 0.7136000394821167
vt 0.48839640617370605 0.7199236154556274
vt 0.5495062470436096 0.6892784237861633
vt 0.4866735637187958 0.7089788913726807
vt 0.6033193469047546 0.6572955250740051
vt 0.6462888121604919 0.6120573282241821
vt 0.6805427074432373 0.5504021048545837
vt 0.680340051651001 0.5933297276496887
vt 0.6316953897476196 0.6487829685211182
vt 0.6086905598640442 0.6816171407699585
vt 0.6590580344200134 0.6453779339790344
vt 0.730606198310852 0.5280262231826782
vt 0.7519895434379578 0.5791015625
vt 0.5861923694610596 0.7302603125572205
vt 0.5623767971992493 0.7228422164916992
vt 0.49315953254699707 0.7398673295974731
vt 0.4926528036594391 0.7294090390205383
vt 0.4154294431209564 0.7179778814315796
vt 0.43073222041130066 0.8285195827484131
vt 0.38218894600868225 0.7869296669960022
vt 0.4659996032714844 0.7560412287712097
vt 0.4378262460231781 0.7376784086227417
vt 0.42617180943489075 0.7279497385025024
vt 0.3248288035392761 0.8744874000549316
vt 0.28804129362106323 0.799820065498352
vt 0.1859888881444931 0.8176964521408081
vt 0.2324039787054062 0.7221125960350037
vt 0.14474228024482727 0.7104381918907166
vt 0.18639425933361053 0.6465939879417419
vt 0.10744806379079819 0.6067065596580505
vt 0.07603172957897186 0.5204865336418152
vt 0.1621732860803604 0.5840874910354614
vt 0.06539072096347809 0.4587096571922302
vt 0.14545169472694397 0.5237699151039124
vt 0.24446380138397217 0.6346763968467712
vt 0.32695698738098145 0.6920753717422485
vt 0.3494551479816437 0.7108030319213867
vt 0.3902963697910309 0.7402321696281433
vt 0.31033673882484436 0.7312331795692444
vt 0.26422569155693054 0.6777256727218628
s on
f 1/1/1 2/2/2 3/3/3
f 2/2/2 4/4/4 3/3/3
f 3/3/3 4/4/4 5/5/5
f 5/5/5 4/4/4 6/6/6
f 6/6/6 4/4/4 7/7/7
f 4/4/4 2/2/2 7/7/7
f 7/7/7 2/2/2 8/8/8
f 2/2/2 9/9/9 8/8/8
f 8/8/8 9/9/9 10/10/10
f 9/9/9 11/11/11 10/10/10
f 10/10/10 11/11/11 12/12/12
f 11/11/11 13/13/13 12/12/12
f 13/13/13 14/14/14 12/12/12
f 14/14/14 15/15/15 12/12/12
f 12/12/12 15/15/15 10/10/10
f 2/2/2 1/1/1 9/9/9
f 9/9/9 1/1/1 11/11/11
f 11/11/11 1/1/1 13/13/13
f 1/1/1 3/3/3 13/13/13
f 13/13/13 3/3/3 16/16/16
f 3/3/3 5/5/5 16/16/16
f 17/17/17 15/15/15 18/18/18
f 18/18/18 15/15/15 19/19/19
f 15/15/15 14/14/14 19/19/19
f 15/15/15 20/20/20 10/10/10
f 20/20/20 21/21/21 10/10/10
f 10/10/10 21/21/21 8/8/8
f 20/20/20 22/22/22 21/21/21
f 21/21/21 22/22/22 23/23/23
f 22/22/22 24/24/24 23/23/23
f 23/23/23 24/24/24 25/25/25
f 24/24/24 26/26/26 25/25/25
f 26/26/26 27/27/27 25/25/25
f 25/25/25 27/27/27 23/23/23
f 27/27/27 28/28/28 23/23/23
f 23/23/23 28/28/28 21/21/21
f 28/28/28 29/29/29 21/21/21
f 21/21/21 29/29/29 8/8/8
f 8/8/8 29/29/29 7/7/7
f 29/29/29 30/30/30 7/7/7
f 7/7/7 30/30/30 31/31/31
f 31/31/31 30/30/30 32/32/32
f 32/32/32 30/30/30 33/33/33
f 33/33/33 30/30/30 34/34/34
f 30/30/30 29/29/29 34/34/34
f 29/29/29 28/28/28 34/34/34
f 34/34/34 28/28/28 27/27/27
f 7/7/7 31/31/31 6/6/6
f 6/6/6 31/31/31 35/35/35
f 31/31/31 32/32/32 35/35/35
f 35/35/35 36/36/36 6/6/6
f 6/6/6 36/36/36 5/5/5
f 36/36/36 37/37/37 5/5/5
f 5/5/5 37/37/37 16/16/16
f 37/37/37 38/38/38 16/16/16
f 16/16/16 38/38/38 13/13/13
f 13/13/13 38/38/38 14/14/14
f 38/38/38 39/39/39 14/14/14
f 14/14/14 39/39/39 19/19/19
f 39/39/39 38/38/38 40/40/40
f 38/38/38 37/37/37 40/40/40
f 40/40/40 37/37/37 41/41/41
f 41/41/41 37/37/37 42/42/42
f 37/37/37 43/43/43 42/42/42
f 42/42/42 43/43/43 44/44/44
f 43/43/43 45/45/45 44/44/44
f 44/44/44 45/45/45 46/46/46
f 45/45/45 35/35/35 46/46/46
f 46/46/46 35/35/35 47/47/47
f 35/35/35 32/32/32 47/47/47
f 47/47/47 32/32/32 48/48/48
f 48/48/48 32/32/32 49/49/49
f 32/32/32 50/50/50 49/49/49
f 49/49/49 50/50/50 51/51/51
f 50/50/50 52/52/52 51/51/51
f 51/51/51 52/52/52 53/53/53
f 53/53/53 52/52/52 54/54/54
f 52/52/52 55/55/55 54/54/54
f 55/55/55 56/56/56 54/54/54
f 54/54/54 56/56/56 57/57/57
f 56/56/56 58/58/58 57/57/57
f 37/37/37 36/36/36 43/43/43
f 43/43/43 36/36/36 45/45/45
f 36/36/36 35/35/35 45/45/45
f 46/46/46 47/47/47 48/48/48
f 57/57/57 59/59/59 54/54/54
f 54/54/54 59/59/59 60/60/60
f 59/59/59 61/61/61 60/60/60
f 60/60/60 61/61/61 62/62/62
f 61/61/61 63/63/63 62/62/62
f 62/62/62 63/63/63 64/64/64
f 64/64/64 63/63/63 65/65/65
f 63/63/63 66/66/66 65/65/65
f 65/65/65 66/66/66 67/67/67
f 67/67/67 66/66/66 68/68/68
f 66/66/66 63/63/63 68/68/68
f 68/68/68 63/63/63 69/69/69
f 69/69/69 63/63/63 70/70/70
f 63/63/63 61/61/61 70/70/70
f 61/61/61 59/59/59 70/70/70
f 70/70/70 59/59/59 71/71/71
f 71/71/71 59/59/59 72/72/72
f 59/59/59 73/73/73 72/72/72
f 72/72/72 73/73/73 74/74/74
f 73/73/73 75/75/75 74/74/74
f 75/75/75 76/76/76 74/74/74
f 74/74/74 76/76/76 77/77/77
f 76/76/76 78/78/78 77/77/77
f 78/78/78 79/79/79 77/77/77
f 79/79/79 80/80/80 77/77/77
f 77/77/77 80/80/80 74/74/74
f 80/80/80 81/81/81 74/74/74
f 74/74/74 81/81/81 72/72/72
f 72/72/72 81/81/81 71/71/71
f 81/81/81 82/82/82 71/71/71
f 71/71/71 82/82/82 70/70/70
f 65/65/65 67/67/67 83/83/83
f 82/82/82 81/81/81 84/84/84
f 81/81/81 80/80/80 84/84/84
f 84/84/84 80/80/80 85/85/85
f 80/80/80 79/79/79 85/85/85
f 85/85/85 79/79/79 86/86/86
f 79/79/79 78/78/78 86/86/86
f 86/86/86 78/78/78 87/87/87
f 78/78/78 76/76/76 87/87/87
f 87/87/87 76/76/76 88/88/88
f 76/76/76 89/89/89 88/88/88
f 88/88/88 89/89/89 90/90/90
f 89/89/89 91/91/91 90/90/90
f 91/91/91 92/92/92 90/90/90
f 90/90/90 92/92/92 93/93/93
f 58/58/58 56/56/56 76/76/76
f 76/76/76 56/56/56 89/89/89
f 56/56/56 91/91/91 89/89/89
f 90/90/90 94/94/94 88/88/88
f 94/94/94 95/95/95 88/88/88
f 88/88/88 95/95/95 87/87/87
f 87/87/87 95/95/95 86/86/86
f 95/95/95 96/96/96 86/86/86
f 86/86/86 96/96/96 97/97/97
f 96/96/96 98/98/98 97/97/97
f 97/97/97 98/98/98 99/99/99
f 98/98/98 100/100/100 99/99/99
f 100/100/100 101/101/101 99/99/99
f 99/99/99 101/101/101 102/102/102
f 101/101/101 103/103/103 102/102/102
f 103/103/103 104/104/104 102/102/102
f 104/104/104 85/85/85 102/102/102
f 102/102/102 85/85/85 97/97/97
f 85/85/85 86/86/86 97/97/97
f 95/95/95 94/94/94 96/96/96
f 97/97/97 99/99/99 102/102/102
f 104/104/104 103/103/103 105/105/105
f 103/103/103 106/106/106 105/105/105
f 106/106/106 107/107/107 105/105/105
f 107/107/107 108/108/108 105/105/105
f 105/105/105 108/108/108 109/109/109
f 109/109/109 108/108/108 85/85/85
f 85/85/85 108/108/108 84/84/84
f 84/84/84 108/108/108 82/82/82
f 108/108/108 110/110/110 82/82/82
f 82/82/82 110/110/110 70/70/70
f 110/110/110 111/111/111 70/70/70
f 70/70/70 111/111/111 69/69/69
f 101/101/101 106/106/106 103/103/103
f 110/110/110 108/108/108 111/111/111
f 108/108/108 107/107/107 111/111/111
f 107/107/107 106/106/106 111/111/111
f 111/111/111 106/106/106 112/112/112
f 106/106/106 113/113/113 112/112/112
f 113/113/113 114/114/114 112/112/112
f 112/112/112 114/114/114 115/115/115
f 114/114/114 116/116/116 115/115/115
f 116/116/116 117/117/117 115/115/115
f 115/115/115 117/117/117 67/67/67
f 67/67/67 117/117/117 83/83/83
f 117/117/117 118/118/118 83/83/83
f 118/118/118 46/46/46 83/83/83
f 83/83/83 46/46/46 48/48/48
f 67/67/67 68/68/68 115/115/115
f 115/115/115 68/68/68 112/112/112
f 112/112/112 68/68/68 111/111/111
f 68/68/68 69/69/69 111/111/111
f 96/96/96 119/119/119 98/98/98
f 119/119/119 100/100/100 98/98/98
f 118/118/118 120/120/120 46/46/46
f 46/46/46 120/120/120 44/44/44
f 44/44/44 120/120/120 121/121/121
f 120/120/120 118/118/118 121/121/121
f 121/121/121 118/118/118 122/122/122
f 118/118/118 117/117/117 122/122/122
f 122/122/122 117/117/117 123/123/123
f 123/123/123 117/117/117 124/124/124
f 124/124/124 117/117/117 125/125/125
f 117/117/117 126/126/126 125/125/125
f 125/125/125 126/126/126 127/127/127
f 126/126/126 128/128/128 127/127/127
f 127/127/127 128/128/128 129/129/129
f 128/128/128 130/130/130 129/129/129
f 129/129/129 130/130/130 101/101/101
f 130/130/130 106/106/106 101/101/101
f 101/101/101 131/131/131 129/129/129
f 131/131/131 132/132/132 129/129/129
f 129/129/129 132/132/132 127/127/127
f 132/132/132 133/133/133 127/127/127
f 127/127/127 133/133/133 125/125/125
f 133/133/133 134/134/134 125/125/125
f 134/134/134 135/135/135 125/125/125
f 135/135/135 136/136/136 125/125/125
f 125/125/125 136/136/136 124/124/124
f 136/136/136 137/137/137 124/124/124
f 124/124/124 137/137/137 138/138/138
f 138/138/138 137/137/137 139/139/139
f 139/139/139 137/137/137 140/140/140
f 140/140/140 137/137/137 141/141/141
f 137/137/137 136/136/136 141/141/141
f 136/136/136 135/135/135 141/141/141
f 141/141/141 135/135/135 142/142/142
f 135/135/135 143/143/143 142/142/142
f 143/143/143 144/144/144 142/142/142
f 142/142/142 144/144/144 141/141/141
f 144/144/144 145/145/145 141/141/141
f 145/145/145 146/146/146 141/141/141
f 141/141/141 146/146/146 140/140/140
f 140/140/140 146/146/146 139/139/139
f 146/146/146 147/147/147 139/139/139
f 147/147/147 148/148/148 139/139/139
f 139/139/139 148/148/148 149/149/149
f 149/149/149 148/148/148 123/123/123
f 123/123/123 148/148/148 122/122/122
f 148/148/148 150/150/150 122/122/122
f 122/122/122 150/150/150 121/121/121
f 134/134/134 133/133/133 132/132/132
f 123/123/123 124/124/124 138/138/138
f 135/135/135 134/134/134 143/143/143
f 146/146/146 151/151/151 147/147/147
f 151/151/151 152/152/152 147/147/147
f 152/152/152 153/153/153 147/147/147
f 153/153/153 154/154/154 147/147/147
f 147/147/147 154/154/154 148/148/148
f 154/154/154 155/155/155 148/148/148
f 148/148/148 155/155/155 150/150/150
f 156/156/156 157/157/157 151/151/151
f 151/151/151 157/157/157 152/152/152
f 157/157/157 158/158/158 152/152/152
f 152/152/152 158/158/158 153/153/153
f 158/158/158 159/159/159 153/153/153
f 159/159/159 160/160/160 153/153/153
f 153/153/153 160/160/160 154/154/154
f 154/154/154 160/160/160 155/155/155
f 160/160/160 161/161/161 155/155/155
f 155/155/155 161/161/161 150/150/150
f 161/161/161 162/162/162 150/150/150
f 150/150/150 162/162/162 121/121/121
f 162/162/162 163/163/163 121/121/121
f 121/121/121 163/163/163 44/44/44
f 163/163/163 164/164/164 44/44/44
f 44/44/44 164/164/164 42/42/42
f 42/42/42 164/164/164 41/41/41
f 164/164/164 165/165/165 41/41/41
f 165/165/165 166/166/166 41/41/41
f 41/41/41 166/166/166 167/167/167
f 167/167/167 166/166/166 39/39/39
f 166/166/166 168/168/168 39/39/39
f 39/39/39 168/168/168 169/169/169
f 168/168/168 170/170/170 169/169/169
f 169/169/169 170/170/170 171/171/171
f 170/170/170 172/172/172 171/171/171
f 171/171/171 172/172/172 94/94/94
f 172/172/172 173/173/173 94/94/94
f 94/94/94 173/173/173 96/96/96
f 173/173/173 174/174/174 96/96/96
f 174/174/174 175/175/175 96/96/96
f 175/175/175 176/176/176 96/96/96
f 96/96/96 176/176/176 119/119/119
f 176/176/176 177/177/177 119/119/119
f 119/119/119 177/177/177 100/100/100
f 100/100/100 177/177/177 178/178/178
f 178/178/178 177/177/177 179/179/179
f 179/179/179 177/177/177 180/180/180
f 177/177/177 176/176/176 180/180/180
f 180/180/180 176/176/176 181/181/181
f 176/176/176 175/175/175 181/181/181
f 175/175/175 182/182/182 181/181/181
f 181/181/181 182/182/182 183/183/183
f 183/183/183 182/182/182 184/184/184
f 182/182/182 185/185/185 184/184/184
f 185/185/185 186/186/186 184/184/184
f 184/184/184 186/186/186 187/187/187
f 186/186/186 188/188/188 187/187/187
f 187/187/187 188/188/188 189/189/189
f 188/188/188 190/190/190 189/189/189
f 190/190/190 191/191/191 189/189/189
f 189/189/189 191/191/191 192/192/192
f 192/192/192 191/191/191 193/193/193
f 191/191/191 194/194/194 193/193/193
f 193/193/193 194/194/194 195/195/195
f 195/195/195 194/194/194 196/196/196
f 194/194/194 197/197/197 196/196/196
f 39/39/39 169/169/169 19/19/19
f 19/19/19 169/169/169 198/198/198
f 169/169/169 171/171/171 198/198/198
f 198/198/198 171/171/171 94/94/94
f 181/181/181 179/179/179 180/180/180
f 188/188/188 199/199/199 190/190/190
f 193/193/193 200/200/200 192/192/192
f 200/200/200 201/201/201 192/192/192
f 192/192/192 201/201/201 202/202/202
f 201/201/201 203/203/203 202/202/202
f 202/202/202 203/203/203 184/184/184
f 184/184/184 203/203/203 183/183/183
f 203/203/203 204/204/204 183/183/183
f 183/183/183 204/204/204 181/181/181
f 181/181/181 204/204/204 205/205/205
f 204/204/204 206/206/206 205/205/205
f 205/205/205 206/206/206 207/207/207
f 206/206/206 208/208/208 207/207/207
f 207/207/207 208/208/208 209/209/209
f 209/209/209 208/208/208 210/210/210
f 208/208/208 211/211/211 210/210/210
f 211/211/211 212/212/212 210/210/210
f 210/210/210 212/212/212 213/213/213
f 213/213/213 212/212/212 214/214/214
f 212/212/212 196/196/196 214/214/214
f 192/192/192 202/202/202 189/189/189
f 189/189/189 202/202/202 187/187/187
f 202/202/202 184/184/184 187/187/187
f 201/201/201 204/204/204 203/203/203
f 181/181/181 215/215/215 179/179/179
f 179/179/179 215/215/215 216/216/216
f 215/215/215 217/217/217 216/216/216
f 216/216/216 217/217/217 218/218/218
f 179/179/179 216/216/216 178/178/178
f 216/216/216 219/219/219 178/178/178
f 178/178/178 219/219/219 100/100/100
f 219/219/219 220/220/220 100/100/100
f 100/100/100 220/220/220 101/101/101
f 220/220/220 221/221/221 101/101/101
f 101/101/101 221/221/221 131/131/131
f 131/131/131 221/221/221 132/132/132
f 132/132/132 221/221/221 222/222/222
f 221/221/221 219/219/219 222/222/222
f 219/219/219 216/216/216 222/222/222
f 222/222/222 216/216/216 223/223/223
f 216/216/216 218/218/218 223/223/223
f 223/223/223 218/218/218 224/224/224
f 218/218/218 225/225/225 224/224/224
f 225/225/225 226/226/226 224/224/224
f 224/224/224 226/226/226 143/143/143
f 226/226/226 144/144/144 143/143/143
f 219/219/219 221/221/221 220/220/220
f 223/223/223 224/224/224 222/222/222
f 222/222/222 224/224/224 227/227/227
f 224/224/224 134/134/134 227/227/227
f 134/134/134 132/132/132 227/227/227
f 227/227/227 132/132/132 222/222/222
f 134/134/134 224/224/224 143/143/143
f 228/228/228 229/229/229 230/230/230
f 229/229/229 231/231/231 230/230/230
f 231/231/231 232/232/232 230/230/230
f 230/230/230 232/232/232 233/233/233
f 232/232/232 234/234/234 233/233/233
f 234/234/234 166/166/166 233/233/233
f 233/233/233 166/166/166 235/235/235
f 166/166/166 165/165/165 235/235/235
f 165/165/165 164/164/164 235/235/235
f 235/235/235 164/164/164 236/236/236
f 236/236/236 164/164/164 237/237/237
f 164/164/164 163/163/163 237/237/237
f 163/163/163 162/162/162 237/237/237
f 162/162/162 238/238/238 237/237/237
f 237/237/237 238/238/238 236/236/236
f 238/238/238 239/239/239 236/236/236
f 236/236/236 239/239/239 235/235/235
f 239/239/239 228/228/228 235/235/235
f 228/228/228 230/230/230 235/235/235
f 235/235/235 230/230/230 233/233/233
f 228/228/228 239/239/239 229/229/229
f 229/229/229 239/239/239 240/240/240
f 239/239/239 238/238/238 240/240/240
f 240/240/240 238/238/238 241/241/241
f 241/241/241 238/238/238 242/242/242
f 238/238/238 161/161/161 242/242/242
f 161/161/161 160/160/160 242/242/242
f 160/160/160 159/159/159 242/242/242
f 159/159/159 243/243/243 242/242/242
f 242/242/242 243/243/243 241/241/241
f 243/243/243 244/244/244 241/241/241
f 241/241/241 244/244/244 245/245/245
f 244/244/244 246/246/246 245/245/245
f 246/246/246 247/247/247 245/245/245
f 245/245/245 247/247/247 231/231/231
f 231/231/231 247/247/247 232/232/232
f 247/247/247 248/248/248 232/232/232
f 232/232/232 248/248/248 234/234/234
f 231/231/231 229/229/229 245/245/245
f 229/229/229 240/240/240 245/245/245
f 245/245/245 240/240/240 241/241/241
f 162/162/162 161/161/161 238/238/238
f 249/249/249 250/250/250 244/244/244
f 250/250/250 251/251/251 244/244/244
f 244/244/244 251/251/251 246/246/246
f 251/251/251 252/252/252 246/246/246
f 246/246/246 252/252/252 247/247/247
f 252/252/252 253/253/253 247/247/247
f 247/247/247 253/253/253 248/248/248
f 249/249/249 254/254/254 250/250/250
f 250/250/250 254/254/254 255/255/255
f 254/254/254 256/256/256 255/255/255
f 255/255/255 256/256/256 257/257/257
f 256/256/256 258/258/258 257/257/257
f 257/257/257 258/258/258 259/259/259
f 258/258/258 260/260/260 259/259/259
f 260/260/260 261/261/261 259/259/259
f 259/259/259 261/261/261 262/262/262
f 261/261/261 263/263/263 262/262/262
f 263/263/263 264/264/264 262/262/262
f 264/264/264 173/173/173 262/262/262
f 262/262/262 173/173/173 265/265/265
f 265/265/265 173/173/173 266/266/266
f 173/173/173 172/172/172 266/266/266
f 172/172/172 170/170/170 266/266/266
f 266/266/266 170/170/170 248/248/248
f 248/248/248 170/170/170 234/234/234
f 170/170/170 168/168/168 234/234/234
f 234/234/234 168/168/168 166/166/166
f 254/254/254 199/199/199 256/256/256
f 250/250/250 255/255/255 257/257/257
f 259/259/259 262/262/262 265/265/265
f 248/248/248 253/253/253 266/266/266
f 266/266/266 253/253/253 267/267/267
f 253/253/253 252/252/252 267/267/267
f 267/267/267 252/252/252 268/268/268
f 252/252/252 251/251/251 268/268/268
f 251/251/251 250/250/250 268/268/268
f 268/268/268 250/250/250 269/269/269
f 250/250/250 257/257/257 269/269/269
f 257/257/257 259/259/259 269/269/269
f 269/269/269 259/259/259 270/270/270
f 259/259/259 265/265/265 270/270/270
f 265/265/265 266/266/266 270/270/270
f 266/266/266 267/267/267 270/270/270
f 267/267/267 268/268/268 270/270/270
f 270/270/270 268/268/268 269/269/269

