# Exported by Sketchfab Model Ripper robust edition
o model_15
v -0.09307285398244858 -1.0725862979888916 -0.25567907094955444
v -0.09821223467588425 -1.0733935832977295 -0.2574680745601654
v -0.09146974235773087 -1.0750081539154053 -0.2548590898513794
v -0.09840083867311478 -1.074635624885559 -0.2572071850299835
v -0.10556768625974655 -1.0732693672180176 -0.26153063774108887
v -0.10349307209253311 -1.0711580514907837 -0.26078522205352783
v -0.09825938940048218 -1.0685498714447021 -0.2583998441696167
v -0.0838785469532013 -1.070164442062378 -0.25348004698753357
v -0.08246403932571411 -1.0742629766464233 -0.2535918653011322
v -0.08354849368333817 -1.0776784420013428 -0.25180286169052124
v -0.09283710271120071 -1.0776784420013428 -0.25407639145851135
v -0.0987308919429779 -1.0762501955032349 -0.256759911775589
v -0.10622778534889221 -1.0779889822006226 -0.26115792989730835
v -0.09637337177991867 -1.0837641954421997 -0.2555672526359558
v -0.09882519394159317 -1.0937622785568237 -0.26235058903694153
v -0.08567025512456894 -1.085316777229309 -0.2520637512207031
v -0.08614175766706467 -1.0963704586029053 -0.25731900334358215
v -0.1147148385643959 -1.0702886581420898 -0.26857489347457886
v -0.11542209982872009 -1.074076771736145 -0.26823943853378296
v -0.11108426749706268 -1.0877386331558228 -0.26816490292549133
v -0.11231017857789993 -1.0673078298568726 -0.26753130555152893
v -0.12386199831962585 -1.0671837329864502 -0.2803898751735687
v -0.11914697289466858 -1.0798519849777222 -0.2789362967014313
v -0.10438892245292664 -1.0651965141296387 -0.2661149799823761
v -0.11867547035217285 -1.0637681484222412 -0.27919718623161316
v -0.1203257292509079 -1.058862328529358 -0.3021189868450165
v -0.08831067383289337 -1.0669974088668823 -0.25601449608802795
v -0.0752500370144844 -1.0650101900100708 -0.25694626569747925
v -0.0723738744854927 -1.0674941539764404 -0.252399206161499
v -0.05841738358139992 -1.063519835472107 -0.2535918653011322
v -0.06223655864596367 -1.0621535778045654 -0.2603379487991333
v -0.05209924280643463 -1.0591728687286377 -0.26667407155036926
v -0.05832308158278465 -1.0584897994995117 -0.2736065089702606
v -0.04549819976091385 -1.0555089712142944 -0.2766627371311188
v -0.056295618414878845 -1.0553847551345825 -0.2815452814102173
v -0.03969871625304222 -1.0498579740524292 -0.28650233149528503
v -0.03243756666779518 -1.0509756803512573 -0.28366973996162415
v -0.0363510437309742 -1.056751012802124 -0.27084842324256897
v -0.033003371208906174 -1.0603526830673218 -0.2689476013183594
v -0.04516815021634102 -1.0595453977584839 -0.2604125142097473
v -0.04323498532176018 -1.0619052648544312 -0.25925710797309875
v -0.058370232582092285 -1.0655690431594849 -0.2536291480064392
v -0.05841738358139992 -1.063519835472107 -0.2535918653011322
v -0.0723738744854927 -1.0674941539764404 -0.252399206161499
v -0.07143086940050125 -1.0706613063812256 -0.252399206161499
v -0.07223242521286011 -1.075318694114685 -0.25187739729881287
v -0.05903033912181854 -1.0715306997299194 -0.2552690804004669
v -0.04281063377857208 -1.067991018295288 -0.2599652409553528
v -0.059077486395835876 -1.081528663635254 -0.2552317976951599
v -0.07317543029785156 -1.0833916664123535 -0.25184011459350586
v -0.07260962575674057 -1.0949420928955078 -0.256797194480896
v -0.0861889123916626 -1.1072378158569336 -0.2660777270793915
v -0.05917178839445114 -1.0929549932479858 -0.2599652409553528
v -0.07232671976089478 -1.1069273948669434 -0.26503413915634155
v -0.0441308431327343 -1.0786099433898926 -0.26175427436828613
v -0.03239041939377785 -1.075380802154541 -0.27148205041885376
v -0.030787307769060135 -1.0649480819702148 -0.2694321274757385
v -0.027345335111021996 -1.064078688621521 -0.28393062949180603
v -0.02899559587240219 -1.0561920404434204 -0.2825888693332672
v -0.02913704700767994 -1.053521752357483 -0.295447438955307
v -0.032673317939043045 -1.0467529296875 -0.2922048270702362
v -0.036963995546102524 -1.0432753562927246 -0.2947392761707306
v -0.040075916796922684 -1.040729284286499 -0.3007771968841553
v -0.04875157028436661 -1.0425301790237427 -0.2988763749599457
v -0.040075916796922684 -1.040729284286499 -0.3007771968841553
v -0.04691271111369133 -1.0397977828979492 -0.3054733872413635
v -0.061623603105545044 -1.040791392326355 -0.3073742091655731
v -0.06440547108650208 -1.041474461555481 -0.30032995343208313
v -0.05280649662017822 -1.0497958660125732 -0.29045307636260986
v -0.06813034415245056 -1.0565025806427002 -0.28359517455101013
v -0.06662153452634811 -1.0605390071868896 -0.27204111218452454
v -0.0781262069940567 -1.063271403312683 -0.2700657546520233
v -0.09062103927135468 -1.064202904701233 -0.2680903673171997
v -0.09222415089607239 -1.0584897994995117 -0.28147071599960327
v -0.08010651916265488 -1.057992935180664 -0.283110648393631
v -0.08015367388725281 -1.0492368936538696 -0.292801171541214
v -0.06685728579759598 -1.0497337579727173 -0.29261481761932373
v -0.09245990216732025 -1.0492990016937256 -0.2925402820110321
v -0.10519047826528549 -1.059421181678772 -0.28042712807655334
v -0.11348893493413925 -1.0531492233276367 -0.29746007919311523
v -0.04653550684452057 -1.0909056663513184 -0.2647732198238373
v -0.07911636680364609 -1.0397977828979492 -0.30196988582611084
v -0.09170549362897873 -1.0399219989776611 -0.3034607470035553
v -0.1016070619225502 -1.0426543951034546 -0.30170899629592896
v -0.10377597063779831 -1.0502926111221313 -0.29328569769859314
v -0.09283710271120071 -1.0363823175430298 -0.30934959650039673
v -0.10495472699403763 -1.0420334339141846 -0.30685243010520935
v -0.10773659497499466 -1.0443310737609863 -0.310244083404541
v -0.09227129817008972 -1.0379968881607056 -0.3136730492115021
v -0.07911636680364609 -1.0392389297485352 -0.30901414155960083
v -0.060774900019168854 -1.0438342094421387 -0.3118467628955841
v -0.04691271111369133 -1.0397977828979492 -0.3054733872413635
v -0.0781262069940567 -1.0427786111831665 -0.31352394819259644
v -0.07666455209255219 -1.0470013618469238 -0.31620749831199646
v -0.09029098600149155 -1.0441447496414185 -0.3200836777687073
v -0.1049075797200203 -1.0510377883911133 -0.3200836777687073
v -0.10028684884309769 -1.0568751096725464 -0.3259352743625641
v -0.11320602893829346 -1.064016580581665 -0.31680381298065186
v -0.08948943018913269 -1.0541428327560425 -0.32459351420402527
v -0.07638164609670639 -1.053459644317627 -0.3182946741580963
v -0.061812203377485275 -1.0538322925567627 -0.3156856894493103
v -0.061104949563741684 -1.047311782836914 -0.3141202926635742
v -0.04653550684452057 -1.0470634698867798 -0.312144935131073
v -0.04653550684452057 -1.042219638824463 -0.30912595987319946
v -0.037011146545410156 -1.0437722206115723 -0.3028644025325775
v -0.033380575478076935 -1.0517208576202393 -0.30942413210868835
v -0.04653550684452057 -1.0470634698867798 -0.312144935131073
v -0.03314482420682907 -1.0611599683761597 -0.31322580575942993
v -0.046676959842443466 -1.056751012802124 -0.3153502643108368
v -0.046676959842443466 -1.056751012802124 -0.3153502643108368
v -0.04795001819729805 -1.069419264793396 -0.31516388058662415
v -0.036492493003606796 -1.0732693672180176 -0.310281366109848
v -0.041301824152469635 -1.085378885269165 -0.30528703331947327
v -0.050967637449502945 -1.0825222730636597 -0.3098713755607605
v -0.04554535076022148 -1.0963704586029053 -0.3025289475917816
v -0.05469251051545143 -1.0939486026763916 -0.30681514739990234
v -0.047855716198682785 -1.1091629266738892 -0.30163446068763733
v -0.05690857395529747 -1.1069273948669434 -0.3073742091655731
v -0.05308939889073372 -1.1223901510238647 -0.307672381401062
v -0.044083692133426666 -1.1236320734024048 -0.30193260312080383
v -0.03719974681735039 -1.1238805055618286 -0.29749733209609985
v -0.03625674173235893 -1.1345616579055786 -0.3020817041397095
v -0.03936866298317909 -1.1111501455307007 -0.29563379287719727
v -0.03932151198387146 -1.098605990409851 -0.29555925726890564
v -0.0362095907330513 -1.0869313478469849 -0.29623013734817505
v -0.03158886358141899 -1.0750702619552612 -0.2990254759788513
v -0.02861839346587658 -1.0637681484222412 -0.3002926707267761
v -0.029891451820731163 -1.075380802154541 -0.2851978540420532
v -0.0359266921877861 -1.0876765251159668 -0.2845269739627838
v -0.039085760712623596 -1.1002826690673828 -0.2851978540420532
v -0.038708556443452835 -1.1136341094970703 -0.28627872467041016
v -0.03936866298317909 -1.1111501455307007 -0.29563379287719727
v -0.036303892731666565 -1.1263644695281982 -0.2889249622821808
v -0.03719974681735039 -1.1238805055618286 -0.29749733209609985
v -0.03625674173235893 -1.1345616579055786 -0.3020817041397095
v -0.037341199815273285 -1.137294054031372 -0.29298752546310425
v -0.03762410208582878 -1.1460500955581665 -0.2960810363292694
v -0.04083032160997391 -1.1416410207748413 -0.28594326972961426
v -0.04002876579761505 -1.1298420429229736 -0.2815079987049103
v -0.04186762869358063 -1.1158075332641602 -0.2790853679180145
v -0.04144327715039253 -1.1020835638046265 -0.2757309675216675
v -0.03781270235776901 -1.0892910957336426 -0.2729356288909912
v -0.048374369740486145 -1.104070782661438 -0.2687239646911621
v -0.05931323766708374 -1.1056853532791138 -0.26600319147109985
v -0.07194951921701431 -1.1209617853164673 -0.27084842324256897
v -0.09104539453983307 -1.0674941539764404 -0.32060548663139343
v -0.10377597063779831 -1.0668110847473145 -0.32541346549987793
v -0.05903033912181854 -1.120030403137207 -0.27118387818336487
v -0.04879872128367424 -1.1181052923202515 -0.2737928628921509
v -0.04790286719799042 -1.1330091953277588 -0.27688637375831604
v -0.05851168558001518 -1.1349962949752808 -0.2737928628921509
v -0.07171376794576645 -1.1351826190948486 -0.2747619152069092
v -0.08585885912179947 -1.134002685546875 -0.2752091586589813
v -0.08595316112041473 -1.1205271482467651 -0.2713329493999481
v -0.09939099103212357 -1.1176705360412598 -0.2754327952861786
v -0.09995679557323456 -1.105374813079834 -0.26891034841537476
v -0.1096697598695755 -1.1142550706863403 -0.2812471091747284
v -0.10957545787096024 -1.100158452987671 -0.2761782109737396
v -0.11306457966566086 -1.0956252813339233 -0.28657689690589905
v -0.11806251108646393 -1.0784857273101807 -0.29850366711616516
v -0.11358323693275452 -1.0797277688980103 -0.3127412796020508
v -0.10481327772140503 -1.0804729461669922 -0.3211272954940796
v -0.10377597063779831 -1.0668110847473145 -0.32541346549987793
v -0.10377597063779831 -1.0940107107162476 -0.3175865113735199
v -0.11113142222166061 -1.0938243865966797 -0.31005772948265076
v -0.11344178020954132 -1.0935759544372559 -0.2989881932735443
v -0.11259307712316513 -1.1084177494049072 -0.3009262979030609
v -0.11231017857789993 -1.110715389251709 -0.29049035906791687
v -0.11565785109996796 -1.122017502784729 -0.30267804861068726
v -0.11608219891786575 -1.1245635747909546 -0.29231664538383484
v -0.1118386760354042 -1.12804114818573 -0.2828497588634491
v -0.11942987143993378 -1.1344374418258667 -0.29365840554237366
v -0.11957132071256638 -1.1308977603912354 -0.30580881237983704
v -0.11391329020261765 -1.1294074058532715 -0.3163565695285797
v -0.11127287149429321 -1.120837688446045 -0.3125176429748535
v -0.10971690714359283 -1.1077967882156372 -0.3099086582660675
v -0.10250291228294373 -1.1205271482467651 -0.3192637264728546
v -0.1021728590130806 -1.1076725721359253 -0.3159465789794922
v -0.10311587154865265 -1.1288484334945679 -0.3247425854206085
v -0.1124044805765152 -1.138163447380066 -0.31676656007766724
v -0.11721380800008774 -1.139405369758606 -0.3067033290863037
v -0.11608219891786575 -1.1423240900039673 -0.29682645201683044
v -0.11344178020954132 -1.1462363004684448 -0.29943543672561646
v -0.11315888166427612 -1.145304799079895 -0.30584609508514404
v -0.10915111005306244 -1.144559621810913 -0.31393393874168396
v -0.09995679557323456 -1.144062876701355 -0.3202327787876129
v -0.10207856446504593 -1.1372319459915161 -0.32451897859573364
v -0.08750911802053452 -1.1443113088607788 -0.324369877576828
v -0.08840497583150864 -1.1365487575531006 -0.3278360962867737
v -0.07444848865270615 -1.145242691040039 -0.32545074820518494
v -0.07392983138561249 -1.1363004446029663 -0.3259725272655487
v -0.10547338426113129 -1.1490929126739502 -0.3104304373264313
v -0.09816508740186691 -1.150769591331482 -0.31255489587783813
v -0.08684901148080826 -1.1526947021484375 -0.31479117274284363
v -0.07482568919658661 -1.1542471647262573 -0.31646838784217834
v -0.1072179451584816 -1.150583267211914 -0.30394527316093445
v -0.09854228794574738 -1.155489206314087 -0.3033861815929413
v -0.08694331347942352 -1.1589667797088623 -0.3041688799858093
v -0.07435418665409088 -1.1603329181671143 -0.3059951663017273
v -0.06327386200428009 -1.154681921005249 -0.31680381298065186
v -0.06171790510416031 -1.1466089487075806 -0.32455623149871826
v -0.06035054475069046 -1.1362383365631104 -0.32809698581695557
v -0.07402413338422775 -1.1283516883850098 -0.32131364941596985
v -0.0882163718342781 -1.1300283670425415 -0.319934606552124
v -0.08840497583150864 -1.1365487575531006 -0.3278360962867737
v -0.10207856446504593 -1.1372319459915161 -0.32451897859573364
v -0.10207856446504593 -1.1372319459915161 -0.32451897859573364
v -0.10311587154865265 -1.1288484334945679 -0.3247425854206085
v -0.10250291228294373 -1.1205271482467651 -0.3192637264728546
v -0.08930083364248276 -1.120030403137207 -0.317362904548645
v -0.0755329430103302 -1.1178568601608276 -0.31907737255096436
v -0.05945469066500664 -1.1297178268432617 -0.3195991516113281
v -0.048232920467853546 -1.1296557188034058 -0.3198227882385254
v -0.04780856519937515 -1.13934326171875 -0.3230281174182892
v -0.05120338872075081 -1.1484719514846802 -0.3194873631000519
v -0.05516401305794716 -1.1539987325668335 -0.3157229721546173
v -0.06223655864596367 -1.1598361730575562 -0.30785873532295227
v -0.060633447021245956 -1.1622580289840698 -0.29779550433158875
v -0.0735054761171341 -1.1634999513626099 -0.2957456111907959
v -0.08703761547803879 -1.161264419555664 -0.29395657777786255
v -0.0994381457567215 -1.1563585996627808 -0.29429203271865845
v -0.10844384878873825 -1.1504590511322021 -0.2964537441730499
v -0.11075421422719955 -1.1474162340164185 -0.2893349528312683
v -0.11367753148078918 -1.1395295858383179 -0.2834833860397339
v -0.05195779353380203 -1.1572279930114746 -0.30934959650039673
v -0.04964742809534073 -1.1594014167785645 -0.29977089166641235
v -0.10085265338420868 -1.1540608406066895 -0.2853469252586365
v -0.06360391527414322 -1.1186020374298096 -0.3163938522338867
v -0.08684901148080826 -1.1581594944000244 -0.28393062949180603
v -0.07270392775535583 -1.1610159873962402 -0.28489968180656433
v -0.05936038866639137 -1.1602087020874023 -0.28598055243492126
v -0.04828006774187088 -1.156606912612915 -0.28851497173309326
v -0.041820477694272995 -1.1539366245269775 -0.30193260312080383
v -0.04436659440398216 -1.151452660560608 -0.3115485906600952
v -0.040075916796922684 -1.1423861980438232 -0.3136730492115021
v -0.04780856519937515 -1.13934326171875 -0.3230281174182892
v -0.039227209985256195 -1.1311461925506592 -0.31259217858314514
v -0.048232920467853546 -1.1296557188034058 -0.3198227882385254
v -0.05308939889073372 -1.1223901510238647 -0.307672381401062
v -0.044083692133426666 -1.1236320734024048 -0.30193260312080383
v -0.036303892731666565 -1.144745945930481 -0.3027898669242859
v -0.04068887233734131 -1.150707483291626 -0.2918321192264557
v -0.05195779353380203 -1.1572279930114746 -0.30934959650039673
v -0.05516401305794716 -1.1539987325668335 -0.3157229721546173
v -0.05120338872075081 -1.1484719514846802 -0.3194873631000519
v -0.04738421365618706 -1.1466089487075806 -0.28079983592033386
v -0.058558832854032516 -1.1495896577835083 -0.2780044972896576
v -0.07194951921701431 -1.14940345287323 -0.2783399522304535
v -0.08609461039304733 -1.1471678018569946 -0.27949535846710205
v -0.08684901148080826 -1.1581594944000244 -0.28393062949180603
v -0.10104125738143921 -1.145242691040039 -0.27923446893692017
v -0.09939099103212357 -1.1310219764709473 -0.27923446893692017
v -0.04795001819729805 -1.069419264793396 -0.31516388058662415
v -0.0628495141863823 -1.0661901235580444 -0.31426939368247986
v -0.07732465118169785 -1.0660037994384766 -0.31482845544815063
v -0.09288424998521805 -1.08128023147583 -0.31613293290138245
v -0.10481327772140503 -1.0804729461669922 -0.3211272954940796
v -0.09264849871397018 -1.094072699546814 -0.31672927737236023
v -0.07911636680364609 -1.0930792093276978 -0.31576022505760193
v -0.07845626026391983 -1.0798519849777222 -0.3146421015262604
v -0.06591428071260452 -1.092768669128418 -0.31359851360321045
v -0.06416971981525421 -1.0796656608581543 -0.31453028321266174
v -0.050967637449502945 -1.0825222730636597 -0.3098713755607605
v -0.05469251051545143 -1.0939486026763916 -0.30681514739990234
v -0.05690857395529747 -1.1069273948669434 -0.3073742091655731
v -0.06610288470983505 -1.1058095693588257 -0.3136730492115021
v -0.0781262069940567 -1.1059337854385376 -0.31590932607650757
v -0.0910925418138504 -1.1069895029067993 -0.31706473231315613
v -0.05308939889073372 -1.1223901510238647 -0.307672381401062
v -0.06360391527414322 -1.1186020374298096 -0.3163938522338867
v -0.05308939889073372 -1.1223901510238647 -0.307672381401062
vn -0.26659539341926575 0.13077127933502197 0.9548956751823425
vn -0.4122227430343628 0.1722756177186966 0.8946471214294434
vn -0.2226206362247467 0.35051336884498596 0.9097144603729248
vn -0.42288994789123535 0.2608014941215515 0.8678402304649353
vn -0.5344183444976807 0.1669108271598816 0.8285757899284363
vn -0.45460620522499084 0.4213235676288605 0.7847417593002319
vn -0.3683592975139618 0.4679456055164337 0.8033295273780823
vn -0.19667194783687592 0.36570438742637634 0.9097144603729248
vn -0.1622905135154724 0.1622905135154724 0.9733054637908936
vn -0.1314135044813156 0.1776828020811081 0.9752739667892456
vn -0.30068880319595337 0.08900272101163864 0.949560284614563
vn -0.4671158790588379 0.05263131856918335 0.882628321647644
vn -0.5844601392745972 -0.16018334031105042 0.7954543828964233
vn -0.46702492237091064 -0.25949767231941223 0.8453097939491272
vn -0.4772559702396393 -0.42668241262435913 0.7682244777679443
vn -0.1585150510072708 -0.28958582878112793 0.9439348578453064
vn -0.2007005512714386 -0.522667646408081 0.8285757899284363
vn -0.6391240358352661 0.21123109757900238 0.7395281791687012
vn -0.7956915497779846 -0.1758105605840683 0.5796254277229309
vn -0.7647363543510437 -0.3682776391506195 0.528724730014801
vn -0.4861437976360321 0.596641480922699 0.6385006904602051
vn -0.9747188091278076 0.0753873661160469 0.2103329300880432
vn -0.9492648839950562 -0.3080381453037262 0.0633138045668602
vn -0.15574844181537628 0.8953598141670227 0.417220801115036
vn -0.43182069063186646 0.8283851742744446 0.3568037748336792
vn -0.9672240018844604 0.15414884686470032 -0.2017817199230194
vn -0.10348252952098846 0.9268524646759033 0.36088213324546814
vn -0.15211914479732513 0.9278857707977295 0.34042292833328247
vn -0.20708146691322327 0.7959123849868774 0.5688942670822144
vn -0.15585292875766754 0.934578537940979 0.3198012113571167
vn -0.16340424120426178 0.9629355072975159 0.21460255980491638
vn -0.1503659188747406 0.9590239524841309 0.2401314377784729
vn -0.15770955383777618 0.9475139379501343 0.2781098484992981
vn -0.11859022080898285 0.9357264637947083 0.33219319581985474
vn -0.15574844181537628 0.8953598141670227 0.417220801115036
vn -0.14077088236808777 0.839372992515564 0.5250110030174255
vn 0.36646872758865356 0.8255762457847595 0.42909738421440125
vn 0.10542813688516617 0.9116265177726746 0.3972681760787964
vn 0.7432207465171814 0.4051454961299896 0.5324283838272095
vn 0.056532129645347595 0.9033573269844055 0.42514660954475403
vn 0.447598397731781 0.05259757861495018 0.8926864862442017
vn 0.26778167486190796 -0.06689442694187164 0.961154580116272
vn 0.28819337487220764 -0.015040789730846882 0.9574540853500366
vn -0.008778315968811512 -0.02469981275498867 0.9996563792228699
vn 0.05900802090764046 0.028416765853762627 0.9978529810905457
vn 0.13483227789402008 0.007438904605805874 0.990840494632721
vn 0.27901163697242737 -0.08868274092674255 0.9561840295791626
vn 0.5131767988204956 -0.1193341612815857 0.8499464392662048
vn 0.3299066126346588 -0.18685604631900787 0.9253358840942383
vn 0.17896807193756104 -0.27248701453208923 0.9453682899475098
vn 0.09548293799161911 -0.5029511451721191 0.8590245246887207
vn -0.1698692888021469 -0.4789440631866455 0.8612531423568726
vn 0.2997739315032959 -0.3914468288421631 0.8700028657913208
vn 0.07502337545156479 -0.46404609084129333 0.882628321647644
vn 0.5163262486457825 -0.2749146521091461 0.8110666871070862
vn 0.8149750828742981 -0.28859782218933105 0.5025205612182617
vn 0.8443244099617004 -0.06030132621526718 0.5324283838272095
vn 0.9958784580230713 -0.06038505956530571 0.06767380982637405
vn 0.9110312461853027 0.3467496633529663 0.22312943637371063
vn 0.9563809633255005 0.2683061361312866 -0.11553031951189041
vn 0.8041514158248901 0.5926526188850403 -0.04586252197623253
vn -0.009426589123904705 0.8533292412757874 0.5212872624397278
vn 0.5591772198677063 0.7824922204017639 -0.27391019463539124
vn -0.08476859331130981 0.8690913319587708 0.48733407258987427
vn -0.10160508006811142 0.9137982130050659 0.3932546079158783
vn -0.1073126569390297 0.9295555949211121 0.3527185618877411
vn 0.04526469111442566 0.9982846975326538 -0.03713129088282585
vn 0.0018848208710551262 0.812340497970581 0.5831804275512695
vn -0.10907603800296783 0.7972011566162109 0.5937783122062683
vn -0.0978715643286705 0.859007716178894 0.5025205612182617
vn -0.15596497058868408 0.9400790333747864 0.30319350957870483
vn -0.09790346026420593 0.9555468559265137 0.2781098484992981
vn -0.020747845992445946 0.9472574591636658 0.3198012113571167
vn 0.0037714340724051 0.8667445182800293 0.4987381398677826
vn -0.04522492736577988 0.8677459359169006 0.4949462115764618
vn -0.001885096076875925 0.7380534410476685 0.67473965883255
vn -0.04331454634666443 0.7484830617904663 0.661737859249115
vn -0.041447725147008896 0.7740626335144043 0.6317508816719055
vn -0.18156947195529938 0.8584492206573486 0.4796847105026245
vn -0.5237998962402344 0.7716202139854431 0.36088213324546814
vn 0.5821885466575623 -0.3179965913295746 0.7482877969741821
vn 0.02451547235250473 0.8893757462501526 0.456519216299057
vn -0.06592867523431778 0.7667921781539917 0.6385006904602051
vn -0.26865899562835693 0.7902212738990784 0.5507928133010864
vn -0.27562010288238525 0.7774796485900879 0.5652954578399658
vn -0.0923755094408989 0.9800394177436829 0.1760382205247879
vn -0.5230412483215332 0.8455837368965149 0.10684575140476227
vn -0.7144976854324341 0.5918679237365723 -0.37307560443878174
vn -0.12598757445812225 0.7894188165664673 -0.6007870435714722
vn 0.16156984865665436 0.9404669404029846 -0.2990269064903259
vn 0.08858174830675125 0.7054182291030884 -0.7032341957092285
vn 0.09050001949071884 0.8321338891983032 -0.5471406579017639
vn 0.17021840810775757 0.6997080445289612 -0.6938546895980835
vn 0.24504804611206055 0.46220967173576355 -0.8522403836250305
vn 0.013234620913863182 0.5812536478042603 -0.8136147856712341
vn -0.5151661038398743 0.5285170674324036 -0.67473965883255
vn -0.2009553164243698 0.17026561498641968 -0.9646899104118347
vn -0.7849339246749878 0.12049417197704315 -0.607749879360199
vn 0.3091084063053131 0.05279415845870972 -0.949560284614563
vn 0.27664464712142944 -0.13862261176109314 -0.9509214162826538
vn 0.07842075824737549 0.07573004812002182 -0.9940398335456848
vn 0.12768509984016418 0.3440578281879425 -0.9302261471748352
vn 0.1963592916727066 0.3703728914260864 -0.9078915119171143
vn 0.3145694136619568 0.6805505752563477 -0.661737859249115
vn 0.6522435545921326 0.6709455847740173 -0.3527185618877411
vn 0.7088335752487183 0.48327454924583435 -0.5138099193572998
vn 0.1963592916727066 0.3703728914260864 -0.9078915119171143
vn 0.6665945649147034 -0.007560499478131533 -0.7453821301460266
vn 0.11789264529943466 0.12190010398626328 -0.9855159521102905
vn 0.11789264529943466 0.12190010398626328 -0.9855159521102905
vn 0.12433309853076935 -0.2128329873085022 -0.9691457152366638
vn 0.5565909743309021 -0.42212775349617004 -0.715552031993866
vn 0.5565909743309021 -0.42212775349617004 -0.715552031993866
vn 0.3167478144168854 -0.3314485251903534 -0.888714075088501
vn 0.4718227982521057 -0.2876916825771332 -0.8334367275238037
vn 0.45035654306411743 -0.1911422312259674 -0.872148871421814
vn 0.5616647005081177 0.04534226283431053 -0.8261215686798096
vn 0.5743346810340881 0.0903913602232933 -0.8136147856712341
vn 0.5976296663284302 0.16437497735023499 -0.7847417593002319
vn 0.536706805229187 0.21412430703639984 -0.8161473870277405
vn 0.5554491281509399 0.24233996868133545 -0.7954543828964233
vn 0.5066338777542114 0.380226194858551 -0.7737894654273987
vn 0.5919020175933838 0.11268056184053421 -0.7980946898460388
vn 0.9099404215812683 -0.1725815385580063 -0.37712597846984863
vn 0.9009326100349426 -0.33996978402137756 -0.26970529556274414
vn 0.9003989696502686 -0.35405659675598145 -0.25283506512641907
vn 0.9765213131904602 -0.07543373107910156 -0.2017817199230194
vn 0.9368597865104675 -0.3472343385219574 0.04149730131030083
vn 0.940209150314331 -0.3404223620891571 -0.010923261754214764
vn 0.9796575903892517 -0.15038594603538513 0.1328723281621933
vn 0.9898641109466553 0.06038504093885422 0.12854042649269104
vn 0.9916467666625977 0.12055403739213943 -0.04586252197623253
vn 0.9801865816116333 0.015096031129360199 0.1975002884864807
vn 0.986604630947113 0.1503419429063797 -0.0633138045668602
vn 0.9922536611557007 0.09796547144651413 -0.0763898640871048
vn 0.9671347737312317 -0.1428648978471756 0.2103329300880432
vn 0.9479042887687683 -0.24649874866008759 0.2017817199230194
vn 0.8529945015907288 -0.2529635429382324 0.456519216299057
vn 0.7181554436683655 -0.14236943423748016 0.681163489818573
vn 0.8498925566673279 -0.04523332044482231 0.5250110030174255
vn 0.8031743764877319 -0.2597772479057312 0.5361219048500061
vn 0.8761343955993652 -0.35321304202079773 0.3280687630176544
vn 0.4430569112300873 -0.3302783668041229 0.8334367275238037
vn 0.1541150063276291 -0.3769833445549011 0.913308322429657
vn -0.009381871670484543 -0.3092902600765228 0.9509214162826538
vn 0.3528168201446533 -0.292758584022522 -0.888714075088501
vn 0.3343116044998169 -0.2783304750919342 -0.9004265069961548
vn 0.1737821102142334 -0.2659933269023895 0.9481810927391052
vn 0.4800630807876587 -0.19833874702453613 0.8545181155204773
vn 0.4225744605064392 -0.1969342976808548 0.8846737742424011
vn 0.12413246184587479 -0.22750957310199738 0.9658315181732178
vn -0.07595857232809067 -0.2653529644012451 0.961154580116272
vn -0.1630021035671234 -0.28232792019844055 0.9453682899475098
vn -0.2231617420911789 -0.30651652812957764 0.9253358840942383
vn -0.39321374893188477 -0.350676566362381 0.8499464392662048
vn -0.4793534576892853 -0.39293843507766724 0.7847417593002319
vn -0.7701457142829895 -0.1277092695236206 0.6249527335166931
vn -0.7869328856468201 -0.2989098131656647 0.5398051738739014
vn -0.9636569619178772 -0.24290375411510468 0.1111890971660614
vn -0.962607204914093 -0.22828583419322968 -0.1458524912595749
vn -0.8566250205039978 -0.18002164363861084 -0.4835140109062195
vn -0.6892032623291016 -0.18662625551223755 -0.7001210451126099
vn -0.6759700775146484 -0.022680632770061493 -0.736579954624176
vn -0.3113132119178772 -0.14273791015148163 -0.9395264387130737
vn -0.8933517336845398 -0.2022416591644287 -0.401274174451828
vn -0.9784391522407532 -0.1616605669260025 -0.12854042649269104
vn -0.9947630763053894 0.056607551872730255 -0.08510008454322815
vn -0.9853121638298035 0.10166410356760025 0.1372016966342926
vn -0.9420387744903564 0.30807119607925415 -0.1328723281621933
vn -0.9385415315628052 0.22057202458381653 0.26549527049064636
vn -0.6543740034103394 0.056514009833335876 0.7540562748908997
vn -0.9713680148124695 -0.05279633775353432 0.23163928091526031
vn -0.9636144638061523 0.08672687411308289 -0.25283506512641907
vn -0.7750339508056641 0.2597652077674866 -0.5760593414306641
vn -0.719767689704895 0.3538093864917755 -0.5972883701324463
vn -0.8372476696968079 0.06039765104651451 -0.5434780716896057
vn -0.5924358367919922 0.2984713017940521 -0.7482877969741821
vn -0.24299460649490356 0.041354864835739136 -0.9691457152366638
vn -0.6006790995597839 0.21147459745407104 -0.7710143327713013
vn -0.6957293748855591 -0.3290554881095886 -0.6385006904602051
vn -0.8967750072479248 -0.3959648907184601 -0.1975002884864807
vn -0.8692958354949951 -0.4844488501548767 0.0981530249118805
vn -0.7330846786499023 -0.6797127723693848 -0.024029340595006943
vn -0.6822120547294617 -0.6595048308372498 -0.31565824151039124
vn -0.5275808572769165 -0.6529088616371155 -0.5434780716896057
vn -0.34023451805114746 -0.6648350358009338 -0.6650074124336243
vn -0.38665294647216797 -0.429421603679657 -0.8161473870277405
vn -0.19022013247013092 -0.6490502953529358 -0.736579954624176
vn -0.04897182434797287 -0.2971019148826599 -0.953589141368866
vn -0.039631329476833344 -0.4252804219722748 -0.9041935205459595
vn -0.04521351307630539 0.3723667860031128 -0.926983654499054
vn -0.4226258397102356 -0.7874208688735962 -0.4487268626689911
vn -0.2635969817638397 -0.7868161201477051 -0.5580654144287109
vn -0.21665462851524353 -0.8134317398071289 -0.5398051738739014
vn -0.10175568610429764 -0.7656717896461487 -0.6351318359375
vn -0.5418120622634888 -0.8227676749229431 -0.17173540592193604
vn -0.3307207226753235 -0.8785921931266785 -0.34452807903289795
vn -0.24996058642864227 -0.9109833240509033 -0.3280687630176544
vn -0.09045325964689255 -0.9183873534202576 -0.3852050006389618
vn 0.013227123767137527 -0.8071070313453674 -0.590256929397583
vn 0.09970740973949432 -0.5799838900566101 -0.8085030317306519
vn 0.13884380459785461 0.18275344371795654 -0.9733054637908936
vn -0.011332853697240353 0.4544330835342407 -0.8907088041305542
vn 0.024544110521674156 0.4382515549659729 -0.8985171914100647
vn -0.056644849479198456 0.7703238725662231 -0.6351318359375
vn -0.19423508644104004 0.7589242458343506 -0.6215357780456543
vn 0.3090626895427704 0.015124103054404259 -0.9509214162826538
vn 0.31444665789604187 0.2890629470348358 -0.9041935205459595
vn 0.190138578414917 0.3419356048107147 -0.9202865362167358
vn -0.024460339918732643 0.14597836136817932 -0.9889853596687317
vn 0.05054563283920288 0.22387845814228058 -0.9733054637908936
vn 0.10684709995985031 0.5044924020767212 -0.8567795157432556
vn 0.3867761194705963 0.652296781539917 -0.651853621006012
vn 0.5800579786300659 -0.1348866969347 -0.8033295273780823
vn 0.36449745297431946 -0.5055461525917053 -0.7820260524749756
vn 0.24169939756393433 -0.7536570429801941 -0.6112139225006104
vn 0.07731213420629501 -0.9161733984947205 -0.3932546079158783
vn 0.15786238014698029 -0.9870527386665344 -0.028397228568792343
vn -0.045277662575244904 -0.9985707402229309 -0.028397228568792343
vn -0.23190946877002716 -0.9724405407905579 0.024029340595006943
vn -0.43066826462745667 -0.9017461538314819 0.03713129088282585
vn -0.5923439860343933 -0.8050186634063721 0.03276457265019417
vn -0.7188432812690735 -0.6508051156997681 0.24437066912651062
vn -0.5987833738327026 -0.23577696084976196 0.7654199600219727
vn 0.2948719263076782 -0.88309645652771 -0.3649536371231079
vn 0.417152464389801 -0.9035207629203796 -0.0981530249118805
vn -0.3804469406604767 -0.6690119504928589 0.6385006904602051
vn 0.38016802072525024 0.26311811804771423 -0.8867024183273315
vn -0.2734162509441376 -0.9269108176231384 0.25706008076667786
vn -0.030164308845996857 -0.7773393988609314 0.6283578276634216
vn 0.2506738603115082 -0.7910282015800476 0.5580654144287109
vn 0.4881075322628021 -0.8001315593719482 0.34862664341926575
vn 0.740973711013794 -0.6622650027275085 -0.1111890971660614
vn 0.5721679925918579 -0.6362091898918152 -0.5175535082817078
vn 0.8507962226867676 -0.2387230098247528 -0.46814218163490295
vn 0.5800579786300659 -0.1348866969347 -0.8033295273780823
vn 0.7353361248970032 0.5043899416923523 -0.45262736082077026
vn 0.3867761194705963 0.652296781539917 -0.651853621006012
vn 0.44892242550849915 0.827866792678833 -0.3363112509250641
vn 0.6194708943367004 0.7473905682563782 -0.2401314377784729
vn 0.9425033330917358 -0.2756706476211548 -0.18892620503902435
vn 0.7656523585319519 -0.5059194564819336 0.3972681760787964
vn 0.2948719263076782 -0.88309645652771 -0.3649536371231079
vn 0.24169939756393433 -0.7536570429801941 -0.6112139225006104
vn 0.36449745297431946 -0.5055461525917053 -0.7820260524749756
vn 0.48117774724960327 -0.3961101472377777 0.7820260524749756
vn 0.12822352349758148 -0.4482309818267822 0.8846737742424011
vn -0.08208511769771576 -0.3451349437236786 0.9349566102027893
vn -0.11438004672527313 -0.32281145453453064 0.9395264387130737
vn -0.10205703973770142 -0.3651546239852905 0.9253358840942383
vn -0.203799769282341 -0.23832938075065613 0.949560284614563
vn -0.2968970239162445 -0.13465100526809692 0.9453682899475098
vn 0.12433309853076935 -0.2128329873085022 -0.9691457152366638
vn 0.015081559307873249 -0.09037882834672928 -0.9957932829856873
vn 0.1718507558107376 -0.15847057104110718 -0.9722933769226074
vn 0.23548604547977448 -0.1439729630947113 -0.961154580116272
vn 0.3618033528327942 -0.25538870692253113 -0.8965907096862793
vn 0.07447554916143417 0.03646417334675789 -0.9965559244155884
vn 0.1106485053896904 0.05147990211844444 -0.9925254583358765
vn 0.07381804287433624 0.007630487438291311 -0.9972425103187561
vn 0.29344066977500916 -0.06753037124872208 -0.953589141368866
vn 0.08969637006521225 -0.09507260471582413 -0.991421103477478
vn 0.3167478144168854 -0.3314485251903534 -0.888714075088501
vn 0.45035654306411743 -0.1911422312259674 -0.872148871421814
vn 0.5743346810340881 0.0903913602232933 -0.8136147856712341
vn 0.3442963659763336 0.1682053506374359 -0.9236704111099243
vn 0.1222127303481102 0.10475454479455948 -0.986960232257843
vn -0.014939445070922375 0.041045788675546646 -0.9990455508232117
vn 0.5976296663284302 0.16437497735023499 -0.7847417593002319
vn 0.5200340151786804 0.8076010942459106 -0.2781098484992981
vn 0.44892242550849915 0.827866792678833 -0.3363112509250641
vt 0.43426644802093506 0.3969283103942871
vt 0.4536021053791046 0.4000900089740753
vt 0.4286724627017975 0.4072330892086029
vt 0.45421016216278076 0.4052424132823944
vt 0.48217999935150146 0.397630900144577
vt 0.4736674427986145 0.38873130083084106
vt 0.45323729515075684 0.3803001046180725
vt 0.4028915762901306 0.3849841058254242
vt 0.3977840542793274 0.4025490880012512
vt 0.400094598531723 0.4197627902030945
vt 0.43317195773124695 0.4187088906764984
vt 0.45542624592781067 0.41179999709129333
vt 0.48753073811531067 0.4167182147502899
vt 0.4495890438556671 0.4418947100639343
vt 0.477437287569046 0.4832310080528259
vt 0.4084855318069458 0.4521994888782501
vt 0.42271366715431213 0.4965803921222687
vt 0.518297553062439 0.38217368721961975
vt 0.5247427821159363 0.3966940939426422
vt 0.5272965431213379 0.4481010138988495
vt 0.5069880485534668 0.37140050530433655
vt 0.5579417943954468 0.35969048738479614
vt 0.5758181810379028 0.4067646861076355
vt 0.48120713233947754 0.35547488927841187
vt 0.5422543287277222 0.34306231141090393
vt 0.6137598752975464 0.3043021857738495
vt 0.41955187916755676 0.3710491955280304
vt 0.38100212812423706 0.3502053916454315
vt 0.36616596579551697 0.37479639053344727
vt 0.3267649710178375 0.3524303138256073
vt 0.34634384512901306 0.3171831965446472
vt 0.31825241446495056 0.2859174907207489
vt 0.34755992889404297 0.25230979919433594
vt 0.3020785450935364 0.24071690440177917
vt 0.3521810472011566 0.21191030740737915
vt 0.29052579402923584 0.19141779839992523
vt 0.25282731652259827 0.22408869862556458
vt 0.2635287940502167 0.28310710191726685
vt 0.24735493957996368 0.3059416115283966
vt 0.28882327675819397 0.32245269417762756
vt 0.2804323136806488 0.33591920137405396
vt 0.3246976435184479 0.36156409978866577
vt 0.3267649710178375 0.3524303138256073
vt 0.36616596579551697 0.37479639053344727
vt 0.36118003726005554 0.38919970393180847
vt 0.3616664707660675 0.4103947877883911
vt 0.31946849822998047 0.3913075029850006
vt 0.26912277936935425 0.36378899216651917
vt 0.31290164589881897 0.4388501048088074
vt 0.3640986382961273 0.4458760917186737
vt 0.3642202317714691 0.49962499737739563
vt 0.43852272629737854 0.547753095626831
vt 0.30524036288261414 0.4975171983242035
vt 0.37589460611343384 0.5577065944671631
vt 0.2589077055454254 0.4162498116493225
vt 0.21038611233234406 0.3793632984161377
vt 0.23324841260910034 0.32713669538497925
vt 0.19798210263252258 0.2922408878803253
vt 0.23008660972118378 0.25570571422576904
vt 0.2165881246328354 0.20722630620002747
vt 0.2592725157737732 0.1809958964586258
vt 0.2860262989997864 0.15230639278888702
vt 0.30390265583992004 0.11682509630918503
vt 0.35607248544692993 0.10616900026798248
vt 0.30390265583992004 0.11682509630918503
vt 0.3536403477191925 0.07396650314331055
vt 0.4683166742324829 0.08520810306072235
vt 0.4487378001213074 0.11331210285425186
vt 0.35582926869392395 0.16015209257602692
vt 0.3994865417480469 0.21436940133571625
vt 0.3740704655647278 0.2672986090183258
vt 0.40763428807258606 0.29188960790634155
vt 0.4443598985671997 0.3201107084751129
vt 0.4709920585155487 0.26788410544395447
vt 0.43730664253234863 0.23767229914665222
vt 0.46795186400413513 0.18544569611549377
vt 0.4214976131916046 0.16319669783115387
vt 0.5029749870300293 0.2228005975484848
vt 0.5077176690101624 0.302311509847641
vt 0.5775206685066223 0.28041380643844604
vt 0.25185444951057434 0.48147448897361755
vt 0.5071096420288086 0.14481200277805328
vt 0.536173939704895 0.1836892068386078
vt 0.5542935132980347 0.22104409337043762
vt 0.5381196737289429 0.2562912106513977
vt 0.5595226883888245 0.17373569309711456
vt 0.5778855085372925 0.22162960469722748
vt 0.5962482690811157 0.22982659935951233
vt 0.5761829614639282 0.1670610010623932
vt 0.5386061072349548 0.13017450273036957
vt 0.4977458119392395 0.06787730008363724
vt 0.3536403477191925 0.07396650314331055
vt 0.5674272179603577 0.11986970156431198
vt 0.5922352075576782 0.11143849790096283
vt 0.6113277077674866 0.16518740355968475
vt 0.6389327049255371 0.2252597063779831
vt 0.6711588501930237 0.21881920099258423
vt 0.6692131161689758 0.285214900970459
vt 0.6581467390060425 0.1760776937007904
vt 0.6358925104141235 0.11905000358819962
vt 0.5963699221611023 0.06436429917812347
vt 0.5345930457115173 0.06541819870471954
vt 0.4486161768436432 0.01787560060620308
vt 0.355099618434906 0.050663601607084274
vt 0.2762976586818695 0.12549050152301788
vt 0.20807555317878723 0.14961309731006622
vt 0.2672986686229706 0.06647209823131561
vt 0.14106954634189606 0.1895442008972168
vt 0.5878573656082153 0.0019499999471008778
vt 0.15189266204833984 0.11858160048723221
vt 0.04633691906929016 0.2220979928970337
vt 0.09157509356737137 0.273973286151886
vt 0.05898415297269821 0.3856866955757141
vt 0.005111807957291603 0.35453811287879944
vt 0.0604434497654438 0.4968146085739136
vt 0.0019499999471008778 0.48440200090408325
vt 0.08281932026147842 0.6129778027534485
vt 0.021772103384137154 0.61098712682724
vt 0.06968565285205841 0.7392116189002991
vt 0.1324353814125061 0.7221149802207947
vt 0.1859429031610489 0.7073603868484497
vt 0.23531575500965118 0.7805479168891907
vt 0.14374493062496185 0.6154369115829468
vt 0.11297810077667236 0.5195320248603821
vt 0.11091076582670212 0.4184747040271759
vt 0.12246352434158325 0.3233895003795624
vt 0.1632022112607956 0.24985070526599884
vt 0.16648562252521515 0.3544209897518158
vt 0.1563921570777893 0.4427143931388855
vt 0.16612079739570618 0.5318275094032288
vt 0.1951851099729538 0.6202380061149597
vt 0.14374493062496185 0.6154369115829468
vt 0.23312680423259735 0.7027934789657593
vt 0.1859429031610489 0.7073603868484497
vt 0.23531575500965118 0.7805479168891907
vt 0.2788514196872711 0.7677839994430542
vt 0.32104939222335815 0.8172001838684082
vt 0.32506245374679565 0.769189178943634
vt 0.27836498618125916 0.7036132216453552
vt 0.2379911243915558 0.6243364810943604
vt 0.21354791522026062 0.5418980717658997
vt 0.20381927490234375 0.4625042974948883
vt 0.26097503304481506 0.5517345070838928
vt 0.3150905966758728 0.5584092140197754
vt 0.3948654532432556 0.6201208829879761
vt 0.714937686920166 0.2140181064605713
vt 0.701682448387146 0.2569938004016876
vt 0.33588555455207825 0.6287863254547119
vt 0.28262126445770264 0.6277323961257935
vt 0.3256705105304718 0.7050184011459351
vt 0.37419208884239197 0.69810950756073
vt 0.43025338649749756 0.6789051294326782
vt 0.48376089334487915 0.6479907035827637
vt 0.458831250667572 0.5964667201042175
vt 0.5223106145858765 0.5622735023498535
vt 0.5032181739807129 0.5197662115097046
vt 0.5789799690246582 0.5303052067756653
vt 0.5604955554008484 0.48639270663261414
vt 0.6153407692909241 0.45770320296287537
vt 0.6442834734916687 0.37362539768218994
vt 0.6973045468330383 0.34669241309165955
vt 0.7347598075866699 0.31460699439048767
vt 0.701682448387146 0.2569938004016876
vt 0.760662317276001 0.3779580891132355
vt 0.7161538004875183 0.40266621112823486
vt 0.6666593551635742 0.4260861873626709
vt 0.6830763816833496 0.477141797542572
vt 0.6307849884033203 0.5014985799789429
vt 0.6869678497314453 0.5246844291687012
vt 0.638081431388855 0.5481044054031372
vt 0.5906543135643005 0.5748031735420227
vt 0.6434321999549866 0.5825318098068237
vt 0.6896432638168335 0.565552294254303
vt 0.7336653470993042 0.5581750273704529
vt 0.7340301871299744 0.5164874196052551
vt 0.730989933013916 0.45899128913879395
vt 0.7827949523925781 0.5132086277008057
vt 0.7746472358703613 0.4461103081703186
vt 0.7827949523925781 0.5618051290512085
vt 0.7315980195999146 0.5975205898284912
vt 0.6900080442428589 0.6007993817329407
vt 0.6527960300445557 0.6159052848815918
vt 0.6613085865974426 0.6341729164123535
vt 0.6858733892440796 0.6298401951789856
vt 0.718221127986908 0.6303086280822754
vt 0.7536090612411499 0.6431896090507507
vt 0.774403989315033 0.6045466065406799
vt 0.7874161005020142 0.6712936162948608
vt 0.8138049840927124 0.6232826113700867
vt 0.8121024966239929 0.7074775099754333
vt 0.853570818901062 0.6484590768814087
vt 0.7046010494232178 0.659115195274353
vt 0.7162753939628601 0.6834719777107239
vt 0.7286794185638428 0.7234030961990356
vt 0.7385296821594238 0.7681353092193604
vt 0.6766312122344971 0.6627452969551086
vt 0.6695778965950012 0.7019737958908081
vt 0.6641055345535278 0.7484624981880188
vt 0.6591196060180664 0.8022114038467407
vt 0.7433939576148987 0.8152095079421997
vt 0.8291276097297668 0.7599382996559143
vt 0.8947959542274475 0.6875705122947693
vt 0.8815406560897827 0.5819463133811951
vt 0.8341135382652283 0.5691823959350586
vt 0.8138049840927124 0.6232826113700867
vt 0.774403989315033 0.6045466065406799
vt 0.774403989315033 0.6045466065406799
vt 0.7827949523925781 0.5618051290512085
vt 0.7827949523925781 0.5132086277008057
vt 0.8359376788139343 0.5038406252861023
vt 0.8957688212394714 0.4964632987976074
vt 0.9318863749504089 0.6187157034873962
vt 0.9832049608230591 0.6577100157737732
vt 0.9282381534576416 0.7476428151130676
vt 0.8448150753974915 0.8175514936447144
vt 0.7506904602050781 0.8573654890060425
vt 0.6504854559898376 0.8482316732406616
vt 0.5539287328720093 0.8550235033035278
vt 0.5915055871009827 0.8009232878684998
vt 0.6104764342308044 0.7501019239425659
vt 0.629082441329956 0.7023251056671143
vt 0.6465939879417419 0.6601691246032715
vt 0.6211779117584229 0.6451802849769592
vt 0.6013558506965637 0.6134461760520935
vt 0.6338251829147339 0.8985847234725952
vt 0.4762212038040161 0.8916757702827454
vt 0.5930864810943604 0.6858140230178833
vt 0.9442903995513916 0.5072364807128906
vt 0.5631709098815918 0.7318342924118042
vt 0.533376932144165 0.7810162901878357
vt 0.48789557814598083 0.8142727017402649
vt 0.43171265721321106 0.8351165056228638
vt 0.3763810396194458 0.8718858957290649
vt 0.3178875744342804 0.89952152967453
vt 0.2485710233449936 0.8601759076118469
vt 0.19068561494350433 0.8996385931968689
vt 0.18290270864963531 0.8043192028999329
vt 0.12781427800655365 0.8358191251754761
vt 0.06968565285205841 0.7392116189002991
vt 0.1324353814125061 0.7221149802207947
vt 0.296119749546051 0.8300812244415283
vt 0.36494988203048706 0.8228210210800171
vt 0.3750433325767517 0.9333633780479431
vt 0.3217790424823761 0.9611160755157471
vt 0.26669061183929443 0.9375789761543274
vt 0.3763810396194458 0.7759810090065002
vt 0.4295237362384796 0.7627487182617188
vt 0.4775588810443878 0.7355815172195435
vt 0.5180543661117554 0.6976410746574402
vt 0.5631709098815918 0.7318342924118042
vt 0.5660895109176636 0.6553679704666138
vt 0.5352010726928711 0.6082937717437744
vt 0.7315980195999146 0.030405299738049507
vt 0.7059386968612671 0.09715230017900467
vt 0.7111678719520569 0.15558519959449768
vt 0.7679588198661804 0.2783060073852539
vt 0.7347598075866699 0.31460699439048767
vt 0.7983607649803162 0.35161060094833374
vt 0.8414100408554077 0.3128505051136017
vt 0.7903346419334412 0.22713330388069153
vt 0.8845808506011963 0.26764988899230957
vt 0.8095487356185913 0.1675294041633606
vt 0.848828136920929 0.11647380143404007
vt 0.9320079684257507 0.23123179376125336
vt 0.9835698008537292 0.3702295124530792
vt 0.9272652864456177 0.38311049342155457
vt 0.8765547275543213 0.4032517075538635
vt 0.8234120607376099 0.4265545904636383
vt 0.9980411529541016 0.5319445729255676
vt 0.9442903995513916 0.5072364807128906
vt 0.9980411529541016 0.5319445729255676
s on
f 1/1/1 2/2/2 3/3/3
f 3/3/3 2/2/2 4/4/4
f 4/4/4 2/2/2 5/5/5
f 5/5/5 2/2/2 6/6/6
f 6/6/6 2/2/2 7/7/7
f 2/2/2 1/1/1 7/7/7
f 7/7/7 1/1/1 8/8/8
f 8/8/8 1/1/1 9/9/9
f 1/1/1 3/3/3 9/9/9
f 9/9/9 3/3/3 10/10/10
f 10/10/10 3/3/3 11/11/11
f 3/3/3 4/4/4 11/11/11
f 11/11/11 4/4/4 12/12/12
f 4/4/4 13/13/13 12/12/12
f 12/12/12 13/13/13 14/14/14
f 13/13/13 15/15/15 14/14/14
f 14/14/14 15/15/15 16/16/16
f 15/15/15 17/17/17 16/16/16
f 4/4/4 5/5/5 13/13/13
f 5/5/5 18/18/18 13/13/13
f 18/18/18 19/19/19 13/13/13
f 19/19/19 20/20/20 13/13/13
f 13/13/13 20/20/20 15/15/15
f 12/12/12 14/14/14 11/11/11
f 14/14/14 16/16/16 11/11/11
f 11/11/11 16/16/16 10/10/10
f 18/18/18 5/5/5 21/21/21
f 21/21/21 5/5/5 6/6/6
f 21/21/21 22/22/22 18/18/18
f 18/18/18 22/22/22 19/19/19
f 22/22/22 23/23/23 19/19/19
f 19/19/19 23/23/23 20/20/20
f 6/6/6 24/24/24 21/21/21
f 24/24/24 25/25/25 21/21/21
f 21/21/21 25/25/25 22/22/22
f 25/25/25 26/26/26 22/22/22
f 22/22/22 26/26/26 23/23/23
f 6/6/6 7/7/7 24/24/24
f 24/24/24 7/7/7 27/27/27
f 7/7/7 8/8/8 27/27/27
f 27/27/27 8/8/8 28/28/28
f 8/8/8 29/29/29 28/28/28
f 29/29/29 30/30/30 28/28/28
f 28/28/28 30/30/30 31/31/31
f 30/30/30 32/32/32 31/31/31
f 31/31/31 32/32/32 33/33/33
f 32/32/32 34/34/34 33/33/33
f 33/33/33 34/34/34 35/35/35
f 35/35/35 34/34/34 36/36/36
f 36/36/36 34/34/34 37/37/37
f 34/34/34 38/38/38 37/37/37
f 37/37/37 38/38/38 39/39/39
f 38/38/38 40/40/40 39/39/39
f 39/39/39 40/40/40 41/41/41
f 41/41/41 40/40/40 42/42/42
f 40/40/40 43/43/43 42/42/42
f 43/43/43 44/44/44 42/42/42
f 42/42/42 44/44/44 45/45/45
f 44/44/44 9/9/9 45/45/45
f 9/9/9 10/10/10 45/45/45
f 45/45/45 10/10/10 46/46/46
f 10/10/10 16/16/16 46/46/46
f 30/30/30 40/40/40 32/32/32
f 32/32/32 40/40/40 34/34/34
f 40/40/40 38/38/38 34/34/34
f 9/9/9 44/44/44 8/8/8
f 46/46/46 47/47/47 45/45/45
f 45/45/45 47/47/47 42/42/42
f 42/42/42 47/47/47 41/41/41
f 47/47/47 48/48/48 41/41/41
f 41/41/41 48/48/48 39/39/39
f 48/48/48 47/47/47 49/49/49
f 47/47/47 46/46/46 49/49/49
f 49/49/49 46/46/46 50/50/50
f 46/46/46 16/16/16 50/50/50
f 50/50/50 16/16/16 51/51/51
f 16/16/16 17/17/17 51/51/51
f 51/51/51 17/17/17 52/52/52
f 17/17/17 15/15/15 52/52/52
f 50/50/50 51/51/51 53/53/53
f 53/53/53 51/51/51 54/54/54
f 51/51/51 52/52/52 54/54/54
f 50/50/50 53/53/53 49/49/49
f 53/53/53 55/55/55 49/49/49
f 49/49/49 55/55/55 48/48/48
f 55/55/55 56/56/56 48/48/48
f 48/48/48 56/56/56 57/57/57
f 56/56/56 58/58/58 57/57/57
f 57/57/57 58/58/58 39/39/39
f 58/58/58 59/59/59 39/39/39
f 39/39/39 59/59/59 37/37/37
f 59/59/59 60/60/60 37/37/37
f 60/60/60 61/61/61 37/37/37
f 37/37/37 61/61/61 62/62/62
f 61/61/61 63/63/63 62/62/62
f 39/39/39 48/48/48 57/57/57
f 58/58/58 60/60/60 59/59/59
f 37/37/37 62/62/62 36/36/36
f 36/36/36 62/62/62 64/64/64
f 62/62/62 65/65/65 64/64/64
f 65/65/65 66/66/66 64/64/64
f 66/66/66 67/67/67 64/64/64
f 67/67/67 68/68/68 64/64/64
f 68/68/68 69/69/69 64/64/64
f 64/64/64 69/69/69 36/36/36
f 36/36/36 69/69/69 35/35/35
f 69/69/69 70/70/70 35/35/35
f 35/35/35 70/70/70 33/33/33
f 70/70/70 71/71/71 33/33/33
f 33/33/33 71/71/71 31/31/31
f 71/71/71 72/72/72 31/31/31
f 31/31/31 72/72/72 28/28/28
f 28/28/28 72/72/72 27/27/27
f 72/72/72 73/73/73 27/27/27
f 27/27/27 73/73/73 24/24/24
f 24/24/24 73/73/73 74/74/74
f 73/73/73 72/72/72 74/74/74
f 74/74/74 72/72/72 75/75/75
f 72/72/72 71/71/71 75/75/75
f 71/71/71 70/70/70 75/75/75
f 75/75/75 70/70/70 76/76/76
f 70/70/70 77/77/77 76/76/76
f 76/76/76 77/77/77 68/68/68
f 68/68/68 77/77/77 69/69/69
f 77/77/77 70/70/70 69/69/69
f 75/75/75 76/76/76 74/74/74
f 76/76/76 78/78/78 74/74/74
f 78/78/78 79/79/79 74/74/74
f 74/74/74 79/79/79 24/24/24
f 24/24/24 79/79/79 25/25/25
f 79/79/79 80/80/80 25/25/25
f 25/25/25 80/80/80 26/26/26
f 53/53/53 81/81/81 55/55/55
f 55/55/55 81/81/81 56/56/56
f 76/76/76 68/68/68 82/82/82
f 82/82/82 68/68/68 67/67/67
f 82/82/82 83/83/83 76/76/76
f 76/76/76 83/83/83 78/78/78
f 83/83/83 84/84/84 78/78/78
f 78/78/78 84/84/84 85/85/85
f 84/84/84 80/80/80 85/85/85
f 80/80/80 79/79/79 85/85/85
f 85/85/85 79/79/79 78/78/78
f 84/84/84 83/83/83 86/86/86
f 86/86/86 83/83/83 82/82/82
f 86/86/86 87/87/87 84/84/84
f 84/84/84 87/87/87 80/80/80
f 87/87/87 88/88/88 80/80/80
f 80/80/80 88/88/88 26/26/26
f 88/88/88 87/87/87 89/89/89
f 87/87/87 86/86/86 89/89/89
f 89/89/89 86/86/86 90/90/90
f 86/86/86 82/82/82 90/90/90
f 82/82/82 67/67/67 90/90/90
f 90/90/90 67/67/67 91/91/91
f 67/67/67 92/92/92 91/91/91
f 91/91/91 93/93/93 90/90/90
f 90/90/90 93/93/93 89/89/89
f 93/93/93 94/94/94 89/89/89
f 94/94/94 95/95/95 89/89/89
f 89/89/89 95/95/95 96/96/96
f 95/95/95 97/97/97 96/96/96
f 97/97/97 98/98/98 96/96/96
f 96/96/96 98/98/98 88/88/88
f 98/98/98 26/26/26 88/88/88
f 94/94/94 93/93/93 91/91/91
f 89/89/89 96/96/96 88/88/88
f 97/97/97 95/95/95 99/99/99
f 95/95/95 94/94/94 99/99/99
f 99/99/99 94/94/94 100/100/100
f 100/100/100 94/94/94 101/101/101
f 94/94/94 102/102/102 101/101/101
f 101/101/101 102/102/102 103/103/103
f 102/102/102 91/91/91 103/103/103
f 103/103/103 91/91/91 104/104/104
f 91/91/91 92/92/92 104/104/104
f 92/92/92 63/63/63 104/104/104
f 104/104/104 63/63/63 105/105/105
f 63/63/63 61/61/61 105/105/105
f 61/61/61 106/106/106 105/105/105
f 105/105/105 106/106/106 104/104/104
f 104/104/104 106/106/106 107/107/107
f 107/107/107 106/106/106 108/108/108
f 108/108/108 106/106/106 60/60/60
f 106/106/106 61/61/61 60/60/60
f 94/94/94 91/91/91 102/102/102
f 103/103/103 109/109/109 101/101/101
f 107/107/107 108/108/108 110/110/110
f 110/110/110 108/108/108 111/111/111
f 108/108/108 112/112/112 111/111/111
f 112/112/112 113/113/113 111/111/111
f 111/111/111 113/113/113 114/114/114
f 113/113/113 115/115/115 114/114/114
f 114/114/114 115/115/115 116/116/116
f 115/115/115 117/117/117 116/116/116
f 116/116/116 117/117/117 118/118/118
f 118/118/118 117/117/117 119/119/119
f 119/119/119 117/117/117 120/120/120
f 117/117/117 121/121/121 120/120/120
f 120/120/120 121/121/121 122/122/122
f 121/121/121 117/117/117 123/123/123
f 123/123/123 117/117/117 124/124/124
f 117/117/117 115/115/115 124/124/124
f 115/115/115 113/113/113 124/124/124
f 124/124/124 113/113/113 125/125/125
f 125/125/125 113/113/113 126/126/126
f 113/113/113 112/112/112 126/126/126
f 112/112/112 108/108/108 126/126/126
f 126/126/126 108/108/108 127/127/127
f 108/108/108 60/60/60 127/127/127
f 60/60/60 58/58/58 127/127/127
f 127/127/127 58/58/58 126/126/126
f 58/58/58 128/128/128 126/126/126
f 128/128/128 129/129/129 126/126/126
f 126/126/126 129/129/129 125/125/125
f 125/125/125 129/129/129 124/124/124
f 129/129/129 130/130/130 124/124/124
f 130/130/130 131/131/131 124/124/124
f 124/124/124 131/131/131 132/132/132
f 131/131/131 133/133/133 132/132/132
f 132/132/132 133/133/133 134/134/134
f 134/134/134 133/133/133 135/135/135
f 133/133/133 136/136/136 135/135/135
f 135/135/135 136/136/136 137/137/137
f 137/137/137 136/136/136 138/138/138
f 136/136/136 133/133/133 138/138/138
f 138/138/138 133/133/133 139/139/139
f 139/139/139 133/133/133 140/140/140
f 133/133/133 131/131/131 140/140/140
f 131/131/131 130/130/130 140/140/140
f 140/140/140 130/130/130 141/141/141
f 141/141/141 130/130/130 142/142/142
f 130/130/130 129/129/129 142/142/142
f 129/129/129 128/128/128 142/142/142
f 142/142/142 128/128/128 56/56/56
f 128/128/128 58/58/58 56/56/56
f 56/56/56 81/81/81 142/142/142
f 142/142/142 81/81/81 141/141/141
f 141/141/141 81/81/81 143/143/143
f 81/81/81 53/53/53 143/143/143
f 143/143/143 53/53/53 144/144/144
f 53/53/53 54/54/54 144/144/144
f 144/144/144 54/54/54 145/145/145
f 54/54/54 52/52/52 145/145/145
f 99/99/99 146/146/146 97/97/97
f 146/146/146 147/147/147 97/97/97
f 100/100/100 146/146/146 99/99/99
f 145/145/145 148/148/148 144/144/144
f 144/144/144 148/148/148 143/143/143
f 148/148/148 149/149/149 143/143/143
f 143/143/143 149/149/149 141/141/141
f 141/141/141 149/149/149 140/140/140
f 140/140/140 149/149/149 139/139/139
f 139/139/139 149/149/149 150/150/150
f 150/150/150 149/149/149 151/151/151
f 149/149/149 148/148/148 151/151/151
f 148/148/148 145/145/145 151/151/151
f 151/151/151 145/145/145 152/152/152
f 152/152/152 145/145/145 153/153/153
f 153/153/153 145/145/145 154/154/154
f 145/145/145 52/52/52 154/154/154
f 154/154/154 52/52/52 155/155/155
f 52/52/52 156/156/156 155/155/155
f 155/155/155 156/156/156 157/157/157
f 156/156/156 158/158/158 157/157/157
f 157/157/157 158/158/158 159/159/159
f 158/158/158 20/20/20 159/159/159
f 20/20/20 23/23/23 159/159/159
f 159/159/159 23/23/23 160/160/160
f 23/23/23 26/26/26 160/160/160
f 160/160/160 26/26/26 161/161/161
f 26/26/26 98/98/98 161/161/161
f 161/161/161 98/98/98 162/162/162
f 162/162/162 98/98/98 163/163/163
f 98/98/98 97/97/97 163/163/163
f 52/52/52 15/15/15 156/156/156
f 156/156/156 15/15/15 158/158/158
f 15/15/15 20/20/20 158/158/158
f 162/162/162 164/164/164 161/161/161
f 164/164/164 165/165/165 161/161/161
f 161/161/161 165/165/165 160/160/160
f 165/165/165 166/166/166 160/160/160
f 160/160/160 166/166/166 159/159/159
f 166/166/166 167/167/167 159/159/159
f 159/159/159 167/167/167 168/168/168
f 167/167/167 169/169/169 168/168/168
f 169/169/169 170/170/170 168/168/168
f 168/168/168 170/170/170 157/157/157
f 157/157/157 170/170/170 171/171/171
f 171/171/171 170/170/170 172/172/172
f 170/170/170 169/169/169 172/172/172
f 172/172/172 169/169/169 173/173/173
f 173/173/173 169/169/169 174/174/174
f 174/174/174 169/169/169 175/175/175
f 169/169/169 176/176/176 175/175/175
f 175/175/175 176/176/176 177/177/177
f 176/176/176 178/178/178 177/177/177
f 159/159/159 168/168/168 157/157/157
f 169/169/169 167/167/167 176/176/176
f 167/167/167 166/166/166 176/176/176
f 166/166/166 165/165/165 176/176/176
f 176/176/176 165/165/165 164/164/164
f 177/177/177 179/179/179 175/175/175
f 175/175/175 179/179/179 174/174/174
f 179/179/179 180/180/180 174/174/174
f 174/174/174 180/180/180 173/173/173
f 180/180/180 181/181/181 173/173/173
f 173/173/173 181/181/181 172/172/172
f 172/172/172 181/181/181 182/182/182
f 182/182/182 181/181/181 183/183/183
f 183/183/183 181/181/181 184/184/184
f 181/181/181 180/180/180 184/184/184
f 184/184/184 180/180/180 185/185/185
f 185/185/185 180/180/180 186/186/186
f 180/180/180 187/187/187 186/186/186
f 186/186/186 187/187/187 188/188/188
f 187/187/187 189/189/189 188/188/188
f 188/188/188 189/189/189 190/190/190
f 189/189/189 191/191/191 190/190/190
f 180/180/180 179/179/179 187/187/187
f 185/185/185 186/186/186 192/192/192
f 192/192/192 186/186/186 193/193/193
f 186/186/186 188/188/188 193/193/193
f 193/193/193 188/188/188 194/194/194
f 194/194/194 188/188/188 195/195/195
f 188/188/188 190/190/190 195/195/195
f 185/185/185 192/192/192 184/184/184
f 192/192/192 196/196/196 184/184/184
f 184/184/184 196/196/196 183/183/183
f 196/196/196 192/192/192 197/197/197
f 192/192/192 193/193/193 197/197/197
f 193/193/193 194/194/194 197/197/197
f 197/197/197 194/194/194 198/198/198
f 198/198/198 194/194/194 199/199/199
f 194/194/194 195/195/195 199/199/199
f 199/199/199 195/195/195 200/200/200
f 200/200/200 195/195/195 201/201/201
f 195/195/195 190/190/190 201/201/201
f 201/201/201 190/190/190 202/202/202
f 190/190/190 191/191/191 202/202/202
f 202/202/202 191/191/191 203/203/203
f 203/203/203 191/191/191 204/204/204
f 191/191/191 205/205/205 204/204/204
f 204/204/204 205/205/205 206/206/206
f 207/207/207 208/208/208 204/204/204
f 208/208/208 209/209/209 204/204/204
f 204/204/204 209/209/209 210/210/210
f 209/209/209 178/178/178 210/210/210
f 210/210/210 211/211/211 204/204/204
f 204/204/204 211/211/211 203/203/203
f 211/211/211 212/212/212 203/203/203
f 203/203/203 212/212/212 202/202/202
f 212/212/212 213/213/213 202/202/202
f 213/213/213 214/214/214 202/202/202
f 214/214/214 215/215/215 202/202/202
f 202/202/202 215/215/215 201/201/201
f 215/215/215 216/216/216 201/201/201
f 201/201/201 216/216/216 200/200/200
f 216/216/216 217/217/217 200/200/200
f 200/200/200 217/217/217 199/199/199
f 217/217/217 218/218/218 199/199/199
f 218/218/218 219/219/219 199/199/199
f 219/219/219 220/220/220 199/199/199
f 199/199/199 220/220/220 198/198/198
f 220/220/220 221/221/221 198/198/198
f 198/198/198 221/221/221 197/197/197
f 197/197/197 221/221/221 196/196/196
f 221/221/221 222/222/222 196/196/196
f 196/196/196 222/222/222 183/183/183
f 222/222/222 223/223/223 183/183/183
f 183/183/183 223/223/223 182/182/182
f 182/182/182 223/223/223 172/172/172
f 223/223/223 224/224/224 172/172/172
f 172/172/172 224/224/224 171/171/171
f 216/216/216 225/225/225 217/217/217
f 217/217/217 225/225/225 218/218/218
f 225/225/225 226/226/226 218/218/218
f 222/222/222 221/221/221 223/223/223
f 221/221/221 227/227/227 223/223/223
f 223/223/223 227/227/227 224/224/224
f 211/211/211 228/228/228 212/212/212
f 212/212/212 228/228/228 213/213/213
f 227/227/227 221/221/221 229/229/229
f 221/221/221 220/220/220 229/229/229
f 229/229/229 220/220/220 230/230/230
f 220/220/220 219/219/219 230/230/230
f 219/219/219 218/218/218 230/230/230
f 230/230/230 218/218/218 231/231/231
f 231/231/231 218/218/218 232/232/232
f 218/218/218 226/226/226 232/232/232
f 232/232/232 226/226/226 233/233/233
f 226/226/226 234/234/234 233/233/233
f 233/233/233 234/234/234 235/235/235
f 234/234/234 236/236/236 235/235/235
f 235/235/235 236/236/236 237/237/237
f 236/236/236 238/238/238 237/237/237
f 238/238/238 239/239/239 237/237/237
f 239/239/239 240/240/240 237/237/237
f 240/240/240 135/135/135 237/237/237
f 237/237/237 135/135/135 235/235/235
f 135/135/135 241/241/241 235/235/235
f 235/235/235 241/241/241 233/233/233
f 241/241/241 137/137/137 233/233/233
f 233/233/233 137/137/137 242/242/242
f 137/137/137 138/138/138 242/242/242
f 226/226/226 243/243/243 234/234/234
f 243/243/243 244/244/244 234/234/234
f 244/244/244 245/245/245 234/234/234
f 234/234/234 245/245/245 236/236/236
f 135/135/135 137/137/137 241/241/241
f 233/233/233 242/242/242 232/232/232
f 232/232/232 242/242/242 246/246/246
f 242/242/242 138/138/138 246/246/246
f 138/138/138 139/139/139 246/246/246
f 139/139/139 150/150/150 246/246/246
f 150/150/150 151/151/151 246/246/246
f 246/246/246 151/151/151 247/247/247
f 151/151/151 248/248/248 247/247/247
f 247/247/247 248/248/248 230/230/230
f 248/248/248 249/249/249 230/230/230
f 230/230/230 249/249/249 250/250/250
f 250/250/250 249/249/249 227/227/227
f 249/249/249 251/251/251 227/227/227
f 227/227/227 251/251/251 224/224/224
f 151/151/151 152/152/152 248/248/248
f 248/248/248 152/152/152 249/249/249
f 152/152/152 153/153/153 249/249/249
f 249/249/249 153/153/153 252/252/252
f 153/153/153 154/154/154 252/252/252
f 230/230/230 231/231/231 247/247/247
f 247/247/247 231/231/231 246/246/246
f 231/231/231 232/232/232 246/246/246
f 249/249/249 252/252/252 251/251/251
f 251/251/251 252/252/252 224/224/224
f 224/224/224 252/252/252 171/171/171
f 171/171/171 252/252/252 157/157/157
f 157/157/157 252/252/252 155/155/155
f 252/252/252 154/154/154 155/155/155
f 109/109/109 253/253/253 101/101/101
f 253/253/253 254/254/254 101/101/101
f 101/101/101 254/254/254 100/100/100
f 254/254/254 255/255/255 100/100/100
f 100/100/100 255/255/255 146/146/146
f 255/255/255 256/256/256 146/146/146
f 146/146/146 256/256/256 147/147/147
f 147/147/147 256/256/256 257/257/257
f 257/257/257 256/256/256 164/164/164
f 164/164/164 256/256/256 258/258/258
f 258/258/258 256/256/256 259/259/259
f 256/256/256 260/260/260 259/259/259
f 259/259/259 260/260/260 261/261/261
f 260/260/260 262/262/262 261/261/261
f 261/261/261 262/262/262 263/263/263
f 263/263/263 262/262/262 253/253/253
f 253/253/253 262/262/262 254/254/254
f 254/254/254 262/262/262 255/255/255
f 262/262/262 260/260/260 255/255/255
f 255/255/255 260/260/260 256/256/256
f 263/263/263 264/264/264 261/261/261
f 264/264/264 265/265/265 261/261/261
f 261/261/261 265/265/265 266/266/266
f 265/265/265 228/228/228 266/266/266
f 228/228/228 211/211/211 266/266/266
f 266/266/266 211/211/211 267/267/267
f 211/211/211 268/268/268 267/267/267
f 268/268/268 258/258/258 267/267/267
f 258/258/258 259/259/259 267/267/267
f 259/259/259 261/261/261 267/267/267
f 267/267/267 261/261/261 266/266/266
f 228/228/228 265/265/265 269/269/269
f 211/211/211 210/210/210 268/268/268
f 210/210/210 178/178/178 268/268/268
f 268/268/268 178/178/178 164/164/164
f 178/178/178 176/176/176 164/164/164
f 164/164/164 258/258/258 268/268/268
f 270/270/270 271/271/271 213/213/213

