# Exported by Sketchfab Model Ripper robust edition
o model_21
v -0.1921374499797821 -1.1913689374923706 -0.3089524507522583
v -0.18938897550106049 -1.1882234811782837 -0.32017987966537476
v -0.185028076171875 -1.1916999816894531 -0.3071011006832123
v -0.18077710270881653 -1.1886097192764282 -0.3156411349773407
v -0.17436400055885315 -1.1877268552780151 -0.30763858556747437
v -0.17700253427028656 -1.1790632009506226 -0.32552483677864075
v -0.1863473355770111 -1.1787320375442505 -0.32958582043647766
v -0.19569213688373566 -1.178290605545044 -0.33167603611946106
v -0.19770768284797668 -1.1872854232788086 -0.32188189029693604
v -0.20738230645656586 -1.1855195760726929 -0.32083678245544434
v -0.19884373247623444 -1.1900997161865234 -0.31205788254737854
v -0.20353445410728455 -1.1888856887817383 -0.30838510394096375
v -0.19393311440944672 -1.1902101039886475 -0.3023533225059509
v -0.19510580599308014 -1.1878372430801392 -0.29960620403289795
v -0.20807859301567078 -1.18623685836792 -0.3058469891548157
v -0.2185227870941162 -1.1811600923538208 -0.31988126039505005
v -0.2041940838098526 -1.1768558025360107 -0.33293017745018005
v -0.18356221914291382 -1.1902652978897095 -0.3015172481536865
v -0.21537120640277863 -1.1719446182250977 -0.3347814977169037
v -0.20170213282108307 -1.1667574644088745 -0.33824530243873596
v -0.19404305517673492 -1.1685233116149902 -0.33720019459724426
v -0.1847715526819229 -1.1690751314163208 -0.3346620798110962
v -0.19353000819683075 -1.1562175750732422 -0.33720019459724426
v -0.18715354800224304 -1.155720829963684 -0.3319149315357208
v -0.18063051998615265 -1.1524651050567627 -0.32498735189437866
v -0.17546337842941284 -1.1678611040115356 -0.33033233880996704
v -0.16798754036426544 -1.1656538248062134 -0.32639080286026
v -0.17106583714485168 -1.1488230228424072 -0.32143399119377136
v -0.16373656690120697 -1.146284580230713 -0.3199111223220825
v -0.1603284627199173 -1.1640534400939941 -0.32280758023262024
v -0.15582096576690674 -1.1619013547897339 -0.316596657037735
v -0.1613912135362625 -1.143746256828308 -0.31582027673721313
v -0.16223406791687012 -1.1419252157211304 -0.3110426366329193
v -0.16065828502178192 -1.157983422279358 -0.3110426366329193
v -0.16421297192573547 -1.1401593685150146 -0.3065337538719177
v -0.16703473031520844 -1.1529065370559692 -0.30754899978637695
v -0.1709192395210266 -1.1497611999511719 -0.3030998408794403
v -0.16989314556121826 -1.1644948720932007 -0.3039359152317047
v -0.16197754442691803 -1.1699028015136719 -0.3024727702140808
v -0.1590092033147812 -1.1750348806381226 -0.3067726492881775
v -0.16172102093696594 -1.1779043674468994 -0.3129238486289978
v -0.16941674053668976 -1.1789528131484985 -0.3200604319572449
v -0.17546337842941284 -1.1678611040115356 -0.33033233880996704
v -0.16729125380516052 -1.138448715209961 -0.30244290828704834
v -0.17084595561027527 -1.1849677562713623 -0.30118879675865173
v -0.17040619254112244 -1.182153344154358 -0.2984117865562439
v -0.17242173850536346 -1.1769109964370728 -0.29772499203681946
v -0.1762329638004303 -1.1718894243240356 -0.3006811738014221
v -0.17542673647403717 -1.1593077182769775 -0.30265194177627563
v -0.17989759147167206 -1.1566590070724487 -0.30241304636001587
v -0.17608636617660522 -1.14755380153656 -0.30086031556129456
v -0.17242173850536346 -1.1369035243988037 -0.2986208200454712
v -0.1686471700668335 -1.1263636350631714 -0.29479870200157166
v -0.16304029524326324 -1.12713623046875 -0.2987402379512787
v -0.15812969207763672 -1.1176999807357788 -0.2920216917991638
v -0.1634434014558792 -1.1172585487365723 -0.28769198060035706
v -0.1573234647512436 -1.1052286624908447 -0.28622883558273315
v -0.1769658774137497 -1.1253703832626343 -0.2916036546230316
v -0.18015411496162415 -1.1350826025009155 -0.29700836539268494
v -0.18304917216300964 -1.1454569101333618 -0.3016366958618164
v -0.18521130084991455 -1.1556657552719116 -0.3034282922744751
v -0.18231624364852905 -1.1622323989868164 -0.30241304636001587
v -0.18019075691699982 -1.1658192873001099 -0.30190542340278625
v -0.18645727634429932 -1.1677507162094116 -0.3023533225059509
v -0.18524794280529022 -1.1736000776290894 -0.3007110357284546
v -0.19396977126598358 -1.1663711071014404 -0.30315956473350525
v -0.1866038590669632 -1.1625083684921265 -0.3031894266605377
v -0.18293923139572144 -1.1876164674758911 -0.29817289113998413
v -0.19602195918560028 -1.182650089263916 -0.29805347323417664
v -0.18319575488567352 -1.1835881471633911 -0.2965007424354553
v -0.18403862416744232 -1.178290605545044 -0.2979638874530792
v -0.19473934173583984 -1.1716686487197876 -0.3025922179222107
v -0.20210523903369904 -1.1615151166915894 -0.3051004707813263
v -0.2044506072998047 -1.1653778553009033 -0.30504074692726135
v -0.19547227025032043 -1.1769661903381348 -0.3005020022392273
v -0.20646615326404572 -1.171227216720581 -0.30554836988449097
v -0.2105705440044403 -1.1809393167495728 -0.3040255010128021
v -0.220831498503685 -1.1654882431030273 -0.319940984249115
v -0.21247614920139313 -1.1559967994689941 -0.314685583114624
v -0.21676376461982727 -1.1263636350631714 -0.3204784691333771
v -0.20947115123271942 -1.1530169248580933 -0.31235650181770325
v -0.2134656012058258 -1.1316611766815186 -0.31444671750068665
v -0.20749224722385406 -1.150864839553833 -0.30954962968826294
v -0.2110469490289688 -1.1334822177886963 -0.31059473752975464
v -0.21595755219459534 -1.1165963411331177 -0.3059066832065582
v -0.21002084016799927 -1.1201832294464111 -0.3004721403121948
v -0.22028180956840515 -1.103573203086853 -0.2958736717700958
v -0.22266381978988647 -1.0962891578674316 -0.29939717054367065
v -0.22266381978988647 -1.0962891578674316 -0.29939717054367065
v -0.2228837013244629 -1.1121265888214111 -0.30859410762786865
v -0.21423517167568207 -1.11074697971344 -0.2907675802707672
v -0.2022518366575241 -1.1141682863235474 -0.285153865814209
v -0.20085927844047546 -1.1223905086517334 -0.2945598065853119
v -0.18730014562606812 -1.1153271198272705 -0.28124216198921204
v -0.20763882994651794 -1.134254813194275 -0.30533936619758606
v -0.20005305111408234 -1.1341444253921509 -0.30029296875
v -0.20401085913181305 -1.1478849649429321 -0.30680251121520996
v -0.1992468386888504 -1.1574866771697998 -0.3045928478240967
v -0.1927604377269745 -1.1614047288894653 -0.3031894266605377
v -0.19158776104450226 -1.155003547668457 -0.3031297028064728
v -0.19679152965545654 -1.1537895202636719 -0.3036074638366699
v -0.1982940286397934 -1.1455672979354858 -0.3037269115447998
v -0.18990202248096466 -1.1338685750961304 -0.29751598834991455
v -0.19107471406459808 -1.1448498964309692 -0.30148738622665405
v -0.18843618035316467 -1.1237149238586426 -0.29148420691490173
v -0.1728615015745163 -1.1163755655288696 -0.28267547488212585
v -0.16472601890563965 -1.106773853302002 -0.2833921015262604
v -0.1675477921962738 -1.1010348796844482 -0.28267547488212585
v -0.1611713320016861 -1.0991586446762085 -0.2850642800331116
v -0.16479931771755219 -1.0968961715698242 -0.2862885296344757
v -0.1699664443731308 -1.0971168279647827 -0.28446707129478455
v -0.17722240090370178 -1.0970616340637207 -0.28342196345329285
v -0.17604972422122955 -1.102469563484192 -0.2823469936847687
v -0.18664050102233887 -1.1020833253860474 -0.28267547488212585
v -0.18686038255691528 -1.0961787700653076 -0.2837802767753601
v -0.19789092242717743 -1.095185399055481 -0.2858704924583435
v -0.1978176236152649 -1.1003174781799316 -0.285153865814209
v -0.2052934765815735 -1.0978342294692993 -0.2875725328922272
v -0.20730902254581451 -1.0950751304626465 -0.28831905126571655
v -0.21460163593292236 -1.0961787700653076 -0.29115575551986694
v -0.20859163999557495 -1.1005381345748901 -0.28897595405578613
v -0.1995033621788025 -1.1047872304916382 -0.2840788960456848
v -0.1866038590669632 -1.1063324213027954 -0.28124216198921204
v -0.17440064251422882 -1.106884241104126 -0.28166019916534424
v -0.2022518366575241 -1.1141682863235474 -0.285153865814209
v -0.21423517167568207 -1.11074697971344 -0.2907675802707672
v -0.22028180956840515 -1.103573203086853 -0.2958736717700958
v -0.21606749296188354 -1.0928677320480347 -0.29420149326324463
v -0.20712578296661377 -1.0935851335525513 -0.29106616973876953
v -0.19789092242717743 -1.095185399055481 -0.2858704924583435
v -0.19730457663536072 -1.0946335792541504 -0.28936415910720825
v -0.18686038255691528 -1.0961787700653076 -0.2837802767753601
v -0.18689702451229095 -1.0962339639663696 -0.2886773645877838
v -0.17832179367542267 -1.0972824096679688 -0.2885877788066864
v -0.17722240090370178 -1.0970616340637207 -0.28342196345329285
v -0.1699664443731308 -1.0971168279647827 -0.28446707129478455
v -0.17205527424812317 -1.0977238416671753 -0.28885653614997864
v -0.16795089840888977 -1.0977790355682373 -0.2889162302017212
v -0.1611713320016861 -1.0981101989746094 -0.28978219628334045
v -0.15721352398395538 -1.0987170934677124 -0.28936415910720825
v -0.15600420534610748 -1.0992138385772705 -0.292947381734848
v -0.15823961794376373 -1.098606824874878 -0.29438066482543945
v -0.1629669964313507 -1.0972824096679688 -0.2960229814052582
v -0.16644839942455292 -1.0981652736663818 -0.2915439307689667
v -0.17187204957008362 -1.0980550050735474 -0.2925890386104584
v -0.17806527018547058 -1.0978342294692993 -0.29279807209968567
v -0.18605417013168335 -1.0963994264602661 -0.292947381734848
v -0.19602195918560028 -1.0943025350570679 -0.2925890386104584
v -0.20580652356147766 -1.0931988954544067 -0.29387304186820984
v -0.21485815942287445 -1.0917640924453735 -0.29742640256881714
v -0.2197321206331253 -1.0918744802474976 -0.3025922179222107
v -0.21229292452335358 -1.091322660446167 -0.2990388572216034
v -0.20375433564186096 -1.0928677320480347 -0.29865068197250366
v -0.1938231885433197 -1.0947439670562744 -0.29868051409721375
v -0.18469825387001038 -1.0967857837677002 -0.2982326149940491
v -0.17663607001304626 -1.0973927974700928 -0.297545850276947
v -0.16978320479393005 -1.0965650081634521 -0.29688891768455505
v -0.15930236876010895 -1.0961235761642456 -0.30223390460014343
v -0.1556377410888672 -1.0983860492706299 -0.2995763421058655
v -0.15329237282276154 -1.1007589101791382 -0.29584380984306335
v -0.15365883708000183 -1.102800726890564 -0.29115575551986694
v -0.15721352398395538 -1.0987170934677124 -0.28936415910720825
v -0.1573234647512436 -1.1052286624908447 -0.28622883558273315
v -0.1538054198026657 -1.1162652969360352 -0.29638129472732544
v -0.15812969207763672 -1.1176999807357788 -0.2920216917991638
v -0.16304029524326324 -1.12713623046875 -0.2987402379512787
v -0.15889926254749298 -1.1276328563690186 -0.3027116656303406
v -0.16729125380516052 -1.138448715209961 -0.30244290828704834
v -0.16421297192573547 -1.1401593685150146 -0.3065337538719177
v -0.16223406791687012 -1.1419252157211304 -0.3110426366329193
v -0.15607748925685883 -1.127081036567688 -0.3080267608165741
v -0.1503240168094635 -1.1125680208206177 -0.302144318819046
v -0.15263274312019348 -1.107546329498291 -0.31026628613471985
v -0.22266381978988647 -1.0962891578674316 -0.29939717054367065
v -0.15530791878700256 -1.1265844106674194 -0.31435713171958923
v -0.1613912135362625 -1.143746256828308 -0.31582027673721313
v -0.16373656690120697 -1.146284580230713 -0.3199111223220825
v -0.15974211692810059 -1.1293987035751343 -0.3198215365409851
v -0.1675477921962738 -1.1345858573913574 -0.3234644830226898
v -0.17106583714485168 -1.1488230228424072 -0.32143399119377136
v -0.18063051998615265 -1.1524651050567627 -0.32498735189437866
v -0.17601308226585388 -1.138503909111023 -0.3308996856212616
v -0.18715354800224304 -1.155720829963684 -0.3319149315357208
v -0.18389204144477844 -1.1410974264144897 -0.33827516436576843
v -0.19353000819683075 -1.1562175750732422 -0.33720019459724426
v -0.19147782027721405 -1.1429184675216675 -0.3415597677230835
v -0.18235288560390472 -1.1256463527679443 -0.3415597677230835
v -0.17315466701984406 -1.12310791015625 -0.33734947443008423
v -0.16487260162830353 -1.1207350492477417 -0.33000388741493225
v -0.15955889225006104 -1.1138372421264648 -0.321941614151001
v -0.163333460688591 -1.1022487878799438 -0.3204784691333771
v -0.15845949947834015 -1.0950751304626465 -0.30943021178245544
v -0.1624905914068222 -1.0905500650405884 -0.30972880125045776
v -0.16512912511825562 -1.094468116760254 -0.3030998408794403
v -0.1740708202123642 -1.0946887731552124 -0.302890807390213
v -0.1824994683265686 -1.0947439670562744 -0.3040553629398346
v -0.1912945806980133 -1.0933092832565308 -0.3052796423435211
v -0.20173878967761993 -1.0920952558517456 -0.3060559928417206
v -0.2137221246957779 -1.0907708406448364 -0.30486157536506653
v -0.2246793657541275 -1.0980550050735474 -0.3143869936466217
v -0.2228837013244629 -1.1121265888214111 -0.30859410762786865
v -0.22533899545669556 -1.110857367515564 -0.3268387019634247
v -0.21291589736938477 -1.1350826025009155 -0.3264206647872925
v -0.22086815536022186 -1.1143890619277954 -0.331138551235199
v -0.21896255016326904 -1.095516562461853 -0.32782408595085144
v -0.20837175846099854 -1.084259271621704 -0.3241214156150818
v -0.21317243576049805 -1.0889497995376587 -0.31644734740257263
v -0.1996133029460907 -1.086963176727295 -0.313998818397522
v -0.18535788357257843 -1.0862458944320679 -0.3126252293586731
v -0.1794944852590561 -1.091433048248291 -0.30850452184677124
v -0.17029625177383423 -1.0897775888442993 -0.30963921546936035
v -0.16531236469745636 -1.0891153812408447 -0.3184778392314911
v -0.1711757630109787 -1.0838178396224976 -0.31713414192199707
v -0.1769658774137497 -1.0797343254089355 -0.3245095908641815
v -0.1862373948097229 -1.0787409543991089 -0.32310616970062256
v -0.1980375051498413 -1.0813897848129272 -0.323792964220047
v -0.20313134789466858 -1.0852525234222412 -0.33083996176719666
v -0.20789536833763123 -1.0959579944610596 -0.33304962515830994
v -0.21987870335578918 -1.1031317710876465 -0.33355724811553955
v -0.21306249499320984 -1.1053942441940308 -0.33734947443008423
v -0.2030946910381317 -1.1008141040802002 -0.3386036157608032
v -0.20562328398227692 -1.1112436056137085 -0.3377675414085388
v -0.20023629069328308 -1.1058908700942993 -0.34170907735824585
v -0.1995033621788025 -1.1152167320251465 -0.338334858417511
v -0.19396977126598358 -1.114885687828064 -0.3423660099506378
v -0.19089147448539734 -1.128129482269287 -0.3400966227054596
v -0.1974511593580246 -1.1279088258743286 -0.3348710834980011
v -0.1993567794561386 -1.1417596340179443 -0.3403056561946869
v -0.20078597962856293 -1.154672384262085 -0.3413209021091461
v -0.20170213282108307 -1.1667574644088745 -0.33824530243873596
v -0.20807859301567078 -1.1655434370040894 -0.3397681713104248
v -0.22028180956840515 -1.1582040786743164 -0.3365432620048523
v -0.2097276747226715 -1.1544517278671265 -0.34045493602752686
v -0.20580652356147766 -1.139441967010498 -0.3357071876525879
v -0.2044506072998047 -1.1241563558578491 -0.3320343792438507
v -0.2133556604385376 -1.1182518005371094 -0.3332287669181824
v -0.21987870335578918 -1.1031317710876465 -0.33355724811553955
v -0.21075376868247986 -1.1376209259033203 -0.33083996176719666
v -0.220831498503685 -1.1654882431030273 -0.319940984249115
v -0.22028180956840515 -1.1582040786743164 -0.3365432620048523
v -0.19404305517673492 -1.1685233116149902 -0.33720019459724426
v -0.21676376461982727 -1.1263636350631714 -0.3204784691333771
v -0.22028180956840515 -1.1582040786743164 -0.3365432620048523
v -0.220831498503685 -1.1654882431030273 -0.319940984249115
v -0.21537120640277863 -1.1719446182250977 -0.3347814977169037
v -0.2185227870941162 -1.1811600923538208 -0.31988126039505005
v -0.2185227870941162 -1.1811600923538208 -0.31988126039505005
v -0.220831498503685 -1.1654882431030273 -0.319940984249115
v -0.20807859301567078 -1.18623685836792 -0.3058469891548157
v -0.2105705440044403 -1.1809393167495728 -0.3040255010128021
v -0.19554555416107178 -1.0807827711105347 -0.32737618684768677
v -0.18898586928844452 -1.078961730003357 -0.3260921835899353
v -0.18546782433986664 -1.082990050315857 -0.3294066786766052
v -0.19305360317230225 -1.0887842178344727 -0.33155661821365356
v -0.19554555416107178 -1.0807827711105347 -0.32737618684768677
v -0.20313134789466858 -1.0852525234222412 -0.33083996176719666
v -0.19858719408512115 -1.094578504562378 -0.33334821462631226
v -0.2030946910381317 -1.1008141040802002 -0.3386036157608032
v -0.20023629069328308 -1.1058908700942993 -0.34170907735824585
v -0.19605860114097595 -1.1023039817810059 -0.34045493602752686
v -0.19396977126598358 -1.114885687828064 -0.3423660099506378
v -0.18583428859710693 -1.1115747690200806 -0.3410521447658539
v -0.17579320073127747 -1.1088707447052002 -0.3386036157608032
v -0.16740119457244873 -1.106773853302002 -0.33200451731681824
v -0.17399753630161285 -1.0940817594528198 -0.32674911618232727
v -0.16531236469745636 -1.0891153812408447 -0.3184778392314911
v -0.1711757630109787 -1.0838178396224976 -0.31713414192199707
v -0.18187649548053741 -1.095406174659729 -0.333736389875412
v -0.18957221508026123 -1.0976134538650513 -0.3383945822715759
v -0.21896255016326904 -1.095516562461853 -0.32782408595085144
v -0.22086815536022186 -1.1143890619277954 -0.331138551235199
v -0.21987870335578918 -1.1031317710876465 -0.33355724811553955
vn -0.0603962317109108 -0.984032392501831 -0.16742929816246033
vn 0.1111779510974884 -0.8529254198074341 -0.5100564956665039
vn 0.14490847289562225 -0.9861448407173157 -0.08074574917554855
vn 0.34382161498069763 -0.8140206336975098 -0.46814218163490295
vn 0.5050808191299438 -0.8370504379272461 -0.2103329300880432
vn 0.4436030387878418 -0.6150636076927185 -0.651853621006012
vn 0.2609200179576874 -0.6027602553367615 -0.7540562748908997
vn 0.018900826573371887 -0.6856868267059326 -0.7276512384414673
vn -0.1017911434173584 -0.8672624230384827 -0.48733407258987427
vn -0.2986357808113098 -0.8677526712417603 -0.3972681760787964
vn -0.20988407731056213 -0.9680518507957458 -0.1372016966342926
vn -0.37706851959228516 -0.9189516305923462 0.11553031951189041
vn -0.15023405849933624 -0.934073805809021 0.3239381015300751
vn -0.3163416087627411 -0.5830894708633423 0.7482877969741821
vn -0.4319913983345032 -0.8790150880813599 0.2017817199230194
vn -0.32681259512901306 -0.8420623540878296 -0.42909738421440125
vn -0.13505709171295166 -0.6789778470993042 -0.7216291427612305
vn 0.2295893132686615 -0.9163294434547424 0.3280687630176544
vn -0.2691638767719269 -0.5918654799461365 -0.7597671151161194
vn 0.1862163245677948 -0.29230108857154846 -0.9380210638046265
vn 0.14869119226932526 -0.3355148434638977 -0.9302261471748352
vn 0.4484027326107025 0.04523083567619324 -0.8926864862442017
vn 0.3794441819190979 -0.14795264601707458 -0.913308322429657
vn 0.7048379182815552 -0.2087496519088745 -0.677958071231842
vn 0.5366367101669312 0.03777797147631645 -0.8429672718048096
vn 0.3376990258693695 0.40441372990608215 -0.8499464392662048
vn 0.37643638253211975 0.045268137007951736 -0.9253358840942383
vn 0.2568216919898987 0.08900801092386246 -0.962351381778717
vn 0.5702414512634277 0.0679209902882576 -0.8186644315719604
vn 0.6501034498214722 -0.18658897280693054 -0.736579954624176
vn 0.9975489377975464 0.05284658074378967 -0.04586252197623253
vn 0.9865773320198059 -0.007550510577857494 -0.16312000155448914
vn 0.919674277305603 -0.17259439826011658 0.3527185618877411
vn 0.7389277815818787 0.15732112526893616 0.6551609039306641
vn 0.6839210987091064 -0.24402256309986115 0.6875353455543518
vn 0.5186155438423157 0.1120302677154541 0.8476362228393555
vn 0.4774625599384308 -0.16265638172626495 0.8634653687477112
vn 0.26853567361831665 0.17745187878608704 0.946783721446991
vn 0.5259099006652832 0.2478906214237213 0.8136147856712341
vn 0.8717643618583679 -0.3815235495567322 0.30735430121421814
vn 0.6897576451301575 -0.6390200257301331 -0.34042292833328247
vn 0.5373707413673401 -0.6599970459938049 -0.5250110030174255
vn 0.4285162687301636 -0.4285162687301636 -0.7954543828964233
vn 0.561075747013092 -0.38340455293655396 0.7336177229881287
vn 0.538676381111145 -0.8274103999137878 0.15880759060382843
vn 0.41933855414390564 -0.20373380184173584 0.8846737742424011
vn 0.09922748804092407 0.2665274739265442 0.9587059020996094
vn 0.02813921682536602 0.33719581365585327 0.9410139322280884
vn 0.12828253209590912 0.06473515182733536 0.9896226525306702
vn 0.025624651461839676 -0.07886456698179245 0.9965559244155884
vn 0.018777096644043922 -0.24577230215072632 0.9691457152366638
vn 0.2881473898887634 -0.36650151014328003 0.8846737742424011
vn 0.36072537302970886 -0.5644705891609192 0.7424622178077698
vn 0.5253118276596069 -0.5586292147636414 0.641857385635376
vn 0.5572586059570312 -0.5505961179733276 0.6215357780456543
vn 0.37258800864219666 -0.5448926091194153 0.7511792182922363
vn 0.6126828789710999 -0.1856093406677246 0.7682244777679443
vn 0.060212571173906326 -0.6305745840072632 0.7737894654273987
vn -0.0432334765791893 -0.39692455530166626 0.916832447052002
vn -0.07058178633451462 -0.27550172805786133 0.9587059020996094
vn -0.08379530161619186 -0.06272837519645691 0.9945066571235657
vn -0.09863735735416412 0.07899965345859528 0.9919826984405518
vn -0.07831497490406036 0.13066063821315765 0.9883291721343994
vn -0.08871902525424957 0.183610200881958 0.9789873361587524
vn -0.09089735150337219 0.3259302079677582 0.9410139322280884
vn -0.11892485618591309 0.12686073780059814 0.9847655892372131
vn -0.07441036403179169 0.07967404276132584 0.9940398335456848
vn 0.045151278376579285 -0.5689007043838501 0.8211658596992493
vn -0.24544212222099304 0.09555932134389877 0.9646899104118347
vn 0.07056204974651337 -0.1446736454963684 0.986960232257843
vn -0.0691269189119339 0.3270268440246582 0.9424833655357361
vn -0.11899174004793167 0.2811290919780731 0.9522643685340881
vn -0.25151827931404114 0.12351077049970627 0.9599394202232361
vn -0.4915947914123535 0.15576738119125366 0.8567795157432556
vn -0.19831222295761108 0.3183921277523041 0.926983654499054
vn -0.5288046598434448 0.25824111700057983 0.8085030317306519
vn -0.49097204208374023 0.11564616858959198 0.8634653687477112
vn -0.6126828789710999 0.1856093406677246 0.7682244777679443
vn -0.633608341217041 0.11257336288690567 0.7654199600219727
vn -0.8418063521385193 -0.18716076016426086 0.5062933564186096
vn -0.7860126495361328 -0.011310695670545101 0.6181069612503052
vn -0.9195509552955627 -0.304337739944458 0.24860523641109467
vn -0.7018706798553467 -0.06403515487909317 0.7094202041625977
vn -0.8222077488899231 -0.2742893695831299 0.4987381398677826
vn -0.7474672794342041 -0.43880853056907654 0.4987381398677826
vn -0.6486585736274719 -0.5327978730201721 0.5434780716896057
vn -0.8430034518241882 -0.49324527382850647 0.21460255980491638
vn -0.9501164555549622 -0.3118877410888672 -0.002184694167226553
vn -0.5468630790710449 -0.41408267617225647 0.7276512384414673
vn -0.5578600764274597 -0.44074228405952454 0.7032341957092285
vn -0.6253087520599365 -0.6786796450614929 0.3852050006389618
vn -0.3828178644180298 -0.7334572672843933 0.5616858005523682
vn -0.3323803246021271 -0.6108527183532715 0.7185974717140198
vn -0.13017834722995758 -0.4834092855453491 0.865661084651947
vn -0.6146238446235657 -0.2744733989238739 0.7395281791687012
vn -0.4229305386543274 -0.37236130237579346 0.8261215686798096
vn -0.45567989349365234 -0.1302284151315689 0.8805659413337708
vn -0.3910824954509735 0.011274882592260838 0.9202865362167358
vn -0.10025841742753983 0.0037072307895869017 0.994954526424408
vn -0.01669766567647457 -0.12089028209447861 0.9925254583358765
vn -0.28308627009391785 -0.05606963485479355 0.9574540853500366
vn -0.36390307545661926 -0.23834146559238434 0.9004265069961548
vn -0.16512325406074524 -0.410925030708313 0.8965907096862793
vn -0.1274740844964981 -0.22079160809516907 0.9669547080993652
vn -0.1750911921262741 -0.6364533305168152 0.7511792182922363
vn 0.18722935020923615 -0.464301735162735 0.865661084651947
vn 0.32359808683395386 -0.17309986054897308 0.9302261471748352
vn 0.18336129188537598 0.2006450742483139 0.962351381778717
vn 0.4923357665538788 0.4590246081352234 0.7395281791687012
vn 0.18363316357135773 0.9111006855964661 0.3690181374549866
vn 0.18783195316791534 0.5001704096794128 0.8453097939491272
vn 0.005635634530335665 0.2379433512687683 0.9712626934051514
vn 0.005618908908218145 0.20384356379508972 0.9789873361587524
vn -0.10351044684648514 0.21432308852672577 0.9712626934051514
vn -0.10196049511432648 0.17660075426101685 0.9789873361587524
vn -0.21128763258457184 0.13497567176818848 0.9680594801902771
vn -0.23120413720607758 0.21793878078460693 0.9481810927391052
vn -0.31277328729629517 0.022541338577866554 0.949560284614563
vn -0.2659851610660553 0.5560451149940491 0.7874425053596497
vn -0.520490825176239 0.05268429219722748 0.8522403836250305
vn -0.443212628364563 0.05629420652985573 0.8946471214294434
vn -0.29179975390434265 0.0743013471364975 0.953589141368866
vn -0.08691266924142838 0.14057748019695282 0.9862475395202637
vn 0.09482593089342117 -0.014830504544079304 0.9953833818435669
vn -0.3703620433807373 0.022547665983438492 0.9286137819290161
vn -0.46303829550743103 0.10099082440137863 0.8805659413337708
vn -0.5912448763847351 0.07135257124900818 0.8033295273780823
vn -0.4991793930530548 0.6440918445587158 0.5796254277229309
vn 0.01508626714348793 0.9651451110839844 0.2612801790237427
vn 0.016990235075354576 0.9673601984977722 0.25283506512641907
vn 0.1035783514380455 0.9878888130187988 0.11553031951189041
vn 0.11302972584962845 0.9935315847396851 0.010923261754214764
vn 0.15792569518089294 0.9874485731124878 0.002184694167226553
vn 0.07735561579465866 0.9937284588813782 -0.08074574917554855
vn 0.050938479602336884 0.9972087144851685 -0.05459024757146835
vn -0.003773920238018036 0.9922492504119873 -0.1242060661315918
vn 0.041501112282276154 0.991388201713562 -0.1242060661315918
vn -0.009439816698431969 0.9843380451202393 -0.1760382205247879
vn 0.15042105317115784 0.9883299469947815 0.024029340595006943
vn 0.14474214613437653 0.985012948513031 0.09380380809307098
vn 0.49714455008506775 0.8560473322868347 0.1415284425020218
vn 0.24645712971687317 0.9538164734840393 0.17173540592193604
vn 0.08481182157993317 0.9730121493339539 0.21460255980491638
vn -0.009434662759304047 0.9982162117958069 0.058952588587999344
vn 0.02262907661497593 0.9890475273132324 0.1458524912595749
vn 0.07542550563812256 0.9968618750572205 0.024029340595006943
vn 0.19508613646030426 0.9807642102241516 -0.006554040592163801
vn 0.16342662274837494 0.9847925305366516 0.058952588587999344
vn 0.07726272940635681 0.97810959815979 0.19321508705615997
vn -0.06602517515420914 0.9652538895606995 0.25283506512641907
vn -0.5043236613273621 0.8634456396102905 0.010923261754214764
vn 0.07733761519193649 0.9886841177940369 0.12854042649269104
vn 0.16521891951560974 0.980452299118042 0.10684575140476227
vn 0.16349416971206665 0.9707111716270447 0.1760382205247879
vn 0.12240178883075714 0.9743329286575317 0.18892620503902435
vn -0.0339391864836216 0.9574809670448303 0.2864931523799896
vn 0.013208763673901558 0.9501513242721558 0.31150925159454346
vn 0.5492116212844849 0.8130403161048889 0.19321508705615997
vn 0.8175567388534546 0.5613183975219727 -0.12854042649269104
vn 0.9677445292472839 0.18022491037845612 0.1760382205247879
vn 0.8949204683303833 0.09039287269115448 0.43697428703308105
vn 0.7499837279319763 0.43880826234817505 0.4949462115764618
vn 0.6126828789710999 -0.1856093406677246 0.7682244777679443
vn 0.823651134967804 -0.3661627769470215 0.43303996324539185
vn 0.5572586059570312 -0.5505961179733276 0.6215357780456543
vn 0.5253118276596069 -0.5586292147636414 0.641857385635376
vn 0.6941471099853516 -0.48847711086273193 0.528724730014801
vn 0.561075747013092 -0.38340455293655396 0.7336177229881287
vn 0.6839210987091064 -0.24402256309986115 0.6875353455543518
vn 0.919674277305603 -0.17259439826011658 0.3527185618877411
vn 0.9311600923538208 -0.35454031825065613 0.08510008454322815
vn 0.9994269013404846 -0.03019949607551098 -0.0152922747656703
vn 0.9096095561981201 0.16528914868831635 -0.3811691105365753
vn -0.9394652843475342 0.20585964620113373 0.27391019463539124
vn 0.9524202942848206 -0.22457775473594666 -0.2060592919588089
vn 0.9865773320198059 -0.007550510577857494 -0.16312000155448914
vn 0.5702414512634277 0.0679209902882576 -0.8186644315719604
vn 0.7265273928642273 -0.09041130542755127 -0.681163489818573
vn 0.6379521489143372 -0.31381309032440186 -0.7032341957092285
vn 0.2568216919898987 0.08900801092386246 -0.962351381778717
vn 0.5366367101669312 0.03777797147631645 -0.8429672718048096
vn 0.7056217193603516 -0.41756680607795715 -0.5724822878837585
vn 0.7048379182815552 -0.2087496519088745 -0.677958071231842
vn 0.5778438448905945 -0.3452456295490265 -0.7395281791687012
vn 0.3794441819190979 -0.14795264601707458 -0.913308322429657
vn 0.08265496790409088 -0.13306935131549835 -0.9876541495323181
vn 0.214647114276886 -0.05260518565773964 -0.9752739667892456
vn 0.5876064896583557 -0.1861528754234314 -0.7874425053596497
vn 0.7878943681716919 -0.18702173233032227 -0.5867242813110352
vn 0.8270401358604431 0.022664595395326614 -0.5616858005523682
vn 0.7496300339698792 0.3442322611808777 -0.5652954578399658
vn 0.8515712022781372 0.40889772772789 -0.3280687630176544
vn 0.28772035241127014 0.8903968930244446 0.3527185618877411
vn 0.06971210986375809 0.886978268623352 0.456519216299057
vn -0.030192101374268532 0.8790100812911987 0.4758462607860565
vn 0.06033504381775856 0.858022153377533 0.5100564956665039
vn 0.05842976272106171 0.8373873233795166 0.5434780716896057
vn 0.02830115705728531 0.9305954575538635 0.3649536371231079
vn -0.22450339794158936 0.9739223122596741 0.03276457265019417
vn -0.9761117100715637 0.21725822985172272 -0.002184694167226553
vn -0.9699835777282715 -0.1912582814693451 -0.15017375349998474
vn -0.9800814986228943 -0.16153325140476227 -0.11553031951189041
vn -0.841876745223999 -0.16505424678325653 -0.5138099193572998
vn -0.577764630317688 -0.21476112306118011 -0.7874425053596497
vn -0.666630208492279 0.5254086852073669 -0.528724730014801
vn -0.5107616186141968 0.8594975471496582 -0.01966099627315998
vn -0.31295281648635864 0.9119061231613159 0.26549527049064636
vn -0.16510382294654846 0.8638929724693298 0.4758462607860565
vn -0.015086779370903969 0.801884651184082 0.5972883701324463
vn -0.005659978836774826 0.7554681897163391 0.6551609039306641
vn 0.13332374393939972 0.8140429258346558 0.5652954578399658
vn 0.41556471586227417 0.8604456782341003 0.2948545813560486
vn 0.16306951642036438 0.8234317898750305 0.5434780716896057
vn 0.5146085619926453 0.768041729927063 -0.3811691105365753
vn -0.06968005001544952 0.8889731168746948 0.45262736082077026
vn -0.21867676079273224 0.9144904017448425 0.34042292833328247
vn -0.46105054020881653 0.6127409934997559 -0.641857385635376
vn -0.3701613247394562 0.47542139887809753 -0.7980946898460388
vn -0.3030042350292206 0.5601118803024292 -0.7710143327713013
vn -0.34169989824295044 0.07882288098335266 -0.9364978075027466
vn -0.3983224332332611 0.2706996500492096 -0.8763908743858337
vn -0.31455060839653015 -0.27711185812950134 -0.9078915119171143
vn -0.5164058208465576 -0.2067376971244812 -0.8310141563415527
vn -0.4845060110092163 -0.3015635907649994 -0.8211658596992493
vn -0.5513152480125427 -0.2906660735607147 -0.7820260524749756
vn -0.2969174385070801 -0.0037766960449516773 -0.9548956751823425
vn -0.48806053400039673 0.03396026790142059 -0.872148871421814
vn -0.2646624445915222 0.13464030623435974 -0.9548956751823425
vn 0.06065128743648529 0.007662039250135422 -0.9981296062469482
vn 0.1862163245677948 -0.29230108857154846 -0.9380210638046265
vn -0.1474974900484085 -0.2907288074493408 -0.9453682899475098
vn -0.4500223696231842 0.1486051231622696 -0.8805659413337708
vn -0.26230406761169434 0.17184822261333466 -0.949560284614563
vn -0.3601168692111969 0.2709735631942749 -0.8926864862442017
vn -0.14502371847629547 -0.06983973830938339 -0.986960232257843
vn -0.4027754068374634 -0.21073642373085022 -0.8907088041305542
vn -0.45086807012557983 -0.20873738825321198 -0.8678402304649353
vn -0.9187536835670471 0.24259772896766663 -0.31150925159454346
vn -0.9322909712791443 0.25013241171836853 -0.2612801790237427
vn -0.912412703037262 0.3855888247489929 0.1372016966342926
vn 0.14869119226932526 -0.3355148434638977 -0.9302261471748352
vn -0.7851719260215759 0.07543478906154633 -0.6146662831306458
vn -0.916761040687561 -0.3542026877403259 -0.18463370203971863
vn -0.9389531016349792 -0.2463817596435547 -0.2401314377784729
vn -0.9389531016349792 -0.2463817596435547 -0.2401314377784729
vn -0.9479106664657593 -0.13923722505569458 -0.2864931523799896
vn -0.8166139125823975 -0.11654523015022278 0.5652954578399658
vn -0.8682529926300049 -0.23492607474327087 0.43697428703308105
vn -0.8682529926300049 -0.23492607474327087 0.43697428703308105
vn -0.8804808259010315 -0.4575220048427582 0.1242060661315918
vn -0.32613974809646606 0.9451171159744263 -0.01966099627315998
vn -0.001889626495540142 0.7109557390213013 -0.7032341957092285
vn 0.12152351438999176 0.46205300092697144 -0.8784868121147156
vn -0.013226228766143322 0.4966672658920288 -0.8678402304649353
vn 0.080978624522686 0.4786231219768524 -0.87427818775177
vn 0.18483731150627136 0.3981231153011322 -0.8985171914100647
vn -0.003777894424274564 0.49303221702575684 -0.8700028657913208
vn 0.30116719007492065 0.4762578308582306 -0.8261215686798096
vn 0.0037779659032821655 0.45455867052078247 -0.8907088041305542
vn -0.04714472219347954 0.3762059509754181 -0.9253358840942383
vn 0.1477700173854828 0.05199344456195831 -0.9876541495323181
vn 0.19604332745075226 0.13496597111225128 -0.9712626934051514
vn 0.37879621982574463 0.23689641058444977 -0.8946471214294434
vn 0.6836835145950317 0.3077009618282318 -0.661737859249115
vn 0.633668839931488 0.4007079005241394 -0.661737859249115
vn 0.6852758526802063 0.3563769459724426 -0.6351318359375
vn 0.6587131023406982 0.4086415469646454 -0.6317508816719055
vn 0.3689747452735901 0.421093612909317 -0.8285757899284363
vn 0.20656494796276093 0.43080374598503113 -0.8784868121147156
vn -0.9954949021339417 0.09046237915754318 0.028397228568792343
vn -0.9954949021339417 0.09046237915754318 0.028397228568792343
vn -0.9954949021339417 0.09046237915754318 0.028397228568792343
vt 0.3001900613307953 0.7752552628517151
vt 0.3102378249168396 0.8248713612556458
vt 0.26910772919654846 0.7741608023643494
vt 0.26159539818763733 0.8108864426612854
vt 0.22412757575511932 0.7763497233390808
vt 0.2379315048456192 0.856854259967804
vt 0.30366450548171997 0.8775275945663452
vt 0.3786940574645996 0.8712039589881897
vt 0.35333988070487976 0.8163588047027588
vt 0.3972871005535126 0.7898482084274292
vt 0.3337138891220093 0.776714563369751
vt 0.3395359516143799 0.7537306547164917
vt 0.2924899160861969 0.7460693717002869
vt 0.28910934925079346 0.7294090390205383
vt 0.34648486971855164 0.7330573201179504
vt 0.421983927488327 0.7393808960914612
vt 0.45879441499710083 0.8358160853385925
vt 0.2544586658477783 0.7508120536804199
vt 0.49945497512817383 0.7420563101768494
vt 0.3968175947666168 0.9379667639732361
vt 0.3343712091445923 0.9383316040039062
vt 0.263755202293396 0.9191175103187561
vt 0.25098419189453125 0.9980411529541016
vt 0.19379648566246033 0.9671527147293091
vt 0.11022165417671204 0.9328592419624329
vt 0.19295135140419006 0.8870130181312561
vt 0.13895636796951294 0.8545436859130859
vt 0.04430083930492401 0.8493145704269409
vt 0.012936803512275219 0.7765929698944092
vt 0.10749842971563339 0.8067517280578613
vt 0.08514920622110367 0.7616351842880249
vt 0.004391511902213097 0.7176131010055542
vt 0.0019499999471008778 0.6638623476028442
vt 0.0749136433005333 0.707397997379303
vt 0.006645215209573507 0.6073146462440491
vt 0.07228431850671768 0.6459859609603882
vt 0.07970275729894638 0.6002613306045532
vt 0.1310684084892273 0.6648352146148682
vt 0.13228917121887207 0.7106814384460449
vt 0.14449672400951385 0.7457045316696167
vt 0.15970923006534576 0.7799980044364929
vt 0.1943599134683609 0.8254793882369995
vt 0.19295135140419006 0.8870130181312561
vt 0.02570778876543045 0.5397005677223206
vt 0.2020600587129593 0.7453396916389465
vt 0.19379648566246033 0.7279497385025024
vt 0.18609632551670074 0.7037497758865356
vt 0.17989864945411682 0.6728613376617432
vt 0.1366087645292282 0.6271367073059082
vt 0.15050660073757172 0.6053689122200012
vt 0.10421178489923477 0.5686432719230652
vt 0.06251827627420425 0.501272439956665
vt 0.05359736457467079 0.39048755168914795
vt 0.015566123649477959 0.39437901973724365
vt 0.039605624973773956 0.2685147225856781
vt 0.07763686776161194 0.2748383581638336
vt 0.1366087645292282 0.15164944529533386
vt 0.09773238748311996 0.39681118726730347
vt 0.11040946841239929 0.48096391558647156
vt 0.14355768263339996 0.5483347177505493
vt 0.1788657009601593 0.5940593481063843
vt 0.179147407412529 0.6250693798065186
vt 0.1795230358839035 0.6429457664489746
vt 0.21454933285713196 0.6425809264183044
vt 0.2227190136909485 0.6679970026016235
vt 0.2506085932254791 0.6345548033714294
vt 0.20281130075454712 0.6214211583137512
vt 0.24497433006763458 0.7328140735626221
vt 0.28225433826446533 0.7055739164352417
vt 0.2369924634695053 0.7143296599388123
vt 0.22750812768936157 0.6898864507675171
vt 0.263755202293396 0.6560794115066528
vt 0.290142297744751 0.6193538308143616
vt 0.30751457810401917 0.6368653774261475
vt 0.2747419774532318 0.6796714067459106
vt 0.3251686096191406 0.6617950201034546
vt 0.34423118829727173 0.7065467238426208
vt 0.4312804639339447 0.6679970026016235
vt 0.37043046951293945 0.6155839562416077
vt 0.41212397813796997 0.5145277380943298
vt 0.3453580141067505 0.5992885231971741
vt 0.3698670566082001 0.5276613831520081
vt 0.3217880427837372 0.5862764120101929
vt 0.338596910238266 0.5283910036087036
vt 0.31427571177482605 0.4672222137451172
vt 0.2731456160545349 0.467100590467453
vt 0.29812416434288025 0.3991217315196991
vt 0.32103681564331055 0.3829478621482849
vt 0.32103681564331055 0.3829478621482849
vt 0.3417896628379822 0.45189958810806274
vt 0.26478812098503113 0.4028915762901306
vt 0.2163335233926773 0.381974995136261
vt 0.21783599257469177 0.4446031153202057
vt 0.16290196776390076 0.3363719880580902
vt 0.29549485445022583 0.5203648805618286
vt 0.2347387671470642 0.504069447517395
vt 0.2898605763912201 0.5696161389350891
vt 0.26779305934906006 0.6017206311225891
vt 0.23483265936374664 0.6146110892295837
vt 0.2156761884689331 0.5887085795402527
vt 0.24591337144374847 0.5854251980781555
vt 0.24365967512130737 0.5534422993659973
vt 0.16712766885757446 0.485949844121933
vt 0.19360867142677307 0.5437136292457581
vt 0.15830065310001373 0.4139578938484192
vt 0.12289873510599136 0.2925931215286255
vt 0.1504126936197281 0.1965228021144867
vt 0.19830389320850372 0.17195798456668854
vt 0.2233763337135315 0.11820724606513977
vt 0.23830711841583252 0.1392454355955124
vt 0.22478491067886353 0.17280924320220947
vt 0.22065311670303345 0.2124534547328949
vt 0.19191840291023254 0.22619515657424927
vt 0.20741261541843414 0.27277103066444397
vt 0.23192162811756134 0.2538001537322998
vt 0.2521110475063324 0.2938092052936554
vt 0.23464486002922058 0.3098614513874054
vt 0.2592477798461914 0.32785943150520325
vt 0.2717370390892029 0.32664334774017334
vt 0.2872312664985657 0.35424837470054626
vt 0.26065635681152344 0.3484112024307251
vt 0.2246910035610199 0.3326021432876587
vt 0.19088545441627502 0.29052579402923584
vt 0.16750328242778778 0.23969364166259766
vt 0.2163335233926773 0.381974995136261
vt 0.26478812098503113 0.4028915762901306
vt 0.29812416434288025 0.3991217315196991
vt 0.30263155698776245 0.3513297736644745
vt 0.2825360596179962 0.3208061754703522
vt 0.2521110475063324 0.2938092052936554
vt 0.2653515636920929 0.2845669984817505
vt 0.23192162811756134 0.2538001537322998
vt 0.2533318102359772 0.24236901104450226
vt 0.24844878911972046 0.20357605814933777
vt 0.22065311670303345 0.2124534547328949
vt 0.22478491067886353 0.17280924320220947
vt 0.2514537274837494 0.17268763482570648
vt 0.25549161434173584 0.15189266204833984
vt 0.27483588457107544 0.1163831278681755
vt 0.29333505034446716 0.09741228073835373
vt 0.32789182662963867 0.09193991869688034
vt 0.3253564238548279 0.10434393584728241
vt 0.318595290184021 0.12684141099452972
vt 0.27784082293510437 0.14252884685993195
vt 0.2740846574306488 0.16672883927822113
vt 0.2706102132797241 0.19469867646694183
vt 0.27267611026763916 0.23203232884407043
vt 0.277277410030365 0.27435192465782166
vt 0.29202038049697876 0.312658429145813
vt 0.31390008330345154 0.3457358181476593
vt 0.3334321677684784 0.3655579090118408
vt 0.318595290184021 0.33539915084838867
vt 0.3089231550693512 0.3015921115875244
vt 0.3017864227294922 0.2602453827857971
vt 0.2966216802597046 0.22084440290927887
vt 0.2982180714607239 0.1871589869260788
vt 0.30591821670532227 0.15590572357177734
vt 0.37399885058403015 0.12149066478013992
vt 0.37202686071395874 0.10276303440332413
vt 0.36404499411582947 0.08379218727350235
vt 0.345733642578125 0.06591580808162689
vt 0.29333505034446716 0.09741228073835373
vt 0.31681111454963684 0.04512083902955055
vt 0.4703446626663208 0.032838430255651474
vt 0.4634896218776703 0.0019499999471008778
vt 0.5831236839294434 0.020799240097403526
vt 0.5864103436470032 0.05570073425769806
vt 0.6763706803321838 0.04791782423853874
vt 0.6862306594848633 0.0845218300819397
vt 0.7049176096916199 0.12355799973011017
vt 0.5931714773178101 0.09169670194387436
vt 0.4712837040424347 0.0684695765376091
vt 0.481988787651062 0.10860021412372589
vt 0.32103681564331055 0.3829478621482849
vt 0.6075388193130493 0.13097608089447021
vt 0.7235106229782104 0.16794492304325104
vt 0.750367283821106 0.2096564620733261
vt 0.6441615223884583 0.17694391310214996
vt 0.6927100419998169 0.24090972542762756
vt 0.7656736969947815 0.29320114850997925
vt 0.7711201310157776 0.39972975850105286
vt 0.6993772387504578 0.34391170740127563
vt 0.7411646246910095 0.5000563859939575
vt 0.6793756484985352 0.432685524225235
vt 0.6870757937431335 0.58189857006073
vt 0.6512982249259949 0.493489533662796
vt 0.6274465322494507 0.37589460611343384
vt 0.6352406144142151 0.3084021508693695
vt 0.6166475415229797 0.23969364166259766
vt 0.5637794137001038 0.17597104609012604
vt 0.5040562748908997 0.176457479596138
vt 0.420669287443161 0.1379077434539795
vt 0.4054567813873291 0.15468965470790863
vt 0.3589741587638855 0.14654190838336945
vt 0.33268094062805176 0.17694391310214996
vt 0.3270466923713684 0.21306148171424866
vt 0.3308967649936676 0.2514896094799042
vt 0.3372822701931 0.2940524220466614
vt 0.34169575572013855 0.34354686737060547
vt 0.3744683563709259 0.40885037183761597
vt 0.3417896628379822 0.45189958810806274
vt 0.4306231439113617 0.45603427290916443
vt 0.46790313720703125 0.5443216562271118
vt 0.45982736349105835 0.4647900462150574
vt 0.42883893847465515 0.3951086699962616
vt 0.4147532880306244 0.33552074432373047
vt 0.38470393419265747 0.35193783044815063
vt 0.37428054213523865 0.2935659885406494
vt 0.37428054213523865 0.23568058013916016
vt 0.35615700483322144 0.20612983405590057
vt 0.38498562574386597 0.17876803874969482
vt 0.44273677468299866 0.1832675337791443
vt 0.4251766800880432 0.2016303390264511
vt 0.44311240315437317 0.2350725382566452
vt 0.427712082862854 0.26121824979782104
vt 0.41973021626472473 0.29976800084114075
vt 0.44686856865882874 0.33041322231292725
vt 0.46818485856056213 0.3733408451080322
vt 0.4577614665031433 0.42137598991394043
vt 0.48696571588516235 0.4177277386188507
vt 0.5037745833396912 0.37820515036582947
vt 0.5207712650299072 0.4242945909500122
vt 0.5283775329589844 0.38525840640068054
vt 0.550351083278656 0.42088955640792847
vt 0.5678173303604126 0.39194685220718384
vt 0.6115767359733582 0.432442307472229
vt 0.579555332660675 0.4681950807571411
vt 0.6084778904914856 0.5319176912307739
vt 0.6286672949790955 0.6093819737434387
vt 0.6030313968658447 0.7180995345115662
vt 0.5707283616065979 0.7106814384460449
vt 0.521240770816803 0.6622814536094666
vt 0.5753296613693237 0.6329739093780518
vt 0.5539194941520691 0.5456593632698059
vt 0.5419936180114746 0.47731566429138184
vt 0.494853675365448 0.475126713514328
vt 0.4577614665031433 0.42137598991394043
vt 0.5049014091491699 0.5495508313179016
vt 0.4312804639339447 0.6679970026016235
vt 0.521240770816803 0.6622814536094666
vt 0.6604069471359253 0.7056955099105835
vt 0.41212397813796997 0.5145277380943298
vt 0.521240770816803 0.6622814536094666
vt 0.4312804639339447 0.6679970026016235
vt 0.49945497512817383 0.7420563101768494
vt 0.421983927488327 0.7393808960914612
vt 0.421983927488327 0.7393808960914612
vt 0.4312804639339447 0.6679970026016235
vt 0.34648486971855164 0.7330573201179504
vt 0.34423118829727173 0.7065467238426208
vt 0.4370086193084717 0.2977006435394287
vt 0.4373842477798462 0.2748383581638336
vt 0.46086031198501587 0.27277103066444397
vt 0.47795090079307556 0.3084021508693695
vt 0.4370086193084717 0.2977006435394287
vt 0.44686856865882874 0.33041322231292725
vt 0.48790475726127625 0.3418443500995636
vt 0.5037745833396912 0.37820515036582947
vt 0.5283775329589844 0.38525840640068054
vt 0.5274384617805481 0.35947751998901367
vt 0.5678173303604126 0.39194685220718384
vt 0.578146755695343 0.34658706188201904
vt 0.5742967128753662 0.2912554442882538
vt 0.5590842366218567 0.2339780628681183
vt 0.4965439438819885 0.2297217845916748
vt 0.44273677468299866 0.1832675337791443
vt 0.4251766800880432 0.2016303390264511
vt 0.5165455937385559 0.27824336290359497
vt 0.5209590792655945 0.3217790424823761
vt 0.42883893847465515 0.3951086699962616
vt 0.45982736349105835 0.4647900462150574
vt 0.4577614665031433 0.42137598991394043
s on
f 1/1/1 2/2/2 3/3/3
f 2/2/2 4/4/4 3/3/3
f 3/3/3 4/4/4 5/5/5
f 5/5/5 4/4/4 6/6/6
f 6/6/6 4/4/4 7/7/7
f 4/4/4 2/2/2 7/7/7
f 7/7/7 2/2/2 8/8/8
f 2/2/2 9/9/9 8/8/8
f 8/8/8 9/9/9 10/10/10
f 9/9/9 11/11/11 10/10/10
f 10/10/10 11/11/11 12/12/12
f 11/11/11 13/13/13 12/12/12
f 13/13/13 14/14/14 12/12/12
f 14/14/14 15/15/15 12/12/12
f 12/12/12 15/15/15 10/10/10
f 15/15/15 16/16/16 10/10/10
f 16/16/16 17/17/17 10/10/10
f 10/10/10 17/17/17 8/8/8
f 2/2/2 1/1/1 9/9/9
f 9/9/9 1/1/1 11/11/11
f 11/11/11 1/1/1 13/13/13
f 1/1/1 3/3/3 13/13/13
f 13/13/13 3/3/3 18/18/18
f 3/3/3 5/5/5 18/18/18
f 17/17/17 16/16/16 19/19/19
f 20/20/20 21/21/21 17/17/17
f 17/17/17 21/21/21 8/8/8
f 8/8/8 21/21/21 7/7/7
f 7/7/7 21/21/21 22/22/22
f 21/21/21 23/23/23 22/22/22
f 23/23/23 24/24/24 22/22/22
f 24/24/24 25/25/25 22/22/22
f 22/22/22 25/25/25 26/26/26
f 26/26/26 25/25/25 27/27/27
f 25/25/25 28/28/28 27/27/27
f 28/28/28 29/29/29 27/27/27
f 27/27/27 29/29/29 30/30/30
f 30/30/30 29/29/29 31/31/31
f 29/29/29 32/32/32 31/31/31
f 32/32/32 33/33/33 31/31/31
f 31/31/31 33/33/33 34/34/34
f 33/33/33 35/35/35 34/34/34
f 34/34/34 35/35/35 36/36/36
f 35/35/35 37/37/37 36/36/36
f 37/37/37 38/38/38 36/36/36
f 38/38/38 39/39/39 36/36/36
f 36/36/36 39/39/39 34/34/34
f 34/34/34 39/39/39 31/31/31
f 39/39/39 40/40/40 31/31/31
f 40/40/40 41/41/41 31/31/31
f 31/31/31 41/41/41 30/30/30
f 41/41/41 42/42/42 30/30/30
f 30/30/30 42/42/42 27/27/27
f 42/42/42 6/6/6 27/27/27
f 27/27/27 6/6/6 43/43/43
f 6/6/6 7/7/7 43/43/43
f 43/43/43 7/7/7 22/22/22
f 35/35/35 44/44/44 37/37/37
f 6/6/6 42/42/42 5/5/5
f 5/5/5 42/42/42 45/45/45
f 42/42/42 41/41/41 45/45/45
f 41/41/41 40/40/40 45/45/45
f 45/45/45 40/40/40 46/46/46
f 40/40/40 39/39/39 46/46/46
f 46/46/46 39/39/39 47/47/47
f 47/47/47 39/39/39 48/48/48
f 39/39/39 38/38/38 48/48/48
f 48/48/48 38/38/38 49/49/49
f 38/38/38 37/37/37 49/49/49
f 49/49/49 37/37/37 50/50/50
f 50/50/50 37/37/37 51/51/51
f 51/51/51 37/37/37 52/52/52
f 37/37/37 44/44/44 52/52/52
f 52/52/52 44/44/44 53/53/53
f 44/44/44 54/54/54 53/53/53
f 54/54/54 55/55/55 53/53/53
f 53/53/53 55/55/55 56/56/56
f 55/55/55 57/57/57 56/56/56
f 56/56/56 58/58/58 53/53/53
f 53/53/53 58/58/58 52/52/52
f 58/58/58 59/59/59 52/52/52
f 52/52/52 59/59/59 51/51/51
f 59/59/59 60/60/60 51/51/51
f 60/60/60 61/61/61 51/51/51
f 51/51/51 61/61/61 50/50/50
f 61/61/61 62/62/62 50/50/50
f 50/50/50 62/62/62 49/49/49
f 62/62/62 63/63/63 49/49/49
f 49/49/49 63/63/63 48/48/48
f 63/63/63 64/64/64 48/48/48
f 48/48/48 64/64/64 65/65/65
f 65/65/65 64/64/64 66/66/66
f 66/66/66 64/64/64 67/67/67
f 64/64/64 62/62/62 67/67/67
f 67/67/67 62/62/62 61/61/61
f 62/62/62 64/64/64 63/63/63
f 5/5/5 45/45/45 18/18/18
f 45/45/45 68/68/68 18/18/18
f 18/18/18 68/68/68 13/13/13
f 13/13/13 68/68/68 14/14/14
f 14/14/14 68/68/68 69/69/69
f 68/68/68 70/70/70 69/69/69
f 69/69/69 70/70/70 71/71/71
f 70/70/70 46/46/46 71/71/71
f 46/46/46 47/47/47 71/71/71
f 47/47/47 48/48/48 71/71/71
f 48/48/48 65/65/65 71/71/71
f 71/71/71 65/65/65 72/72/72
f 65/65/65 66/66/66 72/72/72
f 66/66/66 73/73/73 72/72/72
f 73/73/73 74/74/74 72/72/72
f 72/72/72 74/74/74 75/75/75
f 74/74/74 76/76/76 75/75/75
f 75/75/75 76/76/76 69/69/69
f 76/76/76 77/77/77 69/69/69
f 69/69/69 77/77/77 14/14/14
f 77/77/77 15/15/15 14/14/14
f 46/46/46 70/70/70 45/45/45
f 70/70/70 68/68/68 45/45/45
f 69/69/69 71/71/71 75/75/75
f 71/71/71 72/72/72 75/75/75
f 77/77/77 76/76/76 78/78/78
f 76/76/76 79/79/79 78/78/78
f 78/78/78 79/79/79 80/80/80
f 79/79/79 81/81/81 80/80/80
f 80/80/80 81/81/81 82/82/82
f 81/81/81 83/83/83 82/82/82
f 83/83/83 84/84/84 82/82/82
f 82/82/82 84/84/84 85/85/85
f 84/84/84 86/86/86 85/85/85
f 86/86/86 87/87/87 85/85/85
f 85/85/85 87/87/87 88/88/88
f 76/76/76 74/74/74 79/79/79
f 79/79/79 74/74/74 81/81/81
f 81/81/81 74/74/74 83/83/83
f 74/74/74 73/73/73 83/83/83
f 89/89/89 90/90/90 85/85/85
f 90/90/90 82/82/82 85/85/85
f 87/87/87 86/86/86 91/91/91
f 91/91/91 86/86/86 92/92/92
f 86/86/86 93/93/93 92/92/92
f 92/92/92 93/93/93 94/94/94
f 84/84/84 95/95/95 86/86/86
f 95/95/95 96/96/96 86/86/86
f 86/86/86 96/96/96 93/93/93
f 84/84/84 83/83/83 95/95/95
f 95/95/95 83/83/83 97/97/97
f 97/97/97 83/83/83 98/98/98
f 83/83/83 73/73/73 98/98/98
f 98/98/98 73/73/73 99/99/99
f 73/73/73 66/66/66 99/99/99
f 66/66/66 67/67/67 99/99/99
f 67/67/67 61/61/61 99/99/99
f 99/99/99 61/61/61 100/100/100
f 61/61/61 60/60/60 100/100/100
f 100/100/100 101/101/101 99/99/99
f 99/99/99 101/101/101 98/98/98
f 98/98/98 101/101/101 97/97/97
f 101/101/101 102/102/102 97/97/97
f 97/97/97 102/102/102 95/95/95
f 95/95/95 102/102/102 96/96/96
f 102/102/102 103/103/103 96/96/96
f 96/96/96 103/103/103 93/93/93
f 103/103/103 102/102/102 104/104/104
f 102/102/102 101/101/101 104/104/104
f 101/101/101 100/100/100 104/104/104
f 100/100/100 60/60/60 104/104/104
f 104/104/104 60/60/60 103/103/103
f 60/60/60 59/59/59 103/103/103
f 59/59/59 58/58/58 103/103/103
f 103/103/103 58/58/58 105/105/105
f 58/58/58 94/94/94 105/105/105
f 94/94/94 93/93/93 105/105/105
f 105/105/105 93/93/93 103/103/103
f 94/94/94 58/58/58 106/106/106
f 58/58/58 56/56/56 106/106/106
f 106/106/106 56/56/56 107/107/107
f 56/56/56 57/57/57 107/107/107
f 107/107/107 57/57/57 108/108/108
f 57/57/57 109/109/109 108/108/108
f 109/109/109 110/110/110 108/108/108
f 110/110/110 111/111/111 108/108/108
f 111/111/111 112/112/112 108/108/108
f 108/108/108 112/112/112 113/113/113
f 113/113/113 112/112/112 114/114/114
f 112/112/112 115/115/115 114/114/114
f 115/115/115 116/116/116 114/114/114
f 114/114/114 116/116/116 117/117/117
f 117/117/117 116/116/116 118/118/118
f 116/116/116 119/119/119 118/118/118
f 119/119/119 120/120/120 118/118/118
f 120/120/120 121/121/121 118/118/118
f 118/118/118 121/121/121 117/117/117
f 121/121/121 122/122/122 117/117/117
f 122/122/122 123/123/123 117/117/117
f 117/117/117 123/123/123 114/114/114
f 114/114/114 123/123/123 113/113/113
f 123/123/123 124/124/124 113/113/113
f 113/113/113 124/124/124 108/108/108
f 108/108/108 124/124/124 107/107/107
f 107/107/107 124/124/124 106/106/106
f 106/106/106 124/124/124 94/94/94
f 124/124/124 123/123/123 94/94/94
f 123/123/123 122/122/122 94/94/94
f 94/94/94 122/122/122 125/125/125
f 122/122/122 121/121/121 125/125/125
f 125/125/125 121/121/121 126/126/126
f 126/126/126 121/121/121 127/127/127
f 121/121/121 120/120/120 127/127/127
f 127/127/127 120/120/120 128/128/128
f 120/120/120 119/119/119 128/128/128
f 128/128/128 119/119/119 129/129/129
f 119/119/119 130/130/130 129/129/129
f 129/129/129 130/130/130 131/131/131
f 130/130/130 132/132/132 131/131/131
f 131/131/131 132/132/132 133/133/133
f 133/133/133 132/132/132 134/134/134
f 132/132/132 135/135/135 134/134/134
f 135/135/135 136/136/136 134/134/134
f 134/134/134 136/136/136 137/137/137
f 137/137/137 136/136/136 138/138/138
f 136/136/136 110/110/110 138/138/138
f 138/138/138 110/110/110 139/139/139
f 110/110/110 109/109/109 139/139/139
f 109/109/109 140/140/140 139/139/139
f 140/140/140 141/141/141 139/139/139
f 141/141/141 142/142/142 139/139/139
f 142/142/142 143/143/143 139/139/139
f 139/139/139 143/143/143 144/144/144
f 143/143/143 145/145/145 144/144/144
f 144/144/144 145/145/145 138/138/138
f 138/138/138 145/145/145 137/137/137
f 145/145/145 146/146/146 137/137/137
f 137/137/137 146/146/146 134/134/134
f 134/134/134 146/146/146 133/133/133
f 146/146/146 147/147/147 133/133/133
f 147/147/147 148/148/148 133/133/133
f 133/133/133 148/148/148 131/131/131
f 131/131/131 148/148/148 129/129/129
f 148/148/148 149/149/149 129/129/129
f 129/129/129 149/149/149 128/128/128
f 149/149/149 150/150/150 128/128/128
f 128/128/128 150/150/150 151/151/151
f 151/151/151 150/150/150 152/152/152
f 150/150/150 149/149/149 152/152/152
f 152/152/152 149/149/149 153/153/153
f 149/149/149 148/148/148 153/153/153
f 153/153/153 148/148/148 154/154/154
f 154/154/154 148/148/148 155/155/155
f 148/148/148 147/147/147 155/155/155
f 147/147/147 146/146/146 155/155/155
f 155/155/155 146/146/146 156/156/156
f 156/156/156 146/146/146 157/157/157
f 146/146/146 145/145/145 157/157/157
f 145/145/145 143/143/143 157/157/157
f 157/157/157 143/143/143 158/158/158
f 143/143/143 142/142/142 158/158/158
f 158/158/158 142/142/142 159/159/159
f 142/142/142 141/141/141 159/159/159
f 159/159/159 141/141/141 160/160/160
f 160/160/160 141/141/141 161/161/161
f 141/141/141 162/162/162 161/161/161
f 162/162/162 109/109/109 161/161/161
f 109/109/109 163/163/163 161/161/161
f 161/161/161 163/163/163 164/164/164
f 163/163/163 165/165/165 164/164/164
f 165/165/165 166/166/166 164/164/164
f 164/164/164 166/166/166 167/167/167
f 166/166/166 168/168/168 167/167/167
f 168/168/168 169/169/169 167/167/167
f 169/169/169 170/170/170 167/167/167
f 170/170/170 171/171/171 167/167/167
f 167/167/167 171/171/171 164/164/164
f 171/171/171 172/172/172 164/164/164
f 164/164/164 172/172/172 160/160/160
f 160/160/160 172/172/172 159/159/159
f 172/172/172 173/173/173 159/159/159
f 159/159/159 173/173/173 158/158/158
f 127/127/127 128/128/128 174/174/174
f 174/174/174 128/128/128 151/151/151
f 138/138/138 139/139/139 144/144/144
f 164/164/164 160/160/160 161/161/161
f 172/172/172 171/171/171 173/173/173
f 173/173/173 171/171/171 175/175/175
f 171/171/171 170/170/170 175/175/175
f 170/170/170 176/176/176 175/175/175
f 176/176/176 177/177/177 175/175/175
f 175/175/175 177/177/177 178/178/178
f 178/178/178 177/177/177 179/179/179
f 177/177/177 180/180/180 179/179/179
f 180/180/180 181/181/181 179/179/179
f 179/179/179 181/181/181 182/182/182
f 181/181/181 183/183/183 182/182/182
f 182/182/182 183/183/183 184/184/184
f 183/183/183 185/185/185 184/184/184
f 185/185/185 186/186/186 184/184/184
f 186/186/186 187/187/187 184/184/184
f 187/187/187 188/188/188 184/184/184
f 184/184/184 188/188/188 182/182/182
f 182/182/182 188/188/188 179/179/179
f 188/188/188 189/189/189 179/179/179
f 189/189/189 190/190/190 179/179/179
f 179/179/179 190/190/190 178/178/178
f 190/190/190 173/173/173 178/178/178
f 178/178/178 173/173/173 175/175/175
f 190/190/190 191/191/191 173/173/173
f 191/191/191 192/192/192 173/173/173
f 173/173/173 192/192/192 158/158/158
f 192/192/192 193/193/193 158/158/158
f 158/158/158 193/193/193 194/194/194
f 193/193/193 195/195/195 194/194/194
f 194/194/194 195/195/195 157/157/157
f 157/157/157 195/195/195 156/156/156
f 156/156/156 195/195/195 155/155/155
f 195/195/195 196/196/196 155/155/155
f 155/155/155 196/196/196 154/154/154
f 196/196/196 197/197/197 154/154/154
f 197/197/197 198/198/198 154/154/154
f 154/154/154 198/198/198 153/153/153
f 153/153/153 198/198/198 152/152/152
f 198/198/198 199/199/199 152/152/152
f 152/152/152 199/199/199 151/151/151
f 199/199/199 200/200/200 151/151/151
f 151/151/151 200/200/200 174/174/174
f 174/174/174 200/200/200 201/201/201
f 201/201/201 200/200/200 82/82/82
f 82/82/82 200/200/200 80/80/80
f 200/200/200 202/202/202 80/80/80
f 80/80/80 202/202/202 203/203/203
f 203/203/203 202/202/202 204/204/204
f 204/204/204 202/202/202 205/205/205
f 202/202/202 200/200/200 205/205/205
f 205/205/205 200/200/200 206/206/206
f 200/200/200 207/207/207 206/206/206
f 206/206/206 207/207/207 208/208/208
f 207/207/207 198/198/198 208/208/208
f 208/208/208 198/198/198 209/209/209
f 198/198/198 197/197/197 209/209/209
f 197/197/197 196/196/196 209/209/209
f 209/209/209 196/196/196 210/210/210
f 196/196/196 195/195/195 210/210/210
f 210/210/210 195/195/195 211/211/211
f 195/195/195 193/193/193 211/211/211
f 193/193/193 212/212/212 211/211/211
f 212/212/212 213/213/213 211/211/211
f 211/211/211 213/213/213 209/209/209
f 213/213/213 214/214/214 209/209/209
f 214/214/214 215/215/215 209/209/209
f 215/215/215 216/216/216 209/209/209
f 209/209/209 216/216/216 208/208/208
f 208/208/208 216/216/216 206/206/206
f 216/216/216 217/217/217 206/206/206
f 206/206/206 217/217/217 205/205/205
f 217/217/217 218/218/218 205/205/205
f 205/205/205 218/218/218 219/219/219
f 219/219/219 218/218/218 220/220/220
f 218/218/218 221/221/221 220/220/220
f 220/220/220 221/221/221 222/222/222
f 221/221/221 223/223/223 222/222/222
f 222/222/222 223/223/223 224/224/224
f 223/223/223 225/225/225 224/224/224
f 225/225/225 226/226/226 224/224/224
f 224/224/224 226/226/226 227/227/227
f 227/227/227 226/226/226 228/228/228
f 228/228/228 226/226/226 186/186/186
f 226/226/226 187/187/187 186/186/186
f 158/158/158 194/194/194 157/157/157
f 200/200/200 199/199/199 207/207/207
f 207/207/207 199/199/199 198/198/198
f 209/209/209 210/210/210 211/211/211
f 217/217/217 221/221/221 218/218/218
f 227/227/227 222/222/222 224/224/224
f 186/186/186 185/185/185 228/228/228
f 228/228/228 185/185/185 229/229/229
f 185/185/185 230/230/230 229/229/229
f 229/229/229 230/230/230 231/231/231
f 230/230/230 17/17/17 231/231/231
f 17/17/17 19/19/19 231/231/231
f 19/19/19 232/232/232 231/231/231
f 231/231/231 232/232/232 233/233/233
f 232/232/232 234/234/234 233/233/233
f 233/233/233 234/234/234 229/229/229
f 229/229/229 234/234/234 228/228/228
f 228/228/228 234/234/234 227/227/227
f 234/234/234 235/235/235 227/227/227
f 227/227/227 235/235/235 222/222/222
f 235/235/235 236/236/236 222/222/222
f 222/222/222 236/236/236 220/220/220
f 220/220/220 236/236/236 237/237/237
f 237/237/237 236/236/236 204/204/204
f 204/204/204 236/236/236 203/203/203
f 236/236/236 238/238/238 203/203/203
f 203/203/203 238/238/238 239/239/239
f 238/238/238 240/240/240 239/239/239
f 185/185/185 241/241/241 230/230/230
f 231/231/231 233/233/233 229/229/229
f 235/235/235 234/234/234 236/236/236
f 236/236/236 234/234/234 238/238/238
f 234/234/234 232/232/232 238/238/238
f 239/239/239 242/242/242 203/203/203
f 243/243/243 245/245/245 244/244/244
f 244/244/244 245/245/245 246/246/246
f 247/247/247 249/249/249 248/248/248
f 248/248/248 249/249/249 250/250/250
f 217/217/217 216/216/216 251/251/251
f 216/216/216 215/215/215 251/251/251
f 251/251/251 215/215/215 252/252/252
f 215/215/215 214/214/214 252/252/252
f 214/214/214 253/253/253 252/252/252
f 253/253/253 254/254/254 252/252/252
f 252/252/252 254/254/254 255/255/255
f 255/255/255 254/254/254 256/256/256
f 254/254/254 257/257/257 256/256/256
f 256/256/256 257/257/257 258/258/258
f 258/258/258 257/257/257 259/259/259
f 257/257/257 260/260/260 259/259/259
f 259/259/259 260/260/260 261/261/261
f 260/260/260 262/262/262 261/261/261
f 261/261/261 262/262/262 226/226/226
f 226/226/226 262/262/262 187/187/187
f 187/187/187 262/262/262 188/188/188
f 262/262/262 263/263/263 188/188/188
f 263/263/263 264/264/264 188/188/188
f 188/188/188 264/264/264 189/189/189
f 189/189/189 264/264/264 190/190/190
f 190/190/190 264/264/264 191/191/191
f 264/264/264 265/265/265 191/191/191
f 191/191/191 265/265/265 266/266/266
f 266/266/266 265/265/265 267/267/267
f 267/267/267 265/265/265 214/214/214
f 214/214/214 265/265/265 268/268/268
f 265/265/265 264/264/264 268/268/268
f 264/264/264 263/263/263 268/268/268
f 263/263/263 262/262/262 268/268/268
f 268/268/268 262/262/262 269/269/269
f 262/262/262 260/260/260 269/269/269
f 269/269/269 260/260/260 254/254/254
f 260/260/260 257/257/257 254/254/254
f 191/191/191 266/266/266 192/192/192
f 266/266/266 193/193/193 192/192/192
f 269/269/269 254/254/254 268/268/268
f 254/254/254 253/253/253 268/268/268
f 268/268/268 253/253/253 214/214/214
f 270/270/270 272/272/272 271/271/271

