# Exported by Sketchfab Model Ripper robust edition
o model_1
v -0.1479800045490265 0.003518563462421298 0.03759000077843666
v -0.0859641283750534 0.003518563462421298 0.03759000077843666
v -0.1479800045490265 0.003518563462421298 0.16152706742286682
v -0.0859641283750534 0.003518563462421298 0.16152706742286682
v 0.10595998913049698 -0.00430000014603138 0.049451760947704315
v 0.08407939225435257 -0.00430000014603138 0.049451760947704315
v 0.10595998913049698 -0.00430000014603138 0.04297059401869774
v 0.08407939225435257 -0.00430000014603138 0.04297059401869774
v 0.072951540350914 -0.00430000014603138 0.04345973581075668
v 0.072951540350914 -0.00430000014603138 0.05464892461895943
v 0.06507452577352524 -0.00430000014603138 0.04345973581075668
v 0.06507452577352524 -0.00430000014603138 0.05464892461895943
v 0.09558233618736267 -0.00430000014603138 0.0684061199426651
v 0.09558233618736267 -0.00430000014603138 0.07953416556119919
v 0.08783034980297089 -0.00430000014603138 0.0684061199426651
v 0.08783034980297089 -0.00430000014603138 0.07953416556119919
v 0.10796050727367401 -0.00430000014603138 0.09463651478290558
v 0.10796050727367401 -0.00430000014603138 0.10576455295085907
v 0.10020852088928223 -0.00430000014603138 0.09463651478290558
v 0.10020852088928223 -0.00430000014603138 0.10576455295085907
v 0.101458840072155 -0.00430000014603138 0.1268589198589325
v 0.101458840072155 -0.00430000014603138 0.13798697292804718
v 0.09370685368776321 -0.00430000014603138 0.1268589198589325
v 0.09370685368776321 -0.00430000014603138 0.13798697292804718
v 0.04706991836428642 -0.00430000014603138 0.15162187814712524
v 0.04706991836428642 -0.00430000014603138 0.16274993121623993
v 0.03919290378689766 -0.00430000014603138 0.15162187814712524
v 0.03919290378689766 -0.00430000014603138 0.16274993121623993
v -0.0859641283750534 0.004299999680370092 0.16152706742286682
v -0.0859641283750534 0.004299999680370092 0.03759000077843666
v -0.1479800045490265 0.004299999680370092 0.16152706742286682
v -0.1479800045490265 0.004299999680370092 0.03759000077843666
v 0.06507452577352524 -0.003430337179452181 0.05464892461895943
v 0.072951540350914 -0.003430337179452181 0.05464892461895943
v 0.06507452577352524 -0.003430337179452181 0.04345973581075668
v 0.072951540350914 -0.003430337179452181 0.04345973581075668
v 0.08783034980297089 -0.003430337179452181 0.07953416556119919
v 0.09558233618736267 -0.003430337179452181 0.07953416556119919
v 0.08783034980297089 -0.003430337179452181 0.0684061199426651
v 0.09558233618736267 -0.003430337179452181 0.0684061199426651
v 0.10020852088928223 -0.003430337179452181 0.10576455295085907
v 0.10796050727367401 -0.003430337179452181 0.10576455295085907
v 0.10020852088928223 -0.003430337179452181 0.09463651478290558
v 0.10796050727367401 -0.003430337179452181 0.09463651478290558
v 0.09370685368776321 -0.003430337179452181 0.13798697292804718
v 0.101458840072155 -0.003430337179452181 0.13798697292804718
v 0.09370685368776321 -0.003430337179452181 0.1268589198589325
v 0.101458840072155 -0.003430337179452181 0.1268589198589325
v 0.03919290378689766 -0.003430337179452181 0.16274993121623993
v 0.04706991836428642 -0.003430337179452181 0.16274993121623993
v 0.03919290378689766 -0.003430337179452181 0.15162187814712524
v 0.04706991836428642 -0.003430337179452181 0.15162187814712524
v 0.09745781868696213 -0.00430000014603138 0.04951290413737297
v 0.09745781868696213 -0.00430000014603138 0.055994074791669846
v 0.08420442044734955 -0.00430000014603138 0.04951290413737297
v 0.08420442044734955 -0.00430000014603138 0.055994074791669846
v 0.09245653450489044 -0.003430337179452181 0.04951290413737297
v 0.09245653450489044 -0.003430337179452181 0.055994074791669846
v 0.1058349609375 -0.003430337179452181 0.04951290413737297
v 0.1058349609375 -0.003430337179452181 0.055994074791669846
v 0.08407939225435257 -0.003430337179452181 0.049451760947704315
v 0.10595998913049698 -0.003430337179452181 0.049451760947704315
v 0.08407939225435257 -0.003430337179452181 0.04297059401869774
v 0.10595998913049698 -0.003430337179452181 0.04297059401869774
vn 3.097898456858039e-13 -0.999997615814209 0.002184694167226553
vn 3.097898456858039e-13 -0.999997615814209 0.002184694167226553
vn 3.097898456858039e-13 -0.999997615814209 0.002184694167226553
vn 3.097898456858039e-13 -0.999997615814209 0.002184694167226553
vn 3.097898456858039e-13 -0.999997615814209 0.002184694167226553
vn 3.097898456858039e-13 -0.999997615814209 0.002184694167226553
vn 3.097898456858039e-13 -0.999997615814209 0.002184694167226553
vn 3.097898456858039e-13 -0.999997615814209 0.002184694167226553
vn 3.097898456858039e-13 -0.999997615814209 0.002184694167226553
vn 3.097898456858039e-13 -0.999997615814209 0.002184694167226553
vn 3.097898456858039e-13 -0.999997615814209 0.002184694167226553
vn 3.097898456858039e-13 -0.999997615814209 0.002184694167226553
vn 3.097898456858039e-13 -0.999997615814209 0.002184694167226553
vn 3.097898456858039e-13 -0.999997615814209 0.002184694167226553
vn 3.097898456858039e-13 -0.999997615814209 0.002184694167226553
vn 3.097898456858039e-13 -0.999997615814209 0.002184694167226553
vn 3.097898456858039e-13 -0.999997615814209 0.002184694167226553
vn 3.097898456858039e-13 -0.999997615814209 0.002184694167226553
vn 3.097898456858039e-13 -0.999997615814209 0.002184694167226553
vn 3.097898456858039e-13 -0.999997615814209 0.002184694167226553
vn 3.097898456858039e-13 -0.999997615814209 0.002184694167226553
vn 3.097898456858039e-13 -0.999997615814209 0.002184694167226553
vn 3.097898456858039e-13 -0.999997615814209 0.002184694167226553
vn 3.097898456858039e-13 -0.999997615814209 0.002184694167226553
vn 3.097898456858039e-13 -0.999997615814209 0.002184694167226553
vn 3.097898456858039e-13 -0.999997615814209 0.002184694167226553
vn 3.097898456858039e-13 -0.999997615814209 0.002184694167226553
vn 3.097898456858039e-13 -0.999997615814209 0.002184694167226553
vn -1.0341130485562108e-13 0.999997615814209 0.002184694167226553
vn -1.0341130485562108e-13 0.999997615814209 0.002184694167226553
vn -1.0341130485562108e-13 0.999997615814209 0.002184694167226553
vn -1.0341130485562108e-13 0.999997615814209 0.002184694167226553
vn -1.0341130485562108e-13 0.999997615814209 0.002184694167226553
vn -1.0341130485562108e-13 0.999997615814209 0.002184694167226553
vn -1.0341130485562108e-13 0.999997615814209 0.002184694167226553
vn -1.0341130485562108e-13 0.999997615814209 0.002184694167226553
vn -1.0341130485562108e-13 0.999997615814209 0.002184694167226553
vn -1.0341130485562108e-13 0.999997615814209 0.002184694167226553
vn -1.0341130485562108e-13 0.999997615814209 0.002184694167226553
vn -1.0341130485562108e-13 0.999997615814209 0.002184694167226553
vn -1.0341130485562108e-13 0.999997615814209 0.002184694167226553
vn -1.0341130485562108e-13 0.999997615814209 0.002184694167226553
vn -1.0341130485562108e-13 0.999997615814209 0.002184694167226553
vn -1.0341130485562108e-13 0.999997615814209 0.002184694167226553
vn -1.0341130485562108e-13 0.999997615814209 0.002184694167226553
vn -1.0341130485562108e-13 0.999997615814209 0.002184694167226553
vn -1.0341130485562108e-13 0.999997615814209 0.002184694167226553
vn -1.0341130485562108e-13 0.999997615814209 0.002184694167226553
vn -1.0341130485562108e-13 0.999997615814209 0.002184694167226553
vn -1.0341130485562108e-13 0.999997615814209 0.002184694167226553
vn -1.0341130485562108e-13 0.999997615814209 0.002184694167226553
vn -1.0341130485562108e-13 0.999997615814209 0.002184694167226553
vn 3.097898456858039e-13 -0.999997615814209 0.002184694167226553
vn 3.097898456858039e-13 -0.999997615814209 0.002184694167226553
vn 3.097898456858039e-13 -0.999997615814209 0.002184694167226553
vn 3.097898456858039e-13 -0.999997615814209 0.002184694167226553
vn -1.0341130485562108e-13 0.999997615814209 0.002184694167226553
vn -1.0341130485562108e-13 0.999997615814209 0.002184694167226553
vn -1.0341130485562108e-13 0.999997615814209 0.002184694167226553
vn -1.0341130485562108e-13 0.999997615814209 0.002184694167226553
vn -1.0341130485562108e-13 0.999997615814209 0.002184694167226553
vn -1.0341130485562108e-13 0.999997615814209 0.002184694167226553
vn -1.0341130485562108e-13 0.999997615814209 0.002184694167226553
vn -1.0341130485562108e-13 0.999997615814209 0.002184694167226553
vt 0.4903930425643921 0.08936253190040588
vt 0.9417091608047485 0.08936253190040588
vt 0.4903930425643921 0.9918766021728516
vt 0.9417091608047485 0.9918766021728516
vt 0.9806303381919861 0.0767391175031662
vt 0.7487956285476685 0.0767391175031662
vt 0.9806303381919861 0.0071299998089671135
vt 0.7487956285476685 0.0071299998089671135
vt 0.5817731618881226 0.0204747524112463
vt 0.5817731618881226 0.06688082963228226
vt 0.549282431602478 0.0204747524112463
vt 0.549282431602478 0.06688082963228226
vt 0.5181455016136169 0.0204747524112463
vt 0.5181455016136169 0.06688082963228226
vt 0.4856548309326172 0.0204747524112463
vt 0.4856548309326172 0.06688082963228226
vt 0.45494094491004944 0.0204747524112463
vt 0.45494094491004944 0.06688082963228226
vt 0.4224502444267273 0.0204747524112463
vt 0.4224502444267273 0.06688082963228226
vt 0.38293683528900146 0.0204747524112463
vt 0.38293683528900146 0.06688082963228226
vt 0.3504461348056793 0.0204747524112463
vt 0.3504461348056793 0.06688082963228226
vt 0.32007071375846863 0.0204747524112463
vt 0.32007071375846863 0.06688082963228226
vt 0.2875800132751465 0.0204747524112463
vt 0.2875800132751465 0.06688082963228226
vt 0.4903930425643921 0.9918766021728516
vt 0.4903930425643921 0.08936253190040588
vt 0.9417091608047485 0.9918766021728516
vt 0.9417091608047485 0.08936253190040588
vt 0.5817731618881226 0.06688082963228226
vt 0.549282431602478 0.06688082963228226
vt 0.5817731618881226 0.0204747524112463
vt 0.549282431602478 0.0204747524112463
vt 0.5181455016136169 0.06688082963228226
vt 0.4856548309326172 0.06688082963228226
vt 0.5181455016136169 0.0204747524112463
vt 0.4856548309326172 0.0204747524112463
vt 0.45494094491004944 0.06688082963228226
vt 0.4224502444267273 0.06688082963228226
vt 0.45494094491004944 0.0204747524112463
vt 0.4224502444267273 0.0204747524112463
vt 0.38293683528900146 0.06688082963228226
vt 0.3504461348056793 0.06688082963228226
vt 0.38293683528900146 0.0204747524112463
vt 0.3504461348056793 0.0204747524112463
vt 0.32007071375846863 0.06688082963228226
vt 0.2875800132751465 0.06688082963228226
vt 0.32007071375846863 0.0204747524112463
vt 0.2875800132751465 0.0204747524112463
vt 0.7487956285476685 0.0071299998089671135
vt 0.7487956285476685 0.0767391175031662
vt 0.6073257327079773 0.0071299998089671135
vt 0.6073257327079773 0.0767391175031662
vt 0.7487956285476685 0.0071299998089671135
vt 0.7487956285476685 0.0767391175031662
vt 0.6073257327079773 0.0071299998089671135
vt 0.6073257327079773 0.0767391175031662
vt 0.9806303381919861 0.0767391175031662
vt 0.7487956285476685 0.0767391175031662
vt 0.9806303381919861 0.0071299998089671135
vt 0.7487956285476685 0.0071299998089671135
s on
f 1/1/1 2/2/2 3/3/3
f 2/2/2 4/4/4 3/3/3
f 5/5/5 6/6/6 7/7/7
f 6/6/6 8/8/8 7/7/7
f 9/9/9 10/10/10 11/11/11
f 10/10/10 12/12/12 11/11/11
f 13/13/13 14/14/14 15/15/15
f 14/14/14 16/16/16 15/15/15
f 17/17/17 18/18/18 19/19/19
f 18/18/18 20/20/20 19/19/19
f 21/21/21 22/22/22 23/23/23
f 22/22/22 24/24/24 23/23/23
f 25/25/25 26/26/26 27/27/27
f 26/26/26 28/28/28 27/27/27
f 29/29/29 30/30/30 31/31/31
f 30/30/30 32/32/32 31/31/31
f 33/33/33 34/34/34 35/35/35
f 34/34/34 36/36/36 35/35/35
f 37/37/37 38/38/38 39/39/39
f 38/38/38 40/40/40 39/39/39
f 41/41/41 42/42/42 43/43/43
f 42/42/42 44/44/44 43/43/43
f 45/45/45 46/46/46 47/47/47
f 46/46/46 48/48/48 47/47/47
f 49/49/49 50/50/50 51/51/51
f 50/50/50 52/52/52 51/51/51
f 53/53/53 54/54/54 55/55/55
f 54/54/54 56/56/56 55/55/55
f 57/57/57 58/58/58 59/59/59
f 58/58/58 60/60/60 59/59/59
f 61/61/61 62/62/62 63/63/63
f 62/62/62 64/64/64 63/63/63

