# Exported by Sketchfab Model Ripper robust edition
o model_15
v 0.05081411823630333 0.12494886666536331 0.47586143016815186
v 0.05081411451101303 -0.32024097442626953 0.47586140036582947
v 0.05081405118107796 -0.32024091482162476 0.7901498079299927
v 0.05081411823630333 0.12494886666536331 0.47586143016815186
v 0.05081405118107796 0.1249489113688469 0.7901498675346375
v 0.05081405118107796 -0.32024091482162476 0.7901498079299927
v 0.09521199017763138 0.12494885921478271 0.47586143016815186
v 0.095211923122406 0.1249489039182663 0.7901498675346375
v 0.09521199017763138 -0.32024097442626953 0.47586140036582947
v 0.095211923122406 -0.32024091482162476 0.7901498079299927
v 0.05081411823630333 0.12494886666536331 0.47586143016815186
v 0.05081405118107796 0.1249489113688469 0.7901498675346375
v 0.09521199017763138 0.12494885921478271 0.47586143016815186
v 0.095211923122406 0.1249489039182663 0.7901498675346375
v 0.09521199017763138 -0.32024097442626953 0.47586140036582947
v 0.095211923122406 -0.32024091482162476 0.7901498079299927
v 0.05081411451101303 -0.32024097442626953 0.47586140036582947
v 0.05081405118107796 -0.32024091482162476 0.7901498079299927
v 0.05081411823630333 0.12494886666536331 0.47586143016815186
v 0.09521199017763138 0.12494885921478271 0.47586143016815186
v 0.05081411451101303 -0.32024097442626953 0.47586140036582947
v 0.09521199017763138 -0.32024097442626953 0.47586140036582947
v 0.095211923122406 0.1249489039182663 0.7901498675346375
v 0.05081405118107796 0.1249489113688469 0.7901498675346375
v 0.095211923122406 -0.32024091482162476 0.7901498079299927
v 0.05081405118107796 -0.32024091482162476 0.7901498079299927
vn -118.81905364990234 7.17777709269285e-7 -0.000024464250600431114
vn -118.81905364990234 7.17777709269285e-7 -0.000024464250600431114
vn -118.81905364990234 7.17777709269285e-7 -0.000024464250600431114
vn -118.81905364990234 7.17777709269285e-7 -0.000024464250600431114
vn -118.81905364990234 7.17777709269285e-7 -0.000024464250600431114
vn -118.81905364990234 7.17777709269285e-7 -0.000024464250600431114
vn 118.81905364990234 -7.178761620707519e-7 0.000024464250600431114
vn 118.81905364990234 -7.178761620707519e-7 0.000024464250600431114
vn 118.81905364990234 -7.178761620707519e-7 0.000024464250600431114
vn 118.81905364990234 -7.178761620707519e-7 0.000024464250600431114
vn 0.25964662432670593 476.068603515625 -0.00006648422277066857
vn 0.25964662432670593 476.068603515625 -0.00006648422277066857
vn 0.25964662432670593 476.068603515625 -0.00006648422277066857
vn 0.25964662432670593 476.068603515625 -0.00006648422277066857
vn 0.2595199644565582 -476.068603515625 0.00006659111386397853
vn 0.2595199644565582 -476.068603515625 0.00006659111386397853
vn 0.2595199644565582 -476.068603515625 0.00006659111386397853
vn 0.2595199644565582 -476.068603515625 0.00006659111386397853
vn 0.2595844566822052 0.0000012588243407662958 -16.784902572631836
vn 0.2595844566822052 0.0000012588243407662958 -16.784902572631836
vn 0.2595844566822052 0.0000012588243407662958 -16.784902572631836
vn 0.2595844566822052 0.0000012588243407662958 -16.784902572631836
vn 0.25958213210105896 -0.0000012618628488780814 16.784902572631836
vn 0.25958213210105896 -0.0000012618628488780814 16.784902572631836
vn 0.25958213210105896 -0.0000012618628488780814 16.784902572631836
vn 0.25958213210105896 -0.0000012618628488780814 16.784902572631836
vt 0.18582940101623535 0.01873890683054924
vt 0.1521623432636261 0.9557482004165649
vt 0.18523955345153809 0.9591661691665649
vt 0.0000026412299121147953 0.023743776604533195
vt 0.03067505918443203 0.03448593616485596
vt 0.004449234344065189 0.9999375939369202
vt 0.12938489019870758 0.01983753778040409
vt 0.07312187552452087 0.01825062744319439
vt 0.10683431476354599 0.9555040597915649
vt 0.0733487457036972 0.9584337472915649
vt 0.0000026412299121147953 0.023743776604533195
vt 0.03067505918443203 0.03448593616485596
vt 0.036482855677604675 0.00006219740316737443
vt 0.07062634080648422 0.021912727504968643
vt 0.10279607772827148 0.9619737863540649
vt 0.07230515778064728 0.9619737863540649
vt 0.10279607772827148 0.9924913048744202
vt 0.07230515778064728 0.9924913048744202
vt 0.18582940101623535 0.01873890683054924
vt 0.12938489019870758 0.01983753778040409
vt 0.1521623432636261 0.9557482004165649
vt 0.10683431476354599 0.9555040597915649
vt 0.07062634080648422 0.021912727504968643
vt 0.03067505918443203 0.03448593616485596
vt 0.06942394375801086 0.9856553673744202
vt 0.004449234344065189 0.9999375939369202
s on
f 1/1/1 2/2/2 3/3/3
f 4/4/4 6/6/6 5/5/5
f 7/7/7 8/8/8 9/9/9
f 8/8/8 10/10/10 9/9/9
f 11/11/11 12/12/12 13/13/13
f 12/12/12 14/14/14 13/13/13
f 15/15/15 16/16/16 17/17/17
f 16/16/16 18/18/18 17/17/17
f 19/19/19 20/20/20 21/21/21
f 20/20/20 22/22/22 21/21/21
f 23/23/23 24/24/24 25/25/25
f 24/24/24 26/26/26 25/25/25

