# Exported by Sketchfab Model Ripper robust edition
o model_35
v -0.9848908185958862 -0.2805725932121277 0.44532597064971924
v 0.05182968080043793 -0.28057238459587097 0.44532597064971924
v -0.984890878200531 0.0624425932765007 0.445326030254364
v 0.05182961747050285 0.06244277581572533 0.445326030254364
vn 1.2492700450505989e-11 -0.00012543844059109688 1014.451904296875
vn 1.2492700450505989e-11 -0.00012543844059109688 1014.451904296875
vn 1.2492700450505989e-11 -0.00012543844059109688 1014.451904296875
vn 1.2492700450505989e-11 -0.00012543844059109688 1014.451904296875
vt 0 1.0000005960464478
vt 1.0000005960464478 1.0000005960464478
vt 0 0
vt 1.0000005960464478 0
s on
f 1/1/1 2/2/2 3/3/3
f 2/2/2 4/4/4 3/3/3

