# Exported by Sketchfab Model Ripper robust edition
o model_36
v -0.9831705689430237 0.058509908616542816 0.44336095452308655
v 0.07570997625589371 0.05851009488105774 0.44336095452308655
v -0.9831706881523132 0.7738972902297974 0.4433610439300537
v 0.07570984959602356 0.7738974690437317 0.4433610439300537
vn 1.2492840095745805e-11 -0.00012543852790258825 1014.451904296875
vn 1.2492840095745805e-11 -0.00012543852790258825 1014.451904296875
vn 1.2492840095745805e-11 -0.00012543852790258825 1014.451904296875
vn 1.2492840095745805e-11 -0.00012543852790258825 1014.451904296875
vt 0 1.0000005960464478
vt 1.0000005960464478 1.0000005960464478
vt 0 0
vt 1.0000005960464478 0
s on
f 1/1/1 2/2/2 3/3/3
f 2/2/2 4/4/4 3/3/3

