# Exported by Sketchfab Model Ripper robust edition
o model_20
v -0.2209276705980301 0.2340458184480667 0.4712359607219696
v -0.21692928671836853 0.23201099038124084 0.4734664261341095
v -0.21609924733638763 0.23268502950668335 0.47178545594215393
v -0.21163368225097656 0.23018182814121246 0.4719633162021637
v -0.21321022510528564 0.22888487577438354 0.4752192199230194
v -0.21843737363815308 0.23160341382026672 0.4747592806816101
v -0.21616384387016296 0.2281208485364914 0.4777035415172577
v -0.22038806974887848 0.23150120675563812 0.47537291049957275
v -0.2199699431657791 0.22793956100940704 0.4789556860923767
v -0.22243717312812805 0.23178471624851227 0.4752643406391144
v -0.22396032512187958 0.22844935953617096 0.4787261188030243
v -0.2242289036512375 0.23230542242527008 0.47443532943725586
v -0.22747370600700378 0.22947372496128082 0.47708141803741455
v -0.22546738386154175 0.23305851221084595 0.4729991555213928
v -0.22987598180770874 0.23095197975635529 0.47432583570480347
v -0.22592023015022278 0.23383957147598267 0.47125259041786194
v -0.23076319694519043 0.2325202077627182 0.4709039330482483
v -0.22551485896110535 0.23457564413547516 0.4694754481315613
v -0.22432982921600342 0.23515357077121735 0.4679645001888275
v -0.22997306287288666 0.2339412271976471 0.4674415588378906
v -0.2276487946510315 0.23500579595565796 0.46449995040893555
v -0.22256414592266083 0.23539689183235168 0.4669799208641052
v -0.22421522438526154 0.23547539114952087 0.46258190274238586
v -0.2205166071653366 0.23531782627105713 0.46673980355262756
v -0.22021833062171936 0.2353513240814209 0.4620656669139862
v -0.21855276823043823 0.23488710820674896 0.4672047793865204
v -0.21698646247386932 0.23425325751304626 0.46836352348327637
v -0.21614627540111542 0.2334490418434143 0.46997660398483276
v -0.2133682668209076 0.23327331244945526 0.4652731418609619
v -0.21168829500675201 0.23171599209308624 0.4684121310710907
v -0.21637749671936035 0.23454710841178894 0.4630032479763031
v -0.220039963722229 0.23411355912685394 0.45752856135368347
v -0.22577928006649017 0.23433983325958252 0.45826253294944763
v -0.23073846101760864 0.23365488648414612 0.4609775245189667
v -0.23408068716526031 0.23211459815502167 0.4652180075645447
v -0.2352001667022705 0.23007677495479584 0.47023674845695496
v -0.23392555117607117 0.22778339684009552 0.475152850151062
v -0.2304748296737671 0.2257053703069687 0.47912558913230896
v -0.22543074190616608 0.2241821438074112 0.48144909739494324
v -0.21968118846416473 0.22348015010356903 0.4817824959754944
v -0.21421104669570923 0.22374661266803741 0.48001033067703247
v -0.20998229086399078 0.22487321496009827 0.4764482378959656
v -0.20769791305065155 0.22668476402759552 0.4717252552509308
v -0.20778994262218475 0.22890998423099518 0.466659277677536
v -0.21019014716148376 0.23113521933555603 0.4621129035949707
v -0.21453236043453217 0.2329869568347931 0.4588988721370697
v -0.22002720832824707 0.2317141741514206 0.4532949924468994
v -0.22720091044902802 0.23200860619544983 0.4542355239391327
v -0.23342005908489227 0.23112532496452332 0.457658588886261
v -0.23759929835796356 0.22922858595848083 0.4629535675048828
v -0.23900863528251648 0.22662986814975739 0.46925270557403564
v -0.23741787672042847 0.22378170490264893 0.47538816928863525
v -0.23307771980762482 0.22118298709392548 0.48039302229881287
v -0.22676515579223633 0.2192862629890442 0.48332613706588745
v -0.2195548266172409 0.21840296685695648 0.48372605443000793
v -0.21271151304244995 0.21869739890098572 0.4815111756324768
v -0.20738892257213593 0.2201184183359146 0.4770285189151764
v -0.20454823970794678 0.22240568697452545 0.47111061215400696
v -0.20463743805885315 0.22522588074207306 0.46477070450782776
v -0.20766854286193848 0.22800590097904205 0.45907580852508545
v -0.21309538185596466 0.2302931547164917 0.4550190269947052
v -0.22012582421302795 0.22827507555484772 0.44965970516204834
v -0.22840242087841034 0.22859744727611542 0.45071494579315186
v -0.23557429015636444 0.22758400440216064 0.454660564661026
v -0.24038569629192352 0.22539283335208893 0.46077218651771545
v -0.2420206069946289 0.22238042950630188 0.46800005435943604
v -0.24017782509326935 0.21913082897663116 0.4751075506210327
v -0.23518194258213043 0.21611841022968292 0.4808427393436432
v -0.22790682315826416 0.2139272689819336 0.4842335283756256
v -0.21959280967712402 0.21291379630565643 0.48469308018684387
v -0.21170783042907715 0.21327638626098633 0.4821273684501648
v -0.20558442175388336 0.21488960087299347 0.4769645929336548
v -0.20228694379329681 0.217539444565773 0.47015315294265747
v -0.20238599181175232 0.2207842469215393 0.4628330171108246
v -0.20588858425617218 0.2239888608455658 0.45626184344291687
v -0.21215961873531342 0.22663868963718414 0.4516043961048126
v -0.22036512196063995 0.22391684353351593 0.4466809928417206
v -0.2293161004781723 0.2242964506149292 0.4478761851787567
v -0.23707471787929535 0.22318077087402344 0.4521283805370331
v -0.2422928810119629 0.22080832719802856 0.4587269425392151
v -0.24405254423618317 0.2175927758216858 0.4665871858596802
v -0.24206304550170898 0.21404264867305756 0.4742605984210968
v -0.23665766417980194 0.21080395579338074 0.48046162724494934
v -0.22877496480941772 0.2084144651889801 0.4841400682926178
v -0.21978870034217834 0.20729880034923553 0.4846228063106537
v -0.21124650537967682 0.20769543945789337 0.4818509817123413
v -0.20462778210639954 0.20947903394699097 0.476285845041275
v -0.20105406641960144 0.21232107281684875 0.46891239285469055
v -0.2011781632900238 0.21582622826099396 0.46098172664642334
v -0.2049504667520523 0.21927416324615479 0.45388418436050415
v -0.21174977719783783 0.22213323414325714 0.44881671667099
v -0.2207205891609192 0.21893301606178284 0.4446246922016144
v -0.22991372644901276 0.21928948163986206 0.4458281099796295
v -0.2378637194633484 0.21817992627620697 0.45019879937171936
v -0.24321413040161133 0.21572229266166687 0.45697253942489624
v -0.2450149655342102 0.2124045491218567 0.46501657366752625
v -0.24297136068344116 0.2087753266096115 0.4728986620903015
v -0.23743218183517456 0.20541739463806152 0.47927314043045044
v -0.22934888303279877 0.20299993455410004 0.4830400049686432
v -0.22013431787490845 0.20189037919044495 0.48354673385620117
v -0.21137264370918274 0.20226389169692993 0.4806791841983795
v -0.20456546545028687 0.20409859716892242 0.47498437762260437
v -0.2009086012840271 0.20704282820224762 0.4674176871776581
v -0.20104190707206726 0.210569828748703 0.4592801332473755
v -0.20490609109401703 0.2141370177268982 0.45199963450431824
v -0.21186691522598267 0.21708127856254578 0.4468231499195099
v -0.2131006419658661 0.21078385412693024 0.44574788212776184
v -0.22135694324970245 0.21296457946300507 0.44388347864151
v -0.2299637347459793 0.21342456340789795 0.4450356364250183
v -0.23745852708816528 0.21207866072654724 0.4490206241607666
v -0.24254480004310608 0.2091885209083557 0.4551856219768524
v -0.24430742859840393 0.20522506535053253 0.462434858083725
v -0.24246777594089508 0.2009269744157791 0.46953025460243225
v -0.23735493421554565 0.1969805508852005 0.47520264983177185
v -0.22980910539627075 0.19409041106700897 0.47852399945259094
v -0.22118137776851654 0.1927274614572525 0.4789086878299713
v -0.21295934915542603 0.19318746030330658 0.47627246379852295
v -0.20653849840164185 0.19534501433372498 0.4710577428340912
v -0.20305167138576508 0.19884847104549408 0.46420568227767944
v -0.20308172702789307 0.2030845284461975 0.4568946361541748
v -0.20663702487945557 0.20732058584690094 0.4503771960735321
v -0.20858262479305267 0.199508935213089 0.4480125308036804
v -0.21459095180034637 0.2028372436761856 0.443768709897995
v -0.22228242456912994 0.20492185652256012 0.44202709197998047
v -0.230308398604393 0.20534777641296387 0.4431067109107971
v -0.23729747533798218 0.20404686033725739 0.4468151330947876
v -0.24203704297542572 0.20128077268600464 0.45251861214637756
v -0.24369129538536072 0.1975095123052597 0.45924362540245056
v -0.24199256300926208 0.19339750707149506 0.46579551696777344
v -0.2372300624847412 0.1895860731601715 0.47105881571769714
v -0.2302188277244568 0.18681998550891876 0.4741170406341553
v -0.22217944264411926 0.18555927276611328 0.47445961833000183
v -0.2145097255706787 0.18598517775535583 0.4720059037208557
v -0.20851989090442657 0.18806980550289154 0.4671844244003296
v -0.2052534967660904 0.19139809906482697 0.4608527719974518
v -0.2052798867225647 0.1954248994588852 0.4540697932243347
v -0.20740032196044922 0.18788105249404907 0.45145905017852783
v -0.21050797402858734 0.1910957396030426 0.4456402361392975
v -0.21614402532577515 0.19378358125686646 0.4415475130081177
v -0.22329729795455933 0.19543352723121643 0.4398258924484253
v -0.23076768219470978 0.19578519463539124 0.4408213794231415
v -0.23723280429840088 0.19478745758533478 0.44432350993156433
v -0.2415834665298462 0.19254735112190247 0.44972822070121765
v -0.24309125542640686 0.18953099846839905 0.45616161823272705
v -0.24145878851413727 0.1862311065196991 0.46245795488357544
v -0.23697660863399506 0.18319159746170044 0.4674966335296631
v -0.23044642806053162 0.18097464740276337 0.4704982340335846
v -0.22297847270965576 0.17997689545154572 0.47086384892463684
v -0.21584852039813995 0.1802883744239807 0.46855539083480835
v -0.2103234976530075 0.1819785088300705 0.463996946811676
v -0.207318514585495 0.18462616205215454 0.45794180035591125
v -0.2090178281068802 0.17883983254432678 0.4560987651348114
v -0.21172788739204407 0.1774464100599289 0.46200650930404663
v -0.21682310104370117 0.17658674716949463 0.466423898935318
v -0.22341330349445343 0.17638975381851196 0.46858716011047363
v -0.23039385676383972 0.17692354321479797 0.46813127398490906
v -0.23652386665344238 0.17808109521865845 0.46513131260871887
v -0.240758016705513 0.1796715408563614 0.46010705828666687
v -0.24235612154006958 0.18143104016780853 0.45394328236579895
v -0.2410506010055542 0.18302147090435028 0.4476719796657562
v -0.23706652224063873 0.18417903780937195 0.4423952102661133
v -0.23107923567295074 0.18471282720565796 0.4390200674533844
v -0.22415602207183838 0.1845158189535141 0.4381412863731384
v -0.21745847165584564 0.18365615606307983 0.43990397453308105
v -0.21215280890464783 0.18226271867752075 0.4440073072910309
v -0.2091815322637558 0.18053118884563446 0.449728399515152
v -0.21022607386112213 0.1744934618473053 0.45563575625419617
v -0.2127309888601303 0.17517250776290894 0.46122124791145325
v -0.21744775772094727 0.17561818659305573 0.46538519859313965
v -0.2236046940088272 0.17569030821323395 0.46742069721221924
v -0.2300971895456314 0.1754569560289383 0.4669627845287323
v -0.23583413660526276 0.1748683750629425 0.4641083776950836
v -0.23980861902236938 0.17407704889774323 0.4593147039413452
v -0.24133141338825226 0.17324289679527283 0.4534413516521454
v -0.24013681709766388 0.17243452370166779 0.4475131928920746
v -0.23643827438354492 0.17186297476291656 0.4425056278705597
v -0.23087908327579498 0.17161260545253754 0.4393637776374817
v -0.22440391778945923 0.17168469727039337 0.43855565786361694
v -0.2181672602891922 0.17213039100170135 0.4402538537979126
v -0.21320201456546783 0.172809436917305 0.4441577196121216
v -0.21039420366287231 0.17363135516643524 0.4495910108089447
v -0.21123626828193665 0.16786453127861023 0.4568788707256317
v -0.21359309554100037 0.16989737749099731 0.46166497468948364
v -0.21793757379055023 0.1711599975824356 0.4652947187423706
v -0.22353416681289673 0.17139767110347748 0.4670931398868561
v -0.22941088676452637 0.17064446210861206 0.46678319573402405
v -0.2345525026321411 0.16898208856582642 0.4644261300563812
v -0.23808130621910095 0.16667136549949646 0.4604091942310333
v -0.23936918377876282 0.1641693115234375 0.4554419219493866
v -0.2382005900144577 0.16191580891609192 0.4503556787967682
v -0.23478510975837708 0.16021324694156647 0.4460550844669342
v -0.22970841825008392 0.15946003794670105 0.4432794153690338
v -0.2238408476114273 0.15968067944049835 0.4425261616706848
v -0.21820425987243652 0.1609603315591812 0.44387999176979065
v -0.21376243233680725 0.1629931926727295 0.4471355974674225
v -0.21130117774009705 0.16544896364212036 0.4517461359500885
v -0.21198388934135437 0.16015614569187164 0.4598199427127838
v -0.21414445340633392 0.16272325813770294 0.46373558044433594
v -0.21805353462696075 0.164349764585495 0.4667319059371948
v -0.22304490208625793 0.16469578444957733 0.4682949483394623
v -0.22823180258274078 0.16369794309139252 0.46816155314445496
v -0.23274922370910645 0.16154630482196808 0.46632757782936096
v -0.23577141761779785 0.15857595205307007 0.46315106749534607
v -0.23681123554706573 0.15538017451763153 0.4591405689716339
v -0.23567868769168854 0.15240982174873352 0.45502880215644836
v -0.2325538545846939 0.1502983719110489 0.45149168372154236
v -0.22800439596176147 0.14930054545402527 0.449166476726532
v -0.22280195355415344 0.1496063619852066 0.4484175443649292
v -0.21785596013069153 0.15123286843299866 0.4494205117225647
v -0.21401101350784302 0.15384016931056976 0.4520014524459839
v -0.2119237333536148 0.15698963403701782 0.45568349957466125
v -0.21239826083183289 0.15391303598880768 0.46353238821029663
v -0.21446958184242249 0.15701919794082642 0.46642178297042847
v -0.21802178025245667 0.15894626080989838 0.4687388241291046
v -0.22243733704090118 0.15932022035121918 0.47003868222236633
v -0.22696085274219513 0.15814109146595 0.47015127539634705
v -0.23082001507282257 0.1555696576833725 0.4689716696739197
v -0.2333422154188156 0.15210656821727753 0.4667814075946808
v -0.2340785413980484 0.14823541045188904 0.46394142508506775
v -0.2329118698835373 0.14473213255405426 0.46090349555015564
v -0.23004494607448578 0.1421838402748108 0.4582560658454895
v -0.22597652673721313 0.14098156988620758 0.4563882052898407
v -0.22140690684318542 0.14139573276042938 0.4556826055049896
v -0.21711547672748566 0.14328257739543915 0.4562167525291443
v -0.21385273337364197 0.1464289426803589 0.4579226076602936
v -0.21217767894268036 0.150162473320961 0.4605286717414856
v -0.2125381976366043 0.15208829939365387 0.46521976590156555
v -0.2146349400281906 0.1555059403181076 0.46741145849227905
v -0.21806742250919342 0.15764833986759186 0.46924805641174316
v -0.2222735434770584 0.15807342529296875 0.470413476228714
v -0.22650210559368134 0.1567409783601761 0.47072145342826843
v -0.23002146184444427 0.15390916168689728 0.47008153796195984
v -0.23224927484989166 0.1500433087348938 0.46859845519065857
v -0.2327663004398346 0.1457986980676651 0.4666042625904083
v -0.23151084780693054 0.14193281531333923 0.4643370509147644
v -0.2286931723356247 0.1391010284423828 0.4622706174850464
v -0.2247801125049591 0.13776858150959015 0.46074578166007996
v -0.22046689689159393 0.13819365203380585 0.4599934220314026
v -0.21651315689086914 0.1403360664844513 0.4601672887802124
v -0.21356964111328125 0.14379388093948364 0.46124157309532166
v -0.21217259764671326 0.14794109761714935 0.4630322754383087
v -0.21273882687091827 0.15126310288906097 0.4663303792476654
v -0.21498438715934753 0.1550358682870865 0.46743419766426086
v -0.21841973066329956 0.157335102558136 0.4685744643211365
v -0.22244872152805328 0.15778812766075134 0.4695664644241333
v -0.22636929154396057 0.1563718020915985 0.47020581364631653
v -0.22950981557369232 0.1532871127128601 0.4704274833202362
v -0.23133069276809692 0.14910146594047546 0.4701713025569916
v -0.23151469230651855 0.14446285367012024 0.4694615602493286
v -0.2300201654434204 0.14027723670005798 0.4684590697288513
v -0.22711743414402008 0.1371925324201584 0.4673202633857727
v -0.22330890595912933 0.13575918972492218 0.4662488102912903
v -0.21924537420272827 0.1362292468547821 0.46538999676704407
v -0.21563024818897247 0.1385284662246704 0.46494314074516296
v -0.2130957692861557 0.14226104319095612 0.4649536609649658
v -0.21207796037197113 0.14676207304000854 0.46545305848121643
v -0.21296045184135437 0.1511416733264923 0.4672743082046509
v -0.2154110074043274 0.15464967489242554 0.46707355976104736
v -0.2188829779624939 0.15678416192531586 0.467387318611145
v -0.22274622321128845 0.15724201500415802 0.4681621193885803
v -0.2263515293598175 0.15592575073242188 0.46924644708633423
v -0.2290739119052887 0.15304726362228394 0.4704812467098236
v -0.23044012486934662 0.14908145368099213 0.4716360867023468
v -0.23020799458026886 0.14475519955158234 0.47253134846687317
v -0.22842244803905487 0.14082956314086914 0.4729939103126526
v -0.22539955377578735 0.13791091740131378 0.47291815280914307
v -0.22165349125862122 0.13657762110233307 0.47237667441368103
v -0.21783673763275146 0.13703542947769165 0.47142264246940613
v -0.21458975970745087 0.13921013474464417 0.47024106979370117
v -0.2125120759010315 0.1426779329776764 0.46900370717048645
v -0.21193677186965942 0.14692990481853485 0.4679676592350006
v -0.21299149096012115 0.15182194113731384 0.4692103862762451
v -0.2154776155948639 0.15481092035770416 0.46835848689079285
v -0.21883605420589447 0.15662255883216858 0.46825358271598816
v -0.22249537706375122 0.15699388086795807 0.46887263655662537
v -0.22582568228244781 0.15587377548217773 0.4701610803604126
v -0.22824563086032867 0.1534278243780136 0.4718770980834961
v -0.22932566702365875 0.15008454024791718 0.4737074077129364
v -0.2289009392261505 0.14640402793884277 0.47534552216529846
v -0.2270432710647583 0.14306075870990753 0.4765145480632782
v -0.22404946386814117 0.14061477780342102 0.4770118296146393
v -0.22045519948005676 0.13949468731880188 0.4767414629459381
v -0.21688905358314514 0.1398489773273468 0.4757630527019501
v -0.21395954489707947 0.14167767763137817 0.474213570356369
v -0.21215789020061493 0.14464960992336273 0.47242555022239685
v -0.21182139217853546 0.1482156664133072 0.47063976526260376
v -0.21288615465164185 0.15590110421180725 0.47475600242614746
v -0.21508821845054626 0.1580582857131958 0.4736291766166687
v -0.21797522902488708 0.15939374268054962 0.47328683733940125
v -0.22109030187129974 0.15966764092445374 0.47377797961235046
v -0.22383162379264832 0.158845916390419 0.47502535581588745
v -0.22578997910022736 0.15705394744873047 0.4768086373806
v -0.22658619284629822 0.15463991463184357 0.47879141569137573
v -0.22610002756118774 0.15196897089481354 0.48066648840904236
v -0.22441305220127106 0.14953787624835968 0.4821193814277649
v -0.22180409729480743 0.1477629393339157 0.4828454256057739
v -0.21875397861003876 0.14694121479988098 0.4827890396118164
v -0.215741828083992 0.1472151279449463 0.4819009006023407
v -0.21334099769592285 0.1485505849123001 0.48036816716194153
v -0.21193388104438782 0.15070778131484985 0.4784288704395294
v -0.21178051829338074 0.15330442786216736 0.47645074129104614
v -0.21274028718471527 0.1617950052022934 0.48114320635795593
v -0.2144830971956253 0.16345548629760742 0.4802458882331848
v -0.216763436794281 0.1644938886165619 0.47993072867393494
v -0.21921798586845398 0.16469353437423706 0.48031413555145264
v -0.22138510644435883 0.16405440866947174 0.481292188167572
v -0.22292523086071014 0.16266784071922302 0.48271843791007996
v -0.22354696691036224 0.16079068183898926 0.4843462407588959
v -0.22315530478954315 0.15874797105789185 0.48585689067840576
v -0.22180458903312683 0.15687081217765808 0.4870406985282898
v -0.21974267065525055 0.15550124645233154 0.48762696981430054
v -0.2173282504081726 0.15484511852264404 0.48760274052619934
v -0.21495947241783142 0.1551019698381424 0.4868885278701782
v -0.21307794749736786 0.1561233401298523 0.48566552996635437
v -0.21196697652339935 0.15778383612632751 0.4841258227825165
v -0.21185214817523956 0.15976934134960175 0.4825129806995392
v -0.21248726546764374 0.16723109781742096 0.487601101398468
v -0.2137383669614792 0.16861900687217712 0.48705849051475525
v -0.21543671190738678 0.16946999728679657 0.48693227767944336
v -0.21724750101566315 0.16963554918766022 0.4872289299964905
v -0.21889081597328186 0.16909867525100708 0.4879145324230194
v -0.2200690656900406 0.1679506003856659 0.4888521134853363
v -0.22057437896728516 0.16639713943004608 0.4899010956287384
v -0.22032521665096283 0.164695143699646 0.4908621311187744
v -0.21936167776584625 0.16314169764518738 0.49158042669296265
v -0.21785403788089752 0.16199365258216858 0.4919133484363556
v -0.21605604887008667 0.16145673394203186 0.49182429909706116
v -0.2142954021692276 0.1616624891757965 0.4913342297077179
v -0.21284621953964233 0.16251349449157715 0.4904994070529938
v -0.2120031863451004 0.16386118531227112 0.48946818709373474
v -0.2118675261735916 0.16554614901542664 0.4884496033191681
v -0.21177983283996582 0.16619186103343964 0.4892160892486572
v -0.2119183987379074 0.1645641326904297 0.4902234673500061
v -0.21275180578231812 0.16319327056407928 0.49120622873306274
v -0.21414095163345337 0.1623995155096054 0.49201563000679016
v -0.2158805876970291 0.16219374537467957 0.49250102043151855
v -0.21762949228286743 0.16271360218524933 0.49260810017585754
v -0.21909940242767334 0.16382147371768951 0.49224942922592163
v -0.22002768516540527 0.165340855717659 0.49158135056495667
v -0.22026973962783813 0.16702581942081451 0.4906477928161621
v -0.2197824865579605 0.16852204501628876 0.4896147847175598
v -0.21864621341228485 0.16967010498046875 0.4886866509914398
v -0.2170419692993164 0.1701497733592987 0.4880216717720032
v -0.21525216102600098 0.16998420655727386 0.4877297282218933
v -0.21362388134002686 0.169150248169899 0.4878426790237427
v -0.21239666640758514 0.1678195744752884 0.4883788228034973
v -0.2119133323431015 0.1668144017457962 0.4899860620498657
v -0.21202707290649414 0.16527797281742096 0.490917831659317
v -0.2128104567527771 0.16403862833976746 0.4918365180492401
v -0.2141089290380478 0.16327893733978271 0.49256736040115356
v -0.2156974822282791 0.16311335563659668 0.4930359125137329
v -0.2173175811767578 0.16357600688934326 0.493125855922699
v -0.21868638694286346 0.16459256410598755 0.4928145110607147
v -0.21954171359539032 0.1660376936197281 0.49217090010643005
v -0.21976791322231293 0.16753391921520233 0.49129849672317505
v -0.21932224929332733 0.16897901892662048 0.4903620481491089
v -0.21825696527957916 0.16999560594558716 0.4895027279853821
v -0.21677148342132568 0.17045822739601135 0.4888935685157776
v -0.21513569355010986 0.17030969262123108 0.4886071979999542
v -0.21361523866653442 0.16953296959400177 0.48873254656791687
v -0.21246813237667084 0.16829361021518707 0.489216685295105
v -0.21227644383907318 0.1673334240913391 0.49072694778442383
v -0.21237832307815552 0.16601979732513428 0.49153319001197815
v -0.21306298673152924 0.16494600474834442 0.49231868982315063
v -0.2141784280538559 0.16430076956748962 0.4929845929145813
v -0.21556426584720612 0.16415223479270935 0.4933784604072571
v -0.2169644832611084 0.1645406186580658 0.4934598505496979
v -0.21814827620983124 0.16546586155891418 0.4931768476963043
v -0.21889379620552063 0.1666480153799057 0.49261417984962463
v -0.2190885841846466 0.16801884770393372 0.49186286330223083
v -0.21869675815105438 0.16924117505550385 0.49106138944625854
v -0.217779278755188 0.17010919749736786 0.4903172254562378
v -0.21650074422359467 0.17051461338996887 0.48976650834083557
v -0.21507056057453156 0.1704062819480896 0.4895436763763428
v -0.21375611424446106 0.1697208434343338 0.4896453320980072
v -0.21276210248470306 0.16864705085754395 0.4900529682636261
v -0.21283012628555298 0.16780613362789154 0.49141809344291687
v -0.21290627121925354 0.16673235595226288 0.4920666217803955
v -0.213432177901268 0.16588133573532104 0.49269357323646545
v -0.21434105932712555 0.1653444468975067 0.49321386218070984
v -0.21543604135513306 0.165253147482872 0.49353036284446716
v -0.2165534496307373 0.16556721925735474 0.4935890734195709
v -0.217497318983078 0.1662697046995163 0.49337488412857056
v -0.2181035876274109 0.16726922988891602 0.4929209053516388
v -0.21826249361038208 0.16830283403396606 0.4923080801963806
v -0.2179383784532547 0.16928531229496002 0.4916737377643585
v -0.2172035425901413 0.1699877828359604 0.49108168482780457
v -0.21618354320526123 0.17035911977291107 0.4906473159790039
v -0.21505135297775269 0.1702105849981308 0.4904743432998657
v -0.2139877825975418 0.16967368125915527 0.4905506372451782
v -0.21321271359920502 0.16882269084453583 0.4908846914768219
v -0.2135450541973114 0.16811193525791168 0.4920012354850769
v -0.21360839903354645 0.1674094796180725 0.49244219064712524
v -0.21398267149925232 0.16679830849170685 0.4928830564022064
v -0.214603990316391 0.16642698645591736 0.49322763085365295
v -0.21536323428153992 0.16633568704128265 0.4934685528278351
v -0.21615585684776306 0.16657553613185883 0.49349507689476013
v -0.21679262816905975 0.1670953780412674 0.4933518171310425
v -0.21722997725009918 0.1677406281232834 0.4930354654788971
v -0.21733739972114563 0.16850030422210693 0.49262112379074097
v -0.21709907054901123 0.16918572783470154 0.49216991662979126
v -0.21660694479942322 0.1696653962135315 0.49175527691841125
v -0.2158816158771515 0.1698882132768631 0.4914691746234894
v -0.21509520709514618 0.16981394588947296 0.4913330674171448
v -0.21437357366085052 0.16944259405136108 0.4913753867149353
v -0.21382033824920654 0.16887162625789642 0.4916246831417084
v -0.21441027522087097 0.16832514107227325 0.49243295192718506
v -0.2144327163696289 0.1679769605398178 0.49268901348114014
v -0.21462342143058777 0.16767989099025726 0.4928957521915436
v -0.2149500548839569 0.16745711863040924 0.4930920898914337
v -0.21534161269664764 0.16744007170200348 0.4932093322277069
v -0.21573646366596222 0.16753137111663818 0.4932281970977783
v -0.21607036888599396 0.16782844066619873 0.4931395649909973
v -0.21628548204898834 0.16814254224300385 0.49299514293670654
v -0.2163427621126175 0.1685309112071991 0.49277421832084656
v -0.21622925996780396 0.16886202991008759 0.49252673983573914
v -0.21596847474575043 0.16914206743240356 0.4923333525657654
v -0.21560794115066528 0.16923335194587708 0.4921821355819702
v -0.21520212292671204 0.1692163199186325 0.4921198785305023
v -0.2148224413394928 0.16901057958602905 0.4921281337738037
v -0.2145443707704544 0.16869647800922394 0.4922583997249603
v -0.21534861624240875 0.16841162741184235 0.4927540421485901
vn 141.98780822753906 1402.68798828125 613.980224609375
vn 439.94793701171875 1282.607177734375 802.25244140625
vn 496.2171630859375 1323.0018310546875 656.2903442382812
vn 836.3396606445312 1174.3751220703125 667.4700317382812
vn 718.1727294921875 1093.5609130859375 960.2877197265625
vn 324.0863952636719 1254.8857421875 920.4871215820312
vn 493.3436279296875 1048.98193359375 1172.179443359375
vn 176.03829956054688 1254.541015625 966.3468017578125
vn 208.4447479248047 1039.5487060546875 1277.8013916015625
vn 24.601621627807617 1266.2818603515625 962.2978515625
vn -94.71371459960938 1068.74560546875 1258.35693359375
vn -111.30502319335938 1299.1683349609375 889.0599975585938
vn -358.2088317871094 1132.6365966796875 1114.718505859375
vn -206.42514038085938 1344.882080078125 762.1105346679688
vn -535.8909301757812 1216.0540771484375 881.06396484375
vn -239.88897705078125 1392.1937255859375 613.4569091796875
vn -602.7022705078125 1311.0743408203125 584.2736206054688
vn -208.68377685546875 1437.178466796875 456.4824523925781
vn -119.51827239990234 1470.0809326171875 322.08599853515625
vn -545.7457885742188 1397.213623046875 281.638671875
vn -371.9302673339844 1460.6773681640625 26.900846481323242
vn 12.748169898986816 1484.574951171875 240.97654724121094
vn -109.97045135498047 1490.5357666015625 -136.6680450439453
vn 166.39402770996094 1479.4371337890625 219.98338317871094
vn 187.803466796875 1480.697509765625 -185.0963592529297
vn 317.79718017578125 1455.0618896484375 259.6321105957031
vn 429.3180847167969 1417.142333984375 359.1101379394531
vn 498.0906982421875 1368.6583251953125 500.8392333984375
vn 705.9632568359375 1357.1846923828125 88.30963897705078
vn 829.6826171875 1266.765380859375 363.4664611816406
vn 480.7719421386719 1433.1849365234375 -94.29814910888672
vn 202.8505096435547 1406.3836669921875 -581.1871948242188
vn -225.63914489746094 1420.97021484375 -516.6119995117188
vn -598.9671020507812 1381.2236328125 -270.9284973144531
vn -847.0562744140625 1291.098876953125 92.39188385009766
vn -937.707275390625 1163.80908203125 523.56591796875
vn -843.1312866210938 1030.702392578125 943.6929931640625
vn -576.8348999023438 907.5591430664062 1292.7738037109375
vn -200.8048553466797 812.983642578125 1497.7945556640625
vn 233.90940856933594 770.0889282226562 1524.8023681640625
vn 641.7471313476562 788.2575073242188 1368.4869384765625
vn 959.1807861328125 857.0404052734375 1060.0859375
vn 1129.2742919921875 966.7710571289062 652.0810546875
vn 1126.269287109375 1097.2452392578125 208.66671752929688
vn 942.8422241210938 1230.79736328125 -176.0908966064453
vn 616.3745727539062 1339.2645263671875 -462.7337951660156
vn 203.2544403076172 1265.4073486328125 -939.3222045898438
vn -331.77142333984375 1285.2598876953125 -854.3414916992188
vn -798.45556640625 1232.4981689453125 -560.8202514648438
vn -1113.379638671875 1118.13671875 -99.25479125976562
vn -1224.2896728515625 959.4825439453125 433.5312194824219
vn -1102.7716064453125 787.8387451171875 973.3407592773438
vn -774.8921508789062 634.2845458984375 1404.380126953125
vn -299.0770568847656 522.8027954101562 1657.5274658203125
vn 241.69886779785156 464.2534484863281 1693.1380615234375
vn 752.0733032226562 490.75439453125 1498.6502685546875
vn 1156.4356689453125 572.8911743164062 1109.398193359375
vn 1370.1142578125 709.210693359375 596.8264770507812
vn 1361.658935546875 875.2077026367188 49.29521179199219
vn 1136.541015625 1039.815185546875 -440.7567138671875
vn 728.2369384765625 1177.8587646484375 -792.7537841796875
vn 197.08334350585938 1057.7698974609375 -1258.095458984375
vn -423.8612365722656 1079.5989990234375 -1163.24658203125
vn -960.4132690429688 1019.9779663085938 -823.8551635742188
vn -1322.2021484375 890.7186889648438 -291.1688232421875
vn -1446.9183349609375 708.9490966796875 327.9344787597656
vn -1308.229248046875 514.8460693359375 944.0218505859375
vn -931.4596557617188 332.1702880859375 1444.5943603515625
vn -384.02154541015625 203.79638671875 1736.6021728515625
vn 237.59390258789062 143.49163818359375 1775.0806884765625
vn 830.2357177734375 156.30126953125 1554.5048828125
vn 1292.7843017578125 256.7609558105469 1107.0025634765625
vn 1538.18310546875 421.0110778808594 514.1145629882812
vn 1529.1051025390625 610.7420654296875 -115.20819854736328
vn 1268.9295654296875 800.2179565429688 -681.9679565429688
vn 797.7925415039062 955.5377197265625 -1091.8582763671875
vn 183.68746948242188 800.4469604492188 -1510.0377197265625
vn -493.9902648925781 824.025146484375 -1408.057373046875
vn -1077.0455322265625 751.14501953125 -1045.77685546875
vn -1467.2476806640625 610.4112548828125 -476.79034423828125
vn -1599.7801513671875 419.3365783691406 209.10304260253906
vn -1449.954833984375 202.44151306152344 874.6596069335938
vn -1041.9534912109375 13.015401840209961 1412.4591064453125
vn -452.73175048828125 -131.91957092285156 1727.5604248046875
vn 221.5451202392578 -194.09158325195312 1770.5062255859375
vn 867.5272827148438 -176.28700256347656 1527.727294921875
vn 1362.1414794921875 -64.60095977783203 1050.0863037109375
vn 1630.6461181640625 101.01935577392578 410.4109802246094
vn 1623.0123291015625 308.5371398925781 -272.26068115234375
vn 1337.9659423828125 520.7958984375 -889.7379760742188
vn 826.29638671875 690.5994262695312 -1330.25390625
vn 149.58181762695312 493.42706298828125 -1693.462890625
vn -534.4993896484375 522.5404052734375 -1588.0076904296875
vn -1134.13916015625 452.03338623046875 -1211.910400390625
vn -1536.7919921875 306.677734375 -624.150390625
vn -1672.41796875 113.86381530761719 74.37138366699219
vn -1519.0662841796875 -108.57244110107422 755.592529296875
vn -1102.304443359375 -311.9815979003906 1305.937744140625
vn -494.02880859375 -457.33294677734375 1631.598876953125
vn 199.9864044189453 -522.5404052734375 1674.73779296875
vn 853.4779663085938 -493.42706298828125 1433.396728515625
vn 1365.63232421875 -385.3159484863281 939.6954956054688
vn 1640.922607421875 -211.286376953125 282.6835632324219
vn 1631.7647705078125 0.000019933590010623448 -423.0722351074219
vn 1339.68603515625 211.2864227294922 -1055.474365234375
vn 815.2677612304688 385.31597900390625 -1505.1436767578125
vn 826.9376831054688 489.1335754394531 -1453.30322265625
vn 164.8195343017578 628.4959716796875 -1625.773681640625
vn -519.1709594726562 657.4483032226562 -1519.91552734375
vn -1119.9725341796875 576.62451171875 -1148.979248046875
vn -1527.3629150390625 389.87225341796875 -582.264404296875
vn -1670.0418701171875 134.6367645263672 84.92631530761719
vn -1522.62939453125 -139.72329711914062 739.7645263671875
vn -1111.8739013671875 -394.9442138671875 1263.4278564453125
vn -507.01580810546875 -571.5498046875 1573.90771484375
vn 184.6580047607422 -657.4483032226562 1606.6456298828125
vn 838.2402954101562 -628.4959716796875 1365.70751953125
vn 1353.96240234375 -489.133544921875 887.8551025390625
vn 1633.8453369140625 -273.3230285644531 251.24501037597656
vn 1631.7647705078125 0.000019933590010623448 -423.0722351074219
vn 1346.7633056640625 273.32305908203125 -1024.0357666015625
vn 1346.7633056640625 273.32305908203125 -1024.0357666015625
vn 829.6004638671875 509.32806396484375 -1441.4744873046875
vn 167.48597717285156 648.7180786132812 -1613.9288330078125
vn -516.5048828125 677.6680297851562 -1508.072021484375
vn -1118.6385498046875 586.7410888671875 -1143.0535888671875
vn -1526.0274658203125 399.999755859375 -576.3323364257812
vn -1668.70654296875 144.763671875 90.85804748535156
vn -1522.62939453125 -139.72329711914062 739.7645263671875
vn -1113.2264404296875 -405.03887939453125 1257.4197998046875
vn -509.6836853027344 -591.7826538085938 1562.0565185546875
vn 181.99188232421875 -677.6680297851562 1594.80224609375
vn 835.5738525390625 -648.718017578125 1353.8626708984375
vn 1351.2996826171875 -509.3280334472656 876.0263671875
vn 1633.8453369140625 -273.3230285644531 251.24501037597656
vn 1631.7647705078125 0.000019933590010623448 -423.0722351074219
vn 1631.7647705078125 0.000019933590010623448 -423.0722351074219
vn 1342.998291015625 242.67759704589844 -1040.760498046875
vn 820.756591796875 437.78668212890625 -1480.7611083984375
vn 156.1587677001953 556.5064697265625 -1664.2467041015625
vn -527.8602294921875 585.5177001953125 -1558.51513671875
vn -1128.6536865234375 504.6260986328125 -1187.542724609375
vn -1532.3587646484375 348.7355041503906 -604.457275390625
vn -1671.279541015625 124.33229064941406 79.4283218383789
vn -1520.154541015625 -119.11773681640625 750.7586669921875
vn -1105.6295166015625 -343.52642822265625 1291.1671142578125
vn -499.5744934082031 -509.8343505859375 1606.963623046875
vn 193.34725952148438 -585.5177001953125 1645.2452392578125
vn 846.9010620117188 -556.5064697265625 1404.1805419921875
vn 1360.1435546875 -437.7866516113281 915.31298828125
vn 1637.6102294921875 -242.67755126953125 267.9696350097656
vn 1646.83642578125 -135.68589782714844 308.95440673828125
vn 1376.5673828125 -244.60643005371094 988.2714233398438
vn 867.0839233398438 -320.1465148925781 1493.83740234375
vn 215.28968811035156 -327.6432800292969 1742.71826171875
vn -480.4063720703125 -283.99603271484375 1692.112548828125
vn -1092.903076171875 -192.71517944335938 1347.70068359375
vn -1515.74072265625 -65.10106658935547 770.365478515625
vn -1675.95068359375 70.62910461425781 58.67815017700195
vn -1545.3399658203125 198.238037109375 -662.1222534179688
vn -1146.911376953125 289.5140686035156 -1268.6474609375
vn -549.8026733398438 327.6432800292969 -1655.9881591796875
vn 135.97586059570312 320.14654541015625 -1753.903564453125
vn 804.3327026367188 244.60646057128906 -1553.719482421875
vn 1333.7720947265625 135.68594360351562 -1081.7452392578125
vn 1631.7647705078125 0.000019933590010623448 -423.0722351074219
vn 1649.567138671875 77.1878662109375 321.08477783203125
vn 1381.8436279296875 125.82234191894531 1011.7093505859375
vn 874.2045288085938 163.0486602783203 1525.4686279296875
vn 222.0750274658203 178.09725952148438 1772.860107421875
vn -474.56475830078125 154.62728881835938 1718.062255859375
vn -1088.790283203125 100.02372741699219 1365.970458984375
vn -1514.490234375 36.2838249206543 775.9207153320312
vn -1677.3387451171875 -41.9029655456543 52.51210021972656
vn -1549.609375 -105.64898681640625 -681.0877685546875
vn -1153.255859375 -149.0083465576172 -1296.8310546875
vn -556.5880126953125 -178.09725952148438 -1686.1300048828125
vn 128.85525512695312 -163.0486602783203 -1785.5347900390625
vn 799.0565185546875 -125.82231903076172 -1577.157470703125
vn 1331.0413818359375 -77.18782806396484 -1093.8756103515625
vn 1631.7647705078125 0.000019933590010623448 -423.0722351074219
vn 1639.070068359375 229.45980834960938 274.4543151855469
vn 1362.056396484375 420.3659973144531 923.81005859375
vn 849.2962646484375 534.5363159179688 1414.8204345703125
vn 196.12246704101562 560.1970825195312 1657.5732421875
vn -497.7285461425781 493.0833740234375 1615.163818359375
vn -1104.146728515625 329.8952331542969 1297.7535400390625
vn -1519.5118408203125 113.02751159667969 753.6136474609375
vn -1671.9512939453125 -118.2874984741211 76.4444580078125
vn -1533.864501953125 -335.1408386230469 -611.1458740234375
vn -1130.48046875 -487.8447570800781 -1195.657470703125
vn -530.6354370117188 -560.1970825195312 -1570.8431396484375
vn 153.76356506347656 -534.5362548828125 -1674.8865966796875
vn 818.84375 -420.365966796875 -1489.2581787109375
vn 1341.53857421875 -229.45977783203125 -1047.2451171875
vn 1631.7647705078125 0.000019933590010623448 -423.0722351074219
vn 1625.44189453125 329.431640625 213.9150390625
vn 1335.8687744140625 610.1089477539062 807.4793090820312
vn 816.3911743164062 774.9824829101562 1268.64892578125
vn 161.8045196533203 810.5454711914062 1505.12548828125
vn -528.244384765625 712.9346923828125 1479.6058349609375
vn -1124.758544921875 480.3858337402344 1206.19140625
vn -1527.7510986328125 173.20074462890625 717.0128173828125
vn -1665.0810546875 -168.46218872070312 106.96366119384766
vn -1512.998779296875 -485.1251525878906 -518.4555053710938
vn -1100.217041015625 -708.1993408203125 -1061.2205810546875
vn -496.3175048828125 -810.5454711914062 -1418.395263671875
vn 186.6686553955078 -774.9824829101562 -1528.7149658203125
vn 845.0313110351562 -610.1089477539062 -1372.927490234375
vn 1355.166748046875 -329.4316101074219 -986.7058715820312
vn 1631.7647705078125 0.000019933590010623448 -423.0722351074219
vn 1598.765380859375 449.85296630859375 95.41239929199219
vn 1289.9805908203125 816.7544555664062 603.6338500976562
vn 755.0814208984375 1050.644775390625 996.2978515625
vn 98.68498229980469 1095.140625 1224.7347412109375
vn -582.0286254882812 954.0010986328125 1240.6845703125
vn -1161.0826416015625 644.8237915039062 1044.832275390625
vn -1541.407958984375 232.8693389892578 656.3458862304688
vn -1651.71142578125 -229.0633544921875 166.35400390625
vn -1476.3974609375 -648.6727905273438 -355.86474609375
vn -1044.52197265625 -957.8302001953125 -813.8110961914062
vn -433.1979675292969 -1095.140625 -1138.004638671875
vn 247.97836303710938 -1050.644775390625 -1256.364013671875
vn 890.9194946289062 -816.75439453125 -1169.0819091796875
vn 1381.8431396484375 -449.8529357910156 -868.2031860351562
vn 1631.7647705078125 0.000019933590010623448 -423.0722351074219
vn 1572.6336669921875 523.79931640625 -20.670421600341797
vn 1240.0831298828125 958.4796752929688 381.9786682128906
vn 693.0827026367188 1225.710205078125 720.8858032226562
vn 31.932125091552734 1283.6302490234375 928.2040405273438
vn -639.2035522460938 1116.099853515625 986.7009887695312
vn -1201.6126708984375 759.7809448242188 864.7890014648438
vn -1553.372802734375 266.5119323730469 603.1959228515625
vn -1637.3624267578125 -269.4100341796875 230.09539794921875
vn -1438.242919921875 -756.8924560546875 -186.37374877929688
vn -987.16162109375 -1118.9805908203125 -559.0042114257812
vn -366.4450988769531 -1283.6302490234375 -841.4739379882812
vn 309.9771423339844 -1225.710205078125 -980.9519653320312
vn 940.8169555664062 -958.4796752929688 -947.4268188476562
vn 1407.974853515625 -523.7992553710938 -752.120361328125
vn 1631.7647705078125 0.000019933590010623448 -423.0722351074219
vn 1520.20166015625 599.4497680664062 -253.58477783203125
vn 1143.1705322265625 1096.30224609375 -48.52843475341797
vn 571.2139892578125 1400.7552490234375 179.5186767578125
vn -95.61000061035156 1465.1065673828125 361.6342468261719
vn -750.0233764648438 1275.629638671875 494.4153747558594
vn -1276.602783203125 866.55810546875 531.6663818359375
vn -1581.0689697265625 306.68524169921875 480.1632995605469
vn -1612.4097900390625 -305.6038513183594 340.940673828125
vn -1360.5047607421875 -867.5823974609375 158.95571899414062
vn -876.1599731445312 -1276.6739501953125 -65.91069793701172
vn -238.90298461914062 -1465.106689453125 -274.90411376953125
vn 431.8458251953125 -1400.7552490234375 -439.5848083496094
vn 1037.7296142578125 -1096.30224609375 -516.919677734375
vn 1460.4068603515625 -599.4497680664062 -519.2060546875
vn 1631.7647705078125 0.000019933590010623448 -423.0722351074219
vn 1449.6175537109375 590.2050170898438 -567.1348266601562
vn 1019.3489379882812 1081.2078857421875 -598.57080078125
vn 408.9049377441406 1381.42724609375 -541.493408203125
vn -263.8182067871094 1444.3037109375 -385.5831298828125
vn -897.665283203125 1258.7681884765625 -161.44216918945312
vn -1377.093505859375 853.8008422851562 85.2646484375
vn -1616.5355224609375 301.98236083984375 322.6132507324219
vn -1576.9266357421875 -303.3490905761719 498.5645751953125
vn -1262.924560546875 -855.194580078125 592.4284057617188
vn -731.4254150390625 -1260.14453125 577.0316162109375
vn -70.69477081298828 -1444.3037109375 472.3132629394531
vn 594.1549072265625 -1381.42724609375 281.4272766113281
vn 1161.5511474609375 -1081.2078857421875 33.122676849365234
vn 1530.9910888671875 -590.2049560546875 -205.656005859375
vn 1631.7647705078125 0.000019933590010623448 -423.0722351074219
vn 1411.2362060546875 531.0046997070312 -737.6329345703125
vn 947.6997680664062 973.5201416015625 -916.851806640625
vn 320.5759582519531 1248.7493896484375 -933.8698120117188
vn -357.59716796875 1302.8707275390625 -802.1696166992188
vn -980.432373046875 1133.643798828125 -529.1113891601562
vn -1432.299560546875 769.9306030273438 -159.97264099121094
vn -1635.8616943359375 272.65631103515625 236.76199340820312
vn -1557.4635009765625 -275.3614807128906 585.024169921875
vn -1207.5777587890625 -772.673828125 838.2904663085938
vn -648.5156860351562 -1136.391845703125 945.3346557617188
vn 23.08418083190918 -1302.8707275390625 888.8997192382812
vn 682.4838256835938 -1248.7493896484375 673.8036499023438
vn 1233.2003173828125 -973.5201416015625 351.4036865234375
vn 1566.7767333984375 -536.4663696289062 -46.68815231323242
vn 1631.7647705078125 0.000019933590010623448 -423.0722351074219
vn 1384.654541015625 459.4117126464844 -855.7147827148438
vn 896.81103515625 836.9794921875 -1142.91064453125
vn 254.86074829101562 1074.0411376953125 -1225.791015625
vn -425.6168212890625 1121.0382080078125 -1104.3277587890625
vn -1038.7406005859375 977.4827270507812 -788.1290893554688
vn -1471.27978515625 666.0465087890625 -333.1312255859375
vn -1650.430908203125 233.46563720703125 172.0424041748047
vn -1542.7093505859375 -237.18263244628906 650.56494140625
vn -1166.1707763671875 -662.322021484375 1022.2296752929688
vn -587.7874145507812 -973.7492065429688 1215.1029052734375
vn 91.10384368896484 -1121.0382080078125 1191.057861328125
vn 748.1990356445312 -1074.0411376953125 965.7249145507812
vn 1284.089111328125 -836.9794921875 577.4625244140625
vn 1595.9541015625 -459.41168212890625 82.9239501953125
vn 1631.7647705078125 0.000019933590010623448 -423.0722351074219
vn 1382.4385986328125 451.914306640625 -865.5584716796875
vn 892.3870239257812 821.89404296875 -1162.5631103515625
vn 248.20460510253906 1051.4295654296875 -1255.359130859375
vn -432.2650146484375 1098.398681640625 -1133.8604736328125
vn -1045.3876953125 954.8058471679688 -817.6572265625
vn -1475.7332763671875 650.9851684570312 -352.9142761230469
vn -1650.430908203125 233.46563720703125 172.0424041748047
vn -1540.4781494140625 -229.67173767089844 660.4763793945312
vn -1161.742919921875 -647.1522827148438 1041.899169921875
vn -583.3558959960938 -958.631103515625 1234.7886962890625
vn 97.75204467773438 -1098.398681640625 1220.590576171875
vn 754.855224609375 -1051.4295654296875 995.29296875
vn 1288.5130615234375 -821.89404296875 597.1150512695312
vn 1598.1700439453125 -451.9142761230469 92.76766204833984
vn 1631.7647705078125 0.000019933590010623448 -423.0722351074219
vn 1398.6805419921875 501.0157165527344 -793.4080810546875
vn 922.5147705078125 913.64453125 -1028.72900390625
vn 287.7071838378906 1171.3204345703125 -1079.8800048828125
vn -390.438720703125 1225.297119140625 -948.0588989257812
vn -1008.2203979492188 1067.839599609375 -652.5518798828125
vn -1452.4927978515625 721.798583984375 -249.67539978027344
vn -1643.427490234375 254.570556640625 203.15306091308594
vn -1549.8125 -257.8008117675781 619.0114135742188
vn -1187.3035888671875 -725.0357666015625 928.352783203125
vn -618.2036743164062 -1064.610595703125 1079.9873046875
vn 55.92573165893555 -1225.297119140625 1034.7890625
vn 715.3526000976562 -1171.3204345703125 819.8139038085938
vn 1258.3853759765625 -913.6444702148438 463.2809143066406
vn 1581.9281005859375 -501.01568603515625 20.61729621887207
vn 1631.7647705078125 0.000019933590010623448 -423.0722351074219
vn 1662.20703125 192.98924255371094 -98.14937591552734
vn 1614.9498291015625 -294.93548583984375 340.6842956542969
vn 1299.2286376953125 -699.533203125 770.61376953125
vn 775.6798095703125 -947.7102661132812 1119.720947265625
vn 122.93816375732422 -1002.270263671875 1332.4727783203125
vn -533.4488525390625 -849.54833984375 1368.9976806640625
vn -1082.6351318359375 -511.6117248535156 1231.7423095703125
vn -1438.45458984375 -61.95484161376953 925.7464599609375
vn -1529.4632568359375 439.64300537109375 521.4663696289062
vn -1341.496826171875 898.0208129882812 81.82261657714844
vn -914.3338012695312 1227.3294677734375 -322.9761962890625
vn -314.67132568359375 1380.88525390625 -611.4837036132812
vn 357.71142578125 1329.2025146484375 -736.985595703125
vn 972.203369140625 1081.5794677734375 -682.1035766601562
vn 1434.9486083984375 677.3585205078125 -458.9200744628906
vn 1609.9764404296875 372.605712890625 244.03968811035156
vn 1566.6082763671875 -78.52519226074219 640.3854370117188
vn 1276.6932373046875 -452.4869384765625 1035.522705078125
vn 786.8579711914062 -684.728515625 1361.8115234375
vn 189.47239685058594 -728.0802612304688 1561.314697265625
vn -415.92156982421875 -589.6089477539062 1594.8953857421875
vn -927.2590942382812 -281.1319885253906 1463.254150390625
vn -1253.969482421875 144.7186737060547 1185.0556640625
vn -1338.8701171875 604.44775390625 807.908203125
vn -1167.5826416015625 1024.8531494140625 395.6848449707031
vn -768.8572998046875 1331.5269775390625 27.078170776367188
vn -213.6935272216797 1473.5718994140625 -229.63607788085938
vn 400.8763122558594 1424.850341796875 -352.80279541015625
vn 974.4105834960938 1192.8172607421875 -307.28265380859375
vn 1400.460205078125 822.0218505859375 -97.68052673339844
vn 1477.341552734375 535.54736328125 563.1824951171875
vn 1440.3009033203125 146.09512329101562 908.610595703125
vn 1183.8599853515625 -175.2733917236328 1259.7904052734375
vn 761.429931640625 -377.12457275390625 1540.2144775390625
vn 245.5863037109375 -416.3875732421875 1710.406982421875
vn -280.6358947753906 -299.0273132324219 1739.4471435546875
vn -725.3863525390625 -30.35749626159668 1624.2955322265625
vn -1011.34130859375 337.4407958984375 1379.4940185546875
vn -1083.9666748046875 732.2371215820312 1056.87646484375
vn -931.6824340820312 1098.397705078125 707.8834838867188
vn -587.2344360351562 1367.8807373046875 377.4699401855469
vn -106.35186004638672 1490.06396484375 147.02105712890625
vn 426.7091979980469 1448.19677734375 53.31241226196289
vn 926.5458984375 1247.0718994140625 88.17772674560547
vn 1297.57958984375 922.6217651367188 274.611572265625
vn 1272.2938232421875 668.49658203125 857.3394165039062
vn 1238.3345947265625 360.33984375 1136.55029296875
vn 1038.0667724609375 102.0152587890625 1410.5146484375
vn 701.738037109375 -61.019100189208984 1634.979736328125
vn 289.314453125 -95.28189849853516 1770.9237060546875
vn -133.7096710205078 5.90897798538208 1795.845947265625
vn -484.2802429199219 223.49346923828125 1703.9217529296875
vn -715.4171752929688 507.8580322265625 1511.02685546875
vn -774.8551025390625 831.2059936523438 1246.99072265625
vn -649.6122436523438 1121.7340087890625 969.48095703125
vn -376.6066589355469 1332.658935546875 716.8447875976562
vn 8.703622817993164 1433.1947021484375 524.389404296875
vn 434.2396240234375 1398.609619140625 446.69354248046875
vn 828.5543212890625 1240.2999267578125 479.8145751953125
vn 1124.57373046875 980.6181030273438 631.1998291015625
vn 998.6038818359375 769.5670776367188 1113.8515625
vn 979.2465209960938 554.8915405273438 1302.2930908203125
vn 837.9813232421875 380.4844970703125 1492.5035400390625
vn 601.0257568359375 269.98785400390625 1650.52685546875
vn 313.7433776855469 242.9341278076172 1745.560791015625
vn 18.545284271240234 313.9041748046875 1761.47802734375
vn -227.18075561523438 460.9007568359375 1696.773681640625
vn -382.6371154785156 664.0315551757812 1561.850830078125
vn -423.614501953125 885.9351196289062 1379.8203125
vn -341.71539306640625 1084.1597900390625 1187.98583984375
vn -151.15524291992188 1234.506591796875 1007.6314086914062
vn 119.31178283691406 1301.9957275390625 881.8534545898438
vn 416.00811767578125 1277.3587646484375 828.6382446289062
vn 692.3325805664062 1169.7120361328125 845.5001831054688
vn 899.7803955078125 988.1285400390625 949.2874755859375
vn 678.8348999023438 837.8374633789062 1303.744140625
vn 665.3666381835938 722.1572265625 1407.6890869140625
vn 597.0070190429688 636.2074584960938 1499.94287109375
vn 472.9263610839844 579.95654296875 1581.6666259765625
vn 325.4716491699219 567.8071899414062 1630.1622314453125
vn 176.79791259765625 602.7318115234375 1638.3868408203125
vn 50.984981536865234 670.7427368164062 1609.9874267578125
vn -32.186195373535156 782.1990966796875 1536.1177978515625
vn -52.67137908935547 893.3284301757812 1445.1181640625
vn -8.298800468444824 995.1363525390625 1346.635986328125
vn 90.3102798461914 1072.4298095703125 1254.1900634765625
vn 225.47344970703125 1109.6190185546875 1185.9483642578125
vn 378.0616455078125 1095.25927734375 1160.2569580078125
vn 522.1488037109375 1041.531982421875 1167.406494140625
vn 624.6686401367188 944.8088989257812 1226.8997802734375
vn 327.16644287109375 855.57470703125 1436.5838623046875
s on
f 1//1 2//2 3//3
f 3//3 2//2 4//4
f 4//4 2//2 5//5
f 2//2 6//6 5//5
f 5//5 6//6 7//7
f 6//6 8//8 7//7
f 7//7 8//8 9//9
f 8//8 10//10 9//9
f 9//9 10//10 11//11
f 10//10 12//12 11//11
f 11//11 12//12 13//13
f 12//12 14//14 13//13
f 13//13 14//14 15//15
f 14//14 16//16 15//15
f 15//15 16//16 17//17
f 17//17 16//16 18//18
f 16//16 1//1 18//18
f 1//1 19//19 18//18
f 19//19 20//20 18//18
f 18//18 20//20 17//17
f 2//2 1//1 6//6
f 6//6 1//1 8//8
f 8//8 1//1 10//10
f 10//10 1//1 12//12
f 12//12 1//1 14//14
f 1//1 16//16 14//14
f 20//20 19//19 21//21
f 19//19 22//22 21//21
f 21//21 22//22 23//23
f 22//22 24//24 23//23
f 23//23 24//24 25//25
f 25//25 24//24 26//26
f 24//24 1//1 26//26
f 26//26 1//1 27//27
f 1//1 28//28 27//27
f 27//27 28//28 29//29
f 29//29 28//28 30//30
f 28//28 3//3 30//30
f 30//30 3//3 4//4
f 19//19 1//1 22//22
f 22//22 1//1 24//24
f 3//3 28//28 1//1
f 29//29 31//31 27//27
f 27//27 31//31 26//26
f 26//26 31//31 25//25
f 31//31 32//32 25//25
f 32//32 33//33 25//25
f 25//25 33//33 23//23
f 33//33 34//34 23//23
f 23//23 34//34 21//21
f 34//34 35//35 21//21
f 21//21 35//35 20//20
f 35//35 36//36 20//20
f 20//20 36//36 17//17
f 36//36 37//37 17//17
f 17//17 37//37 15//15
f 37//37 38//38 15//15
f 15//15 38//38 13//13
f 38//38 39//39 13//13
f 13//13 39//39 11//11
f 39//39 40//40 11//11
f 11//11 40//40 9//9
f 40//40 41//41 9//9
f 9//9 41//41 7//7
f 41//41 42//42 7//7
f 7//7 42//42 5//5
f 42//42 43//43 5//5
f 5//5 43//43 4//4
f 43//43 44//44 4//4
f 4//4 44//44 30//30
f 44//44 45//45 30//30
f 30//30 45//45 29//29
f 45//45 46//46 29//29
f 29//29 46//46 31//31
f 31//31 46//46 32//32
f 46//46 47//47 32//32
f 47//47 48//48 32//32
f 32//32 48//48 33//33
f 48//48 49//49 33//33
f 33//33 49//49 34//34
f 49//49 50//50 34//34
f 34//34 50//50 35//35
f 50//50 51//51 35//35
f 35//35 51//51 36//36
f 51//51 52//52 36//36
f 36//36 52//52 37//37
f 52//52 53//53 37//37
f 37//37 53//53 38//38
f 53//53 54//54 38//38
f 38//38 54//54 39//39
f 54//54 55//55 39//39
f 39//39 55//55 40//40
f 55//55 56//56 40//40
f 40//40 56//56 41//41
f 56//56 57//57 41//41
f 41//41 57//57 42//42
f 57//57 58//58 42//42
f 42//42 58//58 43//43
f 58//58 59//59 43//43
f 43//43 59//59 44//44
f 59//59 60//60 44//44
f 44//44 60//60 45//45
f 60//60 61//61 45//45
f 45//45 61//61 46//46
f 46//46 61//61 47//47
f 61//61 62//62 47//47
f 62//62 63//63 47//47
f 47//47 63//63 48//48
f 63//63 64//64 48//48
f 48//48 64//64 49//49
f 64//64 65//65 49//49
f 49//49 65//65 50//50
f 65//65 66//66 50//50
f 50//50 66//66 51//51
f 66//66 67//67 51//51
f 51//51 67//67 52//52
f 67//67 68//68 52//52
f 52//52 68//68 53//53
f 68//68 69//69 53//53
f 53//53 69//69 54//54
f 69//69 70//70 54//54
f 54//54 70//70 55//55
f 70//70 71//71 55//55
f 55//55 71//71 56//56
f 71//71 72//72 56//56
f 56//56 72//72 57//57
f 72//72 73//73 57//57
f 57//57 73//73 58//58
f 73//73 74//74 58//58
f 58//58 74//74 59//59
f 74//74 75//75 59//59
f 59//59 75//75 60//60
f 75//75 76//76 60//60
f 60//60 76//76 61//61
f 61//61 76//76 62//62
f 76//76 77//77 62//62
f 77//77 78//78 62//62
f 62//62 78//78 63//63
f 78//78 79//79 63//63
f 63//63 79//79 64//64
f 79//79 80//80 64//64
f 64//64 80//80 65//65
f 80//80 81//81 65//65
f 65//65 81//81 66//66
f 81//81 82//82 66//66
f 66//66 82//82 67//67
f 82//82 83//83 67//67
f 67//67 83//83 68//68
f 83//83 84//84 68//68
f 68//68 84//84 69//69
f 84//84 85//85 69//69
f 69//69 85//85 70//70
f 85//85 86//86 70//70
f 70//70 86//86 71//71
f 86//86 87//87 71//71
f 71//71 87//87 72//72
f 87//87 88//88 72//72
f 72//72 88//88 73//73
f 88//88 89//89 73//73
f 73//73 89//89 74//74
f 89//89 90//90 74//74
f 74//74 90//90 75//75
f 90//90 91//91 75//75
f 75//75 91//91 76//76
f 76//76 91//91 77//77
f 91//91 92//92 77//77
f 92//92 93//93 77//77
f 77//77 93//93 78//78
f 93//93 94//94 78//78
f 78//78 94//94 79//79
f 94//94 95//95 79//79
f 79//79 95//95 80//80
f 95//95 96//96 80//80
f 80//80 96//96 81//81
f 96//96 97//97 81//81
f 81//81 97//97 82//82
f 97//97 98//98 82//82
f 82//82 98//98 83//83
f 98//98 99//99 83//83
f 83//83 99//99 84//84
f 99//99 100//100 84//84
f 84//84 100//100 85//85
f 100//100 101//101 85//85
f 85//85 101//101 86//86
f 101//101 102//102 86//86
f 86//86 102//102 87//87
f 102//102 103//103 87//87
f 87//87 103//103 88//88
f 103//103 104//104 88//88
f 88//88 104//104 89//89
f 104//104 105//105 89//89
f 89//89 105//105 90//90
f 105//105 106//106 90//90
f 90//90 106//106 91//91
f 91//91 106//106 92//92
f 106//106 107//107 92//92
f 107//107 108//108 92//92
f 92//92 108//108 93//93
f 108//108 109//109 93//93
f 93//93 109//109 94//94
f 109//109 110//110 94//94
f 94//94 110//110 95//95
f 110//110 111//111 95//95
f 95//95 111//111 96//96
f 111//111 112//112 96//96
f 96//96 112//112 97//97
f 112//112 113//113 97//97
f 97//97 113//113 98//98
f 113//113 114//114 98//98
f 98//98 114//114 99//99
f 114//114 115//115 99//99
f 99//99 115//115 100//100
f 115//115 116//116 100//100
f 100//100 116//116 101//101
f 116//116 117//117 101//101
f 101//101 117//117 102//102
f 117//117 118//118 102//102
f 102//102 118//118 103//103
f 118//118 119//119 103//103
f 103//103 119//119 104//104
f 119//119 120//120 104//104
f 104//104 120//120 105//105
f 120//120 121//121 105//105
f 105//105 121//121 106//106
f 106//106 121//121 107//107
f 121//121 122//122 107//107
f 122//122 123//123 107//107
f 107//107 123//123 108//108
f 123//123 124//124 108//108
f 108//108 124//124 109//109
f 124//124 125//125 109//109
f 109//109 125//125 110//110
f 125//125 126//126 110//110
f 110//110 126//126 111//111
f 126//126 127//127 111//111
f 111//111 127//127 112//112
f 127//127 128//128 112//112
f 112//112 128//128 113//113
f 128//128 129//129 113//113
f 113//113 129//129 114//114
f 129//129 130//130 114//114
f 114//114 130//130 115//115
f 130//130 131//131 115//115
f 115//115 131//131 116//116
f 131//131 132//132 116//116
f 116//116 132//132 117//117
f 132//132 133//133 117//117
f 117//117 133//133 118//118
f 133//133 134//134 118//118
f 118//118 134//134 119//119
f 134//134 135//135 119//119
f 119//119 135//135 120//120
f 135//135 136//136 120//120
f 120//120 136//136 121//121
f 121//121 136//136 122//122
f 136//136 137//137 122//122
f 137//137 138//138 122//122
f 122//122 138//138 123//123
f 138//138 139//139 123//123
f 123//123 139//139 124//124
f 139//139 140//140 124//124
f 124//124 140//140 125//125
f 140//140 141//141 125//125
f 125//125 141//141 126//126
f 141//141 142//142 126//126
f 126//126 142//142 127//127
f 142//142 143//143 127//127
f 127//127 143//143 128//128
f 143//143 144//144 128//128
f 128//128 144//144 129//129
f 144//144 145//145 129//129
f 129//129 145//145 130//130
f 145//145 146//146 130//130
f 130//130 146//146 131//131
f 146//146 147//147 131//131
f 131//131 147//147 132//132
f 147//147 148//148 132//132
f 132//132 148//148 133//133
f 148//148 149//149 133//133
f 133//133 149//149 134//134
f 149//149 150//150 134//134
f 134//134 150//150 135//135
f 150//150 151//151 135//135
f 135//135 151//151 136//136
f 136//136 151//151 137//137
f 137//137 151//151 152//152
f 152//152 151//151 153//153
f 151//151 150//150 153//153
f 153//153 150//150 154//154
f 150//150 149//149 154//154
f 154//154 149//149 155//155
f 149//149 148//148 155//155
f 155//155 148//148 156//156
f 148//148 147//147 156//156
f 156//156 147//147 157//157
f 147//147 146//146 157//157
f 157//157 146//146 158//158
f 146//146 145//145 158//158
f 158//158 145//145 159//159
f 145//145 144//144 159//159
f 159//159 144//144 160//160
f 144//144 143//143 160//160
f 160//160 143//143 161//161
f 143//143 142//142 161//161
f 161//161 142//142 162//162
f 142//142 141//141 162//162
f 162//162 141//141 163//163
f 141//141 140//140 163//163
f 163//163 140//140 164//164
f 140//140 139//139 164//164
f 164//164 139//139 165//165
f 139//139 138//138 165//165
f 165//165 138//138 166//166
f 138//138 137//137 166//166
f 137//137 152//152 166//166
f 166//166 152//152 167//167
f 167//167 152//152 168//168
f 152//152 153//153 168//168
f 168//168 153//153 169//169
f 153//153 154//154 169//169
f 169//169 154//154 170//170
f 154//154 155//155 170//170
f 170//170 155//155 171//171
f 155//155 156//156 171//171
f 171//171 156//156 172//172
f 156//156 157//157 172//172
f 172//172 157//157 173//173
f 157//157 158//158 173//173
f 173//173 158//158 174//174
f 158//158 159//159 174//174
f 174//174 159//159 175//175
f 159//159 160//160 175//175
f 175//175 160//160 176//176
f 160//160 161//161 176//176
f 176//176 161//161 177//177
f 161//161 162//162 177//177
f 177//177 162//162 178//178
f 162//162 163//163 178//178
f 178//178 163//163 179//179
f 163//163 164//164 179//179
f 179//179 164//164 180//180
f 164//164 165//165 180//180
f 180//180 165//165 181//181
f 165//165 166//166 181//181
f 166//166 167//167 181//181
f 181//181 167//167 182//182
f 182//182 167//167 183//183
f 167//167 168//168 183//183
f 183//183 168//168 184//184
f 168//168 169//169 184//184
f 184//184 169//169 185//185
f 169//169 170//170 185//185
f 185//185 170//170 186//186
f 170//170 171//171 186//186
f 186//186 171//171 187//187
f 171//171 172//172 187//187
f 187//187 172//172 188//188
f 172//172 173//173 188//188
f 188//188 173//173 189//189
f 173//173 174//174 189//189
f 189//189 174//174 190//190
f 174//174 175//175 190//190
f 190//190 175//175 191//191
f 175//175 176//176 191//191
f 191//191 176//176 192//192
f 176//176 177//177 192//192
f 192//192 177//177 193//193
f 177//177 178//178 193//193
f 193//193 178//178 194//194
f 178//178 179//179 194//194
f 194//194 179//179 195//195
f 179//179 180//180 195//195
f 195//195 180//180 196//196
f 180//180 181//181 196//196
f 181//181 182//182 196//196
f 196//196 182//182 197//197
f 197//197 182//182 198//198
f 182//182 183//183 198//198
f 198//198 183//183 199//199
f 183//183 184//184 199//199
f 199//199 184//184 200//200
f 184//184 185//185 200//200
f 200//200 185//185 201//201
f 185//185 186//186 201//201
f 201//201 186//186 202//202
f 186//186 187//187 202//202
f 202//202 187//187 203//203
f 187//187 188//188 203//203
f 203//203 188//188 204//204
f 188//188 189//189 204//204
f 204//204 189//189 205//205
f 189//189 190//190 205//205
f 205//205 190//190 206//206
f 190//190 191//191 206//206
f 206//206 191//191 207//207
f 191//191 192//192 207//207
f 207//207 192//192 208//208
f 192//192 193//193 208//208
f 208//208 193//193 209//209
f 193//193 194//194 209//209
f 209//209 194//194 210//210
f 194//194 195//195 210//210
f 210//210 195//195 211//211
f 195//195 196//196 211//211
f 196//196 197//197 211//211
f 211//211 197//197 212//212
f 212//212 197//197 213//213
f 197//197 198//198 213//213
f 213//213 198//198 214//214
f 198//198 199//199 214//214
f 214//214 199//199 215//215
f 199//199 200//200 215//215
f 215//215 200//200 216//216
f 200//200 201//201 216//216
f 216//216 201//201 217//217
f 201//201 202//202 217//217
f 217//217 202//202 218//218
f 202//202 203//203 218//218
f 218//218 203//203 219//219
f 203//203 204//204 219//219
f 219//219 204//204 220//220
f 204//204 205//205 220//220
f 220//220 205//205 221//221
f 205//205 206//206 221//221
f 221//221 206//206 222//222
f 206//206 207//207 222//222
f 222//222 207//207 223//223
f 207//207 208//208 223//223
f 223//223 208//208 224//224
f 208//208 209//209 224//224
f 224//224 209//209 225//225
f 209//209 210//210 225//225
f 225//225 210//210 226//226
f 210//210 211//211 226//226
f 211//211 212//212 226//226
f 226//226 212//212 227//227
f 227//227 212//212 228//228
f 212//212 213//213 228//228
f 228//228 213//213 229//229
f 213//213 214//214 229//229
f 229//229 214//214 230//230
f 214//214 215//215 230//230
f 230//230 215//215 231//231
f 215//215 216//216 231//231
f 231//231 216//216 232//232
f 216//216 217//217 232//232
f 232//232 217//217 233//233
f 217//217 218//218 233//233
f 233//233 218//218 234//234
f 218//218 219//219 234//234
f 234//234 219//219 235//235
f 219//219 220//220 235//235
f 235//235 220//220 236//236
f 220//220 221//221 236//236
f 236//236 221//221 237//237
f 221//221 222//222 237//237
f 237//237 222//222 238//238
f 222//222 223//223 238//238
f 238//238 223//223 239//239
f 223//223 224//224 239//239
f 239//239 224//224 240//240
f 224//224 225//225 240//240
f 240//240 225//225 241//241
f 225//225 226//226 241//241
f 226//226 227//227 241//241
f 241//241 227//227 242//242
f 242//242 227//227 243//243
f 227//227 228//228 243//243
f 243//243 228//228 244//244
f 228//228 229//229 244//244
f 244//244 229//229 245//245
f 229//229 230//230 245//245
f 245//245 230//230 246//246
f 230//230 231//231 246//246
f 246//246 231//231 247//247
f 231//231 232//232 247//247
f 247//247 232//232 248//248
f 232//232 233//233 248//248
f 248//248 233//233 249//249
f 233//233 234//234 249//249
f 249//249 234//234 250//250
f 234//234 235//235 250//250
f 250//250 235//235 251//251
f 235//235 236//236 251//251
f 251//251 236//236 252//252
f 236//236 237//237 252//252
f 252//252 237//237 253//253
f 237//237 238//238 253//253
f 253//253 238//238 254//254
f 238//238 239//239 254//254
f 254//254 239//239 255//255
f 239//239 240//240 255//255
f 255//255 240//240 256//256
f 240//240 241//241 256//256
f 241//241 242//242 256//256
f 256//256 242//242 257//257
f 257//257 242//242 258//258
f 242//242 243//243 258//258
f 258//258 243//243 259//259
f 243//243 244//244 259//259
f 259//259 244//244 260//260
f 244//244 245//245 260//260
f 260//260 245//245 261//261
f 245//245 246//246 261//261
f 261//261 246//246 262//262
f 246//246 247//247 262//262
f 262//262 247//247 263//263
f 247//247 248//248 263//263
f 263//263 248//248 264//264
f 248//248 249//249 264//264
f 264//264 249//249 265//265
f 249//249 250//250 265//265
f 265//265 250//250 266//266
f 250//250 251//251 266//266
f 266//266 251//251 267//267
f 251//251 252//252 267//267
f 267//267 252//252 268//268
f 252//252 253//253 268//268
f 268//268 253//253 269//269
f 253//253 254//254 269//269
f 269//269 254//254 270//270
f 254//254 255//255 270//270
f 270//270 255//255 271//271
f 255//255 256//256 271//271
f 256//256 257//257 271//271
f 271//271 257//257 272//272
f 272//272 257//257 273//273
f 257//257 258//258 273//273
f 273//273 258//258 274//274
f 258//258 259//259 274//274
f 274//274 259//259 275//275
f 259//259 260//260 275//275
f 275//275 260//260 276//276
f 260//260 261//261 276//276
f 276//276 261//261 277//277
f 261//261 262//262 277//277
f 277//277 262//262 278//278
f 262//262 263//263 278//278
f 278//278 263//263 279//279
f 263//263 264//264 279//279
f 279//279 264//264 280//280
f 264//264 265//265 280//280
f 280//280 265//265 281//281
f 265//265 266//266 281//281
f 281//281 266//266 282//282
f 266//266 267//267 282//282
f 282//282 267//267 283//283
f 267//267 268//268 283//283
f 283//283 268//268 284//284
f 268//268 269//269 284//284
f 284//284 269//269 285//285
f 269//269 270//270 285//285
f 285//285 270//270 286//286
f 270//270 271//271 286//286
f 271//271 272//272 286//286
f 286//286 272//272 287//287
f 287//287 272//272 288//288
f 272//272 273//273 288//288
f 288//288 273//273 289//289
f 273//273 274//274 289//289
f 289//289 274//274 290//290
f 274//274 275//275 290//290
f 290//290 275//275 291//291
f 275//275 276//276 291//291
f 291//291 276//276 292//292
f 276//276 277//277 292//292
f 292//292 277//277 293//293
f 277//277 278//278 293//293
f 293//293 278//278 294//294
f 278//278 279//279 294//294
f 294//294 279//279 295//295
f 279//279 280//280 295//295
f 295//295 280//280 296//296
f 280//280 281//281 296//296
f 296//296 281//281 297//297
f 281//281 282//282 297//297
f 297//297 282//282 298//298
f 282//282 283//283 298//298
f 298//298 283//283 299//299
f 283//283 284//284 299//299
f 299//299 284//284 300//300
f 284//284 285//285 300//300
f 300//300 285//285 301//301
f 285//285 286//286 301//301
f 286//286 287//287 301//301
f 301//301 287//287 302//302
f 302//302 287//287 303//303
f 287//287 288//288 303//303
f 303//303 288//288 304//304
f 288//288 289//289 304//304
f 304//304 289//289 305//305
f 289//289 290//290 305//305
f 305//305 290//290 306//306
f 290//290 291//291 306//306
f 306//306 291//291 307//307
f 291//291 292//292 307//307
f 307//307 292//292 308//308
f 292//292 293//293 308//308
f 308//308 293//293 309//309
f 293//293 294//294 309//309
f 309//309 294//294 310//310
f 294//294 295//295 310//310
f 310//310 295//295 311//311
f 295//295 296//296 311//311
f 311//311 296//296 312//312
f 296//296 297//297 312//312
f 312//312 297//297 313//313
f 297//297 298//298 313//313
f 313//313 298//298 314//314
f 298//298 299//299 314//314
f 314//314 299//299 315//315
f 299//299 300//300 315//315
f 315//315 300//300 316//316
f 300//300 301//301 316//316
f 301//301 302//302 316//316
f 316//316 302//302 317//317
f 317//317 302//302 318//318
f 302//302 303//303 318//318
f 318//318 303//303 319//319
f 303//303 304//304 319//319
f 319//319 304//304 320//320
f 304//304 305//305 320//320
f 320//320 305//305 321//321
f 305//305 306//306 321//321
f 321//321 306//306 322//322
f 306//306 307//307 322//322
f 322//322 307//307 323//323
f 307//307 308//308 323//323
f 323//323 308//308 324//324
f 308//308 309//309 324//324
f 324//324 309//309 325//325
f 309//309 310//310 325//325
f 325//325 310//310 326//326
f 310//310 311//311 326//326
f 326//326 311//311 327//327
f 311//311 312//312 327//327
f 327//327 312//312 328//328
f 312//312 313//313 328//328
f 328//328 313//313 329//329
f 313//313 314//314 329//329
f 329//329 314//314 330//330
f 314//314 315//315 330//330
f 330//330 315//315 331//331
f 315//315 316//316 331//331
f 316//316 317//317 331//331
f 317//317 332//332 331//331
f 332//332 333//333 331//331
f 331//331 333//333 330//330
f 333//333 334//334 330//330
f 330//330 334//334 329//329
f 334//334 335//335 329//329
f 329//329 335//335 328//328
f 335//335 336//336 328//328
f 328//328 336//336 327//327
f 336//336 337//337 327//327
f 327//327 337//337 326//326
f 337//337 338//338 326//326
f 326//326 338//338 325//325
f 338//338 339//339 325//325
f 325//325 339//339 324//324
f 339//339 340//340 324//324
f 324//324 340//340 323//323
f 340//340 341//341 323//323
f 323//323 341//341 322//322
f 341//341 342//342 322//322
f 322//322 342//342 321//321
f 342//342 343//343 321//321
f 321//321 343//343 320//320
f 343//343 344//344 320//320
f 320//320 344//344 319//319
f 344//344 345//345 319//319
f 319//319 345//345 318//318
f 345//345 346//346 318//318
f 318//318 346//346 317//317
f 317//317 346//346 332//332
f 346//346 347//347 332//332
f 347//347 348//348 332//332
f 332//332 348//348 333//333
f 348//348 349//349 333//333
f 333//333 349//349 334//334
f 349//349 350//350 334//334
f 334//334 350//350 335//335
f 350//350 351//351 335//335
f 335//335 351//351 336//336
f 351//351 352//352 336//336
f 336//336 352//352 337//337
f 352//352 353//353 337//337
f 337//337 353//353 338//338
f 353//353 354//354 338//338
f 338//338 354//354 339//339
f 354//354 355//355 339//339
f 339//339 355//355 340//340
f 355//355 356//356 340//340
f 340//340 356//356 341//341
f 356//356 357//357 341//341
f 341//341 357//357 342//342
f 357//357 358//358 342//342
f 342//342 358//358 343//343
f 358//358 359//359 343//343
f 343//343 359//359 344//344
f 359//359 360//360 344//344
f 344//344 360//360 345//345
f 360//360 361//361 345//345
f 345//345 361//361 346//346
f 346//346 361//361 347//347
f 361//361 362//362 347//347
f 362//362 363//363 347//347
f 347//347 363//363 348//348
f 363//363 364//364 348//348
f 348//348 364//364 349//349
f 364//364 365//365 349//349
f 349//349 365//365 350//350
f 365//365 366//366 350//350
f 350//350 366//366 351//351
f 366//366 367//367 351//351
f 351//351 367//367 352//352
f 367//367 368//368 352//352
f 352//352 368//368 353//353
f 368//368 369//369 353//353
f 353//353 369//369 354//354
f 369//369 370//370 354//354
f 354//354 370//370 355//355
f 370//370 371//371 355//355
f 355//355 371//371 356//356
f 371//371 372//372 356//356
f 356//356 372//372 357//357
f 372//372 373//373 357//357
f 357//357 373//373 358//358
f 373//373 374//374 358//358
f 358//358 374//374 359//359
f 374//374 375//375 359//359
f 359//359 375//375 360//360
f 375//375 376//376 360//360
f 360//360 376//376 361//361
f 361//361 376//376 362//362
f 376//376 377//377 362//362
f 377//377 378//378 362//362
f 362//362 378//378 363//363
f 378//378 379//379 363//363
f 363//363 379//379 364//364
f 379//379 380//380 364//364
f 364//364 380//380 365//365
f 380//380 381//381 365//365
f 365//365 381//381 366//366
f 381//381 382//382 366//366
f 366//366 382//382 367//367
f 382//382 383//383 367//367
f 367//367 383//383 368//368
f 383//383 384//384 368//368
f 368//368 384//384 369//369
f 384//384 385//385 369//369
f 369//369 385//385 370//370
f 385//385 386//386 370//370
f 370//370 386//386 371//371
f 386//386 387//387 371//371
f 371//371 387//387 372//372
f 387//387 388//388 372//372
f 372//372 388//388 373//373
f 388//388 389//389 373//373
f 373//373 389//389 374//374
f 389//389 390//390 374//374
f 374//374 390//390 375//375
f 390//390 391//391 375//375
f 375//375 391//391 376//376
f 376//376 391//391 377//377
f 391//391 392//392 377//377
f 392//392 393//393 377//377
f 377//377 393//393 378//378
f 393//393 394//394 378//378
f 378//378 394//394 379//379
f 394//394 395//395 379//379
f 379//379 395//395 380//380
f 395//395 396//396 380//380
f 380//380 396//396 381//381
f 396//396 397//397 381//381
f 381//381 397//397 382//382
f 397//397 398//398 382//382
f 382//382 398//398 383//383
f 398//398 399//399 383//383
f 383//383 399//399 384//384
f 399//399 400//400 384//384
f 384//384 400//400 385//385
f 400//400 401//401 385//385
f 385//385 401//401 386//386
f 401//401 402//402 386//386
f 386//386 402//402 387//387
f 402//402 403//403 387//387
f 387//387 403//403 388//388
f 403//403 404//404 388//388
f 388//388 404//404 389//389
f 404//404 405//405 389//389
f 389//389 405//405 390//390
f 405//405 406//406 390//390
f 390//390 406//406 391//391
f 391//391 406//406 392//392
f 406//406 407//407 392//392
f 407//407 408//408 392//392
f 392//392 408//408 393//393
f 408//408 409//409 393//393
f 393//393 409//409 394//394
f 409//409 410//410 394//394
f 394//394 410//410 395//395
f 410//410 411//411 395//395
f 395//395 411//411 396//396
f 411//411 412//412 396//396
f 396//396 412//412 397//397
f 412//412 413//413 397//397
f 397//397 413//413 398//398
f 413//413 414//414 398//398
f 398//398 414//414 399//399
f 414//414 415//415 399//399
f 399//399 415//415 400//400
f 415//415 416//416 400//400
f 400//400 416//416 401//401
f 416//416 417//417 401//401
f 401//401 417//417 402//402
f 417//417 418//418 402//402
f 402//402 418//418 403//403
f 418//418 419//419 403//403
f 403//403 419//419 404//404
f 419//419 420//420 404//404
f 404//404 420//420 405//405
f 420//420 421//421 405//405
f 405//405 421//421 406//406
f 406//406 421//421 407//407
f 407//407 421//421 422//422
f 421//421 420//420 422//422
f 420//420 419//419 422//422
f 419//419 418//418 422//422
f 418//418 417//417 422//422
f 417//417 416//416 422//422
f 416//416 415//415 422//422
f 415//415 414//414 422//422
f 414//414 413//413 422//422
f 413//413 412//412 422//422
f 412//412 411//411 422//422
f 411//411 410//410 422//422
f 410//410 409//409 422//422
f 409//409 408//408 422//422
f 422//422 408//408 407//407

