# Exported by Sketchfab Model Ripper robust edition
o model_23
v -0.9608293771743774 0.019570348784327507 0.5846589207649231
v -0.9608293771743774 0.056369516998529434 0.5846589207649231
v -0.9608293771743774 0.019570348784327507 0.5827464461326599
v -0.9608293771743774 0.020145338028669357 0.5803558230400085
v -0.9608293771743774 0.02072032354772091 0.5779651999473572
v -0.9608293771743774 0.02129530906677246 0.5755746364593506
v -0.9608293771743774 0.022445283830165863 0.5731840133666992
v -0.9608293771743774 0.023595258593559265 0.571271538734436
v -0.9608293771743774 0.024745233356952667 0.5688809156417847
v -0.9608293771743774 0.02647019363939762 0.5669684410095215
v -0.9608293771743774 0.019570348784327507 0.5870495438575745
v -0.9608293771743774 0.020145338028669357 0.589440107345581
v -0.9608293771743774 0.02072032354772091 0.5918307304382324
v -0.9608293771743774 0.02129530906677246 0.5942213535308838
v -0.9608293771743774 0.022445283830165863 0.5966119170188904
v -0.9608293771743774 0.023595258593559265 0.5985244512557983
v -0.9608293771743774 0.024745233356952667 0.6009150147438049
v -0.9608293771743774 0.02647019363939762 0.6028275489807129
v -0.9608293771743774 0.028195153921842575 0.6047400236129761
v -0.9608293771743774 0.03049510158598423 0.6061743497848511
v -0.9608293771743774 0.03222006559371948 0.6080868244171143
v -0.9608293771743774 0.03452001139521599 0.609521210193634
v -0.9608293771743774 0.03681996092200279 0.6109555959701538
v -0.9608293771743774 0.028195153921842575 0.5650559663772583
v -0.9608293771743774 0.03049510158598423 0.5636215806007385
v -0.9608293771743774 0.03222006559371948 0.5617091059684753
v -0.9608293771743774 0.03452001139521599 0.5602747201919556
v -0.9608293771743774 0.03681996092200279 0.5588403940200806
v -0.9608293771743774 0.039694894105196 0.5578840970993042
v -0.9608293771743774 0.0419948436319828 0.5569278597831726
v -0.9608293771743774 0.04486977681517601 0.555971622467041
v -0.9608293771743774 0.047744713723659515 0.5554935336112976
v -0.9608293771743774 0.05061964690685272 0.5550153851509094
v -0.9608293771743774 0.05349458381533623 0.554537296295166
v -0.9608293771743774 0.056369516998529434 0.554537296295166
v -0.9608293771743774 0.05866946652531624 0.554537296295166
v -0.9608293771743774 0.039694894105196 0.6119118332862854
v -0.9608293771743774 0.0419948436319828 0.612868070602417
v -0.9608293771743774 0.04486977681517601 0.6138243079185486
v -0.9608293771743774 0.047744713723659515 0.6143024563789368
v -0.9608293771743774 0.05061964690685272 0.6147805452346802
v -0.9608293771743774 0.05349458381533623 0.6152586936950684
v -0.9608293771743774 0.056369516998529434 0.6152586936950684
v -0.9608293771743774 0.05866946652531624 0.6152586936950684
v -0.9608293771743774 0.061544399708509445 0.6147805452346802
v -0.9608293771743774 0.06441933661699295 0.6143024563789368
v -0.9608293771743774 0.06729426980018616 0.6138243079185486
v -0.9608293771743774 0.07016920298337936 0.612868070602417
v -0.9608293771743774 0.07246915251016617 0.6119118332862854
v -0.9608293771743774 0.061544399708509445 0.5550153851509094
v -0.9608293771743774 0.06441933661699295 0.5554935336112976
v -0.9608293771743774 0.06729426980018616 0.555971622467041
v -0.9608293771743774 0.07016920298337936 0.5569278597831726
v -0.9608293771743774 0.07246915251016617 0.5578840970993042
v -0.9608293771743774 0.07534409314393997 0.5588403940200806
v -0.9608293771743774 0.07764403522014618 0.5602747201919556
v -0.9608293771743774 0.07994398474693298 0.5617091059684753
v -0.9608293771743774 0.08166894316673279 0.5636215806007385
v -0.9608293771743774 0.08396889269351959 0.5650559663772583
v -0.9608293771743774 0.0856938585639 0.5669684410095215
v -0.9608293771743774 0.0874188169836998 0.5688809156417847
v -0.9608293771743774 0.0885687917470932 0.571271538734436
v -0.9608293771743774 0.07534409314393997 0.6109555959701538
v -0.9608293771743774 0.07764403522014618 0.609521210193634
v -0.9608293771743774 0.07994398474693298 0.6080868244171143
v -0.9608293771743774 0.08166894316673279 0.6061743497848511
v -0.9608293771743774 0.08396889269351959 0.6047400236129761
v -0.9608293771743774 0.0856938585639 0.6028275489807129
v -0.9608293771743774 0.0874188169836998 0.6009150147438049
v -0.9608293771743774 0.0885687917470932 0.5985244512557983
v -0.9608293771743774 0.0897187665104866 0.5966119170188904
v -0.9608293771743774 0.09086874127388 0.5942213535308838
v -0.9608293771743774 0.09144372493028641 0.5918307304382324
v -0.9608293771743774 0.09201871603727341 0.589440107345581
v -0.9608293771743774 0.09259369969367981 0.5870495438575745
v -0.9608293771743774 0.09259369969367981 0.5851370096206665
v -0.9608293771743774 0.09259369969367981 0.5827464461326599
v -0.9608293771743774 0.09201871603727341 0.5803558230400085
v -0.9608293771743774 0.09144372493028641 0.5779651999473572
v -0.9608293771743774 0.09086874127388 0.5755746364593506
v -0.9608293771743774 0.0897187665104866 0.5731840133666992
v -0.9608293771743774 0.019570348784327507 0.5827464461326599
v -0.9608293771743774 0.019570348784327507 0.5846589207649231
v -0.8594565391540527 0.05636952072381973 0.5846589207649231
v -0.9608293771743774 0.020145338028669357 0.5803558230400085
v -0.8594565391540527 0.05636952072381973 0.5846589207649231
v -0.9608293771743774 0.02072032354772091 0.5779651999473572
v -0.8594565391540527 0.05636952072381973 0.5846589207649231
v -0.9608293771743774 0.02129530906677246 0.5755746364593506
v -0.8594565391540527 0.05636952072381973 0.5846589207649231
v -0.9608293771743774 0.022445283830165863 0.5731840133666992
v -0.8594565391540527 0.05636952072381973 0.5846589207649231
v -0.9608293771743774 0.023595258593559265 0.571271538734436
v -0.8594565391540527 0.05636952072381973 0.5846589207649231
v -0.9608293771743774 0.024745233356952667 0.5688809156417847
v -0.8594565391540527 0.05636952072381973 0.5846589207649231
v -0.9608293771743774 0.02647019363939762 0.5669684410095215
v -0.8594565391540527 0.05636952072381973 0.5846589207649231
v -0.9608293771743774 0.028195153921842575 0.5650559663772583
v -0.8594565391540527 0.05636952072381973 0.5846589207649231
v -0.9608293771743774 0.03049510158598423 0.5636215806007385
v -0.8594565391540527 0.05636952072381973 0.5846589207649231
v -0.9608293771743774 0.03222006559371948 0.5617091059684753
v -0.8594565391540527 0.05636952072381973 0.5846589207649231
v -0.9608293771743774 0.03452001139521599 0.5602747201919556
v -0.8594565391540527 0.05636952072381973 0.5846589207649231
v -0.9608293771743774 0.03681996092200279 0.5588403940200806
v -0.8594565391540527 0.05636952072381973 0.5846589207649231
v -0.9608293771743774 0.039694894105196 0.5578840970993042
v -0.8594565391540527 0.05636952072381973 0.5846589207649231
v -0.9608293771743774 0.0419948436319828 0.5569278597831726
v -0.8594565391540527 0.05636952072381973 0.5846589207649231
v -0.9608293771743774 0.04486977681517601 0.555971622467041
v -0.8594565391540527 0.05636952072381973 0.5846589207649231
v -0.9608293771743774 0.047744713723659515 0.5554935336112976
v -0.8594565391540527 0.05636952072381973 0.5846589207649231
v -0.9608293771743774 0.05061964690685272 0.5550153851509094
v -0.8594565391540527 0.05636952072381973 0.5846589207649231
v -0.9608293771743774 0.05349458381533623 0.554537296295166
v -0.8594565391540527 0.05636952072381973 0.5846589207649231
v -0.9608293771743774 0.056369516998529434 0.554537296295166
v -0.8594565391540527 0.05636952072381973 0.5846589207649231
v -0.9608293771743774 0.05866946652531624 0.554537296295166
v -0.8594565391540527 0.05636952072381973 0.5846589207649231
v -0.9608293771743774 0.061544399708509445 0.5550153851509094
v -0.8594565391540527 0.05636952072381973 0.5846589207649231
v -0.9608293771743774 0.06441933661699295 0.5554935336112976
v -0.8594565391540527 0.05636952072381973 0.5846589207649231
v -0.9608293771743774 0.06729426980018616 0.555971622467041
v -0.8594565391540527 0.05636952072381973 0.5846589207649231
v -0.9608293771743774 0.07016920298337936 0.5569278597831726
v -0.8594565391540527 0.05636952072381973 0.5846589207649231
v -0.9608293771743774 0.07246915251016617 0.5578840970993042
v -0.8594565391540527 0.05636952072381973 0.5846589207649231
v -0.9608293771743774 0.07534409314393997 0.5588403940200806
v -0.8594565391540527 0.05636952072381973 0.5846589207649231
v -0.9608293771743774 0.07764403522014618 0.5602747201919556
v -0.8594565391540527 0.05636952072381973 0.5846589207649231
v -0.9608293771743774 0.07994398474693298 0.5617091059684753
v -0.8594565391540527 0.05636952072381973 0.5846589207649231
v -0.9608293771743774 0.08166894316673279 0.5636215806007385
v -0.8594565391540527 0.05636952072381973 0.5846589207649231
v -0.9608293771743774 0.08396889269351959 0.5650559663772583
v -0.8594565391540527 0.05636952072381973 0.5846589207649231
v -0.9608293771743774 0.0856938585639 0.5669684410095215
v -0.8594565391540527 0.05636952072381973 0.5846589207649231
v -0.9608293771743774 0.0874188169836998 0.5688809156417847
v -0.8594565391540527 0.05636952072381973 0.5846589207649231
v -0.9608293771743774 0.0885687917470932 0.571271538734436
v -0.8594565391540527 0.05636952072381973 0.5846589207649231
v -0.9608293771743774 0.0897187665104866 0.5731840133666992
v -0.8594565391540527 0.05636952072381973 0.5846589207649231
v -0.9608293771743774 0.09086874127388 0.5755746364593506
v -0.8594565391540527 0.05636952072381973 0.5846589207649231
v -0.9608293771743774 0.09144372493028641 0.5779651999473572
v -0.8594565391540527 0.05636952072381973 0.5846589207649231
v -0.9608293771743774 0.09201871603727341 0.5803558230400085
v -0.8594565391540527 0.05636952072381973 0.5846589207649231
v -0.9608293771743774 0.09259369969367981 0.5827464461326599
v -0.8594565391540527 0.05636952072381973 0.5846589207649231
v -0.9608293771743774 0.09259369969367981 0.5851370096206665
v -0.8594565391540527 0.05636952072381973 0.5846589207649231
v -0.9608293771743774 0.09259369969367981 0.5870495438575745
v -0.8594565391540527 0.05636952072381973 0.5846589207649231
v -0.9608293771743774 0.09201871603727341 0.589440107345581
v -0.8594565391540527 0.05636952072381973 0.5846589207649231
v -0.9608293771743774 0.09144372493028641 0.5918307304382324
v -0.8594565391540527 0.05636952072381973 0.5846589207649231
v -0.9608293771743774 0.09086874127388 0.5942213535308838
v -0.8594565391540527 0.05636952072381973 0.5846589207649231
v -0.9608293771743774 0.0897187665104866 0.5966119170188904
v -0.8594565391540527 0.05636952072381973 0.5846589207649231
v -0.9608293771743774 0.0885687917470932 0.5985244512557983
v -0.8594565391540527 0.05636952072381973 0.5846589207649231
v -0.9608293771743774 0.0874188169836998 0.6009150147438049
v -0.8594565391540527 0.05636952072381973 0.5846589207649231
v -0.9608293771743774 0.0856938585639 0.6028275489807129
v -0.8594565391540527 0.05636952072381973 0.5846589207649231
v -0.9608293771743774 0.08396889269351959 0.6047400236129761
v -0.8594565391540527 0.05636952072381973 0.5846589207649231
v -0.9608293771743774 0.08166894316673279 0.6061743497848511
v -0.8594565391540527 0.05636952072381973 0.5846589207649231
v -0.9608293771743774 0.07994398474693298 0.6080868244171143
v -0.8594565391540527 0.05636952072381973 0.5846589207649231
v -0.9608293771743774 0.07764403522014618 0.609521210193634
v -0.8594565391540527 0.05636952072381973 0.5846589207649231
v -0.9608293771743774 0.07534409314393997 0.6109555959701538
v -0.8594565391540527 0.05636952072381973 0.5846589207649231
v -0.9608293771743774 0.07246915251016617 0.6119118332862854
v -0.8594565391540527 0.05636952072381973 0.5846589207649231
v -0.9608293771743774 0.07016920298337936 0.612868070602417
v -0.8594565391540527 0.05636952072381973 0.5846589207649231
v -0.9608293771743774 0.06729426980018616 0.6138243079185486
v -0.8594565391540527 0.05636952072381973 0.5846589207649231
v -0.9608293771743774 0.06441933661699295 0.6143024563789368
v -0.8594565391540527 0.05636952072381973 0.5846589207649231
v -0.9608293771743774 0.061544399708509445 0.6147805452346802
v -0.8594565391540527 0.05636952072381973 0.5846589207649231
v -0.9608293771743774 0.05866946652531624 0.6152586936950684
v -0.8594565391540527 0.05636952072381973 0.5846589207649231
v -0.9608293771743774 0.056369516998529434 0.6152586936950684
v -0.8594565391540527 0.05636952072381973 0.5846589207649231
v -0.9608293771743774 0.05349458381533623 0.6152586936950684
v -0.8594565391540527 0.05636952072381973 0.5846589207649231
v -0.9608293771743774 0.05061964690685272 0.6147805452346802
v -0.8594565391540527 0.05636952072381973 0.5846589207649231
v -0.9608293771743774 0.047744713723659515 0.6143024563789368
v -0.8594565391540527 0.05636952072381973 0.5846589207649231
v -0.9608293771743774 0.04486977681517601 0.6138243079185486
v -0.8594565391540527 0.05636952072381973 0.5846589207649231
v -0.9608293771743774 0.0419948436319828 0.612868070602417
v -0.8594565391540527 0.05636952072381973 0.5846589207649231
v -0.9608293771743774 0.039694894105196 0.6119118332862854
v -0.8594565391540527 0.05636952072381973 0.5846589207649231
v -0.9608293771743774 0.03681996092200279 0.6109555959701538
v -0.8594565391540527 0.05636952072381973 0.5846589207649231
v -0.9608293771743774 0.03452001139521599 0.609521210193634
v -0.8594565391540527 0.05636952072381973 0.5846589207649231
v -0.9608293771743774 0.03222006559371948 0.6080868244171143
v -0.8594565391540527 0.05636952072381973 0.5846589207649231
v -0.9608293771743774 0.03049510158598423 0.6061743497848511
v -0.8594565391540527 0.05636952072381973 0.5846589207649231
v -0.9608293771743774 0.028195153921842575 0.6047400236129761
v -0.8594565391540527 0.05636952072381973 0.5846589207649231
v -0.9608293771743774 0.02647019363939762 0.6028275489807129
v -0.8594565391540527 0.05636952072381973 0.5846589207649231
v -0.9608293771743774 0.024745233356952667 0.6009150147438049
v -0.8594565391540527 0.05636952072381973 0.5846589207649231
v -0.9608293771743774 0.023595258593559265 0.5985244512557983
v -0.8594565391540527 0.05636952072381973 0.5846589207649231
v -0.9608293771743774 0.022445283830165863 0.5966119170188904
v -0.8594565391540527 0.05636952072381973 0.5846589207649231
v -0.9608293771743774 0.02129530906677246 0.5942213535308838
v -0.8594565391540527 0.05636952072381973 0.5846589207649231
v -0.9608293771743774 0.02072032354772091 0.5918307304382324
v -0.8594565391540527 0.05636952072381973 0.5846589207649231
v -0.9608293771743774 0.020145338028669357 0.589440107345581
v -0.8594565391540527 0.05636952072381973 0.5846589207649231
v -0.9608293771743774 0.019570348784327507 0.5870495438575745
v -0.8594565391540527 0.05636952072381973 0.5846589207649231
v -0.8594565391540527 0.05636952072381973 0.5846589207649231
vn -1522.4505615234375 -0.00002488308928150218 2.627124547958374
vn -1522.4505615234375 -0.00002488308928150218 2.627124547958374
vn -1522.4505615234375 -0.00002488308928150218 2.627124547958374
vn -1522.4505615234375 -0.00002488308928150218 2.627124547958374
vn -1522.4505615234375 -0.00002488308928150218 2.627124547958374
vn -1522.4505615234375 -0.00002488308928150218 2.627124547958374
vn -1522.4505615234375 -0.00002488308928150218 2.627124547958374
vn -1522.4505615234375 -0.00002488308928150218 2.627124547958374
vn -1522.4505615234375 -0.00002488308928150218 2.627124547958374
vn -1522.4505615234375 -0.00002488308928150218 2.627124547958374
vn -1522.4505615234375 -0.00002488308928150218 2.627124547958374
vn -1522.4505615234375 -0.00002488308928150218 2.627124547958374
vn -1522.4505615234375 -0.00002488308928150218 2.627124547958374
vn -1522.4505615234375 -0.00002488308928150218 2.627124547958374
vn -1522.4505615234375 -0.00002488308928150218 2.627124547958374
vn -1522.4505615234375 -0.00002488308928150218 2.627124547958374
vn -1522.4505615234375 -0.00002488308928150218 2.627124547958374
vn -1522.4505615234375 -0.00002488308928150218 2.627124547958374
vn -1522.4505615234375 -0.00002488308928150218 2.627124547958374
vn -1522.4505615234375 -0.00002488308928150218 2.627124547958374
vn -1522.4505615234375 -0.00002488308928150218 2.627124547958374
vn -1522.4505615234375 -0.00002488308928150218 2.627124547958374
vn -1522.4505615234375 -0.00002488308928150218 2.627124547958374
vn -1522.4505615234375 -0.00002488308928150218 2.627124547958374
vn -1522.4505615234375 -0.00002488308928150218 2.627124547958374
vn -1522.4505615234375 -0.00002488308928150218 2.627124547958374
vn -1522.4505615234375 -0.00002488308928150218 2.627124547958374
vn -1522.4505615234375 -0.00002488308928150218 2.627124547958374
vn -1522.4505615234375 -0.00002488308928150218 2.627124547958374
vn -1522.4505615234375 -0.00002488308928150218 2.627124547958374
vn -1522.4505615234375 -0.00002488308928150218 2.627124547958374
vn -1522.4505615234375 -0.00002488308928150218 2.627124547958374
vn -1522.4505615234375 -0.00002488308928150218 2.627124547958374
vn -1522.4505615234375 -0.00002488308928150218 2.627124547958374
vn -1522.4505615234375 -0.00002488308928150218 2.627124547958374
vn -1522.4505615234375 -0.00002488308928150218 2.627124547958374
vn -1522.4505615234375 -0.00002488308928150218 2.627124547958374
vn -1522.4505615234375 -0.00002488308928150218 2.627124547958374
vn -1522.4505615234375 -0.00002488308928150218 2.627124547958374
vn -1522.4505615234375 -0.00002488308928150218 2.627124547958374
vn -1522.4505615234375 -0.00002488308928150218 2.627124547958374
vn -1522.4505615234375 -0.00002488308928150218 2.627124547958374
vn -1522.4505615234375 -0.00002488308928150218 2.627124547958374
vn -1522.4505615234375 -0.00002488308928150218 2.627124547958374
vn -1522.4505615234375 -0.00002488308928150218 2.627124547958374
vn -1522.4505615234375 -0.00002488308928150218 2.627124547958374
vn -1522.4505615234375 -0.00002488308928150218 2.627124547958374
vn -1522.4505615234375 -0.00002488308928150218 2.627124547958374
vn -1522.4505615234375 -0.00002488308928150218 2.627124547958374
vn -1522.4505615234375 -0.00002488308928150218 2.627124547958374
vn -1522.4505615234375 -0.00002488308928150218 2.627124547958374
vn -1522.4505615234375 -0.00002488308928150218 2.627124547958374
vn -1522.4505615234375 -0.00002488308928150218 2.627124547958374
vn -1522.4505615234375 -0.00002488308928150218 2.627124547958374
vn -1522.4505615234375 -0.00002488308928150218 2.627124547958374
vn -1522.4505615234375 -0.00002488308928150218 2.627124547958374
vn -1522.4505615234375 -0.00002488308928150218 2.627124547958374
vn -1522.4505615234375 -0.00002488308928150218 2.627124547958374
vn -1522.4505615234375 -0.00002488308928150218 2.627124547958374
vn -1522.4505615234375 -0.00002488308928150218 2.627124547958374
vn -1522.4505615234375 -0.00002488308928150218 2.627124547958374
vn -1522.4505615234375 -0.00002488308928150218 2.627124547958374
vn -1522.4505615234375 -0.00002488308928150218 2.627124547958374
vn -1522.4505615234375 -0.00002488308928150218 2.627124547958374
vn -1522.4505615234375 -0.00002488308928150218 2.627124547958374
vn -1522.4505615234375 -0.00002488308928150218 2.627124547958374
vn -1522.4505615234375 -0.00002488308928150218 2.627124547958374
vn -1522.4505615234375 -0.00002488308928150218 2.627124547958374
vn -1522.4505615234375 -0.00002488308928150218 2.627124547958374
vn -1522.4505615234375 -0.00002488308928150218 2.627124547958374
vn -1522.4505615234375 -0.00002488308928150218 2.627124547958374
vn -1522.4505615234375 -0.00002488308928150218 2.627124547958374
vn -1522.4505615234375 -0.00002488308928150218 2.627124547958374
vn -1522.4505615234375 -0.00002488308928150218 2.627124547958374
vn -1522.4505615234375 -0.00002488308928150218 2.627124547958374
vn -1522.4505615234375 -0.00002488308928150218 2.627124547958374
vn -1522.4505615234375 -0.00002488308928150218 2.627124547958374
vn -1522.4505615234375 -0.00002488308928150218 2.627124547958374
vn -1522.4505615234375 -0.00002488308928150218 2.627124547958374
vn -1522.4505615234375 -0.00002488308928150218 2.627124547958374
vn -1522.4505615234375 -0.00002488308928150218 2.627124547958374
vn 352.9744873046875 -969.7484741210938 -91.86614990234375
vn 353.1726989746094 -972.7190551757812 2.627347946166992
vn 352.9744873046875 -969.7484741210938 -91.86614990234375
vn 352.9156188964844 -961.1000366210938 -180.59840393066406
vn 352.9156188964844 -961.1000366210938 -180.59840393066406
vn 353.0848388671875 -945.7850341796875 -273.4542541503906
vn 353.0848388671875 -945.7850341796875 -273.4542541503906
vn 352.8258972167969 -925.67578125 -359.60870361328125
vn 352.8258972167969 -925.67578125 -359.60870361328125
vn 352.619140625 -898.4265747070312 -448.659423828125
vn 352.619140625 -898.4265747070312 -448.659423828125
vn 352.2852478027344 -867.2164306640625 -530.2251586914062
vn 352.2852478027344 -867.2164306640625 -530.2251586914062
vn 352.342041015625 -828.421630859375 -613.3922119140625
vn 352.342041015625 -828.421630859375 -613.3922119140625
vn 351.6829528808594 -786.7046508789062 -688.4652099609375
vn 351.6829528808594 -786.7046508789062 -688.4652099609375
vn 350.9966735839844 -740.093994140625 -759.741455078125
vn 350.9966735839844 -740.093994140625 -759.741455078125
vn 350.3662109375 -688.7191772460938 -826.82763671875
vn 350.3662109375 -688.7191772460938 -826.82763671875
vn 349.30255126953125 -632.8176879882812 -889.3540649414062
vn 349.30255126953125 -632.8176879882812 -889.3540649414062
vn 348.45257568359375 -572.320068359375 -946.9756469726562
vn 348.45257568359375 -572.320068359375 -946.9756469726562
vn 346.6971435546875 -511.4730529785156 -996.4424438476562
vn 346.6971435546875 -511.4730529785156 -996.4424438476562
vn 353.8758850097656 -439.1195983886719 -1043.6617431640625
vn 353.8758850097656 -439.1195983886719 -1043.6617431640625
vn 349.7796325683594 -374.00946044921875 -1080.5537109375
vn 349.7796325683594 -374.00946044921875 -1080.5537109375
vn 353.1094970703125 -299.933349609375 -1112.8057861328125
vn 353.1094970703125 -299.933349609375 -1112.8057861328125
vn 351.564453125 -224.22479248046875 -1138.598876953125
vn 351.564453125 -224.22479248046875 -1138.598876953125
vn 350.7898864746094 -151.963134765625 -1155.8812255859375
vn 350.7898864746094 -151.963134765625 -1155.8812255859375
vn 350.04656982421875 -76.2988052368164 -1166.775390625
vn 350.04656982421875 -76.2988052368164 -1166.775390625
vn 349.4120178222656 1.8875179290771484 -1170.493896484375
vn 349.4120178222656 1.8875179290771484 -1170.493896484375
vn 351.8193054199219 72.69599914550781 -1166.775390625
vn 351.8193054199219 72.69599914550781 -1166.775390625
vn 347.5830383300781 155.10971069335938 -1155.8812255859375
vn 347.5830383300781 155.10971069335938 -1155.8812255859375
vn 347.5235290527344 226.92628479003906 -1138.598876953125
vn 347.5235290527344 226.92628479003906 -1138.598876953125
vn 348.537841796875 302.2315673828125 -1112.8057861328125
vn 348.537841796875 302.2315673828125 -1112.8057861328125
vn 354.6676025390625 372.0181884765625 -1080.5537109375
vn 354.6676025390625 372.0181884765625 -1080.5537109375
vn 348.7802734375 440.875 -1043.6617431640625
vn 348.7802734375 440.875 -1043.6617431640625
vn 351.9501037597656 509.9228820800781 -996.4424438476562
vn 351.9501037597656 509.9228820800781 -996.4424438476562
vn 348.4525451660156 572.3201293945312 -946.9756469726562
vn 348.4525451660156 572.3201293945312 -946.9756469726562
vn 349.3025207519531 632.8176879882812 -889.3540649414062
vn 349.3025207519531 632.8176879882812 -889.3540649414062
vn 350.3662109375 688.71923828125 -826.82763671875
vn 350.3662109375 688.71923828125 -826.82763671875
vn 345.5044250488281 741.2081298828125 -759.741455078125
vn 345.5044250488281 741.2081298828125 -759.741455078125
vn 351.68292236328125 786.7046508789062 -688.4652099609375
vn 351.68292236328125 786.7046508789062 -688.4652099609375
vn 346.7969665527344 829.4305419921875 -613.3922119140625
vn 346.7969665527344 829.4305419921875 -613.3922119140625
vn 346.72943115234375 868.181884765625 -530.2251586914062
vn 346.72943115234375 868.181884765625 -530.2251586914062
vn 352.6191101074219 898.4265747070312 -448.659423828125
vn 352.6191101074219 898.4265747070312 -448.659423828125
vn 352.82586669921875 925.6758422851562 -359.60870361328125
vn 352.82586669921875 925.6758422851562 -359.60870361328125
vn 353.0848083496094 945.7850341796875 -273.4542541503906
vn 353.0848083496094 945.7850341796875 -273.4542541503906
vn 347.3275146484375 961.9779052734375 -180.59840393066406
vn 347.3275146484375 961.9779052734375 -180.59840393066406
vn 352.9744567871094 969.7484741210938 -91.86614990234375
vn 352.9744567871094 969.7484741210938 -91.86614990234375
vn 353.17266845703125 972.7190551757812 2.627347946166992
vn 353.17266845703125 972.7190551757812 2.627347946166992
vn 352.97442626953125 969.7484741210938 91.8662338256836
vn 352.97442626953125 969.7484741210938 91.8662338256836
vn 347.3274841308594 961.9779052734375 180.59849548339844
vn 347.3274841308594 961.9779052734375 180.59849548339844
vn 347.076904296875 946.7439575195312 273.4543151855469
vn 347.076904296875 946.7439575195312 273.4543151855469
vn 352.8258056640625 925.6758422851562 359.6087951660156
vn 352.8258056640625 925.6758422851562 359.6087951660156
vn 346.61016845703125 899.434814453125 448.6595153808594
vn 346.61016845703125 899.434814453125 448.6595153808594
vn 346.72930908203125 868.181884765625 530.2252197265625
vn 346.72930908203125 868.181884765625 530.2252197265625
vn 351.86199951171875 828.5096435546875 613.3922729492188
vn 351.86199951171875 828.5096435546875 613.3922729492188
vn 345.6683654785156 787.8538818359375 688.46533203125
vn 345.6683654785156 787.8538818359375 688.46533203125
vn 350.4697265625 740.2017211914062 759.7415161132812
vn 350.4697265625 740.2017211914062 759.7415161132812
vn 355.2480773925781 687.639404296875 826.8277587890625
vn 355.2480773925781 687.639404296875 826.8277587890625
vn 354.09588623046875 631.667236328125 889.3541259765625
vn 354.09588623046875 631.667236328125 889.3541259765625
vn 347.16217041015625 572.6582641601562 946.9757690429688
vn 347.16217041015625 572.6582641601562 946.9757690429688
vn 350.5341796875 510.34344482421875 996.4425048828125
vn 350.5341796875 510.34344482421875 996.4425048828125
vn 347.22894287109375 441.40289306640625 1043.6617431640625
vn 347.22894287109375 441.40289306640625 1043.6617431640625
vn 348.9220275878906 374.3548583984375 1080.5538330078125
vn 348.9220275878906 374.3548583984375 1080.5538330078125
vn 346.6527404785156 303.16534423828125 1112.805908203125
vn 346.6527404785156 303.16534423828125 1112.805908203125
vn 345.4923400878906 228.2602996826172 1138.5989990234375
vn 345.4923400878906 228.2602996826172 1138.5989990234375
vn 351.9530334472656 150.798095703125 1155.88134765625
vn 351.9530334472656 150.798095703125 1155.88134765625
vn 350.4112548828125 75.57262420654297 1166.7755126953125
vn 350.4112548828125 75.57262420654297 1166.7755126953125
vn 349.423583984375 0.000005710963250749046 1170.493896484375
vn 349.423583984375 0.000005710963250749046 1170.493896484375
vn 348.5887756347656 -79.12537384033203 1166.7755126953125
vn 348.5887756347656 -79.12537384033203 1166.7755126953125
vn 348.79827880859375 -153.9280242919922 1155.88134765625
vn 348.79827880859375 -153.9280242919922 1155.88134765625
vn 349.5272521972656 -225.59451293945312 1138.5989990234375
vn 349.5272521972656 -225.59451293945312 1138.5989990234375
vn 351.2098388671875 -300.8939514160156 1112.805908203125
vn 351.2098388671875 -300.8939514160156 1112.805908203125
vn 348.9220275878906 -374.3548278808594 1080.5538330078125
vn 348.9220275878906 -374.3548278808594 1080.5538330078125
vn 352.3061828613281 -439.6637268066406 1043.6617431640625
vn 352.3061828613281 -439.6637268066406 1043.6617431640625
vn 355.7530822753906 -508.7829895019531 996.4425048828125
vn 355.7530822753906 -508.7829895019531 996.4425048828125
vn 347.16217041015625 -572.6582641601562 946.9757690429688
vn 347.16217041015625 -572.6582641601562 946.9757690429688
vn 348.7049560546875 -632.9598388671875 889.3541259765625
vn 348.7049560546875 -632.9598388671875 889.3541259765625
vn 349.8070983886719 -688.841796875 826.8277587890625
vn 349.8070983886719 -688.841796875 826.8277587890625
vn 350.4697570800781 -740.2017211914062 759.7415161132812
vn 350.4697570800781 -740.2017211914062 759.7415161132812
vn 351.18194580078125 -786.8012084960938 688.46533203125
vn 351.18194580078125 -786.8012084960938 688.46533203125
vn 351.8620300292969 -828.5096435546875 613.3922729492188
vn 351.8620300292969 -828.5096435546875 613.3922729492188
vn 352.2851257324219 -867.2164306640625 530.2252197265625
vn 352.2851257324219 -867.2164306640625 530.2252197265625
vn 352.1725769042969 -898.5020751953125 448.6595153808594
vn 352.1725769042969 -898.5020751953125 448.6595153808594
vn 352.8258361816406 -925.67578125 359.6087951660156
vn 352.8258361816406 -925.67578125 359.6087951660156
vn 352.6578063964844 -945.853759765625 273.4543151855469
vn 352.6578063964844 -945.853759765625 273.4543151855469
vn 352.91558837890625 -961.1000366210938 180.59849548339844
vn 352.91558837890625 -961.1000366210938 180.59849548339844
vn 352.9744567871094 -969.7484741210938 91.8662338256836
vn 352.9744567871094 -969.7484741210938 91.8662338256836
vn 353.1726989746094 -972.7190551757812 2.627347946166992
s on
f 1//1 2//2 3//3
f 3//3 2//2 4//4
f 4//4 2//2 5//5
f 5//5 2//2 6//6
f 6//6 2//2 7//7
f 7//7 2//2 8//8
f 8//8 2//2 9//9
f 2//2 10//10 9//9
f 1//1 11//11 2//2
f 11//11 12//12 2//2
f 12//12 13//13 2//2
f 13//13 14//14 2//2
f 14//14 15//15 2//2
f 15//15 16//16 2//2
f 16//16 17//17 2//2
f 17//17 18//18 2//2
f 18//18 19//19 2//2
f 19//19 20//20 2//2
f 20//20 21//21 2//2
f 21//21 22//22 2//2
f 2//2 22//22 23//23
f 10//10 2//2 24//24
f 24//24 2//2 25//25
f 25//25 2//2 26//26
f 26//26 2//2 27//27
f 27//27 2//2 28//28
f 28//28 2//2 29//29
f 29//29 2//2 30//30
f 30//30 2//2 31//31
f 31//31 2//2 32//32
f 32//32 2//2 33//33
f 33//33 2//2 34//34
f 34//34 2//2 35//35
f 2//2 36//36 35//35
f 23//23 37//37 2//2
f 37//37 38//38 2//2
f 38//38 39//39 2//2
f 39//39 40//40 2//2
f 40//40 41//41 2//2
f 41//41 42//42 2//2
f 42//42 43//43 2//2
f 43//43 44//44 2//2
f 44//44 45//45 2//2
f 45//45 46//46 2//2
f 46//46 47//47 2//2
f 47//47 48//48 2//2
f 2//2 48//48 49//49
f 36//36 2//2 50//50
f 50//50 2//2 51//51
f 51//51 2//2 52//52
f 52//52 2//2 53//53
f 53//53 2//2 54//54
f 54//54 2//2 55//55
f 55//55 2//2 56//56
f 56//56 2//2 57//57
f 57//57 2//2 58//58
f 58//58 2//2 59//59
f 59//59 2//2 60//60
f 60//60 2//2 61//61
f 2//2 62//62 61//61
f 49//49 63//63 2//2
f 63//63 64//64 2//2
f 64//64 65//65 2//2
f 65//65 66//66 2//2
f 66//66 67//67 2//2
f 67//67 68//68 2//2
f 68//68 69//69 2//2
f 69//69 70//70 2//2
f 70//70 71//71 2//2
f 71//71 72//72 2//2
f 72//72 73//73 2//2
f 73//73 74//74 2//2
f 74//74 75//75 2//2
f 75//75 76//76 2//2
f 76//76 77//77 2//2
f 77//77 78//78 2//2
f 78//78 79//79 2//2
f 79//79 80//80 2//2
f 80//80 81//81 2//2
f 2//2 81//81 62//62
f 82//82 84//84 83//83
f 85//85 86//86 82//82
f 87//87 88//88 85//85
f 89//89 90//90 87//87
f 91//91 92//92 89//89
f 93//93 94//94 91//91
f 95//95 96//96 93//93
f 97//97 98//98 95//95
f 99//99 100//100 97//97
f 101//101 102//102 99//99
f 103//103 104//104 101//101
f 105//105 106//106 103//103
f 107//107 108//108 105//105
f 109//109 110//110 107//107
f 111//111 112//112 109//109
f 113//113 114//114 111//111
f 115//115 116//116 113//113
f 117//117 118//118 115//115
f 119//119 120//120 117//117
f 121//121 122//122 119//119
f 123//123 124//124 121//121
f 125//125 126//126 123//123
f 127//127 128//128 125//125
f 129//129 130//130 127//127
f 131//131 132//132 129//129
f 133//133 134//134 131//131
f 135//135 136//136 133//133
f 137//137 138//138 135//135
f 139//139 140//140 137//137
f 141//141 142//142 139//139
f 143//143 144//144 141//141
f 145//145 146//146 143//143
f 147//147 148//148 145//145
f 149//149 150//150 147//147
f 151//151 152//152 149//149
f 153//153 154//154 151//151
f 155//155 156//156 153//153
f 157//157 158//158 155//155
f 159//159 160//160 157//157
f 161//161 162//162 159//159
f 163//163 164//164 161//161
f 165//165 166//166 163//163
f 167//167 168//168 165//165
f 169//169 170//170 167//167
f 171//171 172//172 169//169
f 173//173 174//174 171//171
f 175//175 176//176 173//173
f 177//177 178//178 175//175
f 179//179 180//180 177//177
f 181//181 182//182 179//179
f 183//183 184//184 181//181
f 185//185 186//186 183//183
f 187//187 188//188 185//185
f 189//189 190//190 187//187
f 191//191 192//192 189//189
f 193//193 194//194 191//191
f 195//195 196//196 193//193
f 197//197 198//198 195//195
f 199//199 200//200 197//197
f 201//201 202//202 199//199
f 203//203 204//204 201//201
f 205//205 206//206 203//203
f 207//207 208//208 205//205
f 209//209 210//210 207//207
f 211//211 212//212 209//209
f 213//213 214//214 211//211
f 215//215 216//216 213//213
f 217//217 218//218 215//215
f 219//219 220//220 217//217
f 221//221 222//222 219//219
f 223//223 224//224 221//221
f 225//225 226//226 223//223
f 227//227 228//228 225//225
f 229//229 230//230 227//227
f 231//231 232//232 229//229
f 233//233 234//234 231//231
f 235//235 236//236 233//233
f 237//237 238//238 235//235
f 239//239 240//240 237//237
f 83//83 241//241 239//239

