# Exported by Sketchfab Model Ripper robust edition
o model_17
v -1.0137887001037598 0.7731267809867859 0.460476815700531
v -1.0137887001037598 -0.32011091709136963 0.46047672629356384
v -1.0137888193130493 -0.32011085748672485 0.7893427610397339
v -1.0137887001037598 0.7731267809867859 0.460476815700531
v -1.0137887001037598 0.7731267809867859 0.7893428206443787
v -1.0137888193130493 -0.32011085748672485 0.7893427610397339
v -0.9608335494995117 0.7731267809867859 0.460476815700531
v -0.9608336091041565 0.7731267809867859 0.7893428206443787
v -0.9608335494995117 -0.32011091709136963 0.46047672629356384
v -0.9608336687088013 -0.32011088728904724 0.7893427610397339
v -1.0137887001037598 0.7731267809867859 0.460476815700531
v -1.0137887001037598 0.7731267809867859 0.7893428206443787
v -0.9608335494995117 0.7731267809867859 0.460476815700531
v -0.9608336091041565 0.7731267809867859 0.7893428206443787
v -0.9608335494995117 -0.32011091709136963 0.46047672629356384
v -0.9608336687088013 -0.32011088728904724 0.7893427610397339
v -1.0137887001037598 -0.32011091709136963 0.46047672629356384
v -1.0137888193130493 -0.32011085748672485 0.7893427610397339
v -1.0137887001037598 0.7731267809867859 0.460476815700531
v -0.9608335494995117 0.7731267809867859 0.460476815700531
v -1.0137887001037598 -0.32011091709136963 0.46047672629356384
v -0.9608335494995117 -0.32011091709136963 0.46047672629356384
v -0.9608336091041565 0.7731267809867859 0.7893428206443787
v -1.0137887001037598 0.7731267809867859 0.7893428206443787
v -0.9608336687088013 -0.32011088728904724 0.7893427610397339
v -1.0137888193130493 -0.32011085748672485 0.7893427610397339
vn -99.6185531616211 0.0000036001249554828973 -0.00002350651084270794
vn -99.6185531616211 0.0000036001249554828973 -0.00002350651084270794
vn -99.6185531616211 0.0000036001249554828973 -0.00002350651084270794
vn -99.6185531616211 0.0000036001249554828973 -0.00002350651084270794
vn -99.6185531616211 0.0000036001249554828973 -0.00002350651084270794
vn -99.6185531616211 0.0000036001249554828973 -0.00002350651084270794
vn 99.6185531616211 -0.0000036001649732497754 0.00002350651084270794
vn 99.6185531616211 -0.0000036001649732497754 0.00002350651084270794
vn 99.6185531616211 -0.0000036001649732497754 0.00002350651084270794
vn 99.6185531616211 -0.0000036001649732497754 0.00002350651084270794
vn 0.2176533192396164 193.86534118652344 -0.000026310250177630223
vn 0.2176533192396164 193.86534118652344 -0.000026310250177630223
vn 0.2176533192396164 193.86534118652344 -0.000026310250177630223
vn 0.2176533192396164 193.86534118652344 -0.000026310250177630223
vn 0.21761882305145264 -193.86534118652344 0.000026412963052280247
vn 0.21761882305145264 -193.86534118652344 0.000026412963052280247
vn 0.21761882305145264 -193.86534118652344 0.000026412963052280247
vn 0.21761882305145264 -193.86534118652344 0.000026412963052280247
vn 0.21763703227043152 0.0000011733297924365615 -16.040882110595703
vn 0.21763703227043152 0.0000011733297924365615 -16.040882110595703
vn 0.21763703227043152 0.0000011733297924365615 -16.040882110595703
vn 0.21763703227043152 0.0000011733297924365615 -16.040882110595703
vn 0.21763509511947632 -0.0000011890202813447104 16.040882110595703
vn 0.21763509511947632 -0.0000011890202813447104 16.040882110595703
vn 0.21763509511947632 -0.0000011890202813447104 16.040882110595703
vn 0.21763509511947632 -0.0000011890202813447104 16.040882110595703
vt 0.18582940101623535 0.01873890683054924
vt 0.1521623432636261 0.9557482004165649
vt 0.18523955345153809 0.9591661691665649
vt 0.0000026412299121147953 0.023743776604533195
vt 0.03067505918443203 0.03448593616485596
vt 0.004449234344065189 0.9999375939369202
vt 0.12938489019870758 0.01983753778040409
vt 0.07312187552452087 0.01825062744319439
vt 0.10683431476354599 0.9555040597915649
vt 0.0733487457036972 0.9584337472915649
vt 0.0000026412299121147953 0.023743776604533195
vt 0.03067505918443203 0.03448593616485596
vt 0.036482855677604675 0.00006219740316737443
vt 0.07062634080648422 0.021912727504968643
vt 0.10279607772827148 0.9619737863540649
vt 0.07230515778064728 0.9619737863540649
vt 0.10279607772827148 0.9924913048744202
vt 0.07230515778064728 0.9924913048744202
vt 0.18582940101623535 0.01873890683054924
vt 0.12938489019870758 0.01983753778040409
vt 0.1521623432636261 0.9557482004165649
vt 0.10683431476354599 0.9555040597915649
vt 0.07062634080648422 0.021912727504968643
vt 0.03067505918443203 0.03448593616485596
vt 0.06942394375801086 0.9856553673744202
vt 0.004449234344065189 0.9999375939369202
s on
f 1/1/1 2/2/2 3/3/3
f 4/4/4 6/6/6 5/5/5
f 7/7/7 8/8/8 9/9/9
f 8/8/8 10/10/10 9/9/9
f 11/11/11 12/12/12 13/13/13
f 12/12/12 14/14/14 13/13/13
f 15/15/15 16/16/16 17/17/17
f 16/16/16 18/18/18 17/17/17
f 19/19/19 20/20/20 21/21/21
f 20/20/20 22/22/22 21/21/21
f 23/23/23 24/24/24 25/25/25
f 24/24/24 26/26/26 25/25/25

