# Exported by Sketchfab Model Ripper robust edition
o model_14
v -0.969678521156311 0.7635377645492554 0.45883259177207947
v 0.05860519036650658 0.07521991431713104 0.4588325619697571
v 0.05860519036650658 0.07521999627351761 0.7910054922103882
v -0.969678521156311 0.7635377645492554 0.45883259177207947
v -0.969678521156311 0.7635378241539001 0.7910054922103882
v 0.05860519036650658 0.07521999627351761 0.7910054922103882
v -0.9619323015213013 0.8201452493667603 0.45883259177207947
v -0.9619323015213013 0.8201453685760498 0.7910054922103882
v 0.06635145097970963 0.1318274587392807 0.4588325619697571
v 0.06635145097970963 0.13182753324508667 0.7910054922103882
v -0.969678521156311 0.7635377645492554 0.45883259177207947
v -0.969678521156311 0.7635378241539001 0.7910054922103882
v -0.9619323015213013 0.8201452493667603 0.45883259177207947
v -0.9619323015213013 0.8201453685760498 0.7910054922103882
v 0.06635145097970963 0.1318274587392807 0.4588325619697571
v 0.06635145097970963 0.13182753324508667 0.7910054922103882
v 0.05860519036650658 0.07521991431713104 0.4588325619697571
v 0.05860519036650658 0.07521999627351761 0.7910054922103882
v -0.969678521156311 0.7635377645492554 0.45883259177207947
v -0.9619323015213013 0.8201452493667603 0.45883259177207947
v 0.05860519036650658 0.07521991431713104 0.4588325619697571
v 0.06635145097970963 0.1318274587392807 0.4588325619697571
v -0.9619323015213013 0.8201453685760498 0.7910054922103882
v -0.969678521156311 0.7635378241539001 0.7910054922103882
v 0.06635145097970963 0.13182753324508667 0.7910054922103882
v 0.05860519036650658 0.07521999627351761 0.7910054922103882
vn -57.1461067199707 -85.37104797363281 0.0000219101675611455
vn -57.1461067199707 -85.37104797363281 0.0000219101675611455
vn -57.1461067199707 -85.37104797363281 0.0000219101675611455
vn -57.1461067199707 -85.37104797363281 0.0000219101675611455
vn -57.1461067199707 -85.37104797363281 0.0000219101675611455
vn -57.1461067199707 -85.37104797363281 0.0000219101675611455
vn 57.1461067199707 85.37104797363281 -0.0000219101675611455
vn 57.1461067199707 85.37104797363281 -0.0000219101675611455
vn 57.1461067199707 85.37104797363281 -0.0000219101675611455
vn 57.1461067199707 85.37104797363281 -0.0000219101675611455
vn -188.6909942626953 26.02435302734375 -0.000008070939657045528
vn -188.6909942626953 26.02435302734375 -0.000008070939657045528
vn -188.6909942626953 26.02435302734375 -0.000008070939657045528
vn -188.6909942626953 26.02435302734375 -0.000008070939657045528
vn 188.94068908691406 -25.651334762573242 0.000007975208973221015
vn 188.94068908691406 -25.651334762573242 0.000007975208973221015
vn 188.94068908691406 -25.651334762573242 0.000007975208973221015
vn 188.94068908691406 -25.651334762573242 0.000007975208973221015
vn 0.12484686821699142 0.18651044368743896 -15.881189346313477
vn 0.12484686821699142 0.18651044368743896 -15.881189346313477
vn 0.12484686821699142 0.18651044368743896 -15.881189346313477
vn 0.12484686821699142 0.18651044368743896 -15.881189346313477
vn 0.12484666705131531 0.18650878965854645 15.881189346313477
vn 0.12484666705131531 0.18650878965854645 15.881189346313477
vn 0.12484666705131531 0.18650878965854645 15.881189346313477
vn 0.12484666705131531 0.18650878965854645 15.881189346313477
vt 0.18582940101623535 0.01873890683054924
vt 0.1521623432636261 0.9557482004165649
vt 0.18523955345153809 0.9591661691665649
vt 0.0000026412299121147953 0.023743776604533195
vt 0.03067505918443203 0.03448593616485596
vt 0.004449234344065189 0.9999375939369202
vt 0.12938489019870758 0.01983753778040409
vt 0.07312187552452087 0.01825062744319439
vt 0.10683431476354599 0.9555040597915649
vt 0.0733487457036972 0.9584337472915649
vt 0.0000026412299121147953 0.023743776604533195
vt 0.03067505918443203 0.03448593616485596
vt 0.036482855677604675 0.00006219740316737443
vt 0.07062634080648422 0.021912727504968643
vt 0.10279607772827148 0.9619737863540649
vt 0.07230515778064728 0.9619737863540649
vt 0.10279607772827148 0.9924913048744202
vt 0.07230515778064728 0.9924913048744202
vt 0.18582940101623535 0.01873890683054924
vt 0.12938489019870758 0.01983753778040409
vt 0.1521623432636261 0.9557482004165649
vt 0.10683431476354599 0.9555040597915649
vt 0.07062634080648422 0.021912727504968643
vt 0.03067505918443203 0.03448593616485596
vt 0.06942394375801086 0.9856553673744202
vt 0.004449234344065189 0.9999375939369202
s on
f 1/1/1 2/2/2 3/3/3
f 4/4/4 6/6/6 5/5/5
f 7/7/7 8/8/8 9/9/9
f 8/8/8 10/10/10 9/9/9
f 11/11/11 12/12/12 13/13/13
f 12/12/12 14/14/14 13/13/13
f 15/15/15 16/16/16 17/17/17
f 16/16/16 18/18/18 17/17/17
f 19/19/19 20/20/20 21/21/21
f 20/20/20 22/22/22 21/21/21
f 23/23/23 24/24/24 25/25/25
f 24/24/24 26/26/26 25/25/25

