# Exported by Sketchfab Model Ripper robust edition
o model_22
v -0.9828259348869324 0.0606750063598156 0.5887420773506165
v -0.983794629573822 0.0606750063598156 0.5834285020828247
v -0.982947051525116 0.05807796120643616 0.5883031487464905
v -0.9830681085586548 0.05592775344848633 0.5869863629341125
v -0.9802829623222351 0.055536821484565735 0.5929005742073059
v -0.9804040789604187 0.05134810134768486 0.5903823375701904
v -0.9758024215698242 0.05321907252073288 0.5970590114593506
v -0.9755602478981018 0.06050746515393257 0.5983296632766724
v -0.9695055484771729 0.06039576977491379 0.6021184325218201
v -0.9800407290458679 0.060619160532951355 0.5938015580177307
v -0.9830681085586548 0.054587360471487045 0.5850688219070435
v -0.9830681085586548 0.054308123886585236 0.582874059677124
v -0.9805251359939575 0.04875105619430542 0.5866398215293884
v -0.9760445952415466 0.04718727618455887 0.5934088230133057
v -0.9698687791824341 0.051236409693956375 0.600501298904419
v -0.9623609781265259 0.06022822856903076 0.6049832105636597
v -0.9627242684364319 0.04970052093267441 0.6031118631362915
v -0.9542475938796997 0.060060687363147736 0.6067389845848083
v -0.9701110124588013 0.043696675449609756 0.5959500670433044
v -0.9761657118797302 0.04347328469157219 0.588049054145813
v -0.9805251359939575 0.04822047799825668 0.5823426842689514
v -0.9830681085586548 0.05511793866753578 0.5807717442512512
v -0.982947051525116 0.056905169039964676 0.5791314840316772
v -0.982947051525116 0.059334613382816315 0.5782304406166077
v -0.9802829623222351 0.05327492207288742 0.5750423073768616
v -0.9801617860794067 0.058022111654281616 0.5732865333557129
v -0.9759235382080078 0.04997975379228592 0.5713690519332886
v -0.9756813645362854 0.05679347738623619 0.5688508152961731
v -0.9699899554252625 0.04718727618455887 0.5683194994926453
v -0.9696266055107117 0.05570436269044876 0.5651544332504272
v -0.9628453254699707 0.04500911384820938 0.5660092234611511
v -0.9624820947647095 0.05483870208263397 0.5623590350151062
v -0.9548531174659729 0.04358498007059097 0.5645768642425537
v -0.9544897675514221 0.05422438308596611 0.5606263279914856
v -0.9464975595474243 0.042998556047677994 0.5640917420387268
v -0.9460132122039795 0.05391719564795494 0.5600487589836121
v -0.7435432076454163 0.05436397343873978 0.5787618160247803
v -0.7436643242835999 0.05218581482768059 0.5795704126358032
v -0.7419689893722534 0.05224166065454483 0.5796627998352051
v -0.7418479323387146 0.05436397343873978 0.578877329826355
v -0.740273654460907 0.05246511101722717 0.5799400806427002
v -0.740273654460907 0.05441982299089432 0.5792238712310791
v -0.738820493221283 0.05282808840274811 0.5804020762443542
v -0.738820493221283 0.0545315183699131 0.5797783136367798
v -0.7376095652580261 0.05333077162504196 0.5810258984565735
v -0.7376095652580261 0.05469905957579613 0.580517590045929
v -0.7367619276046753 0.053945090621709824 0.5817651748657227
v -0.7366408705711365 0.05489455536007881 0.5813955068588257
v -0.7361564636230469 0.054671164602041245 0.5825737714767456
v -0.7361564636230469 0.05514589697122574 0.5823888778686523
v -0.7359142899513245 0.05539717897772789 0.5834285020828247
v -0.7361564636230469 0.054308127611875534 0.5828971862792969
v -0.7361564636230469 0.05414058640599251 0.58331298828125
v -0.7367619276046753 0.05327492579817772 0.5823888778686523
v -0.7367619276046753 0.05293984338641167 0.5832206010818481
v -0.7377306222915649 0.05232546105980873 0.5819500088691711
v -0.7389416098594666 0.051571495831012726 0.5815572142601013
v -0.7361564636230469 0.05419643223285675 0.5837519764900208
v -0.7367619276046753 0.05305153504014015 0.584075391292572
v -0.7377306222915649 0.051878683269023895 0.5831282138824463
v -0.7361564636230469 0.054447777569293976 0.5841447114944458
v -0.7361564636230469 0.05489455536007881 0.5843988060951233
v -0.7361564636230469 0.05542513355612755 0.5844912528991699
v -0.7367619276046753 0.05358211323618889 0.5848146677017212
v -0.7377306222915649 0.05204622447490692 0.5843526124954224
v -0.7389416098594666 0.051013022661209106 0.5830357670783997
v -0.7403947114944458 0.051013022661209106 0.581279993057251
v -0.7419689893722534 0.05067788064479828 0.5810951590538025
v -0.7403947114944458 0.05034279450774193 0.5829895734786987
v -0.7389416098594666 0.05118056386709213 0.5845836400985718
v -0.7376095652580261 0.05277223885059357 0.5854384303092957
v -0.7367619276046753 0.05441982299089432 0.585322916507721
v -0.7366408705711365 0.05542513355612755 0.5855077505111694
v -0.7376095652580261 0.05397304520010948 0.586154580116272
v -0.7376095652580261 0.05545302480459213 0.586408793926239
v -0.738820493221283 0.05363796278834343 0.5868476629257202
v -0.738820493221283 0.05548097938299179 0.5871711373329163
v -0.740273654460907 0.053386617451906204 0.5873790979385376
v -0.7401525378227234 0.05550893396139145 0.5877487063407898
v -0.7418479323387146 0.05324697121977806 0.5877025127410889
v -0.7418479323387146 0.05553682520985603 0.5880952477455139
v -0.7435432076454163 0.05321907624602318 0.5877948999404907
v -0.7435432076454163 0.05556477978825569 0.5882107615470886
v -0.9458921551704407 0.059893086552619934 0.60733962059021
v -0.9462553858757019 0.0481925867497921 0.6052834987640381
v -0.9547320604324341 0.048667315393686295 0.6047290563583374
v -0.9629664421081543 0.04098793491721153 0.5978444814682007
v -0.7389416098594666 0.05212996527552605 0.5859235525131226
v -0.9550952911376953 0.039228655397892 0.5990227460861206
v -0.9703531861305237 0.03900526836514473 0.5892041325569153
v -0.9632086157798767 0.03559846803545952 0.590082049369812
v -0.9761657118797302 0.042691364884376526 0.5818806290626526
v -0.9804040789604187 0.04981221258640289 0.5782535672187805
v -0.9760445952415466 0.0449812188744545 0.5759895443916321
v -0.9702321290969849 0.04093208536505699 0.5740951299667358
v -0.9630874991416931 0.03780452162027359 0.5726627707481384
v -0.9552164077758789 0.03579390421509743 0.5717848539352417
v -0.9467397332191467 0.03498408943414688 0.5714845657348633
v -0.7436643242835999 0.05059413984417915 0.5810489654541016
v -0.9703531861305237 0.03802791237831116 0.5814879536628723
v -0.9632086157798767 0.0344814658164978 0.5811875462532043
v -0.9552164077758789 0.03342030569911003 0.5906365513801575
v -0.9553374648094177 0.03219160810112953 0.5810027718544006
v -0.9468608498573303 0.031297992914915085 0.5809334516525269
v -0.7436643242835999 0.04984017089009285 0.5829433798789978
v -0.7419689893722534 0.04995186626911163 0.5829433798789978
v -0.7403947114944458 0.050566185265779495 0.5847684741020203
v -0.7403947114944458 0.05165529623627663 0.5863163471221924
v -0.7419689893722534 0.05137600004673004 0.5865473747253418
v -0.7436643242835999 0.051292259246110916 0.5866398215293884
v -0.9466186761856079 0.038530535995960236 0.5994386076927185
v -0.9468608498573303 0.03255464509129524 0.5908213257789612
v -0.7436643242835999 0.050091452896595 0.5849071145057678
v -0.7419689893722534 0.050203148275613785 0.584883987903595
v -0.983794629573822 0.0606750063598156 0.5834285020828247
v -0.9828259348869324 0.061987508088350296 0.5782304406166077
v -0.982947051525116 0.059334613382816315 0.5782304406166077
v -0.9801617860794067 0.058022111654281616 0.5732865333557129
v -0.9799196124076843 0.06318824738264084 0.5732865333557129
v -0.9756813645362854 0.05679347738623619 0.5688508152961731
v -0.9753180742263794 0.06424941122531891 0.5688508152961731
v -0.9696266055107117 0.05570436269044876 0.5651544332504272
v -0.9693844318389893 0.06505922228097916 0.5651544332504272
v -0.9624820947647095 0.05483870208263397 0.5623590350151062
v -0.9827048182487488 0.06441695243120193 0.5791314840316772
v -0.9825837016105652 0.06620412319898605 0.5807717442512512
v -0.9797985553741455 0.0679355040192604 0.5750423073768616
v -0.9796774387359619 0.07139815390110016 0.5782535672187805
v -0.9750758409500122 0.07103517651557922 0.5713690519332886
v -0.9825837016105652 0.0670139342546463 0.582874059677124
v -0.9825837016105652 0.06676265597343445 0.5850688219070435
v -0.9795563817024231 0.07301784306764603 0.5823426842689514
v -0.9749547243118286 0.07603371143341064 0.5759895443916321
v -0.969021201133728 0.07357631623744965 0.5683194994926453
v -0.9621187448501587 0.06561769545078278 0.5623590350151062
v -0.9544897675514221 0.05422438308596611 0.5606263279914856
v -0.9540054202079773 0.06589699536561966 0.5606263279914856
v -0.9460132122039795 0.05391719564795494 0.5600487589836121
v -0.9617554545402527 0.07544728368520737 0.5660092234611511
v -0.9687790274620056 0.07983150333166122 0.5740951299667358
v -0.9748336672782898 0.07832356542348862 0.5818806290626526
v -0.9795563817024231 0.07245931029319763 0.5866398215293884
v -0.9827048182487488 0.06542225927114487 0.5869863629341125
v -0.9827048182487488 0.06327205151319504 0.5883031487464905
v -0.9828259348869324 0.0606750063598156 0.5887420773506165
v -0.9797985553741455 0.06567354500293732 0.5929005742073059
v -0.9800407290458679 0.060619160532951355 0.5938015580177307
v -0.9751970171928406 0.06779585778713226 0.5970590114593506
v -0.9755602478981018 0.06050746515393257 0.5983296632766724
v -0.9691422581672668 0.06952717900276184 0.600501298904419
v -0.9695055484771729 0.06039576977491379 0.6021184325218201
v -0.9618765711784363 0.07075587660074234 0.6031118631362915
v -0.9623609781265259 0.06022822856903076 0.6049832105636597
v -0.9538843631744385 0.0714539960026741 0.6047290563583374
v -0.9542475938796997 0.060060687363147736 0.6067389845848083
v -0.9454076886177063 0.07156569510698318 0.6052834987640381
v -0.9458921551704407 0.059893086552619934 0.60733962059021
v -0.7435432076454163 0.05556477978825569 0.5882107615470886
v -0.7434221506118774 0.05791042372584343 0.5877948999404907
v -0.741726815700531 0.057798728346824646 0.5877025127410889
v -0.7418479323387146 0.05553682520985603 0.5880952477455139
v -0.7401525378227234 0.057603295892477036 0.5873790979385376
v -0.7401525378227234 0.05550893396139145 0.5877487063407898
v -0.7386994361877441 0.05729610472917557 0.5868476629257202
v -0.738820493221283 0.05548097938299179 0.5871711373329163
v -0.7374884486198425 0.056905172765254974 0.586154580116272
v -0.7376095652580261 0.05545302480459213 0.586408793926239
v -0.7366408705711365 0.05643044412136078 0.585322916507721
v -0.7366408705711365 0.05542513355612755 0.5855077505111694
v -0.7360353469848633 0.05592775717377663 0.5843988060951233
v -0.7361564636230469 0.05542513355612755 0.5844912528991699
v -0.7359142899513245 0.05539717897772789 0.5834285020828247
v -0.7360353469848633 0.05637459456920624 0.5841447114944458
v -0.7360353469848633 0.05662587657570839 0.5837519764900208
v -0.7366408705711365 0.05726815015077591 0.5848146677017212
v -0.7365196943283081 0.057798728346824646 0.584075391292572
v -0.7374884486198425 0.058105919510126114 0.5854384303092957
v -0.7386994361877441 0.05880403891205788 0.5859235525131226
v -0.7360353469848633 0.05668172612786293 0.58331298828125
v -0.7365196943283081 0.05791042372584343 0.5832206010818481
v -0.7374884486198425 0.05885988473892212 0.5843526124954224
v -0.7360353469848633 0.056514181196689606 0.5828971862792969
v -0.7360353469848633 0.05615120753645897 0.5825737714767456
v -0.7360353469848633 0.055676475167274475 0.5823888778686523
v -0.7361564636230469 0.05514589697122574 0.5823888778686523
v -0.7366408705711365 0.055955711752176285 0.5813955068588257
v -0.7366408705711365 0.05489455536007881 0.5813955068588257
v -0.7374884486198425 0.05617909878492355 0.580517590045929
v -0.7376095652580261 0.05469905957579613 0.580517590045929
v -0.7386994361877441 0.05640248954296112 0.5797783136367798
v -0.738820493221283 0.0545315183699131 0.5797783136367798
v -0.7401525378227234 0.05657003074884415 0.5792238712310791
v -0.740273654460907 0.05441982299089432 0.5792238712310791
v -0.741726815700531 0.05670967698097229 0.578877329826355
v -0.7418479323387146 0.05436397343873978 0.578877329826355
v -0.7434221506118774 0.05676552653312683 0.5787618160247803
v -0.7435432076454163 0.05436397343873978 0.5787618160247803
v -0.9456498622894287 0.06584108620882034 0.5600487589836121
v -0.7434221506118774 0.05894368886947632 0.5795704126358032
v -0.741726815700531 0.058831993490457535 0.5796627998352051
v -0.7401525378227234 0.05855269730091095 0.5799400806427002
v -0.7386994361877441 0.058105919510126114 0.5804020762443542
v -0.7374884486198425 0.057547446340322495 0.5810258984565735
v -0.7366408705711365 0.056877218186855316 0.5817651748657227
v -0.7366408705711365 0.05757534131407738 0.5823888778686523
v -0.7374884486198425 0.05899953469634056 0.5831282138824463
v -0.7374884486198425 0.05855269730091095 0.5819500088691711
v -0.7385783195495605 0.059362512081861496 0.5815572142601013
v -0.7400314807891846 0.05997689068317413 0.581279993057251
v -0.7416056990623474 0.060395773500204086 0.5810951590538025
v -0.7433010339736938 0.060535360127687454 0.5810489654541016
v -0.9451655149459839 0.07675972580909729 0.5640917420387268
v -0.9536421895027161 0.07653633505105972 0.5645768642425537
v -0.9615132808685303 0.08265187591314316 0.5726627707481384
v -0.9534000158309937 0.08432741463184357 0.5717848539352417
v -0.9449233412742615 0.0847741886973381 0.5714845657348633
v -0.7433010339736938 0.06128932908177376 0.5829433798789978
v -0.7416056990623474 0.06109389290213585 0.5829433798789978
v -0.7400314807891846 0.06064705550670624 0.5829895734786987
v -0.7385783195495605 0.059948936104774475 0.5830357670783997
v -0.7385783195495605 0.059753499925136566 0.5845836400985718
v -0.7400314807891846 0.05933461710810661 0.5863163471221924
v -0.7416056990623474 0.059697654098272324 0.5865473747253418
v -0.7400314807891846 0.06042366847395897 0.5847684741020203
v -0.7416056990623474 0.06087050586938858 0.584883987903595
v -0.7433010339736938 0.061038047075271606 0.5849071145057678
v -0.9448022842407227 0.0884602889418602 0.5809334516525269
v -0.9532788395881653 0.08792970329523087 0.5810027718544006
v -0.9613922238349915 0.08597499132156372 0.5811875462532043
v -0.9686578512191772 0.08273567259311676 0.5814879536628723
v -0.9748336672782898 0.07754164189100266 0.588049054145813
v -0.7433010339736938 0.05983724072575569 0.5866398215293884
v -0.9686578512191772 0.08175832033157349 0.5892041325569153
v -0.9613922238349915 0.0848579928278923 0.590082049369812
v -0.9532788395881653 0.08670100569725037 0.5906365513801575
v -0.9448022842407227 0.08720362931489944 0.5908213257789612
v -0.9450444579124451 0.08122774213552475 0.5994386076927185
v -0.9535210728645325 0.0808926597237587 0.5990227460861206
v -0.9616343975067139 0.07946846634149551 0.5978444814682007
v -0.9689000844955444 0.07706691324710846 0.5959500670433044
v -0.9750758409500122 0.07382765412330627 0.5934088230133057
v -0.9796774387359619 0.06986232101917267 0.5903823375701904
vn -737.6588745117188 30.166494369506836 268.3346862792969
vn -756.7525024414062 30.20294189453125 -2.6273257732391357
vn -739.9349975585938 -64.13631439208984 242.66200256347656
vn -741.060546875 -139.17259216308594 180.5984344482422
vn -685.4150390625 -150.2652130126953 477.75335693359375
vn -687.7979125976562 -300.333251953125 349.5667419433594
vn -596.8368530273438 -234.33058166503906 684.1503295898438
vn -590.7909545898438 22.635498046875 751.5660400390625
vn -471.721435546875 15.059944152832031 940.4619140625
vn -682.1380004882812 26.390710830688477 520.7723999023438
vn -741.8771362304688 -187.69358825683594 81.38427734375
vn -742.3378295898438 -195.0340118408203 -28.897624969482422
vn -691.1988525390625 -385.8185119628906 159.7917938232422
vn -600.3436279296875 -444.0203857421875 501.7483215332031
vn -477.9102478027344 -299.2051696777344 860.5204467773438
vn -329.23358154296875 11.293092727661133 1082.849853515625
vn -336.3121643066406 -352.5259704589844 990.5205688476562
vn -167.29440307617188 3.752734661102295 1172.8612060546875
vn -485.6420593261719 -562.8505249023438 626.8983154296875
vn -604.968505859375 -569.359375 232.35980224609375
vn -690.6844482421875 -406.9985656738281 -55.15413284301758
vn -742.389404296875 -161.61380004882812 -133.7156524658203
vn -740.38525390625 -105.56936645507812 -216.87350463867188
vn -738.6549682617188 -15.100015640258789 -263.2100524902344
vn -686.3539428710938 -231.8280029296875 -424.1781921386719
vn -683.5465698242188 -64.142822265625 -511.2799072265625
vn -599.434326171875 -341.7566223144531 -608.86669921875
vn -593.8717041015625 -105.49202728271484 -735.0438232421875
vn -481.4278259277344 -443.3305358886719 -759.7415161132812
vn -474.4963684082031 -146.09231567382812 -920.4915161132812
vn -338.90765380859375 -519.7525024414062 -875.0709228515625
vn -332.8468933105469 -176.98977661132812 -1058.9656982421875
vn -178.58578491210938 -569.4683227539062 -946.9757080078125
vn -173.8147430419922 -194.8356170654297 -1146.7830810546875
vn -10.017620086669922 -588.34326171875 -972.3030395507812
vn -4.293036460876465 -208.119384765625 -1176.244140625
vn -4.293036460876465 -208.119384765625 -1176.244140625
vn -10.017620086669922 -588.34326171875 -972.3030395507812
vn 157.2154998779297 -580.3565063476562 -946.9757080078125
vn 162.2095184326172 -211.5755615234375 -1146.7830810546875
vn 316.7158203125 -543.6226806640625 -875.0709228515625
vn 326.057861328125 -197.81198120117188 -1058.9656982421875
vn 462.7625732421875 -476.7471923828125 -759.741455078125
vn 467.9911804199219 -178.99505615234375 -920.491455078125
vn 583.7319946289062 -386.2764892578125 -608.86669921875
vn 588.3239135742188 -150.23553466796875 -735.0438232421875
vn 675.3403930664062 -282.6802673339844 -424.1781311035156
vn 679.9088745117188 -112.9925765991211 -511.2798767089844
vn 735.0198364257812 -157.97250366210938 -216.87347412109375
vn 736.5328979492188 -75.42768859863281 -263.21002197265625
vn 756.7525024414062 -30.20294189453125 2.6273257732391357
vn 734.2161254882812 -217.1958465576172 -133.7156219482422
vn 733.4986572265625 -246.57000732421875 -28.897584915161133
vn 672.8455200195312 -402.8439636230469 -263.21002197265625
vn 672.1098022460938 -458.0494689941406 -55.15409851074219
vn 578.9921875 -564.0204467773438 -374.6199645996094
vn 458.6579895019531 -693.8966064453125 -468.0909118652344
vn 733.3091430664062 -239.33108520507812 81.38431549072266
vn 673.3958129882812 -437.3088684082031 159.79183959960938
vn 580.0306396484375 -639.569091796875 -76.14095306396484
vn 733.8162231445312 -194.9595184326172 180.5984649658203
vn 735.8923950195312 -120.50746154785156 242.6620330810547
vn 737.6588745117188 -30.166494369506836 268.334716796875
vn 675.2484130859375 -346.4710998535156 349.5667724609375
vn 579.1129760742188 -614.4761352539062 232.35983276367188
vn 454.36187744140625 -795.81298828125 -97.10455322265625
vn 312.3822937011719 -792.71826171875 -539.6373901367188
vn 150.29684448242188 -850.3508911132812 -586.0663452148438
vn 311.7059020996094 -906.47412109375 -112.80813598632812
vn 455.6743469238281 -761.6373291015625 288.7812805175781
vn 581.3424682617188 -486.1338806152344 501.74835205078125
vn 677.73388671875 -202.10516357421875 477.7533874511719
vn 682.215576171875 -22.6214656829834 520.7723999023438
vn 587.131103515625 -273.78546142578125 684.1503295898438
vn 590.7908935546875 -22.635498046875 751.5661010742188
vn 464.9922180175781 -332.8265686035156 860.5205078125
vn 471.7214050292969 -15.059944152832031 940.4619140625
vn 319.7667236328125 -378.4339599609375 990.5206298828125
vn 329.147216796875 -15.056143760681152 1082.849853515625
vn 157.89442443847656 -403.9109191894531 1071.1634521484375
vn 167.2219696044922 -7.504389762878418 1172.8612060546875
vn -11.39376163482666 -406.99066162109375 1098.341552734375
vn -0.00003178578117513098 -1.2794534312229877e-13 1202.5966796875
vn -0.00003178578117513098 -1.2794534312229877e-13 1202.5966796875
vn -11.39376163482666 -406.99066162109375 1098.341552734375
vn -175.36260986328125 -391.1369323730469 1071.1634521484375
vn -343.40130615234375 -655.0745239257812 726.6981201171875
vn 460.37689208984375 -598.7476806640625 626.8983154296875
vn -185.00247192382812 -717.8973388671875 783.9169921875
vn -486.3721923828125 -727.7636108398438 288.78125
vn -345.33056640625 -845.3441772460938 334.4539489746094
vn -606.5422973632812 -595.1195678710938 -76.14098358154297
vn -690.4247436523438 -347.0931701660156 -263.2100524902344
vn -603.3896484375 -517.4867553710938 -374.6199951171875
vn -488.0500793457031 -657.9877319335938 -468.0909423828125
vn -344.88336181640625 -768.8527221679688 -539.637451171875
vn -188.9997100830078 -836.7718505859375 -586.0663452148438
vn -15.724729537963867 -866.5038452148438 -599.7808227539062
vn -15.724729537963867 -866.5038452148438 -599.7808227539062
vn -487.8587341308594 -760.4317626953125 -97.10458374023438
vn -345.1241455078125 -885.099609375 -112.80815124511719
vn -190.6363525390625 -919.06005859375 364.6195068359375
vn -186.62701416015625 -963.7064819335938 -123.26660919189453
vn -22.856096267700195 -994.2747192382812 -123.2666015625
vn -22.856096267700195 -994.2747192382812 -123.2666015625
vn 147.62545776367188 -975.4349365234375 -123.2666015625
vn 309.64013671875 -869.1309814453125 334.4539794921875
vn 314.70477294921875 -679.7572021484375 726.6981811523438
vn 152.2714080810547 -731.1878662109375 783.9169921875
vn -17.120813369750977 -743.5801391601562 803.65234375
vn -17.120813369750977 -743.5801391601562 803.65234375
vn -22.858461380004883 -951.1160888671875 369.6232604980469
vn -22.858461380004883 -951.1160888671875 369.6232604980469
vn 148.97518920898438 -932.3920288085938 364.6195068359375
vn -756.7525024414062 30.20294189453125 -2.6273257732391357
vn -736.5328369140625 75.42768859863281 -263.2100524902344
vn -738.6549682617188 -15.100015640258789 -263.2100524902344
vn -683.5465698242188 -64.142822265625 -511.2799072265625
vn -679.5460205078125 116.73831176757812 -511.2799072265625
vn -593.8717041015625 -105.49202728271484 -735.0438232421875
vn -588.3238525390625 150.23553466796875 -735.0438232421875
vn -474.4963684082031 -146.09231567382812 -920.4915161132812
vn -467.1872863769531 182.62171936035156 -920.4915161132812
vn -332.8468933105469 -176.98977661132812 -1058.9656982421875
vn -735.0198364257812 157.97250366210938 -216.87350463867188
vn -733.586181640625 220.8782196044922 -133.7156524658203
vn -675.34033203125 282.6802673339844 -424.1781921386719
vn -672.845458984375 402.8439636230469 -263.2100524902344
vn -582.4449462890625 389.6510314941406 -608.86669921875
vn -733.4986572265625 246.57000732421875 -28.89762306213379
vn -733.3091430664062 239.33108520507812 81.38427734375
vn -673.4160766601562 454.6900939941406 -55.15413284301758
vn -580.68359375 560.9786987304688 -374.6199951171875
vn -460.9990539550781 479.7186584472656 -759.7415161132812
vn -326.05780029296875 197.81198120117188 -1058.9656982421875
vn -173.8147430419922 -194.8356170654297 -1146.7830810546875
vn -162.20945739746094 211.5755615234375 -1146.7830810546875
vn -4.293036460876465 -208.119384765625 -1176.244140625
vn -316.7157897949219 543.6226806640625 -875.0709228515625
vn -458.657958984375 693.8966064453125 -468.0909423828125
vn -578.1959228515625 642.4608764648438 -76.14098358154297
vn -672.130126953125 440.6926574707031 159.7917938232422
vn -734.374267578125 191.25827026367188 180.5984344482422
vn -736.2385864257812 116.75984191894531 242.66200256347656
vn -737.6588745117188 30.166494369506836 268.3346862792969
vn -677.73388671875 202.10516357421875 477.75335693359375
vn -682.1380004882812 26.390710830688477 520.7723999023438
vn -586.17431640625 277.3392028808594 684.1503295898438
vn -590.7909545898438 22.635498046875 751.5660400390625
vn -464.99224853515625 332.8265686035156 860.5204467773438
vn -471.721435546875 15.059944152832031 940.4619140625
vn -321.66265869140625 375.62042236328125 990.5205688476562
vn -329.23358154296875 11.293092727661133 1082.849853515625
vn -160.42385864257812 402.1683654785156 1071.1634521484375
vn -167.29440307617188 3.752734661102295 1172.8612060546875
vn 11.39370346069336 406.99066162109375 1098.341552734375
vn -0.00003178578117513098 -1.2794534312229877e-13 1202.5966796875
vn -0.00003178578117513098 -1.2794534312229877e-13 1202.5966796875
vn 11.39370346069336 406.99066162109375 1098.341552734375
vn 177.81117248535156 389.20355224609375 1071.1634521484375
vn 167.2219696044922 -7.504389762878418 1172.8612060546875
vn 334.531982421875 355.46856689453125 990.5206298828125
vn 329.147216796875 -15.056143760681152 1082.849853515625
vn 477.9101867675781 299.2051696777344 860.5205078125
vn 471.7214050292969 -15.059944152832031 940.4619140625
vn 597.6442260742188 230.71267700195312 684.1503295898438
vn 590.7908935546875 -22.635498046875 751.5661010742188
vn 685.4149780273438 150.2652130126953 477.7533874511719
vn 682.215576171875 -22.6214656829834 520.7723999023438
vn 740.11669921875 60.3685302734375 242.6620330810547
vn 737.6588745117188 -30.166494369506836 268.334716796875
vn 756.7525024414062 -30.20294189453125 2.6273257732391357
vn 741.4573364257812 135.4352264404297 180.5984649658203
vn 741.8771362304688 187.69358825683594 81.38431549072266
vn 688.6888427734375 296.7499694824219 349.5667724609375
vn 690.0814819335938 389.292236328125 159.79183959960938
vn 601.7335815429688 440.7257385253906 501.74835205078125
vn 483.7544250488281 565.6793212890625 626.8983154296875
vn 742.3378295898438 195.0340118408203 -28.897584915161133
vn 691.8444213867188 403.5467834472656 -55.15409851074219
vn 603.3065185546875 572.427734375 232.35983276367188
vn 741.9192504882812 165.3376007080078 -133.7156219482422
vn 740.38525390625 105.56936645507812 -216.87347412109375
vn 738.6549682617188 15.100015640258789 -263.21002197265625
vn 736.5328979492188 -75.42768859863281 -263.21002197265625
vn 683.3380737304688 67.90902709960938 -511.2798767089844
vn 679.9088745117188 -112.9925765991211 -511.2798767089844
vn 593.8717041015625 105.49202728271484 -735.0438232421875
vn 588.3239135742188 -150.23553466796875 -735.0438232421875
vn 475.1376953125 142.40957641601562 -920.491455078125
vn 467.9911804199219 -178.99505615234375 -920.491455078125
vn 332.8469543457031 176.98977661132812 -1058.9656982421875
vn 326.057861328125 -197.81198120117188 -1058.9656982421875
vn 173.81478881835938 194.8356170654297 -1146.7830810546875
vn 162.2095184326172 -211.5755615234375 -1146.7830810546875
vn 7.1535725593566895 207.98208618164062 -1176.244140625
vn -4.293036460876465 -208.119384765625 -1176.244140625
vn 7.1535725593566895 207.98208618164062 -1176.244140625
vn 12.879150390625 588.24609375 -972.3030395507812
vn 178.58583068847656 569.4683227539062 -946.9757080078125
vn 338.9076843261719 519.7525024414062 -875.0709228515625
vn 483.0569763183594 440.22808837890625 -759.741455078125
vn 598.294921875 345.2224426269531 -608.86669921875
vn 686.3539428710938 231.8280029296875 -424.1781311035156
vn 690.4247436523438 347.0931701660156 -263.21002197265625
vn 604.8345947265625 598.1439208984375 -76.14095306396484
vn 601.8289184570312 520.6480102539062 -374.6199645996094
vn 488.05010986328125 657.9877319335938 -468.0909118652344
vn 347.341552734375 766.9197387695312 -539.6373901367188
vn 188.99974060058594 836.7718505859375 -586.0663452148438
vn 18.58310317993164 866.4051513671875 -599.7808227539062
vn 12.879150390625 588.24609375 -972.3030395507812
vn -157.21543884277344 580.3565063476562 -946.9757080078125
vn -309.841796875 794.4557495117188 -539.637451171875
vn -150.2967987060547 850.3508911132812 -586.0663452148438
vn 18.58310317993164 866.4051513671875 -599.7808227539062
vn 22.856101989746094 994.2747192382812 -123.2666015625
vn 186.62701416015625 963.7064819335938 -123.2666015625
vn 347.6611022949219 883.3657836914062 -112.80813598632812
vn 490.0370178222656 757.984375 -97.10455322265625
vn 486.3721618652344 727.7636108398438 288.7812805175781
vn 343.4012451171875 655.0745239257812 726.6981811523438
vn 185.00242614746094 717.8973388671875 783.9169921875
vn 345.3305358886719 845.3441772460938 334.4539794921875
vn 187.87823486328125 920.0504150390625 364.6195068359375
vn 22.858440399169922 951.1160888671875 369.6232604980469
vn 22.856101989746094 994.2747192382812 -123.2666015625
vn -147.62545776367188 975.4349365234375 -123.26660919189453
vn -309.1028747558594 908.02783203125 -112.80815124511719
vn -456.64190673828125 793.5330200195312 -97.10457611083984
vn -577.31982421875 617.412841796875 232.35980224609375
vn 17.120771408081055 743.5801391601562 803.65234375
vn -455.6743469238281 761.6373291015625 288.78125
vn -309.6401672363281 869.1309814453125 334.4539489746094
vn -146.17745971679688 933.1642456054688 364.6195068359375
vn 22.858440399169922 951.1160888671875 369.6232604980469
vn 17.120771408081055 743.5801391601562 803.65234375
vn -152.27145385742188 731.1878662109375 783.9169921875
vn -314.7048034667969 679.7572021484375 726.6981201171875
vn -458.36944580078125 601.4286499023438 626.8983154296875
vn -582.8649291992188 482.9430847167969 501.7483215332031
vn -674.209228515625 349.9840087890625 349.5667419433594
vt 0.026336349546909332 0.5199875831604004
vt 0.0020458123181015253 0.4748331606388092
vt 0.03512488678097725 0.5199053287506104
vt 0.039763279259204865 0.5074858069419861
vt 0.06234493479132652 0.5448266267776489
vt 0.06612888723611832 0.5213857889175415
vt 0.09627845138311386 0.5649775266647339
vt 0.08517071604728699 0.5861976146697998
vt 0.10799649357795715 0.6093094348907471
vt 0.04403548315167427 0.5578218698501587
vt 0.04049565643072128 0.4888976514339447
vt 0.04171628877520561 0.4690757691860199
vt 0.07088934630155563 0.4949018061161041
vt 0.10140509158372879 0.5375887751579285
vt 0.12484119087457657 0.5860331058502197
vt 0.1466904729604721 0.6409751176834106
vt 0.15901882946491241 0.6088982224464417
vt 0.18099017441272736 0.6728875637054443
vt 0.12886926531791687 0.5501728057861328
vt 0.10372429341077805 0.5017284154891968
vt 0.07577186077833176 0.468417763710022
vt 0.04208247736096382 0.4518035650253296
vt 0.03671170398592949 0.43987753987312317
vt 0.0310968067497015 0.4242503345012665
vt 0.07052315771579742 0.41742369532585144
vt 0.06405381858348846 0.3971083164215088
vt 0.10616555064916611 0.40401721000671387
vt 0.10470079630613327 0.38172784447669983
vt 0.13594892621040344 0.39126867055892944
vt 0.1386343091726303 0.3574645519256592
vt 0.16817355155944824 0.37342074513435364
vt 0.15914089977741241 0.3295823037624359
vt 0.20601308345794678 0.37309175729751587
vt 0.20088644325733185 0.3119811415672302
vt 0.24104516208171844 0.36651188135147095
vt 0.23823772370815277 0.30367404222488403
vt 0.9348512291908264 0.4595349431037903
vt 0.9267951250076294 0.47771185636520386
vt 0.9364380836486816 0.4841272532939911
vt 0.9440059661865234 0.46298936009407043
vt 0.9449824690818787 0.4914473593235016
vt 0.95084148645401 0.47072073817253113
vt 0.9520621299743652 0.4968757629394531
vt 0.9593859314918518 0.48042604327201843
vt 0.9575549960136414 0.5041958689689636
vt 0.9618271589279175 0.4930100739002228
vt 0.9619492292404175 0.5152171850204468
vt 0.9641463756561279 0.5051828622817993
vt 0.9640243053436279 0.5273076891899109
vt 0.9654890894889832 0.5255804657936096
vt 0.9663435220718384 0.5493503212928772
vt 0.9631698727607727 0.5374242663383484
vt 0.9624375104904175 0.5458958745002747
vt 0.960118293762207 0.5272254347801208
vt 0.9595080018043518 0.540960967540741
vt 0.9567005634307861 0.5210568308830261
vt 0.95108562707901 0.5160396695137024
vt 0.9610947966575623 0.5573284029960632
vt 0.9564564228057861 0.5589733719825745
vt 0.9564564228057861 0.5386580228805542
vt 0.9612168669700623 0.5671982169151306
vt 0.9647566676139832 0.5722153782844543
vt 0.9680523872375488 0.5755875706672668
vt 0.9564564228057861 0.5778082609176636
vt 0.9530386328697205 0.5594668388366699
vt 0.95084148645401 0.5363550186157227
vt 0.9435177445411682 0.5120095014572144
vt 0.9355836510658264 0.5079793334007263
vt 0.9453486800193787 0.535450279712677
vt 0.9484002590179443 0.5598781108856201
vt 0.9521842002868652 0.5827431678771973
vt 0.9614610075950623 0.5895698070526123
vt 0.9660993814468384 0.5975479483604431
vt 0.9527944922447205 0.60001540184021
vt 0.9623154401779175 0.6145733594894409
vt 0.9468134045600891 0.6095561981201172
vt 0.9575549960136414 0.625347912311554
vt 0.9404661655426025 0.6134218573570251
vt 0.9482781887054443 0.6345597505569458
vt 0.9297246336936951 0.6165473461151123
vt 0.9371704459190369 0.6385076642036438
vt 0.9177624583244324 0.6184390187263489
vt 0.9259406328201294 0.6413863897323608
vt 0.21724288165569305 0.67379230260849
vt 0.23689502477645874 0.6283088326454163
vt 0.1906331479549408 0.6311875581741333
vt 0.15718787908554077 0.5637437701225281
vt 0.9486443996429443 0.5853751301765442
vt 0.19978787004947662 0.5766568183898926
vt 0.13594892621040344 0.5079793334007263
vt 0.16976037621498108 0.5185893774032593
vt 0.10787443071603775 0.4666905701160431
vt 0.0736967921257019 0.43987753987312317
vt 0.10409048199653625 0.431570440530777
vt 0.14009906351566315 0.42301660776138306
vt 0.17696209251880646 0.4240858256816864
vt 0.21663255989551544 0.42638880014419556
vt 0.2594766914844513 0.42893850803375244
vt 0.9275274872779846 0.5055940747261047
vt 0.14156381785869598 0.464469850063324
vt 0.17989160120487213 0.4724479615688324
vt 0.21358099579811096 0.5290349125862122
vt 0.2266417294740677 0.4805905520915985
vt 0.26936379075050354 0.48026156425476074
vt 0.9264289140701294 0.5357792973518372
vt 0.9357057213783264 0.5356147885322571
vt 0.9413205981254578 0.5633325576782227
vt 0.9411985278129578 0.5887473225593567
vt 0.9305790662765503 0.5921195149421692
vt 0.9195933938026428 0.5937644839286804
vt 0.25361764430999756 0.5911325216293335
vt 0.2718050479888916 0.5472118258476257
vt 0.9237435460090637 0.5676917433738708
vt 0.9324100017547607 0.5647307634353638
vt 0.999910831451416 0.2280876636505127
vt 0.9739114046096802 0.17964328825473785
vt 0.982577919960022 0.1777515709400177
vt 0.9524283409118652 0.13744981586933136
vt 0.9385131597518921 0.14690838754177094
vt 0.9193492531776428 0.10611313581466675
vt 0.9055561423301697 0.12264508008956909
vt 0.8924953937530518 0.07757290452718735
vt 0.8763830661773682 0.09698355197906494
vt 0.8498954176902771 0.05372083932161331
vt 0.9674420952796936 0.18696340918540955
vt 0.9618271589279175 0.19962967932224274
vt 0.9304569959640503 0.16319359838962555
vt 0.9302128553390503 0.1878681480884552
vt 0.8977441191673279 0.1448521763086319
vt 0.959874153137207 0.21632611751556396
vt 0.9585314989089966 0.23450304567813873
vt 0.9261847734451294 0.21188470721244812
vt 0.8976220488548279 0.17701134085655212
vt 0.8707681894302368 0.12552377581596375
vt 0.8420833945274353 0.07354272902011871
vt 0.8025349378585815 0.00897765439003706
vt 0.7844696640968323 0.04763444885611534
vt 0.7773900032043457 0.00009481610322836787
vt 0.8328065872192383 0.10372792929410934
vt 0.8682048320770264 0.1628645956516266
vt 0.8909085988998413 0.20843026041984558
vt 0.9271612763404846 0.23705273866653442
vt 0.9610947966575623 0.2507059872150421
vt 0.9656111598014832 0.2679781913757324
vt 0.973179042339325 0.2820426821708679
vt 0.9278936386108398 0.28311190009117126
vt 0.9371704459190369 0.29487344622612
vt 0.8871245980262756 0.3014533221721649
vt 0.893960177898407 0.32234445214271545
vt 0.8574633002281189 0.3207817077636719
vt 0.8745521306991577 0.3505556881427765
vt 0.8330507278442383 0.34274205565452576
vt 0.8326845169067383 0.39521661400794983
vt 0.7884977459907532 0.34751248359680176
vt 0.7943567633628845 0.40393495559692383
vt 0.746874213218689 0.35861602425575256
vt 0.7537097930908203 0.41544973850250244
vt 0.02658047527074814 0.24659356474876404
vt 0.03829852491617203 0.22940362989902496
vt 0.028777608647942543 0.22208352386951447
vt 0.0169374980032444 0.2407539337873459
vt 0.020477324724197388 0.2144344002008438
vt 0.011566726490855217 0.2340095490217209
vt 0.014374175108969212 0.2067030519247055
vt 0.007782773580402136 0.2221657633781433
vt 0.009125466458499432 0.19642198085784912
vt 0.004365009255707264 0.2102397382259369
vt 0.004975324496626854 0.1830977350473404
vt 0.0018016863614320755 0.19189831614494324
vt 0.002167875412851572 0.16895098984241486
vt 0.00009280440281145275 0.16952672600746155
vt 0.0019237494561821222 0.142302468419075
vt 0.0038767573423683643 0.16179536283016205
vt 0.005097387358546257 0.15167880058288574
vt 0.0076607102528214455 0.17215867340564728
vt 0.00949165504425764 0.15727169811725616
vt 0.0129094198346138 0.18038353323936462
vt 0.017669877037405968 0.18696340918540955
vt 0.0053415135480463505 0.1420557200908661
vt 0.009369592182338238 0.14082199335098267
vt 0.014374175108969212 0.16080838441848755
vt 0.00692833261564374 0.12873147428035736
vt 0.006195954512804747 0.12001313269138336
vt 0.003266442334279418 0.11548946052789688
vt 0.00009280440281145275 0.11409123986959457
vt 0.006806269288063049 0.09607881307601929
vt 0.0018016863614320755 0.08999242633581161
vt 0.011566726490855217 0.07814864069223404
vt 0.002167875412851572 0.06926580518484116
vt 0.018280191347002983 0.0693480521440506
vt 0.008148962631821632 0.05462557077407837
vt 0.02548190765082836 0.06219243258237839
vt 0.017914002761244774 0.04368652030825615
vt 0.036589641124010086 0.058902494609355927
vt 0.0291437990963459 0.037435635924339294
vt 0.047941502183675766 0.05577705055475235
vt 0.03793233260512352 0.034721434116363525
vt 0.7416255474090576 0.04163030907511711
vt 0.048307690769433975 0.0818498283624649
vt 0.03805439919233322 0.08365929126739502
vt 0.02780110575258732 0.08448177576065063
vt 0.02267445996403694 0.09007467329502106
vt 0.01779193989932537 0.09435159713029861
vt 0.011444663628935814 0.1046326607465744
vt 0.01132260076701641 0.12075336277484894
vt 0.013031482696533203 0.14156223833560944
vt 0.015472742728888988 0.1163119450211525
vt 0.019500821828842163 0.1133510023355484
vt 0.02377302572131157 0.11113028973340988
vt 0.03427044302225113 0.11129479110240936
vt 0.044645801186561584 0.10989656299352646
vt 0.7351561784744263 0.07436521351337433
vt 0.787399172782898 0.08694922924041748
vt 0.8298770785331726 0.1497870832681656
vt 0.7842255234718323 0.12634626030921936
vt 0.7386960387229919 0.12749774754047394
vt 0.04244866594672203 0.14312495291233063
vt 0.03231743723154068 0.14164447784423828
vt 0.02133176662027836 0.14238472282886505
vt 0.017181623727083206 0.1420557200908661
vt 0.018280191347002983 0.16253560781478882
vt 0.023284774273633957 0.19296754896640778
vt 0.03158506006002426 0.19782021641731262
vt 0.024017153307795525 0.16788175702095032
vt 0.03182918578386307 0.1710072010755539
vt 0.039763279259204865 0.17117169499397278
vt 0.7247808575630188 0.1773403286933899
vt 0.7754369974136353 0.17215867340564728
vt 0.8215767741203308 0.1918160766363144
vt 0.8599045872688293 0.2025083750486374
vt 0.8960352540016174 0.24659356474876404
vt 0.04025153070688248 0.20127464830875397
vt 0.8642988204956055 0.24774505198001862
vt 0.8242622017860413 0.23968470096588135
vt 0.7758031487464905 0.2324468344449997
vt 0.7178232669830322 0.2275119125843048
vt 0.7312501668930054 0.2941332161426544
vt 0.7777561545372009 0.2887048125267029
vt 0.8202341198921204 0.28788232803344727
vt 0.854045569896698 0.2869775891304016
vt 0.8883452415466309 0.27595627307891846
vt 0.9272833466529846 0.26065805554389954
s on
f 1/1/1 2/2/2 3/3/3
f 2/2/2 4/4/4 3/3/3
f 3/3/3 4/4/4 5/5/5
f 4/4/4 6/6/6 5/5/5
f 6/6/6 7/7/7 5/5/5
f 5/5/5 7/7/7 8/8/8
f 7/7/7 9/9/9 8/8/8
f 1/1/1 3/3/3 10/10/10
f 3/3/3 5/5/5 10/10/10
f 10/10/10 5/5/5 8/8/8
f 6/6/6 4/4/4 11/11/11
f 4/4/4 2/2/2 11/11/11
f 2/2/2 12/12/12 11/11/11
f 12/12/12 13/13/13 11/11/11
f 11/11/11 13/13/13 6/6/6
f 13/13/13 14/14/14 6/6/6
f 6/6/6 14/14/14 7/7/7
f 14/14/14 15/15/15 7/7/7
f 7/7/7 15/15/15 9/9/9
f 9/9/9 15/15/15 16/16/16
f 15/15/15 17/17/17 16/16/16
f 16/16/16 17/17/17 18/18/18
f 17/17/17 15/15/15 19/19/19
f 15/15/15 14/14/14 19/19/19
f 19/19/19 14/14/14 20/20/20
f 14/14/14 13/13/13 20/20/20
f 20/20/20 13/13/13 21/21/21
f 13/13/13 12/12/12 21/21/21
f 21/21/21 12/12/12 22/22/22
f 12/12/12 2/2/2 22/22/22
f 22/22/22 2/2/2 23/23/23
f 2/2/2 24/24/24 23/23/23
f 23/23/23 24/24/24 25/25/25
f 24/24/24 26/26/26 25/25/25
f 25/25/25 26/26/26 27/27/27
f 26/26/26 28/28/28 27/27/27
f 27/27/27 28/28/28 29/29/29
f 28/28/28 30/30/30 29/29/29
f 29/29/29 30/30/30 31/31/31
f 30/30/30 32/32/32 31/31/31
f 31/31/31 32/32/32 33/33/33
f 32/32/32 34/34/34 33/33/33
f 33/33/33 34/34/34 35/35/35
f 34/34/34 36/36/36 35/35/35
f 36/36/36 37/37/37 35/35/35
f 35/35/35 37/37/37 38/38/38
f 38/38/38 37/37/37 39/39/39
f 37/37/37 40/40/40 39/39/39
f 39/39/39 40/40/40 41/41/41
f 40/40/40 42/42/42 41/41/41
f 41/41/41 42/42/42 43/43/43
f 42/42/42 44/44/44 43/43/43
f 43/43/43 44/44/44 45/45/45
f 44/44/44 46/46/46 45/45/45
f 45/45/45 46/46/46 47/47/47
f 46/46/46 48/48/48 47/47/47
f 47/47/47 48/48/48 49/49/49
f 48/48/48 50/50/50 49/49/49
f 50/50/50 51/51/51 49/49/49
f 49/49/49 51/51/51 52/52/52
f 51/51/51 53/53/53 52/52/52
f 52/52/52 53/53/53 54/54/54
f 53/53/53 55/55/55 54/54/54
f 55/55/55 56/56/56 54/54/54
f 54/54/54 56/56/56 45/45/45
f 45/45/45 56/56/56 43/43/43
f 56/56/56 57/57/57 43/43/43
f 43/43/43 57/57/57 41/41/41
f 49/49/49 52/52/52 47/47/47
f 52/52/52 54/54/54 47/47/47
f 47/47/47 54/54/54 45/45/45
f 51/51/51 58/58/58 53/53/53
f 53/53/53 58/58/58 55/55/55
f 58/58/58 59/59/59 55/55/55
f 59/59/59 60/60/60 55/55/55
f 55/55/55 60/60/60 56/56/56
f 60/60/60 57/57/57 56/56/56
f 59/59/59 58/58/58 61/61/61
f 58/58/58 51/51/51 61/61/61
f 61/61/61 51/51/51 62/62/62
f 51/51/51 63/63/63 62/62/62
f 62/62/62 64/64/64 61/61/61
f 61/61/61 64/64/64 59/59/59
f 64/64/64 65/65/65 59/59/59
f 59/59/59 65/65/65 60/60/60
f 65/65/65 66/66/66 60/60/60
f 60/60/60 66/66/66 57/57/57
f 66/66/66 67/67/67 57/57/57
f 57/57/57 67/67/67 41/41/41
f 41/41/41 67/67/67 39/39/39
f 67/67/67 68/68/68 39/39/39
f 39/39/39 68/68/68 38/38/38
f 68/68/68 67/67/67 69/69/69
f 67/67/67 66/66/66 69/69/69
f 69/69/69 66/66/66 70/70/70
f 66/66/66 65/65/65 70/70/70
f 70/70/70 65/65/65 71/71/71
f 65/65/65 64/64/64 71/71/71
f 71/71/71 64/64/64 72/72/72
f 64/64/64 62/62/62 72/72/72
f 62/62/62 63/63/63 72/72/72
f 63/63/63 73/73/73 72/72/72
f 72/72/72 73/73/73 74/74/74
f 73/73/73 75/75/75 74/74/74
f 74/74/74 75/75/75 76/76/76
f 75/75/75 77/77/77 76/76/76
f 76/76/76 77/77/77 78/78/78
f 77/77/77 79/79/79 78/78/78
f 78/78/78 79/79/79 80/80/80
f 79/79/79 81/81/81 80/80/80
f 80/80/80 81/81/81 82/82/82
f 81/81/81 83/83/83 82/82/82
f 83/83/83 84/84/84 82/82/82
f 82/82/82 84/84/84 85/85/85
f 85/85/85 84/84/84 86/86/86
f 84/84/84 18/18/18 86/86/86
f 18/18/18 17/17/17 86/86/86
f 86/86/86 17/17/17 87/87/87
f 17/17/17 19/19/19 87/87/87
f 72/72/72 74/74/74 71/71/71
f 74/74/74 88/88/88 71/71/71
f 71/71/71 88/88/88 70/70/70
f 76/76/76 88/88/88 74/74/74
f 87/87/87 89/89/89 86/86/86
f 89/89/89 85/85/85 86/86/86
f 19/19/19 90/90/90 87/87/87
f 90/90/90 91/91/91 87/87/87
f 87/87/87 91/91/91 89/89/89
f 19/19/19 20/20/20 90/90/90
f 90/90/90 20/20/20 92/92/92
f 20/20/20 21/21/21 92/92/92
f 92/92/92 21/21/21 93/93/93
f 21/21/21 22/22/22 93/93/93
f 22/22/22 23/23/23 93/93/93
f 23/23/23 25/25/25 93/93/93
f 93/93/93 25/25/25 94/94/94
f 25/25/25 27/27/27 94/94/94
f 94/94/94 27/27/27 95/95/95
f 27/27/27 29/29/29 95/95/95
f 95/95/95 29/29/29 96/96/96
f 29/29/29 31/31/31 96/96/96
f 96/96/96 31/31/31 97/97/97
f 31/31/31 33/33/33 97/97/97
f 97/97/97 33/33/33 98/98/98
f 33/33/33 35/35/35 98/98/98
f 35/35/35 38/38/38 98/98/98
f 98/98/98 38/38/38 99/99/99
f 38/38/38 68/68/68 99/99/99
f 93/93/93 94/94/94 92/92/92
f 94/94/94 100/100/100 92/92/92
f 92/92/92 100/100/100 90/90/90
f 100/100/100 91/91/91 90/90/90
f 94/94/94 95/95/95 100/100/100
f 95/95/95 101/101/101 100/100/100
f 100/100/100 101/101/101 91/91/91
f 91/91/91 101/101/101 102/102/102
f 102/102/102 101/101/101 103/103/103
f 101/101/101 96/96/96 103/103/103
f 96/96/96 97/97/97 103/103/103
f 103/103/103 97/97/97 104/104/104
f 97/97/97 98/98/98 104/104/104
f 98/98/98 99/99/99 104/104/104
f 104/104/104 99/99/99 105/105/105
f 105/105/105 99/99/99 106/106/106
f 99/99/99 68/68/68 106/106/106
f 68/68/68 69/69/69 106/106/106
f 106/106/106 69/69/69 107/107/107
f 69/69/69 70/70/70 107/107/107
f 70/70/70 88/88/88 107/107/107
f 107/107/107 88/88/88 108/108/108
f 88/88/88 76/76/76 108/108/108
f 76/76/76 78/78/78 108/108/108
f 108/108/108 78/78/78 109/109/109
f 78/78/78 80/80/80 109/109/109
f 109/109/109 80/80/80 110/110/110
f 80/80/80 82/82/82 110/110/110
f 82/82/82 85/85/85 110/110/110
f 110/110/110 85/85/85 111/111/111
f 85/85/85 89/89/89 111/111/111
f 111/111/111 89/89/89 102/102/102
f 89/89/89 91/91/91 102/102/102
f 96/96/96 101/101/101 95/95/95
f 102/102/102 103/103/103 112/112/112
f 103/103/103 104/104/104 112/112/112
f 104/104/104 105/105/105 112/112/112
f 112/112/112 105/105/105 113/113/113
f 105/105/105 114/114/114 113/113/113
f 113/113/113 114/114/114 109/109/109
f 109/109/109 114/114/114 108/108/108
f 108/108/108 114/114/114 107/107/107
f 107/107/107 114/114/114 106/106/106
f 114/114/114 105/105/105 106/106/106
f 102/102/102 112/112/112 111/111/111
f 112/112/112 113/113/113 111/111/111
f 111/111/111 113/113/113 110/110/110
f 113/113/113 109/109/109 110/110/110
f 115/115/115 116/116/116 117/117/117
f 117/117/117 116/116/116 118/118/118
f 116/116/116 119/119/119 118/118/118
f 118/118/118 119/119/119 120/120/120
f 119/119/119 121/121/121 120/120/120
f 120/120/120 121/121/121 122/122/122
f 121/121/121 123/123/123 122/122/122
f 122/122/122 123/123/123 124/124/124
f 119/119/119 116/116/116 125/125/125
f 116/116/116 115/115/115 125/125/125
f 115/115/115 126/126/126 125/125/125
f 125/125/125 126/126/126 127/127/127
f 126/126/126 128/128/128 127/127/127
f 128/128/128 129/129/129 127/127/127
f 127/127/127 129/129/129 121/121/121
f 129/129/129 123/123/123 121/121/121
f 125/125/125 127/127/127 119/119/119
f 127/127/127 121/121/121 119/119/119
f 128/128/128 126/126/126 130/130/130
f 126/126/126 115/115/115 130/130/130
f 115/115/115 131/131/131 130/130/130
f 131/131/131 132/132/132 130/130/130
f 130/130/130 132/132/132 128/128/128
f 132/132/132 133/133/133 128/128/128
f 128/128/128 133/133/133 129/129/129
f 133/133/133 134/134/134 129/129/129
f 129/129/129 134/134/134 123/123/123
f 134/134/134 135/135/135 123/123/123
f 123/123/123 135/135/135 124/124/124
f 124/124/124 135/135/135 136/136/136
f 135/135/135 137/137/137 136/136/136
f 136/136/136 137/137/137 138/138/138
f 137/137/137 135/135/135 139/139/139
f 135/135/135 134/134/134 139/139/139
f 139/139/139 134/134/134 140/140/140
f 134/134/134 133/133/133 140/140/140
f 140/140/140 133/133/133 141/141/141
f 133/133/133 132/132/132 141/141/141
f 141/141/141 132/132/132 142/142/142
f 132/132/132 131/131/131 142/142/142
f 142/142/142 131/131/131 143/143/143
f 131/131/131 115/115/115 143/143/143
f 143/143/143 115/115/115 144/144/144
f 115/115/115 145/145/145 144/144/144
f 144/144/144 145/145/145 146/146/146
f 145/145/145 147/147/147 146/146/146
f 146/146/146 147/147/147 148/148/148
f 147/147/147 149/149/149 148/148/148
f 148/148/148 149/149/149 150/150/150
f 149/149/149 151/151/151 150/150/150
f 150/150/150 151/151/151 152/152/152
f 151/151/151 153/153/153 152/152/152
f 152/152/152 153/153/153 154/154/154
f 153/153/153 155/155/155 154/154/154
f 154/154/154 155/155/155 156/156/156
f 155/155/155 157/157/157 156/156/156
f 157/157/157 158/158/158 156/156/156
f 156/156/156 158/158/158 159/159/159
f 159/159/159 158/158/158 160/160/160
f 158/158/158 161/161/161 160/160/160
f 160/160/160 161/161/161 162/162/162
f 161/161/161 163/163/163 162/162/162
f 162/162/162 163/163/163 164/164/164
f 163/163/163 165/165/165 164/164/164
f 164/164/164 165/165/165 166/166/166
f 165/165/165 167/167/167 166/166/166
f 166/166/166 167/167/167 168/168/168
f 167/167/167 169/169/169 168/168/168
f 168/168/168 169/169/169 170/170/170
f 169/169/169 171/171/171 170/170/170
f 171/171/171 172/172/172 170/170/170
f 170/170/170 172/172/172 173/173/173
f 172/172/172 174/174/174 173/173/173
f 173/173/173 174/174/174 175/175/175
f 174/174/174 176/176/176 175/175/175
f 176/176/176 177/177/177 175/175/175
f 175/175/175 177/177/177 166/166/166
f 166/166/166 177/177/177 164/164/164
f 177/177/177 178/178/178 164/164/164
f 164/164/164 178/178/178 162/162/162
f 170/170/170 173/173/173 168/168/168
f 173/173/173 175/175/175 168/168/168
f 168/168/168 175/175/175 166/166/166
f 172/172/172 179/179/179 174/174/174
f 174/174/174 179/179/179 176/176/176
f 179/179/179 180/180/180 176/176/176
f 180/180/180 181/181/181 176/176/176
f 176/176/176 181/181/181 177/177/177
f 181/181/181 178/178/178 177/177/177
f 180/180/180 179/179/179 182/182/182
f 179/179/179 172/172/172 182/182/182
f 182/182/182 172/172/172 183/183/183
f 183/183/183 172/172/172 184/184/184
f 172/172/172 185/185/185 184/184/184
f 184/184/184 185/185/185 186/186/186
f 185/185/185 187/187/187 186/186/186
f 186/186/186 187/187/187 188/188/188
f 187/187/187 189/189/189 188/188/188
f 188/188/188 189/189/189 190/190/190
f 189/189/189 191/191/191 190/190/190
f 190/190/190 191/191/191 192/192/192
f 191/191/191 193/193/193 192/192/192
f 192/192/192 193/193/193 194/194/194
f 193/193/193 195/195/195 194/194/194
f 194/194/194 195/195/195 196/196/196
f 195/195/195 197/197/197 196/196/196
f 197/197/197 138/138/138 196/196/196
f 196/196/196 138/138/138 198/198/198
f 138/138/138 137/137/137 198/198/198
f 198/198/198 199/199/199 196/196/196
f 196/196/196 199/199/199 194/194/194
f 199/199/199 200/200/200 194/194/194
f 194/194/194 200/200/200 192/192/192
f 200/200/200 201/201/201 192/192/192
f 192/192/192 201/201/201 190/190/190
f 201/201/201 202/202/202 190/190/190
f 190/190/190 202/202/202 188/188/188
f 202/202/202 203/203/203 188/188/188
f 188/188/188 203/203/203 186/186/186
f 203/203/203 204/204/204 186/186/186
f 186/186/186 204/204/204 184/184/184
f 184/184/184 204/204/204 183/183/183
f 204/204/204 205/205/205 183/183/183
f 183/183/183 205/205/205 182/182/182
f 182/182/182 205/205/205 180/180/180
f 205/205/205 206/206/206 180/180/180
f 180/180/180 206/206/206 181/181/181
f 206/206/206 205/205/205 207/207/207
f 205/205/205 204/204/204 207/207/207
f 204/204/204 203/203/203 207/207/207
f 207/207/207 203/203/203 208/208/208
f 203/203/203 202/202/202 208/208/208
f 208/208/208 202/202/202 209/209/209
f 202/202/202 201/201/201 209/209/209
f 209/209/209 201/201/201 210/210/210
f 201/201/201 200/200/200 210/210/210
f 210/210/210 200/200/200 211/211/211
f 200/200/200 199/199/199 211/211/211
f 211/211/211 199/199/199 212/212/212
f 199/199/199 198/198/198 212/212/212
f 212/212/212 198/198/198 213/213/213
f 198/198/198 137/137/137 213/213/213
f 137/137/137 139/139/139 213/213/213
f 213/213/213 139/139/139 214/214/214
f 139/139/139 140/140/140 214/214/214
f 214/214/214 215/215/215 213/213/213
f 213/213/213 215/215/215 212/212/212
f 215/215/215 216/216/216 212/212/212
f 212/212/212 216/216/216 211/211/211
f 216/216/216 217/217/217 211/211/211
f 211/211/211 217/217/217 210/210/210
f 217/217/217 218/218/218 210/210/210
f 210/210/210 218/218/218 209/209/209
f 218/218/218 219/219/219 209/209/209
f 209/209/209 219/219/219 208/208/208
f 219/219/219 220/220/220 208/208/208
f 208/208/208 220/220/220 207/207/207
f 207/207/207 220/220/220 206/206/206
f 220/220/220 221/221/221 206/206/206
f 206/206/206 221/221/221 181/181/181
f 181/181/181 221/221/221 178/178/178
f 221/221/221 222/222/222 178/178/178
f 178/178/178 222/222/222 162/162/162
f 162/162/162 222/222/222 160/160/160
f 222/222/222 223/223/223 160/160/160
f 160/160/160 223/223/223 159/159/159
f 223/223/223 222/222/222 224/224/224
f 222/222/222 221/221/221 224/224/224
f 221/221/221 220/220/220 224/224/224
f 220/220/220 219/219/219 224/224/224
f 224/224/224 219/219/219 225/225/225
f 219/219/219 218/218/218 225/225/225
f 225/225/225 218/218/218 226/226/226
f 218/218/218 217/217/217 226/226/226
f 226/226/226 217/217/217 227/227/227
f 217/217/217 216/216/216 227/227/227
f 227/227/227 216/216/216 228/228/228
f 216/216/216 215/215/215 228/228/228
f 228/228/228 215/215/215 229/229/229
f 215/215/215 214/214/214 229/229/229
f 229/229/229 214/214/214 230/230/230
f 214/214/214 140/140/140 230/230/230
f 140/140/140 141/141/141 230/230/230
f 230/230/230 141/141/141 231/231/231
f 141/141/141 142/142/142 231/231/231
f 224/224/224 225/225/225 223/223/223
f 225/225/225 232/232/232 223/223/223
f 223/223/223 232/232/232 159/159/159
f 226/226/226 232/232/232 225/225/225
f 231/231/231 233/233/233 230/230/230
f 230/230/230 233/233/233 229/229/229
f 233/233/233 234/234/234 229/229/229
f 229/229/229 234/234/234 228/228/228
f 234/234/234 235/235/235 228/228/228
f 228/228/228 235/235/235 227/227/227
f 235/235/235 236/236/236 227/227/227
f 227/227/227 236/236/236 226/226/226
f 226/226/226 236/236/236 232/232/232
f 236/236/236 237/237/237 232/232/232
f 232/232/232 237/237/237 159/159/159
f 159/159/159 237/237/237 156/156/156
f 156/156/156 237/237/237 154/154/154
f 154/154/154 237/237/237 238/238/238
f 237/237/237 236/236/236 238/238/238
f 236/236/236 235/235/235 238/238/238
f 238/238/238 235/235/235 239/239/239
f 235/235/235 234/234/234 239/239/239
f 239/239/239 234/234/234 240/240/240
f 234/234/234 233/233/233 240/240/240
f 240/240/240 233/233/233 241/241/241
f 233/233/233 231/231/231 241/241/241
f 241/241/241 231/231/231 242/242/242
f 231/231/231 142/142/142 242/242/242
f 142/142/142 143/143/143 242/242/242
f 143/143/143 144/144/144 242/242/242
f 144/144/144 146/146/146 242/242/242
f 242/242/242 146/146/146 241/241/241
f 146/146/146 148/148/148 241/241/241
f 241/241/241 148/148/148 240/240/240
f 148/148/148 150/150/150 240/240/240
f 240/240/240 150/150/150 239/239/239
f 150/150/150 152/152/152 239/239/239
f 239/239/239 152/152/152 238/238/238
f 152/152/152 154/154/154 238/238/238

