# Exported by Sketchfab Model Ripper robust edition
o model_13
v 0.7158815264701843 0.7472724914550781 0.7703955173492432
v 0.7329118251800537 0.7472724914550781 0.7703955173492432
v 0.7158815264701843 0.7472724914550781 0.4742242097854614
v 0.7329118251800537 0.7472724914550781 0.4742242097854614
v 0.7329118251800537 0.730242133140564 0.7703955173492432
v 0.7158815264701843 0.730242133140564 0.7703955173492432
v 0.7329118251800537 0.7302421927452087 0.4742242097854614
v 0.7158815264701843 0.7302421927452087 0.4742242097854614
v 0.7329118251800537 0.7472724914550781 0.7703955173492432
v 0.7329118251800537 0.730242133140564 0.7703955173492432
v 0.7329118251800537 0.7472724914550781 0.4742242097854614
v 0.7329118251800537 0.7302421927452087 0.4742242097854614
v 0.7158815264701843 0.730242133140564 0.7703955173492432
v 0.7158815264701843 0.7472724914550781 0.7703955173492432
v 0.7158815264701843 0.7302421927452087 0.4742242097854614
v 0.7158815264701843 0.7472724914550781 0.4742242097854614
v 0.7329118251800537 0.7472724914550781 0.7703955173492432
v 0.7158815264701843 0.7472724914550781 0.7703955173492432
v 0.7329118251800537 0.730242133140564 0.7703955173492432
v 0.7158815264701843 0.730242133140564 0.7703955173492432
v 0.7329118251800537 0.7302421927452087 0.4742242097854614
v 0.7158815264701843 0.7302421927452087 0.4742242097854614
v 0.7329118251800537 0.7472724914550781 0.4742242097854614
v 0.7158815264701843 0.7472724914550781 0.4742242097854614
v 0.7158815264701843 0.886818528175354 0.613816499710083
v 0.7329118251800537 0.886818528175354 0.613816499710083
v 0.7158815264701843 0.5906472206115723 0.613816499710083
v 0.7329118251800537 0.5906472206115723 0.613816499710083
v 0.7329118251800537 0.886818528175354 0.6308468580245972
v 0.7158815264701843 0.886818528175354 0.6308468580245972
v 0.7329118251800537 0.5906472206115723 0.6308468580245972
v 0.7158815264701843 0.5906472206115723 0.6308468580245972
v 0.7329118251800537 0.886818528175354 0.613816499710083
v 0.7329118251800537 0.886818528175354 0.6308468580245972
v 0.7329118251800537 0.5906472206115723 0.613816499710083
v 0.7329118251800537 0.5906472206115723 0.6308468580245972
v 0.7158815264701843 0.886818528175354 0.6308468580245972
v 0.7158815264701843 0.886818528175354 0.613816499710083
v 0.7158815264701843 0.5906472206115723 0.6308468580245972
v 0.7158815264701843 0.5906472206115723 0.613816499710083
v 0.7329118251800537 0.886818528175354 0.613816499710083
v 0.7158815264701843 0.886818528175354 0.613816499710083
v 0.7329118251800537 0.886818528175354 0.6308468580245972
v 0.7158815264701843 0.886818528175354 0.6308468580245972
v 0.7329118251800537 0.5906472206115723 0.6308468580245972
v 0.7158815264701843 0.5906472206115723 0.6308468580245972
v 0.7329118251800537 0.5906472206115723 0.613816499710083
v 0.7158815264701843 0.5906472206115723 0.613816499710083
v 0.5763354897499084 0.7302394509315491 0.613816499710083
v 0.5763354897499084 0.7472698092460632 0.613816499710083
v 0.8725067973136902 0.7302395105361938 0.613816499710083
v 0.8725067973136902 0.747269868850708 0.613816499710083
v 0.5763354897499084 0.7472698092460632 0.6308468580245972
v 0.5763354897499084 0.7302394509315491 0.6308468580245972
v 0.8725067973136902 0.747269868850708 0.6308468580245972
v 0.8725067973136902 0.7302395105361938 0.6308468580245972
v 0.5763354897499084 0.7472698092460632 0.613816499710083
v 0.5763354897499084 0.7472698092460632 0.6308468580245972
v 0.8725067973136902 0.747269868850708 0.613816499710083
v 0.8725067973136902 0.747269868850708 0.6308468580245972
v 0.5763354897499084 0.7302394509315491 0.6308468580245972
v 0.5763354897499084 0.7302394509315491 0.613816499710083
v 0.8725067973136902 0.7302395105361938 0.6308468580245972
v 0.8725067973136902 0.7302395105361938 0.613816499710083
v 0.5763354897499084 0.7472698092460632 0.613816499710083
v 0.5763354897499084 0.7302394509315491 0.613816499710083
v 0.5763354897499084 0.7472698092460632 0.6308468580245972
v 0.5763354897499084 0.7302394509315491 0.6308468580245972
v 0.8725067973136902 0.747269868850708 0.6308468580245972
v 0.8725067973136902 0.7302395105361938 0.6308468580245972
v 0.8725067973136902 0.747269868850708 0.613816499710083
v 0.8725067973136902 0.7302395105361938 0.613816499710083
vn -2.647332353333809e-10 1279.9984130859375 0.00021579147141892463
vn -2.647332353333809e-10 1279.9984130859375 0.00021579147141892463
vn -2.647332353333809e-10 1279.9984130859375 0.00021579147141892463
vn -2.647332353333809e-10 1279.9984130859375 0.00021579147141892463
vn 0 -1279.9984130859375 -0.00021579147141892463
vn 0 -1279.9984130859375 -0.00021579147141892463
vn 0 -1279.9984130859375 -0.00021579147141892463
vn 0 -1279.9984130859375 -0.00021579147141892463
vn 1279.995361328125 -2.7964048385620117 -4.7143836923169147e-7
vn 1279.995361328125 -2.7964048385620117 -4.7143836923169147e-7
vn 1279.995361328125 -2.7964048385620117 -4.7143836923169147e-7
vn 1279.995361328125 -2.7964048385620117 -4.7143836923169147e-7
vn -1279.995361328125 -2.7964048385620117 -4.717031174550357e-7
vn -1279.995361328125 -2.7964048385620117 -4.717031174550357e-7
vn -1279.995361328125 -2.7964048385620117 -4.717031174550357e-7
vn -1279.995361328125 -2.7964048385620117 -4.717031174550357e-7
vn -1.3236629847757087e-10 -2.7966208457946777 1279.995361328125
vn -1.3236629847757087e-10 -2.7966208457946777 1279.995361328125
vn -1.3236629847757087e-10 -2.7966208457946777 1279.995361328125
vn -1.3236629847757087e-10 -2.7966208457946777 1279.995361328125
vn 3.9653050287746794e-10 -2.796189069747925 -1279.995361328125
vn 3.9653050287746794e-10 -2.796189069747925 -1279.995361328125
vn 3.9653050287746794e-10 -2.796189069747925 -1279.995361328125
vn 3.9653050287746794e-10 -2.796189069747925 -1279.995361328125
vn -2.647332353333809e-10 0 -1279.9984130859375
vn -2.647332353333809e-10 0 -1279.9984130859375
vn -2.647332353333809e-10 0 -1279.9984130859375
vn -2.647332353333809e-10 0 -1279.9984130859375
vn 0 0 1279.9984130859375
vn 0 0 1279.9984130859375
vn 0 0 1279.9984130859375
vn 0 0 1279.9984130859375
vn 1279.995361328125 0 2.7964048385620117
vn 1279.995361328125 0 2.7964048385620117
vn 1279.995361328125 0 2.7964048385620117
vn 1279.995361328125 0 2.7964048385620117
vn -1279.995361328125 -2.6473259695514173e-10 2.7964048385620117
vn -1279.995361328125 -2.6473259695514173e-10 2.7964048385620117
vn -1279.995361328125 -2.6473259695514173e-10 2.7964048385620117
vn -1279.995361328125 -2.6473259695514173e-10 2.7964048385620117
vn -1.3236629847757087e-10 1279.995361328125 2.7964048385620117
vn -1.3236629847757087e-10 1279.995361328125 2.7964048385620117
vn -1.3236629847757087e-10 1279.995361328125 2.7964048385620117
vn -1.3236629847757087e-10 1279.995361328125 2.7964048385620117
vn 3.9653050287746794e-10 -1279.995361328125 2.7964048385620117
vn 3.9653050287746794e-10 -1279.995361328125 2.7964048385620117
vn 3.9653050287746794e-10 -1279.995361328125 2.7964048385620117
vn 3.9653050287746794e-10 -1279.995361328125 2.7964048385620117
vn 4.4630662299196617e-17 -2.647332353333809e-10 -1279.9984130859375
vn 4.4630662299196617e-17 -2.647332353333809e-10 -1279.9984130859375
vn 4.4630662299196617e-17 -2.647332353333809e-10 -1279.9984130859375
vn 4.4630662299196617e-17 -2.647332353333809e-10 -1279.9984130859375
vn 0 0 1279.9984130859375
vn 0 0 1279.9984130859375
vn 0 0 1279.9984130859375
vn 0 0 1279.9984130859375
vn -0.00021579096210189164 1279.995361328125 2.7964048385620117
vn -0.00021579096210189164 1279.995361328125 2.7964048385620117
vn -0.00021579096210189164 1279.995361328125 2.7964048385620117
vn -0.00021579096210189164 1279.995361328125 2.7964048385620117
vn 0.00021579122403636575 -1279.995361328125 2.7964048385620117
vn 0.00021579122403636575 -1279.995361328125 2.7964048385620117
vn 0.00021579122403636575 -1279.995361328125 2.7964048385620117
vn 0.00021579122403636575 -1279.995361328125 2.7964048385620117
vn -1279.995361328125 -0.0002157910930691287 2.7964048385620117
vn -1279.995361328125 -0.0002157910930691287 2.7964048385620117
vn -1279.995361328125 -0.0002157910930691287 2.7964048385620117
vn -1279.995361328125 -0.0002157910930691287 2.7964048385620117
vn 1279.995361328125 0.0002157913550036028 2.7964048385620117
vn 1279.995361328125 0.0002157913550036028 2.7964048385620117
vn 1279.995361328125 0.0002157913550036028 2.7964048385620117
vn 1279.995361328125 0.0002157913550036028 2.7964048385620117
s on
f 1//1 2//2 3//3
f 2//2 4//4 3//3
f 5//5 6//6 7//7
f 6//6 8//8 7//7
f 9//9 10//10 11//11
f 10//10 12//12 11//11
f 13//13 14//14 15//15
f 14//14 16//16 15//15
f 17//17 18//18 19//19
f 18//18 20//20 19//19
f 21//21 22//22 23//23
f 22//22 24//24 23//23
f 25//25 26//26 27//27
f 26//26 28//28 27//27
f 29//29 30//30 31//31
f 30//30 32//32 31//31
f 33//33 34//34 35//35
f 34//34 36//36 35//35
f 37//37 38//38 39//39
f 38//38 40//40 39//39
f 41//41 42//42 43//43
f 42//42 44//44 43//43
f 45//45 46//46 47//47
f 46//46 48//48 47//47
f 49//49 50//50 51//51
f 50//50 52//52 51//51
f 53//53 54//54 55//55
f 54//54 56//56 55//55
f 57//57 58//58 59//59
f 58//58 60//60 59//59
f 61//61 62//62 63//63
f 62//62 64//64 63//63
f 65//65 66//66 67//67
f 66//66 68//68 67//67
f 69//69 70//70 71//71
f 70//70 72//72 71//71

