# Exported by Sketchfab Model Ripper robust edition
o model_16
v -0.9700142741203308 -0.32784101366996765 0.48562517762184143
v 0.08694284409284592 -0.32784101366996765 0.485625296831131
v 0.08694281429052353 -0.3278409242630005 0.7934590578079224
v -0.9700142741203308 -0.32784101366996765 0.48562517762184143
v -0.9700143337249756 -0.3278409242630005 0.7934589385986328
v 0.08694281429052353 -0.3278409242630005 0.7934590578079224
v -0.9700142741203308 -0.2700721323490143 0.48562517762184143
v -0.9700143337249756 -0.2700720429420471 0.7934589385986328
v 0.08694284409284592 -0.2700721323490143 0.485625296831131
v 0.08694281429052353 -0.2700720429420471 0.7934590578079224
v -0.9700142741203308 -0.32784101366996765 0.48562517762184143
v -0.9700143337249756 -0.3278409242630005 0.7934589385986328
v -0.9700142741203308 -0.2700721323490143 0.48562517762184143
v -0.9700143337249756 -0.2700720429420471 0.7934589385986328
v 0.08694284409284592 -0.2700721323490143 0.485625296831131
v 0.08694281429052353 -0.2700720429420471 0.7934590578079224
v 0.08694284409284592 -0.32784101366996765 0.485625296831131
v 0.08694281429052353 -0.3278409242630005 0.7934590578079224
v -0.9700142741203308 -0.32784101366996765 0.48562517762184143
v -0.9700142741203308 -0.2700721323490143 0.48562517762184143
v 0.08694284409284592 -0.32784101366996765 0.485625296831131
v 0.08694284409284592 -0.2700721323490143 0.485625296831131
v -0.9700143337249756 -0.2700720429420471 0.7934589385986328
v -0.9700143337249756 -0.3278409242630005 0.7934589385986328
v 0.08694281429052353 -0.2700720429420471 0.7934590578079224
v 0.08694281429052353 -0.3278409242630005 0.7934590578079224
vn -3.142949367429537e-7 -91.31756591796875 0.000024038577976170927
vn -3.142949367429537e-7 -91.31756591796875 0.000024038577976170927
vn -3.142949367429537e-7 -91.31756591796875 0.000024038577976170927
vn -3.142949367429537e-7 -91.31756591796875 0.000024038577976170927
vn -3.142949367429537e-7 -91.31756591796875 0.000024038577976170927
vn -3.142949367429537e-7 -91.31756591796875 0.000024038577976170927
vn 3.143364040170127e-7 91.31756591796875 -0.000024038577976170927
vn 3.143364040170127e-7 91.31756591796875 -0.000024038577976170927
vn 3.143364040170127e-7 91.31756591796875 -0.000024038577976170927
vn 3.143364040170127e-7 91.31756591796875 -0.000024038577976170927
vn -200.51986694335938 0.19949981570243835 -0.0000213947660085978
vn -200.51986694335938 0.19949981570243835 -0.0000213947660085978
vn -200.51986694335938 0.19949981570243835 -0.0000213947660085978
vn -200.51986694335938 0.19949981570243835 -0.0000213947660085978
vn 200.51986694335938 0.1995021104812622 0.000021289735741447657
vn 200.51986694335938 0.1995021104812622 0.000021289735741447657
vn 200.51986694335938 0.1995021104812622 0.000021289735741447657
vn 200.51986694335938 0.1995021104812622 0.000021289735741447657
vn 0.0000017109068721765652 0.1995019167661667 -17.13684844970703
vn 0.0000017109068721765652 0.1995019167661667 -17.13684844970703
vn 0.0000017109068721765652 0.1995019167661667 -17.13684844970703
vn 0.0000017109068721765652 0.1995019167661667 -17.13684844970703
vn -0.000001709574803498981 0.19950000941753387 17.13684844970703
vn -0.000001709574803498981 0.19950000941753387 17.13684844970703
vn -0.000001709574803498981 0.19950000941753387 17.13684844970703
vn -0.000001709574803498981 0.19950000941753387 17.13684844970703
vt 0.18582940101623535 0.01873890683054924
vt 0.1521623432636261 0.9557482004165649
vt 0.18523955345153809 0.9591661691665649
vt 0.0000026412299121147953 0.023743776604533195
vt 0.03067505918443203 0.03448593616485596
vt 0.004449234344065189 0.9999375939369202
vt 0.12938489019870758 0.01983753778040409
vt 0.07312187552452087 0.01825062744319439
vt 0.10683431476354599 0.9555040597915649
vt 0.0733487457036972 0.9584337472915649
vt 0.0000026412299121147953 0.023743776604533195
vt 0.03067505918443203 0.03448593616485596
vt 0.036482855677604675 0.00006219740316737443
vt 0.07062634080648422 0.021912727504968643
vt 0.10279607772827148 0.9619737863540649
vt 0.07230515778064728 0.9619737863540649
vt 0.10279607772827148 0.9924913048744202
vt 0.07230515778064728 0.9924913048744202
vt 0.18582940101623535 0.01873890683054924
vt 0.12938489019870758 0.01983753778040409
vt 0.1521623432636261 0.9557482004165649
vt 0.10683431476354599 0.9555040597915649
vt 0.07062634080648422 0.021912727504968643
vt 0.03067505918443203 0.03448593616485596
vt 0.06942394375801086 0.9856553673744202
vt 0.004449234344065189 0.9999375939369202
s on
f 1/1/1 2/2/2 3/3/3
f 4/4/4 6/6/6 5/5/5
f 7/7/7 8/8/8 9/9/9
f 8/8/8 10/10/10 9/9/9
f 11/11/11 12/12/12 13/13/13
f 12/12/12 14/14/14 13/13/13
f 15/15/15 16/16/16 17/17/17
f 16/16/16 18/18/18 17/17/17
f 19/19/19 20/20/20 21/21/21
f 20/20/20 22/22/22 21/21/21
f 23/23/23 24/24/24 25/25/25
f 24/24/24 26/26/26 25/25/25

