# Exported by Sketchfab Model Ripper robust edition
o model_2
v 0.27772265672683716 0.7513370513916016 -0.256822794675827
v 0.2826838791370392 0.7494335174560547 -0.256822794675827
v 0.27292147278785706 0.749169111251831 -0.256822794675827
v 0.27644234895706177 0.7423480749130249 -0.256822794675827
v 0.2695072889328003 0.7450447678565979 -0.256822794675827
v 0.268066942691803 0.7395455837249756 -0.2565756142139435
v 0.2870049476623535 0.7457850575447083 -0.256822794675827
v 0.2847110629081726 0.7374305129051208 -0.256822794675827
v 0.2740417420864105 0.7342579364776611 -0.2565756142139435
v 0.28103014826774597 0.7274897694587708 -0.256822794675827
v 0.27420178055763245 0.7235769033432007 -0.2565756142139435
v 0.27964314818382263 0.7190295457839966 -0.256822794675827
v 0.27078762650489807 0.7154338955879211 -0.2565756142139435
v 0.2765490412712097 0.7104635238647461 -0.256822794675827
v 0.27041420340538025 0.7061805129051208 -0.256822794675827
v 0.2804966866970062 0.7044355869293213 -0.256822794675827
v 0.27564215660095215 0.6983547806739807 -0.256822794675827
v 0.2845510244369507 0.6925912499427795 -0.25707000494003296
v 0.27777600288391113 0.6848184466362 -0.25707000494003296
v 0.28444433212280273 0.6847126483917236 -0.25707000494003296
v 0.2834840714931488 0.7123141884803772 -0.256822794675827
v 0.28668487071990967 0.7211974263191223 -0.256822794675827
v 0.28945890069007874 0.7288116812705994 -0.256822794675827
v 0.29404670000076294 0.7354212403297424 -0.256822794675827
v 0.2907925546169281 0.7410261631011963 -0.25707000494003296
v 0.29719412326812744 0.7296577095985413 -0.256822794675827
v 0.29399335384368896 0.723101019859314 -0.256822794675827
v 0.2929264307022095 0.7136889696121216 -0.256822794675827
v 0.28881874680519104 0.7048586010932922 -0.256822794675827
v 0.29340654611587524 0.6966098546981812 -0.256822794675827
v 0.2908459007740021 0.6865633726119995 -0.25707000494003296
v 0.3004482686519623 0.7238413095474243 -0.256822794675827
v 0.30364906787872314 0.7180248498916626 -0.256822794675827
v 0.3063163757324219 0.7119969725608826 -0.256822794675827
v 0.29906126856803894 0.7050701379776001 -0.256822794675827
v 0.30674314498901367 0.7055460214614868 -0.256822794675827
v 0.30530279874801636 0.6992536783218384 -0.256822794675827
v 0.30199530720710754 0.6936488151550293 -0.256822794675827
v 0.29676735401153564 0.6896830797195435 -0.25707000494003296
v 0.26748013496398926 0.7334119081497192 -0.2565756142139435
v 0.26710671186447144 0.727013885974884 -0.2565756142139435
v 0.2660931348800659 0.7205629348754883 -0.2565756142139435
v 0.2642793357372284 0.7142177820205688 -0.2565756142139435
v 0.26209214329719543 0.7080841064453125 -0.256822794675827
v 0.26075848937034607 0.7016860246658325 -0.256822794675827
v 0.2684937119483948 0.6975616812705994 -0.25707000494003296
v 0.2711610496044159 0.6861403584480286 -0.25707000494003296
v 0.2651329040527344 0.6891013979911804 -0.25707000494003296
v 0.2615053355693817 0.6947063207626343 -0.25707000494003296
v 0.29634058475494385 0.7503324151039124 0.2034635990858078
v 0.30012819170951843 0.741502046585083 0.2089020013809204
v 0.3033289909362793 0.7499622702598572 0.19777800142765045
v 0.31495851278305054 0.7302393317222595 0.20989079773426056
v 0.3129313588142395 0.7461022734642029 0.1886315941810608
v 0.3202931582927704 0.7385409474372864 0.18294599652290344
v 0.30450260639190674 0.7558315396308899 0.18764279782772064
v 0.3041825294494629 0.7583696246147156 0.17874360084533691
v 0.3018352687358856 0.7336234450340271 0.21458759903907776
v 0.31138429045677185 0.7181835174560547 0.22373400628566742
v 0.3177858889102936 0.7135303616523743 0.22052040696144104
v 0.30994394421577454 0.7082427144050598 0.23139719665050507
v 0.31826600432395935 0.704276978969574 0.21384599804878235
v 0.3082902133464813 0.7016860246658325 0.23139719665050507
v 0.31138429045677185 0.6920096278190613 0.2140931934118271
v 0.293940007686615 0.6932258009910583 0.23807160556316376
v 0.306049644947052 0.6851356625556946 0.2061827927827835
v 0.2799632251262665 0.6760938167572021 0.20247480273246765
v 0.2872183322906494 0.6754063963890076 0.1834404021501541
v 0.2758021950721741 0.6742960214614868 0.18245160579681396
v 0.2954337000846863 0.6815929412841797 0.15402360260486603
v 0.28775179386138916 0.6813285946846008 0.11125800013542175
v 0.30578291416168213 0.6885197758674622 0.10853879898786545
v 0.2930331230163574 0.6822274923324585 0.08554919809103012
v 0.30028823018074036 0.6878852844238281 0.07368359714746475
v 0.30071499943733215 0.6853471994400024 0.01880520023405552
v 0.30535614490509033 0.6935959458351135 0.015344399958848953
v 0.30108842253685 0.6946534514427185 -0.04423080012202263
v 0.3037557601928711 0.7046999931335449 -0.03928679972887039
v 0.3043959140777588 0.7104635238647461 -0.1312451958656311
v 0.30386245250701904 0.7232067584991455 -0.04101720079779625
v 0.298954576253891 0.7348924875259399 -0.08205240219831467
v 0.2993813455104828 0.7343636751174927 -0.0748836025595665
v 0.29281970858573914 0.6861932277679443 -0.07883880287408829
v 0.29361993074417114 0.6797422766685486 0.009164400398731232
v 0.28508448600769043 0.6771513223648071 -0.0014651999808847904
v 0.27756261825561523 0.681698739528656 0.06552600115537643
v 0.27916303277015686 0.6804296970367432 0.11817959696054459
v 0.27169451117515564 0.6828619837760925 0.11447159945964813
v 0.2671600580215454 0.6763052940368652 0.17454120516777039
v 0.25003582239151 0.6797951459884644 0.1928340047597885
v 0.25537046790122986 0.6765697002410889 0.21532920002937317
v 0.2435809075832367 0.6837608814239502 0.20865480601787567
v 0.25537046790122986 0.6790019869804382 0.2309028059244156
v 0.24742184579372406 0.6871978640556335 0.2289251983165741
v 0.2542501986026764 0.6852943301200867 0.23807160556316376
v 0.2521696984767914 0.6906877160072327 0.23807160556316376
v 0.2596915364265442 0.6901060938835144 0.24449880421161652
v 0.26118525862693787 0.6961339712142944 0.24647639691829681
v 0.26619982719421387 0.6911635994911194 0.24721799790859222
v 0.2771891951560974 0.6946534514427185 0.24820679426193237
v 0.2713744342327118 0.6862989664077759 0.24350999295711517
v 0.26459941267967224 0.6796894073486328 0.23658840358257294
v 0.263052374124527 0.6758822798728943 0.2202731966972351
v 0.260918527841568 0.6846069097518921 0.24202680587768555
v 0.29404670000076294 0.7354212403297424 -0.256822794675827
v 0.2907925546169281 0.7410261631011963 -0.25707000494003296
v 0.29399335384368896 0.7354741096496582 -0.2518787980079651
v 0.29127267003059387 0.7411319017410278 -0.2358108013868332
v 0.29404670000076294 0.7354212403297424 -0.24470999836921692
v 0.29426008462905884 0.7352097034454346 -0.237294003367424
v 0.2870049476623535 0.7457850575447083 -0.256822794675827
v 0.2913793623447418 0.7468425631523132 -0.13075080513954163
v 0.29468685388565063 0.7419779300689697 -0.1398971974849701
v 0.2968740463256836 0.7398099899291992 -0.07735560089349747
v 0.2972474694252014 0.7360028624534607 -0.1245708018541336
v 0.29740750789642334 0.7356855869293213 -0.11740200221538544
v 0.2826838791370392 0.7494335174560547 -0.256822794675827
v 0.28529787063598633 0.750015139579773 -0.18538199365139008
v 0.2857779860496521 0.7487989664077759 -0.13445879518985748
v 0.27857619524002075 0.747952938079834 -0.15818999707698822
v 0.2791096866130829 0.7365845441818237 -0.06252360343933105
v 0.2705742418766022 0.7272782325744629 -0.04546679928898811
v 0.27686911821365356 0.7332533001899719 -0.0118476003408432
v 0.27164116501808167 0.7306623458862305 0.037098001688718796
v 0.2866315245628357 0.7418192625045776 0.05662680044770241
v 0.2738817036151886 0.7380650639533997 0.07788600027561188
v 0.2857246398925781 0.7491162419319153 0.09593159705400467
v 0.27798938751220703 0.7521830797195435 0.11397720128297806
v 0.28439098596572876 0.760749101638794 0.13622519373893738
v 0.2663065195083618 0.7810536623001099 0.17973239719867706
v 0.27708250284194946 0.777510941028595 0.17404679954051971
v 0.2776159644126892 0.7796788811683655 0.18615959584712982
v 0.2870049476623535 0.7735452055931091 0.18171000480651855
v 0.28668487071990967 0.7724876403808594 0.18962040543556213
v 0.29319316148757935 0.7625468969345093 0.19431720674037933
v 0.2842842936515808 0.769473671913147 0.19654199481010437
v 0.2932998538017273 0.7463666796684265 0.20791320502758026
v 0.27708250284194946 0.7786213159561157 0.1940699964761734
v 0.2746819257736206 0.774391233921051 0.20049719512462616
v 0.2667332887649536 0.7825341820716858 0.19159799814224243
v 0.26689332723617554 0.779784619808197 0.19926120340824127
v 0.25745099782943726 0.7786213159561157 0.1987667977809906
v 0.26577305793762207 0.7725934386253357 0.2061827927827835
v 0.25809115171432495 0.773175060749054 0.20568840205669403
v 0.25867795944213867 0.7622824907302856 0.21186840534210205
v 0.24486121535301208 0.7581581473350525 0.21112680435180664
v 0.26038503646850586 0.7417663931846619 0.2182956039905548
v 0.24416771531105042 0.7346280813217163 0.21434040367603302
v 0.2581444978713989 0.7172316908836365 0.23016120493412018
v 0.2443810999393463 0.7123141884803772 0.22274519503116608
v 0.26081183552742004 0.7022676467895508 0.24326279759407043
v 0.2684403657913208 0.7056517601013184 0.24474599957466125
v 0.27121439576148987 0.699941098690033 0.24894839525222778
v 0.28257718682289124 0.7031665444374084 0.24820679426193237
v 0.29340654611587524 0.698460578918457 0.24350999295711517
v 0.25595730543136597 0.775871753692627 0.1772603988647461
v 0.2564907670021057 0.7792558670043945 0.1901147961616516
v 0.234992116689682 0.7651907205581665 0.1881372034549713
v 0.24363425374031067 0.771112859249115 0.19926120340824127
v 0.23232479393482208 0.763022780418396 0.19654199481010437
v 0.2420872002840042 0.7657723426818848 0.20643000304698944
v 0.22992420196533203 0.7553027868270874 0.2034635990858078
v 0.23195137083530426 0.7467368245124817 0.20791320502758026
v 0.23557892441749573 0.7276483774185181 0.21063239872455597
v 0.22736357152462006 0.7231538891792297 0.2034635990858078
v 0.22736357152462006 0.7094588875770569 0.20445239543914795
v 0.21797458827495575 0.7296048402786255 0.18962040543556213
v 0.22010844945907593 0.7089830040931702 0.18788999319076538
v 0.21696099638938904 0.7186065316200256 0.18022680282592773
v 0.222455695271492 0.7029550671577454 0.17923800647258759
v 0.21898816525936127 0.7101991176605225 0.1733051985502243
v 0.22389604151248932 0.7039597034454346 0.16613639891147614
v 0.21824131906032562 0.7187122702598572 0.1678667962551117
v 0.22176218032836914 0.7124199271202087 0.16094520688056946
v 0.22000175714492798 0.7306623458862305 0.1658892035484314
v 0.2235226184129715 0.7220963835716248 0.15550680458545685
v 0.2264566719532013 0.7350510954856873 0.15624840557575226
v 0.24256731569766998 0.7220963835716248 0.12312360107898712
v 0.2344053089618683 0.7405502796173096 0.15006840229034424
v 0.24699507653713226 0.7294990420341492 0.12089879810810089
v 0.25099605321884155 0.7365845441818237 0.12337079644203186
v 0.2521696984767914 0.718342125415802 0.09321240335702896
v 0.2621988356113434 0.7303450703620911 0.08653800189495087
v 0.26017165184020996 0.718342125415802 0.05316599830985069
v 0.2651329040527344 0.7244758009910583 0.042041998356580734
v 0.26459941267967224 0.7178662419319153 -0.042253199964761734
v 0.24155373871326447 0.7127900719642639 0.12386520206928253
v 0.24267400801181793 0.7043827176094055 0.12856200337409973
v 0.23616574704647064 0.6986191868782043 0.15081000328063965
v 0.23589900135993958 0.6916923522949219 0.16910280287265778
v 0.22880391776561737 0.6959224939346313 0.18492360413074493
v 0.23381850123405457 0.6944419741630554 0.20643000304698944
v 0.24763523042201996 0.696186900138855 0.12930360436439514
v 0.2505159378051758 0.7024263143539429 0.09988679736852646
v 0.24918228387832642 0.7098819017410278 0.09790919721126556
v 0.2556905448436737 0.7104635238647461 0.06478440016508102
v 0.258037805557251 0.6953408718109131 -0.06202920153737068
v 0.2740417420864105 0.7389639616012573 -0.1359419971704483
v 0.26913386583328247 0.7436699867248535 -0.25088998675346375
v 0.27414843440055847 0.7493806481361389 -0.23482200503349304
v 0.2695072889328003 0.7450447678565979 -0.256822794675827
v 0.27292147278785706 0.749169111251831 -0.256822794675827
v 0.25499704480171204 0.6996238231658936 0.06552600115537643
v 0.2542501986026764 0.6965041160583496 0.09889800101518631
v 0.2554771602153778 0.6906348466873169 0.12337079644203186
v 0.3003949224948883 0.7279656529426575 0.21977880597114563
v 0.2962872385978699 0.724158525466919 0.2242283970117569
v 0.29068586230278015 0.7220434546470642 0.22793640196323395
v 0.2968740463256836 0.7056517601013184 0.24177959561347961
v 0.28423094749450684 0.7206686735153198 0.23115000128746033
v 0.2770291566848755 0.7193467617034912 0.23386919498443604
v 0.2751086950302124 0.7089301347732544 0.24350999295711517
v 0.2692405581474304 0.717284619808197 0.23485800623893738
v 0.26998743414878845 0.7242642641067505 0.22991399466991425
v 0.27233466506004333 0.737166166305542 0.22052040696144104
v 0.2770291566848755 0.7193467617034912 0.23386919498443604
v 0.28423094749450684 0.7206686735153198 0.23115000128746033
v 0.29068586230278015 0.7220434546470642 0.22793640196323395
v 0.2962872385978699 0.724158525466919 0.2242283970117569
v 0.3003949224948883 0.7279656529426575 0.21977880597114563
v 0.3018352687358856 0.7336234450340271 0.21458759903907776
v 0.30012819170951843 0.741502046585083 0.2089020013809204
v 0.29634058475494385 0.7503324151039124 0.2034635990858078
v 0.3033289909362793 0.7499622702598572 0.19777800142765045
v 0.29383331537246704 0.7686277031898499 0.18220439553260803
v 0.30450260639190674 0.7558315396308899 0.18764279782772064
v 0.3041825294494629 0.7583696246147156 0.17874360084533691
v 0.28609806299209595 0.7725405097007751 0.16984440386295319
v 0.2987411916255951 0.7634457945823669 0.1611924022436142
v 0.2936732769012451 0.7556729316711426 0.12337079644203186
v 0.3004482686519623 0.749169111251831 0.11595480144023895
v 0.2956470847129822 0.7481116056442261 0.08629079908132553
v 0.30108842253685 0.744198739528656 0.08802119642496109
v 0.29442012310028076 0.7422952055931091 0.05786279961466789
v 0.2926596701145172 0.7377477884292603 -0.010858800262212753
v 0.2866315245628357 0.7380121946334839 -0.012094800360500813
v 0.2865781784057617 0.7413433790206909 -0.0729060024023056
v 0.2920728623867035 0.7424538135528564 -0.07513079792261124
v 0.29676735401153564 0.7383294701576233 -0.061040401458740234
v 0.29970142245292664 0.7336763143539429 -0.067467600107193
v 0.2993813455104828 0.7343636751174927 -0.0748836025595665
v 0.2984744608402252 0.7352626323699951 -0.005173199810087681
v 0.29943469166755676 0.7385409474372864 0.052918799221515656
v 0.3029022216796875 0.7321428656578064 0.024738000705838203
v 0.3029022216796875 0.7324601411819458 0.03190679848194122
v 0.3041825294494629 0.7353155016899109 0.06898680329322815
v 0.30466264486312866 0.7362672686576843 0.07640279829502106
v 0.3037557601928711 0.734469473361969 0.06132360175251961
v 0.3032756447792053 0.7337291836738586 0.0539075993001461
v 0.30300891399383545 0.7332004308700562 0.0464916005730629
v 0.3029555678367615 0.732830286026001 0.03932280093431473
v 0.3043425679206848 0.7585282921791077 0.17083320021629333
v 0.30508941411972046 0.7574178576469421 0.16341720521450043
v 0.3056228756904602 0.7552499175071716 0.15624840557575226
v 0.3058362603187561 0.7527647018432617 0.14883239567279816
v 0.305996298789978 0.7503852844238281 0.14141640067100525
v 0.305996298789978 0.7481116056442261 0.13424760103225708
v 0.3058896064758301 0.7459965348243713 0.12683160603046417
v 0.3056762218475342 0.7440401315689087 0.1196627989411354
v 0.3054628372192383 0.7422422766685486 0.11249399930238724
v 0.3054094910621643 0.7408146262168884 0.10532519966363907
v 0.3054628372192383 0.7395455837249756 0.0981564000248909
v 0.3054094910621643 0.7384352087974548 0.09098760038614273
v 0.30508941411972046 0.7373247742652893 0.08381880074739456
v 0.2976209223270416 0.7355798482894897 -0.11072760075330734
v 0.2978876531124115 0.735526978969574 -0.10405319929122925
v 0.2981010377407074 0.7354741096496582 -0.09713160246610641
v 0.29842111468315125 0.7352626323699951 -0.08971560001373291
v 0.298954576253891 0.7348924875259399 -0.08205240219831467
v 0.2310444712638855 0.753928005695343 0.17083320021629333
v 0.22586986422538757 0.7541924118995667 0.18245160579681396
v 0.22341592609882355 0.7520773410797119 0.19085639715194702
v 0.21877478063106537 0.7408146262168884 0.18146279454231262
v 0.21696099638938904 0.7263793349266052 0.17379960417747498
v 0.2245362102985382 0.7451505064964294 0.16984440386295319
v 0.222455695271492 0.7442516088485718 0.19728359580039978
v 0.22426946461200714 0.7365316152572632 0.2014860063791275
v 0.25873130559921265 0.693543016910553 0.0511883981525898
v 0.26145198941230774 0.688149631023407 -0.07661399990320206
v 0.2663065195083618 0.6875680088996887 0.04995239898562431
v 0.2752687335014343 0.6805883049964905 0.015344399958848953
v 0.2617187201976776 0.6897359490394592 0.10433640331029892
v 0.2970874309539795 0.7364787459373474 -0.13223400712013245
v 0.2968740463256836 0.7370075583457947 -0.14014439284801483
v 0.29650062322616577 0.7372719049453735 -0.14854919910430908
v 0.2961805462837219 0.7373247742652893 -0.15645959973335266
v 0.2958604693412781 0.7372719049453735 -0.1641228049993515
v 0.2956470847129822 0.7371132969856262 -0.1715388000011444
v 0.2954337000846863 0.7369017601013184 -0.17870759963989258
v 0.29532700777053833 0.7364258766174316 -0.185629203915596
v 0.29527366161346436 0.7358442544937134 -0.19255079329013824
v 0.29527366161346436 0.7352626323699951 -0.19922520220279694
v 0.2951669692993164 0.7347866892814636 -0.2063940018415451
v 0.29506027698516846 0.7346280813217163 -0.21405720710754395
v 0.29484689235687256 0.7346809506416321 -0.2217203974723816
v 0.2945268154144287 0.7348924875259399 -0.22963079810142517
v 0.3028488755226135 0.731772780418396 0.017569199204444885
v 0.3027421832084656 0.7314026355743408 0.010400399565696716
v 0.30258214473724365 0.7310324907302856 0.0032315999269485474
v 0.30242210626602173 0.7308209538459778 -0.0036899999249726534
v 0.3022620677947998 0.7308209538459778 -0.010611600242555141
v 0.30199530720710754 0.7309796214103699 -0.017780400812625885
v 0.30172857642173767 0.7312968373298645 -0.024949200451374054
v 0.3014084994792938 0.7315612435340881 -0.031870801001787186
v 0.30108842253685 0.7319842576980591 -0.039039600640535355
v 0.3006616532802582 0.73240727186203 -0.046208400279283524
v 0.30034157633781433 0.7327774167060852 -0.053130000829696655
v 0.3000214993953705 0.7332004308700562 -0.060298800468444824
v 0.29842111468315125 0.7352626323699951 -0.08971560001373291
v 0.2981010377407074 0.7354741096496582 -0.09713160246610641
v 0.2978876531124115 0.735526978969574 -0.10405319929122925
v 0.2976209223270416 0.7355798482894897 -0.11072760075330734
v 0.29740750789642334 0.7356855869293213 -0.11740200221538544
v 0.2972474694252014 0.7360028624534607 -0.1245708018541336
v 0.3023154139518738 0.7196640372276306 -0.18735960125923157
v 0.303915798664093 0.7114152908325195 -0.17994360625743866
v 0.30364906787872314 0.7180248498916626 -0.256822794675827
v 0.3063163757324219 0.7119969725608826 -0.256822794675827
v 0.30135515332221985 0.6966098546981812 -0.155965194106102
v 0.30674314498901367 0.7055460214614868 -0.256822794675827
v 0.30530279874801636 0.6992536783218384 -0.256822794675827
v 0.30199530720710754 0.6936488151550293 -0.256822794675827
v 0.29169943928718567 0.6873564720153809 -0.13890840113162994
v 0.2816169559955597 0.6828619837760925 -0.08279400318861008
v 0.27164116501808167 0.6830206513404846 -0.05041079968214035
v 0.26497283577919006 0.6870392560958862 -0.15423479676246643
v 0.26054510474205017 0.6922211050987244 -0.1715388000011444
v 0.26075848937034607 0.7016860246658325 -0.256822794675827
v 0.26209214329719543 0.7080841064453125 -0.256822794675827
v 0.2615053355693817 0.6947063207626343 -0.25707000494003296
v 0.2651329040527344 0.6891013979911804 -0.25707000494003296
v 0.2711610496044159 0.6861403584480286 -0.25707000494003296
v 0.27777600288391113 0.6848184466362 -0.25707000494003296
v 0.28444433212280273 0.6847126483917236 -0.25707000494003296
v 0.2908459007740021 0.6865633726119995 -0.25707000494003296
v 0.29676735401153564 0.6896830797195435 -0.25707000494003296
v 0.2970874309539795 0.7364787459373474 -0.13223400712013245
v 0.2968740463256836 0.7370075583457947 -0.14014439284801483
v 0.29650062322616577 0.7372719049453735 -0.14854919910430908
v 0.2961805462837219 0.7373247742652893 -0.15645959973335266
v 0.2958604693412781 0.7372719049453735 -0.1641228049993515
v 0.2956470847129822 0.7371132969856262 -0.1715388000011444
v 0.2954337000846863 0.7369017601013184 -0.17870759963989258
v 0.29532700777053833 0.7364258766174316 -0.185629203915596
v 0.29527366161346436 0.7358442544937134 -0.19255079329013824
v 0.29527366161346436 0.7352626323699951 -0.19922520220279694
v 0.2951669692993164 0.7347866892814636 -0.2063940018415451
v 0.29506027698516846 0.7346280813217163 -0.21405720710754395
v 0.29484689235687256 0.7346809506416321 -0.2217203974723816
v 0.2945268154144287 0.7348924875259399 -0.22963079810142517
v 0.29426008462905884 0.7352097034454346 -0.237294003367424
v 0.29404670000076294 0.7354212403297424 -0.24470999836921692
v 0.29399335384368896 0.7354741096496582 -0.2518787980079651
v 0.29404670000076294 0.7354212403297424 -0.256822794675827
v 0.29719412326812744 0.7296577095985413 -0.256822794675827
v 0.3004482686519623 0.7238413095474243 -0.256822794675827
v 0.29970142245292664 0.7336763143539429 -0.067467600107193
v 0.3000214993953705 0.7332004308700562 -0.060298800468444824
v 0.30034157633781433 0.7327774167060852 -0.053130000829696655
v 0.3006616532802582 0.73240727186203 -0.046208400279283524
v 0.30108842253685 0.7319842576980591 -0.039039600640535355
v 0.3014084994792938 0.7315612435340881 -0.031870801001787186
v 0.30172857642173767 0.7312968373298645 -0.024949200451374054
v 0.30199530720710754 0.7309796214103699 -0.017780400812625885
v 0.3022620677947998 0.7308209538459778 -0.010611600242555141
v 0.30242210626602173 0.7308209538459778 -0.0036899999249726534
v 0.3050360679626465 0.7270667552947998 0.04698599874973297
v 0.3066364526748657 0.7014745473861694 0.010153199546039104
v 0.3075433671474457 0.7109394073486328 0.05267160013318062
v 0.30572956800460815 0.6974030137062073 0.05539080128073692
v 0.3085569441318512 0.7023205161094666 0.06700920313596725
v 0.3054094910621643 0.6949707269668579 0.07170599699020386
v 0.3147984743118286 0.7023205161094666 0.08752679824829102
v 0.3152785897254944 0.6965041160583496 0.1122467964887619
v 0.3185860812664032 0.7030608057975769 0.10903319716453552
v 0.31805261969566345 0.6967156529426575 0.15501239895820618
v 0.32290714979171753 0.706973671913147 0.15006840229034424
v 0.31639888882637024 0.6905819773674011 0.17899079620838165
v 0.32226699590682983 0.6989364624023438 0.1866540014743805
v 0.3131447434425354 0.6861932277679443 0.1928340047597885
v 0.3184260427951813 0.6933315396308899 0.199508398771286
v 0.3100506365299225 0.6895244121551514 0.15352919697761536
v 0.30845025181770325 0.683813750743866 0.17651879787445068
v 0.30444926023483276 0.6817516088485718 0.18962040543556213
v 0.268066942691803 0.7395455837249756 -0.2565756142139435
v 0.26748013496398926 0.7334119081497192 -0.2565756142139435
v 0.26710671186447144 0.727013885974884 -0.2565756142139435
v 0.26854705810546875 0.7282300591468811 -0.170797199010849
v 0.2642793357372284 0.7142177820205688 -0.2565756142139435
v 0.2660931348800659 0.7205629348754883 -0.2565756142139435
v 0.30258214473724365 0.7310324907302856 0.0032315999269485474
v 0.3027421832084656 0.7314026355743408 0.010400399565696716
v 0.3028488755226135 0.731772780418396 0.017569199204444885
v 0.3029022216796875 0.7321428656578064 0.024738000705838203
v 0.3029022216796875 0.7324601411819458 0.03190679848194122
v 0.3029555678367615 0.732830286026001 0.03932280093431473
v 0.30300891399383545 0.7332004308700562 0.0464916005730629
v 0.3032756447792053 0.7337291836738586 0.0539075993001461
v 0.3037557601928711 0.734469473361969 0.06132360175251961
v 0.3041825294494629 0.7353155016899109 0.06898680329322815
v 0.30466264486312866 0.7362672686576843 0.07640279829502106
v 0.30861029028892517 0.734469473361969 0.10235880315303802
v 0.30508941411972046 0.7373247742652893 0.08381880074739456
v 0.3054094910621643 0.7384352087974548 0.09098760038614273
v 0.311117559671402 0.7104635238647461 0.07145880162715912
v 0.32077330350875854 0.7131073474884033 0.12386520206928253
v 0.32578787207603455 0.717707633972168 0.16638359427452087
v 0.3258945643901825 0.7121555805206299 0.18294599652290344
v 0.32242703437805176 0.7048057317733765 0.19926120340824127
v 0.3231738805770874 0.7165971994400024 0.19975559413433075
v 0.3205065429210663 0.71998131275177 0.21038520336151123
v 0.32616129517555237 0.725797712802887 0.1826988011598587
v 0.3254144489765167 0.729710578918457 0.16934999823570251
v 0.3194396197795868 0.7402858734130859 0.16341720521450043
v 0.3058896064758301 0.7459965348243713 0.12683160603046417
v 0.3056762218475342 0.7440401315689087 0.1196627989411354
v 0.3054628372192383 0.7395455837249756 0.0981564000248909
v 0.3054094910621643 0.7408146262168884 0.10532519966363907
v 0.3054628372192383 0.7422422766685486 0.11249399930238724
v 0.27772265672683716 0.7513370513916016 -0.256822794675827
v 0.2801766097545624 0.7511255741119385 -0.2036747932434082
v 0.3043425679206848 0.7585282921791077 0.17083320021629333
v 0.30508941411972046 0.7574178576469421 0.16341720521450043
v 0.3056228756904602 0.7552499175071716 0.15624840557575226
v 0.3058362603187561 0.7527647018432617 0.14883239567279816
v 0.305996298789978 0.7503852844238281 0.14141640067100525
v 0.305996298789978 0.7481116056442261 0.13424760103225708
vn -0.0019445375073701143 -0.00851957593113184 -0.999961793422699
vn -0.007873271591961384 -0.0037915678694844246 -0.999961793422699
vn -0.0040505328215658665 -0.012466258369386196 -0.9999141097068787
vn -0.0106044327840209 -0.007704571355134249 -0.9999141097068787
vn -0.01673441007733345 -0.014041837304830551 -0.9997613430023193
vn -0.01673441007733345 -0.014041837304830551 -0.9997613430023193
vn -0.013107799924910069 -2.7109958632902213e-15 -0.9999141097068787
vn -0.0106044327840209 -0.007704571355134249 -0.9999141097068787
vn -0.015745941549539566 -0.007582846097648144 -0.9998472929000854
vn -0.013107799924910069 -2.7109958632902213e-15 -0.9999141097068787
vn -0.017476677894592285 -3.6145805417514814e-15 -0.9998472929000854
vn -0.0106044327840209 0.007704571355134249 -0.9999141097068787
vn -0.010896530002355576 0.013663816265761852 -0.9998472929000854
vn -0.0040505328215658665 0.012466258369386196 -0.9999141097068787
vn -0.0040505328215658665 0.012466258369386196 -0.9999141097068787
vn -0.0019445375073701143 0.00851957593113184 -0.999961793422699
vn -0.0019445375073701143 0.00851957593113184 -0.999961793422699
vn -0.0019445375073701143 0.00851957593113184 -0.999961793422699
vn -0.0019445375073701143 0.00851957593113184 -0.999961793422699
vn -0.0019445375073701143 0.00851957593113184 -0.999961793422699
vn -0.002184688812121749 0.0037839922588318586 -0.9999904632568359
vn -0.002184688812121749 0.0037839922588318586 -0.9999904632568359
vn -0.007873271591961384 -0.0037915678694844246 -0.999961793422699
vn -0.0106044327840209 -0.007704571355134249 -0.9999141097068787
vn -0.015745941549539566 -0.007582846097648144 -0.9998472929000854
vn -0.0019445375073701143 -0.00851957593113184 -0.999961793422699
vn -0.002184688812121749 -0.0037839922588318586 -0.9999904632568359
vn 2.0682311115474694e-13 4.2775797696334704e-26 -1
vn -0.002184688812121749 0.0037839922588318586 -0.9999904632568359
vn -0.0019445375073701143 0.00851957593113184 -0.999961793422699
vn -0.0019445375073701143 0.00851957593113184 -0.999961793422699
vn -0.002184688812121749 -0.0037839922588318586 -0.9999904632568359
vn -2.0682311115474694e-13 0 -1
vn -2.0682311115474694e-13 0 -1
vn -0.002184688812121749 0.0037839922588318586 -0.9999904632568359
vn 0.004369377624243498 0 -0.9999904632568359
vn 0.005448473151773214 0.0068321689032018185 -0.999961793422699
vn 0.005448473151773214 0.0068321689032018185 -0.999961793422699
vn 0.005448473151773214 0.0068321689032018185 -0.999961793422699
vn -0.0205277930945158 -0.007471505552530289 -0.9997613430023193
vn -0.021845221519470215 -4.518096610544014e-15 -0.9997613430023193
vn -0.0205277930945158 0.007471505552530289 -0.9997613430023193
vn -0.013106673955917358 0.022701425477862358 -0.9996563792228699
vn -0.0037933827843517065 0.02151334285736084 -0.9997613430023193
vn 0.0037933827843517065 0.02151334285736084 -0.9997613430023193
vn 0.0040505328215658665 0.012466258369386196 -0.9999141097068787
vn 0.005448473151773214 0.0068321689032018185 -0.999961793422699
vn 0.0106044327840209 0.007704571355134249 -0.9999141097068787
vn 0.010896530002355576 0.013663816265761852 -0.9998472929000854
vn 0.4461997151374817 0.6096474528312683 0.6551609039306641
vn 0.42418819665908813 0.6216916441917419 0.6584556698799133
vn 0.5921539664268494 0.6388508677482605 0.4911448359489441
vn 0.6502754092216492 0.5795848965644836 0.4911448359489441
vn 0.7129215598106384 0.6036836504936218 0.3568037748336792
vn 0.8445068597793579 0.5100980401039124 0.16312000155448914
vn 0.7002102732658386 0.6575412154197693 0.2781098484992981
vn 0.7303920984268188 0.6796672940254211 0.06767380982637405
vn 0.3598267138004303 0.6131772398948669 0.7032341957092285
vn 0.3885447084903717 0.6026870012283325 0.6969945430755615
vn 0.8411349058151245 0.17981764674186707 0.5100564956665039
vn 0.7502022981643677 0.06027156859636307 0.6584556698799133
vn 0.8991318345069885 -0.27508944272994995 0.34042292833328247
vn 0.7111104130744934 -0.4504801332950592 0.5398051738739014
vn 0.6593999862670898 -0.6407358646392822 0.3932546079158783
vn 0.39456111192703247 -0.8342293500900269 0.3852050006389618
vn 0.3589078485965729 -0.8948169946670532 0.26549527049064636
vn 0.2807622253894806 -0.9324526190757751 0.22738653421401978
vn 0.2685261070728302 -0.9632501006126404 0.006554040592163801
vn 0.05850254371762276 -0.9972332119941711 -0.04586252197623253
vn 0.3508528172969818 -0.9333096146583557 -0.0763898640871048
vn 0.1504354178905487 -0.9884243011474609 -0.01966099627315998
vn 0.547588050365448 -0.8352392315864563 -0.05022686347365379
vn 0.5172378420829773 -0.8556158542633057 0.01966099627315998
vn 0.7777625322341919 -0.6285240650177002 -0.006554040592163801
vn 0.7631204724311829 -0.6458093523979187 -0.024029340595006943
vn 0.9319356679916382 -0.3615100085735321 -0.028397228568792343
vn 0.9114102721214294 -0.41019245982170105 -0.03276457265019417
vn 0.994015097618103 -0.10548725724220276 -0.028397228568792343
vn 0.9981160163879395 0.060374896973371506 -0.010923261754214764
vn 0.9904890656471252 0.13547691702842712 -0.024029340595006943
vn 0.9562804102897644 0.29008448123931885 -0.03713129088282585
vn 0.9348354935646057 0.35453635454177856 -0.01966099627315998
vn 0.5970776677131653 -0.8006094694137573 -0.05022686347365379
vn 0.4512699842453003 -0.8923206329345703 -0.010923261754214764
vn 3.0973070245729484e-13 -0.9998067021369934 -0.01966099627315998
vn -0.33331233263015747 -0.9427531957626343 0.010923261754214764
vn -0.10734878480434418 -0.9924720525741577 -0.058952588587999344
vn -0.42224714159965515 -0.8973208665847778 -0.12854042649269104
vn -0.20976904034614563 -0.9723634123802185 -0.10250037163496017
vn -0.4459538161754608 -0.8881228566169739 -0.1111890971660614
vn -0.2902839779853821 -0.9569380283355713 -0.002184694167226553
vn -0.6565821170806885 -0.7472573518753052 0.10250037163496017
vn -0.4938848316669464 -0.8252581357955933 0.27391019463539124
vn -0.7814147472381592 -0.5229753851890564 0.34042292833328247
vn -0.572867214679718 -0.5795322060585022 0.5796254277229309
vn -0.7990889549255371 -0.02262236550450325 0.6007870435714722
vn -0.5127439498901367 -0.28153958916664124 0.8110666871070862
vn -0.5668672919273376 0.17072783410549164 0.8059239983558655
vn -0.0931866317987442 -0.38412052392959595 0.9185682535171509
vn 0.21427136659622192 -0.4313082695007324 0.8763908743858337
vn 0.2514817714691162 -0.7154325842857361 0.651853621006012
vn 0.26785677671432495 -0.9073681235313416 0.3239381015300751
vn 0.028310369700193405 -0.9933959245681763 0.1111890971660614
vn -0.1915339082479477 -0.655345618724823 0.7306414246559143
vn 0.8783173561096191 0.4780331552028656 0.006554040592163801
vn 0.8354799747467041 0.54916912317276 -0.01966099627315998
vn 0.8819023370742798 0.4713866114616394 -0.006554040592163801
vn 0.8513926863670349 0.5235045552253723 -0.03276457265019417
vn 0.8957372903823853 0.44453543424606323 -0.006554040592163801
vn 0.9022629261016846 0.43091505765914917 -0.0152922747656703
vn 0.7381122708320618 0.6740800142288208 -0.028397228568792343
vn 0.6687420010566711 0.7434656620025635 -0.006554040592163801
vn 0.877981960773468 0.47785061597824097 -0.028397228568792343
vn 0.818652868270874 0.5742512345314026 0.006554040592163801
vn 0.9591029286384583 0.283049076795578 0.002184694167226553
vn 0.9589198231697083 0.2829950451850891 -0.01966099627315998
vn 0.5863261222839355 0.809577226638794 -0.028397228568792343
vn 0.25394728779792786 0.9671958684921265 0.006554040592163801
vn -0.20055115222930908 0.9755908250808716 0.08945280313491821
vn -0.6915438175201416 0.7195544242858887 0.0633138045668602
vn -0.5705010890960693 0.8173179626464844 0.08074574917554855
vn -0.7483660578727722 0.6629945039749146 0.01966099627315998
vn -0.5555689334869385 0.8314676284790039 -0.002184694167226553
vn -0.6121036410331726 0.7891808748245239 -0.05022686347365379
vn -0.35954537987709045 0.9284007549285889 -0.09380380809307098
vn -0.5667712092399597 0.8057774901390076 -0.17173540592193604
vn -0.2372099608182907 0.9423844814300537 -0.23588760197162628
vn -0.44166332483291626 0.8102781176567078 -0.3852050006389618
vn 0.09236845374107361 0.9342207908630371 -0.34452807903289795
vn -0.06604732573032379 0.9270724654197693 -0.3690181374549866
vn 0.2736506164073944 0.9155195951461792 -0.2948545813560486
vn 0.42405664920806885 0.9054222106933594 0.01966099627315998
vn 0.5740320086479187 0.8183403015136719 0.028397228568792343
vn 0.6271888017654419 0.713860034942627 0.31150925159454346
vn 0.5980451107025146 0.6273773312568665 0.4987381398677826
vn 0.5739094018936157 0.6125843524932861 0.5434780716896057
vn 0.3487820029258728 0.5287730693817139 0.7737894654273987
vn 0.5178869962692261 0.6839535236358643 0.5138099193572998
vn 0.4474281966686249 0.5869705080986023 0.67473965883255
vn -0.04150191321969032 0.9962139129638672 0.0763898640871048
vn 0.14819081127643585 0.8114681243896484 0.5652954578399658
vn -0.2838570475578308 0.8614093661308289 0.42118772864341736
vn 0.26789507269859314 0.46651726961135864 0.8429672718048096
vn -0.2126627117395401 0.617938756942749 0.7569189071655273
vn -0.04127725586295128 0.3687446713447571 0.9286137819290161
vn -0.291206032037735 0.26726648211479187 0.9185682535171509
vn -0.2226206362247467 0.35051336884498596 0.9097144603729248
vn -0.4198775589466095 0.25111591815948486 0.872148871421814
vn -0.4001748859882355 0.4733290672302246 0.7847417593002319
vn -0.6646136045455933 0.24368232488632202 0.7063339352607727
vn -0.5201867818832397 0.4709135591983795 0.7124928832054138
vn -0.2733515501022339 0.563895046710968 0.7792953848838806
vn -0.14201810956001282 0.19099648296833038 0.9712626934051514
vn 0.16819216310977936 0.4835165739059448 0.8590245246887207
vn 0.49291715025901794 -0.3404123783111572 0.8007197380065918
vn -0.503840982913971 0.7519272565841675 -0.42514660954475403
vn -0.4697533845901489 0.8790971636772156 -0.08074574917554855
vn -0.6027413010597229 0.7731083631515503 -0.1975002884864807
vn -0.5091399550437927 0.8265067338943481 0.2401314377784729
vn -0.7049958109855652 0.6703164577484131 0.23163928091526031
vn -0.45528408885002136 0.6028935313224792 0.6551609039306641
vn -0.6961991786956787 0.40340298414230347 0.5937783122062683
vn -0.5386998057365417 0.12323062121868134 0.8334367275238037
vn -0.601621687412262 0.09757721424102783 0.7927988767623901
vn -0.7580075860023499 0.02261446788907051 0.651853621006012
vn -0.8363646268844604 -0.07159445434808731 0.5434780716896057
vn -0.9474170804023743 0.011317642405629158 0.3198012113571167
vn -0.9036537408828735 -0.3360389769077301 0.26549527049064636
vn -0.9836021065711975 -0.16534282267093658 0.07203252613544464
vn -0.8093453645706177 -0.5861581563949585 -0.03713129088282585
vn -0.9515868425369263 -0.2865648865699768 -0.1111890971660614
vn -0.7719144225120544 -0.5776334404945374 -0.26549527049064636
vn -0.9482197165489197 -0.12800957262516022 -0.29067665338516235
vn -0.8513965606689453 -0.30720391869544983 -0.42514660954475403
vn -0.9070192575454712 0.2169794887304306 -0.36088213324546814
vn -0.8794960975646973 -0.007549415808171034 -0.4758462607860565
vn -0.7895289659500122 0.373027503490448 -0.48733407258987427
vn -0.8485894799232483 0.26062530279159546 -0.46040233969688416
vn -0.7108770608901978 0.4996819794178009 -0.4949462115764618
vn -0.7810132503509521 0.45745888352394104 -0.42514660954475403
vn -0.5909889936447144 0.6830866932868958 -0.42909738421440125
vn -0.8791140913963318 0.395816445350647 -0.26549527049064636
vn -0.6965011954307556 0.6791386604309082 -0.23163928091526031
vn -0.9056869745254517 0.4170079529285431 -0.0763898640871048
vn -0.768534243106842 0.6366682052612305 -0.0633138045668602
vn -0.9147090315818787 0.4033980667591095 -0.024029340595006943
vn -0.9313386678695679 -0.09054235368967056 -0.3527185618877411
vn -0.8510451912879944 -0.3775326609611511 -0.3649536371231079
vn -0.7293799519538879 -0.5933945775032043 -0.34042292833328247
vn -0.5560817718505859 -0.8122706413269043 -0.1760382205247879
vn -0.6907072067260742 -0.7227352261543274 0.024029340595006943
vn -0.832530677318573 -0.4523492455482483 0.3198012113571167
vn -0.7436276078224182 -0.6223350763320923 -0.24437066912651062
vn -0.9085458517074585 -0.37888646125793457 -0.1760382205247879
vn -0.9784228801727295 0.01510589849203825 -0.2060592919588089
vn -0.9715709686279297 0.22092480957508087 -0.08510008454322815
vn -0.9835048913955688 0.18023395538330078 -0.0152922747656703
vn -0.9265640377998352 0.3756229281425476 0.01966099627315998
vn -0.9352118372917175 0.35110610723495483 0.04586252197623253
vn -0.6974842548370361 0.7148377299308777 0.05022686347365379
vn -0.8307533860206604 0.5550916790962219 0.04149730131030083
vn -0.49111276865005493 0.8707644939422607 0.024029340595006943
vn -0.9800070524215698 -0.1913272589445114 -0.05459024757146835
vn -0.7247685194015503 -0.684744656085968 -0.0763898640871048
vn -0.5713803768157959 -0.7986434698104858 -0.18892620503902435
vn 0.26910001039505005 0.5991530418395996 0.7540562748908997
vn 0.26523229479789734 0.5972650647163391 0.7569189071655273
vn 0.25740379095077515 0.646034836769104 0.7185974717140198
vn 0.3626708984375 0.5152088403701782 0.7765498161315918
vn 0.18047460913658142 0.6383527517318726 0.7482877969741821
vn 0.05460225045681 0.6805745363235474 0.7306414246559143
vn -0.14025700092315674 0.6483774185180664 0.7482877969741821
vn -0.2180459201335907 0.6125438213348389 0.7597671151161194
vn -0.08255024999380112 0.5500917434692383 0.8310141563415527
vn 0.19310252368450165 0.48219314217567444 0.8545181155204773
vn 0.05460225045681 0.6805745363235474 0.7306414246559143
vn 0.18047460913658142 0.6383527517318726 0.7482877969741821
vn 0.25740379095077515 0.646034836769104 0.7185974717140198
vn 0.26523229479789734 0.5972650647163391 0.7569189071655273
vn 0.26910001039505005 0.5991530418395996 0.7540562748908997
vn 0.3598267138004303 0.6131772398948669 0.7032341957092285
vn 0.42418819665908813 0.6216916441917419 0.6584556698799133
vn 0.4461997151374817 0.6096474528312683 0.6551609039306641
vn 0.5921539664268494 0.6388508677482605 0.4911448359489441
vn 0.6442222595214844 0.7508026957511902 0.1458524912595749
vn 0.7002102732658386 0.6575412154197693 0.2781098484992981
vn 0.7303920984268188 0.6796672940254211 0.06767380982637405
vn 0.3819218873977661 0.892453134059906 -0.2401314377784729
vn 0.5976679921150208 0.7840665578842163 -0.16742929816246033
vn 0.3025188446044922 0.9212846159934998 -0.24437066912651062
vn 0.6781810522079468 0.7155682444572449 -0.16742929816246033
vn 0.22814702987670898 0.9559599161148071 -0.18463370203971863
vn 0.7120870351791382 0.6894033551216125 -0.1328723281621933
vn 0.27937179803848267 0.9526713490486145 -0.11986933648586273
vn 0.21724578738212585 0.9760558009147644 -0.010923261754214764
vn -0.2757980227470398 0.9612131118774414 -0.002184694167226553
vn -0.30811405181884766 0.9482775330543518 0.0763898640871048
vn 0.2280949503183365 0.9702849388122559 0.08074574917554855
vn 0.657098114490509 0.7530926465988159 0.03276457265019417
vn 0.9055778384208679 0.42412951588630676 0.006554040592163801
vn 0.9348354935646057 0.35453635454177856 -0.01966099627315998
vn 0.6458710432052612 0.7631933689117432 -0.01966099627315998
vn 0.6529819369316101 0.7530569434165955 -0.08074574917554855
vn 0.8136089444160461 0.5799297094345093 -0.04149730131030083
vn 0.8954978585243225 0.4444166123867035 -0.024029340595006943
vn 0.8436187505722046 0.523391604423523 -0.11986933648586273
vn 0.8951696753501892 0.43049269914627075 -0.11553031951189041
vn 0.8725624680519104 0.4776279330253601 -0.10250037163496017
vn 0.8778862953186035 0.4712468981742859 -0.08510008454322815
vn 0.887742817401886 0.458049476146698 -0.04586252197623253
vn 0.8920139670372009 0.4511149227619171 -0.028397228568792343
vn 0.7583954334259033 0.6517031788825989 0.010923261754214764
vn 0.7440594434738159 0.6626715064048767 -0.08510008454322815
vn 0.7410193085670471 0.6502751708030701 -0.16742929816246033
vn 0.7401576042175293 0.6440765857696533 -0.19321508705615997
vn 0.7313597798347473 0.6553012728691101 -0.18892620503902435
vn 0.7655606865882874 0.614998996257782 -0.18892620503902435
vn 0.7737815976142883 0.6032661199569702 -0.19321508705615997
vn 0.7813032865524292 0.5975311398506165 -0.18033768236637115
vn 0.8016954064369202 0.5796650648117065 -0.1458524912595749
vn 0.820494532585144 0.5615805387496948 -0.10684575140476227
vn 0.8230388760566711 0.5615736246109009 -0.08510008454322815
vn 0.8502936959266663 0.5170750617980957 -0.0981530249118805
vn 0.8629103899002075 0.4909347891807556 -0.11986933648586273
vn 0.9543358683586121 0.29738306999206543 -0.028397228568792343
vn 0.9519355893135071 0.30454087257385254 -0.03276457265019417
vn 0.9543358683586121 0.29738306999206543 -0.028397228568792343
vn 0.9469199180603027 0.31877991557121277 -0.04149730131030083
vn 0.9562804102897644 0.29008448123931885 -0.03713129088282585
vn -0.5784497261047363 0.6812049150466919 -0.4487268626689911
vn -0.7788499593734741 0.5845409631729126 -0.22738653421401978
vn -0.8902056217193604 0.44066619873046875 0.11553031951189041
vn -0.945261538028717 0.30832549929618835 -0.10684575140476227
vn -0.9939249157905579 0.06412084400653839 -0.08945280313491821
vn -0.8137030005455017 0.45888829231262207 -0.3568037748336792
vn -0.8736516833305359 0.20576614141464233 0.4409002661705017
vn -0.7583073377609253 -0.0075391498394310474 0.651853621006012
vn -0.7825018167495728 -0.6226444840431213 -0.002184694167226553
vn -0.6743503212928772 -0.7384083271026611 0.002184694167226553
vn -0.5742293000221252 -0.8186216354370117 0.010923261754214764
vn -0.45799577236175537 -0.8888872265815735 0.010923261754214764
vn -0.5445409417152405 -0.8374794125556946 -0.04586252197623253
vn 0.9452975392341614 0.32620200514793396 -0.002184694167226553
vn 0.9349068999290466 0.3545634150505066 -0.0152922747656703
vn 0.9233834743499756 0.3824779689311981 -0.03276457265019417
vn 0.9203281402587891 0.3893808126449585 -0.03713129088282585
vn 0.917361319065094 0.3963198661804199 -0.03713129088282585
vn 0.917361319065094 0.3963198661804199 -0.03713129088282585
vn 0.9172036647796631 0.39625173807144165 -0.04149730131030083
vn 0.9172036647796631 0.39625173807144165 -0.04149730131030083
vn 0.917361319065094 0.3963198661804199 -0.03713129088282585
vn 0.917361319065094 0.3963198661804199 -0.03713129088282585
vn 0.9144819378852844 0.40329793095588684 -0.03276457265019417
vn 0.9116365313529968 0.4102942943572998 -0.024029340595006943
vn 0.9085988402366638 0.4172069728374481 -0.01966099627315998
vn 0.9054222106933594 0.42405664920806885 -0.01966099627315998
vn 0.8705483675003052 0.49099084734916687 -0.03276457265019417
vn 0.8916051983833313 0.45090818405151367 -0.04149730131030083
vn 0.8916051983833313 0.45090818405151367 -0.04149730131030083
vn 0.9372893571853638 0.34739354252815247 -0.028397228568792343
vn 0.8887684345245361 0.45793455839157104 -0.01966099627315998
vn 0.892269492149353 0.45124414563179016 -0.0152922747656703
vn 0.8887684345245361 0.45793455839157104 -0.01966099627315998
vn 0.8478681445121765 0.5302026271820068 -0.002184694167226553
vn 0.9177293181419373 0.3964788317680359 -0.024029340595006943
vn 0.9177293181419373 0.3964788317680359 -0.024029340595006943
vn 0.9148662090301514 0.40346741676330566 -0.0152922747656703
vn 0.9117932319641113 0.4103648066520691 -0.0152922747656703
vn 0.9469199180603027 0.31877991557121277 -0.04149730131030083
vn 0.9543358683586121 0.29738306999206543 -0.028397228568792343
vn 0.9519355893135071 0.30454087257385254 -0.03276457265019417
vn 0.9543358683586121 0.29738306999206543 -0.028397228568792343
vn 0.9589198231697083 0.2829950451850891 -0.01966099627315998
vn 0.9591029286384583 0.283049076795578 0.002184694167226553
vn 0.9376473426818848 0.3475262224674225 -0.006554040592163801
vn 0.9987804889678955 0.04528717324137688 0.01966099627315998
vn 0.9349068999290466 0.3545634150505066 0.0152922747656703
vn 0.9704205393791199 0.23918718099594116 0.03276457265019417
vn 0.8990345001220703 -0.43774157762527466 0.010923261754214764
vn 0.9944984316825867 -0.0979495495557785 0.03713129088282585
vn 0.9291790127754211 -0.3685375154018402 0.028397228568792343
vn 0.7280002236366272 -0.6852949261665344 0.01966099627315998
vn 0.5492739677429199 -0.835639476776123 0.002184694167226553
vn 0.13547691702842712 -0.9904890656471252 -0.024029340595006943
vn -0.2098405361175537 -0.9775379300117493 -0.01966099627315998
vn -0.497760146856308 -0.8671798706054688 -0.0152922747656703
vn -0.9178169369697571 -0.39651668071746826 -0.01966099627315998
vn -0.9999118447303772 0.007551383227109909 -0.010923261754214764
vn -0.9569380283355713 0.2902839779853821 -0.002184694167226553
vn -0.9426271915435791 -0.33326780796051025 -0.01966099627315998
vn -0.6797776818275452 -0.7331546545028687 -0.01966099627315998
vn -0.31185203790664673 -0.9500076174736023 -0.0152922747656703
vn -0.09049347788095474 -0.9958371520042419 -0.010923261754214764
vn 0.13551314175128937 -0.9907538890838623 -0.006554040592163801
vn 0.38268253207206726 -0.9238772988319397 -0.002184694167226553
vn 0.5365802049636841 -0.8438238501548767 0.006554040592163801
vn 0.9452975392341614 0.32620200514793396 -0.002184694167226553
vn 0.9349068999290466 0.3545634150505066 -0.0152922747656703
vn 0.9233834743499756 0.3824779689311981 -0.03276457265019417
vn 0.9203281402587891 0.3893808126449585 -0.03713129088282585
vn 0.917361319065094 0.3963198661804199 -0.03713129088282585
vn 0.917361319065094 0.3963198661804199 -0.03713129088282585
vn 0.9172036647796631 0.39625173807144165 -0.04149730131030083
vn 0.9172036647796631 0.39625173807144165 -0.04149730131030083
vn 0.917361319065094 0.3963198661804199 -0.03713129088282585
vn 0.917361319065094 0.3963198661804199 -0.03713129088282585
vn 0.9144819378852844 0.40329793095588684 -0.03276457265019417
vn 0.9116365313529968 0.4102942943572998 -0.024029340595006943
vn 0.9085988402366638 0.4172069728374481 -0.01966099627315998
vn 0.9054222106933594 0.42405664920806885 -0.01966099627315998
vn 0.9022629261016846 0.43091505765914917 -0.0152922747656703
vn 0.8957372903823853 0.44453543424606323 -0.006554040592163801
vn 0.8819023370742798 0.4713866114616394 -0.006554040592163801
vn 0.8783173561096191 0.4780331552028656 0.006554040592163801
vn 0.8746822476387024 0.48465242981910706 0.006554040592163801
vn 0.8746822476387024 0.48465242981910706 0.006554040592163801
vn 0.9055778384208679 0.42412951588630676 0.006554040592163801
vn 0.9117932319641113 0.4103648066520691 -0.0152922747656703
vn 0.9148662090301514 0.40346741676330566 -0.0152922747656703
vn 0.9177293181419373 0.3964788317680359 -0.024029340595006943
vn 0.9177293181419373 0.3964788317680359 -0.024029340595006943
vn 0.8478681445121765 0.5302026271820068 -0.002184694167226553
vn 0.8887684345245361 0.45793455839157104 -0.01966099627315998
vn 0.892269492149353 0.45124414563179016 -0.0152922747656703
vn 0.8887684345245361 0.45793455839157104 -0.01966099627315998
vn 0.9372893571853638 0.34739354252815247 -0.028397228568792343
vn 0.9821138978004456 0.180200457572937 -0.05459024757146835
vn 0.9994826912879944 0.015097145922482014 -0.028397228568792343
vn 0.9970494508743286 -0.0075479112565517426 -0.0763898640871048
vn 0.9590480327606201 -0.2830328643321991 -0.010923261754214764
vn 0.935492217540741 -0.29006627202033997 -0.2017817199230194
vn 0.7662988305091858 -0.627663791179657 -0.1372016966342926
vn 0.9459757804870605 -0.253799170255661 -0.2017817199230194
vn 0.7422534823417664 -0.6622336506843567 -0.10250037163496017
vn 0.9459525942802429 -0.31172412633895874 -0.08945280313491821
vn 0.7701891660690308 -0.634215235710144 -0.06767380982637405
vn 0.949745774269104 -0.3046216070652008 -0.07203252613544464
vn 0.7744791507720947 -0.6279702186584473 -0.0763898640871048
vn 0.9235069751739502 -0.3825291097164154 -0.028397228568792343
vn 0.6613727807998657 -0.7480681538581848 0.05459024757146835
vn 0.8433242440223694 -0.4963303208351135 0.2060592919588089
vn 0.5570886135101318 -0.8265182375907898 -0.08074574917554855
vn 0.4894860088825226 -0.8654406070709229 -0.10684575140476227
vn 0.40872225165367126 -0.9115057587623596 0.04586252197623253
vn -0.9838499426841736 0.16900847852230072 0.058952588587999344
vn -0.987057626247406 0.07541158050298691 0.1415284425020218
vn -0.9915785789489746 0.1280052661895752 0.01966099627315998
vn -0.9568284153938293 0.2902507185935974 0.0152922747656703
vn -0.9524446725845337 0.3047037422657013 -0.002184694167226553
vn -0.9777058959007263 0.20987659692764282 0.006554040592163801
vn 0.8916051983833313 0.45090818405151367 -0.04149730131030083
vn 0.8916051983833313 0.45090818405151367 -0.04149730131030083
vn 0.8705483675003052 0.49099084734916687 -0.03276457265019417
vn 0.8136089444160461 0.5799297094345093 -0.04149730131030083
vn 0.8954978585243225 0.4444166123867035 -0.024029340595006943
vn 0.8920139670372009 0.4511149227619171 -0.028397228568792343
vn 0.887742817401886 0.458049476146698 -0.04586252197623253
vn 0.8778862953186035 0.4712468981742859 -0.08510008454322815
vn 0.8725624680519104 0.4776279330253601 -0.10250037163496017
vn 0.8436187505722046 0.523391604423523 -0.11986933648586273
vn 0.8951696753501892 0.43049269914627075 -0.11553031951189041
vn 0.9165176153182983 0.36125123500823975 -0.17173540592193604
vn 0.8629103899002075 0.4909347891807556 -0.11986933648586273
vn 0.8502936959266663 0.5170750617980957 -0.0981530249118805
vn 0.9671391844749451 0.19502229988574982 -0.16312000155448914
vn 0.9648654460906982 0.19505175948143005 -0.1760382205247879
vn 0.9922536611557007 -0.09796547144651413 -0.0763898640871048
vn 0.9900256395339966 -0.12796029448509216 0.058952588587999344
vn 0.9608972668647766 -0.20244349539279938 0.18892620503902435
vn 0.9668313264846802 0.0979500561952591 0.23588760197162628
vn 0.9297124743461609 0.24618683755397797 0.27391019463539124
vn 0.9663575887680054 0.20231950283050537 0.15880759060382843
vn 0.9479654431343079 0.2829992175102234 -0.1458524912595749
vn 0.8161898851394653 0.5612573027610779 -0.1372016966342926
vn 0.7737815976142883 0.6032661199569702 -0.19321508705615997
vn 0.7813032865524292 0.5975311398506165 -0.18033768236637115
vn 0.8230388760566711 0.5615736246109009 -0.08510008454322815
vn 0.820494532585144 0.5615805387496948 -0.10684575140476227
vn 0.8016954064369202 0.5796650648117065 -0.1458524912595749
vn 0.0904986634850502 0.995894193649292 -0.002184694167226553
vn -0.23185190558433533 0.9721991419792175 0.03276457265019417
vn 0.7583954334259033 0.6517031788825989 0.010923261754214764
vn 0.7440594434738159 0.6626715064048767 -0.08510008454322815
vn 0.7410193085670471 0.6502751708030701 -0.16742929816246033
vn 0.7401576042175293 0.6440765857696533 -0.19321508705615997
vn 0.7313597798347473 0.6553012728691101 -0.18892620503902435
vn 0.7655606865882874 0.614998996257782 -0.18892620503902435
s on
f 1//1 2//2 3//3
f 2//2 4//4 3//3
f 3//3 4//4 5//5
f 4//4 6//6 5//5
f 2//2 7//7 4//4
f 7//7 8//8 4//4
f 4//4 8//8 9//9
f 8//8 10//10 9//9
f 9//9 10//10 11//11
f 10//10 12//12 11//11
f 11//11 12//12 13//13
f 12//12 14//14 13//13
f 13//13 14//14 15//15
f 14//14 16//16 15//15
f 15//15 16//16 17//17
f 16//16 18//18 17//17
f 17//17 18//18 19//19
f 18//18 20//20 19//19
f 16//16 14//14 21//21
f 14//14 12//12 21//21
f 21//21 12//12 22//22
f 12//12 10//10 22//22
f 22//22 10//10 23//23
f 10//10 8//8 23//23
f 23//23 8//8 24//24
f 8//8 25//25 24//24
f 24//24 26//26 23//23
f 26//26 27//27 23//23
f 23//23 27//27 22//22
f 27//27 28//28 22//22
f 22//22 28//28 21//21
f 28//28 29//29 21//21
f 21//21 29//29 16//16
f 29//29 30//30 16//16
f 16//16 30//30 18//18
f 30//30 31//31 18//18
f 18//18 31//31 20//20
f 26//26 32//32 27//27
f 32//32 33//33 27//27
f 27//27 33//33 28//28
f 33//33 34//34 28//28
f 28//28 34//34 35//35
f 34//34 36//36 35//35
f 35//35 36//36 37//37
f 37//37 38//38 35//35
f 38//38 30//30 35//35
f 35//35 30//30 29//29
f 38//38 39//39 30//30
f 39//39 31//31 30//30
f 4//4 9//9 6//6
f 9//9 40//40 6//6
f 40//40 9//9 41//41
f 9//9 11//11 41//41
f 41//41 11//11 42//42
f 11//11 13//13 42//42
f 42//42 13//13 43//43
f 13//13 44//44 43//43
f 13//13 15//15 44//44
f 15//15 45//45 44//44
f 45//45 15//15 46//46
f 15//15 17//17 46//46
f 46//46 17//17 47//47
f 17//17 19//19 47//47
f 47//47 48//48 46//46
f 48//48 49//49 46//46
f 46//46 49//49 45//45
f 50//50 51//51 52//52
f 51//51 53//53 52//52
f 52//52 53//53 54//54
f 53//53 55//55 54//54
f 54//54 55//55 56//56
f 55//55 57//57 56//56
f 51//51 58//58 53//53
f 58//58 59//59 53//53
f 53//53 59//59 60//60
f 59//59 61//61 60//60
f 60//60 61//61 62//62
f 61//61 63//63 62//62
f 62//62 63//63 64//64
f 63//63 65//65 64//64
f 64//64 65//65 66//66
f 65//65 67//67 66//66
f 66//66 67//67 68//68
f 67//67 69//69 68//68
f 68//68 69//69 70//70
f 69//69 71//71 70//70
f 70//70 71//71 72//72
f 71//71 73//73 72//72
f 72//72 73//73 74//74
f 73//73 75//75 74//74
f 74//74 75//75 76//76
f 75//75 77//77 76//76
f 76//76 77//77 78//78
f 77//77 79//79 78//78
f 78//78 79//79 80//80
f 79//79 81//81 80//80
f 80//80 81//81 82//82
f 77//77 75//75 83//83
f 75//75 84//84 83//83
f 83//83 84//84 85//85
f 84//84 71//71 85//85
f 85//85 71//71 86//86
f 71//71 87//87 86//86
f 86//86 87//87 88//88
f 87//87 89//89 88//88
f 88//88 89//89 90//90
f 89//89 91//91 90//90
f 90//90 91//91 92//92
f 91//91 93//93 92//92
f 92//92 93//93 94//94
f 93//93 95//95 94//94
f 94//94 95//95 96//96
f 95//95 97//97 96//96
f 96//96 97//97 98//98
f 97//97 99//99 98//98
f 98//98 99//99 100//100
f 99//99 101//101 100//100
f 100//100 101//101 65//65
f 101//101 102//102 65//65
f 65//65 102//102 67//67
f 102//102 103//103 67//67
f 67//67 103//103 69//69
f 103//103 91//91 69//69
f 69//69 91//91 89//89
f 91//91 103//103 93//93
f 103//103 102//102 93//93
f 93//93 102//102 95//95
f 102//102 104//104 95//95
f 95//95 104//104 97//97
f 104//104 99//99 97//97
f 99//99 104//104 101//101
f 104//104 102//102 101//101
f 105//105 106//106 107//107
f 106//106 108//108 107//107
f 107//107 108//108 109//109
f 108//108 110//110 109//109
f 106//106 111//111 108//108
f 111//111 112//112 108//108
f 108//108 112//112 113//113
f 112//112 114//114 113//113
f 113//113 114//114 115//115
f 114//114 116//116 115//115
f 111//111 117//117 112//112
f 117//117 118//118 112//112
f 112//112 118//118 119//119
f 118//118 120//120 119//119
f 119//119 120//120 121//121
f 120//120 122//122 121//121
f 121//121 122//122 123//123
f 122//122 124//124 123//123
f 123//123 124//124 125//125
f 124//124 126//126 125//125
f 125//125 126//126 127//127
f 126//126 128//128 127//127
f 127//127 128//128 129//129
f 128//128 130//130 129//129
f 129//129 130//130 131//131
f 130//130 132//132 131//131
f 131//131 132//132 133//133
f 132//132 134//134 133//133
f 133//133 134//134 135//135
f 134//134 136//136 135//135
f 135//135 136//136 137//137
f 136//136 138//138 137//137
f 137//137 138//138 139//139
f 138//138 140//140 139//139
f 139//139 140//140 141//141
f 140//140 142//142 141//141
f 141//141 142//142 143//143
f 142//142 144//144 143//143
f 143//143 144//144 145//145
f 144//144 146//146 145//145
f 145//145 146//146 147//147
f 146//146 148//148 147//147
f 147//147 148//148 149//149
f 148//148 150//150 149//149
f 149//149 150//150 151//151
f 150//150 98//98 151//151
f 151//151 98//98 152//152
f 98//98 153//153 152//152
f 152//152 153//153 154//154
f 153//153 100//100 154//154
f 154//154 100//100 155//155
f 100//100 65//65 155//155
f 155//155 65//65 63//63
f 132//132 130//130 140//140
f 130//130 156//156 140//140
f 140//140 156//156 157//157
f 156//156 158//158 157//157
f 157//157 158//158 159//159
f 158//158 160//160 159//159
f 159//159 160//160 161//161
f 160//160 162//162 161//161
f 161//161 162//162 146//146
f 162//162 163//163 146//146
f 146//146 163//163 148//148
f 163//163 164//164 148//148
f 148//148 164//164 150//150
f 164//164 165//165 150//150
f 150//150 165//165 166//166
f 165//165 167//167 166//166
f 166//166 167//167 168//168
f 167//167 169//169 168//168
f 168//168 169//169 170//170
f 169//169 171//171 170//170
f 170//170 171//171 172//172
f 171//171 173//173 172//172
f 172//172 173//173 174//174
f 173//173 175//175 174//174
f 174//174 175//175 176//176
f 175//175 177//177 176//176
f 176//176 177//177 178//178
f 177//177 179//179 178//178
f 178//178 179//179 180//180
f 179//179 181//181 180//180
f 180//180 181//181 182//182
f 181//181 183//183 182//182
f 182//182 183//183 184//184
f 183//183 185//185 184//184
f 184//184 185//185 186//186
f 185//185 122//122 186//186
f 186//186 122//122 120//120
f 180//180 182//182 178//178
f 182//182 187//187 178//178
f 178//178 187//187 176//176
f 187//187 188//188 176//176
f 176//176 188//188 174//174
f 188//188 189//189 174//174
f 174//174 189//189 172//172
f 189//189 190//190 172//172
f 172//172 190//190 170//170
f 190//190 191//191 170//170
f 170//170 191//191 168//168
f 191//191 192//192 168//168
f 168//168 192//192 166//166
f 192//192 96//96 166//166
f 166//166 96//96 150//150
f 96//96 98//98 150//150
f 190//190 189//189 193//193
f 189//189 188//188 193//193
f 193//193 188//188 194//194
f 188//188 187//187 194//194
f 194//194 187//187 195//195
f 187//187 182//182 195//195
f 195//195 182//182 196//196
f 182//182 184//184 196//196
f 196//196 184//184 197//197
f 184//184 186//186 197//197
f 197//197 186//186 198//198
f 186//186 120//120 198//198
f 198//198 120//120 199//199
f 120//120 200//200 199//199
f 199//199 200//200 201//201
f 200//200 202//202 201//201
f 195//195 203//203 194//194
f 203//203 204//204 194//194
f 194//194 204//204 193//193
f 204//204 205//205 193//193
f 193//193 205//205 190//190
f 205//205 88//88 190//190
f 190//190 88//88 90//90
f 190//190 90//90 191//191
f 90//90 92//92 191//191
f 191//191 92//92 192//192
f 92//92 94//94 192//192
f 192//192 94//94 96//96
f 69//69 89//89 71//71
f 89//89 87//87 71//71
f 58//58 206//206 59//59
f 206//206 207//207 59//59
f 59//59 207//207 208//208
f 59//59 208//208 209//209
f 208//208 210//210 209//209
f 209//209 210//210 154//154
f 210//210 211//211 154//154
f 154//154 211//211 212//212
f 211//211 213//213 212//212
f 212//212 213//213 149//149
f 213//213 214//214 149//149
f 149//149 214//214 147//147
f 214//214 215//215 147//147
f 147//147 215//215 145//145
f 215//215 143//143 145//145
f 213//213 216//216 214//214
f 216//216 217//217 214//214
f 214//214 217//217 215//215
f 217//217 137//137 215//215
f 215//215 137//137 143//143
f 137//137 139//139 143//143
f 143//143 139//139 141//141
f 217//217 218//218 137//137
f 218//218 219//219 137//137
f 137//137 219//219 220//220
f 220//220 221//221 137//137
f 221//221 222//222 137//137
f 137//137 222//222 223//223
f 137//137 223//223 135//135
f 223//223 224//224 135//135
f 135//135 224//224 225//225
f 224//224 226//226 225//225
f 225//225 226//226 227//227
f 135//135 225//225 133//133
f 225//225 228//228 133//133
f 133//133 228//228 131//131
f 228//228 129//129 131//131
f 225//225 229//229 228//228
f 229//229 230//230 228//228
f 228//228 230//230 129//129
f 230//230 127//127 129//129
f 229//229 231//231 230//230
f 231//231 232//232 230//230
f 230//230 232//232 127//127
f 232//232 125//125 127//127
f 231//231 233//233 232//232
f 233//233 234//234 232//232
f 232//232 234//234 125//125
f 234//234 235//235 125//125
f 125//125 235//235 236//236
f 235//235 237//237 236//236
f 236//236 237//237 123//123
f 237//237 121//121 123//123
f 121//121 237//237 119//119
f 237//237 238//238 119//119
f 119//119 238//238 112//112
f 238//238 114//114 112//112
f 237//237 235//235 238//238
f 235//235 239//239 238//238
f 238//238 239//239 114//114
f 239//239 240//240 114//114
f 114//114 240//240 241//241
f 239//239 235//235 242//242
f 235//235 243//243 242//242
f 242//242 243//243 244//244
f 243//243 245//245 244//244
f 235//235 234//234 243//243
f 234//234 233//233 243//243
f 243//243 233//233 246//246
f 233//233 247//247 246//246
f 246//246 248//248 243//243
f 248//248 249//249 243//243
f 243//243 249//249 250//250
f 250//250 251//251 243//243
f 251//251 245//245 243//243
f 134//134 132//132 136//136
f 132//132 138//138 136//136
f 225//225 227//227 229//229
f 227//227 252//252 229//229
f 229//229 252//252 253//253
f 253//253 254//254 229//229
f 254//254 255//255 229//229
f 229//229 255//255 256//256
f 229//229 256//256 231//231
f 256//256 257//257 231//231
f 231//231 257//257 258//258
f 258//258 259//259 231//231
f 259//259 260//260 231//231
f 231//231 260//260 261//261
f 261//261 262//262 231//231
f 262//262 233//233 231//231
f 262//262 263//263 233//233
f 263//263 264//264 233//233
f 233//233 264//264 247//247
f 140//140 157//157 142//142
f 157//157 159//159 142//142
f 142//142 159//159 144//144
f 159//159 161//161 144//144
f 144//144 161//161 146//146
f 154//154 155//155 209//209
f 155//155 63//63 209//209
f 209//209 63//63 61//61
f 116//116 114//114 265//265
f 114//114 266//266 265//265
f 266//266 114//114 267//267
f 114//114 268//268 267//267
f 268//268 114//114 269//269
f 114//114 241//241 269//269
f 130//130 128//128 156//156
f 128//128 181//181 156//156
f 156//156 181//181 270//270
f 181//181 179//179 270//270
f 270//270 179//179 177//177
f 181//181 128//128 183//183
f 128//128 126//126 183//183
f 183//183 126//126 185//185
f 126//126 124//124 185//185
f 185//185 124//124 122//122
f 156//156 270//270 158//158
f 270//270 271//271 158//158
f 158//158 271//271 272//272
f 271//271 273//273 272//272
f 272//272 273//273 167//167
f 273//273 274//274 167//167
f 167//167 274//274 169//169
f 274//274 171//171 169//169
f 271//271 275//275 273//273
f 275//275 175//175 273//273
f 273//273 175//175 274//274
f 175//175 173//173 274//274
f 274//274 173//173 171//171
f 271//271 270//270 275//275
f 270//270 177//177 275//275
f 275//275 177//177 175//175
f 158//158 272//272 160//160
f 272//272 162//162 160//160
f 162//162 272//272 276//276
f 272//272 167//167 276//276
f 276//276 167//167 277//277
f 167//167 165//165 277//277
f 277//277 165//165 164//164
f 162//162 276//276 163//163
f 276//276 277//277 163//163
f 163//163 277//277 164//164
f 195//195 196//196 203//203
f 196//196 197//197 203//203
f 203//203 197//197 278//278
f 197//197 279//279 278//278
f 278//278 279//279 280//280
f 279//279 281//281 280//280
f 280//280 281//281 86//86
f 281//281 85//85 86//86
f 203//203 278//278 204//204
f 278//278 280//280 204//204
f 204//204 280//280 282//282
f 280//280 86//86 282//282
f 282//282 86//86 88//88
f 88//88 205//205 282//282
f 205//205 204//204 282//282
f 115//115 283//283 113//113
f 283//283 284//284 113//113
f 113//113 284//284 285//285
f 285//285 286//286 113//113
f 286//286 287//287 113//113
f 113//113 287//287 288//288
f 288//288 289//289 113//113
f 289//289 290//290 113//113
f 113//113 290//290 291//291
f 291//291 292//292 113//113
f 292//292 108//108 113//113
f 292//292 293//293 108//108
f 293//293 294//294 108//108
f 108//108 294//294 295//295
f 295//295 296//296 108//108
f 296//296 110//110 108//108
f 154//154 212//212 152//152
f 212//212 149//149 152//152
f 152//152 149//149 151//151
f 244//244 297//297 242//242
f 297//297 298//298 242//242
f 242//242 298//298 299//299
f 299//299 300//300 242//242
f 300//300 301//301 242//242
f 242//242 301//301 302//302
f 302//302 303//303 242//242
f 303//303 304//304 242//242
f 242//242 304//304 239//239
f 304//304 305//305 239//239
f 239//239 305//305 306//306
f 306//306 307//307 239//239
f 307//307 308//308 239//239
f 239//239 308//308 240//240
f 71//71 84//84 73//73
f 84//84 75//75 73//73
f 81//81 79//79 309//309
f 79//79 310//310 309//309
f 310//310 79//79 311//311
f 79//79 312//312 311//311
f 312//312 79//79 313//313
f 79//79 314//314 313//313
f 314//314 79//79 315//315
f 79//79 316//316 315//315
f 315//315 316//316 317//317
f 316//316 318//318 317//317
f 316//316 79//79 319//319
f 79//79 77//77 319//319
f 319//319 77//77 83//83
f 319//319 320//320 316//316
f 320//320 318//318 316//316
f 320//320 319//319 321//321
f 319//319 322//322 321//321
f 322//322 319//319 323//323
f 319//319 83//83 323//323
f 323//323 83//83 324//324
f 83//83 85//85 324//324
f 324//324 85//85 325//325
f 85//85 281//281 325//325
f 325//325 281//281 326//326
f 281//281 279//279 326//326
f 326//326 279//279 327//327
f 279//279 197//197 327//327
f 327//327 197//197 328//328
f 197//197 329//329 328//328
f 328//328 330//330 327//327
f 330//330 331//331 327//327
f 327//327 331//331 326//326
f 331//331 332//332 326//326
f 326//326 332//332 325//325
f 332//332 333//333 325//325
f 325//325 333//333 324//324
f 333//333 334//334 324//324
f 324//324 334//334 335//335
f 324//324 335//335 323//323
f 335//335 336//336 323//323
f 323//323 336//336 322//322
f 314//314 315//315 337//337
f 315//315 338//338 337//337
f 338//338 315//315 339//339
f 315//315 340//340 339//339
f 340//340 315//315 341//341
f 315//315 342//342 341//341
f 342//342 315//315 343//343
f 315//315 344//344 343//343
f 344//344 315//315 345//345
f 315//315 346//346 345//345
f 346//346 315//315 347//347
f 315//315 348//348 347//347
f 348//348 315//315 349//349
f 315//315 350//350 349//349
f 350//350 315//315 351//351
f 315//315 352//352 351//351
f 352//352 315//315 353//353
f 315//315 354//354 353//353
f 354//354 315//315 355//355
f 315//315 356//356 355//355
f 82//82 357//357 80//80
f 357//357 358//358 80//80
f 80//80 358//358 359//359
f 359//359 360//360 80//80
f 360//360 361//361 80//80
f 80//80 361//361 362//362
f 362//362 363//363 80//80
f 363//363 364//364 80//80
f 80//80 364//364 365//365
f 365//365 366//366 80//80
f 366//366 367//367 80//80
f 80//80 367//367 368//368
f 367//367 369//369 368//368
f 368//368 369//369 370//370
f 369//369 371//371 370//370
f 370//370 371//371 372//372
f 371//371 373//373 372//372
f 372//372 373//373 374//374
f 373//373 375//375 374//374
f 374//374 375//375 376//376
f 375//375 377//377 376//376
f 376//376 377//377 378//378
f 377//377 379//379 378//378
f 378//378 379//379 380//380
f 379//379 381//381 380//380
f 380//380 381//381 66//66
f 381//381 64//64 66//66
f 374//374 72//72 372//372
f 72//72 74//74 372//372
f 372//372 74//74 370//370
f 74//74 76//76 370//370
f 370//370 76//76 368//368
f 76//76 78//78 368//368
f 368//368 78//78 80//80
f 374//374 376//376 72//72
f 376//376 382//382 72//72
f 72//72 382//382 70//70
f 382//382 383//383 70//70
f 70//70 383//383 68//68
f 383//383 384//384 68//68
f 68//68 384//384 66//66
f 384//384 380//380 66//66
f 380//380 384//384 378//378
f 384//384 383//383 378//378
f 378//378 383//383 376//376
f 383//383 382//382 376//376
f 201//201 385//385 199//199
f 385//385 386//386 199//199
f 199//199 386//386 387//387
f 387//387 388//388 199//199
f 388//388 198//198 199//199
f 198//198 388//388 197//197
f 388//388 329//329 197//197
f 329//329 388//388 389//389
f 388//388 390//390 389//389
f 366//366 391//391 367//367
f 391//391 392//392 367//367
f 367//367 392//392 393//393
f 393//393 394//394 367//367
f 394//394 395//395 367//367
f 367//367 395//395 396//396
f 396//396 397//397 367//367
f 397//397 398//398 367//367
f 367//367 398//398 399//399
f 399//399 400//400 367//367
f 400//400 401//401 367//367
f 367//367 401//401 402//402
f 401//401 403//403 402//402
f 402//402 403//403 404//404
f 367//367 402//402 405//405
f 402//402 406//406 405//405
f 405//405 406//406 373//373
f 406//406 375//375 373//373
f 375//375 406//406 377//377
f 406//406 407//407 377//377
f 377//377 407//407 379//379
f 407//407 408//408 379//379
f 379//379 408//408 381//381
f 408//408 409//409 381//381
f 381//381 409//409 62//62
f 409//409 410//410 62//62
f 62//62 410//410 411//411
f 410//410 55//55 411//411
f 411//411 55//55 53//53
f 409//409 408//408 410//410
f 408//408 412//412 410//410
f 410//410 412//412 55//55
f 412//412 413//413 55//55
f 55//55 413//413 414//414
f 413//413 402//402 414//414
f 414//414 402//402 415//415
f 402//402 416//416 415//415
f 412//412 408//408 413//413
f 408//408 407//407 413//413
f 413//413 407//407 406//406
f 404//404 417//417 402//402
f 417//417 418//418 402//402
f 402//402 418//418 419//419
f 373//373 371//371 405//405
f 371//371 369//369 405//405
f 405//405 369//369 367//367
f 53//53 60//60 411//411
f 60//60 62//62 411//411
f 117//117 420//420 118//118
f 420//420 421//421 118//118
f 118//118 421//421 120//120
f 421//421 200//200 120//120
f 200//200 421//421 202//202
f 421//421 420//420 202//202
f 57//57 55//55 422//422
f 55//55 414//414 422//422
f 422//422 414//414 423//423
f 414//414 424//424 423//423
f 424//424 414//414 425//425
f 414//414 426//426 425//425
f 426//426 414//414 427//427
f 414//414 415//415 427//427
f 8//8 7//7 25//25
f 28//28 35//35 29//29
f 52//52 54//54 56//56
f 390//390 388//388 387//387
f 356//356 315//315 317//317
f 416//416 402//402 419//419
f 381//381 62//62 64//64
f 132//132 140//140 138//138
f 413//413 406//406 402//402
f 123//123 125//125 236//236
f 100//100 153//153 98//98
f 61//61 59//59 209//209

