# Exported by Sketchfab Model Ripper robust edition
o model_3
v 0.31518399715423584 0.9713226556777954 0.34978461265563965
v 0.31878387928009033 0.9709215760231018 0.3327237665653229
v 0.31526970863342285 0.969584584236145 0.3576211631298065
v 0.3191267251968384 0.9640583992004395 0.33092787861824036
v 0.32418370246887207 0.9641029834747314 0.32170361280441284
v 0.3346405029296875 0.9644595384597778 0.30790799856185913
v 0.32769787311553955 0.9579083323478699 0.32129544019699097
v 0.33781182765960693 0.9587996602058411 0.30488765239715576
v 0.34535443782806396 0.9512234330177307 0.3092140853404999
v 0.35418272018432617 0.9516690969467163 0.2918267250061035
v 0.37458208203315735 0.9337981343269348 0.2926430404186249
v 0.37663915753364563 0.9439145922660828 0.27435773611068726
v 0.38992443680763245 0.9417308568954468 0.2685619592666626
v 0.37835338711738586 0.9522484540939331 0.2683987021446228
v 0.3961813747882843 0.9518027901649475 0.2639090120792389
v 0.3901815712451935 0.9596464037895203 0.2668476998806
v 0.40029552578926086 0.9596018195152283 0.2683170735836029
v 0.38718166947364807 0.9706096053123474 0.28415343165397644
v 0.4216376841068268 0.9759575724601746 0.30962225794792175
v 0.4165807068347931 0.9910654425621033 0.35419267416000366
v 0.4494939148426056 0.9775173664093018 0.34276434779167175
v 0.44837966561317444 0.9826424717903137 0.3675801157951355
v 0.48274996876716614 0.9586213827133179 0.34015217423439026
v 0.4848070442676544 0.9646823406219482 0.3658658564090729
v 0.4899497628211975 0.9592898488044739 0.36162108182907104
v 0.4870355427265167 0.9584431052207947 0.37566155195236206
v 0.4896926283836365 0.9504212141036987 0.3598251938819885
v 0.481550008058548 0.9499755501747131 0.3812124729156494
v 0.4839499294757843 0.9472124576568604 0.36815154552459717
v 0.4676647484302521 0.939680814743042 0.3865184485912323
v 0.4531795084476471 0.9255979657173157 0.35713136196136475
v 0.445208340883255 0.9268012642860413 0.3998242914676666
v 0.43089452385902405 0.9164619445800781 0.35402941703796387
v 0.42566612362861633 0.9243055582046509 0.4141096770763397
v 0.41778066754341125 0.9185565114021301 0.36366182565689087
v 0.41692355275154114 0.9257762432098389 0.4199054539203644
v 0.40680959820747375 0.9272023439407349 0.42104828357696533
v 0.408523827791214 0.9323274493217468 0.4268440902233124
v 0.3990955650806427 0.9305447936058044 0.4189258813858032
v 0.4004669487476349 0.9332633018493652 0.426027774810791
v 0.38838163018226624 0.9394134283065796 0.426027774810791
v 0.39566710591316223 0.940438449382782 0.43002766370773315
v 0.3846103250980377 0.946945071220398 0.43019095063209534
v 0.3962670862674713 0.9467667937278748 0.4308439791202545
v 0.393867164850235 0.9547441005706787 0.42945626378059387
v 0.4071524441242218 0.9489505290985107 0.42717060446739197
v 0.43458011746406555 0.9558582901954651 0.41133421659469604
v 0.44117990136146545 0.9456972479820251 0.410273015499115
v 0.459607869386673 0.9622312188148499 0.4009671211242676
v 0.46672192215919495 0.9479255080223083 0.3955794870853424
v 0.4788929522037506 0.9591561555862427 0.38945716619491577
v 0.4767501652240753 0.9496635794639587 0.3883959650993347
v 0.47777870297431946 0.9646377563476562 0.3883143365383148
v 0.4590936005115509 0.9727488160133362 0.3938652276992798
v 0.39935269951820374 0.975511908531189 0.4139464199542999
v 0.4179520905017853 0.9915111064910889 0.38733476400375366
v 0.3770677149295807 0.9950763583183289 0.3985998332500458
v 0.3785248100757599 0.9989535808563232 0.3869266211986542
v 0.36575379967689514 0.9952991604804993 0.3977018892765045
v 0.34904003143310547 0.994541585445404 0.38733476400375366
v 0.3469829559326172 0.9830881357192993 0.4082322418689728
v 0.3360118865966797 0.9787206649780273 0.4034160375595093
v 0.3486114740371704 0.977606475353241 0.41615045070648193
v 0.34655439853668213 0.9713672399520874 0.4187626242637634
v 0.3595825433731079 0.9719911813735962 0.4241502583026886
v 0.36061108112335205 0.9625877737998962 0.4261910319328308
v 0.3692679703235626 0.9727042317390442 0.4239870011806488
v 0.36883941292762756 0.9648606181144714 0.42749711871147156
v 0.38255324959754944 0.9539865255355835 0.4310072362422943
v 0.3624967336654663 0.9559473991394043 0.4169667363166809
v 0.372096449136734 0.9501984119415283 0.383743017911911
v 0.38692453503608704 0.9395917057991028 0.38529399037361145
v 0.38263896107673645 0.9466331005096436 0.35974356532096863
v 0.4040668308734894 0.9267566800117493 0.36643728613853455
v 0.39352431893348694 0.9193141460418701 0.3203158974647522
v 0.4123808443546295 0.9099553227424622 0.3112548589706421
v 0.4334658682346344 0.9077270030975342 0.3111732304096222
v 0.4501796066761017 0.9108911752700806 0.31672412157058716
v 0.45052245259284973 0.913342297077179 0.31011202931404114
v 0.4735788404941559 0.9262664318084717 0.3158261775970459
v 0.46012213826179504 0.9385666847229004 0.2990102469921112
v 0.47992148995399475 0.9329959154129028 0.31909140944480896
v 0.4831785261631012 0.93963623046875 0.32398927211761475
v 0.48874980211257935 0.9423993229866028 0.3393358588218689
v 0.4906354546546936 0.9503321051597595 0.34700915217399597
v 0.34389734268188477 0.9622758030891418 0.36202922463417053
v 0.3550398349761963 0.945518970489502 0.31403031945228577
v 0.39712420105934143 0.9169967174530029 0.30733659863471985
v 0.40818098187446594 0.912629246711731 0.30292853713035583
v 0.41855207085609436 0.9109803438186646 0.30301016569137573
v 0.4078381359577179 0.94266676902771 0.2685619592666626
v 0.41786637902259827 0.9471233487129211 0.2706843614578247
v 0.44332268834114075 0.9532734751701355 0.290357381105423
v 0.4362086355686188 0.9662867188453674 0.3009693920612335
v 0.32418370246887207 0.9602257609367371 0.33092787861824036
v 0.3191267251968384 0.9640583992004395 0.33092787861824036
v 0.31526970863342285 0.969584584236145 0.3576211631298065
v 0.32418370246887207 0.9665095806121826 0.3670903444290161
v 0.3205838203430176 0.971857488155365 0.38088592886924744
v 0.32906925678253174 0.9671780467033386 0.38464096188545227
v 0.3301835060119629 0.9702531099319458 0.4011303782463074
v 0.3428688049316406 0.964504063129425 0.40692615509033203
v 0.34681153297424316 0.9661530256271362 0.41615045070648193
v 0.4841213524341583 0.964593231678009 0.3750085234642029
v 0.47692158818244934 0.969584584236145 0.3743554651737213
v 0.4731502830982208 0.9706096053123474 0.3835797607898712
v 0.47100749611854553 0.9728379249572754 0.374600350856781
v 0.46449342370033264 0.9757347106933594 0.37533503770828247
v 0.45137956738471985 0.9813500046730042 0.37549829483032227
v 0.44555118680000305 0.9836674928665161 0.37574321031570435
v 0.43955138325691223 0.9858511686325073 0.37557992339134216
v 0.43320873379707336 0.9880349040031433 0.3751717805862427
v 0.4106666147708893 0.9952100515365601 0.3726412355899811
v 0.39446714520454407 0.9946306943893433 0.3625189960002899
v 0.38846734166145325 0.9949426651000977 0.3622741103172302
v 0.3822961151599884 0.9952991604804993 0.36186596751213074
v 0.3756963312625885 0.9956557154655457 0.36162108182907104
v 0.3690108358860016 0.9961459636688232 0.36162108182907104
v 0.3625824451446533 0.9960567951202393 0.36202922463417053
v 0.35615408420562744 0.9948535561561584 0.3622741103172302
v 0.34955430030822754 0.9930263161659241 0.3621924817562103
v 0.3428688049316406 0.9912436604499817 0.3625189960002899
v 0.33729755878448486 0.9896838665008545 0.3622741103172302
v 0.33129775524139404 0.9877675175666809 0.36186596751213074
v 0.3229837417602539 0.9840685725212097 0.3603965938091278
v 0.330869197845459 0.9865196943283081 0.3557436466217041
v 0.3304406404495239 0.9848262071609497 0.34994786977767944
v 0.3228123188018799 0.9784978032112122 0.38553890585899353
v 0.3301835060119629 0.9702531099319458 0.4011303782463074
v 0.3205838203430176 0.971857488155365 0.38088592886924744
v 0.3169839382171631 0.977651059627533 0.3577844202518463
v 0.31526970863342285 0.969584584236145 0.3576211631298065
v 0.3179267644882202 0.9774727821350098 0.34978461265563965
v 0.31518399715423584 0.9713226556777954 0.34978461265563965
v 0.323755145072937 0.9819739460945129 0.34970298409461975
v 0.4581507742404938 0.9784532189369202 0.37549829483032227
v 0.3997812569141388 0.9942296147346497 0.36243736743927
v 0.4057810604572296 0.9937393665313721 0.36194759607315063
v 0.4128094017505646 0.9931154847145081 0.36202922463417053
v 0.4194948971271515 0.9915111064910889 0.36202922463417053
v 0.4254947006702423 0.9896838665008545 0.36211085319519043
v 0.43106594681739807 0.9879012107849121 0.3623557388782501
v 0.43226590752601624 0.9882577657699585 0.36880457401275635
v 0.4841213524341583 0.964593231678009 0.3750085234642029
v 0.47692158818244934 0.969584584236145 0.3743554651737213
v 0.47100749611854553 0.9728379249572754 0.374600350856781
v 0.46449342370033264 0.9757347106933594 0.37533503770828247
v 0.4581507742404938 0.9784532189369202 0.37549829483032227
v 0.45137956738471985 0.9813500046730042 0.37549829483032227
v 0.44555118680000305 0.9836674928665161 0.37574321031570435
v 0.43955138325691223 0.9858511686325073 0.37557992339134216
v 0.43226590752601624 0.9882577657699585 0.36880457401275635
v 0.43320873379707336 0.9880349040031433 0.3751717805862427
v 0.43106594681739807 0.9879012107849121 0.3623557388782501
v 0.4254947006702423 0.9896838665008545 0.36211085319519043
v 0.4194948971271515 0.9915111064910889 0.36202922463417053
v 0.4128094017505646 0.9931154847145081 0.36202922463417053
v 0.4057810604572296 0.9937393665313721 0.36194759607315063
v 0.3997812569141388 0.9942296147346497 0.36243736743927
v 0.39446714520454407 0.9946306943893433 0.3625189960002899
v 0.38846734166145325 0.9949426651000977 0.3622741103172302
v 0.36198246479034424 0.9952991604804993 0.3575395345687866
v 0.3822961151599884 0.9952991604804993 0.36186596751213074
v 0.3756963312625885 0.9956557154655457 0.36162108182907104
v 0.372182160615921 0.9684704542160034 0.28145962953567505
v 0.33198344707489014 0.979077160358429 0.32896873354911804
v 0.3477543592453003 0.9665986895561218 0.29541850090026855
v 0.3509256839752197 0.9587104916572571 0.29084715247154236
v 0.37398210167884827 0.9595572352409363 0.27248021960258484
v 0.3690108358860016 0.9961459636688232 0.36162108182907104
v 0.3625824451446533 0.9960567951202393 0.36202922463417053
v 0.35615408420562744 0.9948535561561584 0.3622741103172302
v 0.34955430030822754 0.9930263161659241 0.3621924817562103
v 0.3428688049316406 0.9912436604499817 0.3625189960002899
v 0.33729755878448486 0.9896838665008545 0.3622741103172302
v 0.330869197845459 0.9865196943283081 0.3557436466217041
v 0.3304406404495239 0.9848262071609497 0.34994786977767944
v 0.3209266662597656 0.9764477610588074 0.33827465772628784
v 0.323755145072937 0.9819739460945129 0.34970298409461975
v 0.3179267644882202 0.9774727821350098 0.34978461265563965
v 0.45000818371772766 0.9386112093925476 0.29354098439216614
v 0.4574650824069977 0.9452961087226868 0.2986837327480316
v 0.44777968525886536 0.9456080794334412 0.2895410656929016
v 0.47906437516212463 0.9300100207328796 0.3268463611602783
v 0.3678108751773834 0.9901741147041321 0.407252699136734
v 0.4610649645328522 0.9383884072303772 0.39459991455078125
v 0.42575183510780334 0.9300100207328796 0.419415682554245
v 0.41778066754341125 0.9378090500831604 0.42480331659317017
v 0.40672388672828674 0.9391460418701172 0.4290481209754944
v 0.33129775524139404 0.9877675175666809 0.36186596751213074
vn -0.7418173551559448 -0.6564165949821472 -0.1372016966342926
vn -0.7279741764068604 0.5008956789970398 -0.46814218163490295
vn -0.978363573551178 -0.14673714339733124 -0.1458524912595749
vn -0.9696157574653625 0.011324446648359299 -0.24437066912651062
vn -0.8386353850364685 -0.1911361664533615 -0.5100564956665039
vn -0.7673987746238708 0.15745584666728973 -0.6215357780456543
vn -0.6061796545982361 -0.7540693879127502 -0.25283506512641907
vn -0.7052754759788513 -0.450803279876709 -0.5471406579017639
vn -0.5605804324150085 -0.8100966215133667 -0.17173540592193604
vn -0.6446449160575867 -0.5485917329788208 -0.5324283838272095
vn -0.48520708084106445 -0.8001022934913635 -0.3527185618877411
vn -0.5407604575157166 -0.6261686682701111 -0.5616858005523682
vn -0.2016243189573288 -0.7427411675453186 -0.6385006904602051
vn -0.5025358200073242 -0.1454099863767624 -0.8522403836250305
vn 0.05357155576348305 -0.029451211914420128 -0.9981296062469482
vn -0.10530004650354385 0.6648383140563965 -0.7395281791687012
vn 0.30912530422210693 0.751227080821991 -0.5831804275512695
vn 0.05662721395492554 0.938565731048584 -0.34042292833328247
vn 0.2243163287639618 0.9052327275276184 -0.36088213324546814
vn 0.1317666918039322 0.9502325654029846 -0.28230419754981995
vn 0.3784273564815521 0.8815311193466187 -0.28230419754981995
vn 0.4029911458492279 0.8989466428756714 -0.17173540592193604
vn 0.5436473488807678 0.7456974387168884 -0.3852050006389618
vn 0.49545812606811523 0.8506067395210266 -0.1760382205247879
vn 0.8926465511322021 0.4442371726036072 -0.0763898640871048
vn 0.933782160282135 0.06033666431903839 0.3527185618877411
vn 0.826188325881958 -0.515468955039978 0.22738653421401978
vn 0.7795077562332153 -0.5001435875892639 0.37712597846984863
vn 0.5439838171005249 -0.8064892292022705 0.23163928091526031
vn 0.5752466917037964 -0.7904753684997559 0.2103329300880432
vn 0.4586446285247803 -0.8623171448707581 0.21460255980491638
vn 0.43015384674072266 -0.875822126865387 0.21886809170246124
vn 0.14100000262260437 -0.9734461307525635 0.18033768236637115
vn 0.11490508168935776 -0.975245475769043 0.18892620503902435
vn -0.27013248205184937 -0.9510396122932434 0.15017375349998474
vn -0.04524406045675278 -0.9642021059989929 0.2612801790237427
vn -0.3682610094547272 -0.9235625863075256 0.10684575140476227
vn 0.10100049525499344 -0.5246429443359375 0.8453097939491272
vn -0.5552719235420227 -0.8310232162475586 0.03276457265019417
vn -0.22797606885433197 -0.6894360184669495 0.6875353455543518
vn -0.5344873666763306 -0.7350170612335205 0.417220801115036
vn -0.12409966439008713 -0.40869712829589844 0.9041935205459595
vn -0.2609754502773285 -0.3074442744255066 0.9150791168212891
vn 0.12189392000436783 0.08396344631910324 0.9889853596687317
vn 0.2562015652656555 0.46884119510650635 0.8453097939491272
vn 0.3991245627403259 0.2695155739784241 0.8763908743858337
vn 0.3413097858428955 0.3865702450275421 0.8567795157432556
vn 0.5006305575370789 0 0.865661084651947
vn 0.38135826587677 0.3003389537334442 0.87427818775177
vn 0.5406319499015808 -0.24125434458255768 0.8059239983558655
vn 0.6716063022613525 -0.04519989714026451 0.7395281791687012
vn 0.6463736891746521 -0.46589019894599915 0.6042742133140564
vn 0.5992885828018188 0.5739479064941406 0.5580654144287109
vn 0.30283284187316895 0.7224856615066528 0.6215357780456543
vn 0.2591032087802887 0.6316871047019958 0.7306414246559143
vn 0.2655990719795227 0.8613556027412415 0.43303996324539185
vn 0.1925644725561142 0.8170376420021057 0.5434780716896057
vn 0.030177012085914612 0.9986827969551086 0.04149730131030083
vn -0.20014813542366028 0.9059554934501648 0.37307560443878174
vn -0.35256922245025635 0.9214590787887573 0.16312000155448914
vn -0.34867024421691895 0.8097198605537415 0.4719987213611603
vn -0.5840305685997009 0.6520141959190369 0.4835140109062195
vn -0.3087802529335022 0.6703589558601379 0.67473965883255
vn -0.6467704772949219 0.01131037063896656 0.762600839138031
vn -0.16711941361427307 0.5679416060447693 0.8059239983558655
vn -0.4884602725505829 -0.40330684185028076 0.7737894654273987
vn 0.1382739096879959 0.5864514112472534 0.7980946898460388
vn -0.01126154325902462 0.3463951647281647 0.9380210638046265
vn -0.08015761524438858 0.08015761524438858 0.9935539960861206
vn -0.4743819832801819 -0.8769984841346741 0.0763898640871048
vn -0.4911971688270569 -0.8709141612052917 -0.0152922747656703
vn -0.6062465906143188 -0.7939531803131104 -0.04586252197623253
vn -0.5351766347885132 -0.8213279247283936 0.1975002884864807
vn -0.5917209982872009 -0.7990308403968811 0.10684575140476227
vn -0.5502302646636963 -0.797146201133728 0.24860523641109467
vn -0.20778989791870117 -0.9685035347938538 0.1372016966342926
vn 0.020760230720043182 -0.9982929825782776 0.05459024757146835
vn 0.3735034167766571 -0.9054166674613953 0.2017817199230194
vn 0.33919811248779297 -0.5925434231758118 -0.7306414246559143
vn 0.5807502269744873 -0.6314495801925659 -0.5138099193572998
vn 0.5763065218925476 -0.2709384858608246 -0.7710143327713013
vn 0.815160870552063 -0.2600981891155243 -0.5175535082817078
vn 0.7177626490592957 0.4114922285079956 -0.5616858005523682
vn 0.8782334923744202 -0.47798752784729004 -0.0152922747656703
vn 0.9189028143882751 0.27553945779800415 -0.28230419754981995
vn -0.32950201630592346 -0.9359493851661682 0.1242060661315918
vn -0.44839274883270264 -0.8621490597724915 0.23588760197162628
vn -0.5250446200370789 -0.8490304350852966 -0.058952588587999344
vn -0.3176690638065338 -0.8310695290565491 -0.456519216299057
vn 0.19026874005794525 -0.6882066130638123 -0.7001210451126099
vn 0.2596208453178406 -0.6280143857002258 -0.7336177229881287
vn 0.4724885821342468 0.12692873179912567 -0.872148871421814
vn 0.5418799519538879 0.5912805199623108 -0.5972883701324463
vn 0.41582995653152466 0.7932354807853699 -0.44481781125068665
vn -0.33490416407585144 -0.9256618022918701 0.1760382205247879
vn -0.5984864830970764 -0.8006294965744019 -0.028397228568792343
vn -0.5033381581306458 -0.8516911268234253 0.1458524912595749
vn -0.30099430680274963 -0.9410284757614136 0.15449213981628418
vn -0.5211942195892334 -0.8322640657424927 0.18892620503902435
vn -0.3649425804615021 -0.9278908967971802 0.0763898640871048
vn -0.5285150408744812 -0.7897049188613892 0.31150925159454346
vn -0.5271076560020447 -0.7922694087028503 0.30735430121421814
vn -0.58352130651474 -0.6608479619026184 0.4719987213611603
vn 0.712858259677887 0.6648656725883484 0.22312943637371063
vn 0.5622149705886841 0.81553053855896 0.1372016966342926
vn 0.39877283573150635 0.8764926195144653 0.26970529556274414
vn 0.44113361835479736 0.8948862552642822 -0.06767380982637405
vn 0.4014349579811096 0.9136965274810791 0.0633138045668602
vn 0.3661787211894989 0.9074429273605347 0.2060592919588089
vn 0.3560710847377777 0.9249639511108398 0.1328723281621933
vn 0.3313579857349396 0.941661536693573 0.058952588587999344
vn 0.3011167049407959 0.9511829614639282 0.06767380982637405
vn 0.18023395538330078 0.9835048913955688 -0.0152922747656703
vn 0.056609030812978745 0.9863709211349487 -0.15449213981628418
vn 0.06415656954050064 0.976434051990509 -0.2060592919588089
vn 0.06410246342420578 0.9852263927459717 -0.15880759060382843
vn 0.06410246342420578 0.9852263927459717 -0.15880759060382843
vn 0.02265736646950245 0.9902839660644531 -0.1372016966342926
vn -0.13539931178092957 0.9899216890335083 -0.04149730131030083
vn -0.2282477170228958 0.9709347486495972 -0.07203252613544464
vn -0.2665812373161316 0.9596523642539978 -0.08945280313491821
vn -0.25930023193359375 0.961645245552063 -0.08945280313491821
vn -0.27197086811065674 0.9542561173439026 -0.1242060661315918
vn -0.3615100085735321 0.9319356679916382 -0.028397228568792343
vn -0.5517940521240234 0.8300623297691345 0.08074574917554855
vn -0.2827949523925781 0.9338756799697876 -0.21886809170246124
vn -0.30258986353874207 0.9141654372215271 -0.26970529556274414
vn -0.6729983687400818 0.678331732749939 0.2948545813560486
vn -0.791595995426178 0.24887503683567047 0.5580654144287109
vn -0.9540286660194397 0.13907396793365479 0.26549527049064636
vn -0.9074963331222534 0.399909645318985 0.12854042649269104
vn -0.9635224342346191 0.23928186297416687 0.11986933648586273
vn -0.7951865792274475 0.5851994752883911 -0.15880759060382843
vn -0.8756337761878967 0.45759984850883484 -0.15449213981628418
vn -0.4848409593105316 0.8397691249847412 -0.24437066912651062
vn 0.3927326500415802 0.9161010980606079 0.08074574917554855
vn 0.06788046658039093 0.977949857711792 -0.1975002884864807
vn 0.07547423243522644 0.9782492518424988 -0.19321508705615997
vn 0.15795573592185974 0.9731482267379761 -0.16742929816246033
vn 0.2628982365131378 0.9556304216384888 -0.1328723281621933
vn 0.3026382327079773 0.9460775852203369 -0.11553031951189041
vn 0.3116439878940582 0.9395997524261475 -0.1415284425020218
vn 0.30991488695144653 0.9489348530769348 -0.058952588587999344
vn 0.712858259677887 0.6648656725883484 0.22312943637371063
vn 0.5622149705886841 0.81553053855896 0.1372016966342926
vn 0.44113361835479736 0.8948862552642822 -0.06767380982637405
vn 0.4014349579811096 0.9136965274810791 0.0633138045668602
vn 0.3927326500415802 0.9161010980606079 0.08074574917554855
vn 0.3661787211894989 0.9074429273605347 0.2060592919588089
vn 0.3560710847377777 0.9249639511108398 0.1328723281621933
vn 0.3313579857349396 0.941661536693573 0.058952588587999344
vn 0.30991488695144653 0.9489348530769348 -0.058952588587999344
vn 0.3011167049407959 0.9511829614639282 0.06767380982637405
vn 0.3116439878940582 0.9395997524261475 -0.1415284425020218
vn 0.3026382327079773 0.9460775852203369 -0.11553031951189041
vn 0.2628982365131378 0.9556304216384888 -0.1328723281621933
vn 0.15795573592185974 0.9731482267379761 -0.16742929816246033
vn 0.07547423243522644 0.9782492518424988 -0.19321508705615997
vn 0.06788046658039093 0.977949857711792 -0.1975002884864807
vn 0.056609030812978745 0.9863709211349487 -0.15449213981628418
vn 0.06415656954050064 0.976434051990509 -0.2060592919588089
vn -0.06606439501047134 0.9465703368186951 -0.31565824151039124
vn 0.06410246342420578 0.9852263927459717 -0.15880759060382843
vn 0.06410246342420578 0.9852263927459717 -0.15880759060382843
vn -0.18193741142749786 0.8940930962562561 -0.40926313400268555
vn -0.2696405053138733 0.8860417604446411 -0.37712597846984863
vn -0.5196134448051453 0.6143526434898376 -0.5937783122062683
vn -0.6609468460083008 -0.10908287763595581 -0.7424622178077698
vn -0.5383023619651794 0.26282790303230286 -0.8007197380065918
vn 0.02265736646950245 0.9902839660644531 -0.1372016966342926
vn -0.13539931178092957 0.9899216890335083 -0.04149730131030083
vn -0.2282477170228958 0.9709347486495972 -0.07203252613544464
vn -0.2665812373161316 0.9596523642539978 -0.08945280313491821
vn -0.25930023193359375 0.961645245552063 -0.08945280313491821
vn -0.27197086811065674 0.9542561173439026 -0.1242060661315918
vn -0.2827949523925781 0.9338756799697876 -0.21886809170246124
vn -0.30258986353874207 0.9141654372215271 -0.26970529556274414
vn -0.5928757190704346 0.7460376024246216 -0.30319350957870483
vn -0.4848409593105316 0.8397691249847412 -0.24437066912651062
vn -0.7951865792274475 0.5851994752883911 -0.15880759060382843
vn 0.3519551455974579 -0.5467005372047424 -0.7597671151161194
vn 0.6676567792892456 0.3281117379665375 -0.6682642698287964
vn 0.577928364276886 0.09038634598255157 -0.8110666871070862
vn 0.5377115607261658 -0.8106845617294312 0.23163928091526031
vn 0.01885858178138733 0.7465986013412476 0.6650074124336243
vn 0.5958809852600098 -0.3585297167301178 0.7185974717140198
vn 0.5409973859786987 -0.30944642424583435 0.7820260524749756
vn 0.45151689648628235 0.05263424664735794 0.8907088041305542
vn 0.20454739034175873 -0.09434917569160461 0.9742990136146545
vn -0.3615100085735321 0.9319356679916382 -0.028397228568792343
s on
f 1//1 2//2 3//3
f 2//2 4//4 3//3
f 4//4 2//2 5//5
f 2//2 6//6 5//5
f 5//5 6//6 7//7
f 6//6 8//8 7//7
f 7//7 8//8 9//9
f 8//8 10//10 9//9
f 9//9 10//10 11//11
f 10//10 12//12 11//11
f 11//11 12//12 13//13
f 12//12 14//14 13//13
f 13//13 14//14 15//15
f 14//14 16//16 15//15
f 15//15 16//16 17//17
f 16//16 18//18 17//17
f 17//17 18//18 19//19
f 18//18 20//20 19//19
f 19//19 20//20 21//21
f 20//20 22//22 21//21
f 21//21 22//22 23//23
f 22//22 24//24 23//23
f 23//23 24//24 25//25
f 24//24 26//26 25//25
f 25//25 26//26 27//27
f 26//26 28//28 27//27
f 27//27 28//28 29//29
f 28//28 30//30 29//29
f 29//29 30//30 31//31
f 30//30 32//32 31//31
f 31//31 32//32 33//33
f 32//32 34//34 33//33
f 33//33 34//34 35//35
f 34//34 36//36 35//35
f 35//35 36//36 37//37
f 36//36 38//38 37//37
f 37//37 38//38 39//39
f 38//38 40//40 39//39
f 39//39 40//40 41//41
f 40//40 42//42 41//41
f 41//41 42//42 43//43
f 42//42 44//44 43//43
f 43//43 44//44 45//45
f 44//44 46//46 45//45
f 45//45 46//46 47//47
f 46//46 48//48 47//47
f 47//47 48//48 49//49
f 48//48 50//50 49//49
f 49//49 50//50 51//51
f 50//50 52//52 51//51
f 51//51 52//52 28//28
f 52//52 30//30 28//28
f 28//28 26//26 51//51
f 26//26 53//53 51//51
f 51//51 53//53 49//49
f 53//53 54//54 49//49
f 49//49 54//54 55//55
f 54//54 56//56 55//55
f 55//55 56//56 57//57
f 56//56 58//58 57//57
f 57//57 58//58 59//59
f 58//58 60//60 59//59
f 59//59 60//60 61//61
f 60//60 62//62 61//61
f 61//61 62//62 63//63
f 62//62 64//64 63//63
f 63//63 64//64 65//65
f 64//64 66//66 65//65
f 65//65 66//66 67//67
f 66//66 68//68 67//67
f 67//67 68//68 45//45
f 68//68 69//69 45//45
f 45//45 69//69 43//43
f 69//69 66//66 43//43
f 43//43 66//66 41//41
f 66//66 70//70 41//41
f 41//41 70//70 39//39
f 70//70 71//71 39//39
f 39//39 71//71 72//72
f 71//71 73//73 72//72
f 72//72 73//73 74//74
f 73//73 75//75 74//74
f 74//74 75//75 35//35
f 75//75 76//76 35//35
f 35//35 76//76 33//33
f 76//76 77//77 33//33
f 33//33 77//77 78//78
f 77//77 79//79 78//78
f 78//78 79//79 80//80
f 79//79 81//81 80//80
f 80//80 81//81 82//82
f 81//81 83//83 82//82
f 82//82 83//83 84//84
f 83//83 85//85 84//84
f 84//84 85//85 27//27
f 85//85 25//25 27//27
f 71//71 86//86 73//73
f 86//86 87//87 73//73
f 73//73 87//87 75//75
f 87//87 88//88 75//75
f 75//75 88//88 76//76
f 88//88 89//89 76//76
f 76//76 89//89 90//90
f 89//89 13//13 90//90
f 90//90 13//13 91//91
f 13//13 15//15 91//91
f 91//91 15//15 92//92
f 15//15 17//17 92//92
f 92//92 17//17 93//93
f 17//17 94//94 93//93
f 93//93 94//94 23//23
f 94//94 21//21 23//23
f 13//13 89//89 11//11
f 89//89 88//88 11//11
f 11//11 88//88 9//9
f 88//88 87//87 9//9
f 9//9 87//87 7//7
f 87//87 95//95 7//7
f 7//7 95//95 5//5
f 95//95 96//96 5//5
f 96//96 95//95 97//97
f 95//95 98//98 97//97
f 97//97 98//98 99//99
f 98//98 100//100 99//99
f 99//99 100//100 101//101
f 100//100 102//102 101//101
f 101//101 102//102 64//64
f 102//102 103//103 64//64
f 64//64 103//103 66//66
f 103//103 70//70 66//66
f 103//103 102//102 70//70
f 102//102 100//100 70//70
f 70//70 100//100 86//86
f 100//100 98//98 86//86
f 86//86 98//98 95//95
f 26//26 104//104 53//53
f 104//104 105//105 53//53
f 53//53 105//105 106//106
f 105//105 107//107 106//106
f 106//106 107//107 108//108
f 53//53 106//106 54//54
f 106//106 56//56 54//54
f 106//106 109//109 56//56
f 109//109 110//110 56//56
f 56//56 110//110 111//111
f 111//111 112//112 56//56
f 112//112 113//113 56//56
f 56//56 113//113 58//58
f 113//113 114//114 58//58
f 58//58 114//114 115//115
f 115//115 116//116 58//58
f 116//116 117//117 58//58
f 58//58 117//117 118//118
f 118//118 119//119 58//58
f 119//119 60//60 58//58
f 119//119 120//120 60//60
f 120//120 121//121 60//60
f 60//60 121//121 122//122
f 122//122 123//123 60//60
f 123//123 124//124 60//60
f 60//60 124//124 125//125
f 124//124 126//126 125//125
f 125//125 126//126 127//127
f 125//125 128//128 60//60
f 128//128 62//62 60//60
f 128//128 129//129 62//62
f 129//129 64//64 62//62
f 129//129 128//128 130//130
f 128//128 131//131 130//130
f 130//130 131//131 132//132
f 131//131 133//133 132//132
f 132//132 133//133 134//134
f 128//128 125//125 131//131
f 125//125 133//133 131//131
f 133//133 125//125 135//135
f 125//125 127//127 135//135
f 108//108 136//136 106//106
f 136//136 109//109 106//106
f 114//114 113//113 137//137
f 113//113 138//138 137//137
f 138//138 113//113 139//139
f 113//113 140//140 139//139
f 140//140 113//113 141//141
f 113//113 142//142 141//141
f 142//142 113//113 143//143
f 113//113 112//112 143//143
f 72//72 74//74 39//39
f 74//74 37//37 39//39
f 17//17 19//19 94//94
f 19//19 21//21 94//94
f 26//26 24//24 144//144
f 24//24 145//145 144//144
f 145//145 24//24 146//146
f 24//24 22//22 146//146
f 146//146 22//22 147//147
f 22//22 148//148 147//147
f 148//148 22//22 149//149
f 22//22 150//150 149//149
f 150//150 22//22 151//151
f 22//22 152//152 151//151
f 151//151 152//152 153//153
f 152//152 22//22 154//154
f 22//22 20//20 154//154
f 154//154 20//20 155//155
f 20//20 156//156 155//155
f 156//156 20//20 157//157
f 20//20 158//158 157//157
f 158//158 20//20 159//159
f 20//20 160//160 159//159
f 160//160 20//20 161//161
f 20//20 162//162 161//161
f 161//161 162//162 163//163
f 162//162 164//164 163//163
f 20//20 18//18 162//162
f 18//18 165//165 162//162
f 162//162 165//165 166//166
f 165//165 167//167 166//166
f 166//166 167//167 2//2
f 167//167 6//6 2//2
f 6//6 167//167 8//8
f 167//167 168//168 8//8
f 8//8 168//168 10//10
f 168//168 169//169 10//10
f 10//10 169//169 14//14
f 169//169 16//16 14//14
f 168//168 167//167 169//169
f 167//167 165//165 169//169
f 169//169 165//165 16//16
f 165//165 18//18 16//16
f 164//164 162//162 170//170
f 162//162 171//171 170//170
f 171//171 162//162 172//172
f 162//162 173//173 172//172
f 173//173 162//162 174//174
f 162//162 175//175 174//174
f 175//175 162//162 176//176
f 162//162 177//177 176//176
f 162//162 166//166 177//177
f 166//166 178//178 177//177
f 177//177 178//178 179//179
f 178//178 180//180 179//179
f 166//166 2//2 178//178
f 2//2 134//134 178//178
f 178//178 134//134 180//180
f 76//76 90//90 77//77
f 90//90 79//79 77//77
f 79//79 90//90 181//181
f 90//90 91//91 181//181
f 181//181 91//91 92//92
f 79//79 181//181 81//81
f 181//181 182//182 81//81
f 81//81 182//182 83//83
f 182//182 93//93 83//83
f 83//83 93//93 23//23
f 93//93 182//182 183//183
f 182//182 181//181 183//183
f 183//183 181//181 92//92
f 33//33 78//78 31//31
f 78//78 184//184 31//31
f 31//31 184//184 29//29
f 184//184 27//27 29//29
f 78//78 80//80 184//184
f 80//80 82//82 184//184
f 184//184 82//82 84//84
f 25//25 85//85 23//23
f 85//85 83//83 23//23
f 49//49 55//55 47//47
f 55//55 45//45 47//47
f 45//45 55//55 67//67
f 55//55 185//185 67//67
f 67//67 185//185 65//65
f 185//185 63//63 65//65
f 55//55 57//57 185//185
f 57//57 59//59 185//185
f 185//185 59//59 61//61
f 52//52 50//50 30//30
f 50//50 186//186 30//30
f 30//30 186//186 32//32
f 186//186 187//187 32//32
f 32//32 187//187 34//34
f 187//187 36//36 34//34
f 186//186 48//48 187//187
f 48//48 188//188 187//187
f 187//187 188//188 38//38
f 188//188 189//189 38//38
f 38//38 189//189 40//40
f 189//189 42//42 40//40
f 188//188 46//46 189//189
f 46//46 44//44 189//189
f 189//189 44//44 42//42
f 176//176 190//190 175//175
f 86//86 95//95 87//87
f 70//70 86//86 71//71
f 10//10 14//14 12//12
f 50//50 48//48 186//186
f 92//92 93//93 183//183
f 188//188 48//48 46//46
f 184//184 84//84 27//27
f 36//36 187//187 38//38
f 68//68 66//66 69//69
f 185//185 61//61 63//63
f 35//35 37//37 74//74

