# Exported by Sketchfab Model Ripper robust edition
o model_1
v 0.07164772599935532 0.6098066568374634 0.12455980479717255
v 0.037695806473493576 0.6098066568374634 0.13999249041080475
v 0.025349656119942665 0.5938682556152344 0.0941353589296341
v 0.00021641800412908196 0.6098066568374634 0.14351996779441833
v 0.00021641800412908196 0.5922629237174988 0.08443481475114822
v -0.02535775490105152 0.5938682556152344 0.0941353589296341
v -0.03770390525460243 0.6098066568374634 0.13999249041080475
v -0.07165582478046417 0.6098066568374634 0.12455980479717255
v -0.04211324453353882 0.5922629237174988 0.07297052443027496
v -0.06901022046804428 0.5938682556152344 0.06900212168693542
v -0.10252120345830917 0.6098066568374634 0.10251310467720032
v -0.1245679035782814 0.6098066568374634 0.07164772599935532
v -0.07297862321138382 0.5922629237174988 0.04210514947772026
v -0.09414345771074295 0.5938682556152344 0.025349656119942665
v -0.1400005966424942 0.6098066568374634 0.037695806473493576
v -0.1435280591249466 0.6098066568374634 0.00021641800412908196
v -0.08444291353225708 0.5922629237174988 0.00021641800412908196
v -0.09414345771074295 0.5938682556152344 -0.02535775490105152
v -0.1400005966424942 0.6098066568374634 -0.03770390525460243
v -0.1245679035782814 0.6098066568374634 -0.07165582478046417
v -0.07297862321138382 0.5922629237174988 -0.04211324453353882
v -0.06901022046804428 0.5938682556152344 -0.06901022046804428
v -0.10252120345830917 0.6098066568374634 -0.10252120345830917
v -0.07165582478046417 0.6098066568374634 -0.1245679035782814
v -0.04211324453353882 0.5922629237174988 -0.07297862321138382
v -0.02535775490105152 0.5938682556152344 -0.09414345771074295
v -0.03770390525460243 0.6098066568374634 -0.1400005966424942
v 0.00021641800412908196 0.6098066568374634 -0.1435280591249466
v 0.00021641800412908196 0.5922629237174988 -0.08444291353225708
v 0.025349656119942665 0.5938682556152344 -0.09414345771074295
v 0.037695806473493576 0.6098066568374634 -0.1400005966424942
v 0.07164772599935532 0.6098066568374634 -0.1245679035782814
v 0.04210514947772026 0.5922629237174988 -0.07297862321138382
v 0.06900212168693542 0.5938682556152344 -0.06901022046804428
v 0.10251310467720032 0.6098066568374634 -0.10252120345830917
v 0.12455980479717255 0.6098066568374634 -0.07165582478046417
v 0.07297052443027496 0.5922629237174988 -0.04211324453353882
v 0.0941353589296341 0.5938682556152344 -0.02535775490105152
v 0.13999249041080475 0.6098066568374634 -0.03770390525460243
v 0.14351996779441833 0.6098066568374634 0.00021641800412908196
v 0.08443481475114822 0.5922629237174988 0.00021641800412908196
v 0.0941353589296341 0.5938682556152344 0.025349656119942665
v 0.13999249041080475 0.6098066568374634 0.037695806473493576
v 0.12455980479717255 0.6098066568374634 0.07164772599935532
v 0.07297052443027496 0.5922629237174988 0.04210514947772026
v 0.06900212168693542 0.5938682556152344 0.06900212168693542
v 0.00021641800412908196 0.5877910256385803 0.00021641800412908196
v 0.04210514947772026 0.5922629237174988 0.07297052443027496
v 0.10251310467720032 0.6098066568374634 0.10251310467720032
vn 0.21311572194099426 -0.9046586751937866 0.3690181374549866
vn 0.10918661952018738 -0.904049813747406 0.41324591636657715
vn 0.060363855212926865 -0.9738854765892029 0.21886809170246124
vn 2.806231267325765e-13 -0.903258204460144 0.42909738421440125
vn 0.003775994060561061 -0.9879868030548096 0.15449213981628418
vn -0.060363855212926865 -0.9738854765892029 0.21886809170246124
vn -0.10918661952018738 -0.904049813747406 0.41324591636657715
vn -0.21311572194099426 -0.9046586751937866 0.3690181374549866
vn -0.07352979481220245 -0.9884018898010254 0.1328723281621933
vn -0.16152627766132355 -0.9740068912506104 0.15880759060382843
vn -0.30235886573791504 -0.9036884307861328 0.30319350957870483
vn -0.37333157658576965 -0.9025349020957947 0.21460255980491638
vn -0.1317036747932434 -0.9883413910865784 0.0763898640871048
vn -0.21897907555103302 -0.9739469885826111 0.058952588587999344
vn -0.4119023382663727 -0.9044188261032104 0.1111890971660614
vn -0.4241376221179962 -0.9055951237678528 0.002184694167226553
vn -0.15046414732933044 -0.9886130690574646 0.002184694167226553
vn -0.21897907555103302 -0.9739469885826111 -0.058952588587999344
vn -0.4119023382663727 -0.9044188261032104 -0.1111890971660614
vn -0.37333157658576965 -0.9025349020957947 -0.21460255980491638
vn -0.1317036747932434 -0.9883413910865784 -0.0763898640871048
vn -0.16152627766132355 -0.9740068912506104 -0.15880759060382843
vn -0.30235886573791504 -0.9036884307861328 -0.30319350957870483
vn -0.2152242511510849 -0.9041593670845032 -0.3690181374549866
vn -0.07352979481220245 -0.9884018898010254 -0.1328723281621933
vn -0.060363855212926865 -0.9738854765892029 -0.21886809170246124
vn -0.10918661952018738 -0.904049813747406 -0.41324591636657715
vn -0.001889259205199778 -0.9032562375068665 -0.42909738421440125
vn 0.003775994060561061 -0.9879868030548096 -0.15449213981628418
vn 0.060363855212926865 -0.9738854765892029 -0.21886809170246124
vn 0.10918661952018738 -0.904049813747406 -0.41324591636657715
vn 0.2115478366613388 -0.9050266146659851 -0.3690181374549866
vn 0.07729307562112808 -0.9881147146224976 -0.1328723281621933
vn 0.16152627766132355 -0.9740068912506104 -0.15880759060382843
vn 0.29877638816833496 -0.9048792123794556 -0.30319350957870483
vn 0.36984121799468994 -0.9039707779884338 -0.21460255980491638
vn 0.1317036747932434 -0.9883413910865784 -0.0763898640871048
vn 0.21529550850391388 -0.9747678637504578 -0.058952588587999344
vn 0.4153350591659546 -0.9028475880622864 -0.1111890971660614
vn 0.4241376221179962 -0.9055951237678528 0.002184694167226553
vn 0.15046414732933044 -0.9886130690574646 0.002184694167226553
vn 0.21529550850391388 -0.9747678637504578 0.058952588587999344
vn 0.4153350591659546 -0.9028475880622864 0.1111890971660614
vn 0.36984121799468994 -0.9039707779884338 0.21460255980491638
vn 0.1317036747932434 -0.9883413910865784 0.0763898640871048
vn 0.16152627766132355 -0.9740068912506104 0.15880759060382843
vn 3.097898456858039e-13 -0.999997615814209 0.002184694167226553
vn 0.07729307562112808 -0.9881147146224976 0.1328723281621933
vn 0.29877638816833496 -0.9048792123794556 0.30319350957870483
vt 0.36601075530052185 -1.1920899822825959e-7
vt 0.2500300109386444 0.06702454388141632
vt 0.3282864987850189 0.2025388926267624
vt 0.13392716646194458 0.133927121758461
vt 0.2886088490486145 0.2886088192462921
vt 0.20253893733024597 0.32828643918037415
vt 0.0670245885848999 0.25002995133399963
vt -7.907529919748413e-8 0.36601072549819946
vt 0.21120697259902954 0.42265814542770386
vt 0.15651288628578186 0.5000600218772888
vt -7.907529919748413e-8 0.5000600218772888
vt -7.907529919748413e-8 0.633987307548523
vt 0.21120697259902954 0.5773398280143738
vt 0.20253893733024597 0.6717115640640259
vt 0.0670245885848999 0.7499680519104004
vt 0.13392716646194458 0.8660708665847778
vt 0.2886088490486145 0.7113891839981079
vt 0.3282864987850189 0.7974591255187988
vt 0.2500300109386444 0.9329734444618225
vt 0.36601075530052185 0.9999980926513672
vt 0.42265820503234863 0.7887910604476929
vt 0.5000600814819336 0.8434851169586182
vt 0.4999379813671112 0.9999980926513672
vt 0.633987307548523 0.9999980926513672
vt 0.5773398876190186 0.7887910604476929
vt 0.6717115640640259 0.7974591255187988
vt 0.7499680519104004 0.9329734444618225
vt 0.8660709261894226 0.8660708665847778
vt 0.7113892436027527 0.7113891839981079
vt 0.7974591255187988 0.6717115640640259
vt 0.9329735040664673 0.7499680519104004
vt 0.999998152256012 0.633987307548523
vt 0.7887911200523376 0.5773398280143738
vt 0.8434851765632629 0.4999379515647888
vt 0.999998152256012 0.4999379515647888
vt 0.999998152256012 0.36601072549819946
vt 0.7887911200523376 0.42265814542770386
vt 0.7974591255187988 0.32828643918037415
vt 0.9329735040664673 0.25002995133399963
vt 0.8660709261894226 0.133927121758461
vt 0.7113892436027527 0.2886088192462921
vt 0.6717115640640259 0.2025388926267624
vt 0.7499680519104004 0.06702454388141632
vt 0.633987307548523 -1.1920899822825959e-7
vt 0.5773398876190186 0.21120692789554596
vt 0.5000600814819336 0.15651285648345947
vt 0.5000600814819336 0.5000600218772888
vt 0.42265820503234863 0.21120692789554596
vt 0.5000600814819336 -1.1920899822825959e-7
s on
f 1/1/1 2/2/2 3/3/3
f 2/2/2 4/4/4 3/3/3
f 3/3/3 4/4/4 5/5/5
f 5/5/5 4/4/4 6/6/6
f 4/4/4 7/7/7 6/6/6
f 7/7/7 8/8/8 6/6/6
f 6/6/6 8/8/8 9/9/9
f 9/9/9 8/8/8 10/10/10
f 8/8/8 11/11/11 10/10/10
f 11/11/11 12/12/12 10/10/10
f 10/10/10 12/12/12 13/13/13
f 13/13/13 12/12/12 14/14/14
f 12/12/12 15/15/15 14/14/14
f 15/15/15 16/16/16 14/14/14
f 14/14/14 16/16/16 17/17/17
f 17/17/17 16/16/16 18/18/18
f 16/16/16 19/19/19 18/18/18
f 19/19/19 20/20/20 18/18/18
f 18/18/18 20/20/20 21/21/21
f 21/21/21 20/20/20 22/22/22
f 20/20/20 23/23/23 22/22/22
f 23/23/23 24/24/24 22/22/22
f 22/22/22 24/24/24 25/25/25
f 25/25/25 24/24/24 26/26/26
f 24/24/24 27/27/27 26/26/26
f 27/27/27 28/28/28 26/26/26
f 26/26/26 28/28/28 29/29/29
f 29/29/29 28/28/28 30/30/30
f 28/28/28 31/31/31 30/30/30
f 31/31/31 32/32/32 30/30/30
f 30/30/30 32/32/32 33/33/33
f 33/33/33 32/32/32 34/34/34
f 32/32/32 35/35/35 34/34/34
f 35/35/35 36/36/36 34/34/34
f 34/34/34 36/36/36 37/37/37
f 37/37/37 36/36/36 38/38/38
f 36/36/36 39/39/39 38/38/38
f 39/39/39 40/40/40 38/38/38
f 38/38/38 40/40/40 41/41/41
f 41/41/41 40/40/40 42/42/42
f 40/40/40 43/43/43 42/42/42
f 43/43/43 44/44/44 42/42/42
f 42/42/42 44/44/44 45/45/45
f 44/44/44 46/46/46 45/45/45
f 45/45/45 46/46/46 47/47/47
f 46/46/46 48/48/48 47/47/47
f 47/47/47 48/48/48 3/3/3
f 3/3/3 48/48/48 1/1/1
f 48/48/48 46/46/46 1/1/1
f 1/1/1 46/46/46 49/49/49
f 46/46/46 44/44/44 49/49/49
f 45/45/45 47/47/47 42/42/42
f 42/42/42 47/47/47 41/41/41
f 41/41/41 47/47/47 38/38/38
f 38/38/38 47/47/47 37/37/37
f 37/37/37 47/47/47 34/34/34
f 34/34/34 47/47/47 33/33/33
f 33/33/33 47/47/47 30/30/30
f 30/30/30 47/47/47 29/29/29
f 29/29/29 47/47/47 26/26/26
f 26/26/26 47/47/47 25/25/25
f 25/25/25 47/47/47 22/22/22
f 22/22/22 47/47/47 21/21/21
f 21/21/21 47/47/47 18/18/18
f 18/18/18 47/47/47 17/17/17
f 17/17/17 47/47/47 14/14/14
f 14/14/14 47/47/47 13/13/13
f 13/13/13 47/47/47 10/10/10
f 10/10/10 47/47/47 9/9/9
f 9/9/9 47/47/47 6/6/6
f 6/6/6 47/47/47 5/5/5
f 47/47/47 3/3/3 5/5/5

