# Exported by Sketchfab Model Ripper robust edition
o model_3
v 0.00010842399933608249 1.0093389749526978 -0.11250238120555878
v 0.0337170772254467 1.0070146322250366 -0.12603314220905304
v 0.00010842399933608249 0.9939212799072266 -0.1919410228729248
v 0.05030316486954689 0.9936888813972473 -0.18713977932929993
v 0.09613314270973206 0.9939212799072266 -0.16618892550468445
v 0.05641382932662964 1.0093389749526978 -0.09766220301389694
v 0.09220486134290695 1.0070146322250366 -0.09198801219463348
v 0.00010842399933608249 1.0179387331008911 0.00010842399933608249
v -0.03393670544028282 1.0070146322250366 -0.12603314220905304
v 0.07125401496887207 0.9676570296287537 -0.2652689814567566
v 0.13716188073158264 0.9677345156669617 -0.23777098953723907
v 0.0904589593410492 0.9324830770492554 -0.3372875154018402
v 0.1746988296508789 0.9324830770492554 -0.30236944556236267
v 0.19434024393558502 0.9676570296287537 -0.19412340223789215
v 0.13716188073158264 0.9936888813972473 -0.13694503903388977
v 0.1664057821035385 0.9939212799072266 -0.09591629356145859
v 0.09744257479906082 1.0093389749526978 -0.05619698017835617
v 0.00010842399933608249 0.9677345156669617 -0.27443498373031616
v 0.00010842399933608249 0.9324830770492554 -0.3490723669528961
v 0.12581351399421692 1.0070146322250366 -0.03393670544028282
v 0.1873566210269928 0.9936888813972473 -0.05008631572127342
v 0.23798784613609314 0.9677345156669617 -0.13738150894641876
v 0.24671736359596252 0.9324830770492554 -0.24693699181079865
v 0.20176033675670624 0.8928155303001404 -0.3499453365802765
v 0.10442619025707245 0.8928155303001404 -0.3901011347770691
v 0.11577456444501877 0.8593459725379944 -0.4315663278102875
v 0.00010842399933608249 0.8593459725379944 -0.4468429982662201
v 0.00010842399933608249 0.8928155303001404 -0.40363186597824097
v 0.2235841304063797 0.8593459725379944 -0.38704580068588257
v 0.28556373715400696 0.8928155303001404 -0.2853468656539917
v 0.30214980244636536 0.9324830770492554 -0.17448197305202484
v 0.26548582315444946 0.9676570296287537 -0.0710371658205986
v 0.19172139465808868 0.9939212799072266 0.00010842399933608249
v 0.11271923035383224 1.0093389749526978 0.00010842399933608249
v 0.12581351399421692 1.0070146322250366 0.0337170772254467
v 0.1873566210269928 0.9936888813972473 0.05030316486954689
v 0.27465182542800903 0.9677345156669617 0.00010842399933608249
v 0.3370679020881653 0.9324830770492554 -0.09024211019277573
v 0.3497256934642792 0.8928155303001404 -0.20197996497154236
v 0.3156805634498596 0.8593459725379944 -0.31590020656585693
v 0.38682615756988525 0.8593459725379944 -0.22336728870868683
v 0.3898814916610718 0.8928155303001404 -0.10464581847190857
v 0.3492892384529114 0.9324830770492554 0.00010842399933608249
v 0.26548582315444946 0.9676570296287537 0.07125401496887207
v 0.1664057821035385 0.9939212799072266 0.09613314270973206
v 0.09744257479906082 1.0093389749526978 0.05641382932662964
v 0.09220486134290695 1.0070146322250366 0.09220486134290695
v 0.13716188073158264 0.9936888813972473 0.13716188073158264
v 0.23798784613609314 0.9677345156669617 0.13716188073158264
v 0.3370679020881653 0.9324830770492554 0.0904589593410492
v 0.4038487374782562 0.8928155303001404 0.00010842399933608249
v 0.43134671449661255 0.8593459725379944 -0.1155577152967453
v 0.44662338495254517 0.8593459725379944 0.00010842399933608249
v 0.3898814916610718 0.8928155303001404 0.10442619025707245
v 0.30214980244636536 0.9324830770492554 0.1746988296508789
v 0.19434024393558502 0.9676570296287537 0.19434024393558502
v 0.09613314270973206 0.9939212799072266 0.1664057821035385
v 0.05641382932662964 1.0093389749526978 0.09744257479906082
v 0.0337170772254467 1.0070146322250366 0.12581351399421692
v 0.05030316486954689 0.9936888813972473 0.1873566210269928
v 0.13716188073158264 0.9677345156669617 0.23798784613609314
v 0.24671736359596252 0.9324830770492554 0.24671736359596252
v 0.3497256934642792 0.8928155303001404 0.20176033675670624
v 0.43134671449661255 0.8593459725379944 0.11577456444501877
v 0.38682615756988525 0.8593459725379944 0.2235841304063797
v 0.28556373715400696 0.8928155303001404 0.28556373715400696
v 0.1746988296508789 0.9324830770492554 0.30214980244636536
v 0.07125401496887207 0.9676570296287537 0.26548582315444946
v 0.00010842399933608249 0.9939212799072266 0.19172139465808868
v 0.00010842399933608249 1.0093389749526978 0.11271923035383224
v -0.03393670544028282 1.0070146322250366 0.12581351399421692
v -0.05008631572127342 0.9936888813972473 0.1873566210269928
v 0.00010842399933608249 0.9677345156669617 0.27465182542800903
v 0.0904589593410492 0.9324830770492554 0.3370679020881653
v 0.20176033675670624 0.8928155303001404 0.3497256934642792
v 0.3156805634498596 0.8593459725379944 0.3156805634498596
v 0.2235841304063797 0.8593459725379944 0.38682615756988525
v 0.10442619025707245 0.8928155303001404 0.3898814916610718
v 0.00010842399933608249 0.9324830770492554 0.3492892384529114
v -0.0710371658205986 0.9676570296287537 0.26548582315444946
v -0.09591629356145859 0.9939212799072266 0.1664057821035385
v -0.05619698017835617 1.0093389749526978 0.09744257479906082
v -0.09198801219463348 1.0070146322250366 0.09220486134290695
v -0.13694503903388977 0.9936888813972473 0.13716188073158264
v -0.13738150894641876 0.9677345156669617 0.23798784613609314
v -0.09024211019277573 0.9324830770492554 0.3370679020881653
v 0.00010842399933608249 0.8928155303001404 0.4038487374782562
v 0.11577456444501877 0.8593459725379944 0.43134671449661255
v 0.00010842399933608249 0.8593459725379944 0.44662338495254517
v -0.10464581847190857 0.8928155303001404 0.3898814916610718
v -0.17448197305202484 0.9324830770492554 0.30214980244636536
v -0.19412340223789215 0.9676570296287537 0.19434024393558502
v -0.16618892550468445 0.9939212799072266 0.09613314270973206
v -0.09766220301389694 1.0093389749526978 0.05641382932662964
v -0.12603314220905304 1.0070146322250366 0.0337170772254467
v -0.18713977932929993 0.9936888813972473 0.05030316486954689
v -0.23777098953723907 0.9677345156669617 0.13716188073158264
v -0.24693699181079865 0.9324830770492554 0.24671736359596252
v -0.20197996497154236 0.8928155303001404 0.3497256934642792
v -0.1155577152967453 0.8593459725379944 0.43134671449661255
v -0.22336728870868683 0.8593459725379944 0.38682615756988525
v -0.2853468656539917 0.8928155303001404 0.28556373715400696
v -0.30236944556236267 0.9324830770492554 0.1746988296508789
v -0.2652689814567566 0.9676570296287537 0.07125401496887207
v -0.1919410228729248 0.9939212799072266 0.00010842399933608249
v -0.11250238120555878 1.0093389749526978 0.00010842399933608249
v -0.12603314220905304 1.0070146322250366 -0.03393670544028282
v -0.18713977932929993 0.9936888813972473 -0.05008631572127342
v -0.27443498373031616 0.9677345156669617 0.00010842399933608249
v -0.3372875154018402 0.9324830770492554 0.0904589593410492
v -0.3499453365802765 0.8928155303001404 0.20176033675670624
v -0.31590020656585693 0.8593459725379944 0.3156805634498596
v -0.38704580068588257 0.8593459725379944 0.2235841304063797
v -0.3901011347770691 0.8928155303001404 0.10442619025707245
v -0.3490723669528961 0.9324830770492554 0.00010842399933608249
v -0.2652689814567566 0.9676570296287537 -0.0710371658205986
v -0.16618892550468445 0.9939212799072266 -0.09591629356145859
v -0.09766220301389694 1.0093389749526978 -0.05619698017835617
v -0.09198801219463348 1.0070146322250366 -0.09198801219463348
v -0.05619698017835617 1.0093389749526978 -0.09766220301389694
v -0.09591629356145859 0.9939212799072266 -0.16618892550468445
v -0.05008631572127342 0.9936888813972473 -0.18713977932929993
v -0.0710371658205986 0.9676570296287537 -0.2652689814567566
v -0.4315663278102875 0.8593459725379944 0.11577456444501877
v -0.13738150894641876 0.9677345156669617 -0.23777098953723907
v -0.1155577152967453 0.8593459725379944 -0.4315663278102875
v -0.10464581847190857 0.8928155303001404 -0.3901011347770691
v -0.22336728870868683 0.8593459725379944 -0.38704580068588257
v -0.20197996497154236 0.8928155303001404 -0.3499453365802765
v -0.09024211019277573 0.9324830770492554 -0.3372875154018402
v -0.17448197305202484 0.9324830770492554 -0.30236944556236267
v -0.31590020656585693 0.8593459725379944 -0.31590020656585693
v -0.2853468656539917 0.8928155303001404 -0.2853468656539917
v -0.38704580068588257 0.8593459725379944 -0.22336728870868683
v -0.3499453365802765 0.8928155303001404 -0.20197996497154236
v -0.4315663278102875 0.8593459725379944 -0.1155577152967453
v -0.3901011347770691 0.8928155303001404 -0.10464581847190857
v -0.4468429982662201 0.8593459725379944 0.00010842399933608249
v -0.40363186597824097 0.8928155303001404 0.00010842399933608249
v -0.3372875154018402 0.9324830770492554 -0.09024211019277573
v -0.23777098953723907 0.9677345156669617 -0.13738150894641876
v -0.13694503903388977 0.9936888813972473 -0.13694503903388977
v -0.19412340223789215 0.9676570296287537 -0.19412340223789215
v -0.30236944556236267 0.9324830770492554 -0.17448197305202484
v -0.24693699181079865 0.9324830770492554 -0.24693699181079865
vn 0.003773920238018036 0.9922492504119873 -0.1242060661315918
vn 0.041523803025484085 0.987121045589447 -0.15449213981628418
vn -9.99364504453322e-14 0.9663954377174377 -0.25706008076667786
vn 0.0641346275806427 0.9664793014526367 -0.24860523641109467
vn 0.12798529863357544 0.967324435710907 -0.21886809170246124
vn 0.06604945659637451 0.9920793771743774 -0.10684575140476227
vn 0.1110808402299881 0.9870733618736267 -0.11553031951189041
vn -1.0341130485562108e-13 0.999997615814209 0.002184694167226553
vn -0.041523803025484085 0.987121045589447 -0.15449213981628418
vn 0.09798508137464523 0.9274497032165527 -0.36088213324546814
vn 0.18572808802127838 0.9276686906814575 -0.3239381015300751
vn 0.12980517745018005 0.8569777607917786 -0.4987381398677826
vn 0.25512444972991943 0.8585153818130493 -0.44481781125068665
vn 0.2592388689517975 0.9297999143600464 -0.2612801790237427
vn 0.1840122938156128 0.9662389755249023 -0.18033768236637115
vn 0.21909679472446442 0.9671990275382996 -0.12854042649269104
vn 0.11107031255960464 0.991793692111969 -0.0633138045668602
vn -9.57393208765242e-14 0.9278009533882141 -0.37307560443878174
vn 0.0037747567985206842 0.8578957319259644 -0.5138099193572998
vn 0.15779003500938416 0.9866003394126892 -0.04149730131030083
vn 0.242995485663414 0.9676639437675476 -0.06767380982637405
vn 0.3223094046115875 0.9284541010856628 -0.18463370203971863
vn 0.3654205799102783 0.8563157320022583 -0.3649536371231079
vn 0.29935160279273987 0.7991546988487244 -0.5212872624397278
vn 0.15388056635856628 0.8002219200134277 -0.5796254277229309
vn 0.13356854021549225 0.8541852831840515 -0.5025205612182617
vn 0.003776010824367404 0.8533729314804077 -0.5212872624397278
vn 0.0018882822478190064 0.799406886100769 -0.6007870435714722
vn 0.2640354037284851 0.8517122268676758 -0.45262736082077026
vn 0.42281705141067505 0.8002974987030029 -0.42514660954475403
vn 0.4434381425380707 0.8586516976356506 -0.25706008076667786
vn 0.36156755685806274 0.9271649718284607 -0.0981530249118805
vn 0.25395211577415466 0.9672143459320068 0.002184694167226553
vn 0.1280297040939331 0.991767942905426 0.002184694167226553
vn 0.15779003500938416 0.9866003394126892 0.04149730131030083
vn 0.242995485663414 0.9676639437675476 0.06767380982637405
vn 0.3686853349208832 0.9295517206192017 0.002184694167226553
vn 0.498831570148468 0.8564531803131104 -0.1328723281621933
vn 0.5242491960525513 0.7973366379737854 -0.2990269064903259
vn 0.3691527247428894 0.8529664874076843 -0.3690181374549866
vn 0.4551258981227875 0.8512303233146667 -0.2612801790237427
vn 0.5825597047805786 0.797970175743103 -0.15449213981628418
vn 0.5173366069793701 0.855779230594635 0.002184694167226553
vn 0.36156755685806274 0.9271649718284607 0.0981530249118805
vn 0.21909679472446442 0.9671990275382996 0.12854042649269104
vn 0.11107031255960464 0.991793692111969 0.0633138045668602
vn 0.1110808402299881 0.9870733618736267 0.11553031951189041
vn 0.17822742462158203 0.9673227667808533 0.18033768236637115
vn 0.3223094046115875 0.9284541010856628 0.18463370203971863
vn 0.498831570148468 0.8564531803131104 0.1328723281621933
vn 0.604758083820343 0.7964062690734863 0.002184694167226553
vn 0.5039674043655396 0.8527558445930481 -0.1372016966342926
vn 0.5237845182418823 0.8518480062484741 0.002184694167226553
vn 0.5825597047805786 0.797970175743103 0.15449213981628418
vn 0.444604754447937 0.8580482006072998 0.25706008076667786
vn 0.26074063777923584 0.9293798804283142 0.2612801790237427
vn 0.12798529863357544 0.967324435710907 0.21886809170246124
vn 0.06032252684235573 0.9924440383911133 0.10684575140476227
vn 0.041523803025484085 0.987121045589447 0.15449213981628418
vn 0.0641346275806427 0.9664793014526367 0.24860523641109467
vn 0.18734440207481384 0.9273436069488525 0.3239381015300751
vn 0.3654205799102783 0.8563157320022583 0.3649536371231079
vn 0.5242491960525513 0.7973366379737854 0.2990269064903259
vn 0.5050389170646667 0.8521217107772827 0.1372016966342926
vn 0.44960737228393555 0.8541579842567444 0.2612801790237427
vn 0.42396795749664307 0.7996883988380432 0.42514660954475403
vn 0.2565993666648865 0.8580756783485413 0.44481781125068665
vn 0.09973421692848206 0.9272632598876953 0.36088213324546814
vn 0.0018857260001823306 0.9663935899734497 0.25706008076667786
vn 0.003773920238018036 0.9922492504119873 0.1242060661315918
vn -0.041523803025484085 0.987121045589447 0.15449213981628418
vn -0.0641346275806427 0.9664793014526367 0.24860523641109467
vn 0.0018853626679629087 0.9277990460395813 0.37307560443878174
vn 0.13149094581604004 0.8567207455635071 0.4987381398677826
vn 0.3007138669490814 0.7986431121826172 0.5212872624397278
vn 0.3704332411289215 0.852411150932312 0.3690181374549866
vn 0.25828295946121216 0.8534743189811707 0.45262736082077026
vn 0.15550757944583893 0.7999073266983032 0.5796254277229309
vn -0.0018847433384507895 0.8579019904136658 0.5138099193572998
vn -0.09598427265882492 0.9276589155197144 0.36088213324546814
vn -0.12798529863357544 0.967324435710907 0.21886809170246124
vn -0.06032252684235573 0.9924440383911133 0.10684575140476227
vn -0.11482970416545868 0.9866442680358887 0.11553031951189041
vn -0.18193665146827698 0.9666319489479065 0.18033768236637115
vn -0.18734440207481384 0.9273436069488525 0.3239381015300751
vn -0.13149094581604004 0.8567207455635071 0.4987381398677826
vn 0.003770883660763502 0.7994002103805542 0.6007870435714722
vn 0.13524781167507172 0.8539210557937622 0.5025205612182617
vn -0.0018853545188903809 0.8533791899681091 0.5212872624397278
vn -0.15920691192150116 0.7991793155670166 0.5796254277229309
vn -0.2565993666648865 0.8580756783485413 0.44481781125068665
vn -0.26074063777923584 0.9293798804283142 0.2612801790237427
vn -0.22277827560901642 0.9663577079772949 0.12854042649269104
vn -0.10732005536556244 0.9922065138816833 0.0633138045668602
vn -0.15779003500938416 0.9866003394126892 0.04149730131030083
vn -0.242995485663414 0.9676639437675476 0.06767380982637405
vn -0.3223094046115875 0.9284541010856628 0.18463370203971863
vn -0.36194637417793274 0.8577899932861328 0.3649536371231079
vn -0.30423977971076965 0.7973065972328186 0.5212872624397278
vn -0.13524781167507172 0.8539210557937622 0.5025205612182617
vn -0.26188936829566956 0.8523746132850647 0.45262736082077026
vn -0.42396795749664307 0.7996883988380432 0.42514660954475403
vn -0.44794997572898865 0.8563065528869629 0.25706008076667786
vn -0.36156755685806274 0.9271649718284607 0.0981530249118805
vn -0.25395211577415466 0.9672143459320068 0.002184694167226553
vn -0.1280297040939331 0.991767942905426 0.002184694167226553
vn -0.15779003500938416 0.9866003394126892 -0.04149730131030083
vn -0.242995485663414 0.9676639437675476 -0.06767380982637405
vn -0.3686853349208832 0.9295517206192017 0.002184694167226553
vn -0.49556657671928406 0.8583465218544006 0.1328723281621933
vn -0.5242491960525513 0.7973366379737854 0.2990269064903259
vn -0.3704332411289215 0.852411150932312 0.3690181374549866
vn -0.44960737228393555 0.8541579842567444 0.2612801790237427
vn -0.5825597047805786 0.797970175743103 0.15449213981628418
vn -0.5173366069793701 0.855779230594635 0.002184694167226553
vn -0.36156755685806274 0.9271649718284607 -0.0981530249118805
vn -0.22277827560901642 0.9663577079772949 -0.12854042649269104
vn -0.10732005536556244 0.9922065138816833 -0.0633138045668602
vn -0.11482970416545868 0.9866442680358887 -0.11553031951189041
vn -0.06228029727935791 0.992323100566864 -0.10684575140476227
vn -0.12798529863357544 0.967324435710907 -0.21886809170246124
vn -0.0641346275806427 0.9664793014526367 -0.24860523641109467
vn -0.09798508137464523 0.9274497032165527 -0.36088213324546814
vn -0.5017904043197632 0.8540387153625488 0.1372016966342926
vn -0.18942971527576447 0.9269198775291443 -0.3239381015300751
vn -0.1372995227575302 0.8535935282707214 -0.5025205612182617
vn -0.15388056635856628 0.8002219200134277 -0.5796254277229309
vn -0.2640354037284851 0.8517122268676758 -0.45262736082077026
vn -0.29935160279273987 0.7991546988487244 -0.5212872624397278
vn -0.13353800773620605 0.8564040064811707 -0.4987381398677826
vn -0.25874245166778564 0.8574318885803223 -0.44481781125068665
vn -0.36568310856819153 0.8544597625732422 -0.3690181374549866
vn -0.4261522591114044 0.7985265254974365 -0.42514660954475403
vn -0.4517921507358551 0.8530043959617615 -0.2612801790237427
vn -0.5242491960525513 0.7973366379737854 -0.2990269064903259
vn -0.5039674043655396 0.8527558445930481 -0.1372016966342926
vn -0.5825597047805786 0.797970175743103 -0.15449213981628418
vn -0.5237845182418823 0.8518480062484741 0.002184694167226553
vn -0.604758083820343 0.7964062690734863 0.002184694167226553
vn -0.49556657671928406 0.8583465218544006 -0.1328723281621933
vn -0.3223094046115875 0.9284541010856628 -0.18463370203971863
vn -0.1840122938156128 0.9662389755249023 -0.18033768236637115
vn -0.2628745436668396 0.9287785887718201 -0.2612801790237427
vn -0.4434381425380707 0.8586516976356506 -0.25706008076667786
vn -0.36194637417793274 0.8577899932861328 -0.3649536371231079
vt 0.4198046326637268 0.4699671268463135
vt 0.41741231083869934 0.4410058259963989
vt 0.3567342758178711 0.45102250576019287
vt 0.3721756637096405 0.4130244553089142
vt 0.39936116337776184 0.3823211193084717
vt 0.4445978105068207 0.43044477701187134
vt 0.4571031630039215 0.40420541167259216
vt 0.5061457753181458 0.4963153600692749
vt 0.4019709527492523 0.49272242188453674
vt 0.31073641777038574 0.37535300850868225
vt 0.34868738055229187 0.3290802836418152
vt 0.24712234735488892 0.3362661600112915
vt 0.2971436679363251 0.2749684154987335
vt 0.3975125253200531 0.29445740580558777
vt 0.43198373913764954 0.35760605335235596
vt 0.4709133803844452 0.3449763357639313
vt 0.4859197735786438 0.40877825021743774
vt 0.286486953496933 0.4301181435585022
vt 0.21493472158908844 0.4086693525314331
vt 0.5097342729568481 0.3925555646419525
vt 0.5113654136657715 0.33985909819602966
vt 0.4537321627140045 0.27409738302230835
vt 0.3617364168167114 0.22913119196891785
vt 0.24897097051143646 0.22401396930217743
vt 0.18807543814182281 0.29968348145484924
vt 0.13000722229480743 0.2634274363517761
vt 0.06737182289361954 0.3628321588039398
vt 0.1472971886396408 0.38798272609710693
vt 0.19264261424541473 0.16391387581825256
vt 0.32857009768486023 0.16826894879341125
vt 0.43611595034599304 0.20169419050216675
vt 0.5132140517234802 0.26854467391967773
vt 0.5510562658309937 0.34835150837898254
vt 0.5322438478469849 0.4107380211353302
vt 0.5607342720031738 0.40856048464775085
vt 0.588354766368866 0.364138662815094
vt 0.5717172026634216 0.2788879871368408
vt 0.5148451328277588 0.19439943134784698
vt 0.4192609488964081 0.1333194375038147
vt 0.29605624079704285 0.10816884785890579
vt 0.39936116337776184 0.05253269895911217
vt 0.5163675546646118 0.12450039386749268
vt 0.5927044153213501 0.2075735479593277
vt 0.6255444884300232 0.30382081866264343
vt 0.6186937689781189 0.3911401629447937
vt 0.5712822675704956 0.4354531168937683
vt 0.5973803400993347 0.4476473331451416
vt 0.6438131928443909 0.42304113507270813
vt 0.6714336276054382 0.3418188989162445
vt 0.6643654108047485 0.24067215621471405
vt 0.6126042008399963 0.1393076628446579
vt 0.5177811980247498 0.05525462329387665
vt 0.6362012028694153 0.05786767229437828
vt 0.7011201977729797 0.18068093061447144
vt 0.7254784107208252 0.2910822033882141
vt 0.7067747712135315 0.3898336589336395
vt 0.6571884155273438 0.4612569510936737
vt 0.5933569073677063 0.47595536708831787
vt 0.6101031303405762 0.4995816648006439
vt 0.6628429889678955 0.5014325976371765
vt 0.7283056974411011 0.4451431632041931
vt 0.7723461985588074 0.3549930155277252
vt 0.7773483395576477 0.24197867512702942
vt 0.7378749847412109 0.12058082222938538
vt 0.8395487666130066 0.18329398334026337
vt 0.8338941931724548 0.321676641702652
vt 0.8010541200637817 0.4284849762916565
vt 0.734503984451294 0.5042634010314941
vt 0.654904842376709 0.5413904190063477
vt 0.592160701751709 0.5222280621528625
vt 0.5947705507278442 0.5510804653167725
vt 0.639463484287262 0.5790618658065796
vt 0.7244997024536133 0.5630569458007812
vt 0.8087747693061829 0.5069853067398071
vt 0.8694528341293335 0.41226232051849365
vt 0.8948984146118164 0.2882513999938965
vt 0.950248122215271 0.3932088315486908
vt 0.8782609105110168 0.5090539455413818
vt 0.7957257628440857 0.5849412083625793
vt 0.7000327706336975 0.6172776818275452
vt 0.6126042008399963 0.6097651720046997
vt 0.5678024888038635 0.5618593096733093
vt 0.5555146336555481 0.5882075428962708
vt 0.5804165601730347 0.6346980333328247
vt 0.6622993350028992 0.6631149053573608
vt 0.7631031274795532 0.6568000316619873
vt 0.8633632659912109 0.6050834655761719
vt 0.946877121925354 0.5106871128082275
vt 0.9433974027633667 0.6281654238700867
vt 0.8226937651634216 0.6932738423347473
vt 0.7132992744445801 0.7176622748374939
vt 0.6141266226768494 0.6977378129959106
vt 0.5418131947517395 0.6478721499443054
vt 0.5268067717552185 0.5840702056884766
vt 0.5028835535049438 0.6006194949150085
vt 0.5013611316680908 0.6533159613609314
vt 0.5585594177246094 0.7185333371162415
vt 0.6493589878082275 0.7632817625999451
vt 0.7622331976890564 0.7691611051559448
vt 0.882175624370575 0.7288766503334045
vt 0.8208451271057129 0.8296967148780823
vt 0.6829602718353271 0.8253416419029236
vt 0.5758494138717651 0.7911542654037476
vt 0.49951252341270447 0.7248481512069702
vt 0.4613440930843353 0.6453679800033569
vt 0.48004770278930664 0.5824370384216309
vt 0.45123109221458435 0.5848323702812195
vt 0.4236106276512146 0.6299074292182922
vt 0.440900593996048 0.7154847383499146
vt 0.4975551664829254 0.7994289398193359
vt 0.5923781991004944 0.8609444499015808
vt 0.7165615558624268 0.887074887752533
vt 0.6122779846191406 0.9443442225456238
vt 0.49527159333229065 0.8699812293052673
vt 0.4196959137916565 0.7872347235679626
vt 0.3864208459854126 0.6913140416145325
vt 0.39305412769317627 0.6029059290885925
vt 0.44057437777519226 0.5577219724655151
vt 0.41447627544403076 0.5454188585281372
vt 0.41871723532676697 0.5166753530502319
vt 0.35499441623687744 0.5317003726959229
vt 0.3491223454475403 0.4911981225013733
vt 0.27735263109207153 0.48923835158348083
vt 0.4928792715072632 0.9404246211051941
vt 0.2839858829975128 0.5487940907478333
vt 0.06345710903406143 0.481290340423584
vt 0.1328345090150833 0.48444774746894836
vt 0.059542398899793625 0.5997484922409058
vt 0.14186009764671326 0.5817837715148926
vt 0.20286434888839722 0.4870608150959015
vt 0.21123749017715454 0.5661054849624634
vt 0.11521830409765244 0.7051414251327515
vt 0.17730998992919922 0.6731315851211548
vt 0.17078547179698944 0.8105343580245972
vt 0.23363834619522095 0.753373920917511
vt 0.2721330225467682 0.8735741376876831
vt 0.3099752366542816 0.8145627975463867
vt 0.37348055839538574 0.9365050792694092
vt 0.3988174498081207 0.8555005788803101
vt 0.34749120473861694 0.7550070881843567
vt 0.34020549058914185 0.653424859046936
vt 0.3681522011756897 0.5704606175422668
vt 0.3051905632019043 0.6048657298088074
vt 0.28594323992729187 0.7050325870513916
vt 0.2396191507577896 0.6404684782028198
s on
f 1/1/1 2/2/2 3/3/3
f 3/3/3 2/2/2 4/4/4
f 4/4/4 2/2/2 5/5/5
f 2/2/2 6/6/6 5/5/5
f 5/5/5 6/6/6 7/7/7
f 7/7/7 6/6/6 8/8/8
f 6/6/6 2/2/2 8/8/8
f 2/2/2 1/1/1 8/8/8
f 8/8/8 1/1/1 9/9/9
f 1/1/1 3/3/3 9/9/9
f 4/4/4 5/5/5 10/10/10
f 5/5/5 11/11/11 10/10/10
f 10/10/10 11/11/11 12/12/12
f 12/12/12 11/11/11 13/13/13
f 13/13/13 11/11/11 14/14/14
f 11/11/11 15/15/15 14/14/14
f 14/14/14 15/15/15 16/16/16
f 15/15/15 7/7/7 16/16/16
f 16/16/16 7/7/7 17/17/17
f 7/7/7 8/8/8 17/17/17
f 7/7/7 15/15/15 5/5/5
f 15/15/15 11/11/11 5/5/5
f 10/10/10 18/18/18 4/4/4
f 18/18/18 3/3/3 4/4/4
f 18/18/18 10/10/10 19/19/19
f 10/10/10 12/12/12 19/19/19
f 16/16/16 17/17/17 20/20/20
f 17/17/17 8/8/8 20/20/20
f 20/20/20 21/21/21 16/16/16
f 21/21/21 22/22/22 16/16/16
f 16/16/16 22/22/22 14/14/14
f 22/22/22 23/23/23 14/14/14
f 14/14/14 23/23/23 13/13/13
f 23/23/23 24/24/24 13/13/13
f 13/13/13 24/24/24 25/25/25
f 24/24/24 26/26/26 25/25/25
f 26/26/26 27/27/27 25/25/25
f 27/27/27 28/28/28 25/25/25
f 25/25/25 28/28/28 12/12/12
f 28/28/28 19/19/19 12/12/12
f 25/25/25 12/12/12 13/13/13
f 26/26/26 24/24/24 29/29/29
f 29/29/29 24/24/24 30/30/30
f 24/24/24 23/23/23 30/30/30
f 30/30/30 23/23/23 31/31/31
f 23/23/23 22/22/22 31/31/31
f 31/31/31 22/22/22 32/32/32
f 22/22/22 21/21/21 32/32/32
f 32/32/32 21/21/21 33/33/33
f 21/21/21 20/20/20 33/33/33
f 33/33/33 20/20/20 34/34/34
f 20/20/20 8/8/8 34/34/34
f 8/8/8 35/35/35 34/34/34
f 34/34/34 35/35/35 33/33/33
f 35/35/35 36/36/36 33/33/33
f 36/36/36 37/37/37 33/33/33
f 33/33/33 37/37/37 32/32/32
f 37/37/37 38/38/38 32/32/32
f 32/32/32 38/38/38 31/31/31
f 38/38/38 39/39/39 31/31/31
f 31/31/31 39/39/39 30/30/30
f 39/39/39 40/40/40 30/30/30
f 30/30/30 40/40/40 29/29/29
f 40/40/40 39/39/39 41/41/41
f 41/41/41 39/39/39 42/42/42
f 39/39/39 38/38/38 42/42/42
f 42/42/42 38/38/38 43/43/43
f 38/38/38 37/37/37 43/43/43
f 43/43/43 37/37/37 44/44/44
f 37/37/37 36/36/36 44/44/44
f 44/44/44 36/36/36 45/45/45
f 36/36/36 35/35/35 45/45/45
f 45/45/45 35/35/35 46/46/46
f 35/35/35 8/8/8 46/46/46
f 8/8/8 47/47/47 46/46/46
f 46/46/46 47/47/47 45/45/45
f 47/47/47 48/48/48 45/45/45
f 48/48/48 49/49/49 45/45/45
f 45/45/45 49/49/49 44/44/44
f 49/49/49 50/50/50 44/44/44
f 44/44/44 50/50/50 43/43/43
f 50/50/50 51/51/51 43/43/43
f 43/43/43 51/51/51 42/42/42
f 51/51/51 52/52/52 42/42/42
f 42/42/42 52/52/52 41/41/41
f 52/52/52 51/51/51 53/53/53
f 53/53/53 51/51/51 54/54/54
f 51/51/51 50/50/50 54/54/54
f 54/54/54 50/50/50 55/55/55
f 50/50/50 49/49/49 55/55/55
f 55/55/55 49/49/49 56/56/56
f 49/49/49 48/48/48 56/56/56
f 56/56/56 48/48/48 57/57/57
f 48/48/48 47/47/47 57/57/57
f 57/57/57 47/47/47 58/58/58
f 47/47/47 8/8/8 58/58/58
f 8/8/8 59/59/59 58/58/58
f 58/58/58 59/59/59 57/57/57
f 59/59/59 60/60/60 57/57/57
f 60/60/60 61/61/61 57/57/57
f 57/57/57 61/61/61 56/56/56
f 61/61/61 62/62/62 56/56/56
f 56/56/56 62/62/62 55/55/55
f 62/62/62 63/63/63 55/55/55
f 55/55/55 63/63/63 54/54/54
f 63/63/63 64/64/64 54/54/54
f 54/54/54 64/64/64 53/53/53
f 64/64/64 63/63/63 65/65/65
f 65/65/65 63/63/63 66/66/66
f 63/63/63 62/62/62 66/66/66
f 66/66/66 62/62/62 67/67/67
f 62/62/62 61/61/61 67/67/67
f 67/67/67 61/61/61 68/68/68
f 61/61/61 60/60/60 68/68/68
f 68/68/68 60/60/60 69/69/69
f 60/60/60 59/59/59 69/69/69
f 69/69/69 59/59/59 70/70/70
f 59/59/59 8/8/8 70/70/70
f 8/8/8 71/71/71 70/70/70
f 70/70/70 71/71/71 69/69/69
f 71/71/71 72/72/72 69/69/69
f 72/72/72 73/73/73 69/69/69
f 69/69/69 73/73/73 68/68/68
f 73/73/73 74/74/74 68/68/68
f 68/68/68 74/74/74 67/67/67
f 74/74/74 75/75/75 67/67/67
f 67/67/67 75/75/75 66/66/66
f 75/75/75 76/76/76 66/66/66
f 66/66/66 76/76/76 65/65/65
f 76/76/76 75/75/75 77/77/77
f 77/77/77 75/75/75 78/78/78
f 75/75/75 74/74/74 78/78/78
f 78/78/78 74/74/74 79/79/79
f 74/74/74 73/73/73 79/79/79
f 79/79/79 73/73/73 80/80/80
f 73/73/73 72/72/72 80/80/80
f 80/80/80 72/72/72 81/81/81
f 72/72/72 71/71/71 81/81/81
f 81/81/81 71/71/71 82/82/82
f 71/71/71 8/8/8 82/82/82
f 8/8/8 83/83/83 82/82/82
f 82/82/82 83/83/83 81/81/81
f 83/83/83 84/84/84 81/81/81
f 84/84/84 85/85/85 81/81/81
f 81/81/81 85/85/85 80/80/80
f 85/85/85 86/86/86 80/80/80
f 80/80/80 86/86/86 79/79/79
f 86/86/86 87/87/87 79/79/79
f 79/79/79 87/87/87 78/78/78
f 87/87/87 88/88/88 78/78/78
f 78/78/78 88/88/88 77/77/77
f 88/88/88 87/87/87 89/89/89
f 89/89/89 87/87/87 90/90/90
f 87/87/87 86/86/86 90/90/90
f 90/90/90 86/86/86 91/91/91
f 86/86/86 85/85/85 91/91/91
f 91/91/91 85/85/85 92/92/92
f 85/85/85 84/84/84 92/92/92
f 92/92/92 84/84/84 93/93/93
f 84/84/84 83/83/83 93/93/93
f 93/93/93 83/83/83 94/94/94
f 83/83/83 8/8/8 94/94/94
f 8/8/8 95/95/95 94/94/94
f 94/94/94 95/95/95 93/93/93
f 95/95/95 96/96/96 93/93/93
f 96/96/96 97/97/97 93/93/93
f 93/93/93 97/97/97 92/92/92
f 97/97/97 98/98/98 92/92/92
f 92/92/92 98/98/98 91/91/91
f 98/98/98 99/99/99 91/91/91
f 91/91/91 99/99/99 90/90/90
f 99/99/99 100/100/100 90/90/90
f 90/90/90 100/100/100 89/89/89
f 100/100/100 99/99/99 101/101/101
f 101/101/101 99/99/99 102/102/102
f 99/99/99 98/98/98 102/102/102
f 102/102/102 98/98/98 103/103/103
f 98/98/98 97/97/97 103/103/103
f 103/103/103 97/97/97 104/104/104
f 97/97/97 96/96/96 104/104/104
f 104/104/104 96/96/96 105/105/105
f 96/96/96 95/95/95 105/105/105
f 105/105/105 95/95/95 106/106/106
f 95/95/95 8/8/8 106/106/106
f 8/8/8 107/107/107 106/106/106
f 106/106/106 107/107/107 105/105/105
f 107/107/107 108/108/108 105/105/105
f 108/108/108 109/109/109 105/105/105
f 105/105/105 109/109/109 104/104/104
f 109/109/109 110/110/110 104/104/104
f 104/104/104 110/110/110 103/103/103
f 110/110/110 111/111/111 103/103/103
f 103/103/103 111/111/111 102/102/102
f 111/111/111 112/112/112 102/102/102
f 102/102/102 112/112/112 101/101/101
f 112/112/112 111/111/111 113/113/113
f 113/113/113 111/111/111 114/114/114
f 111/111/111 110/110/110 114/114/114
f 114/114/114 110/110/110 115/115/115
f 110/110/110 109/109/109 115/115/115
f 115/115/115 109/109/109 116/116/116
f 109/109/109 108/108/108 116/116/116
f 116/116/116 108/108/108 117/117/117
f 108/108/108 107/107/107 117/117/117
f 117/117/117 107/107/107 118/118/118
f 107/107/107 8/8/8 118/118/118
f 118/118/118 8/8/8 119/119/119
f 8/8/8 120/120/120 119/119/119
f 119/119/119 120/120/120 121/121/121
f 120/120/120 9/9/9 121/121/121
f 121/121/121 9/9/9 122/122/122
f 9/9/9 3/3/3 122/122/122
f 122/122/122 3/3/3 123/123/123
f 3/3/3 18/18/18 123/123/123
f 113/113/113 114/114/114 124/124/124
f 117/117/117 118/118/118 119/119/119
f 8/8/8 9/9/9 120/120/120
f 123/123/123 125/125/125 122/122/122
f 122/122/122 125/125/125 121/121/121
f 27/27/27 126/126/126 28/28/28
f 28/28/28 126/126/126 127/127/127
f 126/126/126 128/128/128 127/127/127
f 128/128/128 129/129/129 127/127/127
f 127/127/127 129/129/129 130/130/130
f 129/129/129 131/131/131 130/130/130
f 130/130/130 131/131/131 123/123/123
f 131/131/131 125/125/125 123/123/123
f 123/123/123 18/18/18 130/130/130
f 18/18/18 19/19/19 130/130/130
f 130/130/130 19/19/19 127/127/127
f 19/19/19 28/28/28 127/127/127
f 128/128/128 132/132/132 129/129/129
f 132/132/132 133/133/133 129/129/129
f 129/129/129 133/133/133 131/131/131
f 132/132/132 134/134/134 133/133/133
f 133/133/133 134/134/134 135/135/135
f 134/134/134 136/136/136 135/135/135
f 135/135/135 136/136/136 137/137/137
f 136/136/136 138/138/138 137/137/137
f 137/137/137 138/138/138 139/139/139
f 138/138/138 124/124/124 139/139/139
f 124/124/124 114/114/114 139/139/139
f 114/114/114 115/115/115 139/139/139
f 139/139/139 115/115/115 140/140/140
f 115/115/115 116/116/116 140/140/140
f 140/140/140 116/116/116 141/141/141
f 116/116/116 117/117/117 141/141/141
f 141/141/141 117/117/117 142/142/142
f 117/117/117 119/119/119 142/142/142
f 119/119/119 121/121/121 142/142/142
f 121/121/121 143/143/143 142/142/142
f 142/142/142 143/143/143 141/141/141
f 143/143/143 144/144/144 141/141/141
f 141/141/141 144/144/144 140/140/140
f 144/144/144 137/137/137 140/140/140
f 140/140/140 137/137/137 139/139/139
f 137/137/137 144/144/144 135/135/135
f 135/135/135 144/144/144 145/145/145
f 144/144/144 143/143/143 145/145/145
f 145/145/145 143/143/143 125/125/125
f 143/143/143 121/121/121 125/125/125
f 135/135/135 145/145/145 133/133/133
f 133/133/133 145/145/145 131/131/131
f 145/145/145 125/125/125 131/131/131

