# Exported by Sketchfab Model Ripper robust edition
o model_2
v 0.037695806473493576 0.6098066568374634 0.13999249041080475
v 0.053569428622722626 0.6489074230194092 0.19995951652526855
v 0.00021641599596478045 0.6489074230194092 0.20701445639133453
v 0.00021641599596478045 0.7006213665008545 0.271831750869751
v -0.07033302634954453 0.7006213665008545 0.26257213950157166
v -0.05357753112912178 0.6489074230194092 0.19995951652526855
v -0.13603219389915466 0.7006213665008545 0.23523423075675964
v -0.10340307652950287 0.6489074230194092 0.17923562228679657
v -0.03770390897989273 0.6098066568374634 0.13999249041080475
v -0.07165582478046417 0.6098066568374634 0.12455980479717255
v -0.14617367088794708 0.6489074230194092 0.14616556465625763
v -0.10252120345830917 0.6098066568374634 0.10251310467720032
v 0.00021641599596478045 0.6098066568374634 0.14351996779441833
v 0.07164772599935532 0.6098066568374634 0.12455980479717255
v -0.19203080236911774 0.7006213665008545 0.19202271103858948
v -0.17924372851848602 0.6489074230194092 0.10339497029781342
v -0.2352423369884491 0.7006213665008545 0.1360240876674652
v -0.1245679035782814 0.6098066568374634 0.07164772599935532
v -0.199967622756958 0.6489074230194092 0.053569428622722626
v -0.1400005966424942 0.6098066568374634 0.037695806473493576
v -0.207022562623024 0.6489074230194092 0.00021641599596478045
v -0.1435280740261078 0.6098066568374634 0.00021641599596478045
v -0.199967622756958 0.6489074230194092 -0.05357753112912178
v -0.1400005966424942 0.6098066568374634 -0.03770390897989273
v -0.2625802457332611 0.7006213665008545 0.07032492011785507
v -0.27183985710144043 0.7006213665008545 0.00021641599596478045
v -0.2625802457332611 0.7006213665008545 -0.07033302634954453
v -0.2352423369884491 0.7006213665008545 -0.13603219389915466
v -0.17924372851848602 0.6489074230194092 -0.10340307652950287
v -0.19203080236911774 0.7006213665008545 -0.19203080236911774
v -0.14617367088794708 0.6489074230194092 -0.14617367088794708
v -0.13603219389915466 0.7006213665008545 -0.2352423369884491
v -0.10340307652950287 0.6489074230194092 -0.17924372851848602
v -0.10252120345830917 0.6098066568374634 -0.10252120345830917
v -0.07165582478046417 0.6098066568374634 -0.1245679035782814
v -0.05357753112912178 0.6489074230194092 -0.199967622756958
v -0.03770390897989273 0.6098066568374634 -0.1400005966424942
v -0.1245679035782814 0.6098066568374634 -0.07165582478046417
v -0.07033302634954453 0.7006213665008545 -0.2625802457332611
v 0.00021641599596478045 0.6489074230194092 -0.207022562623024
v 0.00021641599596478045 0.7006213665008545 -0.27183985710144043
v 0.00021641599596478045 0.6098066568374634 -0.1435280740261078
v 0.053569428622722626 0.6489074230194092 -0.199967622756958
v 0.037695806473493576 0.6098066568374634 -0.1400005966424942
v 0.10339497029781342 0.6489074230194092 -0.17924372851848602
v 0.07164772599935532 0.6098066568374634 -0.1245679035782814
v 0.14616556465625763 0.6489074230194092 -0.14617367088794708
v 0.10251310467720032 0.6098066568374634 -0.10252120345830917
v 0.07032492011785507 0.7006213665008545 -0.2625802457332611
v 0.1360240876674652 0.7006213665008545 -0.2352423369884491
v 0.19202271103858948 0.7006213665008545 -0.19203080236911774
v 0.23523423075675964 0.7006213665008545 -0.13603219389915466
v 0.17923562228679657 0.6489074230194092 -0.10340307652950287
v 0.26257213950157166 0.7006213665008545 -0.07033302634954453
v 0.19995951652526855 0.6489074230194092 -0.05357753112912178
v 0.271831750869751 0.7006213665008545 0.00021641599596478045
v 0.20701445639133453 0.6489074230194092 0.00021641599596478045
v 0.13999249041080475 0.6098066568374634 -0.03770390897989273
v 0.14351996779441833 0.6098066568374634 0.00021641599596478045
v 0.19995951652526855 0.6489074230194092 0.053569428622722626
v 0.13999249041080475 0.6098066568374634 0.037695806473493576
v 0.12455980479717255 0.6098066568374634 -0.07165582478046417
v 0.26257213950157166 0.7006213665008545 0.07032492011785507
v 0.17923562228679657 0.6489074230194092 0.10339497029781342
v 0.23523423075675964 0.7006213665008545 0.1360240876674652
v 0.12455980479717255 0.6098066568374634 0.07164772599935532
v 0.14616556465625763 0.6489074230194092 0.14616556465625763
v 0.10251310467720032 0.6098066568374634 0.10251310467720032
v 0.10339497029781342 0.6489074230194092 0.17923562228679657
v 0.07032492011785507 0.7006213665008545 0.26257213950157166
v 0.00021641599596478045 0.752335250377655 0.3335625231266022
v -0.08620664477348328 0.752335250377655 0.3220982253551483
v -0.16689756512641907 0.752335250377655 0.28902819752693176
v -0.23568327724933624 0.752335250377655 0.23611611127853394
v -0.28903627395629883 0.752335250377655 0.1668894737958908
v -0.32210633158683777 0.752335250377655 0.08619854599237442
v -0.3335706293582916 0.752335250377655 0.00021641599596478045
v -0.32210633158683777 0.752335250377655 -0.08620664477348328
v -0.28903627395629883 0.752335250377655 -0.16689756512641907
v -0.23568327724933624 0.752335250377655 -0.23568327724933624
v -0.16689756512641907 0.752335250377655 -0.28903627395629883
v -0.08620664477348328 0.752335250377655 -0.32210633158683777
v 0.00021641599596478045 0.752335250377655 -0.3335706293582916
v 0.08619854599237442 0.752335250377655 -0.32210633158683777
v 0.1668894737958908 0.752335250377655 -0.28903627395629883
v 0.23611611127853394 0.752335250377655 -0.23568327724933624
v 0.28902819752693176 0.752335250377655 -0.16689756512641907
v 0.3220982253551483 0.752335250377655 -0.08620664477348328
v 0.3335625231266022 0.752335250377655 0.00021641599596478045
v 0.3220982253551483 0.752335250377655 0.08619854599237442
v 0.28902819752693176 0.752335250377655 0.1668894737958908
v 0.23611611127853394 0.752335250377655 0.23611611127853394
v 0.19202271103858948 0.7006213665008545 0.19202271103858948
v 0.1668894737958908 0.752335250377655 0.28902819752693176
v 0.1360240876674652 0.7006213665008545 0.23523423075675964
v 0.08619854599237442 0.752335250377655 0.3220982253551483
v 0.00021641599596478045 0.7952199578285217 0.3855927288532257
v -0.09987559914588928 0.7952199578285217 0.37236469984054565
v -0.19291268289089203 0.7952199578285217 0.3340034484863281
v -0.2727217376232147 0.7952199578285217 0.27271363139152527
v -0.3340115547180176 0.7952199578285217 0.19290457665920258
v -0.3723728060722351 0.7952199578285217 0.09986750036478043
v -0.38560083508491516 0.7952199578285217 0.00021641599596478045
v -0.3723728060722351 0.7952199578285217 -0.09987559914588928
v -0.3340115547180176 0.7952199578285217 -0.19291268289089203
v -0.2727217376232147 0.7952199578285217 -0.2727217376232147
v -0.19291268289089203 0.7952199578285217 -0.3340115547180176
v -0.09987559914588928 0.7952199578285217 -0.3723728060722351
v 0.00021641599596478045 0.7952199578285217 -0.38560083508491516
v 0.09986750036478043 0.7952199578285217 -0.3723728060722351
v 0.19290457665920258 0.7952199578285217 -0.3340115547180176
v 0.27271363139152527 0.7952199578285217 -0.2727217376232147
v 0.3340034484863281 0.7952199578285217 -0.19291268289089203
v 0.37236469984054565 0.7952199578285217 -0.09987559914588928
v 0.3855927288532257 0.7952199578285217 0.00021641599596478045
v 0.37236469984054565 0.7952199578285217 0.09986750036478043
v 0.3340034484863281 0.7952199578285217 0.19290457665920258
v 0.27271363139152527 0.7952199578285217 0.27271363139152527
v 0.19290457665920258 0.7952199578285217 0.3340034484863281
v 0.09986750036478043 0.7952199578285217 0.37236469984054565
v 0.00021641599596478045 0.8241155743598938 0.422631174325943
v -0.10957615077495575 0.8241155743598938 0.4080803692340851
v -0.21143190562725067 0.8241155743598938 0.3661916255950928
v -0.2987368404865265 0.8241155743598938 0.29872873425483704
v -0.3661997318267822 0.8241155743598938 0.21142379939556122
v -0.40808847546577454 0.8241155743598938 0.1095680445432663
v -0.42263928055763245 0.8241155743598938 0.00021641599596478045
v -0.40808847546577454 0.8241155743598938 -0.10957615077495575
v -0.3661997318267822 0.8241155743598938 -0.21143190562725067
v -0.2987368404865265 0.8241155743598938 -0.2987368404865265
v -0.21143190562725067 0.8241155743598938 -0.3661997318267822
v -0.10957615077495575 0.8241155743598938 -0.40808847546577454
v 0.00021641599596478045 0.8241155743598938 -0.42263928055763245
v 0.1095680445432663 0.8241155743598938 -0.40808847546577454
v 0.21142379939556122 0.8241155743598938 -0.3661997318267822
v 0.29872873425483704 0.8241155743598938 -0.2987368404865265
v 0.3661916255950928 0.8241155743598938 -0.21143190562725067
v 0.4080803692340851 0.8241155743598938 -0.10957615077495575
v 0.422631174325943 0.8241155743598938 0.00021641599596478045
v 0.4080803692340851 0.8241155743598938 0.1095680445432663
v 0.3661916255950928 0.8241155743598938 0.21142379939556122
v 0.29872873425483704 0.8241155743598938 0.29872873425483704
v 0.21142379939556122 0.8241155743598938 0.3661916255950928
v 0.1095680445432663 0.8241155743598938 0.4080803692340851
v 0.00021641599596478045 0.844525933265686 0.45129188895225525
v -0.11663109064102173 0.844525933265686 0.43585920333862305
v -0.22554178535938263 0.844525933265686 0.3908839523792267
v -0.31901979446411133 0.844525933265686 0.3190116882324219
v -0.39089202880859375 0.844525933265686 0.22553369402885437
v -0.4358673095703125 0.844525933265686 0.11662299185991287
v -0.4512999951839447 0.844525933265686 0.00021641599596478045
v -0.4358673095703125 0.844525933265686 -0.11663109064102173
v -0.39089202880859375 0.844525933265686 -0.22554178535938263
v -0.31901979446411133 0.844525933265686 -0.31901979446411133
v -0.22554178535938263 0.844525933265686 -0.39089202880859375
v -0.11663109064102173 0.844525933265686 -0.4358673095703125
v 0.00021641599596478045 0.844525933265686 -0.4512999951839447
v 0.11662299185991287 0.844525933265686 -0.4358673095703125
v 0.22553369402885437 0.844525933265686 -0.39089202880859375
v 0.3190116882324219 0.844525933265686 -0.31901979446411133
v 0.3908839523792267 0.844525933265686 -0.22554178535938263
v 0.43585920333862305 0.844525933265686 -0.11663109064102173
v 0.45129188895225525 0.844525933265686 0.00021641599596478045
v 0.43585920333862305 0.844525933265686 0.11662299185991287
v 0.3908839523792267 0.844525933265686 0.22553369402885437
v 0.3190116882324219 0.844525933265686 0.3190116882324219
v 0.22553369402885437 0.844525933265686 0.3908839523792267
v 0.11662299185991287 0.844525933265686 0.43585920333862305
vn 0.10918661952018738 -0.904049813747406 0.41324591636657715
vn 0.15191622078418732 -0.8132838010787964 0.5616858005523682
vn -0.0018851460190489888 -0.8148808479309082 0.5796254277229309
vn 0.003769757691770792 -0.7751623392105103 0.6317508816719055
vn -0.16664567589759827 -0.7737226486206055 0.6112139225006104
vn -0.14820636808872223 -0.8139680027961731 0.5616858005523682
vn -0.31464892625808716 -0.775650143623352 0.5471406579017639
vn -0.28859782218933105 -0.8149750828742981 0.5025205612182617
vn -0.10918661952018738 -0.904049813747406 0.41324591636657715
vn -0.21311572194099426 -0.9046586751937866 0.3690181374549866
vn -0.4074932038784027 -0.8163657188415527 0.40926313400268555
vn -0.30235886573791504 -0.9036884307861328 0.30319350957870483
vn 2.806231267325765e-13 -0.903258204460144 0.42909738421440125
vn 0.21311572194099426 -0.9046586751937866 0.3690181374549866
vn -0.4468344748020172 -0.7739400267601013 0.4487268626689911
vn -0.5000181794166565 -0.8157750368118286 0.29067665338516235
vn -0.5485358834266663 -0.7742533683776855 0.31565824151039124
vn -0.37333157658576965 -0.9025349020957947 0.21460255980491638
vn -0.562339186668396 -0.8131558895111084 0.15017375349998474
vn -0.4119023382663727 -0.9044188261032104 0.1111890971660614
vn -0.5804283022880554 -0.8143084645271301 0.002184694167226553
vn -0.4241376221179962 -0.9055951237678528 0.002184694167226553
vn -0.562339186668396 -0.8131558895111084 -0.15017375349998474
vn -0.4119023382663727 -0.9044188261032104 -0.1111890971660614
vn -0.6138731241226196 -0.7723675966262817 0.16312000155448914
vn -0.6343917846679688 -0.7730085849761963 0.002184694167226553
vn -0.6138731241226196 -0.7723675966262817 -0.16312000155448914
vn -0.5506800413131714 -0.7727298140525818 -0.31565824151039124
vn -0.5021897554397583 -0.8144400119781494 -0.29067665338516235
vn -0.4490143060684204 -0.7726773619651794 -0.4487268626689911
vn -0.40967920422554016 -0.8152709007263184 -0.40926313400268555
vn -0.3168277144432068 -0.774762749671936 -0.5471406579017639
vn -0.2907630503177643 -0.8142051100730896 -0.5025205612182617
vn -0.30235886573791504 -0.9036884307861328 -0.30319350957870483
vn -0.2152242511510849 -0.9041593670845032 -0.3690181374549866
vn -0.15027736127376556 -0.8135882019996643 -0.5616858005523682
vn -0.10918661952018738 -0.904049813747406 -0.41324591636657715
vn -0.37333157658576965 -0.9025349020957947 -0.21460255980491638
vn -0.1613501012325287 -0.7748442888259888 -0.6112139225006104
vn 0.003775842720642686 -0.8148742914199829 -0.5796254277229309
vn 0.0018878066912293434 -0.7751691937446594 -0.6317508816719055
vn -0.001889259205199778 -0.9032562375068665 -0.42909738421440125
vn 0.15027736127376556 -0.8135882019996643 -0.5616858005523682
vn 0.10918661952018738 -0.904049813747406 -0.41324591636657715
vn 0.2872026860713959 -0.8154677748680115 -0.5025205612182617
vn 0.2115478366613388 -0.9050266146659851 -0.3690181374549866
vn 0.41305020451545715 -0.8135682344436646 -0.40926313400268555
vn 0.29877638816833496 -0.9048792123794556 -0.30319350957870483
vn 0.1613501012325287 -0.7748442888259888 -0.6112139225006104
vn 0.3168277144432068 -0.774762749671936 -0.5471406579017639
vn 0.44574323296546936 -0.774569034576416 -0.4487268626689911
vn 0.5475988984107971 -0.7749163508415222 -0.31565824151039124
vn 0.5021897554397583 -0.8144400119781494 -0.29067665338516235
vn 0.610913097858429 -0.7747109532356262 -0.16312000155448914
vn 0.5592311024665833 -0.8152965307235718 -0.15017375349998474
vn 0.6343917846679688 -0.7730085849761963 0.002184694167226553
vn 0.5804283022880554 -0.8143084645271301 0.002184694167226553
vn 0.4153350591659546 -0.9028475880622864 -0.1111890971660614
vn 0.4241376221179962 -0.9055951237678528 0.002184694167226553
vn 0.5592311024665833 -0.8152965307235718 0.15017375349998474
vn 0.4153350591659546 -0.9028475880622864 0.1111890971660614
vn 0.36984121799468994 -0.9039707779884338 -0.21460255980491638
vn 0.610913097858429 -0.7747109532356262 0.16312000155448914
vn 0.5032298564910889 -0.8137977719306946 0.29067665338516235
vn 0.5485358834266663 -0.7742533683776855 0.31565824151039124
vn 0.36984121799468994 -0.9039707779884338 0.21460255980491638
vn 0.4074932038784027 -0.8163657188415527 0.40926313400268555
vn 0.29877638816833496 -0.9048792123794556 0.30319350957870483
vn 0.28859782218933105 -0.8149750828742981 0.5025205612182617
vn 0.16295529901981354 -0.7745082974433899 0.6112139225006104
vn 0.0018859859555959702 -0.7696189284324646 0.6385006904602051
vn -0.16651013493537903 -0.7682566046714783 0.6181069612503052
vn -0.32152700424194336 -0.7676085233688354 0.5544344186782837
vn -0.4545285701751709 -0.767158567905426 0.45262736082077026
vn -0.5560014843940735 -0.7671958804130554 0.3198012113571167
vn -0.6193124055862427 -0.767085075378418 0.16742929816246033
vn -0.640211284160614 -0.7681957483291626 0.002184694167226553
vn -0.6155320405960083 -0.7701218724250793 -0.16742929816246033
vn -0.5520166158676147 -0.7700680494308472 -0.3198012113571167
vn -0.45020222663879395 -0.7697054147720337 -0.45262736082077026
vn -0.31673353910446167 -0.7695988416671753 -0.5544344186782837
vn -0.16860546171665192 -0.767799437046051 -0.6181069612503052
vn 2.384213974252619e-13 -0.7696212530136108 -0.6385006904602051
vn 0.16860546171665192 -0.767799437046051 -0.6181069612503052
vn 0.31673353910446167 -0.7695988416671753 -0.5544344186782837
vn 0.45020222663879395 -0.7697054147720337 -0.45262736082077026
vn 0.5520166158676147 -0.7700680494308472 -0.3198012113571167
vn 0.6155320405960083 -0.7701218724250793 -0.16742929816246033
vn 0.640211284160614 -0.7681957483291626 0.002184694167226553
vn 0.6163726449012756 -0.7694492936134338 0.16742929816246033
vn 0.5529422760009766 -0.7694036364555359 0.3198012113571167
vn 0.45128077268600464 -0.7690735459327698 0.45262736082077026
vn 0.4468344748020172 -0.7739400267601013 0.4487268626689911
vn 0.31804391741752625 -0.7690582275390625 0.5544344186782837
vn 0.3181418180465698 -0.774224042892456 0.5471406579017639
vn 0.16282342374324799 -0.7690463662147522 0.6181069612503052
vn 0.003773098811507225 -0.7806534767150879 0.6249527335166931
vn -0.16467568278312683 -0.7795733213424683 0.6042742133140564
vn -0.3147181570529938 -0.7807450890541077 0.5398051738739014
vn -0.4422241449356079 -0.7810536026954651 0.4409002661705017
vn -0.5409935712814331 -0.7812092900276184 0.31150925159454346
vn -0.601979672908783 -0.7816727757453918 0.16312000155448914
vn -0.6226444840431213 -0.7825018167495728 0.002184694167226553
vn -0.601979672908783 -0.7816727757453918 -0.16312000155448914
vn -0.5409935712814331 -0.7812092900276184 -0.31150925159454346
vn -0.4422241449356079 -0.7810536026954651 -0.4409002661705017
vn -0.30988356471061707 -0.7826765179634094 -0.5398051738739014
vn -0.15937575697898865 -0.7806740999221802 -0.6042742133140564
vn 0.001889461767859757 -0.7806602716445923 -0.6249527335166931
vn 0.16307313740253448 -0.779910147190094 -0.6042742133140564
vn 0.30988356471061707 -0.7826765179634094 -0.5398051738739014
vn 0.43893545866012573 -0.7829065322875977 -0.4409002661705017
vn 0.5378866195678711 -0.783351719379425 -0.31150925159454346
vn 0.6049663424491882 -0.7793635725975037 -0.16312000155448914
vn 0.6226444840431213 -0.7825018167495728 0.002184694167226553
vn 0.6049663424491882 -0.7793635725975037 0.16312000155448914
vn 0.5378866195678711 -0.783351719379425 0.31150925159454346
vn 0.43893545866012573 -0.7829065322875977 0.4409002661705017
vn 0.3112160265445709 -0.7821477055549622 0.5398051738739014
vn 0.16467568278312683 -0.7795733213424683 0.6042742133140564
vn 2.491726172181713e-13 -0.8020265698432922 0.5972883701324463
vn -0.15553690493106842 -0.8024736046791077 0.5760593414306641
vn -0.30070459842681885 -0.8010712265968323 0.5175535082817078
vn -0.4226478934288025 -0.8024771809577942 0.42118772864341736
vn -0.5179232358932495 -0.8014602065086365 0.2990269064903259
vn -0.5764432549476624 -0.802399754524231 0.15449213981628418
vn -0.5987265110015869 -0.8009505867958069 0.002184694167226553
vn -0.5764432549476624 -0.802399754524231 -0.15449213981628418
vn -0.5179232358932495 -0.8014602065086365 -0.2990269064903259
vn -0.4226478934288025 -0.8024771809577942 -0.42118772864341736
vn -0.2958011031150818 -0.8028947710990906 -0.5175535082817078
vn -0.1576160192489624 -0.8020678162574768 -0.5760593414306641
vn -0.001888784347102046 -0.8020243048667908 -0.5972883701324463
vn 0.1576160192489624 -0.8020678162574768 -0.5760593414306641
vn 0.2958011031150818 -0.8028947710990906 -0.5175535082817078
vn 0.41930508613586426 -0.8042289018630981 -0.42118772864341736
vn 0.5179232358932495 -0.8014602065086365 -0.2990269064903259
vn 0.5764432549476624 -0.802399754524231 -0.15449213981628418
vn 0.5987265110015869 -0.8009505867958069 0.002184694167226553
vn 0.5764432549476624 -0.802399754524231 0.15449213981628418
vn 0.5179232358932495 -0.8014602065086365 0.2990269064903259
vn 0.41930508613586426 -0.8042289018630981 0.42118772864341736
vn 0.29717203974723816 -0.8023883700370789 0.5175535082817078
vn 0.15183328092098236 -0.8031826019287109 0.5760593414306641
vn 0.0018848208710551262 -0.812340497970581 0.5831804275512695
vn -0.14820636808872223 -0.8139680027961731 0.5616858005523682
vn -0.28859782218933105 -0.8149750828742981 0.5025205612182617
vn -0.41105690598487854 -0.8125638961791992 0.41324591636657715
vn -0.5064337849617004 -0.8118078112602234 0.29067665338516235
vn -0.562339186668396 -0.8131558895111084 0.15017375349998474
vn -0.5804283022880554 -0.8143084645271301 0.002184694167226553
vn -0.562339186668396 -0.8131558895111084 -0.15017375349998474
vn -0.5021897554397583 -0.8144400119781494 -0.29067665338516235
vn -0.41105690598487854 -0.8125638961791992 -0.41324591636657715
vn -0.2907630503177643 -0.8142051100730896 -0.5025205612182617
vn -0.15027736127376556 -0.8135882019996643 -0.5616858005523682
vn 2.523776001552014e-13 -0.812342643737793 -0.5831804275512695
vn 0.15027736127376556 -0.8135882019996643 -0.5616858005523682
vn 0.2943178415298462 -0.8129268884658813 -0.5025205612182617
vn 0.41105690598487854 -0.8125638961791992 -0.41324591636657715
vn 0.5021897554397583 -0.8144400119781494 -0.29067665338516235
vn 0.5592311024665833 -0.8152965307235718 -0.15017375349998474
vn 0.5804283022880554 -0.8143084645271301 0.002184694167226553
vn 0.5592311024665833 -0.8152965307235718 0.15017375349998474
vn 0.5032298564910889 -0.8137977719306946 0.29067665338516235
vn 0.41105690598487854 -0.8125638961791992 0.41324591636657715
vn 0.28859782218933105 -0.8149750828742981 0.5025205612182617
vn 0.15191622078418732 -0.8132838010787964 0.5616858005523682
vt 0.6159384250640869 0.5018914341926575
vt 0.6932661533355713 0.5012810230255127
vt 0.6874116659164429 0.4512261748313904
vt 0.7629098892211914 0.4309600591659546
vt 0.7359549403190613 0.3657666742801666
vt 0.6682627201080322 0.4047117829322815
vt 0.6931441426277161 0.30948546528816223
vt 0.638136625289917 0.3643016517162323
vt 0.6016681790351868 0.4429243803024292
vt 0.5866661071777344 0.41533318161964417
vt 0.5984969735145569 0.33329203724861145
vt 0.5604429841041565 0.39946213364601135
vt 0.6166702508926392 0.47039350867271423
vt 0.6152065992355347 0.5332672595977783
vt 0.6372828483581543 0.265901118516922
vt 0.5523930788040161 0.31314802169799805
vt 0.572273850440979 0.23806574940681458
vt 0.5342198610305786 0.38346898555755615
vt 0.5026301741600037 0.3060671091079712
vt 0.5033619403839111 0.382736474275589
vt 0.4527452290058136 0.3116829991340637
vt 0.47250404953956604 0.3820039629936218
vt 0.4062754213809967 0.3307282626628876
vt 0.445305198431015 0.3968983292579651
vt 0.5022642612457275 0.22805477678775787
vt 0.43213263154029846 0.23660072684288025
vt 0.3670017421245575 0.2633373439311981
vt 0.31077447533607483 0.3059450089931488
vt 0.3659040331840515 0.3607611656188965
vt 0.26723191142082214 0.36149367690086365
vt 0.3349241614341736 0.4004387855529785
vt 0.239667147397995 0.4263208210468292
vt 0.31492140889167786 0.4464648365974426
vt 0.4016406536102295 0.4384072422981262
vt 0.385174959897995 0.4650217592716217
vt 0.3087010383605957 0.49627551436424255
vt 0.38590678572654724 0.49603134393692017
vt 0.41798436641693115 0.41179269552230835
vt 0.23027560114860535 0.49627551436424255
vt 0.31516534090042114 0.5463303923606873
vt 0.23942320048809052 0.566596508026123
vt 0.3866385817527771 0.527163028717041
vt 0.33455824851989746 0.5929668545722961
vt 0.40115275979042053 0.5543879866600037
vt 0.3644404113292694 0.6334990859031677
vt 0.41566696763038635 0.5816129446029663
vt 0.4039580225944519 0.6646307110786438
vt 0.44164615869522095 0.5978502631187439
vt 0.26662206649780273 0.6322782039642334
vt 0.30943283438682556 0.6889256834983826
vt 0.3652941882610321 0.7326321005821228
vt 0.4303031265735626 0.7603453993797302
vt 0.4498180150985718 0.6848968267440796
vt 0.5003127455711365 0.769990086555481
vt 0.4994589686393738 0.6918556690216064
vt 0.5704443454742432 0.761199951171875
vt 0.5493438839912415 0.6862397789955139
vt 0.49848324060440063 0.615186333656311
vt 0.5292191505432129 0.6161630153656006
vt 0.5956917405128479 0.6671945452690125
vt 0.5562960505485535 0.6013907194137573
vt 0.467747300863266 0.6142096519470215
vt 0.6356972455978394 0.7342191934585571
vt 0.6359411478042603 0.6371616125106812
vt 0.6918025016784668 0.6914894580841064
vt 0.583372950553894 0.5866184234619141
vt 0.6665551662445068 0.5973619222640991
vt 0.5993507504463196 0.5600038766860962
vt 0.6864359378814697 0.551213800907135
vt 0.7716915607452393 0.5007926821708679
vt 0.8371883630752563 0.4109381139278412
vt 0.8027933835983276 0.32718780636787415
vt 0.747907817363739 0.2550355792045593
vt 0.6759466528892517 0.1992427259683609
vt 0.5921546816825867 0.16359390318393707
vt 0.5022642612457275 0.1511412262916565
vt 0.41225185990333557 0.16237305104732513
vt 0.32845985889434814 0.19667893648147583
vt 0.2563767433166504 0.2513730227947235
vt 0.20075935125350952 0.32279273867607117
vt 0.16538862884044647 0.40605470538139343
vt 0.1530698537826538 0.49603134393692017
vt 0.16453485190868378 0.5863742828369141
vt 0.19917376339435577 0.6708570718765259
vt 0.2544252574443817 0.7438638806343079
vt 0.3266303241252899 0.7999009490013123
vt 0.41078823804855347 0.8353055715560913
vt 0.5010445713996887 0.8472698926925659
vt 0.591300904750824 0.8355497121810913
vt 0.675092875957489 0.800633430480957
vt 0.7470540404319763 0.7453289031982422
vt 0.8020616173744202 0.6734208464622498
vt 0.7348572015762329 0.6355745196342468
vt 0.8367004990577698 0.5899147391319275
vt 0.7621780633926392 0.5706253051757812
vt 0.8486533761024475 0.5004264116287231
vt 0.900367796421051 0.39384621381759644
vt 0.8596304655075073 0.2943469285964966
vt 0.7944995760917664 0.20852118730545044
vt 0.7089999914169312 0.14222902059555054
vt 0.609352171421051 0.10023178160190582
vt 0.5025081634521484 0.08570367097854614
vt 0.3955422341823578 0.09913302212953568
vt 0.2958943843841553 0.13978733122348785
vt 0.21015088260173798 0.20461446046829224
vt 0.14416620135307312 0.2894635498523712
vt 0.10208723694086075 0.3885965645313263
vt 0.08732910454273224 0.4955430030822754
vt 0.100501649081707 0.6029778122901917
vt 0.1414829045534134 0.703697919845581
vt 0.20722365379333496 0.7906224727630615
vt 0.2934550344944 0.8572808504104614
vt 0.3938346803188324 0.8992781043052673
vt 0.5015324354171753 0.913317859172821
vt 0.6088642477989197 0.8990339636802673
vt 0.7085121273994446 0.8572808504104614
vt 0.7938897609710693 0.7913549542427063
vt 0.8591426014900208 0.7057734131813049
vt 0.9001238346099854 0.6065182685852051
vt 0.9140282273292542 0.5001822710037231
vt 0.9463497400283813 0.38163772225379944
vt 0.9001238346099854 0.27102869749069214
vt 0.828528642654419 0.17458154261112213
vt 0.732661783695221 0.10169680416584015
vt 0.6219148635864258 0.05396157130599022
vt 0.5026301741600037 0.038945116102695465
vt 0.3834674060344696 0.05298488959670067
vt 0.27272045612335205 0.09913302212953568
vt 0.17648771405220032 0.17055274546146393
vt 0.10379479080438614 0.265779048204422
vt 0.05610530078411102 0.37589970231056213
vt 0.040371429175138474 0.495176762342453
vt 0.05390987545251846 0.6150642037391663
vt 0.10037968307733536 0.7271382808685303
vt 0.17282867431640625 0.824806272983551
vt 0.2696712613105774 0.8983014225959778
vt 0.3815159201622009 0.9459145665168762
vt 0.501776397228241 0.9604427218437195
vt 0.6216709017753601 0.9454262256622314
vt 0.7322958707809448 0.897813081741333
vt 0.8280407786369324 0.825050413608551
vt 0.899757981300354 0.7289695143699646
vt 0.9462277889251709 0.6187267899513245
vt 0.9606199860572815 0.5001822710037231
vt 0.999039888381958 0.3679641783237457
vt 0.9336650371551514 0.2518613636493683
vt 0.8681682348251343 0.13575851917266846
vt 0.7521767020225525 0.06824551522731781
vt 0.6361851096153259 0.0006104250205680728
vt 0.5028740763664246 0.00024416999076493084
vt 0.3695630729198456 0
vt 0.25369346141815186 0.06568173319101334
vt 0.13782386481761932 0.13136346638202667
vt 0.070497527718544 0.24624544382095337
vt 0.0031711882911622524 0.36112743616104126
vt 0.0015856041572988033 0.4948104918003082
vt 2.0175200177163788e-8 0.62861567735672
vt 0.06647258251905441 0.7464277148246765
vt 0.1328231692314148 0.8642396926879883
vt 0.2500344216823578 0.9321189522743225
vt 0.3672456741333008 0.9999982118606567
vt 0.5018983483314514 0.999387800693512
vt 0.6364290714263916 0.9988994598388672
vt 0.7519327402114868 0.9312644004821777
vt 0.8673144578933716 0.8636292815208435
vt 0.9331771731376648 0.7481368780136108
vt 0.999039888381958 0.6325224041938782
vt 0.999039888381958 0.5001822710037231
s on
f 1/1/1 2/2/2 3/3/3
f 2/2/2 4/4/4 3/3/3
f 4/4/4 5/5/5 3/3/3
f 3/3/3 5/5/5 6/6/6
f 5/5/5 7/7/7 6/6/6
f 7/7/7 8/8/8 6/6/6
f 6/6/6 8/8/8 9/9/9
f 9/9/9 8/8/8 10/10/10
f 8/8/8 11/11/11 10/10/10
f 10/10/10 11/11/11 12/12/12
f 9/9/9 13/13/13 6/6/6
f 6/6/6 13/13/13 3/3/3
f 13/13/13 1/1/1 3/3/3
f 2/2/2 1/1/1 14/14/14
f 11/11/11 8/8/8 15/15/15
f 15/15/15 8/8/8 7/7/7
f 12/12/12 11/11/11 16/16/16
f 16/16/16 11/11/11 17/17/17
f 11/11/11 15/15/15 17/17/17
f 12/12/12 16/16/16 18/18/18
f 16/16/16 19/19/19 18/18/18
f 18/18/18 19/19/19 20/20/20
f 19/19/19 21/21/21 20/20/20
f 20/20/20 21/21/21 22/22/22
f 21/21/21 23/23/23 22/22/22
f 22/22/22 23/23/23 24/24/24
f 19/19/19 16/16/16 25/25/25
f 25/25/25 16/16/16 17/17/17
f 25/25/25 26/26/26 19/19/19
f 19/19/19 26/26/26 21/21/21
f 26/26/26 27/27/27 21/21/21
f 21/21/21 27/27/27 23/23/23
f 27/27/27 28/28/28 23/23/23
f 23/23/23 28/28/28 29/29/29
f 28/28/28 30/30/30 29/29/29
f 29/29/29 30/30/30 31/31/31
f 30/30/30 32/32/32 31/31/31
f 32/32/32 33/33/33 31/31/31
f 31/31/31 33/33/33 34/34/34
f 34/34/34 33/33/33 35/35/35
f 33/33/33 36/36/36 35/35/35
f 35/35/35 36/36/36 37/37/37
f 23/23/23 29/29/29 24/24/24
f 24/24/24 29/29/29 38/38/38
f 29/29/29 31/31/31 38/38/38
f 38/38/38 31/31/31 34/34/34
f 36/36/36 33/33/33 39/39/39
f 39/39/39 33/33/33 32/32/32
f 37/37/37 36/36/36 40/40/40
f 40/40/40 36/36/36 41/41/41
f 36/36/36 39/39/39 41/41/41
f 37/37/37 40/40/40 42/42/42
f 40/40/40 43/43/43 42/42/42
f 42/42/42 43/43/43 44/44/44
f 43/43/43 45/45/45 44/44/44
f 44/44/44 45/45/45 46/46/46
f 45/45/45 47/47/47 46/46/46
f 46/46/46 47/47/47 48/48/48
f 43/43/43 40/40/40 49/49/49
f 49/49/49 40/40/40 41/41/41
f 49/49/49 50/50/50 43/43/43
f 43/43/43 50/50/50 45/45/45
f 50/50/50 51/51/51 45/45/45
f 45/45/45 51/51/51 47/47/47
f 51/51/51 52/52/52 47/47/47
f 47/47/47 52/52/52 53/53/53
f 52/52/52 54/54/54 53/53/53
f 53/53/53 54/54/54 55/55/55
f 54/54/54 56/56/56 55/55/55
f 56/56/56 57/57/57 55/55/55
f 55/55/55 57/57/57 58/58/58
f 58/58/58 57/57/57 59/59/59
f 57/57/57 60/60/60 59/59/59
f 59/59/59 60/60/60 61/61/61
f 47/47/47 53/53/53 48/48/48
f 48/48/48 53/53/53 62/62/62
f 53/53/53 55/55/55 62/62/62
f 62/62/62 55/55/55 58/58/58
f 60/60/60 57/57/57 63/63/63
f 63/63/63 57/57/57 56/56/56
f 61/61/61 60/60/60 64/64/64
f 64/64/64 60/60/60 65/65/65
f 60/60/60 63/63/63 65/65/65
f 61/61/61 64/64/64 66/66/66
f 64/64/64 67/67/67 66/66/66
f 66/66/66 67/67/67 68/68/68
f 67/67/67 69/69/69 68/68/68
f 68/68/68 69/69/69 14/14/14
f 14/14/14 69/69/69 2/2/2
f 69/69/69 70/70/70 2/2/2
f 2/2/2 70/70/70 4/4/4
f 70/70/70 71/71/71 4/4/4
f 71/71/71 72/72/72 4/4/4
f 4/4/4 72/72/72 5/5/5
f 72/72/72 73/73/73 5/5/5
f 5/5/5 73/73/73 7/7/7
f 73/73/73 74/74/74 7/7/7
f 7/7/7 74/74/74 15/15/15
f 74/74/74 75/75/75 15/15/15
f 15/15/15 75/75/75 17/17/17
f 75/75/75 76/76/76 17/17/17
f 17/17/17 76/76/76 25/25/25
f 76/76/76 77/77/77 25/25/25
f 25/25/25 77/77/77 26/26/26
f 77/77/77 78/78/78 26/26/26
f 26/26/26 78/78/78 27/27/27
f 78/78/78 79/79/79 27/27/27
f 27/27/27 79/79/79 28/28/28
f 79/79/79 80/80/80 28/28/28
f 28/28/28 80/80/80 30/30/30
f 80/80/80 81/81/81 30/30/30
f 30/30/30 81/81/81 32/32/32
f 81/81/81 82/82/82 32/32/32
f 32/32/32 82/82/82 39/39/39
f 82/82/82 83/83/83 39/39/39
f 39/39/39 83/83/83 41/41/41
f 83/83/83 84/84/84 41/41/41
f 41/41/41 84/84/84 49/49/49
f 84/84/84 85/85/85 49/49/49
f 49/49/49 85/85/85 50/50/50
f 85/85/85 86/86/86 50/50/50
f 50/50/50 86/86/86 51/51/51
f 86/86/86 87/87/87 51/51/51
f 51/51/51 87/87/87 52/52/52
f 87/87/87 88/88/88 52/52/52
f 52/52/52 88/88/88 54/54/54
f 88/88/88 89/89/89 54/54/54
f 54/54/54 89/89/89 56/56/56
f 89/89/89 90/90/90 56/56/56
f 56/56/56 90/90/90 63/63/63
f 90/90/90 91/91/91 63/63/63
f 63/63/63 91/91/91 65/65/65
f 91/91/91 92/92/92 65/65/65
f 65/65/65 92/92/92 93/93/93
f 92/92/92 94/94/94 93/93/93
f 93/93/93 94/94/94 95/95/95
f 94/94/94 96/96/96 95/95/95
f 95/95/95 96/96/96 70/70/70
f 70/70/70 96/96/96 71/71/71
f 96/96/96 97/97/97 71/71/71
f 97/97/97 98/98/98 71/71/71
f 71/71/71 98/98/98 72/72/72
f 98/98/98 99/99/99 72/72/72
f 72/72/72 99/99/99 73/73/73
f 99/99/99 100/100/100 73/73/73
f 73/73/73 100/100/100 74/74/74
f 100/100/100 101/101/101 74/74/74
f 74/74/74 101/101/101 75/75/75
f 101/101/101 102/102/102 75/75/75
f 75/75/75 102/102/102 76/76/76
f 102/102/102 103/103/103 76/76/76
f 76/76/76 103/103/103 77/77/77
f 103/103/103 104/104/104 77/77/77
f 77/77/77 104/104/104 78/78/78
f 104/104/104 105/105/105 78/78/78
f 78/78/78 105/105/105 79/79/79
f 105/105/105 106/106/106 79/79/79
f 79/79/79 106/106/106 80/80/80
f 106/106/106 107/107/107 80/80/80
f 80/80/80 107/107/107 81/81/81
f 107/107/107 108/108/108 81/81/81
f 81/81/81 108/108/108 82/82/82
f 108/108/108 109/109/109 82/82/82
f 82/82/82 109/109/109 83/83/83
f 109/109/109 110/110/110 83/83/83
f 83/83/83 110/110/110 84/84/84
f 110/110/110 111/111/111 84/84/84
f 84/84/84 111/111/111 85/85/85
f 111/111/111 112/112/112 85/85/85
f 85/85/85 112/112/112 86/86/86
f 112/112/112 113/113/113 86/86/86
f 86/86/86 113/113/113 87/87/87
f 113/113/113 114/114/114 87/87/87
f 87/87/87 114/114/114 88/88/88
f 114/114/114 115/115/115 88/88/88
f 88/88/88 115/115/115 89/89/89
f 115/115/115 116/116/116 89/89/89
f 89/89/89 116/116/116 90/90/90
f 116/116/116 117/117/117 90/90/90
f 90/90/90 117/117/117 91/91/91
f 117/117/117 118/118/118 91/91/91
f 91/91/91 118/118/118 92/92/92
f 118/118/118 119/119/119 92/92/92
f 92/92/92 119/119/119 94/94/94
f 119/119/119 120/120/120 94/94/94
f 94/94/94 120/120/120 96/96/96
f 96/96/96 120/120/120 97/97/97
f 120/120/120 121/121/121 97/97/97
f 121/121/121 122/122/122 97/97/97
f 97/97/97 122/122/122 98/98/98
f 122/122/122 123/123/123 98/98/98
f 98/98/98 123/123/123 99/99/99
f 123/123/123 124/124/124 99/99/99
f 99/99/99 124/124/124 100/100/100
f 124/124/124 125/125/125 100/100/100
f 100/100/100 125/125/125 101/101/101
f 125/125/125 126/126/126 101/101/101
f 101/101/101 126/126/126 102/102/102
f 126/126/126 127/127/127 102/102/102
f 102/102/102 127/127/127 103/103/103
f 127/127/127 128/128/128 103/103/103
f 103/103/103 128/128/128 104/104/104
f 128/128/128 129/129/129 104/104/104
f 104/104/104 129/129/129 105/105/105
f 129/129/129 130/130/130 105/105/105
f 105/105/105 130/130/130 106/106/106
f 130/130/130 131/131/131 106/106/106
f 106/106/106 131/131/131 107/107/107
f 131/131/131 132/132/132 107/107/107
f 107/107/107 132/132/132 108/108/108
f 132/132/132 133/133/133 108/108/108
f 108/108/108 133/133/133 109/109/109
f 133/133/133 134/134/134 109/109/109
f 109/109/109 134/134/134 110/110/110
f 134/134/134 135/135/135 110/110/110
f 110/110/110 135/135/135 111/111/111
f 135/135/135 136/136/136 111/111/111
f 111/111/111 136/136/136 112/112/112
f 136/136/136 137/137/137 112/112/112
f 112/112/112 137/137/137 113/113/113
f 137/137/137 138/138/138 113/113/113
f 113/113/113 138/138/138 114/114/114
f 138/138/138 139/139/139 114/114/114
f 114/114/114 139/139/139 115/115/115
f 139/139/139 140/140/140 115/115/115
f 115/115/115 140/140/140 116/116/116
f 140/140/140 141/141/141 116/116/116
f 116/116/116 141/141/141 117/117/117
f 141/141/141 142/142/142 117/117/117
f 117/117/117 142/142/142 118/118/118
f 142/142/142 143/143/143 118/118/118
f 118/118/118 143/143/143 119/119/119
f 143/143/143 144/144/144 119/119/119
f 119/119/119 144/144/144 120/120/120
f 120/120/120 144/144/144 121/121/121
f 144/144/144 145/145/145 121/121/121
f 145/145/145 146/146/146 121/121/121
f 121/121/121 146/146/146 122/122/122
f 146/146/146 147/147/147 122/122/122
f 122/122/122 147/147/147 123/123/123
f 147/147/147 148/148/148 123/123/123
f 123/123/123 148/148/148 124/124/124
f 148/148/148 149/149/149 124/124/124
f 124/124/124 149/149/149 125/125/125
f 149/149/149 150/150/150 125/125/125
f 125/125/125 150/150/150 126/126/126
f 150/150/150 151/151/151 126/126/126
f 126/126/126 151/151/151 127/127/127
f 151/151/151 152/152/152 127/127/127
f 127/127/127 152/152/152 128/128/128
f 152/152/152 153/153/153 128/128/128
f 128/128/128 153/153/153 129/129/129
f 153/153/153 154/154/154 129/129/129
f 129/129/129 154/154/154 130/130/130
f 154/154/154 155/155/155 130/130/130
f 130/130/130 155/155/155 131/131/131
f 155/155/155 156/156/156 131/131/131
f 131/131/131 156/156/156 132/132/132
f 156/156/156 157/157/157 132/132/132
f 132/132/132 157/157/157 133/133/133
f 157/157/157 158/158/158 133/133/133
f 133/133/133 158/158/158 134/134/134
f 158/158/158 159/159/159 134/134/134
f 134/134/134 159/159/159 135/135/135
f 159/159/159 160/160/160 135/135/135
f 135/135/135 160/160/160 136/136/136
f 160/160/160 161/161/161 136/136/136
f 136/136/136 161/161/161 137/137/137
f 161/161/161 162/162/162 137/137/137
f 137/137/137 162/162/162 138/138/138
f 162/162/162 163/163/163 138/138/138
f 138/138/138 163/163/163 139/139/139
f 163/163/163 164/164/164 139/139/139
f 139/139/139 164/164/164 140/140/140
f 164/164/164 165/165/165 140/140/140
f 140/140/140 165/165/165 141/141/141
f 165/165/165 166/166/166 141/141/141
f 141/141/141 166/166/166 142/142/142
f 166/166/166 167/167/167 142/142/142
f 142/142/142 167/167/167 143/143/143
f 167/167/167 168/168/168 143/143/143
f 143/143/143 168/168/168 144/144/144
f 168/168/168 145/145/145 144/144/144
f 65/65/65 93/93/93 64/64/64
f 64/64/64 93/93/93 67/67/67
f 93/93/93 95/95/95 67/67/67
f 67/67/67 95/95/95 69/69/69
f 95/95/95 70/70/70 69/69/69

