# Exported by Sketchfab Model Ripper robust edition
o model_41
v -0.26047855615615845 -43.04875946044922 158.05857849121094
v -2.798847198486328 -43.03215026855469 157.9385986328125
v 1.2646775245666504 -27.165884017944336 74.63904571533203
v 0.8532092571258545 -27.02120018005371 74.39230346679688
v -2.798847198486328 -43.03215026855469 157.9385986328125
v -5.284083366394043 -42.50186538696289 157.91905212402344
v 0.8532092571258545 -27.02120018005371 74.39230346679688
v -1.2312402725219727 -26.58649253845215 74.3740005493164
v -5.284083366394043 -42.50186538696289 157.91905212402344
v -7.628599166870117 -41.493412017822266 157.9974365234375
v -1.2312402725219727 -26.58649253845215 74.3740005493164
v -3.575756072998047 -25.57803726196289 74.45237731933594
v -7.628599166870117 -41.493412017822266 157.9974365234375
v -9.728437423706055 -40.031089782714844 158.1741485595703
v -3.575756072998047 -25.57803726196289 74.45237731933594
v -5.675594806671143 -24.1157169342041 74.62908172607422
v -9.728437423706055 -40.031089782714844 158.1741485595703
v -11.507516860961914 -38.18811798095703 158.43893432617188
v -5.675594806671143 -24.1157169342041 74.62908172607422
v -7.4546732902526855 -22.27274513244629 74.89386749267578
v -11.507516860961914 -38.18811798095703 158.43893432617188
v -12.903465270996094 -36.02323532104492 158.7836151123047
v -7.4546732902526855 -22.27274513244629 74.89386749267578
v -8.850622177124023 -20.107860565185547 75.23856353759766
v -12.903465270996094 -36.02323532104492 158.7836151123047
v -13.864091873168945 -33.62003707885742 159.19483947753906
v -8.850622177124023 -20.107860565185547 75.23856353759766
v -9.811248779296875 -17.704662322998047 75.64977264404297
v -13.864091873168945 -33.62003707885742 159.19483947753906
v -14.338530540466309 -31.074968338012695 159.6566619873047
v -9.811248779296875 -17.704662322998047 75.64977264404297
v -10.285687446594238 -15.159594535827637 76.1115951538086
v -14.338530540466309 -31.074968338012695 159.6566619873047
v -14.321039199829102 -28.479562759399414 160.1519317626953
v -10.285687446594238 -15.159594535827637 76.1115951538086
v -10.268196105957031 -12.564188957214355 76.60687255859375
v -14.321039199829102 -28.479562759399414 160.1519317626953
v -13.808531761169434 -25.951034545898438 160.65847778320312
v -10.268196105957031 -12.564188957214355 76.60687255859375
v -9.755688667297363 -10.035659790039062 77.11341857910156
v -13.808531761169434 -25.951034545898438 160.65847778320312
v -12.824019432067871 -23.564794540405273 161.1608123779297
v -9.755688667297363 -10.035659790039062 77.11341857910156
v -8.7711763381958 -7.649420738220215 77.61576080322266
v -12.824019432067871 -23.564794540405273 161.1608123779297
v -11.393169403076172 -21.421945571899414 161.63844299316406
v -8.7711763381958 -7.649420738220215 77.61576080322266
v -7.340326309204102 -5.506571292877197 78.0933837890625
v -11.393169403076172 -21.421945571899414 161.63844299316406
v -9.585442543029785 -19.60582733154297 162.07211303710938
v -7.340326309204102 -5.506571292877197 78.0933837890625
v -5.532599449157715 -3.6904537677764893 78.52705383300781
v -9.585442543029785 -19.60582733154297 162.07211303710938
v -7.4676432609558105 -18.174102783203125 162.4475860595703
v -5.532599449157715 -3.6904537677764893 78.52705383300781
v -3.4148001670837402 -2.2587294578552246 78.90253448486328
v -7.4676432609558105 -18.174102783203125 162.4475860595703
v -5.116752624511719 -17.20929718017578 162.7454376220703
v -3.4148001670837402 -2.2587294578552246 78.90253448486328
v -1.0639095306396484 -1.293922781944275 79.20037078857422
v -5.116752624511719 -17.20929718017578 162.7454376220703
v -2.618152379989624 -16.728086471557617 162.95831298828125
v -1.0639095306396484 -1.293922781944275 79.20037078857422
v 0.6556838750839233 -0.8218066692352295 79.45851135253906
v -2.618152379989624 -16.728086471557617 162.95831298828125
v -0.07978355884552002 -16.74469566345215 163.0782928466797
v 0.6556838750839233 -0.8218066692352295 79.45851135253906
v 1.3161978721618652 -0.8607429265975952 79.65270233154297
v 2.1237761974334717 -16.796253204345703 76.40180206298828
v -1.5946354866027832 -32.78699493408203 159.94873046875
v 1.6765942573547363 -16.86044692993164 76.62222290039062
v 0.145897775888443 -32.7347297668457 160.000732421875
v 1.7566064596176147 -16.743295669555664 76.39408111572266
v -2.296236753463745 -32.658668518066406 159.9391326904297
v 2.1237761974334717 -16.796253204345703 76.40180206298828
v -1.5946354866027832 -32.78699493408203 159.94873046875
v 1.2549692392349243 -16.519859313964844 76.41230773925781
v -2.7978739738464355 -32.43523406982422 159.95736694335938
v 1.7566064596176147 -16.743295669555664 76.39408111572266
v -2.296236753463745 -32.658668518066406 159.9391326904297
v 0.7865197062492371 -16.196144104003906 76.45125579833984
v -3.2663235664367676 -32.11151885986328 159.99630737304688
v 1.2549692392349243 -16.519859313964844 76.41230773925781
v -2.7978739738464355 -32.43523406982422 159.95736694335938
v 0.3950517475605011 -15.78990364074707 76.50965118408203
v -3.6577913761138916 -31.705278396606445 160.05471801757812
v 0.7865197062492371 -16.196144104003906 76.45125579833984
v -3.2663235664367676 -32.11151885986328 159.99630737304688
v 0.0942775085568428 -15.315616607666016 76.58541107177734
v -3.9585657119750977 -31.23099136352539 160.13047790527344
v 0.3950517475605011 -15.78990364074707 76.50965118408203
v -3.6577913761138916 -31.705278396606445 160.05471801757812
v -0.11713095754384995 -14.786126136779785 76.676025390625
v -4.169974327087402 -30.701499938964844 160.22108459472656
v 0.0942775085568428 -15.315616607666016 76.58541107177734
v -3.9585657119750977 -31.23099136352539 160.13047790527344
v -0.2267896682024002 -14.228753089904785 76.77688598632812
v -4.279633045196533 -30.144126892089844 160.3219451904297
v -0.11713095754384995 -14.786126136779785 76.676025390625
v -4.169974327087402 -30.701499938964844 160.22108459472656
v -0.22098635137081146 -13.657977104187012 76.88590240478516
v -4.273829460144043 -29.57335090637207 160.4309539794922
v -0.2267896682024002 -14.228753089904785 76.77688598632812
v -4.279633045196533 -30.144126892089844 160.3219451904297
v -0.10989782214164734 -13.098662376403809 76.99784088134766
v -4.162741184234619 -29.014036178588867 160.5428924560547
v -0.22098635137081146 -13.657977104187012 76.88590240478516
v -4.273829460144043 -29.57335090637207 160.4309539794922
v 0.11133947223424911 -12.577312469482422 77.1078872680664
v -3.9415037631988525 -28.492687225341797 160.6529541015625
v -0.10989782214164734 -13.098662376403809 76.99784088134766
v -4.162741184234619 -29.014036178588867 160.5428924560547
v 0.42635661363601685 -12.105131149291992 77.21311950683594
v -3.6264865398406982 -28.020505905151367 160.7581787109375
v 0.11133947223424911 -12.577312469482422 77.1078872680664
v -3.9415037631988525 -28.492687225341797 160.6529541015625
v 0.8174563646316528 -11.706165313720703 77.30809783935547
v -3.235386848449707 -27.621540069580078 160.85316467285156
v 0.42635661363601685 -12.105131149291992 77.21311950683594
v -3.6264865398406982 -28.020505905151367 160.7581787109375
v 1.283310055732727 -11.393257141113281 77.39030456542969
v -2.769533157348633 -27.308631896972656 160.93536376953125
v 0.8174563646316528 -11.706165313720703 77.30809783935547
v -3.235386848449707 -27.621540069580078 160.85316467285156
v 1.9740979671478271 -11.122818946838379 77.43294525146484
v -2.0767650604248047 -27.030418395996094 160.93719482421875
v 1.283310055732727 -11.393257141113281 77.39030456542969
v -2.769533157348633 -27.308631896972656 160.93536376953125
v 1.8038114309310913 -11.055329322814941 77.52232360839844
v -1.552096962928772 -26.957670211791992 160.97650146484375
v 1.9740979671478271 -11.122818946838379 77.43294525146484
v -2.0767650604248047 -27.030418395996094 160.93719482421875
v 1.2208133935928345 -11.182657241821289 77.72412872314453
v -0.17185990512371063 -27.045991897583008 161.11141967773438
v 1.8038114309310913 -11.055329322814941 77.52232360839844
v -1.552096962928772 -26.957670211791992 160.97650146484375
v -0.07978355884552002 -16.74469566345215 163.0782928466797
v -0.17185990512371063 -27.045991897583008 161.11141967773438
v 1.3161978721618652 -0.8607429265975952 79.65270233154297
v 1.2208133935928345 -11.182657241821289 77.72412872314453
v 1.2646775245666504 -27.165884017944336 74.63904571533203
v 1.6765942573547363 -16.86044692993164 76.62222290039062
v -0.26047855615615845 -43.04875946044922 158.05857849121094
v 0.145897775888443 -32.7347297668457 160.000732421875
v 0.8532092571258545 -27.02120018005371 74.39230346679688
v 2.1237761974334717 -16.796253204345703 76.40180206298828
v 1.2646775245666504 -27.165884017944336 74.63904571533203
v 1.6765942573547363 -16.86044692993164 76.62222290039062
v -0.26047855615615845 -43.04875946044922 158.05857849121094
v 0.145897775888443 -32.7347297668457 160.000732421875
v -2.798847198486328 -43.03215026855469 157.9385986328125
v -1.5946354866027832 -32.78699493408203 159.94873046875
v -1.2312402725219727 -26.58649253845215 74.3740005493164
v 1.7566064596176147 -16.743295669555664 76.39408111572266
v 0.8532092571258545 -27.02120018005371 74.39230346679688
v 2.1237761974334717 -16.796253204345703 76.40180206298828
v -2.798847198486328 -43.03215026855469 157.9385986328125
v -1.5946354866027832 -32.78699493408203 159.94873046875
v -5.284083366394043 -42.50186538696289 157.91905212402344
v -2.296236753463745 -32.658668518066406 159.9391326904297
v -3.575756072998047 -25.57803726196289 74.45237731933594
v 1.2549692392349243 -16.519859313964844 76.41230773925781
v -1.2312402725219727 -26.58649253845215 74.3740005493164
v 1.7566064596176147 -16.743295669555664 76.39408111572266
v -5.284083366394043 -42.50186538696289 157.91905212402344
v -2.296236753463745 -32.658668518066406 159.9391326904297
v -7.628599166870117 -41.493412017822266 157.9974365234375
v -2.7978739738464355 -32.43523406982422 159.95736694335938
v 1.2549692392349243 -16.519859313964844 76.41230773925781
v -3.575756072998047 -25.57803726196289 74.45237731933594
v 0.7865197062492371 -16.196144104003906 76.45125579833984
v -5.675594806671143 -24.1157169342041 74.62908172607422
v 0.3950517475605011 -15.78990364074707 76.50965118408203
v -7.4546732902526855 -22.27274513244629 74.89386749267578
v 0.0942775085568428 -15.315616607666016 76.58541107177734
v -8.850622177124023 -20.107860565185547 75.23856353759766
v -0.11713095754384995 -14.786126136779785 76.676025390625
v -9.811248779296875 -17.704662322998047 75.64977264404297
v -0.2267896682024002 -14.228753089904785 76.77688598632812
v -10.285687446594238 -15.159594535827637 76.1115951538086
v -0.22098635137081146 -13.657977104187012 76.88590240478516
v -10.268196105957031 -12.564188957214355 76.60687255859375
v -0.10989782214164734 -13.098662376403809 76.99784088134766
v -9.755688667297363 -10.035659790039062 77.11341857910156
v 0.11133947223424911 -12.577312469482422 77.1078872680664
v -8.7711763381958 -7.649420738220215 77.61576080322266
v 0.42635661363601685 -12.105131149291992 77.21311950683594
v -7.340326309204102 -5.506571292877197 78.0933837890625
v -7.628599166870117 -41.493412017822266 157.9974365234375
v -2.7978739738464355 -32.43523406982422 159.95736694335938
v -9.728437423706055 -40.031089782714844 158.1741485595703
v -3.2663235664367676 -32.11151885986328 159.99630737304688
v -11.507516860961914 -38.18811798095703 158.43893432617188
v -3.6577913761138916 -31.705278396606445 160.05471801757812
v -11.507516860961914 -38.18811798095703 158.43893432617188
v -3.6577913761138916 -31.705278396606445 160.05471801757812
v -12.903465270996094 -36.02323532104492 158.7836151123047
v -3.9585657119750977 -31.23099136352539 160.13047790527344
v -12.903465270996094 -36.02323532104492 158.7836151123047
v -3.9585657119750977 -31.23099136352539 160.13047790527344
v -13.864091873168945 -33.62003707885742 159.19483947753906
v -4.169974327087402 -30.701499938964844 160.22108459472656
v -14.338530540466309 -31.074968338012695 159.6566619873047
v -4.279633045196533 -30.144126892089844 160.3219451904297
v -14.321039199829102 -28.479562759399414 160.1519317626953
v -4.273829460144043 -29.57335090637207 160.4309539794922
v -13.808531761169434 -25.951034545898438 160.65847778320312
v -4.162741184234619 -29.014036178588867 160.5428924560547
v -12.824019432067871 -23.564794540405273 161.1608123779297
v -3.9415037631988525 -28.492687225341797 160.6529541015625
v -11.393169403076172 -21.421945571899414 161.63844299316406
v -3.6264865398406982 -28.020505905151367 160.7581787109375
v -9.585442543029785 -19.60582733154297 162.07211303710938
v -3.235386848449707 -27.621540069580078 160.85316467285156
v -7.4676432609558105 -18.174102783203125 162.4475860595703
v -2.769533157348633 -27.308631896972656 160.93536376953125
v -5.532599449157715 -3.6904537677764893 78.52705383300781
v 0.8174563646316528 -11.706165313720703 77.30809783935547
v -7.340326309204102 -5.506571292877197 78.0933837890625
v 0.42635661363601685 -12.105131149291992 77.21311950683594
v -3.4148001670837402 -2.2587294578552246 78.90253448486328
v 1.283310055732727 -11.393257141113281 77.39030456542969
v -5.532599449157715 -3.6904537677764893 78.52705383300781
v 0.8174563646316528 -11.706165313720703 77.30809783935547
v -1.0639095306396484 -1.293922781944275 79.20037078857422
v 1.9740979671478271 -11.122818946838379 77.43294525146484
v -3.4148001670837402 -2.2587294578552246 78.90253448486328
v 1.283310055732727 -11.393257141113281 77.39030456542969
v -7.4676432609558105 -18.174102783203125 162.4475860595703
v -2.769533157348633 -27.308631896972656 160.93536376953125
v -5.116752624511719 -17.20929718017578 162.7454376220703
v -2.0767650604248047 -27.030418395996094 160.93719482421875
v 0.6556838750839233 -0.8218066692352295 79.45851135253906
v 1.8038114309310913 -11.055329322814941 77.52232360839844
v -1.0639095306396484 -1.293922781944275 79.20037078857422
v 1.9740979671478271 -11.122818946838379 77.43294525146484
v -5.116752624511719 -17.20929718017578 162.7454376220703
v -2.0767650604248047 -27.030418395996094 160.93719482421875
v -2.618152379989624 -16.728086471557617 162.95831298828125
v -1.552096962928772 -26.957670211791992 160.97650146484375
v 1.3161978721618652 -0.8607429265975952 79.65270233154297
v 1.2208133935928345 -11.182657241821289 77.72412872314453
v 0.6556838750839233 -0.8218066692352295 79.45851135253906
v 1.8038114309310913 -11.055329322814941 77.52232360839844
v -2.618152379989624 -16.728086471557617 162.95831298828125
v -1.552096962928772 -26.957670211791992 160.97650146484375
v -0.07978355884552002 -16.74469566345215 163.0782928466797
v -0.17185990512371063 -27.045991897583008 161.11141967773438
vn -0.00228239712305367 -0.0729563906788826 -0.013956627808511257
vn -0.00228239712305367 -0.0729563906788826 -0.013956627808511257
vn -0.00228239712305367 -0.0729563906788826 -0.013956627808511257
vn -0.00228239712305367 -0.0729563906788826 -0.013956627808511257
vn -0.014979810453951359 -0.07137046754360199 -0.01437511295080185
vn -0.014979810453951359 -0.07137046754360199 -0.01437511295080185
vn -0.014979810453951359 -0.07137046754360199 -0.01437511295080185
vn -0.014979810453951359 -0.07137046754360199 -0.01437511295080185
vn -0.029437826946377754 -0.06701043248176575 -0.014141254127025604
vn -0.029437826946377754 -0.06701043248176575 -0.014141254127025604
vn -0.029437826946377754 -0.06701043248176575 -0.014141254127025604
vn -0.029437826946377754 -0.06701043248176575 -0.014141254127025604
vn -0.04275977239012718 -0.060056403279304504 -0.013462767004966736
vn -0.04275977239012718 -0.060056403279304504 -0.013462767004966736
vn -0.04275977239012718 -0.060056403279304504 -0.013462767004966736
vn -0.04275977239012718 -0.060056403279304504 -0.013462767004966736
vn -0.05443857982754707 -0.0507948063313961 -0.01226497720927
vn -0.05443857982754707 -0.0507948063313961 -0.01226497720927
vn -0.05443857982754707 -0.0507948063313961 -0.01226497720927
vn -0.05443857982754707 -0.0507948063313961 -0.01226497720927
vn -0.06402543187141418 -0.03958156704902649 -0.010593915358185768
vn -0.06402543187141418 -0.03958156704902649 -0.010593915358185768
vn -0.06402543187141418 -0.03958156704902649 -0.010593915358185768
vn -0.06402543187141418 -0.03958156704902649 -0.010593915358185768
vn -0.07115191966295242 -0.026847591623663902 -0.008513799868524075
vn -0.07115191966295242 -0.026847591623663902 -0.008513799868524075
vn -0.07115191966295242 -0.026847591623663902 -0.008513799868524075
vn -0.07115191966295242 -0.026847591623663902 -0.008513799868524075
vn -0.07554417103528976 -0.013082250021398067 -0.006104567553848028
vn -0.07554417103528976 -0.013082250021398067 -0.006104567553848028
vn -0.07554417103528976 -0.013082250021398067 -0.006104567553848028
vn -0.07554417103528976 -0.013082250021398067 -0.006104567553848028
vn -0.0770334005355835 0.0011854657204821706 -0.0034588042180985212
vn -0.0770334005355835 0.0011854657204821706 -0.0034588042180985212
vn -0.0770334005355835 0.0011854657204821706 -0.0034588042180985212
vn -0.0770334005355835 0.0011854657204821706 -0.0034588042180985212
vn -0.07556236535310745 0.015407255850732327 -0.0006781854899600148
vn -0.07556236535310745 0.015407255850732327 -0.0006781854899600148
vn -0.07556236535310745 0.015407255850732327 -0.0006781854899600148
vn -0.07556236535310745 0.015407255850732327 -0.0006781854899600148
vn -0.07118761539459229 0.029036585241556168 0.0021304315887391567
vn -0.07118761539459229 0.029036585241556168 0.0021304315887391567
vn -0.07118761539459229 0.029036585241556168 0.0021304315887391567
vn -0.07118761539459229 0.029036585241556168 0.0021304315887391567
vn -0.06407725065946579 0.0415496863424778 0.00485911313444376
vn -0.06407725065946579 0.0415496863424778 0.00485911313444376
vn -0.06407725065946579 0.0415496863424778 0.00485911313444376
vn -0.06407725065946579 0.0415496863424778 0.00485911313444376
vn -0.054504528641700745 0.052465688437223434 0.007402997929602861
vn -0.054504528641700745 0.052465688437223434 0.007402997929602861
vn -0.054504528641700745 0.052465688437223434 0.007402997929602861
vn -0.054504528641700745 0.052465688437223434 0.007402997929602861
vn -0.04283732548356056 0.06136509031057358 0.0096643241122365
vn -0.04283732548356056 0.06136509031057358 0.0096643241122365
vn -0.04283732548356056 0.06136509031057358 0.0096643241122365
vn -0.04283732548356056 0.06136509031057358 0.0096643241122365
vn -0.029524000361561775 0.06790590286254883 0.011556193232536316
vn -0.029524000361561775 0.06790590286254883 0.011556193232536316
vn -0.029524000361561775 0.06790590286254883 0.011556193232536316
vn -0.029524000361561775 0.06790590286254883 0.011556193232536316
vn -0.017917174845933914 0.07129204273223877 0.012764312326908112
vn -0.017917174845933914 0.07129204273223877 0.012764312326908112
vn -0.017917174845933914 0.07129204273223877 0.012764312326908112
vn -0.017917174845933914 0.07129204273223877 0.012764312326908112
vn -0.000044192005589138716 0.07302579283714294 0.013856983743607998
vn -0.000044192005589138716 0.07302579283714294 0.013856983743607998
vn -0.000044192005589138716 0.07302579283714294 0.013856983743607998
vn -0.000044192005589138716 0.07302579283714294 0.013856983743607998
vn -0.0017941100522875786 0.07301492989063263 0.013874666765332222
vn -0.0017941100522875786 0.07301492989063263 0.013874666765332222
vn -0.0017941100522875786 0.07301492989063263 0.013874666765332222
vn -0.0017941100522875786 0.07301492989063263 0.013874666765332222
vn 0.012116702273488045 0.0719015821814537 0.014337399043142796
vn 0.012116702273488045 0.0719015821814537 0.014337399043142796
vn 0.012116702273488045 0.0719015821814537 0.014337399043142796
vn 0.012116702273488045 0.0719015821814537 0.014337399043142796
vn 0.029432939365506172 0.06699123978614807 0.014242001809179783
vn 0.029432939365506172 0.06699123978614807 0.014242001809179783
vn 0.029432939365506172 0.06699123978614807 0.014242001809179783
vn 0.029432939365506172 0.06699123978614807 0.014242001809179783
vn 0.0427548848092556 0.06003721058368683 0.013563514687120914
vn 0.0427548848092556 0.06003721058368683 0.013563514687120914
vn 0.0427548848092556 0.06003721058368683 0.013563514687120914
vn 0.0427548848092556 0.06003721058368683 0.013563514687120914
vn 0.05443369224667549 0.05077561363577843 0.012365724891424179
vn 0.05443369224667549 0.05077561363577843 0.012365724891424179
vn 0.05443369224667549 0.05077561363577843 0.012365724891424179
vn 0.05443369224667549 0.05077561363577843 0.012365724891424179
vn 0.0640205442905426 0.039562374353408813 0.010694663971662521
vn 0.0640205442905426 0.039562374353408813 0.010694663971662521
vn 0.0640205442905426 0.039562374353408813 0.010694663971662521
vn 0.0640205442905426 0.039562374353408813 0.010694663971662521
vn 0.07114703208208084 0.026828398928046227 0.008614547550678253
vn 0.07114703208208084 0.026828398928046227 0.008614547550678253
vn 0.07114703208208084 0.026828398928046227 0.008614547550678253
vn 0.07114703208208084 0.026828398928046227 0.008614547550678253
vn 0.07553928345441818 0.013063057325780392 0.006205315701663494
vn 0.07553928345441818 0.013063057325780392 0.006205315701663494
vn 0.07553928345441818 0.013063057325780392 0.006205315701663494
vn 0.07553928345441818 0.013063057325780392 0.006205315701663494
vn 0.07702851295471191 -0.0012046582996845245 0.003559552365913987
vn 0.07702851295471191 -0.0012046582996845245 0.003559552365913987
vn 0.07702851295471191 -0.0012046582996845245 0.003559552365913987
vn 0.07702851295471191 -0.0012046582996845245 0.003559552365913987
vn 0.07555747777223587 -0.015426448546350002 0.0007789336959831417
vn 0.07555747777223587 -0.015426448546350002 0.0007789336959831417
vn 0.07555747777223587 -0.015426448546350002 0.0007789336959831417
vn 0.07555747777223587 -0.015426448546350002 0.0007789336959831417
vn 0.0711827278137207 -0.029055777937173843 -0.002029683440923691
vn 0.0711827278137207 -0.029055777937173843 -0.002029683440923691
vn 0.0711827278137207 -0.029055777937173843 -0.002029683440923691
vn 0.0711827278137207 -0.029055777937173843 -0.002029683440923691
vn 0.06407236307859421 -0.041568879038095474 -0.004758364986628294
vn 0.06407236307859421 -0.041568879038095474 -0.004758364986628294
vn 0.06407236307859421 -0.041568879038095474 -0.004758364986628294
vn 0.06407236307859421 -0.041568879038095474 -0.004758364986628294
vn 0.05449964106082916 -0.05248488113284111 -0.0073022497817873955
vn 0.05449964106082916 -0.05248488113284111 -0.0073022497817873955
vn 0.05449964106082916 -0.05248488113284111 -0.0073022497817873955
vn 0.05449964106082916 -0.05248488113284111 -0.0073022497817873955
vn 0.04283244162797928 -0.061384283006191254 -0.009563576430082321
vn 0.04283244162797928 -0.061384283006191254 -0.009563576430082321
vn 0.04283244162797928 -0.061384283006191254 -0.009563576430082321
vn 0.04283244162797928 -0.061384283006191254 -0.009563576430082321
vn 0.02789973095059395 -0.06851565092802048 -0.011646503582596779
vn 0.02789973095059395 -0.06851565092802048 -0.011646503582596779
vn 0.02789973095059395 -0.06851565092802048 -0.011646503582596779
vn 0.02789973095059395 -0.06851565092802048 -0.011646503582596779
vn 0.03006478026509285 -0.06768080592155457 -0.011591719463467598
vn 0.03006478026509285 -0.06768080592155457 -0.011591719463467598
vn 0.03006478026509285 -0.06768080592155457 -0.011591719463467598
vn 0.03006478026509285 -0.06768080592155457 -0.011591719463467598
vn -0.013278149999678135 -0.07175487279891968 -0.014051873236894608
vn -0.013278149999678135 -0.07175487279891968 -0.014051873236894608
vn -0.013278149999678135 -0.07175487279891968 -0.014051873236894608
vn -0.013278149999678135 -0.07175487279891968 -0.014051873236894608
vn 0.07674003392457962 -0.0007040881901048124 0.0011338386684656143
vn 0.07674003392457962 -0.0007040881901048124 0.0011338386684656143
vn 0.07674003392457962 -0.0007040881901048124 0.0011338386684656143
vn 0.07674003392457962 -0.0007040881901048124 0.0011338386684656143
vn 0.07673614472150803 -0.0029284434858709574 0.0008140226709656417
vn 0.07673614472150803 -0.0029284434858709574 0.0008140226709656417
vn 0.07673614472150803 -0.0029284434858709574 0.0008140226709656417
vn 0.07673614472150803 -0.0029284434858709574 0.0008140226709656417
vn 0.07681736350059509 -0.006690933369100094 0.0023995297960937023
vn 0.07681736350059509 -0.006690933369100094 0.0023995297960937023
vn 0.07681736350059509 -0.006690933369100094 0.0023995297960937023
vn 0.07681736350059509 -0.006690933369100094 0.0023995297960937023
vn -0.0011185489129275084 -0.004392518196254969 0.023057730868458748
vn -0.0011185489129275084 -0.004392518196254969 0.023057730868458748
vn -0.0011185489129275084 -0.004392518196254969 0.023057730868458748
vn -0.0011185489129275084 -0.004392518196254969 0.023057730868458748
vn 0.0011185489129275084 0.004392518196254969 -0.023057730868458748
vn 0.0011185489129275084 0.004392518196254969 -0.023057730868458748
vn 0.0011185489129275084 0.004392518196254969 -0.023057730868458748
vn 0.0011185489129275084 0.004392518196254969 -0.023057730868458748
vn -0.0011185489129275084 -0.004392518196254969 0.023057730868458748
vn -0.0011185489129275084 -0.004392518196254969 0.023057730868458748
vn -0.0011185489129275084 -0.004392518196254969 0.023057730868458748
vn -0.0011185489129275084 -0.004392518196254969 0.023057730868458748
vn 0.0011185489129275084 0.004392518196254969 -0.023057730868458748
vn 0.0011185489129275084 0.004392518196254969 -0.023057730868458748
vn 0.0011185489129275084 0.004392518196254969 -0.023057730868458748
vn 0.0011185489129275084 0.004392518196254969 -0.023057730868458748
vn -0.0011185489129275084 -0.004392518196254969 0.023057730868458748
vn -0.0011185489129275084 -0.004392518196254969 0.023057730868458748
vn -0.0011185489129275084 -0.004392518196254969 0.023057730868458748
vn -0.0011185489129275084 -0.004392518196254969 0.023057730868458748
vn 0.0011185489129275084 0.004392518196254969 -0.023057730868458748
vn 0.0011185489129275084 0.004392518196254969 -0.023057730868458748
vn 0.0011185489129275084 0.004392518196254969 -0.023057730868458748
vn 0.0011185489129275084 0.004392518196254969 -0.023057730868458748
vn 0.0011185489129275084 0.004392518196254969 -0.023057730868458748
vn 0.0011185489129275084 0.004392518196254969 -0.023057730868458748
vn 0.0011185489129275084 0.004392518196254969 -0.023057730868458748
vn 0.0011185489129275084 0.004392518196254969 -0.023057730868458748
vn 0.0011185489129275084 0.004392518196254969 -0.023057730868458748
vn 0.0011185489129275084 0.004392518196254969 -0.023057730868458748
vn 0.0011185489129275084 0.004392518196254969 -0.023057730868458748
vn 0.0011185489129275084 0.004392518196254969 -0.023057730868458748
vn 0.0011185489129275084 0.004392518196254969 -0.023057730868458748
vn 0.0011185489129275084 0.004392518196254969 -0.023057730868458748
vn 0.0011185489129275084 0.004392518196254969 -0.023057730868458748
vn 0.0011185489129275084 0.004392518196254969 -0.023057730868458748
vn 0.0011185489129275084 0.004392518196254969 -0.023057730868458748
vn 0.0011185489129275084 0.004392518196254969 -0.023057730868458748
vn 0.0011185489129275084 0.004392518196254969 -0.023057730868458748
vn 0.0011185489129275084 0.004392518196254969 -0.023057730868458748
vn -0.0011185489129275084 -0.004392518196254969 0.023057730868458748
vn -0.0011185489129275084 -0.004392518196254969 0.023057730868458748
vn -0.0011185489129275084 -0.004392518196254969 0.023057730868458748
vn -0.0011185489129275084 -0.004392518196254969 0.023057730868458748
vn -0.0011185489129275084 -0.004392518196254969 0.023057730868458748
vn -0.0011185489129275084 -0.004392518196254969 0.023057730868458748
vn -0.0011185489129275084 -0.004392518196254969 0.023057730868458748
vn -0.0011185489129275084 -0.004392518196254969 0.023057730868458748
vn -0.0011185489129275084 -0.004392518196254969 0.023057730868458748
vn -0.0011185489129275084 -0.004392518196254969 0.023057730868458748
vn -0.0011185489129275084 -0.004392518196254969 0.023057730868458748
vn -0.0011185489129275084 -0.004392518196254969 0.023057730868458748
vn -0.0011185489129275084 -0.004392518196254969 0.023057730868458748
vn -0.0011185489129275084 -0.004392518196254969 0.023057730868458748
vn -0.0011185489129275084 -0.004392518196254969 0.023057730868458748
vn -0.0011185489129275084 -0.004392518196254969 0.023057730868458748
vn -0.0011185489129275084 -0.004392518196254969 0.023057730868458748
vn -0.0011185489129275084 -0.004392518196254969 0.023057730868458748
vn -0.0011185489129275084 -0.004392518196254969 0.023057730868458748
vn -0.0011185489129275084 -0.004392518196254969 0.023057730868458748
vn -0.0011185489129275084 -0.004392518196254969 0.023057730868458748
vn -0.0011185489129275084 -0.004392518196254969 0.023057730868458748
vn -0.0011185489129275084 -0.004392518196254969 0.023057730868458748
vn -0.0011185489129275084 -0.004392518196254969 0.023057730868458748
vn -0.0011185489129275084 -0.004392518196254969 0.023057730868458748
vn -0.0011185489129275084 -0.004392518196254969 0.023057730868458748
vn -0.0011185489129275084 -0.004392518196254969 0.023057730868458748
vn -0.0011185489129275084 -0.004392518196254969 0.023057730868458748
vn 0.0011185489129275084 0.004392518196254969 -0.023057730868458748
vn 0.0011185489129275084 0.004392518196254969 -0.023057730868458748
vn 0.0011185489129275084 0.004392518196254969 -0.023057730868458748
vn 0.0011185489129275084 0.004392518196254969 -0.023057730868458748
vn 0.0011185489129275084 0.004392518196254969 -0.023057730868458748
vn 0.0011185489129275084 0.004392518196254969 -0.023057730868458748
vn 0.0011185489129275084 0.004392518196254969 -0.023057730868458748
vn 0.0011185489129275084 0.004392518196254969 -0.023057730868458748
vn 0.0009226546389982104 0.0041361902840435505 -0.023115836083889008
vn 0.0009226546389982104 0.0041361902840435505 -0.023115836083889008
vn 0.0009226546389982104 0.0041361902840435505 -0.023115836083889008
vn 0.0009226546389982104 0.0041361902840435505 -0.023115836083889008
vn -0.0007835608557797968 -0.004428943619132042 0.023066813126206398
vn -0.0007835608557797968 -0.004428943619132042 0.023066813126206398
vn -0.0007835608557797968 -0.004428943619132042 0.023066813126206398
vn -0.0007835608557797968 -0.004428943619132042 0.023066813126206398
vn 0.0030965020414441824 0.004742488265037537 -0.02288687974214554
vn 0.0030965020414441824 0.004742488265037537 -0.02288687974214554
vn 0.0030965020414441824 0.004742488265037537 -0.02288687974214554
vn 0.0030965020414441824 0.004742488265037537 -0.02288687974214554
vn -0.0011185489129275084 -0.004392518196254969 0.023057730868458748
vn -0.0011185489129275084 -0.004392518196254969 0.023057730868458748
vn -0.0011185489129275084 -0.004392518196254969 0.023057730868458748
vn -0.0011185489129275084 -0.004392518196254969 0.023057730868458748
vn 0.06349875777959824 0.005068844649940729 -0.009749914519488811
vn 0.06349875777959824 0.005068844649940729 -0.009749914519488811
vn 0.06349875777959824 0.005068844649940729 -0.009749914519488811
vn 0.06349875777959824 0.005068844649940729 -0.009749914519488811
vn -0.0014088127063587308 -0.0045492942444980145 0.023013554513454437
vn -0.0014088127063587308 -0.0045492942444980145 0.023013554513454437
vn -0.0014088127063587308 -0.0045492942444980145 0.023013554513454437
vn -0.0014088127063587308 -0.0045492942444980145 0.023013554513454437
vt 0.7112952470779419 0.85477614402771
vt 0.669752836227417 0.85477614402771
vt 0.6703602075576782 0.4305894374847412
vt 0.6631935238838196 0.42933136224746704
vt 0.669752836227417 0.85477614402771
vt 0.6283318996429443 0.85477614402771
vt 0.6631935238838196 0.42933136224746704
vt 0.6284533739089966 0.42933136224746704
vt 0.6283318996429443 0.85477614402771
vt 0.5884900689125061 0.85477614402771
vt 0.6284533739089966 0.42933136224746704
vt 0.5886115431785583 0.42933136224746704
vt 0.5884900689125061 0.85477614402771
vt 0.551927924156189 0.85477614402771
vt 0.5886115431785583 0.42933136224746704
vt 0.5520493984222412 0.42933136224746704
vt 0.551927924156189 0.85477614402771
vt 0.5199815630912781 0.85477614402771
vt 0.5520493984222412 0.42933136224746704
vt 0.5201030373573303 0.42943620681762695
vt 0.2724277675151825 0.42796841263771057
vt 0.2376876175403595 0.42796841263771057
vt 0.2724277675151825 0.002523639937862754
vt 0.2376876175403595 0.002523639937862754
vt 0.2376876175403595 0.42796841263771057
vt 0.1991819441318512 0.42796841263771057
vt 0.2376876175403595 0.002523639937862754
vt 0.1991819441318512 0.002523639937862754
vt 0.1991819441318512 0.42796841263771057
vt 0.15836836397647858 0.42796841263771057
vt 0.1991819441318512 0.002523639937862754
vt 0.15836836397647858 0.002523639937862754
vt 0.15836836397647858 0.42796841263771057
vt 0.11658303439617157 0.42796841263771057
vt 0.15836836397647858 0.002523639937862754
vt 0.11658303439617157 0.002523639937862754
vt 0.11658303439617157 0.42796841263771057
vt 0.07576944679021835 0.42796841263771057
vt 0.11658303439617157 0.002523639937862754
vt 0.07576944679021835 0.002523639937862754
vt 0.07576944679021835 0.42796841263771057
vt 0.0371423065662384 0.42796841263771057
vt 0.07576944679021835 0.002523639937862754
vt 0.0371423065662384 0.002523639937862754
vt 0.0371423065662384 0.42796841263771057
vt 0.002523639937862754 0.42796841263771057
vt 0.0371423065662384 0.002523639937862754
vt 0.002523639937862754 0.002523639937862754
vt 0.46386289596557617 0.8571874499320984
vt 0.4339815378189087 0.8571874499320984
vt 0.46361997723579407 0.43174269795417786
vt 0.4337385892868042 0.43174269795417786
vt 0.4339815378189087 0.8571874499320984
vt 0.39887699484825134 0.8571874499320984
vt 0.4337385892868042 0.43174269795417786
vt 0.3987555205821991 0.43174269795417786
vt 0.39887699484825134 0.8571874499320984
vt 0.36012837290763855 0.8571874499320984
vt 0.3987555205821991 0.43174269795417786
vt 0.3600068986415863 0.43174269795417786
vt 0.36012837290763855 0.8571874499320984
vt 0.3191933333873749 0.8571874499320984
vt 0.3600068986415863 0.43174269795417786
vt 0.331583172082901 0.4321620464324951
vt 0.3191933333873749 0.8571874499320984
vt 0.2774079740047455 0.8571874499320984
vt 0.331583172082901 0.4321620464324951
vt 0.3207724094390869 0.433000773191452
vt 0.921436607837677 0.42943620681762695
vt 0.9158490300178528 0.85477614402771
vt 0.9286032915115356 0.4305894374847412
vt 0.8873038291931152 0.85477614402771
vt 0.9275100827217102 0.42943620681762695
vt 0.9275100827217102 0.85477614402771
vt 0.921436607837677 0.42943620681762695
vt 0.9158490300178528 0.85477614402771
vt 0.935648500919342 0.42933136224746704
vt 0.935648500919342 0.85477614402771
vt 0.9275100827217102 0.42943620681762695
vt 0.9275100827217102 0.85477614402771
vt 0.9431795477867126 0.42933136224746704
vt 0.9431795477867126 0.85477614402771
vt 0.935648500919342 0.42933136224746704
vt 0.935648500919342 0.85477614402771
vt 0.23987406492233276 0.8572922945022583
vt 0.23987406492233276 0.4335249960422516
vt 0.24631191790103912 0.8566632866859436
vt 0.24631191790103912 0.433000773191452
vt 0.23234298825263977 0.857711672782898
vt 0.23234298825263977 0.43404918909072876
vt 0.23987406492233276 0.8572922945022583
vt 0.23987406492233276 0.4335249960422516
vt 0.2238401621580124 0.8580262064933777
vt 0.2238401621580124 0.4343637228012085
vt 0.23234298825263977 0.857711672782898
vt 0.23234298825263977 0.43404918909072876
vt 0.21485145390033722 0.8582358956336975
vt 0.21485145390033722 0.4344685673713684
vt 0.2238401621580124 0.8580262064933777
vt 0.2238401621580124 0.4343637228012085
vt 0.2057412713766098 0.8582358956336975
vt 0.2057412713766098 0.4345734119415283
vt 0.21485145390033722 0.8582358956336975
vt 0.21485145390033722 0.4344685673713684
vt 0.19675257802009583 0.8580262064933777
vt 0.19675257802009583 0.4343637228012085
vt 0.2057412713766098 0.8582358956336975
vt 0.2057412713766098 0.4345734119415283
vt 0.18824973702430725 0.8578165173530579
vt 0.18824973702430725 0.43404918909072876
vt 0.19675257802009583 0.8580262064933777
vt 0.19675257802009583 0.4343637228012085
vt 0.1805972009897232 0.8572922945022583
vt 0.1805972009897232 0.4336298406124115
vt 0.18824973702430725 0.8578165173530579
vt 0.18824973702430725 0.43404918909072876
vt 0.1740378737449646 0.8567681312561035
vt 0.1740378737449646 0.433000773191452
vt 0.1805972009897232 0.8572922945022583
vt 0.1805972009897232 0.4336298406124115
vt 0.9903095364570618 0.8548809885978699
vt 0.9903095364570618 0.42943620681762695
vt 0.9974762201309204 0.8548809885978699
vt 0.9974762201309204 0.42943620681762695
vt 0.9794988036155701 0.8550906777381897
vt 0.9796202778816223 0.4297507107257843
vt 0.9903095364570618 0.8548809885978699
vt 0.9903095364570618 0.42943620681762695
vt 0.9824140667915344 0.85477614402771
vt 0.9711174368858337 0.4296458661556244
vt 0.9794988036155701 0.8550906777381897
vt 0.9796202778816223 0.4297507107257843
vt 0.9915242195129395 0.853518009185791
vt 0.9482812881469727 0.42933136224746704
vt 0.9824140667915344 0.85477614402771
vt 0.9711174368858337 0.4296458661556244
vt 0.8823236227035522 0.857606828212738
vt 0.7163969278335571 0.8575019836425781
vt 0.8822021484375 0.4312184751033783
vt 0.7163969278335571 0.4312184751033783
vt 0.002523639937862754 0.43478307127952576
vt 0.16832882165908813 0.4350976049900055
vt 0.0031309849582612514 0.8609617352485657
vt 0.16893616318702698 0.8612762689590454
vt 0.0041027371771633625 0.433000773191452
vt 0.16893616318702698 0.4345734119415283
vt 0.002523639937862754 0.43478307127952576
vt 0.16832882165908813 0.4350976049900055
vt 0.5057697296142578 0.002523639937862754
vt 0.5148798823356628 0.1681724190711975
vt 0.46410584449768066 0.0034672089386731386
vt 0.4863346815109253 0.16785790026187897
vt 0.6635579466819763 0.4165407419204712
vt 0.7170042991638184 0.2593840956687927
vt 0.6976907253265381 0.4242989718914032
vt 0.7229562997817993 0.26032766699790955
vt 0.46410584449768066 0.0034672089386731386
vt 0.4863346815109253 0.16785790026187897
vt 0.4234137237071991 0.012483535334467888
vt 0.4747951030731201 0.17016440629959106
vt 0.6256595849990845 0.39924198389053345
vt 0.7087444067001343 0.25571465492248535
vt 0.6635579466819763 0.4165407419204712
vt 0.7170042991638184 0.2593840956687927
vt 0.4234137237071991 0.012483535334467888
vt 0.4747951030731201 0.17016440629959106
vt 0.38527247309684753 0.02925809472799301
vt 0.46653521060943604 0.17383383214473724
vt 0.7087444067001343 0.25571465492248535
vt 0.6256595849990845 0.39924198389053345
vt 0.7013347744941711 0.25036776065826416
vt 0.5917697548866272 0.3749188780784607
vt 0.6951398849487305 0.2436579465866089
vt 0.5633460283279419 0.34441015124320984
vt 0.690281093120575 0.23579487204551697
vt 0.5413601398468018 0.30897387862205505
vt 0.6870014667510986 0.22719790041446686
vt 0.5266623497009277 0.2699730396270752
vt 0.6855438351631165 0.2181815803050995
vt 0.5199815630912781 0.22877052426338196
vt 0.6859082579612732 0.2090604156255722
vt 0.5214391946792603 0.18714864552021027
vt 0.6879732012748718 0.20004408061504364
vt 0.530913770198822 0.1465751677751541
vt 0.6917387247085571 0.19176164269447327
vt 0.5481624007225037 0.1086227297782898
vt 0.6970833539962769 0.1843179315328598
vt 0.5724561810493469 0.0747590884566307
vt 0.38527247309684753 0.02925809472799301
vt 0.46653521060943604 0.17383383214473724
vt 0.3511396646499634 0.05316184461116791
vt 0.4591256082057953 0.17907588183879852
vt 0.3222300410270691 0.08325120806694031
vt 0.45268774032592773 0.18568086624145508
vt 0.3222300410270691 0.08325120806694031
vt 0.45268774032592773 0.18568086624145508
vt 0.2998797595500946 0.11837294697761536
vt 0.447829008102417 0.19343909621238708
vt 0.2998797595500946 0.11837294697761536
vt 0.447829008102417 0.19343909621238708
vt 0.28469613194465637 0.1572689563035965
vt 0.44442784786224365 0.2020360678434372
vt 0.2774079740047455 0.1982617825269699
vt 0.4428487718105316 0.21105238795280457
vt 0.27837973833084106 0.2399885058403015
vt 0.4430916905403137 0.22017355263233185
vt 0.28736844658851624 0.2806667983531952
vt 0.4450352191925049 0.2291898876428604
vt 0.3041311800479889 0.31893378496170044
vt 0.4488007426261902 0.2375771552324295
vt 0.3280605673789978 0.35300710797309875
vt 0.45402392745018005 0.24502086639404297
vt 0.3581848740577698 0.3819432258605957
vt 0.46058323979377747 0.2514161765575409
vt 0.3932894170284271 0.4042743444442749
vt 0.46835726499557495 0.25634369254112244
vt 0.6029449105262756 0.04624233767390251
vt 0.7037642002105713 0.17802748084068298
vt 0.5724561810493469 0.0747590884566307
vt 0.6970833539962769 0.1843179315328598
vt 0.6384138464927673 0.024330567568540573
vt 0.7116596698760986 0.17320479452610016
vt 0.6029449105262756 0.04624233767390251
vt 0.7037642002105713 0.17802748084068298
vt 0.6774054169654846 0.009652827866375446
vt 0.7229562997817993 0.16922083497047424
vt 0.6384138464927673 0.024330567568540573
vt 0.7116596698760986 0.17320479452610016
vt 0.3932894170284271 0.4042743444442749
vt 0.46835726499557495 0.25634369254112244
vt 0.4321594834327698 0.41947630047798157
vt 0.47965386509895325 0.26043251156806946
vt 0.7059506177902222 0.002523639937862754
vt 0.7202839851379395 0.16785790026187897
vt 0.6774054169654846 0.009652827866375446
vt 0.7229562997817993 0.16922083497047424
vt 0.4321594834327698 0.41947630047798157
vt 0.47965386509895325 0.26043251156806946
vt 0.4732160270214081 0.4267103374004364
vt 0.48827818036079407 0.2614808976650238
vt 0.8822021484375 0.4312184751033783
vt 0.7163969278335571 0.4312184751033783
vt 0.8823236227035522 0.42933136224746704
vt 0.7177330851554871 0.43079912662506104
vt 0.4732160270214081 0.4267103374004364
vt 0.48827818036079407 0.2614808976650238
vt 0.5148798823356628 0.4257667660713196
vt 0.5111143589019775 0.2599082887172699
s on
f 1/1/1 2/2/2 3/3/3
f 2/2/2 4/4/4 3/3/3
f 5/5/5 6/6/6 7/7/7
f 6/6/6 8/8/8 7/7/7
f 9/9/9 10/10/10 11/11/11
f 10/10/10 12/12/12 11/11/11
f 13/13/13 14/14/14 15/15/15
f 14/14/14 16/16/16 15/15/15
f 17/17/17 18/18/18 19/19/19
f 18/18/18 20/20/20 19/19/19
f 21/21/21 22/22/22 23/23/23
f 22/22/22 24/24/24 23/23/23
f 25/25/25 26/26/26 27/27/27
f 26/26/26 28/28/28 27/27/27
f 29/29/29 30/30/30 31/31/31
f 30/30/30 32/32/32 31/31/31
f 33/33/33 34/34/34 35/35/35
f 34/34/34 36/36/36 35/35/35
f 37/37/37 38/38/38 39/39/39
f 38/38/38 40/40/40 39/39/39
f 41/41/41 42/42/42 43/43/43
f 42/42/42 44/44/44 43/43/43
f 45/45/45 46/46/46 47/47/47
f 46/46/46 48/48/48 47/47/47
f 49/49/49 50/50/50 51/51/51
f 50/50/50 52/52/52 51/51/51
f 53/53/53 54/54/54 55/55/55
f 54/54/54 56/56/56 55/55/55
f 57/57/57 58/58/58 59/59/59
f 58/58/58 60/60/60 59/59/59
f 61/61/61 62/62/62 63/63/63
f 62/62/62 64/64/64 63/63/63
f 65/65/65 66/66/66 67/67/67
f 66/66/66 68/68/68 67/67/67
f 69/69/69 70/70/70 71/71/71
f 70/70/70 72/72/72 71/71/71
f 73/73/73 74/74/74 75/75/75
f 74/74/74 76/76/76 75/75/75
f 77/77/77 78/78/78 79/79/79
f 78/78/78 80/80/80 79/79/79
f 81/81/81 82/82/82 83/83/83
f 82/82/82 84/84/84 83/83/83
f 85/85/85 86/86/86 87/87/87
f 86/86/86 88/88/88 87/87/87
f 89/89/89 90/90/90 91/91/91
f 90/90/90 92/92/92 91/91/91
f 93/93/93 94/94/94 95/95/95
f 94/94/94 96/96/96 95/95/95
f 97/97/97 98/98/98 99/99/99
f 98/98/98 100/100/100 99/99/99
f 101/101/101 102/102/102 103/103/103
f 102/102/102 104/104/104 103/103/103
f 105/105/105 106/106/106 107/107/107
f 106/106/106 108/108/108 107/107/107
f 109/109/109 110/110/110 111/111/111
f 110/110/110 112/112/112 111/111/111
f 113/113/113 114/114/114 115/115/115
f 114/114/114 116/116/116 115/115/115
f 117/117/117 118/118/118 119/119/119
f 118/118/118 120/120/120 119/119/119
f 121/121/121 122/122/122 123/123/123
f 122/122/122 124/124/124 123/123/123
f 125/125/125 126/126/126 127/127/127
f 126/126/126 128/128/128 127/127/127
f 129/129/129 130/130/130 131/131/131
f 130/130/130 132/132/132 131/131/131
f 133/133/133 134/134/134 135/135/135
f 134/134/134 136/136/136 135/135/135
f 137/137/137 138/138/138 139/139/139
f 138/138/138 140/140/140 139/139/139
f 141/141/141 142/142/142 143/143/143
f 142/142/142 144/144/144 143/143/143
f 145/145/145 146/146/146 147/147/147
f 146/146/146 148/148/148 147/147/147
f 149/149/149 150/150/150 151/151/151
f 150/150/150 152/152/152 151/151/151
f 153/153/153 154/154/154 155/155/155
f 154/154/154 156/156/156 155/155/155
f 157/157/157 158/158/158 159/159/159
f 158/158/158 160/160/160 159/159/159
f 161/161/161 162/162/162 163/163/163
f 162/162/162 164/164/164 163/163/163
f 165/165/165 166/166/166 167/167/167
f 166/166/166 168/168/168 167/167/167
f 169/169/169 170/170/170 171/171/171
f 170/170/170 172/172/172 171/171/171
f 171/171/171 172/172/172 173/173/173
f 172/172/172 174/174/174 173/173/173
f 173/173/173 174/174/174 175/175/175
f 174/174/174 176/176/176 175/175/175
f 175/175/175 176/176/176 177/177/177
f 176/176/176 178/178/178 177/177/177
f 177/177/177 178/178/178 179/179/179
f 178/178/178 180/180/180 179/179/179
f 179/179/179 180/180/180 181/181/181
f 180/180/180 182/182/182 181/181/181
f 181/181/181 182/182/182 183/183/183
f 182/182/182 184/184/184 183/183/183
f 183/183/183 184/184/184 185/185/185
f 184/184/184 186/186/186 185/185/185
f 185/185/185 186/186/186 187/187/187
f 186/186/186 188/188/188 187/187/187
f 189/189/189 190/190/190 191/191/191
f 190/190/190 192/192/192 191/191/191
f 191/191/191 192/192/192 193/193/193
f 192/192/192 194/194/194 193/193/193
f 195/195/195 196/196/196 197/197/197
f 196/196/196 198/198/198 197/197/197
f 199/199/199 200/200/200 201/201/201
f 200/200/200 202/202/202 201/201/201
f 201/201/201 202/202/202 203/203/203
f 202/202/202 204/204/204 203/203/203
f 203/203/203 204/204/204 205/205/205
f 204/204/204 206/206/206 205/205/205
f 205/205/205 206/206/206 207/207/207
f 206/206/206 208/208/208 207/207/207
f 207/207/207 208/208/208 209/209/209
f 208/208/208 210/210/210 209/209/209
f 209/209/209 210/210/210 211/211/211
f 210/210/210 212/212/212 211/211/211
f 211/211/211 212/212/212 213/213/213
f 212/212/212 214/214/214 213/213/213
f 213/213/213 214/214/214 215/215/215
f 214/214/214 216/216/216 215/215/215
f 217/217/217 218/218/218 219/219/219
f 218/218/218 220/220/220 219/219/219
f 221/221/221 222/222/222 223/223/223
f 222/222/222 224/224/224 223/223/223
f 225/225/225 226/226/226 227/227/227
f 226/226/226 228/228/228 227/227/227
f 229/229/229 230/230/230 231/231/231
f 230/230/230 232/232/232 231/231/231
f 233/233/233 234/234/234 235/235/235
f 234/234/234 236/236/236 235/235/235
f 237/237/237 238/238/238 239/239/239
f 238/238/238 240/240/240 239/239/239
f 241/241/241 242/242/242 243/243/243
f 242/242/242 244/244/244 243/243/243
f 245/245/245 246/246/246 247/247/247
f 246/246/246 248/248/248 247/247/247

