# Exported by Sketchfab Model Ripper robust edition
o model_46
v -0.057731613516807556 -1.3096596002578735 -1.6135472059249878
v -0.12928521633148193 -1.3096596002578735 -1.6404829025268555
v -0.130332350730896 -1.478159785270691 -1.5397233963012695
v -0.17570780217647552 -1.487788438796997 -1.5995805263519287
v -0.21375338733196259 -1.656288504600525 -1.5087971687316895
v -0.21863996982574463 -1.6707314252853394 -1.5836186408996582
v -0.2832127511501312 -1.844045877456665 -1.5197709798812866
v -0.24586525559425354 -1.8536744117736816 -1.5856138467788696
v -0.3174188733100891 -2.0366175174713135 -1.560673475265503
v -0.2500537633895874 -2.0414316654205322 -1.5955901145935059
v -0.3065985441207886 -2.229189157485962 -1.6055662631988525
v -0.23015835881233215 -2.224374771118164 -1.5995805263519287
v -0.25459128618240356 -2.4169464111328125 -1.6315044164657593
v -0.19385799765586853 -2.407317876815796 -1.5856138467788696
v -0.1791982352733612 -2.5998892784118652 -1.6185352802276611
v -0.15302008390426636 -2.58544659614563 -1.5477043390274048
v -0.10520132631063461 -2.7732038497924805 -1.5616710186004639
v -0.12195534259080887 -2.758760929107666 -1.4878472089767456
v -0.05668448656797409 -2.941704034805298 -1.4668972492218018
v -0.11113503575325012 -2.932075262069702 -1.4140233993530273
v -0.05005268752574921 -3.1053898334503174 -1.3551639318466187
v -0.12474767863750458 -3.1053898334503174 -1.3392020463943481
v -0.08809826523065567 -3.2738900184631348 -1.2504138946533203
v -0.15965187549591064 -3.2787041664123535 -1.277349591255188
v -0.1889714002609253 -3.1102042198181152 -1.380104422569275
v -0.19106565415859222 -3.288332939147949 -1.346185326576233
v -0.1606989949941635 -1.324102520942688 -1.7093186378479004
v -0.18757523596286774 -2.932075262069702 -1.4140233993530273
v -0.18652811646461487 -2.753946542739868 -1.4469448328018188
v -0.18513193726539612 -2.575817823410034 -1.4798662662506104
v -0.18338672816753387 -2.3976891040802 -1.5107924938201904
v -0.18059439957141876 -2.2147462368011475 -1.5427162647247314
v -0.1767549365758896 -2.0366175174713135 -1.5746400356292725
v -0.17256642878055573 -1.85848867893219 -1.606563925743103
v -0.16802889108657837 -1.680359959602356 -1.6404829025268555
v -0.1641894280910492 -1.502231240272522 -1.6744019985198975
v -0.1334737241268158 -1.3385454416275024 -1.7791520357131958
v -0.102758027613163 -1.5118597745895386 -1.719294786453247
v -0.06366532295942307 -1.3433597087860107 -1.8100781440734863
v -0.09193772822618484 -1.680359959602356 -1.6444734334945679
v -0.1055503636598587 -1.8536744117736816 -1.5706496238708496
v -0.14045456051826477 -2.0269887447357178 -1.5077996253967285
v -0.18652811646461487 -2.205117702484131 -1.4678947925567627
v -0.22946026921272278 -2.383246421813965 -1.4509353637695312
v -0.2570345997810364 -2.5710036754608154 -1.4539282321929932
v -0.26122310757637024 -2.758760929107666 -1.4639043807983398
v -0.241327702999115 -2.941704034805298 -1.4678947925567627
v -0.20467829704284668 -3.1246469020843506 -1.4539282321929932
v -0.1638403832912445 -3.3027756214141846 -1.4160186052322388
v -0.16279324889183044 -3.1342756748199463 -1.5167782306671143
v -0.09403198212385178 -3.3075900077819824 -1.4469448328018188
v -0.2409786581993103 -2.956146717071533 -1.543713927268982
v -0.3020610213279724 -2.7683894634246826 -1.5277520418167114
v -0.3264939486980438 -2.575817823410034 -1.4858520030975342
v -0.3052023947238922 -2.383246421813965 -1.440959095954895
v -0.2444690763950348 -2.195488929748535 -1.4190114736557007
v -0.16244421899318695 -2.0125460624694824 -1.4359710216522217
v -0.0842588022351265 -1.8392314910888672 -1.4978234767913818
v -0.03434579819440842 -1.6707314252853394 -1.5955901145935059
v -0.027015915140509605 -1.5118597745895386 -1.707323431968689
v 0.00788828358054161 -1.3385454416275024 -1.7831424474716187
v 0.01835954375565052 -1.4974169731140137 -1.6464686393737793
v 0.03930206224322319 -1.3289167881011963 -1.7143067121505737
v -0.029110167175531387 -1.6611027717590332 -1.5197709798812866
v -0.12160629779100418 -1.8247886896133423 -1.4319806098937988
v -0.22980931401252747 -2.0077316761016846 -1.4000567197799683
v -0.3209092915058136 -2.195488929748535 -1.4239996671676636
v -0.36628472805023193 -2.3928749561309814 -1.4868496656417847
v -0.35267210006713867 -2.5902607440948486 -1.55568528175354
v -0.28530699014663696 -2.782832384109497 -1.6005781888961792
v -0.18652811646461487 -2.965775489807129 -1.5965876579284668
v -0.08809826523065567 -3.139089822769165 -1.5327401161193848
v -0.022478369995951653 -3.3027756214141846 -1.4200091361999512
v -0.023874538019299507 -3.1294612884521484 -1.491837739944458
v 0.008935409598052502 -3.288332939147949 -1.3521710634231567
v -0.10973887145519257 -2.965775489807129 -1.5955901145935059
v -0.22073422372341156 -2.787646770477295 -1.641480565071106
v -0.3205602467060089 -2.5998892784118652 -1.624521017074585
v -0.3767560124397278 -2.402503490447998 -1.560673475265503
v -0.3704732358455658 -2.205117702484131 -1.4818614721298218
v -0.3031081259250641 -2.0077316761016846 -1.4220043420791626
v -0.1949051171541214 -1.8247886896133423 -1.4110305309295654
v -0.07972125709056854 -1.6466599702835083 -1.4639043807983398
v 0.007190200034528971 -1.4829740524291992 -1.572644829750061
v 0.012076787650585175 -1.3144739866256714 -1.6434757709503174
v -0.05459023267030716 -1.478159785270691 -1.5277520418167114
v -0.057731613516807556 -1.3096596002578735 -1.6135472059249878
v -0.130332350730896 -1.478159785270691 -1.5397233963012695
v -0.15616145730018616 -1.6466599702835083 -1.4589163064956665
v -0.2619211673736572 -1.8296029567718506 -1.4479424953460693
v -0.3394085168838501 -2.022174596786499 -1.4878472089767456
v -0.3645395338535309 -2.219560384750366 -1.5566829442977905
v -0.3306824564933777 -2.4169464111328125 -1.621528148651123
v -0.24865758419036865 -2.604703664779663 -1.6504591703414917
v -0.1460392326116562 -2.787646770477295 -1.624521017074585
v -0.055986400693655014 -2.956146717071533 -1.541718602180481
v -0.008167647756636143 -3.119832754135132 -1.4180139303207397
v -0.01828986592590809 -3.2787041664123535 -1.2813401222229004
v -0.05005268752574921 -3.1053898334503174 -1.3551639318466187
v -0.08809826523065567 -3.2738900184631348 -1.2504138946533203
v -0.05668448656797409 -2.941704034805298 -1.4668972492218018
v -0.10520132631063461 -2.7732038497924805 -1.5616710186004639
v -0.1791982352733612 -2.5998892784118652 -1.6185352802276611
v -0.25459128618240356 -2.4169464111328125 -1.6315044164657593
v -0.3065985441207886 -2.229189157485962 -1.6055662631988525
v -0.3174188733100891 -2.0366175174713135 -1.560673475265503
v -0.2832127511501312 -1.844045877456665 -1.5197709798812866
v -0.21375338733196259 -1.656288504600525 -1.5087971687316895
v 0.012076787650585175 0.6545706987380981 -1.985659122467041
v -0.06401436775922775 0.48607051372528076 -1.9108376502990723
v -0.0594768226146698 0.6545706987380981 -2.0125949382781982
v -0.10938982665538788 0.4764419496059418 -1.971692442893982
v -0.09089060127735138 0.6401277780532837 -2.081430435180664
v -0.1519729495048523 0.31275609135627747 -1.8789138793945312
v -0.15685954689979553 0.2983132004737854 -1.954732894897461
v -0.2259698510169983 0.12499877065420151 -1.890885353088379
v -0.1886223554611206 0.11055590212345123 -1.9557305574417114
v -0.26401543617248535 -0.06275854259729385 -1.9297924041748047
v -0.19665032625198364 -0.07238712161779404 -1.9647091627120972
v -0.2570345997810364 -0.26014444231987 -1.9736876487731934
v -0.18059439957141876 -0.26014444231987 -1.9677019119262695
v -0.20921583473682404 -0.44790172576904297 -1.9986281394958496
v -0.14813348650932312 -0.44308745861053467 -1.9527376890182495
v -0.13766223192214966 -0.6356590390205383 -1.9846614599227905
v -0.11148408055305481 -0.6212161779403687 -1.9138305187225342
v -0.06680670380592346 -0.8137877583503723 -1.9258019924163818
v -0.08356072008609772 -0.7993448972702026 -1.8519781827926636
v -0.021082201972603798 -0.9774736166000366 -1.8300305604934692
v -0.07553275674581528 -0.96784508228302 -1.7781543731689453
v -0.016893697902560234 -1.1411595344543457 -1.7182972431182861
v -0.09193772822618484 -1.1363452672958374 -1.7023353576660156
v -0.057731613516807556 -1.3096596002578735 -1.6135472059249878
v -0.12928521633148193 -1.3096596002578735 -1.6404829025268555
v -0.15581241250038147 -1.145973801612854 -1.7442352771759033
v -0.1606989949941635 -1.324102520942688 -1.7093186378479004
v -0.1519729495048523 -0.96784508228302 -1.7791520357131958
v -0.14813348650932312 -0.7897163033485413 -1.8120733499526978
v -0.14359594881534576 -0.606773316860199 -1.8459924459457397
v -0.13766223192214966 -0.4286445677280426 -1.8779162168502808
v -0.13103042542934418 -0.2505158483982086 -1.9098401069641113
v -0.12335150688886642 -0.07238712161779404 -1.9427615404129028
v -0.11532354354858398 0.10574161261320114 -1.9766805171966553
v -0.10659749060869217 0.2838703393936157 -2.0105996131896973
v -0.09822048246860504 0.4619990587234497 -2.0455162525177
v -0.06366532295942307 0.625684916973114 -2.151263952255249
v -0.03678909316658974 0.4523704946041107 -2.09040904045105
v 0.00614307401701808 0.6160563230514526 -2.181192398071289
v -0.030157294124364853 0.27905604243278503 -2.01459002494812
v -0.04830747842788696 0.11055590212345123 -1.939768671989441
v -0.0870511382818222 -0.06275854259729385 -1.8769186735153198
v -0.13696414232254028 -0.23607298731803894 -1.8350186347961426
v -0.18408481776714325 -0.4190160036087036 -1.8180590867996216
v -0.21549859642982483 -0.6019590497016907 -1.8200544118881226
v -0.2228284776210785 -0.7897163033485413 -1.8290328979492188
v -0.20572541654109955 -0.9726593494415283 -1.8330234289169312
v -0.17186833918094635 -1.1556023359298706 -1.8180590867996216
v -0.1334737241268158 -1.3385454416275024 -1.7791520357131958
v -0.1299833059310913 -1.170045256614685 -1.8809090852737427
v -0.06366532295942307 -1.3433597087860107 -1.8100781440734863
v -0.20537637174129486 -0.987102210521698 -1.9078447818756104
v -0.26366639137268066 -0.7993448972702026 -1.8928805589675903
v -0.2846089005470276 -0.606773316860199 -1.8519781827926636
v -0.2598269283771515 -0.4142017066478729 -1.808082938194275
v -0.1949051171541214 -0.22644439339637756 -1.787132978439331
v -0.10904078930616379 -0.04831567034125328 -1.8040924072265625
v -0.027364958077669144 0.12499877065420151 -1.8669424057006836
v 0.027434635907411575 0.2886846363544464 -1.9647091627120972
v 0.0389530211687088 0.4523704946041107 -2.078437566757202
v 0.07769668102264404 0.6208706498146057 -2.154256820678711
v 0.08432848006486893 0.4619990587234497 -2.017582893371582
v 0.10911046713590622 0.6304992437362671 -2.085421085357666
v 0.032321225851774216 0.3031274974346161 -1.8898876905441284
v -0.06436341255903244 0.13944163918495178 -1.8010995388031006
v -0.1764058917760849 -0.0386870913207531 -1.7691757678985596
v -0.271345317363739 -0.22163011133670807 -1.7931185960769653
v -0.3205602467060089 -0.4190160036087036 -1.853973388671875
v -0.3111360967159271 -0.6164019107818604 -1.92280912399292
v -0.2472614198923111 -0.8137877583503723 -1.9667043685913086
v -0.15092583000659943 -1.0015450716018677 -1.9607186317443848
v -0.055288318544626236 -1.1748595237731934 -1.8958734273910522
v 0.00788828358054161 -1.3385454416275024 -1.7831424474716187
v 0.008935409598052502 -1.170045256614685 -1.8549710512161255
v 0.03930206224322319 -1.3289167881011963 -1.7143067121505737
v -0.07413658499717712 -1.0015450716018677 -1.9597209692001343
v -0.182339608669281 -0.8234163522720337 -2.0066092014312744
v -0.27902424335479736 -0.63084477186203 -1.9906471967697144
v -0.3310315012931824 -0.4334588646888733 -1.9287948608398438
v -0.3209092915058136 -0.23125869035720825 -1.850980520248413
v -0.24970471858978271 -0.0386870913207531 -1.791123390197754
v -0.13766223192214966 0.14425593614578247 -1.7811472415924072
v -0.0179408248513937 0.31275609135627747 -1.834020972251892
v 0.07315913587808609 0.4764419496059418 -1.9427615404129028
v 0.0818851888179779 0.6449421048164368 -2.015587568283081
v 0.011727745644748211 0.48607051372528076 -1.8988662958145142
v 0.012076787650585175 0.6545706987380981 -1.985659122467041
v -0.06401436775922775 0.48607051372528076 -1.9108376502990723
v -0.09438101947307587 0.31757035851478577 -1.8290328979492188
v -0.20467829704284668 0.13944163918495178 -1.8180590867996216
v -0.28600507974624634 -0.04831567034125328 -1.8579639196395874
v -0.3149755597114563 -0.24570156633853912 -1.9258019924163818
v -0.2849579453468323 -0.44790172576904297 -1.988651990890503
v -0.2071215808391571 -0.6404733657836914 -2.016585350036621
v -0.10799366235733032 -0.8234163522720337 -1.9896495342254639
v -0.02038411796092987 -0.9919165372848511 -1.905849575996399
v 0.024642299860715866 -1.1556023359298706 -1.7811472415924072
v 0.012076787650585175 -1.3144739866256714 -1.6434757709503174
v -0.016893697902560234 -1.1411595344543457 -1.7182972431182861
v -0.057731613516807556 -1.3096596002578735 -1.6135472059249878
v -0.021082201972603798 -0.9774736166000366 -1.8300305604934692
v -0.06680670380592346 -0.8137877583503723 -1.9258019924163818
v -0.13766223192214966 -0.6356590390205383 -1.9846614599227905
v -0.20921583473682404 -0.44790172576904297 -1.9986281394958496
v -0.2570345997810364 -0.26014444231987 -1.9736876487731934
v -0.26401543617248535 -0.06275854259729385 -1.9297924041748047
v -0.2259698510169983 0.12499877065420151 -1.890885353088379
v -0.1519729495048523 0.31275609135627747 -1.8789138793945312
v 0.09270548820495605 2.6188008785247803 -2.3587687015533447
v 0.016614334657788277 2.450300931930542 -2.283947229385376
v 0.021500922739505768 2.6139867305755615 -2.385704278945923
v -0.029110167175531387 2.4406721591949463 -2.344801902770996
v -0.009912857785820961 2.604358196258545 -2.4545400142669678
v -0.0716932937502861 2.272172212600708 -2.253021001815796
v -0.07657988369464874 2.2625434398651123 -2.3278424739837646
v -0.1456902027130127 2.089229106903076 -2.2639946937561035
v -0.1086917445063591 2.0747861862182617 -2.3298375606536865
v -0.18478290736675262 1.901471734046936 -2.3038995265960693
v -0.11741779744625092 1.8918431997299194 -2.3388161659240723
v -0.17850014567375183 1.7040859460830688 -2.347794771194458
v -0.1024089902639389 1.7040859460830688 -2.341809034347534
v -0.13137947022914886 1.5115143060684204 -2.3717377185821533
v -0.07064616680145264 1.521142840385437 -2.3258471488952637
v -0.060872990638017654 1.3285713195800781 -2.3577709197998047
v -0.03434579819440842 1.3381998538970947 -2.286940097808838
v 0.008586367592215538 1.1504424810409546 -2.2989115715026855
v -0.008167647756636143 1.164885401725769 -2.2260851860046387
v 0.05256566032767296 0.9819424152374268 -2.2031400203704834
v -0.0018848920008167624 0.9963852763175964 -2.150266170501709
v 0.05465991050004959 0.8182565569877625 -2.09040904045105
v -0.02003507688641548 0.8230708241462708 -2.0754449367523193
v 0.012076787650585175 0.6545706987380981 -1.985659122467041
v -0.0594768226146698 0.6545706987380981 -2.0125949382781982
v -0.0842588022351265 0.8182565569877625 -2.116347312927246
v -0.09089060127735138 0.6401277780532837 -2.081430435180664
v -0.07832509279251099 0.9963852763175964 -2.151263952255249
v -0.07274042069911957 1.1745139360427856 -2.186180591583252
v -0.06680670380592346 1.3526427745819092 -2.219101905822754
v -0.06017490476369858 1.5355857610702515 -2.252023458480835
v -0.05249598249793053 1.7137144804000854 -2.283947229385376
v -0.0441189743578434 1.8918431997299194 -2.316868543624878
v -0.035043880343437195 2.069972038269043 -2.349790096282959
v -0.026317831128835678 2.248100757598877 -2.384706735610962
v -0.01759178191423416 2.426229476928711 -2.419623374938965
v 0.017312418669462204 2.5899152755737305 -2.5253710746765137
v 0.04383961111307144 2.4166007041931152 -2.4635186195373535
v 0.08677177876234055 2.580286741256714 -2.5552995204925537
v 0.05012236535549164 2.243286371231079 -2.3886971473693848
v 0.03162313997745514 2.0747861862182617 -2.312878131866455
v -0.007818605750799179 1.901471734046936 -2.250028133392334
v -0.058429695665836334 1.7281572818756104 -2.2091257572174072
v -0.10624845325946808 1.545214295387268 -2.192166328430176
v -0.13836030662059784 1.3622713088989258 -2.1941614151000977
v -0.14708636701107025 1.1745139360427856 -2.2031400203704834
v -0.13207755982875824 0.9915709495544434 -2.2051353454589844
v -0.09996569156646729 0.803813636302948 -2.190171003341675
v -0.06366532295942307 0.625684916973114 -2.151263952255249
v -0.058429695665836334 0.7941851019859314 -2.253021001815796
v 0.00614307401701808 0.6160563230514526 -2.181192398071289
v -0.13172851502895355 0.9771280884742737 -2.280954360961914
v -0.1882733255624771 1.164885401725769 -2.2669875621795654
v -0.20781967043876648 1.3574570417404175 -2.2260851860046387
v -0.18199056386947632 1.5500285625457764 -2.18218994140625
v -0.11637067049741745 1.7377859354019165 -2.1602423191070557
v -0.029808251187205315 1.9159146547317505 -2.178199529647827
v 0.05291470140218735 2.0844147205352783 -2.2410495281219482
v 0.10771429538726807 2.2529149055480957 -2.3388161659240723
v 0.11958172172307968 2.4117865562438965 -2.451547145843506
v 0.15832538902759552 2.5851008892059326 -2.5283639430999756
v 0.1649571806192398 2.421415090560913 -2.3906924724578857
v 0.1897391676902771 2.594729423522949 -2.4595282077789307
v 0.1126008853316307 2.2625434398651123 -2.2639946937561035
v 0.01591625064611435 2.0988576412200928 -2.1752066612243652
v -0.09717335551977158 1.925543189048767 -2.143282890319824
v -0.19281086325645447 1.7426002025604248 -2.1672258377075195
v -0.24307291209697723 1.545214295387268 -2.2280805110931396
v -0.23399782180786133 1.3478283882141113 -2.2969162464141846
v -0.17151930928230286 1.1504424810409546 -2.3398139476776123
v -0.07727796584367752 0.962685227394104 -2.3328304290771484
v 0.016614334657788277 0.78455650806427 -2.2679853439331055
v 0.07769668102264404 0.6208706498146057 -2.154256820678711
v 0.08048901706933975 0.7893707752227783 -2.2270829677581787
v 0.10911046713590622 0.6304992437362671 -2.085421085357666
v -0.0008377659833058715 0.9578709602355957 -2.3318328857421875
v -0.10694653540849686 1.140813946723938 -2.379718542098999
v -0.20188595354557037 1.3333855867385864 -2.3647544384002686
v -0.2535441815853119 1.5307714939117432 -2.3029019832611084
v -0.24237483739852905 1.7329716682434082 -2.224090099334717
v -0.1704721748828888 1.925543189048767 -2.1652305126190186
v -0.057731613516807556 2.1084861755371094 -2.155254364013672
v 0.06233883649110794 2.2769863605499268 -2.2071304321289062
v 0.15343879163265228 2.4406721591949463 -2.316868543624878
v 0.16251389682292938 2.6091723442077637 -2.3886971473693848
v 0.09200740605592728 2.450300931930542 -2.2729732990264893
v 0.09270548820495605 2.6188008785247803 -2.3587687015533447
v 0.016614334657788277 2.450300931930542 -2.283947229385376
v -0.014101361855864525 2.2818007469177246 -2.2031400203704834
v -0.12474767863750458 2.1036720275878906 -2.192166328430176
v -0.2067725509405136 1.9159146547317505 -2.2320709228515625
v -0.23644112050533295 1.7185287475585938 -2.2989115715026855
v -0.2071215808391571 1.5163285732269287 -2.3627591133117676
v -0.1299833059310913 1.3237569332122803 -2.3896946907043457
v -0.032251544296741486 1.140813946723938 -2.3627591133117676
v 0.05291470140218735 0.9674994945526123 -2.277961492538452
v 0.09654495120048523 0.803813636302948 -2.153259038925171
v 0.0818851888179779 0.6449421048164368 -2.015587568283081
v 0.05465991050004959 0.8182565569877625 -2.09040904045105
v 0.012076787650585175 0.6545706987380981 -1.985659122467041
v 0.05256566032767296 0.9819424152374268 -2.2031400203704834
v 0.008586367592215538 1.1504424810409546 -2.2989115715026855
v -0.060872990638017654 1.3285713195800781 -2.3577709197998047
v -0.13137947022914886 1.5115143060684204 -2.3717377185821533
v -0.17850014567375183 1.7040859460830688 -2.347794771194458
v -0.18478290736675262 1.901471734046936 -2.3038995265960693
v -0.1456902027130127 2.089229106903076 -2.2639946937561035
v -0.0716932937502861 2.272172212600708 -2.253021001815796
v 0.1715889871120453 4.583031177520752 -2.7298829555511475
v 0.09584686905145645 4.414531230926514 -2.6560590267181396
v 0.10003536939620972 4.578217029571533 -2.7568185329437256
v 0.05012236535549164 4.404902458190918 -2.716913938522339
v 0.06862159073352814 4.5685882568359375 -2.8256542682647705
v 0.008237325586378574 4.23640251159668 -2.6251327991485596
v 0.0033507379703223705 4.221959590911865 -2.6999542713165283
v -0.06575957685709 4.053459644317627 -2.6361067295074463
v -0.02841208316385746 4.0390167236328125 -2.7019495964050293
v -0.10450323671102524 3.8608877658843994 -2.676011562347412
v -0.037138134241104126 3.851259231567383 -2.710928201675415
v -0.09787144511938095 3.668316125869751 -2.719906806945801
v -0.021780285984277725 3.668316125869751 -2.713921070098877
v -0.05075077340006828 3.4757447242736816 -2.744847059249878
v 0.010331577621400356 3.4853732585906982 -2.6989567279815674
v 0.020104754716157913 3.29280161857605 -2.7308804988861084
v 0.04663194715976715 3.3024301528930664 -2.6600494384765625
v 0.08991315215826035 3.114672899246216 -2.67202091217041
v 0.07315913587808609 3.1291158199310303 -2.5991947650909424
v 0.13389244675636292 2.9461727142333984 -2.576249599456787
v 0.07944189757108688 2.955801248550415 -2.5243732929229736
v 0.13563765585422516 2.782486915588379 -2.4635186195373535
v 0.060942668467760086 2.7873010635375977 -2.448554277420044
v 0.09270548820495605 2.6188008785247803 -2.3587687015533447
v 0.021500922739505768 2.6139867305755615 -2.385704278945923
v -0.0032810599077492952 2.782486915588379 -2.4904544353485107
v -0.009912857785820961 2.604358196258545 -2.4545400142669678
v 0.003001695964485407 2.960615634918213 -2.5253710746765137
v 0.008586367592215538 3.138744354248047 -2.5592899322509766
v 0.014171039685606956 3.316873073577881 -2.5922114849090576
v 0.02080283872783184 3.495001792907715 -2.6241352558135986
v 0.028132719919085503 3.673130512237549 -2.6560590267181396
v 0.03616068512201309 3.8560736179351807 -2.6889805793762207
v 0.04488673433661461 4.0342020988464355 -2.7219018936157227
v 0.053612787276506424 4.2123308181762695 -2.7558209896087646
v 0.061640750616788864 4.3904595375061035 -2.7907376289367676
v 0.09584686905145645 4.554145336151123 -2.8964853286743164
v 0.12307214736938477 4.380831241607666 -2.8346328735351562
v 0.16565527021884918 4.5445170402526855 -2.9264137744903564
v 0.13005298376083374 4.207516670227051 -2.7608091831207275
v 0.11190280318260193 4.0390167236328125 -2.6849899291992188
v 0.07246105372905731 3.8657021522521973 -2.6221399307250977
v 0.022199006751179695 3.6875734329223633 -2.581237554550171
v -0.02561974711716175 3.5094447135925293 -2.5642781257629395
v -0.05738256871700287 3.3265016078948975 -2.5662734508514404
v -0.06610862165689468 3.138744354248047 -2.576249599456787
v -0.05075077340006828 2.9509871006011963 -2.579242467880249
v -0.018987949937582016 2.7680439949035645 -2.5642781257629395
v 0.017312418669462204 2.5899152755737305 -2.5253710746765137
v 0.022897090762853622 2.75360107421875 -2.6271281242370605
v 0.08677177876234055 2.580286741256714 -2.5552995204925537
v -0.050401728600263596 2.936544179916382 -2.6540639400482178
v -0.10694653540849686 3.1291158199310303 -2.640097141265869
v -0.1268419325351715 3.3216872215270996 -2.5991947650909424
v -0.10136186331510544 3.514258861541748 -2.5552995204925537
v -0.03609100729227066 3.7020163536071777 -2.5333518981933594
v 0.05047140643000603 3.8801450729370117 -2.55031156539917
v 0.13284532725811005 4.04864501953125 -2.613161563873291
v 0.18764491379261017 4.2123308181762695 -2.710928201675415
v 0.198814257979393 4.376016616821289 -2.8236591815948486
v 0.23720887303352356 4.549331188201904 -2.8994781970977783
v 0.24418972432613373 4.385645389556885 -2.7628042697906494
v 0.26862266659736633 4.5589599609375 -2.8306424617767334
v 0.1925314962863922 4.226773738861084 -2.6351091861724854
v 0.09584686905145645 4.0630879402160645 -2.547318696975708
v -0.016893697902560234 3.8897736072540283 -2.515394687652588
v -0.11218216270208359 3.7020163536071777 -2.539337635040283
v -0.16209517419338226 3.5094447135925293 -2.6011900901794434
v -0.15302008390426636 3.312058687210083 -2.6700258255004883
v -0.0901925191283226 3.114672899246216 -2.712923288345337
v 0.004048821981996298 2.9269156455993652 -2.706937551498413
v 0.0975920781493187 2.7487869262695312 -2.64209246635437
v 0.15832538902759552 2.5851008892059326 -2.5283639430999756
v 0.16181580722332 2.75360107421875 -2.6001923084259033
v 0.1897391676902771 2.594729423522949 -2.4595282077789307
v 0.08048901706933975 2.9221012592315674 -2.705940008163452
v -0.02561974711716175 3.105044364929199 -2.7528281211853027
v -0.1209082156419754 3.2976157665252686 -2.737863779067993
v -0.17256642878055573 3.495001792907715 -2.675013780593872
v -0.16209517419338226 3.692387580871582 -2.5971994400024414
v -0.0901925191283226 3.8897736072540283 -2.5373423099517822
v 0.022548047825694084 4.07271671295166 -2.5273661613464355
v 0.14192041754722595 4.241216659545898 -2.579242467880249
v 0.2330203801393509 4.400088310241699 -2.6879827976226807
v 0.24139738082885742 4.5734028816223145 -2.7598114013671875
v 0.1712399423122406 4.414531230926514 -2.644087553024292
v 0.1715889871120453 4.583031177520752 -2.7298829555511475
v 0.09584686905145645 4.414531230926514 -2.6560590267181396
v 0.06582925468683243 4.246030807495117 -2.575252056121826
v -0.04446801543235779 4.067902088165283 -2.5642781257629395
v -0.12649288773536682 3.875330686569214 -2.6041829586029053
v -0.15616145730018616 3.6779448986053467 -2.67202091217041
v -0.12649288773536682 3.4805588722229004 -2.7348709106445312
v -0.04935460537672043 3.287987232208252 -2.7628042697906494
v 0.048726197332143784 3.105044364929199 -2.7358686923980713
v 0.1342414915561676 2.931729793548584 -2.652068614959717
v 0.1775226891040802 2.7680439949035645 -2.5263686180114746
v 0.16251389682292938 2.6091723442077637 -2.3886971473693848
v 0.13563765585422516 2.782486915588379 -2.4635186195373535
v 0.09270548820495605 2.6188008785247803 -2.3587687015533447
v 0.13389244675636292 2.9461727142333984 -2.576249599456787
v 0.08991315215826035 3.114672899246216 -2.67202091217041
v 0.020104754716157913 3.29280161857605 -2.7308804988861084
v -0.05075077340006828 3.4757447242736816 -2.744847059249878
v -0.09787144511938095 3.668316125869751 -2.719906806945801
v -0.10450323671102524 3.8608877658843994 -2.676011562347412
v -0.06575957685709 4.053459644317627 -2.6361067295074463
v 0.008237325586378574 4.23640251159668 -2.6251327991485596
v 0.24069929122924805 6.547261714935303 -3.0960090160369873
v 0.16635334491729736 6.378761291503906 -3.0221853256225586
v 0.16914568841457367 6.542447566986084 -3.1229448318481445
v 0.12097789347171783 6.369132995605469 -3.0830399990081787
v 0.13808095455169678 6.532818794250488 -3.1917805671691895
v 0.07979093492031097 6.200632572174072 -2.9922566413879395
v 0.07490434497594833 6.186189651489258 -3.067078113555908
v 0.006841158028692007 6.0176897048950195 -3.004228115081787
v 0.04383961111307144 6.003246784210205 -3.069073438644409
v -0.03085537813603878 5.825118064880371 -3.044132947921753
v 0.03650972619652748 5.815489768981934 -3.079049587249756
v -0.02352549508213997 5.632546424865723 -3.0890257358551025
v 0.05291470140218735 5.632546424865723 -3.0830399990081787
v 0.024991342797875404 5.439974784851074 -3.113966226577759
v 0.08572465181350708 5.44960355758667 -3.068075656890869
v 0.09689399600028992 5.2570319175720215 -3.10099720954895
v 0.12307214736938477 5.266660690307617 -3.0301661491394043
v 0.16670238971710205 5.0789031982421875 -3.042137622833252
v 0.15029741823673248 5.093346118927002 -2.969311475753784
v 0.2113797664642334 4.910403251647949 -2.94736385345459
v 0.15692922472953796 4.920031547546387 -2.8944900035858154
v 0.21382306516170502 4.7467169761657715 -2.8346328735351562
v 0.13912807404994965 4.751531600952148 -2.8196685314178467
v 0.1715889871120453 4.583031177520752 -2.7298829555511475
v 0.10003536939620972 4.578217029571533 -2.7568185329437256
v 0.07490434497594833 4.7467169761657715 -2.8605709075927734
v 0.06862159073352814 4.5685882568359375 -2.8256542682647705
v 0.08048901706933975 4.9248456954956055 -2.8954875469207764
v 0.08537560701370239 5.1029744148254395 -2.9294066429138184
v 0.09096027910709381 5.281103134155273 -2.9613304138183594
v 0.09619590640068054 5.459231853485107 -2.9932541847229004
v 0.10247866809368134 5.642175197601318 -3.0251781940460205
v 0.109808549284935 5.820303916931152 -3.0571019649505615
v 0.11748747527599335 5.998432636260986 -3.0900232791900635
v 0.1251664012670517 6.17656135559082 -3.1229448318481445
v 0.13249628245830536 6.354690074920654 -3.1578614711761475
v 0.1649571806192398 6.518375873565674 -3.2616138458251953
v 0.19392767548561096 6.345061302185059 -3.201756715774536
v 0.23476558923721313 6.513561725616455 -3.2925400733947754
v 0.20160658657550812 6.171747207641602 -3.1279327869415283
v 0.18450354039669037 6.003246784210205 -3.0531115531921387
v 0.14610891044139862 5.82993221282959 -2.9902615547180176
v 0.09654495120048523 5.651803493499756 -2.9503567218780518
v 0.05012236535549164 5.473674774169922 -2.933397054672241
v 0.019057627767324448 5.290731906890869 -2.936389923095703
v 0.011029661633074284 5.1029744148254395 -2.946366310119629
v 0.026736551895737648 4.915217399597168 -2.949359178543091
v 0.05919745936989784 4.732274532318115 -2.9343948364257812
v 0.09584686905145645 4.554145336151123 -2.8964853286743164
v 0.10073345899581909 4.717831611633301 -2.9972448348999023
v 0.16565527021884918 4.5445170402526855 -2.9264137744903564
v 0.027085594832897186 4.9007744789123535 -3.0241804122924805
v -0.030157294124364853 5.093346118927002 -3.010213851928711
v -0.050401728600263596 5.28591775894165 -2.9683139324188232
v -0.02561974711716175 5.478489398956299 -2.9244186878204346
v 0.03860398009419441 5.66624641418457 -2.9014732837677
v 0.12411926686763763 5.844375133514404 -2.9184329509735107
v 0.2054460495710373 6.012875556945801 -2.980285167694092
v 0.25884947180747986 6.181375503540039 -3.078051805496216
v 0.269669771194458 6.345061302185059 -3.1907827854156494
v 0.3063192069530487 6.513561725616455 -3.265604257583618
v 0.31504523754119873 6.354690074920654 -3.1299281120300293
v 0.3377329707145691 6.5280046463012695 -3.1967685222625732
v 0.2640851140022278 6.1958184242248535 -3.002232789993286
v 0.1684475988149643 6.027318477630615 -2.914442300796509
v 0.05675416439771652 5.85400390625 -2.883516311645508
v -0.037836216390132904 5.66624641418457 -2.907459020614624
v -0.08670210093259811 5.473674774169922 -2.970309019088745
v -0.07657988369464874 5.271474838256836 -3.03914475440979
v -0.013403277844190598 5.0789031982421875 -3.0830399990081787
v 0.08153614401817322 4.891145706176758 -3.077054262161255
v 0.17577748000621796 4.713016986846924 -3.012209177017212
v 0.23720887303352356 4.549331188201904 -2.8994781970977783
v 0.23965217173099518 4.717831611633301 -2.971306800842285
v 0.26862266659736633 4.5589599609375 -2.8306424617767334
v 0.15797634422779083 4.886331558227539 -3.076056718826294
v 0.051169492304325104 5.069274425506592 -3.1229448318481445
v -0.04446801543235779 5.26184606552124 -3.106982946395874
v -0.09717335551977158 5.459231853485107 -3.044132947921753
v -0.08740018308162689 5.656618118286133 -2.9653210639953613
v -0.016544656828045845 5.849189758300781 -2.905463933944702
v 0.09479974210262299 6.032132625579834 -2.8944900035858154
v 0.21347402036190033 6.205447196960449 -2.946366310119629
v 0.3035268485546112 6.369132995605469 -3.0551066398620605
v 0.3105076849460602 6.537632942199707 -3.1259377002716064
v 0.2420954704284668 6.378761291503906 -3.011211395263672
v 0.24069929122924805 6.547261714935303 -3.0960090160369873
v 0.16635334491729736 6.378761291503906 -3.0221853256225586
v 0.1373828649520874 6.210261344909668 -2.941378116607666
v 0.027783678844571114 6.027318477630615 -2.9314019680023193
v -0.052845023572444916 5.8395609855651855 -2.972304344177246
v -0.08146646618843079 5.642175197601318 -3.040142297744751
v -0.05075077340006828 5.444789409637451 -3.103990077972412
v 0.027434635907411575 5.252217769622803 -3.132920980453491
v 0.12586447596549988 5.069274425506592 -3.105985164642334
v 0.21172881126403809 4.895960330963135 -3.0221853256225586
v 0.25570809841156006 4.732274532318115 -2.8974828720092773
v 0.24139738082885742 4.5734028816223145 -2.7598114013671875
v 0.21382306516170502 4.7467169761657715 -2.8346328735351562
v 0.1715889871120453 4.583031177520752 -2.7298829555511475
v 0.2113797664642334 4.910403251647949 -2.94736385345459
v 0.16670238971710205 5.0789031982421875 -3.042137622833252
v 0.09689399600028992 5.2570319175720215 -3.10099720954895
v 0.024991342797875404 5.439974784851074 -3.113966226577759
v -0.02352549508213997 5.632546424865723 -3.0890257358551025
v -0.03085537813603878 5.825118064880371 -3.044132947921753
v 0.006841158028692007 6.0176897048950195 -3.004228115081787
v 0.07979093492031097 6.200632572174072 -2.9922566413879395
vn 0.035703543573617935 0.4764306843280792 0.8784868121147156
vn -0.6675390601158142 0.37162652611732483 0.6452018022537231
vn -0.4881206750869751 0.45878973603248596 0.7424622178077698
vn -0.9431799650192261 0.27908751368522644 0.18033768236637115
vn -0.8499539494514465 0.3913666605949402 0.3527185618877411
vn -0.9173624515533447 0.17645741999149323 -0.3568037748336792
vn -0.9395932555198669 0.3009258508682251 -0.16312000155448914
vn -0.5980722904205322 0.09778498113155365 -0.7954543828964233
vn -0.7330032587051392 0.20520730316638947 -0.6485338807106018
vn -0.08969007432460785 0.053964730352163315 -0.9945066571235657
vn -0.2932495176792145 0.1424199938774109 -0.9453682899475098
vn 0.44663557410240173 0.060228750109672546 -0.8926864862442017
vn 0.2393471747636795 0.1374584436416626 -0.961154580116272
vn 0.8460402488708496 0.1278836727142334 -0.5175535082817078
vn 0.700496256351471 0.17954465746879578 -0.6907016038894653
vn 0.9760931134223938 0.21725408732891083 0.006554040592163801
vn 0.9411876797676086 0.26098179817199707 -0.21460255980491638
vn 0.794951856136322 0.3165278434753418 0.5175535082817078
vn 0.8791685700416565 0.3605891764163971 0.31150925159454346
vn 0.3617621660232544 0.3830394446849823 0.8499464392662048
vn 0.5396566987037659 0.43862101435661316 0.7185974717140198
vn -0.18583443760871887 0.4019833505153656 0.8965907096862793
vn 0.2461957186460495 0.4615993797779083 0.8522403836250305
vn -0.4510798454284668 0.37795478105545044 0.8085030317306519
vn -0.8264608979225159 0.11657482385635376 0.5507928133010864
vn -0.9502307176589966 0.07166063785552979 0.30319350957870483
vn -0.9992551803588867 0.03019430674612522 0.024029340595006943
vn -0.39110812544822693 0.17166393995285034 0.9041935205459595
vn 0.17295964062213898 0.17561766505241394 0.9691457152366638
vn 0.6785779595375061 0.12007714062929153 0.7246471047401428
vn 0.9681340456008911 0.030198203399777412 0.24860523641109467
vn 0.9505071640014648 -0.06789559870958328 -0.30319350957870483
vn 0.6327336430549622 -0.149673193693161 -0.7597671151161194
vn 0.10841618478298187 -0.182725727558136 -0.9771679639816284
vn -0.44229409098625183 -0.15919552743434906 -0.882628321647644
vn -0.8564819097518921 -0.07925310730934143 -0.5100564956665039
vn -0.7195135354995728 -0.3297238051891327 -0.6112139225006104
vn -0.24414722621440887 -0.39262068271636963 -0.8867024183273315
vn -0.03588307276368141 -0.47641721367836 -0.8784868121147156
vn 0.3027610778808594 -0.39870622754096985 -0.865661084651947
vn 0.7549524903297424 -0.3443976640701294 -0.5580654144287109
vn 0.9635094404220581 -0.2611018419265747 -0.058952588587999344
vn 0.869490921497345 -0.15757028758525848 0.46814218163490295
vn 0.4976261556148529 -0.08243658393621445 0.8634653687477112
vn -0.03472769632935524 -0.050311751663684845 0.9981296062469482
vn -0.5584641695022583 -0.07510612905025482 0.8261215686798096
vn -0.9023728370666504 -0.14655181765556335 0.405272513628006
vn -0.9609265327453613 -0.242827370762825 -0.1328723281621933
vn -0.8590459227561951 -0.2965920865535736 -0.417220801115036
vn -0.538619339466095 -0.4398941993713379 -0.7185974717140198
vn -0.22260582447052002 -0.46100273728370667 -0.8590245246887207
vn -0.8805937767028809 -0.35709458589553833 -0.31150925159454346
vn -0.9401721358299255 -0.26461678743362427 0.21460255980491638
vn -0.7046317458152771 -0.1754685342311859 0.6875353455543518
vn -0.24179762601852417 -0.1331007182598114 0.961154580116272
vn 0.29207250475883484 -0.144818514585495 0.9453682899475098
vn 0.7350584268569946 -0.20833560824394226 0.6452018022537231
vn 0.9407379031181335 -0.29732823371887207 0.16312000155448914
vn 0.8465209603309631 -0.39508649706840515 -0.3568037748336792
vn 0.48228514194488525 -0.4649202823638916 -0.7424622178077698
vn 0.6662812232971191 -0.3621549904346466 -0.651853621006012
vn 0.9454714059829712 -0.2683172821998596 -0.18463370203971863
vn 0.9992551803588867 -0.03019430674612522 -0.024029340595006943
vn 0.919674277305603 -0.17259439826011658 0.3527185618877411
vn 0.6038511395454407 -0.08266659080982208 0.7927988767623901
vn 0.09355208277702332 -0.03624226897954941 0.994954526424408
vn -0.447598397731781 -0.05259757861495018 0.8926864862442017
vn -0.8486750721931458 -0.1090366393327713 0.5175535082817078
vn -0.9776685833930969 -0.20986858010292053 -0.010923261754214764
vn -0.7978222966194153 -0.3028847575187683 -0.5212872624397278
vn -0.36190593242645264 -0.37258946895599365 -0.8545181155204773
vn 0.18654710054397583 -0.38861456513404846 -0.9023185968399048
vn 0.5517522692680359 -0.3439815938472748 -0.7597671151161194
vn 0.8245207071304321 -0.11299613118171692 -0.5544344186782837
vn 0.9835757613182068 -0.00755514670163393 -0.18033768236637115
vn 0.3880036771297455 -0.16889184713363647 -0.9060511589050293
vn -0.16955731809139252 -0.17890477180480957 -0.9691457152366638
vn -0.6778715252876282 -0.12400296330451965 -0.7246471047401428
vn -0.9669126868247986 -0.033975228667259216 -0.25283506512641907
vn -0.9502307176589966 0.07166063785552979 0.30319350957870483
vn -0.6327977180480957 0.14940202236175537 0.7597671151161194
vn -0.11053436994552612 0.18145222961902618 0.9771679639816284
vn 0.44369271397590637 0.1552547961473465 0.882628321647644
vn 0.8561366200447083 0.08289998769760132 0.5100564956665039
vn 0.7171065807342529 0.32202786207199097 0.6181069612503052
vn 0.24127815663814545 0.38525667786598206 0.8907088041305542
vn 0.035703543573617935 0.4764306843280792 0.8784868121147156
vn -0.4881206750869751 0.45878973603248596 0.7424622178077698
vn -0.3086707293987274 0.3844703137874603 0.8700028657913208
vn -0.7597862482070923 0.33359837532043457 0.5580654144287109
vn -0.9682724475860596 0.24284358322620392 0.058952588587999344
vn -0.8693121075630188 0.1466754674911499 -0.4719987213611603
vn -0.49601230025291443 0.0678434744477272 -0.865661084651947
vn 0.039032526314258575 0.03497329726815224 -0.9986256957054138
vn 0.5602449178695679 0.060405489057302475 -0.8261215686798096
vn 0.9041185975074768 0.13536523282527924 -0.405272513628006
vn 0.9636378288269043 0.23183415830135345 0.1328723281621933
vn 0.8154346346855164 0.32398903369903564 0.4796847105026245
vn 0.5396566987037659 0.43862101435661316 0.7185974717140198
vn 0.2461957186460495 0.4615993797779083 0.8522403836250305
vn 0.8791685700416565 0.3605891764163971 0.31150925159454346
vn 0.9411876797676086 0.26098179817199707 -0.21460255980491638
vn 0.700496256351471 0.17954465746879578 -0.6907016038894653
vn 0.2393471747636795 0.1374584436416626 -0.961154580116272
vn -0.2932495176792145 0.1424199938774109 -0.9453682899475098
vn -0.7330032587051392 0.20520730316638947 -0.6485338807106018
vn -0.9395932555198669 0.3009258508682251 -0.16312000155448914
vn -0.8499539494514465 0.3913666605949402 0.3527185618877411
vn 0.04134932532906532 0.4798221290111542 0.8763908743858337
vn -0.47929179668426514 0.47262826561927795 0.7395281791687012
vn -0.6600784063339233 0.38472217321395874 0.6452018022537231
vn -0.9372487664222717 0.3009573221206665 0.1760382205247879
vn -0.9986851811408997 0.04528285190463066 0.024029340595006943
vn -0.840186595916748 0.415386438369751 0.34862664341926575
vn -0.909621000289917 0.19849041104316711 -0.3649536371231079
vn -0.9321516752243042 0.3187479078769684 -0.17173540592193604
vn -0.5939168930053711 0.10152646154165268 -0.7980946898460388
vn -0.7258617877960205 0.2195712774991989 -0.651853621006012
vn -0.08343618363142014 0.04743736982345581 -0.9953833818435669
vn -0.2824101150035858 0.14559254050254822 -0.9481810927391052
vn 0.4562193751335144 0.04528980702161789 -0.888714075088501
vn 0.25127580761909485 0.12400328367948532 -0.9599394202232361
vn 0.8514015674591064 0.1054263636469841 -0.5138099193572998
vn 0.7119324803352356 0.157508984208107 -0.6843559741973877
vn 0.9792255759239197 0.20247940719127655 0.010923261754214764
vn 0.9460073709487915 0.24663767218589783 -0.2103329300880432
vn 0.800406813621521 0.3024686872959137 0.5175535082817078
vn 0.8847860097885132 0.3465771973133087 0.31150925159454346
vn 0.3664293587207794 0.3837217390537262 0.8476362228393555
vn 0.5478310585021973 0.43343567848205566 0.715552031993866
vn -0.1809166520833969 0.4085041582584381 0.8946471214294434
vn 0.035703543573617935 0.4764306843280792 0.8784868121147156
vn -0.6675390601158142 0.37162652611732483 0.6452018022537231
vn -0.8242180943489075 0.1314982920885086 0.5507928133010864
vn -0.9992551803588867 0.03019430674612522 0.024029340595006943
vn -0.3880264461040497 0.17852048575878143 0.9041935205459595
vn 0.17295964062213898 0.17561766505241394 0.9691457152366638
vn 0.6766570210456848 0.11251203715801239 0.7276512384414673
vn 0.9662776589393616 0.015085204504430294 0.25706008076667786
vn 0.9499455094337463 -0.09047893434762955 -0.2990269064903259
vn 0.6324477195739746 -0.16457098722457886 -0.7569189071655273
vn 0.11376884579658508 -0.18946592509746552 -0.9752739667892456
vn -0.4406255781650543 -0.15231995284557343 -0.8846737742424011
vn -0.8557789921760559 -0.06034642830491066 -0.5138099193572998
vn -0.7197712063789368 -0.3226681351661682 -0.6146662831306458
vn -0.2524864673614502 -0.3919220268726349 -0.8846737742424011
vn -0.03778593987226486 -0.4801158905029297 -0.8763908743858337
vn 0.3005318343639374 -0.40978485345840454 -0.8612531423568726
vn 0.7505756616592407 -0.36505264043807983 -0.5507928133010864
vn 0.9575774073600769 -0.28295838832855225 -0.05459024757146835
vn 0.8624439835548401 -0.172512948513031 0.4758462607860565
vn 0.4886658489704132 -0.08977194130420685 0.8678402304649353
vn -0.04053890332579613 -0.045758962631225586 0.9981296062469482
vn -0.5602724552154541 -0.0601494275033474 0.8261215686798096
vn -0.9046697020530701 -0.13163165748119354 0.405272513628006
vn -0.9645136594772339 -0.2281629592180252 -0.1328723281621933
vn -0.7195135354995728 -0.3297238051891327 -0.6112139225006104
vn -0.5449762344360352 -0.4370197057723999 -0.715552031993866
vn -0.03588307276368141 -0.47641721367836 -0.8784868121147156
vn -0.8834025263786316 -0.35008853673934937 -0.31150925159454346
vn -0.9460845589637756 -0.246341273188591 0.2103329300880432
vn -0.7120450735092163 -0.15699902176856995 0.6843559741973877
vn -0.25151827931404114 -0.12351077049970627 0.9599394202232361
vn 0.282929390668869 -0.1445808857679367 0.9481810927391052
vn 0.7270445823669434 -0.21562251448631287 0.651853621006012
vn 0.9321516752243042 -0.3187479078769684 0.17173540592193604
vn 0.840186595916748 -0.415386438369751 -0.34862664341926575
vn 0.47597169876098633 -0.47597169876098633 -0.7395281791687012
vn 0.6657175421714783 -0.36908525228500366 -0.6485338807106018
vn 0.9397998452186584 -0.29026636481285095 -0.18033768236637115
vn 0.9986851811408997 -0.04528285190463066 -0.024029340595006943
vn 0.9136186242103577 -0.18725667893886566 0.36088213324546814
vn 0.5957486629486084 -0.09015783667564392 0.7980946898460388
vn 0.08429636061191559 -0.0359153226017952 0.9957932829856873
vn -0.4533099830150604 -0.033880919218063354 0.8907088041305542
vn -0.8527334928512573 -0.09404784440994263 0.5138099193572998
vn -0.9821720123291016 -0.18766683340072632 -0.010923261754214764
vn -0.8004714250564575 -0.29581260681152344 -0.5212872624397278
vn -0.3692546784877777 -0.370590478181839 -0.8522403836250305
vn 0.17945928871631622 -0.3962656557559967 -0.9004265069961548
vn 0.6662812232971191 -0.3621549904346466 -0.651853621006012
vn 0.8247758150100708 -0.1279539167881012 -0.5507928133010864
vn 0.9992551803588867 -0.03019430674612522 -0.024029340595006943
vn 0.3859882950782776 -0.1828855276107788 -0.9041935205459595
vn -0.16955731809139252 -0.17890477180480957 -0.9691457152366638
vn -0.6765918731689453 -0.11290321499109268 -0.7276512384414673
vn -0.9662773609161377 -0.015103965997695923 -0.25706008076667786
vn -0.9499455094337463 0.09047893434762955 0.2990269064903259
vn -0.6316454410552979 0.16762390732765198 0.7569189071655273
vn -0.1126592680811882 0.19012778997421265 0.9752739667892456
vn 0.44209524989128113 0.14800021052360535 0.8846737742424011
vn 0.8557849526405334 0.06026216596364975 0.5138099193572998
vn 0.7231524586677551 0.3082115352153778 0.6181069612503052
vn 0.24763160943984985 0.38120394945144653 0.8907088041305542
vn 0.04134932532906532 0.4798221290111542 0.8763908743858337
vn -0.47929179668426514 0.47262826561927795 0.7395281791687012
vn -0.29850852489471436 0.4018999934196472 0.865661084651947
vn -0.7530540227890015 0.3542769253253937 0.5544344186782837
vn -0.9627546072006226 0.2648082971572876 0.05459024757146835
vn -0.8638929724693298 0.16510382294654846 -0.4758462607860565
vn -0.49166321754455566 0.07155828177928925 -0.8678402304649353
vn 0.04370872303843498 0.02891741879284382 -0.9986256957054138
vn 0.5652806162834167 0.04534225910902023 -0.8236515522003174
vn 0.9079981446266174 0.12049245089292526 -0.401274174451828
vn 0.9664815068244934 0.21700046956539154 0.1372016966342926
vn 0.7171065807342529 0.32202786207199097 0.6181069612503052
vn 0.5478310585021973 0.43343567848205566 0.715552031993866
vn 0.035703543573617935 0.4764306843280792 0.8784868121147156
vn 0.8847860097885132 0.3465771973133087 0.31150925159454346
vn 0.9460073709487915 0.24663767218589783 -0.2103329300880432
vn 0.7119324803352356 0.157508984208107 -0.6843559741973877
vn 0.25127580761909485 0.12400328367948532 -0.9599394202232361
vn -0.2824101150035858 0.14559254050254822 -0.9481810927391052
vn -0.7258617877960205 0.2195712774991989 -0.651853621006012
vn -0.9321516752243042 0.3187479078769684 -0.17173540592193604
vn -0.840186595916748 0.415386438369751 0.34862664341926575
vn 0.04134932532906532 0.4798221290111542 0.8763908743858337
vn -0.47929179668426514 0.47262826561927795 0.7395281791687012
vn -0.6600784063339233 0.38472217321395874 0.6452018022537231
vn -0.9349123239517212 0.30813875794410706 0.1760382205247879
vn -0.9987804889678955 0.04528717324137688 0.01966099627315998
vn -0.840186595916748 0.415386438369751 0.34862664341926575
vn -0.909621000289917 0.19849041104316711 -0.3649536371231079
vn -0.9321516752243042 0.3187479078769684 -0.17173540592193604
vn -0.5897183418273926 0.10526235401630402 -0.8007197380065918
vn -0.721712589263916 0.2233722060918808 -0.6551609039306641
vn -0.08343618363142014 0.04743736982345581 -0.9953833818435669
vn -0.2824101150035858 0.14559254050254822 -0.9481810927391052
vn 0.4562193751335144 0.04528980702161789 -0.888714075088501
vn 0.25127580761909485 0.12400328367948532 -0.9599394202232361
vn 0.8522963523864746 0.09793005883693695 -0.5138099193572998
vn 0.7119324803352356 0.157508984208107 -0.6843559741973877
vn 0.9807267785072327 0.19507868587970734 0.010923261754214764
vn 0.9478852152824402 0.23931926488876343 -0.2103329300880432
vn 0.800406813621521 0.3024686872959137 0.5175535082817078
vn 0.8875110149383545 0.3395381569862366 0.31150925159454346
vn 0.37183475494384766 0.37848615646362305 0.8476362228393555
vn 0.5478310585021973 0.43343567848205566 0.715552031993866
vn -0.17401005327701569 0.41149359941482544 0.8946471214294434
vn 0.04134932532906532 0.4798221290111542 0.8763908743858337
vn -0.6600784063339233 0.38472217321395874 0.6452018022537231
vn -0.822995662689209 0.13894419372081757 0.5507928133010864
vn -0.9986851811408997 0.04528285190463066 0.024029340595006943
vn -0.3874428868293762 0.18896852433681488 0.9023185968399048
vn 0.17295964062213898 0.17561766505241394 0.9691457152366638
vn 0.6766570210456848 0.11251203715801239 0.7276512384414673
vn 0.9663659930229187 0.007542832288891077 0.25706008076667786
vn 0.9491997957229614 -0.09799325466156006 -0.2990269064903259
vn 0.6305011510848999 -0.17187801003456116 -0.7569189071655273
vn 0.11376884579658508 -0.18946592509746552 -0.9752739667892456
vn -0.4406255781650543 -0.15231995284557343 -0.8846737742424011
vn -0.8557789921760559 -0.06034642830491066 -0.5138099193572998
vn -0.7197712063789368 -0.3226681351661682 -0.6146662831306458
vn -0.2524864673614502 -0.3919220268726349 -0.8846737742424011
vn -0.03778593987226486 -0.4801158905029297 -0.8763908743858337
vn 0.3005318343639374 -0.40978485345840454 -0.8612531423568726
vn 0.7472399473190308 -0.3718329966068268 -0.5507928133010864
vn 0.9575774073600769 -0.28295838832855225 -0.05459024757146835
vn 0.8609314560890198 -0.1799093633890152 0.4758462607860565
vn 0.4886658489704132 -0.08977194130420685 0.8678402304649353
vn -0.045758962631225586 -0.04053890332579613 0.9981296062469482
vn -0.5642841458320618 -0.05640505999326706 0.8236515522003174
vn -0.9075157642364502 -0.12407311052083969 0.401274174451828
vn -0.9662233591079712 -0.2208106964826584 -0.1328723281621933
vn -0.7197712063789368 -0.3226681351661682 -0.6146662831306458
vn -0.549670398235321 -0.43110066652297974 -0.715552031993866
vn -0.03778593987226486 -0.4801158905029297 -0.8763908743858337
vn -0.8888525366783142 -0.336010605096817 -0.31150925159454346
vn -0.9479578733444214 -0.23903127014636993 0.2103329300880432
vn -0.7120450735092163 -0.15699902176856995 0.6843559741973877
vn -0.25151827931404114 -0.12351077049970627 0.9599394202232361
vn 0.282929390668869 -0.1445808857679367 0.9481810927391052
vn 0.7218191027641296 -0.2230277806520462 0.6551609039306641
vn 0.9321516752243042 -0.3187479078769684 0.17173540592193604
vn 0.840186595916748 -0.415386438369751 -0.34862664341926575
vn 0.47597169876098633 -0.47597169876098633 -0.7395281791687012
vn 0.6657175421714783 -0.36908525228500366 -0.6485338807106018
vn 0.9397998452186584 -0.29026636481285095 -0.18033768236637115
vn 0.9987804889678955 -0.04528717324137688 -0.01966099627315998
vn 0.9136186242103577 -0.18725667893886566 0.36088213324546814
vn 0.5957486629486084 -0.09015783667564392 0.7980946898460388
vn 0.08429636061191559 -0.0359153226017952 0.9957932829856873
vn -0.4533099830150604 -0.033880919218063354 0.8907088041305542
vn -0.8535270094871521 -0.0865507647395134 0.5138099193572998
vn -0.9835612177848816 -0.18024428188800812 -0.010923261754214764
vn -0.803057849407196 -0.2887172996997833 -0.5212872624397278
vn -0.3745688199996948 -0.36521846055984497 -0.8522403836250305
vn 0.17255467176437378 -0.39932066202163696 -0.9004265069961548
vn 0.6657175421714783 -0.36908525228500366 -0.6485338807106018
vn 0.8235835433006287 -0.13541574776172638 -0.5507928133010864
vn 0.9986851811408997 -0.04528285190463066 -0.024029340595006943
vn 0.3869625926017761 -0.1899501234292984 -0.9023185968399048
vn -0.16955731809139252 -0.17890477180480957 -0.9691457152366638
vn -0.6765918731689453 -0.11290321499109268 -0.7276512384414673
vn -0.9663659334182739 -0.007552213501185179 -0.25706008076667786
vn -0.9491997957229614 0.09799325466156006 0.2990269064903259
vn -0.6316454410552979 0.16762390732765198 0.7569189071655273
vn -0.1126592680811882 0.19012778997421265 0.9752739667892456
vn 0.44209524989128113 0.14800021052360535 0.8846737742424011
vn 0.8557849526405334 0.06026216596364975 0.5138099193572998
vn 0.7231524586677551 0.3082115352153778 0.6181069612503052
vn 0.24763160943984985 0.38120394945144653 0.8907088041305542
vn 0.04134932532906532 0.4798221290111542 0.8763908743858337
vn -0.47929179668426514 0.47262826561927795 0.7395281791687012
vn -0.29658252000808716 0.39861273765563965 0.8678402304649353
vn -0.7498109936714172 0.36108994483947754 0.5544344186782837
vn -0.9607248902320862 0.27208006381988525 0.05459024757146835
vn -0.8638929724693298 0.16510382294654846 -0.4758462607860565
vn -0.4872683882713318 0.07526322454214096 -0.8700028657913208
vn 0.04370872303843498 0.02891741879284382 -0.9986256957054138
vn 0.565835177898407 0.03779754787683487 -0.8236515522003174
vn 0.9098616242408752 0.1055026724934578 -0.401274174451828
vn 0.9681061506271362 0.20963354408740997 0.1372016966342926
vn 0.7231524586677551 0.3082115352153778 0.6181069612503052
vn 0.5478310585021973 0.43343567848205566 0.715552031993866
vn 0.04134932532906532 0.4798221290111542 0.8763908743858337
vn 0.8875110149383545 0.3395381569862366 0.31150925159454346
vn 0.9478852152824402 0.23931926488876343 -0.2103329300880432
vn 0.7119324803352356 0.157508984208107 -0.6843559741973877
vn 0.25127580761909485 0.12400328367948532 -0.9599394202232361
vn -0.2824101150035858 0.14559254050254822 -0.9481810927391052
vn -0.721712589263916 0.2233722060918808 -0.6551609039306641
vn -0.9321516752243042 0.3187479078769684 -0.17173540592193604
vn -0.840186595916748 0.415386438369751 0.34862664341926575
vn 0.04134932532906532 0.4798221290111542 0.8763908743858337
vn -0.47929179668426514 0.47262826561927795 0.7395281791687012
vn -0.6638410091400146 0.3781927525997162 0.6452018022537231
vn -0.9372487664222717 0.3009573221206665 0.1760382205247879
vn -0.9986851811408997 0.04528285190463066 0.024029340595006943
vn -0.840186595916748 0.415386438369751 0.34862664341926575
vn -0.910413920879364 0.20226360857486725 -0.36088213324546814
vn -0.9321516752243042 0.3187479078769684 -0.17173540592193604
vn -0.5925969481468201 0.10896676778793335 -0.7980946898460388
vn -0.7258617877960205 0.2195712774991989 -0.651853621006012
vn -0.08343618363142014 0.04743736982345581 -0.9953833818435669
vn -0.2824101150035858 0.14559254050254822 -0.9481810927391052
vn 0.4562193751335144 0.04528980702161789 -0.888714075088501
vn 0.25127580761909485 0.12400328367948532 -0.9599394202232361
vn 0.8514015674591064 0.1054263636469841 -0.5138099193572998
vn 0.7119324803352356 0.157508984208107 -0.6843559741973877
vn 0.9807267785072327 0.19507868587970734 0.010923261754214764
vn 0.9478852152824402 0.23931926488876343 -0.2103329300880432
vn 0.800406813621521 0.3024686872959137 0.5175535082817078
vn 0.8875110149383545 0.3395381569862366 0.31150925159454346
vn 0.37183475494384766 0.37848615646362305 0.8476362228393555
vn 0.5524783134460449 0.4274962246417999 0.715552031993866
vn -0.17401005327701569 0.41149359941482544 0.8946471214294434
vn 0.04134932532906532 0.4798221290111542 0.8763908743858337
vn -0.6600784063339233 0.38472217321395874 0.6452018022537231
vn -0.822995662689209 0.13894419372081757 0.5507928133010864
vn -0.9987804889678955 0.04528717324137688 0.01966099627315998
vn -0.3874428868293762 0.18896852433681488 0.9023185968399048
vn 0.17295964062213898 0.17561766505241394 0.9691457152366638
vn 0.6766570210456848 0.11251203715801239 0.7276512384414673
vn 0.9663659930229187 0.007542832288891077 0.25706008076667786
vn 0.9491997957229614 -0.09799325466156006 -0.2990269064903259
vn 0.6305011510848999 -0.17187801003456116 -0.7569189071655273
vn 0.11376884579658508 -0.18946592509746552 -0.9752739667892456
vn -0.4406255781650543 -0.15231995284557343 -0.8846737742424011
vn -0.8557789921760559 -0.06034642830491066 -0.5138099193572998
vn -0.7197712063789368 -0.3226681351661682 -0.6146662831306458
vn -0.25053849816322327 -0.38857343792915344 -0.8867024183273315
vn -0.03778593987226486 -0.4801158905029297 -0.8763908743858337
vn 0.29556500911712646 -0.4087406396865845 -0.8634653687477112
vn 0.7472399473190308 -0.3718329966068268 -0.5507928133010864
vn 0.9575774073600769 -0.28295838832855225 -0.05459024757146835
vn 0.8609314560890198 -0.1799093633890152 0.4758462607860565
vn 0.4886658489704132 -0.08977194130420685 0.8678402304649353
vn -0.04053890332579613 -0.045758962631225586 0.9981296062469482
vn -0.5642841458320618 -0.05640505999326706 0.8236515522003174
vn -0.9075157642364502 -0.12407311052083969 0.401274174451828
vn -0.9662233591079712 -0.2208106964826584 -0.1328723281621933
vn -0.7197712063789368 -0.3226681351661682 -0.6146662831306458
vn -0.549670398235321 -0.43110066652297974 -0.715552031993866
vn -0.03778593987226486 -0.4801158905029297 -0.8763908743858337
vn -0.8888525366783142 -0.336010605096817 -0.31150925159454346
vn -0.9479578733444214 -0.23903127014636993 0.2103329300880432
vn -0.7120450735092163 -0.15699902176856995 0.6843559741973877
vn -0.25151827931404114 -0.12351077049970627 0.9599394202232361
vn 0.282929390668869 -0.1445808857679367 0.9481810927391052
vn 0.7248650193214417 -0.2228398323059082 0.651853621006012
vn 0.9329807162284851 -0.3186132609844208 0.16742929816246033
vn 0.840186595916748 -0.415386438369751 -0.34862664341926575
vn 0.48128199577331543 -0.4706014394760132 -0.7395281791687012
vn 0.6626420617103577 -0.36877143383026123 -0.651853621006012
vn 0.9397998452186584 -0.29026636481285095 -0.18033768236637115
vn 0.9986851811408997 -0.04528285190463066 -0.024029340595006943
vn 0.9136186242103577 -0.18725667893886566 0.36088213324546814
vn 0.5957486629486084 -0.09015783667564392 0.7980946898460388
vn 0.08429636061191559 -0.0359153226017952 0.9957932829856873
vn -0.4533099830150604 -0.033880919218063354 0.8907088041305542
vn -0.8535270094871521 -0.0865507647395134 0.5138099193572998
vn -0.9835612177848816 -0.18024428188800812 -0.010923261754214764
vn -0.803057849407196 -0.2887172996997833 -0.5212872624397278
vn -0.3745688199996948 -0.36521846055984497 -0.8522403836250305
vn 0.17255467176437378 -0.39932066202163696 -0.9004265069961548
vn 0.6657175421714783 -0.36908525228500366 -0.6485338807106018
vn 0.8235835433006287 -0.13541574776172638 -0.5507928133010864
vn 0.9987804889678955 -0.04528717324137688 -0.01966099627315998
vn 0.3869625926017761 -0.1899501234292984 -0.9023185968399048
vn -0.16955731809139252 -0.17890477180480957 -0.9691457152366638
vn -0.6765918731689453 -0.11290321499109268 -0.7276512384414673
vn -0.9663659334182739 -0.007552213501185179 -0.25706008076667786
vn -0.9491997957229614 0.09799325466156006 0.2990269064903259
vn -0.6316454410552979 0.16762390732765198 0.7569189071655273
vn -0.1126592680811882 0.19012778997421265 0.9752739667892456
vn 0.44209524989128113 0.14800021052360535 0.8846737742424011
vn 0.8552223443984985 0.06778009980916977 0.5138099193572998
vn 0.7231524586677551 0.3082115352153778 0.6181069612503052
vn 0.24763160943984985 0.38120394945144653 0.8907088041305542
vn 0.04134932532906532 0.4798221290111542 0.8763908743858337
vn -0.47929179668426514 0.47262826561927795 0.7395281791687012
vn -0.30258339643478394 0.3940769135951996 0.8678402304649353
vn -0.7530540227890015 0.3542769253253937 0.5544344186782837
vn -0.9607248902320862 0.27208006381988525 0.05459024757146835
vn -0.8638929724693298 0.16510382294654846 -0.4758462607860565
vn -0.4872683882713318 0.07526322454214096 -0.8700028657913208
vn 0.04370872303843498 0.02891741879284382 -0.9986256957054138
vn 0.5652806162834167 0.04534225910902023 -0.8236515522003174
vn 0.9098616242408752 0.1055026724934578 -0.401274174451828
vn 0.9681061506271362 0.20963354408740997 0.1372016966342926
vn 0.7231524586677551 0.3082115352153778 0.6181069612503052
vn 0.5524783134460449 0.4274962246417999 0.715552031993866
vn 0.04134932532906532 0.4798221290111542 0.8763908743858337
vn 0.8875110149383545 0.3395381569862366 0.31150925159454346
vn 0.9478852152824402 0.23931926488876343 -0.2103329300880432
vn 0.7119324803352356 0.157508984208107 -0.6843559741973877
vn 0.25127580761909485 0.12400328367948532 -0.9599394202232361
vn -0.2824101150035858 0.14559254050254822 -0.9481810927391052
vn -0.7258617877960205 0.2195712774991989 -0.651853621006012
vn -0.9321516752243042 0.3187479078769684 -0.17173540592193604
vn -0.840186595916748 0.415386438369751 0.34862664341926575
vn -0.1571056842803955 0.4713503122329712 0.8678402304649353
vn -0.47766566276550293 0.46966513991355896 0.7424622178077698
vn -0.8221091032028198 0.3349123001098633 0.46040233969688416
vn -0.9395300149917603 0.2937581539154053 0.1760382205247879
vn -0.9661298394203186 -0.02265479601919651 -0.25706008076667786
vn -0.8402361273765564 0.4118165373802185 0.3527185618877411
vn -0.9120217561721802 0.19488553702831268 -0.36088213324546814
vn -0.9328528046607971 0.3189876675605774 -0.16742929816246033
vn -0.5925969481468201 0.10896676778793335 -0.7980946898460388
vn -0.7258617877960205 0.2195712774991989 -0.651853621006012
vn -0.08458653092384338 0.053950097411870956 -0.994954526424408
vn -0.2851373851299286 0.14932262897491455 -0.946783721446991
vn 0.45541051030158997 0.05280695855617523 -0.888714075088501
vn 0.25127580761909485 0.12400328367948532 -0.9599394202232361
vn 0.8514015674591064 0.1054263636469841 -0.5138099193572998
vn 0.7102611064910889 0.1648818999528885 -0.6843559741973877
vn 0.9792255759239197 0.20247940719127655 0.010923261754214764
vn 0.9478852152824402 0.23931926488876343 -0.2103329300880432
vn 0.800406813621521 0.3024686872959137 0.5175535082817078
vn 0.8875110149383545 0.3395381569862366 0.31150925159454346
vn 0.36719489097595215 0.37783461809158325 0.8499464392662048
vn 0.5490325093269348 0.42682668566703796 0.7185974717140198
vn -0.17898166179656982 0.40508100390434265 0.8965907096862793
vn 0.04134932532906532 0.4798221290111542 0.8763908743858337
vn -0.6638410091400146 0.3781927525997162 0.6452018022537231
vn -0.8242180943489075 0.1314982920885086 0.5507928133010864
vn -0.9986851811408997 0.04528285190463066 0.024029340595006943
vn -0.39068183302879333 0.18217793107032776 0.9023185968399048
vn 0.17295964062213898 0.17561766505241394 0.9691457152366638
vn 0.6766570210456848 0.11251203715801239 0.7276512384414673
vn 0.9662776589393616 0.015085204504430294 0.25706008076667786
vn 0.9499455094337463 -0.09047893434762955 -0.2990269064903259
vn 0.6324477195739746 -0.16457098722457886 -0.7569189071655273
vn 0.11485249549150467 -0.18380241096019745 -0.976230263710022
vn -0.4406255781650543 -0.15231995284557343 -0.8846737742424011
vn -0.8552148342132568 -0.06787483394145966 -0.5138099193572998
vn -0.5101867914199829 -0.3519798219203949 -0.7847417593002319
vn -0.25053849816322327 -0.38857343792915344 -0.8867024183273315
vn 0.1812896728515625 -0.4747389256954193 -0.8612531423568726
vn 0.3016608953475952 -0.4042626619338989 -0.8634653687477112
vn 0.7479274272918701 -0.3649754226207733 -0.5544344186782837
vn 0.9596894383430481 -0.2757101058959961 -0.05459024757146835
vn 0.8624439835548401 -0.172512948513031 0.4758462607860565
vn 0.4886658489704132 -0.08977194130420685 0.8678402304649353
vn -0.04053890332579613 -0.045758962631225586 0.9981296062469482
vn -0.5642841458320618 -0.05640505999326706 0.8236515522003174
vn -0.9075157642364502 -0.12407311052083969 0.401274174451828
vn -0.9662233591079712 -0.2208106964826584 -0.1328723281621933
vn -0.7197712063789368 -0.3226681351661682 -0.6146662831306458
vn -0.548055112361908 -0.4280809760093689 -0.7185974717140198
vn -0.03778593987226486 -0.4801158905029297 -0.8763908743858337
vn -0.8861554861068726 -0.34306037425994873 -0.31150925159454346
vn -0.9479578733444214 -0.23903127014636993 0.2103329300880432
vn -0.7103846669197083 -0.16434891521930695 0.6843559741973877
vn -0.24811159074306488 -0.1302190124988556 0.9599394202232361
vn 0.28391972184181213 -0.15162505209445953 0.946783721446991
vn 0.7270445823669434 -0.21562251448631287 0.651853621006012
vn 0.9329807162284851 -0.3186132609844208 0.16742929816246033
vn 0.8416528105735779 -0.40891334414482117 -0.3527185618877411
vn 0.48228514194488525 -0.4649202823638916 -0.7424622178077698
vn 0.7793760299682617 -0.358569860458374 -0.5138099193572998
vn 0.9420017004013062 -0.2830391228199005 -0.18033768236637115
vn 0.9900985360145569 -0.04527495428919792 0.1328723281621933
vn 0.915203332901001 -0.18733370304107666 0.3568037748336792
vn 0.5957486629486084 -0.09015783667564392 0.7980946898460388
vn 0.08884973078966141 -0.03629910945892334 0.9953833818435669
vn -0.45268604159355164 -0.0413910411298275 0.8907088041305542
vn -0.8527334928512573 -0.09404784440994263 0.5138099193572998
vn -0.9821720123291016 -0.18766683340072632 -0.010923261754214764
vn -0.803057849407196 -0.2887172996997833 -0.5212872624397278
vn -0.3745688199996948 -0.36521846055984497 -0.8522403836250305
vn 0.17945928871631622 -0.3962656557559967 -0.9004265069961548
vn 0.6626420617103577 -0.36877143383026123 -0.651853621006012
vn 0.8235835433006287 -0.13541574776172638 -0.5507928133010864
vn 0.9986851811408997 -0.04528285190463066 -0.024029340595006943
vn 0.39023658633232117 -0.18312972784042358 -0.9023185968399048
vn -0.174960196018219 -0.1736246943473816 -0.9691457152366638
vn -0.6765918731689453 -0.11290321499109268 -0.7276512384414673
vn -0.9662773609161377 -0.015103965997695923 -0.25706008076667786
vn -0.9499455094337463 0.09047893434762955 0.2990269064903259
vn -0.6335359215736389 0.16033083200454712 0.7569189071655273
vn -0.11052067577838898 0.18643927574157715 0.976230263710022
vn 0.44209524989128113 0.14800021052360535 0.8846737742424011
vn 0.8574596643447876 0.06786210834980011 0.5100564956665039
vn 0.6072285175323486 0.31214842200279236 0.7306414246559143
vn 0.24881574511528015 0.3757679760456085 0.8926864862442017
vn -0.1571056842803955 0.4713503122329712 0.8678402304649353
vn -0.47766566276550293 0.46966513991355896 0.7424622178077698
vn -0.30258339643478394 0.3940769135951996 0.8678402304649353
vn -0.753594160079956 0.3473597466945648 0.5580654144287109
vn -0.9627546072006226 0.2648082971572876 0.05459024757146835
vn -0.8638929724693298 0.16510382294654846 -0.4758462607860565
vn -0.4905177354812622 0.0790296420454979 -0.8678402304649353
vn 0.04455427825450897 0.035184163600206375 -0.9983872175216675
vn 0.5652806162834167 0.04534225910902023 -0.8236515522003174
vn 0.90896075963974 0.11300140619277954 -0.401274174451828
vn 0.9681061506271362 0.20963354408740997 0.1372016966342926
vn 0.7231524586677551 0.3082115352153778 0.6181069612503052
vn 0.5490325093269348 0.42682668566703796 0.7185974717140198
vn 0.04134932532906532 0.4798221290111542 0.8763908743858337
vn 0.8875110149383545 0.3395381569862366 0.31150925159454346
vn 0.9478852152824402 0.23931926488876343 -0.2103329300880432
vn 0.7102611064910889 0.1648818999528885 -0.6843559741973877
vn 0.25127580761909485 0.12400328367948532 -0.9599394202232361
vn -0.2851373851299286 0.14932262897491455 -0.946783721446991
vn -0.7258617877960205 0.2195712774991989 -0.651853621006012
vn -0.9328528046607971 0.3189876675605774 -0.16742929816246033
vn -0.8402361273765564 0.4118165373802185 0.3527185618877411
s on
f 1//1 2//2 3//3
f 2//2 4//4 3//3
f 3//3 4//4 5//5
f 4//4 6//6 5//5
f 5//5 6//6 7//7
f 6//6 8//8 7//7
f 7//7 8//8 9//9
f 8//8 10//10 9//9
f 9//9 10//10 11//11
f 10//10 12//12 11//11
f 11//11 12//12 13//13
f 12//12 14//14 13//13
f 13//13 14//14 15//15
f 14//14 16//16 15//15
f 15//15 16//16 17//17
f 16//16 18//18 17//17
f 17//17 18//18 19//19
f 18//18 20//20 19//19
f 19//19 20//20 21//21
f 20//20 22//22 21//21
f 21//21 22//22 23//23
f 23//23 22//22 24//24
f 22//22 25//25 24//24
f 24//24 25//25 26//26
f 4//4 2//2 27//27
f 25//25 22//22 28//28
f 22//22 20//20 28//28
f 28//28 20//20 29//29
f 20//20 18//18 29//29
f 29//29 18//18 30//30
f 18//18 16//16 30//30
f 30//30 16//16 31//31
f 16//16 14//14 31//31
f 31//31 14//14 32//32
f 14//14 12//12 32//32
f 32//32 12//12 33//33
f 12//12 10//10 33//33
f 33//33 10//10 34//34
f 10//10 8//8 34//34
f 34//34 8//8 35//35
f 8//8 6//6 35//35
f 35//35 6//6 36//36
f 6//6 4//4 36//36
f 4//4 27//27 36//36
f 27//27 37//37 36//36
f 36//36 37//37 38//38
f 37//37 39//39 38//38
f 36//36 38//38 35//35
f 38//38 40//40 35//35
f 35//35 40//40 34//34
f 40//40 41//41 34//34
f 34//34 41//41 33//33
f 41//41 42//42 33//33
f 33//33 42//42 32//32
f 42//42 43//43 32//32
f 32//32 43//43 31//31
f 43//43 44//44 31//31
f 31//31 44//44 30//30
f 44//44 45//45 30//30
f 30//30 45//45 29//29
f 45//45 46//46 29//29
f 29//29 46//46 28//28
f 46//46 47//47 28//28
f 28//28 47//47 25//25
f 47//47 48//48 25//25
f 25//25 48//48 26//26
f 26//26 48//48 49//49
f 48//48 50//50 49//49
f 49//49 50//50 51//51
f 50//50 48//48 52//52
f 48//48 47//47 52//52
f 52//52 47//47 53//53
f 47//47 46//46 53//53
f 53//53 46//46 54//54
f 46//46 45//45 54//54
f 54//54 45//45 55//55
f 45//45 44//44 55//55
f 55//55 44//44 56//56
f 44//44 43//43 56//56
f 56//56 43//43 57//57
f 43//43 42//42 57//57
f 57//57 42//42 58//58
f 42//42 41//41 58//58
f 58//58 41//41 59//59
f 41//41 40//40 59//59
f 59//59 40//40 60//60
f 40//40 38//38 60//60
f 38//38 39//39 60//60
f 39//39 61//61 60//60
f 60//60 61//61 62//62
f 61//61 63//63 62//62
f 60//60 62//62 59//59
f 62//62 64//64 59//59
f 59//59 64//64 58//58
f 64//64 65//65 58//58
f 58//58 65//65 57//57
f 65//65 66//66 57//57
f 57//57 66//66 56//56
f 66//66 67//67 56//56
f 56//56 67//67 55//55
f 67//67 68//68 55//55
f 55//55 68//68 54//54
f 68//68 69//69 54//54
f 54//54 69//69 53//53
f 69//69 70//70 53//53
f 53//53 70//70 52//52
f 70//70 71//71 52//52
f 52//52 71//71 50//50
f 71//71 72//72 50//50
f 50//50 72//72 51//51
f 51//51 72//72 73//73
f 72//72 74//74 73//73
f 73//73 74//74 75//75
f 74//74 72//72 76//76
f 72//72 71//71 76//76
f 76//76 71//71 77//77
f 71//71 70//70 77//77
f 77//77 70//70 78//78
f 70//70 69//69 78//78
f 78//78 69//69 79//79
f 69//69 68//68 79//79
f 79//79 68//68 80//80
f 68//68 67//67 80//80
f 80//80 67//67 81//81
f 67//67 66//66 81//81
f 81//81 66//66 82//82
f 66//66 65//65 82//82
f 82//82 65//65 83//83
f 65//65 64//64 83//83
f 83//83 64//64 84//84
f 64//64 62//62 84//84
f 62//62 63//63 84//84
f 63//63 85//85 84//84
f 84//84 85//85 86//86
f 85//85 87//87 86//86
f 87//87 88//88 86//86
f 88//88 89//89 86//86
f 86//86 89//89 83//83
f 83//83 89//89 82//82
f 89//89 90//90 82//82
f 82//82 90//90 81//81
f 90//90 91//91 81//81
f 81//81 91//91 80//80
f 91//91 92//92 80//80
f 80//80 92//92 79//79
f 92//92 93//93 79//79
f 79//79 93//93 78//78
f 93//93 94//94 78//78
f 78//78 94//94 77//77
f 94//94 95//95 77//77
f 77//77 95//95 76//76
f 95//95 96//96 76//76
f 76//76 96//96 74//74
f 96//96 97//97 74//74
f 74//74 97//97 75//75
f 75//75 97//97 98//98
f 97//97 99//99 98//98
f 98//98 99//99 100//100
f 83//83 84//84 86//86
f 99//99 97//97 101//101
f 97//97 96//96 101//101
f 101//101 96//96 102//102
f 96//96 95//95 102//102
f 102//102 95//95 103//103
f 95//95 94//94 103//103
f 103//103 94//94 104//104
f 94//94 93//93 104//104
f 104//104 93//93 105//105
f 93//93 92//92 105//105
f 105//105 92//92 106//106
f 92//92 91//91 106//106
f 106//106 91//91 107//107
f 91//91 90//90 107//107
f 107//107 90//90 108//108
f 90//90 89//89 108//108
f 108//108 89//89 88//88
f 109//109 111//111 110//110
f 110//110 111//111 112//112
f 111//111 113//113 112//112
f 110//110 112//112 114//114
f 112//112 115//115 114//114
f 114//114 115//115 116//116
f 115//115 117//117 116//116
f 116//116 117//117 118//118
f 117//117 119//119 118//118
f 118//118 119//119 120//120
f 119//119 121//121 120//120
f 120//120 121//121 122//122
f 121//121 123//123 122//122
f 122//122 123//123 124//124
f 123//123 125//125 124//124
f 124//124 125//125 126//126
f 125//125 127//127 126//126
f 126//126 127//127 128//128
f 127//127 129//129 128//128
f 128//128 129//129 130//130
f 129//129 131//131 130//130
f 130//130 131//131 132//132
f 132//132 131//131 133//133
f 131//131 134//134 133//133
f 133//133 134//134 135//135
f 134//134 131//131 136//136
f 131//131 129//129 136//136
f 136//136 129//129 137//137
f 129//129 127//127 137//137
f 137//137 127//127 138//138
f 127//127 125//125 138//138
f 138//138 125//125 139//139
f 125//125 123//123 139//139
f 139//139 123//123 140//140
f 123//123 121//121 140//140
f 140//140 121//121 141//141
f 121//121 119//119 141//141
f 141//141 119//119 142//142
f 119//119 117//117 142//142
f 142//142 117//117 143//143
f 117//117 115//115 143//143
f 143//143 115//115 144//144
f 115//115 112//112 144//144
f 112//112 113//113 144//144
f 113//113 145//145 144//144
f 144//144 145//145 146//146
f 145//145 147//147 146//146
f 144//144 146//146 143//143
f 146//146 148//148 143//143
f 143//143 148//148 142//142
f 148//148 149//149 142//142
f 142//142 149//149 141//141
f 149//149 150//150 141//141
f 141//141 150//150 140//140
f 150//150 151//151 140//140
f 140//140 151//151 139//139
f 151//151 152//152 139//139
f 139//139 152//152 138//138
f 152//152 153//153 138//138
f 138//138 153//153 137//137
f 153//153 154//154 137//137
f 137//137 154//154 136//136
f 154//154 155//155 136//136
f 136//136 155//155 134//134
f 155//155 156//156 134//134
f 134//134 156//156 135//135
f 135//135 156//156 157//157
f 156//156 158//158 157//157
f 157//157 158//158 159//159
f 158//158 156//156 160//160
f 156//156 155//155 160//160
f 160//160 155//155 161//161
f 155//155 154//154 161//161
f 161//161 154//154 162//162
f 154//154 153//153 162//162
f 162//162 153//153 163//163
f 153//153 152//152 163//163
f 163//163 152//152 164//164
f 152//152 151//151 164//164
f 164//164 151//151 165//165
f 151//151 150//150 165//165
f 165//165 150//150 166//166
f 150//150 149//149 166//166
f 166//166 149//149 167//167
f 149//149 148//148 167//167
f 167//167 148//148 168//168
f 148//148 146//146 168//168
f 146//146 147//147 168//168
f 147//147 169//169 168//168
f 168//168 169//169 170//170
f 169//169 171//171 170//170
f 168//168 170//170 167//167
f 170//170 172//172 167//167
f 167//167 172//172 166//166
f 172//172 173//173 166//166
f 166//166 173//173 165//165
f 173//173 174//174 165//165
f 165//165 174//174 164//164
f 174//174 175//175 164//164
f 164//164 175//175 163//163
f 175//175 176//176 163//163
f 163//163 176//176 162//162
f 176//176 177//177 162//162
f 162//162 177//177 161//161
f 177//177 178//178 161//161
f 161//161 178//178 160//160
f 178//178 179//179 160//160
f 160//160 179//179 158//158
f 179//179 180//180 158//158
f 158//158 180//180 159//159
f 159//159 180//180 181//181
f 180//180 182//182 181//181
f 181//181 182//182 183//183
f 182//182 180//180 184//184
f 180//180 179//179 184//184
f 184//184 179//179 185//185
f 179//179 178//178 185//185
f 185//185 178//178 186//186
f 178//178 177//177 186//186
f 186//186 177//177 187//187
f 177//177 176//176 187//187
f 187//187 176//176 188//188
f 176//176 175//175 188//188
f 188//188 175//175 189//189
f 175//175 174//174 189//189
f 189//189 174//174 190//190
f 174//174 173//173 190//190
f 190//190 173//173 191//191
f 173//173 172//172 191//191
f 191//191 172//172 192//192
f 172//172 170//170 192//192
f 170//170 171//171 192//192
f 171//171 193//193 192//192
f 192//192 193//193 194//194
f 193//193 195//195 194//194
f 195//195 196//196 194//194
f 196//196 197//197 194//194
f 194//194 197//197 191//191
f 191//191 197//197 190//190
f 197//197 198//198 190//190
f 190//190 198//198 189//189
f 198//198 199//199 189//189
f 189//189 199//199 188//188
f 199//199 200//200 188//188
f 188//188 200//200 187//187
f 200//200 201//201 187//187
f 187//187 201//201 186//186
f 201//201 202//202 186//186
f 186//186 202//202 185//185
f 202//202 203//203 185//185
f 185//185 203//203 184//184
f 203//203 204//204 184//184
f 184//184 204//204 182//182
f 204//204 205//205 182//182
f 182//182 205//205 183//183
f 183//183 205//205 206//206
f 205//205 207//207 206//206
f 206//206 207//207 208//208
f 191//191 192//192 194//194
f 207//207 205//205 209//209
f 205//205 204//204 209//209
f 209//209 204//204 210//210
f 204//204 203//203 210//210
f 210//210 203//203 211//211
f 203//203 202//202 211//211
f 211//211 202//202 212//212
f 202//202 201//201 212//212
f 212//212 201//201 213//213
f 201//201 200//200 213//213
f 213//213 200//200 214//214
f 200//200 199//199 214//214
f 214//214 199//199 215//215
f 199//199 198//198 215//215
f 215//215 198//198 216//216
f 198//198 197//197 216//216
f 216//216 197//197 196//196
f 217//217 219//219 218//218
f 218//218 219//219 220//220
f 219//219 221//221 220//220
f 218//218 220//220 222//222
f 220//220 223//223 222//222
f 222//222 223//223 224//224
f 223//223 225//225 224//224
f 224//224 225//225 226//226
f 225//225 227//227 226//226
f 226//226 227//227 228//228
f 227//227 229//229 228//228
f 228//228 229//229 230//230
f 229//229 231//231 230//230
f 230//230 231//231 232//232
f 231//231 233//233 232//232
f 232//232 233//233 234//234
f 233//233 235//235 234//234
f 234//234 235//235 236//236
f 235//235 237//237 236//236
f 236//236 237//237 238//238
f 237//237 239//239 238//238
f 238//238 239//239 240//240
f 240//240 239//239 241//241
f 239//239 242//242 241//241
f 241//241 242//242 243//243
f 242//242 239//239 244//244
f 239//239 237//237 244//244
f 244//244 237//237 245//245
f 237//237 235//235 245//245
f 245//245 235//235 246//246
f 235//235 233//233 246//246
f 246//246 233//233 247//247
f 233//233 231//231 247//247
f 247//247 231//231 248//248
f 231//231 229//229 248//248
f 248//248 229//229 249//249
f 229//229 227//227 249//249
f 249//249 227//227 250//250
f 227//227 225//225 250//250
f 250//250 225//225 251//251
f 225//225 223//223 251//251
f 251//251 223//223 252//252
f 223//223 220//220 252//252
f 220//220 221//221 252//252
f 221//221 253//253 252//252
f 252//252 253//253 254//254
f 253//253 255//255 254//254
f 252//252 254//254 251//251
f 254//254 256//256 251//251
f 251//251 256//256 250//250
f 256//256 257//257 250//250
f 250//250 257//257 249//249
f 257//257 258//258 249//249
f 249//249 258//258 248//248
f 258//258 259//259 248//248
f 248//248 259//259 247//247
f 259//259 260//260 247//247
f 247//247 260//260 246//246
f 260//260 261//261 246//246
f 246//246 261//261 245//245
f 261//261 262//262 245//245
f 245//245 262//262 244//244
f 262//262 263//263 244//244
f 244//244 263//263 242//242
f 263//263 264//264 242//242
f 242//242 264//264 243//243
f 243//243 264//264 265//265
f 264//264 266//266 265//265
f 265//265 266//266 267//267
f 266//266 264//264 268//268
f 264//264 263//263 268//268
f 268//268 263//263 269//269
f 263//263 262//262 269//269
f 269//269 262//262 270//270
f 262//262 261//261 270//270
f 270//270 261//261 271//271
f 261//261 260//260 271//271
f 271//271 260//260 272//272
f 260//260 259//259 272//272
f 272//272 259//259 273//273
f 259//259 258//258 273//273
f 273//273 258//258 274//274
f 258//258 257//257 274//274
f 274//274 257//257 275//275
f 257//257 256//256 275//275
f 275//275 256//256 276//276
f 256//256 254//254 276//276
f 254//254 255//255 276//276
f 255//255 277//277 276//276
f 276//276 277//277 278//278
f 277//277 279//279 278//278
f 276//276 278//278 275//275
f 278//278 280//280 275//275
f 275//275 280//280 274//274
f 280//280 281//281 274//274
f 274//274 281//281 273//273
f 281//281 282//282 273//273
f 273//273 282//282 272//272
f 282//282 283//283 272//272
f 272//272 283//283 271//271
f 283//283 284//284 271//271
f 271//271 284//284 270//270
f 284//284 285//285 270//270
f 270//270 285//285 269//269
f 285//285 286//286 269//269
f 269//269 286//286 268//268
f 286//286 287//287 268//268
f 268//268 287//287 266//266
f 287//287 288//288 266//266
f 266//266 288//288 267//267
f 267//267 288//288 289//289
f 288//288 290//290 289//289
f 289//289 290//290 291//291
f 290//290 288//288 292//292
f 288//288 287//287 292//292
f 292//292 287//287 293//293
f 287//287 286//286 293//293
f 293//293 286//286 294//294
f 286//286 285//285 294//294
f 294//294 285//285 295//295
f 285//285 284//284 295//295
f 295//295 284//284 296//296
f 284//284 283//283 296//296
f 296//296 283//283 297//297
f 283//283 282//282 297//297
f 297//297 282//282 298//298
f 282//282 281//281 298//298
f 298//298 281//281 299//299
f 281//281 280//280 299//299
f 299//299 280//280 300//300
f 280//280 278//278 300//300
f 278//278 279//279 300//300
f 279//279 301//301 300//300
f 300//300 301//301 302//302
f 301//301 303//303 302//302
f 303//303 304//304 302//302
f 304//304 305//305 302//302
f 302//302 305//305 299//299
f 299//299 305//305 298//298
f 305//305 306//306 298//298
f 298//298 306//306 297//297
f 306//306 307//307 297//297
f 297//297 307//307 296//296
f 307//307 308//308 296//296
f 296//296 308//308 295//295
f 308//308 309//309 295//295
f 295//295 309//309 294//294
f 309//309 310//310 294//294
f 294//294 310//310 293//293
f 310//310 311//311 293//293
f 293//293 311//311 292//292
f 311//311 312//312 292//292
f 292//292 312//312 290//290
f 312//312 313//313 290//290
f 290//290 313//313 291//291
f 291//291 313//313 314//314
f 313//313 315//315 314//314
f 314//314 315//315 316//316
f 299//299 300//300 302//302
f 315//315 313//313 317//317
f 313//313 312//312 317//317
f 317//317 312//312 318//318
f 312//312 311//311 318//318
f 318//318 311//311 319//319
f 311//311 310//310 319//319
f 319//319 310//310 320//320
f 310//310 309//309 320//320
f 320//320 309//309 321//321
f 309//309 308//308 321//321
f 321//321 308//308 322//322
f 308//308 307//307 322//322
f 322//322 307//307 323//323
f 307//307 306//306 323//323
f 323//323 306//306 324//324
f 306//306 305//305 324//324
f 324//324 305//305 304//304
f 325//325 327//327 326//326
f 326//326 327//327 328//328
f 327//327 329//329 328//328
f 326//326 328//328 330//330
f 328//328 331//331 330//330
f 330//330 331//331 332//332
f 331//331 333//333 332//332
f 332//332 333//333 334//334
f 333//333 335//335 334//334
f 334//334 335//335 336//336
f 335//335 337//337 336//336
f 336//336 337//337 338//338
f 337//337 339//339 338//338
f 338//338 339//339 340//340
f 339//339 341//341 340//340
f 340//340 341//341 342//342
f 341//341 343//343 342//342
f 342//342 343//343 344//344
f 343//343 345//345 344//344
f 344//344 345//345 346//346
f 345//345 347//347 346//346
f 346//346 347//347 348//348
f 348//348 347//347 349//349
f 347//347 350//350 349//349
f 349//349 350//350 351//351
f 350//350 347//347 352//352
f 347//347 345//345 352//352
f 352//352 345//345 353//353
f 345//345 343//343 353//353
f 353//353 343//343 354//354
f 343//343 341//341 354//354
f 354//354 341//341 355//355
f 341//341 339//339 355//355
f 355//355 339//339 356//356
f 339//339 337//337 356//356
f 356//356 337//337 357//357
f 337//337 335//335 357//357
f 357//357 335//335 358//358
f 335//335 333//333 358//358
f 358//358 333//333 359//359
f 333//333 331//331 359//359
f 359//359 331//331 360//360
f 331//331 328//328 360//360
f 328//328 329//329 360//360
f 329//329 361//361 360//360
f 360//360 361//361 362//362
f 361//361 363//363 362//362
f 360//360 362//362 359//359
f 362//362 364//364 359//359
f 359//359 364//364 358//358
f 364//364 365//365 358//358
f 358//358 365//365 357//357
f 365//365 366//366 357//357
f 357//357 366//366 356//356
f 366//366 367//367 356//356
f 356//356 367//367 355//355
f 367//367 368//368 355//355
f 355//355 368//368 354//354
f 368//368 369//369 354//354
f 354//354 369//369 353//353
f 369//369 370//370 353//353
f 353//353 370//370 352//352
f 370//370 371//371 352//352
f 352//352 371//371 350//350
f 371//371 372//372 350//350
f 350//350 372//372 351//351
f 351//351 372//372 373//373
f 372//372 374//374 373//373
f 373//373 374//374 375//375
f 374//374 372//372 376//376
f 372//372 371//371 376//376
f 376//376 371//371 377//377
f 371//371 370//370 377//377
f 377//377 370//370 378//378
f 370//370 369//369 378//378
f 378//378 369//369 379//379
f 369//369 368//368 379//379
f 379//379 368//368 380//380
f 368//368 367//367 380//380
f 380//380 367//367 381//381
f 367//367 366//366 381//381
f 381//381 366//366 382//382
f 366//366 365//365 382//382
f 382//382 365//365 383//383
f 365//365 364//364 383//383
f 383//383 364//364 384//384
f 364//364 362//362 384//384
f 362//362 363//363 384//384
f 363//363 385//385 384//384
f 384//384 385//385 386//386
f 385//385 387//387 386//386
f 384//384 386//386 383//383
f 386//386 388//388 383//383
f 383//383 388//388 382//382
f 388//388 389//389 382//382
f 382//382 389//389 381//381
f 389//389 390//390 381//381
f 381//381 390//390 380//380
f 390//390 391//391 380//380
f 380//380 391//391 379//379
f 391//391 392//392 379//379
f 379//379 392//392 378//378
f 392//392 393//393 378//378
f 378//378 393//393 377//377
f 393//393 394//394 377//377
f 377//377 394//394 376//376
f 394//394 395//395 376//376
f 376//376 395//395 374//374
f 395//395 396//396 374//374
f 374//374 396//396 375//375
f 375//375 396//396 397//397
f 396//396 398//398 397//397
f 397//397 398//398 399//399
f 398//398 396//396 400//400
f 396//396 395//395 400//400
f 400//400 395//395 401//401
f 395//395 394//394 401//401
f 401//401 394//394 402//402
f 394//394 393//393 402//402
f 402//402 393//393 403//403
f 393//393 392//392 403//403
f 403//403 392//392 404//404
f 392//392 391//391 404//404
f 404//404 391//391 405//405
f 391//391 390//390 405//405
f 405//405 390//390 406//406
f 390//390 389//389 406//406
f 406//406 389//389 407//407
f 389//389 388//388 407//407
f 407//407 388//388 408//408
f 388//388 386//386 408//408
f 386//386 387//387 408//408
f 387//387 409//409 408//408
f 408//408 409//409 410//410
f 409//409 411//411 410//410
f 411//411 412//412 410//410
f 412//412 413//413 410//410
f 410//410 413//413 407//407
f 407//407 413//413 406//406
f 413//413 414//414 406//406
f 406//406 414//414 405//405
f 414//414 415//415 405//405
f 405//405 415//415 404//404
f 415//415 416//416 404//404
f 404//404 416//416 403//403
f 416//416 417//417 403//403
f 403//403 417//417 402//402
f 417//417 418//418 402//402
f 402//402 418//418 401//401
f 418//418 419//419 401//401
f 401//401 419//419 400//400
f 419//419 420//420 400//400
f 400//400 420//420 398//398
f 420//420 421//421 398//398
f 398//398 421//421 399//399
f 399//399 421//421 422//422
f 421//421 423//423 422//422
f 422//422 423//423 424//424
f 407//407 408//408 410//410
f 423//423 421//421 425//425
f 421//421 420//420 425//425
f 425//425 420//420 426//426
f 420//420 419//419 426//426
f 426//426 419//419 427//427
f 419//419 418//418 427//427
f 427//427 418//418 428//428
f 418//418 417//417 428//428
f 428//428 417//417 429//429
f 417//417 416//416 429//429
f 429//429 416//416 430//430
f 416//416 415//415 430//430
f 430//430 415//415 431//431
f 415//415 414//414 431//431
f 431//431 414//414 432//432
f 414//414 413//413 432//432
f 432//432 413//413 412//412
f 433//433 435//435 434//434
f 434//434 435//435 436//436
f 435//435 437//437 436//436
f 434//434 436//436 438//438
f 436//436 439//439 438//438
f 438//438 439//439 440//440
f 439//439 441//441 440//440
f 440//440 441//441 442//442
f 441//441 443//443 442//442
f 442//442 443//443 444//444
f 443//443 445//445 444//444
f 444//444 445//445 446//446
f 445//445 447//447 446//446
f 446//446 447//447 448//448
f 447//447 449//449 448//448
f 448//448 449//449 450//450
f 449//449 451//451 450//450
f 450//450 451//451 452//452
f 451//451 453//453 452//452
f 452//452 453//453 454//454
f 453//453 455//455 454//454
f 454//454 455//455 456//456
f 456//456 455//455 457//457
f 455//455 458//458 457//457
f 457//457 458//458 459//459
f 458//458 455//455 460//460
f 455//455 453//453 460//460
f 460//460 453//453 461//461
f 453//453 451//451 461//461
f 461//461 451//451 462//462
f 451//451 449//449 462//462
f 462//462 449//449 463//463
f 449//449 447//447 463//463
f 463//463 447//447 464//464
f 447//447 445//445 464//464
f 464//464 445//445 465//465
f 445//445 443//443 465//465
f 465//465 443//443 466//466
f 443//443 441//441 466//466
f 466//466 441//441 467//467
f 441//441 439//439 467//467
f 467//467 439//439 468//468
f 439//439 436//436 468//468
f 436//436 437//437 468//468
f 437//437 469//469 468//468
f 468//468 469//469 470//470
f 469//469 471//471 470//470
f 468//468 470//470 467//467
f 470//470 472//472 467//467
f 467//467 472//472 466//466
f 472//472 473//473 466//466
f 466//466 473//473 465//465
f 473//473 474//474 465//465
f 465//465 474//474 464//464
f 474//474 475//475 464//464
f 464//464 475//475 463//463
f 475//475 476//476 463//463
f 463//463 476//476 462//462
f 476//476 477//477 462//462
f 462//462 477//477 461//461
f 477//477 478//478 461//461
f 461//461 478//478 460//460
f 478//478 479//479 460//460
f 460//460 479//479 458//458
f 479//479 480//480 458//458
f 458//458 480//480 459//459
f 459//459 480//480 481//481
f 480//480 482//482 481//481
f 481//481 482//482 483//483
f 482//482 480//480 484//484
f 480//480 479//479 484//484
f 484//484 479//479 485//485
f 479//479 478//478 485//485
f 485//485 478//478 486//486
f 478//478 477//477 486//486
f 486//486 477//477 487//487
f 477//477 476//476 487//487
f 487//487 476//476 488//488
f 476//476 475//475 488//488
f 488//488 475//475 489//489
f 475//475 474//474 489//489
f 489//489 474//474 490//490
f 474//474 473//473 490//490
f 490//490 473//473 491//491
f 473//473 472//472 491//491
f 491//491 472//472 492//492
f 472//472 470//470 492//492
f 470//470 471//471 492//492
f 471//471 493//493 492//492
f 492//492 493//493 494//494
f 493//493 495//495 494//494
f 492//492 494//494 491//491
f 494//494 496//496 491//491
f 491//491 496//496 490//490
f 496//496 497//497 490//490
f 490//490 497//497 489//489
f 497//497 498//498 489//489
f 489//489 498//498 488//488
f 498//498 499//499 488//488
f 488//488 499//499 487//487
f 499//499 500//500 487//487
f 487//487 500//500 486//486
f 500//500 501//501 486//486
f 486//486 501//501 485//485
f 501//501 502//502 485//485
f 485//485 502//502 484//484
f 502//502 503//503 484//484
f 484//484 503//503 482//482
f 503//503 504//504 482//482
f 482//482 504//504 483//483
f 483//483 504//504 505//505
f 504//504 506//506 505//505
f 505//505 506//506 507//507
f 506//506 504//504 508//508
f 504//504 503//503 508//508
f 508//508 503//503 509//509
f 503//503 502//502 509//509
f 509//509 502//502 510//510
f 502//502 501//501 510//510
f 510//510 501//501 511//511
f 501//501 500//500 511//511
f 511//511 500//500 512//512
f 500//500 499//499 512//512
f 512//512 499//499 513//513
f 499//499 498//498 513//513
f 513//513 498//498 514//514
f 498//498 497//497 514//514
f 514//514 497//497 515//515
f 497//497 496//496 515//515
f 515//515 496//496 516//516
f 496//496 494//494 516//516
f 494//494 495//495 516//516
f 495//495 517//517 516//516
f 516//516 517//517 518//518
f 517//517 519//519 518//518
f 519//519 520//520 518//518
f 520//520 521//521 518//518
f 518//518 521//521 515//515
f 515//515 521//521 514//514
f 521//521 522//522 514//514
f 514//514 522//522 513//513
f 522//522 523//523 513//513
f 513//513 523//523 512//512
f 523//523 524//524 512//512
f 512//512 524//524 511//511
f 524//524 525//525 511//511
f 511//511 525//525 510//510
f 525//525 526//526 510//510
f 510//510 526//526 509//509
f 526//526 527//527 509//509
f 509//509 527//527 508//508
f 527//527 528//528 508//508
f 508//508 528//528 506//506
f 528//528 529//529 506//506
f 506//506 529//529 507//507
f 507//507 529//529 530//530
f 529//529 531//531 530//530
f 530//530 531//531 532//532
f 515//515 516//516 518//518
f 531//531 529//529 533//533
f 529//529 528//528 533//533
f 533//533 528//528 534//534
f 528//528 527//527 534//534
f 534//534 527//527 535//535
f 527//527 526//526 535//535
f 535//535 526//526 536//536
f 526//526 525//525 536//536
f 536//536 525//525 537//537
f 525//525 524//524 537//537
f 537//537 524//524 538//538
f 524//524 523//523 538//538
f 538//538 523//523 539//539
f 523//523 522//522 539//539
f 539//539 522//522 540//540
f 522//522 521//521 540//540
f 540//540 521//521 520//520

