# Exported by Sketchfab Model Ripper robust edition
o model_43
v -14.189505577087402 -38.193885803222656 235.6882781982422
v -22.771514892578125 -38.6311149597168 234.96047973632812
v -13.291473388671875 -38.20705032348633 219.55552673339844
v -21.926204681396484 -38.645545959472656 219.43423461914062
v -13.868741989135742 -38.27384567260742 203.42274475097656
v -22.4509220123291 -38.70770263671875 204.15054321289062
v -15.973960876464844 -38.396942138671875 187.28990173339844
v -24.450939178466797 -38.823486328125 188.86680603027344
v -19.500797271728516 -38.591339111328125 171.52096557617188
v -27.872556686401367 -39.0108528137207 173.82566833496094
v -24.292387008666992 -38.827552795410156 156.2371826171875
v -32.4536018371582 -39.235252380371094 159.02706909179688
v -29.874813079833984 -39.08265686035156 140.95335388183594
v -37.719146728515625 -39.49354553222656 144.5923614501953
v -38.933414459228516 -39.490116119384766 126.88245391845703
v -45.671207427978516 -39.862144470214844 132.21971130371094
v -49.57177734375 -39.97323989868164 114.7523422241211
v -55.889488220214844 -40.301570892333984 120.57475280761719
v -60.579837799072266 -40.45246505737305 103.22867584228516
v -66.7385482788086 -40.79341506958008 109.29373931884766
v -71.7458724975586 -40.939151763916016 91.9476089477539
v -77.85195922851562 -41.27714538574219 98.13397979736328
v -82.7529067993164 -41.438724517822266 80.78790283203125
v -88.96532440185547 -41.761436462402344 86.73161315917969
v -93.44507598876953 -41.901641845703125 69.38553619384766
v -99.9196548461914 -42.259464263916016 75.08670043945312
v -103.1357421875 -42.33610534667969 57.49803161621094
v -110.19048309326172 -42.70353698730469 62.5926399230957
v -110.14004516601562 -42.657447814941406 44.761478424072266
v -118.24754333496094 -43.0833854675293 47.672706604003906
v -112.45613098144531 -42.786170959472656 30.81202507019043
v -121.09085083007812 -43.22467041015625 30.690723419189453
v -109.55655670166016 -42.713645935058594 16.98402214050293
v -117.5591049194336 -43.12739181518555 13.708935737609863
v -102.02066040039062 -42.46589279174805 4.733040809631348
v -108.60138702392578 -42.81255340576172 -0.7254104614257812
v -91.21955871582031 -42.06943893432617 -5.698391437530518
v -96.74713134765625 -42.36519241333008 -12.248550415039062
v -110.59947204589844 -0.32132020592689514 -1.1880571842193604
v -98.63992309570312 0.1313849836587906 -12.711196899414062
v -24.92758560180664 3.8526644706726074 234.7404327392578
v -119.66252136230469 -0.6409404873847961 13.488898277282715
v -123.24694061279297 -0.740608274936676 30.59197425842285
v -120.40471649169922 -0.5778539776802063 47.69520950317383
v -112.34660339355469 -0.21891342103481293 62.73649978637695
v -102.02420806884766 0.24929851293563843 75.35179901123047
v -91.06880187988281 0.7261386513710022 86.99675750732422
v -79.9554214477539 1.2101507186889648 98.27782440185547
v -68.84310150146484 1.7153514623641968 109.558837890625
v -57.99296569824219 2.186002492904663 120.83989715576172
v -47.82839584350586 2.643669605255127 132.36351013183594
v -39.875244140625 2.9907970428466797 144.61492919921875
v -34.609703063964844 3.249089002609253 159.04962158203125
v -30.028657913208008 3.47348952293396 173.84820556640625
v -26.65968894958496 3.6581835746765137 188.8893585205078
v -24.60700798034668 3.7763586044311523 204.05178833007812
v -24.083364486694336 3.859701633453369 219.33543395996094
v -16.292940139770508 4.292849540710449 235.5895233154297
v -14.189505577087402 -38.193885803222656 235.6882781982422
v -22.771514892578125 -38.6311149597168 234.96047973632812
v -15.447559356689453 4.277011394500732 219.456787109375
v -16.02482795715332 4.2102155685424805 203.32398986816406
v -18.13006019592285 4.087399959564209 187.3124542236328
v -21.657974243164062 3.914191961288452 171.54347229003906
v -26.449562072753906 3.677978515625 156.25967407226562
v -32.03092575073242 3.4019668102264404 141.09718322753906
v -41.03688049316406 2.997178792953491 127.02629852294922
v -51.67631530761719 2.535247325897217 114.8961410522461
v -62.68331527709961 2.035109758377075 103.49382019042969
v -73.84934997558594 1.548426628112793 92.21276092529297
v -84.85746002197266 1.0700393915176392 81.0530014038086
v -95.54855346679688 0.585932731628418 69.65068054199219
v -105.2918701171875 0.1488010436296463 57.763179779052734
v -112.29615783691406 -0.17282634973526 44.90531921386719
v -114.61221313476562 -0.3021107017993927 30.713275909423828
v -111.65998077392578 -0.2271955907344818 16.763967514038086
v -104.01984405517578 0.04681197181344032 4.39164924621582
v -93.11344146728516 0.4486072361469269 -6.039782524108887
v -96.74713134765625 -42.36519241333008 -12.248550415039062
v -91.21955871582031 -42.06943893432617 -5.698391437530518
v -14.189505577087402 -38.193885803222656 235.6882781982422
v -13.291473388671875 -38.20705032348633 219.55552673339844
v -91.21955871582031 -42.06943893432617 -5.698391437530518
v -102.02066040039062 -42.46589279174805 4.733040809631348
v -109.55655670166016 -42.713645935058594 16.98402214050293
v -112.45613098144531 -42.786170959472656 30.81202507019043
v -110.14004516601562 -42.657447814941406 44.761478424072266
v -103.1357421875 -42.33610534667969 57.49803161621094
v -93.44507598876953 -41.901641845703125 69.38553619384766
v -82.7529067993164 -41.438724517822266 80.78790283203125
v -71.7458724975586 -40.939151763916016 91.9476089477539
v -60.579837799072266 -40.45246505737305 103.22867584228516
v -49.57177734375 -39.97323989868164 114.7523422241211
v -38.933414459228516 -39.490116119384766 126.88245391845703
v -29.874813079833984 -39.08265686035156 140.95335388183594
v -24.292387008666992 -38.827552795410156 156.2371826171875
v -19.500797271728516 -38.591339111328125 171.52096557617188
v -15.973960876464844 -38.396942138671875 187.28990173339844
v -13.868741989135742 -38.27384567260742 203.42274475097656
v -20.78823471069336 -19.84309959411621 226.13739013671875
v -20.786916732788086 -11.24016284942627 226.70623779296875
v -20.825342178344727 -18.23004913330078 210.09591674804688
v -20.822444915771484 -9.62711238861084 211.34738159179688
v -20.862186431884766 -15.1383695602417 194.16819763183594
v -20.857446670532227 -6.737065315246582 196.21604919433594
v -20.89797592163086 -10.568060874938965 178.69557189941406
v -20.891395568847656 -2.368387222290039 181.53981018066406
v -20.932714462280273 -4.586332321166992 163.67800903320312
v -20.9245548248291 3.277289390563965 167.20486450195312
v -20.966136932373047 2.470763683319092 149.2292938232422
v -20.956661224365234 10.132752418518066 153.3249969482422
v -20.998769760131836 10.334383964538574 135.1219024658203
v -21.008567810058594 17.593109130859375 139.90025329589844
v -21.02771759033203 21.491313934326172 122.60726165771484
v -21.033830642700195 27.338621139526367 128.9783935546875
v -21.0725154876709 33.858036041259766 112.25430297851562
v -21.07757568359375 39.234867095947266 119.08051300048828
v -21.11573600769043 46.56080627441406 102.58395385742188
v -21.09941864013672 51.668800354003906 109.63765716552734
v -21.137313842773438 59.330787658691406 93.2548599243164
v -21.141847610473633 64.43878173828125 100.3086166381836
v -21.179744720458984 71.96635437011719 83.92582702636719
v -21.184541702270508 77.14155578613281 90.86580657958984
v -21.222700119018555 84.33306884765625 74.3692398071289
v -21.228286743164062 89.77711486816406 80.96792602539062
v -21.246383666992188 95.75884246826172 64.12999725341797
v -21.253286361694336 101.94220733642578 70.15982818603516
v -21.294078826904297 104.63062286376953 52.52557373046875
v -21.284603118896484 112.29261016845703 56.621280670166016
v -21.325395584106445 109.13372039794922 38.98701095581055
v -21.322500228881836 117.73665618896484 40.23847579956055
v -21.358030319213867 108.46160888671875 24.879613876342773
v -21.36276626586914 116.8629150390625 22.83176040649414
v -21.4096736907959 102.8159408569336 11.56865406036377
v -21.39934730529785 110.27629852294922 7.017826080322266
v -21.437572479248047 93.7425308227539 -0.4909067749977112
v -21.42987823486328 100.2619400024414 -6.179421901702881
v 21.137781143188477 110.2090835571289 7.033205509185791
v 21.10698890686035 100.1947250366211 -6.2778191566467285
v 21.770801544189453 -11.240169525146484 226.60780334472656
v 21.174100875854492 116.8629150390625 22.73336410522461
v 21.214366912841797 117.73664855957031 40.14007568359375
v 21.25226402282715 112.2926025390625 56.52288055419922
v 21.283578872680664 102.00940704345703 70.0614242553711
v 21.329694747924805 89.84432220458984 80.98323822021484
v 21.37317657470703 77.27596282958984 90.76736450195312
v 21.395017623901367 64.50598907470703 100.21022033691406
v 21.437448501586914 51.80321502685547 109.53926086425781
v 21.480140686035156 39.30207443237305 118.98207092285156
v 21.503036499023438 27.405824661254883 128.8800048828125
v 21.549150466918945 17.660314559936523 139.80181884765625
v 21.580204010009766 10.132745742797852 153.22659301757812
v 21.6123104095459 3.3444929122924805 167.10646057128906
v 21.66632080078125 -2.368393659591675 181.4413604736328
v 21.700271606445312 -6.737071514129639 196.1175994873047
v 21.735273361206055 -9.627119064331055 211.24893188476562
v 21.76948356628418 -19.84310531616211 226.03895568847656
v -20.78823471069336 -19.84309959411621 226.13739013671875
v -20.786916732788086 -11.24016284942627 226.70623779296875
v 21.732376098632812 -18.23005485534668 209.99746704101562
v 21.695531845092773 -15.138376235961914 194.06976318359375
v 21.659740447998047 -10.500856399536133 178.5971221923828
v 21.625001907348633 -4.586338996887207 163.57955932617188
v 21.591581344604492 2.5379674434661865 149.130859375
v 21.558948516845703 10.40158748626709 135.02345275878906
v 21.5091495513916 21.558521270751953 122.50886535644531
v 21.485464096069336 33.92523956298828 112.2696304321289
v 21.442245483398438 46.62800979614258 102.59928131103516
v 21.39981460571289 59.39799118041992 93.2702407836914
v 21.35712242126465 72.03355407714844 83.82743072509766
v 21.335018157958984 84.40027618408203 74.27079772949219
v 21.290481567382812 95.8260498046875 64.03160095214844
v 21.26390266418457 104.69783020019531 52.5409049987793
v 21.211469650268555 109.200927734375 38.888614654541016
v 21.178836822509766 108.46160888671875 24.781217575073242
v 21.14804458618164 102.81593322753906 11.470209121704102
v 21.120145797729492 93.6753158569336 -0.5893523693084717
v -21.42987823486328 100.2619400024414 -6.179421901702881
v -21.437572479248047 93.7425308227539 -0.4909067749977112
v -20.78823471069336 -19.84309959411621 226.13739013671875
v -20.825342178344727 -18.23004913330078 210.09591674804688
v -21.437572479248047 93.7425308227539 -0.4909067749977112
v -21.4096736907959 102.8159408569336 11.56865406036377
v -21.358030319213867 108.46160888671875 24.879613876342773
v -21.325395584106445 109.13372039794922 38.98701095581055
v -21.294078826904297 104.63062286376953 52.52557373046875
v -21.246383666992188 95.75884246826172 64.12999725341797
v -21.222700119018555 84.33306884765625 74.3692398071289
v -21.179744720458984 71.96635437011719 83.92582702636719
v -21.137313842773438 59.330787658691406 93.2548599243164
v -21.11573600769043 46.56080627441406 102.58395385742188
v -21.0725154876709 33.858036041259766 112.25430297851562
v -21.02771759033203 21.491313934326172 122.60726165771484
v -20.998769760131836 10.334383964538574 135.1219024658203
v -20.966136932373047 2.470763683319092 149.2292938232422
v -20.932714462280273 -4.586332321166992 163.67800903320312
v -20.89797592163086 -10.568060874938965 178.69557189941406
v -20.862186431884766 -15.1383695602417 194.16819763183594
v -14.189505577087402 -38.193885803222656 235.6882781982422
v -22.771514892578125 -38.6311149597168 234.96047973632812
v -13.291473388671875 -38.20705032348633 219.55552673339844
v -21.926204681396484 -38.645545959472656 219.43423461914062
v -13.868741989135742 -38.27384567260742 203.42274475097656
v -22.4509220123291 -38.70770263671875 204.15054321289062
v -15.973960876464844 -38.396942138671875 187.28990173339844
v -24.450939178466797 -38.823486328125 188.86680603027344
v -19.500797271728516 -38.591339111328125 171.52096557617188
v -27.872556686401367 -39.0108528137207 173.82566833496094
v -24.292387008666992 -38.827552795410156 156.2371826171875
v -32.4536018371582 -39.235252380371094 159.02706909179688
v -29.874813079833984 -39.08265686035156 140.95335388183594
v -37.719146728515625 -39.49354553222656 144.5923614501953
v -38.933414459228516 -39.490116119384766 126.88245391845703
v -45.671207427978516 -39.862144470214844 132.21971130371094
v -49.57177734375 -39.97323989868164 114.7523422241211
v -55.889488220214844 -40.301570892333984 120.57475280761719
v -60.579837799072266 -40.45246505737305 103.22867584228516
v -66.7385482788086 -40.79341506958008 109.29373931884766
v -71.7458724975586 -40.939151763916016 91.9476089477539
v -77.85195922851562 -41.27714538574219 98.13397979736328
v -82.7529067993164 -41.438724517822266 80.78790283203125
v -88.96532440185547 -41.761436462402344 86.73161315917969
v -93.44507598876953 -41.901641845703125 69.38553619384766
v -99.9196548461914 -42.259464263916016 75.08670043945312
v -103.1357421875 -42.33610534667969 57.49803161621094
v -110.19048309326172 -42.70353698730469 62.5926399230957
v -110.14004516601562 -42.657447814941406 44.761478424072266
v -118.24754333496094 -43.0833854675293 47.672706604003906
v -112.45613098144531 -42.786170959472656 30.81202507019043
v -121.09085083007812 -43.22467041015625 30.690723419189453
v -109.55655670166016 -42.713645935058594 16.98402214050293
v -117.5591049194336 -43.12739181518555 13.708935737609863
v -102.02066040039062 -42.46589279174805 4.733040809631348
v -108.60138702392578 -42.81255340576172 -0.7254104614257812
v -91.21955871582031 -42.06943893432617 -5.698391437530518
v -96.74713134765625 -42.36519241333008 -12.248550415039062
v -110.59947204589844 -0.32132020592689514 -1.1880571842193604
v -98.63992309570312 0.1313849836587906 -12.711196899414062
v -24.92758560180664 3.8526644706726074 234.7404327392578
v -119.66252136230469 -0.6409404873847961 13.488898277282715
v -123.24694061279297 -0.740608274936676 30.59197425842285
v -120.40471649169922 -0.5778539776802063 47.69520950317383
v -112.34660339355469 -0.21891342103481293 62.73649978637695
v -102.02420806884766 0.24929851293563843 75.35179901123047
v -91.06880187988281 0.7261386513710022 86.99675750732422
v -79.9554214477539 1.2101507186889648 98.27782440185547
v -68.84310150146484 1.7153514623641968 109.558837890625
v -57.99296569824219 2.186002492904663 120.83989715576172
v -47.82839584350586 2.643669605255127 132.36351013183594
v -39.875244140625 2.9907970428466797 144.61492919921875
v -34.609703063964844 3.249089002609253 159.04962158203125
v -30.028657913208008 3.47348952293396 173.84820556640625
v -26.65968894958496 3.6581835746765137 188.8893585205078
v -24.60700798034668 3.7763586044311523 204.05178833007812
v -24.083364486694336 3.859701633453369 219.33543395996094
v -16.292940139770508 4.292849540710449 235.5895233154297
v -14.189505577087402 -38.193885803222656 235.6882781982422
v -22.771514892578125 -38.6311149597168 234.96047973632812
v -15.447559356689453 4.277011394500732 219.456787109375
v -16.02482795715332 4.2102155685424805 203.32398986816406
v -18.13006019592285 4.087399959564209 187.3124542236328
v -21.657974243164062 3.914191961288452 171.54347229003906
v -26.449562072753906 3.677978515625 156.25967407226562
v -32.03092575073242 3.4019668102264404 141.09718322753906
v -41.03688049316406 2.997178792953491 127.02629852294922
v -51.67631530761719 2.535247325897217 114.8961410522461
v -62.68331527709961 2.035109758377075 103.49382019042969
v -73.84934997558594 1.548426628112793 92.21276092529297
v -84.85746002197266 1.0700393915176392 81.0530014038086
v -95.54855346679688 0.585932731628418 69.65068054199219
v -105.2918701171875 0.1488010436296463 57.763179779052734
v -112.29615783691406 -0.17282634973526 44.90531921386719
v -114.61221313476562 -0.3021107017993927 30.713275909423828
v -111.65998077392578 -0.2271955907344818 16.763967514038086
v -104.01984405517578 0.04681197181344032 4.39164924621582
v -93.11344146728516 0.4486072361469269 -6.039782524108887
v -96.74713134765625 -42.36519241333008 -12.248550415039062
v -91.21955871582031 -42.06943893432617 -5.698391437530518
v -14.189505577087402 -38.193885803222656 235.6882781982422
v -13.291473388671875 -38.20705032348633 219.55552673339844
v -91.21955871582031 -42.06943893432617 -5.698391437530518
v -102.02066040039062 -42.46589279174805 4.733040809631348
v -109.55655670166016 -42.713645935058594 16.98402214050293
v -112.45613098144531 -42.786170959472656 30.81202507019043
v -110.14004516601562 -42.657447814941406 44.761478424072266
v -103.1357421875 -42.33610534667969 57.49803161621094
v -93.44507598876953 -41.901641845703125 69.38553619384766
v -82.7529067993164 -41.438724517822266 80.78790283203125
v -71.7458724975586 -40.939151763916016 91.9476089477539
v -60.579837799072266 -40.45246505737305 103.22867584228516
v -49.57177734375 -39.97323989868164 114.7523422241211
v -38.933414459228516 -39.490116119384766 126.88245391845703
v -29.874813079833984 -39.08265686035156 140.95335388183594
v -24.292387008666992 -38.827552795410156 156.2371826171875
v -19.500797271728516 -38.591339111328125 171.52096557617188
v -15.973960876464844 -38.396942138671875 187.28990173339844
v -13.868741989135742 -38.27384567260742 203.42274475097656
vn 0.04457927867770195 -0.02848595753312111 0.005229636561125517
vn -0.1873365193605423 -0.034826990216970444 0.001537715899758041
vn 0.19169095158576965 -0.016617553308606148 0.0006899822037667036
vn -0.0763869658112526 -0.04810786247253418 -0.0001278021518373862
vn 0.08208169043064117 -0.02662382461130619 -0.0046502999030053616
vn -0.06553453952074051 -0.03963475674390793 0.004059030674397945
vn 0.031173231080174446 -0.03105136938393116 -0.004912578035145998
vn -0.027755752205848694 -0.03532895818352699 0.0048681930638849735
vn 0.019970733672380447 -0.031812045723199844 -0.004933733027428389
vn -0.01653379201889038 -0.03465951979160309 0.004935023374855518
vn 0.016497883945703506 -0.03206104785203934 -0.004933563061058521
vn -0.013952286913990974 -0.034439172595739365 0.0049569858238101006
vn 0.012127639725804329 -0.032057516276836395 -0.004977007396519184
vn -0.009592999704182148 -0.03457470238208771 0.004913377109915018
vn 0.008626130409538746 -0.03212575986981392 -0.004998576827347279
vn -0.0043695536442101 -0.03436487540602684 0.0049135033041238785
vn 0.007751137483865023 -0.03202863037586212 -0.005020124837756157
vn -0.0043695536442101 -0.03436487540602684 0.0049135033041238785
vn 0.006006557960063219 -0.032128866761922836 -0.0050200968980789185
vn -0.0043695536442101 -0.03436487540602684 0.0049135033041238785
vn 0.006006557960063219 -0.032128866761922836 -0.0050200968980789185
vn -0.0026272123213857412 -0.034287504851818085 0.004913527984172106
vn 0.006006557960063219 -0.032128866761922836 -0.0050200968980789185
vn -0.0043715802021324635 -0.034223150461912155 0.004935437813401222
vn 0.007751137483865023 -0.03202863037586212 -0.005020124837756157
vn -0.0043715802021324635 -0.034223150461912155 0.004935437813401222
vn 0.008641103282570839 -0.03227311745285988 -0.004976916126906872
vn -0.0052556246519088745 -0.03397536650300026 0.004979007877409458
vn 0.020844850689172745 -0.03233249858021736 -0.004845432471483946
vn -0.01831769570708275 -0.033691540360450745 0.005085793323814869
vn 0.021547438576817513 -0.04580891877412796 0.00015481609443668276
vn -0.193690687417984 -0.03508235141634941 -0.00004890025593340397
vn 0.017331961542367935 -0.03227287158370018 0.005043378099799156
vn -0.014019531197845936 -0.033740125596523285 -0.004911642987281084
vn 0.007742968387901783 -0.03215434029698372 0.005149526055902243
vn -0.005277834367007017 -0.03399907425045967 -0.004822647664695978
vn 0.1944049894809723 -0.01598588190972805 0.00007521816587541252
vn 0.0017089913599193096 -0.033674489706754684 -0.004822581075131893
vn -0.008624940179288387 0.03210223466157913 -0.005149508360773325
vn -0.0016260596457868814 0.032040297985076904 -0.005211913026869297
vn -0.18894991278648376 0.01603294163942337 0.0014196106931194663
vn -0.017344998195767403 0.03168231621384621 -0.005128240212798119
vn -0.19532054662704468 0.015638522803783417 -0.00016668494208715856
vn -0.020749598741531372 0.03145742788910866 0.0049773878417909145
vn -0.008617042563855648 0.032274551689624786 0.0049769156612455845
vn -0.006874037440866232 0.03222830593585968 0.004998544231057167
vn -0.00686983298510313 0.032079752534627914 0.005020109936594963
vn -0.00686983298510313 0.032079752534627914 0.005020109936594963
vn -0.00686983298510313 0.032079752534627914 0.005020109936594963
vn -0.00686983298510313 0.032079752534627914 0.005020109936594963
vn -0.008614050224423409 0.03212648257613182 0.004998576361685991
vn -0.012110115960240364 0.0322064645588398 0.004955250304192305
vn -0.015602348372340202 0.03226958587765694 0.004911579191684723
vn -0.020793456584215164 0.03204486519098282 0.004889790900051594
vn -0.02942931279540062 0.03208104148507118 0.0047787767834961414
vn -0.0699782744050026 0.03246472403407097 0.003941884730011225
vn -0.08083861321210861 0.040113016963005066 -0.00039426281000487506
vn 0.04311612620949745 0.03301951661705971 0.005065940320491791
vn 0.04457927867770195 -0.02848595753312111 0.005229636561125517
vn -0.1873365193605423 -0.034826990216970444 0.001537715899758041
vn 0.1885245442390442 0.036063335835933685 0.0005674731801263988
vn 0.07741178572177887 0.03486192971467972 -0.004793399013578892
vn 0.02786501869559288 0.03431951254606247 -0.005021028220653534
vn 0.017465565353631973 0.034253887832164764 -0.005000205710530281
vn 0.01399080827832222 0.03415260091423988 -0.005000378005206585
vn 0.00876742135733366 0.03397202119231224 -0.005000571720302105
vn 0.0052662198431789875 0.03411893919110298 -0.004957261960953474
vn 0.003518573474138975 0.034185755997896194 -0.004935450851917267
vn 0.003507084446027875 0.03432703763246536 -0.00491351680830121
vn 0.003507084446027875 0.03432703763246536 -0.00491351680830121
vn 0.003507084446027875 0.03432703763246536 -0.00491351680830121
vn 0.003507084446027875 0.03432703763246536 -0.00491351680830121
vn 0.005252095405012369 0.03440265730023384 -0.00491348747164011
vn 0.017410440370440483 0.035389963537454605 -0.004824378993362188
vn 0.016799351200461388 0.047756001353263855 -0.00012411142233759165
vn 0.013923460617661476 0.03502820059657097 0.004709960892796516
vn 0.0052394261583685875 0.03442458435893059 0.004755145404487848
vn 0.19465892016887665 0.03483352065086365 -0.0000425740763603244
vn 0.0017089913599193096 -0.033674489706754684 -0.004822581075131893
vn 0.1944049894809723 -0.01598588190972805 0.00007521816587541252
vn 0.04457927867770195 -0.02848595753312111 0.005229636561125517
vn 0.19169095158576965 -0.016617553308606148 0.0006899822037667036
vn 0.1944049894809723 -0.01598588190972805 0.00007521816587541252
vn 0.007742968387901783 -0.03215434029698372 0.005149526055902243
vn 0.017331961542367935 -0.03227287158370018 0.005043378099799156
vn 0.021547438576817513 -0.04580891877412796 0.00015481609443668276
vn 0.020844850689172745 -0.03233249858021736 -0.004845432471483946
vn 0.008641103282570839 -0.03227311745285988 -0.004976916126906872
vn 0.007751137483865023 -0.03202863037586212 -0.005020124837756157
vn 0.006006557960063219 -0.032128866761922836 -0.0050200968980789185
vn 0.006006557960063219 -0.032128866761922836 -0.0050200968980789185
vn 0.006006557960063219 -0.032128866761922836 -0.0050200968980789185
vn 0.007751137483865023 -0.03202863037586212 -0.005020124837756157
vn 0.008626130409538746 -0.03212575986981392 -0.004998576827347279
vn 0.012127639725804329 -0.032057516276836395 -0.004977007396519184
vn 0.016497883945703506 -0.03206104785203934 -0.004933563061058521
vn 0.019970733672380447 -0.031812045723199844 -0.004933733027428389
vn 0.031173231080174446 -0.03105136938393116 -0.004912578035145998
vn 0.08208169043064117 -0.02662382461130619 -0.0046502999030053616
vn -0.025349851697683334 -0.19285276532173157 0.0009014989482238889
vn -0.03167097270488739 0.02518608048558235 0.005210700444877148
vn -0.03256100043654442 -0.03727346286177635 -0.004869404714554548
vn -0.03392341360449791 0.03550433740019798 0.0048228418454527855
vn -0.03299013897776604 -0.021775033324956894 -0.0048902081325650215
vn -0.033570997416973114 0.02088245004415512 0.004956433083862066
vn -0.03314882516860962 -0.014830650761723518 -0.004889841191470623
vn -0.03341638669371605 0.014808966778218746 0.0050001367926597595
vn -0.033205557614564896 -0.011347541585564613 -0.0048897103406488895
vn -0.03333960101008415 0.010468232445418835 0.0050218491815030575
vn -0.03322826325893402 -0.009603952057659626 -0.004889657720923424
vn -0.03336029499769211 0.008725331164896488 0.00502189714461565
vn -0.033109717071056366 -0.006991641595959663 -0.004911632742732763
vn -0.033377230167388916 0.006981445476412773 0.005021936725825071
vn -0.033123042434453964 -0.005244433414191008 -0.004911602009087801
vn -0.03339039906859398 0.005236773286014795 0.005021966993808746
vn -0.033132560551166534 -0.0034966222010552883 -0.0049115801230072975
vn -0.03339981287717819 0.0034915118012577295 0.00502198887988925
vn -0.033132560551166534 -0.0034966222010552883 -0.0049115801230072975
vn -0.03339981287717819 0.0034915118012577295 0.00502198887988925
vn -0.033132560551166534 -0.0034966222010552883 -0.0049115801230072975
vn -0.03339981287717819 0.0034915118012577295 0.00502198887988925
vn -0.033132560551166534 -0.0034966222010552883 -0.0049115801230072975
vn -0.03325498849153519 0.003488171147182584 0.005043449345976114
vn -0.033132560551166534 -0.0034966222010552883 -0.0049115801230072975
vn -0.03325498849153519 0.003488171147182584 0.005043449345976114
vn -0.03326232731342316 -0.006113691255450249 -0.004889579024165869
vn -0.03324555605649948 0.005231759510934353 0.005043427459895611
vn -0.03350671008229256 -0.010478015057742596 -0.004845328163355589
vn -0.03303694725036621 0.011336402036249638 0.005064645782113075
vn -0.0463266484439373 -0.0382378064095974 -0.0001539192016934976
vn -0.025687430053949356 0.1887635439634323 0.0013878302415832877
vn -0.03597009554505348 -0.04406709969043732 0.004405179526656866
vn -0.03086180053651333 0.05320188030600548 -0.004981364589184523
vn -0.03349491208791733 -0.009589750319719315 0.0050003197975456715
vn -0.03309258073568344 0.008738054893910885 -0.004911673255264759
vn -0.025222228839993477 -0.19523829221725464 0.000012269340913917404
vn -0.03284712880849838 0.0008739580516703427 -0.0049553560093045235
vn 0.03306950628757477 0.008738044649362564 -0.005064721684902906
vn 0.032969117164611816 0.0017496594227850437 -0.005086094606667757
vn 0.03172251582145691 0.02432464063167572 0.005064056254923344
vn 0.030996328219771385 0.05317606404423714 -0.005103043280541897
vn 0.025249550119042397 0.19020971655845642 0.0012700010556727648
vn 0.03292574733495712 0.0104550551623106 0.00493366364389658
vn 0.03312309831380844 0.005235502030700445 0.004911602009087801
vn 0.03313259035348892 0.0034906663931906223 0.0049115801230072975
vn 0.03313259035348892 0.0034906663931906223 0.0049115801230072975
vn 0.03313259035348892 0.0034906663931906223 0.0049115801230072975
vn 0.03313259035348892 0.0034906663931906223 0.0049115801230072975
vn 0.03313259035348892 0.0034906663931906223 0.0049115801230072975
vn 0.033268533647060394 0.005231749266386032 0.0048895650543272495
vn 0.033255331218242645 0.006974744610488415 0.0048895953223109245
vn 0.03323835879564285 0.008716949261724949 0.004889634437859058
vn 0.033362481743097305 0.010468223132193089 0.004867551848292351
vn 0.033309828490018845 0.013950294815003872 0.004867673385888338
vn 0.03359357267618179 0.020882440730929375 0.004801065661013126
vn 0.033981774002313614 0.03465060517191887 0.00466576125472784
vn 0.02535369247198105 -0.19285276532173157 0.0007842097547836602
vn -0.025349851697683334 -0.19285276532173157 0.0009014989482238889
vn -0.03167097270488739 0.02518608048558235 0.005210700444877148
vn 0.03257790580391884 -0.0364212729036808 -0.00502008618786931
vn 0.03299028426408768 -0.020908905193209648 -0.005042836535722017
vn 0.03314144164323807 -0.013960453681647778 -0.005043186247348785
vn 0.0331944040954113 -0.010475905612111092 -0.005043309181928635
vn 0.03321521729230881 -0.00873174425214529 -0.005043357145041227
vn 0.033232249319553375 -0.006986589170992374 -0.0050433967262506485
vn 0.033245500177145004 -0.005240639206022024 -0.005043427459895611
vn 0.033254966139793396 -0.003494092496111989 -0.005043449345976114
vn 0.0333997868001461 -0.003497418947517872 -0.00502198887988925
vn 0.0333997868001461 -0.003497418947517872 -0.00502198887988925
vn 0.0333997868001461 -0.003497418947517872 -0.00502198887988925
vn 0.0333997868001461 -0.003497418947517872 -0.00502198887988925
vn 0.0333903431892395 -0.00524563156068325 -0.005021966993808746
vn 0.033627621829509735 -0.010487551800906658 -0.004978641867637634
vn 0.046325430274009705 -0.03823782131075859 -0.00036824523704126477
vn 0.03581729531288147 -0.04489394649863243 0.00426331115886569
vn 0.03338317200541496 -0.008725330233573914 0.004867504816502333
vn 0.02522195689380169 -0.19523830711841583 -0.00010441993072163314
vn -0.03284712880849838 0.0008739580516703427 -0.0049553560093045235
vn -0.025222228839993477 -0.19523829221725464 0.000012269340913917404
vn -0.025349851697683334 -0.19285276532173157 0.0009014989482238889
vn -0.03256100043654442 -0.03727346286177635 -0.004869404714554548
vn -0.025222228839993477 -0.19523829221725464 0.000012269340913917404
vn -0.03349491208791733 -0.009589750319719315 0.0050003197975456715
vn -0.03597009554505348 -0.04406709969043732 0.004405179526656866
vn -0.0463266484439373 -0.0382378064095974 -0.0001539192016934976
vn -0.03350671008229256 -0.010478015057742596 -0.004845328163355589
vn -0.03326232731342316 -0.006113691255450249 -0.004889579024165869
vn -0.033132560551166534 -0.0034966222010552883 -0.0049115801230072975
vn -0.033132560551166534 -0.0034966222010552883 -0.0049115801230072975
vn -0.033132560551166534 -0.0034966222010552883 -0.0049115801230072975
vn -0.033132560551166534 -0.0034966222010552883 -0.0049115801230072975
vn -0.033132560551166534 -0.0034966222010552883 -0.0049115801230072975
vn -0.033123042434453964 -0.005244433414191008 -0.004911602009087801
vn -0.033109717071056366 -0.006991641595959663 -0.004911632742732763
vn -0.03322826325893402 -0.009603952057659626 -0.004889657720923424
vn -0.033205557614564896 -0.011347541585564613 -0.0048897103406488895
vn -0.03314882516860962 -0.014830650761723518 -0.004889841191470623
vn -0.03299013897776604 -0.021775033324956894 -0.0048902081325650215
vn 0.04457927867770195 -0.02848595753312111 0.005229636561125517
vn -0.1873365193605423 -0.034826990216970444 0.001537715899758041
vn 0.19169095158576965 -0.016617553308606148 0.0006899822037667036
vn -0.0763869658112526 -0.04810786247253418 -0.0001278021518373862
vn 0.08208169043064117 -0.02662382461130619 -0.0046502999030053616
vn -0.06553453952074051 -0.03963475674390793 0.004059030674397945
vn 0.031173231080174446 -0.03105136938393116 -0.004912578035145998
vn -0.027755752205848694 -0.03532895818352699 0.0048681930638849735
vn 0.019970733672380447 -0.031812045723199844 -0.004933733027428389
vn -0.01653379201889038 -0.03465951979160309 0.004935023374855518
vn 0.016497883945703506 -0.03206104785203934 -0.004933563061058521
vn -0.013952286913990974 -0.034439172595739365 0.0049569858238101006
vn 0.012127639725804329 -0.032057516276836395 -0.004977007396519184
vn -0.009592999704182148 -0.03457470238208771 0.004913377109915018
vn 0.008626130409538746 -0.03212575986981392 -0.004998576827347279
vn -0.0043695536442101 -0.03436487540602684 0.0049135033041238785
vn 0.007751137483865023 -0.03202863037586212 -0.005020124837756157
vn -0.0043695536442101 -0.03436487540602684 0.0049135033041238785
vn 0.006006557960063219 -0.032128866761922836 -0.0050200968980789185
vn -0.0043695536442101 -0.03436487540602684 0.0049135033041238785
vn 0.006006557960063219 -0.032128866761922836 -0.0050200968980789185
vn -0.0026272123213857412 -0.034287504851818085 0.004913527984172106
vn 0.006006557960063219 -0.032128866761922836 -0.0050200968980789185
vn -0.0043715802021324635 -0.034223150461912155 0.004935437813401222
vn 0.007751137483865023 -0.03202863037586212 -0.005020124837756157
vn -0.0043715802021324635 -0.034223150461912155 0.004935437813401222
vn 0.008641103282570839 -0.03227311745285988 -0.004976916126906872
vn -0.0052556246519088745 -0.03397536650300026 0.004979007877409458
vn 0.020844850689172745 -0.03233249858021736 -0.004845432471483946
vn -0.01831769570708275 -0.033691540360450745 0.005085793323814869
vn 0.021547438576817513 -0.04580891877412796 0.00015481609443668276
vn -0.193690687417984 -0.03508235141634941 -0.00004890025593340397
vn 0.017331961542367935 -0.03227287158370018 0.005043378099799156
vn -0.014019531197845936 -0.033740125596523285 -0.004911642987281084
vn 0.007742968387901783 -0.03215434029698372 0.005149526055902243
vn -0.005277834367007017 -0.03399907425045967 -0.004822647664695978
vn 0.1944049894809723 -0.01598588190972805 0.00007521816587541252
vn 0.0017089913599193096 -0.033674489706754684 -0.004822581075131893
vn -0.008624940179288387 0.03210223466157913 -0.005149508360773325
vn -0.0016260596457868814 0.032040297985076904 -0.005211913026869297
vn -0.18894991278648376 0.01603294163942337 0.0014196106931194663
vn -0.017344998195767403 0.03168231621384621 -0.005128240212798119
vn -0.19532054662704468 0.015638522803783417 -0.00016668494208715856
vn -0.020749598741531372 0.03145742788910866 0.0049773878417909145
vn -0.008617042563855648 0.032274551689624786 0.0049769156612455845
vn -0.006874037440866232 0.03222830593585968 0.004998544231057167
vn -0.00686983298510313 0.032079752534627914 0.005020109936594963
vn -0.00686983298510313 0.032079752534627914 0.005020109936594963
vn -0.00686983298510313 0.032079752534627914 0.005020109936594963
vn -0.00686983298510313 0.032079752534627914 0.005020109936594963
vn -0.008614050224423409 0.03212648257613182 0.004998576361685991
vn -0.012110115960240364 0.0322064645588398 0.004955250304192305
vn -0.015602348372340202 0.03226958587765694 0.004911579191684723
vn -0.020793456584215164 0.03204486519098282 0.004889790900051594
vn -0.02942931279540062 0.03208104148507118 0.0047787767834961414
vn -0.0699782744050026 0.03246472403407097 0.003941884730011225
vn -0.08083861321210861 0.040113016963005066 -0.00039426281000487506
vn 0.04311612620949745 0.03301951661705971 0.005065940320491791
vn 0.04457927867770195 -0.02848595753312111 0.005229636561125517
vn -0.1873365193605423 -0.034826990216970444 0.001537715899758041
vn 0.1885245442390442 0.036063335835933685 0.0005674731801263988
vn 0.07741178572177887 0.03486192971467972 -0.004793399013578892
vn 0.02786501869559288 0.03431951254606247 -0.005021028220653534
vn 0.017465565353631973 0.034253887832164764 -0.005000205710530281
vn 0.01399080827832222 0.03415260091423988 -0.005000378005206585
vn 0.00876742135733366 0.03397202119231224 -0.005000571720302105
vn 0.0052662198431789875 0.03411893919110298 -0.004957261960953474
vn 0.003518573474138975 0.034185755997896194 -0.004935450851917267
vn 0.003507084446027875 0.03432703763246536 -0.00491351680830121
vn 0.003507084446027875 0.03432703763246536 -0.00491351680830121
vn 0.003507084446027875 0.03432703763246536 -0.00491351680830121
vn 0.003507084446027875 0.03432703763246536 -0.00491351680830121
vn 0.005252095405012369 0.03440265730023384 -0.00491348747164011
vn 0.017410440370440483 0.035389963537454605 -0.004824378993362188
vn 0.016799351200461388 0.047756001353263855 -0.00012411142233759165
vn 0.013923460617661476 0.03502820059657097 0.004709960892796516
vn 0.0052394261583685875 0.03442458435893059 0.004755145404487848
vn 0.19465892016887665 0.03483352065086365 -0.0000425740763603244
vn 0.0017089913599193096 -0.033674489706754684 -0.004822581075131893
vn 0.1944049894809723 -0.01598588190972805 0.00007521816587541252
vn 0.04457927867770195 -0.02848595753312111 0.005229636561125517
vn 0.19169095158576965 -0.016617553308606148 0.0006899822037667036
vn 0.1944049894809723 -0.01598588190972805 0.00007521816587541252
vn 0.007742968387901783 -0.03215434029698372 0.005149526055902243
vn 0.017331961542367935 -0.03227287158370018 0.005043378099799156
vn 0.021547438576817513 -0.04580891877412796 0.00015481609443668276
vn 0.020844850689172745 -0.03233249858021736 -0.004845432471483946
vn 0.008641103282570839 -0.03227311745285988 -0.004976916126906872
vn 0.007751137483865023 -0.03202863037586212 -0.005020124837756157
vn 0.006006557960063219 -0.032128866761922836 -0.0050200968980789185
vn 0.006006557960063219 -0.032128866761922836 -0.0050200968980789185
vn 0.006006557960063219 -0.032128866761922836 -0.0050200968980789185
vn 0.007751137483865023 -0.03202863037586212 -0.005020124837756157
vn 0.008626130409538746 -0.03212575986981392 -0.004998576827347279
vn 0.012127639725804329 -0.032057516276836395 -0.004977007396519184
vn 0.016497883945703506 -0.03206104785203934 -0.004933563061058521
vn 0.019970733672380447 -0.031812045723199844 -0.004933733027428389
vn 0.031173231080174446 -0.03105136938393116 -0.004912578035145998
vn 0.08208169043064117 -0.02662382461130619 -0.0046502999030053616
s on
f 1//1 2//2 3//3
f 2//2 4//4 3//3
f 3//3 4//4 5//5
f 4//4 6//6 5//5
f 5//5 6//6 7//7
f 6//6 8//8 7//7
f 7//7 8//8 9//9
f 8//8 10//10 9//9
f 9//9 10//10 11//11
f 10//10 12//12 11//11
f 11//11 12//12 13//13
f 12//12 14//14 13//13
f 13//13 14//14 15//15
f 14//14 16//16 15//15
f 15//15 16//16 17//17
f 16//16 18//18 17//17
f 17//17 18//18 19//19
f 18//18 20//20 19//19
f 19//19 20//20 21//21
f 20//20 22//22 21//21
f 21//21 22//22 23//23
f 22//22 24//24 23//23
f 23//23 24//24 25//25
f 24//24 26//26 25//25
f 25//25 26//26 27//27
f 26//26 28//28 27//27
f 27//27 28//28 29//29
f 28//28 30//30 29//29
f 29//29 30//30 31//31
f 30//30 32//32 31//31
f 31//31 32//32 33//33
f 32//32 34//34 33//33
f 33//33 34//34 35//35
f 34//34 36//36 35//35
f 35//35 36//36 37//37
f 37//37 36//36 38//38
f 36//36 39//39 38//38
f 38//38 39//39 40//40
f 4//4 2//2 41//41
f 39//39 36//36 42//42
f 36//36 34//34 42//42
f 42//42 34//34 43//43
f 34//34 32//32 43//43
f 43//43 32//32 44//44
f 32//32 30//30 44//44
f 44//44 30//30 45//45
f 30//30 28//28 45//45
f 45//45 28//28 46//46
f 28//28 26//26 46//46
f 46//46 26//26 47//47
f 26//26 24//24 47//47
f 47//47 24//24 48//48
f 24//24 22//22 48//48
f 48//48 22//22 49//49
f 22//22 20//20 49//49
f 49//49 20//20 50//50
f 20//20 18//18 50//50
f 50//50 18//18 51//51
f 18//18 16//16 51//51
f 51//51 16//16 52//52
f 16//16 14//14 52//52
f 52//52 14//14 53//53
f 14//14 12//12 53//53
f 53//53 12//12 54//54
f 12//12 10//10 54//54
f 54//54 10//10 55//55
f 10//10 8//8 55//55
f 55//55 8//8 56//56
f 8//8 6//6 56//56
f 56//56 6//6 57//57
f 6//6 4//4 57//57
f 4//4 41//41 57//57
f 57//57 41//41 58//58
f 58//58 41//41 59//59
f 41//41 60//60 59//59
f 58//58 61//61 57//57
f 57//57 61//61 56//56
f 61//61 62//62 56//56
f 56//56 62//62 55//55
f 62//62 63//63 55//55
f 55//55 63//63 54//54
f 63//63 64//64 54//54
f 54//54 64//64 53//53
f 64//64 65//65 53//53
f 53//53 65//65 52//52
f 65//65 66//66 52//52
f 52//52 66//66 51//51
f 66//66 67//67 51//51
f 51//51 67//67 50//50
f 67//67 68//68 50//50
f 50//50 68//68 49//49
f 68//68 69//69 49//49
f 49//49 69//69 48//48
f 69//69 70//70 48//48
f 48//48 70//70 47//47
f 70//70 71//71 47//47
f 47//47 71//71 46//46
f 71//71 72//72 46//46
f 46//46 72//72 45//45
f 72//72 73//73 45//45
f 45//45 73//73 44//44
f 73//73 74//74 44//44
f 44//44 74//74 43//43
f 74//74 75//75 43//43
f 43//43 75//75 42//42
f 75//75 76//76 42//42
f 42//42 76//76 39//39
f 76//76 77//77 39//39
f 39//39 77//77 40//40
f 77//77 78//78 40//40
f 40//40 78//78 79//79
f 78//78 80//80 79//79
f 58//58 81//81 61//61
f 81//81 82//82 61//61
f 61//61 82//82 62//62
f 83//83 78//78 84//84
f 78//78 77//77 84//84
f 84//84 77//77 85//85
f 77//77 76//76 85//85
f 85//85 76//76 86//86
f 76//76 75//75 86//86
f 86//86 75//75 87//87
f 75//75 74//74 87//87
f 87//87 74//74 88//88
f 74//74 73//73 88//88
f 88//88 73//73 89//89
f 73//73 72//72 89//89
f 89//89 72//72 90//90
f 72//72 71//71 90//90
f 90//90 71//71 91//91
f 71//71 70//70 91//91
f 91//91 70//70 92//92
f 70//70 69//69 92//92
f 92//92 69//69 93//93
f 69//69 68//68 93//93
f 93//93 68//68 94//94
f 68//68 67//67 94//94
f 94//94 67//67 95//95
f 67//67 66//66 95//95
f 95//95 66//66 96//96
f 66//66 65//65 96//96
f 96//96 65//65 97//97
f 65//65 64//64 97//97
f 97//97 64//64 98//98
f 64//64 63//63 98//98
f 98//98 63//63 99//99
f 63//63 62//62 99//99
f 99//99 62//62 82//82
f 100//100 101//101 102//102
f 101//101 103//103 102//102
f 102//102 103//103 104//104
f 103//103 105//105 104//104
f 104//104 105//105 106//106
f 105//105 107//107 106//106
f 106//106 107//107 108//108
f 107//107 109//109 108//108
f 108//108 109//109 110//110
f 109//109 111//111 110//110
f 110//110 111//111 112//112
f 111//111 113//113 112//112
f 112//112 113//113 114//114
f 113//113 115//115 114//114
f 114//114 115//115 116//116
f 115//115 117//117 116//116
f 116//116 117//117 118//118
f 117//117 119//119 118//118
f 118//118 119//119 120//120
f 119//119 121//121 120//120
f 120//120 121//121 122//122
f 121//121 123//123 122//122
f 122//122 123//123 124//124
f 123//123 125//125 124//124
f 124//124 125//125 126//126
f 125//125 127//127 126//126
f 126//126 127//127 128//128
f 127//127 129//129 128//128
f 128//128 129//129 130//130
f 129//129 131//131 130//130
f 130//130 131//131 132//132
f 131//131 133//133 132//132
f 132//132 133//133 134//134
f 133//133 135//135 134//134
f 134//134 135//135 136//136
f 136//136 135//135 137//137
f 135//135 138//138 137//137
f 137//137 138//138 139//139
f 103//103 101//101 140//140
f 138//138 135//135 141//141
f 135//135 133//133 141//141
f 141//141 133//133 142//142
f 133//133 131//131 142//142
f 142//142 131//131 143//143
f 131//131 129//129 143//143
f 143//143 129//129 144//144
f 129//129 127//127 144//144
f 144//144 127//127 145//145
f 127//127 125//125 145//145
f 145//145 125//125 146//146
f 125//125 123//123 146//146
f 146//146 123//123 147//147
f 123//123 121//121 147//147
f 147//147 121//121 148//148
f 121//121 119//119 148//148
f 148//148 119//119 149//149
f 119//119 117//117 149//149
f 149//149 117//117 150//150
f 117//117 115//115 150//150
f 150//150 115//115 151//151
f 115//115 113//113 151//151
f 151//151 113//113 152//152
f 113//113 111//111 152//152
f 152//152 111//111 153//153
f 111//111 109//109 153//153
f 153//153 109//109 154//154
f 109//109 107//107 154//154
f 154//154 107//107 155//155
f 107//107 105//105 155//155
f 155//155 105//105 156//156
f 105//105 103//103 156//156
f 103//103 140//140 156//156
f 156//156 140//140 157//157
f 157//157 140//140 158//158
f 140//140 159//159 158//158
f 157//157 160//160 156//156
f 156//156 160//160 155//155
f 160//160 161//161 155//155
f 155//155 161//161 154//154
f 161//161 162//162 154//154
f 154//154 162//162 153//153
f 162//162 163//163 153//153
f 153//153 163//163 152//152
f 163//163 164//164 152//152
f 152//152 164//164 151//151
f 164//164 165//165 151//151
f 151//151 165//165 150//150
f 165//165 166//166 150//150
f 150//150 166//166 149//149
f 166//166 167//167 149//149
f 149//149 167//167 148//148
f 167//167 168//168 148//148
f 148//148 168//168 147//147
f 168//168 169//169 147//147
f 147//147 169//169 146//146
f 169//169 170//170 146//146
f 146//146 170//170 145//145
f 170//170 171//171 145//145
f 145//145 171//171 144//144
f 171//171 172//172 144//144
f 144//144 172//172 143//143
f 172//172 173//173 143//143
f 143//143 173//173 142//142
f 173//173 174//174 142//142
f 142//142 174//174 141//141
f 174//174 175//175 141//141
f 141//141 175//175 138//138
f 175//175 176//176 138//138
f 138//138 176//176 139//139
f 176//176 177//177 139//139
f 139//139 177//177 178//178
f 177//177 179//179 178//178
f 157//157 180//180 160//160
f 180//180 181//181 160//160
f 160//160 181//181 161//161
f 182//182 177//177 183//183
f 177//177 176//176 183//183
f 183//183 176//176 184//184
f 176//176 175//175 184//184
f 184//184 175//175 185//185
f 175//175 174//174 185//185
f 185//185 174//174 186//186
f 174//174 173//173 186//186
f 186//186 173//173 187//187
f 173//173 172//172 187//187
f 187//187 172//172 188//188
f 172//172 171//171 188//188
f 188//188 171//171 189//189
f 171//171 170//170 189//189
f 189//189 170//170 190//190
f 170//170 169//169 190//190
f 190//190 169//169 191//191
f 169//169 168//168 191//191
f 191//191 168//168 192//192
f 168//168 167//167 192//192
f 192//192 167//167 193//193
f 167//167 166//166 193//193
f 193//193 166//166 194//194
f 166//166 165//165 194//194
f 194//194 165//165 195//195
f 165//165 164//164 195//195
f 195//195 164//164 196//196
f 164//164 163//163 196//196
f 196//196 163//163 197//197
f 163//163 162//162 197//197
f 197//197 162//162 198//198
f 162//162 161//161 198//198
f 198//198 161//161 181//181
f 199//199 200//200 201//201
f 200//200 202//202 201//201
f 201//201 202//202 203//203
f 202//202 204//204 203//203
f 203//203 204//204 205//205
f 204//204 206//206 205//205
f 205//205 206//206 207//207
f 206//206 208//208 207//207
f 207//207 208//208 209//209
f 208//208 210//210 209//209
f 209//209 210//210 211//211
f 210//210 212//212 211//211
f 211//211 212//212 213//213
f 212//212 214//214 213//213
f 213//213 214//214 215//215
f 214//214 216//216 215//215
f 215//215 216//216 217//217
f 216//216 218//218 217//217
f 217//217 218//218 219//219
f 218//218 220//220 219//219
f 219//219 220//220 221//221
f 220//220 222//222 221//221
f 221//221 222//222 223//223
f 222//222 224//224 223//223
f 223//223 224//224 225//225
f 224//224 226//226 225//225
f 225//225 226//226 227//227
f 226//226 228//228 227//227
f 227//227 228//228 229//229
f 228//228 230//230 229//229
f 229//229 230//230 231//231
f 230//230 232//232 231//231
f 231//231 232//232 233//233
f 232//232 234//234 233//233
f 233//233 234//234 235//235
f 235//235 234//234 236//236
f 234//234 237//237 236//236
f 236//236 237//237 238//238
f 202//202 200//200 239//239
f 237//237 234//234 240//240
f 234//234 232//232 240//240
f 240//240 232//232 241//241
f 232//232 230//230 241//241
f 241//241 230//230 242//242
f 230//230 228//228 242//242
f 242//242 228//228 243//243
f 228//228 226//226 243//243
f 243//243 226//226 244//244
f 226//226 224//224 244//244
f 244//244 224//224 245//245
f 224//224 222//222 245//245
f 245//245 222//222 246//246
f 222//222 220//220 246//246
f 246//246 220//220 247//247
f 220//220 218//218 247//247
f 247//247 218//218 248//248
f 218//218 216//216 248//248
f 248//248 216//216 249//249
f 216//216 214//214 249//249
f 249//249 214//214 250//250
f 214//214 212//212 250//250
f 250//250 212//212 251//251
f 212//212 210//210 251//251
f 251//251 210//210 252//252
f 210//210 208//208 252//252
f 252//252 208//208 253//253
f 208//208 206//206 253//253
f 253//253 206//206 254//254
f 206//206 204//204 254//254
f 254//254 204//204 255//255
f 204//204 202//202 255//255
f 202//202 239//239 255//255
f 255//255 239//239 256//256
f 256//256 239//239 257//257
f 239//239 258//258 257//257
f 256//256 259//259 255//255
f 255//255 259//259 254//254
f 259//259 260//260 254//254
f 254//254 260//260 253//253
f 260//260 261//261 253//253
f 253//253 261//261 252//252
f 261//261 262//262 252//252
f 252//252 262//262 251//251
f 262//262 263//263 251//251
f 251//251 263//263 250//250
f 263//263 264//264 250//250
f 250//250 264//264 249//249
f 264//264 265//265 249//249
f 249//249 265//265 248//248
f 265//265 266//266 248//248
f 248//248 266//266 247//247
f 266//266 267//267 247//247
f 247//247 267//267 246//246
f 267//267 268//268 246//246
f 246//246 268//268 245//245
f 268//268 269//269 245//245
f 245//245 269//269 244//244
f 269//269 270//270 244//244
f 244//244 270//270 243//243
f 270//270 271//271 243//243
f 243//243 271//271 242//242
f 271//271 272//272 242//242
f 242//242 272//272 241//241
f 272//272 273//273 241//241
f 241//241 273//273 240//240
f 273//273 274//274 240//240
f 240//240 274//274 237//237
f 274//274 275//275 237//237
f 237//237 275//275 238//238
f 275//275 276//276 238//238
f 238//238 276//276 277//277
f 276//276 278//278 277//277
f 256//256 279//279 259//259
f 279//279 280//280 259//259
f 259//259 280//280 260//260
f 281//281 276//276 282//282
f 276//276 275//275 282//282
f 282//282 275//275 283//283
f 275//275 274//274 283//283
f 283//283 274//274 284//284
f 274//274 273//273 284//284
f 284//284 273//273 285//285
f 273//273 272//272 285//285
f 285//285 272//272 286//286
f 272//272 271//271 286//286
f 286//286 271//271 287//287
f 271//271 270//270 287//287
f 287//287 270//270 288//288
f 270//270 269//269 288//288
f 288//288 269//269 289//289
f 269//269 268//268 289//289
f 289//289 268//268 290//290
f 268//268 267//267 290//290
f 290//290 267//267 291//291
f 267//267 266//266 291//291
f 291//291 266//266 292//292
f 266//266 265//265 292//292
f 292//292 265//265 293//293
f 265//265 264//264 293//293
f 293//293 264//264 294//294
f 264//264 263//263 294//294
f 294//294 263//263 295//295
f 263//263 262//262 295//295
f 295//295 262//262 296//296
f 262//262 261//261 296//296
f 296//296 261//261 297//297
f 261//261 260//260 297//297
f 297//297 260//260 280//280

