# Exported by Sketchfab Model Ripper robust edition
o model_47
v -0.03810508921742439 -0.34614357352256775 0.9804601073265076
v -6.070000040381274e-7 -0.3501030206680298 0.9804601073265076
v -6.070000040381274e-7 -0.15510039031505585 1.0000008344650269
v -6.070000040381274e-7 -0.15510039031505585 -1
v -6.070000040381274e-7 0.040892086923122406 -0.9804592132568359
v -0.03810508921742439 0.03693264350295067 -0.9804592132568359
v -6.070000040381274e-7 0.22896568477153778 -0.9237908720970154
v -0.07474401593208313 0.22203664481639862 -0.9237908720970154
v -0.07474401593208313 0.026044173166155815 -0.9804592132568359
v -0.1465563029050827 0.2002597153186798 -0.9237908720970154
v -0.10845182836055756 0.008226674981415272 -0.9804592132568359
v -0.21250636875629425 0.16561457514762878 -0.9237908720970154
v -0.13776296377182007 -0.016519850119948387 -0.9804592132568359
v -0.27064013481140137 0.11909110844135284 -0.9237908720970154
v -0.16218891739845276 -0.04522581771016121 -0.9804592132568359
v -6.070000040381274e-7 -0.15510039031505585 -1
v -6.070000040381274e-7 0.040892086923122406 0.9804601073265076
v -6.070000040381274e-7 0.22896568477153778 0.923791766166687
v -6.070000040381274e-7 -0.15510039031505585 -1
v -6.070000040381274e-7 -0.15510039031505585 -1
v -6.070000040381274e-7 -0.15510039031505585 -1
v -6.070000040381274e-7 -0.15510039031505585 -1
v -0.18026411533355713 -0.07888109236955643 -0.9804592132568359
v -0.31802648305892944 0.0616791695356369 -0.9237908720970154
v -0.3536883592605591 -0.004641517996788025 -0.9237908720970154
v -0.19150005280971527 -0.11550594866275787 -0.9804592132568359
v -0.37518319487571716 -0.0759115070104599 -0.9237908720970154
v -0.19491969048976898 -0.15411053597927094 -0.9804592132568359
v -0.3825109899044037 -0.1501510888338089 -0.9237908720970154
v -0.5446993112564087 -0.037306930869817734 -0.8319491147994995
v -0.5554466843605042 -0.14619164168834686 -0.8319491147994995
v -0.6936975717544556 -0.0016719349659979343 -0.7068880200386047
v -0.7068876028060913 -0.1402524709701538 -0.7068880200386047
v -0.8153387904167175 0.029013756662607193 -0.5554468035697937
v -0.8314599394798279 -0.13431331515312195 -0.5554468035697937
v -0.9062033295631409 0.05277042090892792 -0.3825107216835022
v -0.9237900376319885 -0.1293639987707138 -0.3825107216835022
v -0.9618945121765137 0.06761833280324936 -0.19491903483867645
v -0.9809467792510986 -0.12639442086219788 -0.19491903483867645
v -0.9809467792510986 0.07355750352144241 0.0004889600095339119
v -0.9999989867210388 -0.12540456652641296 0.0004889600095339119
v -0.9618945121765137 0.06761833280324936 0.1949199140071869
v -0.9809467792510986 -0.12639442086219788 0.1949199140071869
v -0.9062033295631409 0.05277042090892792 0.38251158595085144
v -0.9237900376319885 -0.1293639987707138 0.38251158595085144
v -0.8153387904167175 0.029013756662607193 0.5554476976394653
v -0.8314599394798279 -0.13431331515312195 0.5554476976394653
v -0.6936975717544556 -0.0016719349659979343 0.7068888545036316
v -0.7068876028060913 -0.1402524709701538 0.7068888545036316
v -0.5446993112564087 -0.037306930869817734 0.8319500088691711
v -0.5554466843605042 -0.14619164168834686 0.8319500088691711
v -0.37518319487571716 -0.0759115070104599 0.923791766166687
v -0.3825109899044037 -0.1501510888338089 0.923791766166687
v -0.19150005280971527 -0.11550594866275787 0.9804601073265076
v -0.19491969048976898 -0.15411053597927094 0.9804601073265076
v -6.070000040381274e-7 -0.15510039031505585 1.0000008344650269
v -6.070000040381274e-7 -0.15510039031505585 -1
v -6.070000040381274e-7 -0.15510039031505585 -1
v -6.070000040381274e-7 -0.15510039031505585 1.0000008344650269
v -0.18026411533355713 -0.07888109236955643 0.9804601073265076
v -0.3536883592605591 -0.004641517996788025 0.923791766166687
v -6.070000040381274e-7 -0.15510039031505585 1.0000008344650269
v -0.16218891739845276 -0.04522581771016121 0.9804601073265076
v -0.31802648305892944 0.0616791695356369 0.923791766166687
v -0.13776296377182007 -0.016519850119948387 0.9804601073265076
v -0.27064013481140137 0.11909110844135284 0.923791766166687
v -0.10845182836055756 0.008226674981415272 0.9804601073265076
v -0.21250636875629425 0.16561457514762878 0.923791766166687
v -0.07474401593208313 0.026044173166155815 0.9804601073265076
v -0.1465563029050827 0.2002597153186798 0.923791766166687
v -0.03810508921742439 0.03693264350295067 0.9804601073265076
v -0.07474401593208313 0.22203664481639862 0.923791766166687
v -0.10845182836055756 0.39328259229660034 0.8319500088691711
v -0.21250636875629425 0.36259689927101135 0.8319500088691711
v -0.3087446093559265 0.31211400032043457 0.8319500088691711
v -0.39276987314224243 0.24480345845222473 0.8319500088691711
v -0.4621395766735077 0.16165512800216675 0.8319500088691711
v -0.5134340524673462 0.06662847101688385 0.8319500088691711
v -0.6531504988670349 0.13096943497657776 0.7068888545036316
v -6.070000040381274e-7 -0.15510039031505585 1.0000008344650269
v -6.070000040381274e-7 -0.15510039031505585 1.0000008344650269
v -6.070000040381274e-7 -0.15510039031505585 1.0000008344650269
v -6.070000040381274e-7 -0.15510039031505585 1.0000008344650269
v -6.070000040381274e-7 -0.15510039031505585 1.0000008344650269
v -0.588177502155304 0.2517324686050415 0.7068888545036316
v -0.7679525017738342 0.18541179597377777 0.5554476976394653
v -0.8534433245658875 0.22797581553459167 0.38251158595085144
v -0.9062033295631409 0.25470206141471863 0.1949199140071869
v -0.9237900376319885 0.2646006643772125 0.0004889600095339119
v -0.9062033295631409 0.25470206141471863 -0.19491903483867645
v -0.8534433245658875 0.22797581553459167 -0.3825107216835022
v -0.7679525017738342 0.18541179597377777 -0.5554468035697937
v -0.6531504988670349 0.13096943497657776 -0.7068880200386047
v -0.5134340524673462 0.06662847101688385 -0.8319491147994995
v -0.4621395766735077 0.16165512800216675 -0.8319491147994995
v -0.588177502155304 0.2517324686050415 -0.7068880200386047
v -0.6912549734115601 0.3269619047641754 -0.5554468035697937
v -0.7679525017738342 0.38635358214378357 -0.3825107216835022
v -0.8153387904167175 0.42693787813186646 -0.19491903483867645
v -0.8314599394798279 0.4427756667137146 0.0004889600095339119
v -0.8153387904167175 0.42693787813186646 0.1949199140071869
v -0.7679525017738342 0.38635358214378357 0.38251158595085144
v -0.6912549734115601 0.3269619047641754 0.5554476976394653
v -0.5002440810203552 0.3566577434539795 0.7068888545036316
v -0.39276987314224243 0.4417857825756073 0.7068888545036316
v -0.588177502155304 0.4506945312023163 0.5554476976394653
v -0.6531504988670349 0.5239442586898804 0.38251158595085144
v -0.6936975717544556 0.5724474191665649 0.1949199140071869
v -0.7068876028060913 0.5952142477035522 0.0004889600095339119
v -0.6936975717544556 0.5724474191665649 -0.19491903483867645
v -0.6531504988670349 0.5239442586898804 -0.3825107216835022
v -0.588177502155304 0.4506945312023163 -0.5554468035697937
v -0.5002440810203552 0.3566577434539795 -0.7068880200386047
v -0.39276987314224243 0.24480345845222473 -0.8319491147994995
v -0.3087446093559265 0.31211400032043457 -0.8319491147994995
v -0.39276987314224243 0.4417857825756073 -0.7068880200386047
v -0.4621395766735077 0.5516603589057922 -0.5554468035697937
v -0.5134340524673462 0.6348086595535278 -0.3825107216835022
v -0.5446993112564087 0.6902409195899963 -0.19491903483867645
v -0.5554466843605042 0.7149874567985535 0.0004889600095339119
v -0.5446993112564087 0.6902409195899963 0.1949199140071869
v -0.5134340524673462 0.6348086595535278 0.38251158595085144
v -0.4621395766735077 0.5516603589057922 0.5554476976394653
v -0.27064013481140137 0.5061267614364624 0.7068888545036316
v -0.13776296377182007 0.5447313189506531 0.7068888545036316
v -0.31802648305892944 0.6258999109268188 0.5554476976394653
v -0.3536883592605591 0.7169671654701233 0.38251158595085144
v -0.37518319487571716 0.7773486971855164 0.1949199140071869
v -0.3825109899044037 0.8040749430656433 0.0004889600095339119
v -0.37518319487571716 0.7773486971855164 -0.19491903483867645
v -0.3536883592605591 0.7169671654701233 -0.3825107216835022
v -0.31802648305892944 0.6258999109268188 -0.5554468035697937
v -0.27064013481140137 0.5061267614364624 -0.7068880200386047
v -0.21250636875629425 0.36259689927101135 -0.8319491147994995
v -0.10845182836055756 0.39328259229660034 -0.8319491147994995
v -0.13776296377182007 0.5447313189506531 -0.7068880200386047
v -0.16218891739845276 0.6704437136650085 -0.5554468035697937
v -0.18026411533355713 0.7674500346183777 -0.3825107216835022
v -0.19150005280971527 0.8298113346099854 -0.19491903483867645
v -0.19491969048976898 0.8565375804901123 0.0004889600095339119
v -0.19150005280971527 0.8298113346099854 0.1949199140071869
v -0.18026411533355713 0.7674500346183777 0.38251158595085144
v -0.16218891739845276 0.6704437136650085 0.5554476976394653
v -6.070000040381274e-7 0.5566096901893616 0.7068888545036316
v -6.070000040381274e-7 0.4031812250614166 0.8319500088691711
v -6.070000040381274e-7 0.4031812250614166 -0.8319491147994995
v -6.070000040381274e-7 0.5566096901893616 -0.7068880200386047
v -6.070000040381274e-7 0.6843017339706421 0.5554476976394653
v -6.070000040381274e-7 0.7822979688644409 0.38251158595085144
v -6.070000040381274e-7 0.8446592092514038 0.1949199140071869
v -6.070000040381274e-7 0.8713854551315308 0.0004889600095339119
v -6.070000040381274e-7 0.8446592092514038 -0.19491903483867645
v -6.070000040381274e-7 0.7822979688644409 -0.3825107216835022
v -6.070000040381274e-7 0.6843017339706421 -0.5554468035697937
v -6.070000040381274e-7 -0.15510039031505585 -1
v -6.070000040381274e-7 -0.3501030206680298 -0.9804592132568359
v -0.03810508921742439 -0.34614357352256775 -0.9804592132568359
v -0.07474401593208313 -0.5302577018737793 -0.9237908720970154
v -0.1465563029050827 -0.5074909329414368 -0.9237908720970154
v -0.07474401593208313 -0.33525508642196655 -0.9804592132568359
v -0.21250636875629425 -0.47185590863227844 -0.9237908720970154
v -0.10845182836055756 -0.31644773483276367 -0.9804592132568359
v -0.27064013481140137 -0.4233527183532715 -0.9237908720970154
v -0.13776296377182007 -0.29269108176231384 -0.9804592132568359
v -0.31802648305892944 -0.36495092511177063 -0.9237908720970154
v -0.16218891739845276 -0.26200538873672485 -0.9804592132568359
v -0.3536883592605591 -0.2976403832435608 -0.9237908720970154
v -0.18026411533355713 -0.22835010290145874 -0.9804592132568359
v -0.37518319487571716 -0.2253805249929428 -0.9237908720970154
v -0.19150005280971527 -0.1917252540588379 -0.9804592132568359
v -0.3825109899044037 -0.1501510888338089 -0.9237908720970154
v -0.19491969048976898 -0.15411053597927094 -0.9804592132568359
v -6.070000040381274e-7 -0.15510039031505585 -1
v -6.070000040381274e-7 -0.15510039031505585 -1
v -6.070000040381274e-7 -0.15510039031505585 -1
v -6.070000040381274e-7 -0.15510039031505585 -1
v -6.070000040381274e-7 -0.15510039031505585 -1
v -6.070000040381274e-7 -0.15510039031505585 -1
v -6.070000040381274e-7 -0.15510039031505585 -1
v -0.5554466843605042 -0.14619164168834686 -0.8319491147994995
v -0.5446993112564087 -0.2550763487815857 -0.8319491147994995
v -0.5134340524673462 -0.3600016236305237 -0.8319491147994995
v -0.4621395766735077 -0.4579978585243225 -0.8319491147994995
v -0.39276987314224243 -0.5431259274482727 -0.8319491147994995
v -0.3087446093559265 -0.6143959164619446 -0.8319491147994995
v -0.21250636875629425 -0.6668585538864136 -0.8319491147994995
v -0.10845182836055756 -0.69952392578125 -0.8319491147994995
v -6.070000040381274e-7 -0.5371867418289185 -0.9237908720970154
v -6.070000040381274e-7 -0.5371867418289185 0.923791766166687
v -0.07474401593208313 -0.5302577018737793 0.923791766166687
v -0.07474401593208313 -0.33525508642196655 0.9804601073265076
v -0.1465563029050827 -0.5074909329414368 0.923791766166687
v -0.10845182836055756 -0.31644773483276367 0.9804601073265076
v -0.21250636875629425 -0.47185590863227844 0.923791766166687
v -0.13776296377182007 -0.29269108176231384 0.9804601073265076
v -0.27064013481140137 -0.4233527183532715 0.923791766166687
v -0.16218891739845276 -0.26200538873672485 0.9804601073265076
v -0.31802648305892944 -0.36495092511177063 0.923791766166687
v -0.18026411533355713 -0.22835010290145874 0.9804601073265076
v -6.070000040381274e-7 -0.15510039031505585 1.0000008344650269
v -0.7068876028060913 -0.1402524709701538 -0.7068880200386047
v -6.070000040381274e-7 -0.15510039031505585 1.0000008344650269
v -6.070000040381274e-7 -0.15510039031505585 1.0000008344650269
v -6.070000040381274e-7 -0.15510039031505585 1.0000008344650269
v -6.070000040381274e-7 -0.15510039031505585 1.0000008344650269
v -6.070000040381274e-7 -0.15510039031505585 1.0000008344650269
v -0.19150005280971527 -0.1917252540588379 0.9804601073265076
v -0.3536883592605591 -0.2976403832435608 0.923791766166687
v -6.070000040381274e-7 -0.15510039031505585 1.0000008344650269
v -0.19491969048976898 -0.15411053597927094 0.9804601073265076
v -0.37518319487571716 -0.2253805249929428 0.923791766166687
v -0.3825109899044037 -0.1501510888338089 0.923791766166687
v -0.5446993112564087 -0.2550763487815857 0.8319500088691711
v -0.5554466843605042 -0.14619164168834686 0.8319500088691711
v -0.5134340524673462 -0.3600016236305237 0.8319500088691711
v -0.4621395766735077 -0.4579978585243225 0.8319500088691711
v -0.39276987314224243 -0.5431259274482727 0.8319500088691711
v -0.3087446093559265 -0.6143959164619446 0.8319500088691711
v -0.21250636875629425 -0.6668585538864136 0.8319500088691711
v -0.10845182836055756 -0.69952392578125 0.8319500088691711
v -6.070000040381274e-7 -0.7104123830795288 0.8319500088691711
v -6.070000040381274e-7 -0.7104123830795288 -0.8319491147994995
v -6.070000040381274e-7 -0.8618611693382263 0.7068888545036316
v -0.13776296377182007 -0.848003089427948 0.7068888545036316
v -0.27064013481140137 -0.8064289093017578 0.7068888545036316
v -0.39276987314224243 -0.7381285429000854 0.7068888545036316
v -0.5002440810203552 -0.6480511426925659 0.7068888545036316
v -0.588177502155304 -0.5381765961647034 0.7068888545036316
v -0.6531504988670349 -0.4134541153907776 0.7068888545036316
v -0.6936975717544556 -0.2788330018520355 0.7068888545036316
v -0.7068876028060913 -0.1402524709701538 0.7068888545036316
v -0.8153387904167175 -0.2986302375793457 0.5554476976394653
v -0.8314599394798279 -0.13431331515312195 0.5554476976394653
v -0.7679525017738342 -0.4570080041885376 0.5554476976394653
v -0.6912549734115601 -0.603507399559021 0.5554476976394653
v -0.588177502155304 -0.7331792116165161 0.5554476976394653
v -0.4621395766735077 -0.8400841951370239 0.5554476976394653
v -0.31802648305892944 -0.9202629327774048 0.5554476976394653
v -0.16218891739845276 -0.969756007194519 0.5554476976394653
v -6.070000040381274e-7 -0.9865836501121521 0.5554476976394653
v -6.070000040381274e-7 -0.8618611693382263 -0.7068880200386047
v -0.13776296377182007 -0.848003089427948 -0.7068880200386047
v -0.27064013481140137 -0.8064289093017578 -0.7068880200386047
v -0.39276987314224243 -0.7381285429000854 -0.7068880200386047
v -0.5002440810203552 -0.6480511426925659 -0.7068880200386047
v -0.588177502155304 -0.5381765961647034 -0.7068880200386047
v -0.6531504988670349 -0.4134541153907776 -0.7068880200386047
v -0.6936975717544556 -0.2788330018520355 -0.7068880200386047
v -0.8314599394798279 -0.13431331515312195 -0.5554468035697937
v -0.8153387904167175 -0.2986302375793457 -0.5554468035697937
v -0.9237900376319885 -0.1293639987707138 -0.3825107216835022
v -0.7679525017738342 -0.4570080041885376 -0.5554468035697937
v -0.6912549734115601 -0.603507399559021 -0.5554468035697937
v -0.588177502155304 -0.7331792116165161 -0.5554468035697937
v -0.4621395766735077 -0.8400841951370239 -0.5554468035697937
v -0.31802648305892944 -0.9202629327774048 -0.5554468035697937
v -0.16218891739845276 -0.969756007194519 -0.5554468035697937
v -6.070000040381274e-7 -0.9865836501121521 -0.5554468035697937
v -6.070000040381274e-7 -1.0786406993865967 0.38251158595085144
v -0.18026411533355713 -1.059833288192749 0.38251158595085144
v -0.3536883592605591 -1.005391001701355 0.38251158595085144
v -0.5134340524673462 -0.9163035154342651 0.38251158595085144
v -0.6531504988670349 -0.7965303063392639 0.38251158595085144
v -0.7679525017738342 -0.6520106196403503 0.38251158595085144
v -0.8534433245658875 -0.4886835515499115 0.38251158595085144
v -0.9062033295631409 -0.31248828768730164 0.38251158595085144
v -0.9237900376319885 -0.1293639987707138 0.38251158595085144
v -0.9618945121765137 -0.3204071819782257 0.1949199140071869
v -0.9809467792510986 -0.12639442086219788 0.1949199140071869
v -0.9062033295631409 -0.5084807872772217 0.1949199140071869
v -0.8153387904167175 -0.681706428527832 0.1949199140071869
v -0.6936975717544556 -0.8351349234580994 0.1949199140071869
v -0.5446993112564087 -0.961837112903595 0.1949199140071869
v -0.37518319487571716 -1.056863784790039 0.1949199140071869
v -0.19150005280971527 -1.1152656078338623 0.1949199140071869
v -6.070000040381274e-7 -1.1360526084899902 0.1949199140071869
v -6.070000040381274e-7 -1.0786406993865967 -0.3825107216835022
v -0.18026411533355713 -1.059833288192749 -0.3825107216835022
v -0.3536883592605591 -1.005391001701355 -0.3825107216835022
v -0.5134340524673462 -0.9163035154342651 -0.3825107216835022
v -0.6531504988670349 -0.7965303063392639 -0.3825107216835022
v -0.7679525017738342 -0.6520106196403503 -0.3825107216835022
v -0.8534433245658875 -0.4886835515499115 -0.3825107216835022
v -0.9062033295631409 -0.31248828768730164 -0.3825107216835022
v -0.9809467792510986 -0.12639442086219788 -0.19491903483867645
v -0.9618945121765137 -0.3204071819782257 -0.19491903483867645
v -0.9999989867210388 -0.12540456652641296 0.0004889600095339119
v -0.9062033295631409 -0.5084807872772217 -0.19491903483867645
v -0.8153387904167175 -0.681706428527832 -0.19491903483867645
v -0.6936975717544556 -0.8351349234580994 -0.19491903483867645
v -0.5446993112564087 -0.961837112903595 -0.19491903483867645
v -0.37518319487571716 -1.056863784790039 -0.19491903483867645
v -0.19150005280971527 -1.1152656078338623 -0.19491903483867645
v -6.070000040381274e-7 -1.1360526084899902 -0.19491903483867645
v -6.070000040381274e-7 -1.154860019683838 0.0004889600095339119
v -0.19491969048976898 -1.1340728998184204 0.0004889600095339119
v -0.3825109899044037 -1.074681282043457 0.0004889600095339119
v -0.5554466843605042 -0.9776749014854431 0.0004889600095339119
v -0.7068876028060913 -0.8489929437637329 0.0004889600095339119
v -0.8314599394798279 -0.6916050314903259 0.0004889600095339119
v -0.9237900376319885 -0.5144199132919312 0.0004889600095339119
v -0.9809467792510986 -0.32337677478790283 0.0004889600095339119
vn -0.039178311824798584 -0.19575949013233185 0.97986900806427
vn 0.679167628288269 -0.14949609339237213 0.7185974717140198
vn 0.6633741855621338 0 0.7482877969741821
vn 0.6633741855621338 0 -0.7482877969741821
vn 0.6790553331375122 0.15000522136688232 -0.7185974717140198
vn -0.04126138240098953 0.19533105194568634 -0.97986900806427
vn 0.6736595630645752 0.2867037355899811 -0.681163489818573
vn -0.0713699534535408 0.3805861175060272 -0.9219872951507568
vn -0.07727129012346268 0.18408113718032837 -0.97986900806427
vn -0.14401261508464813 0.35509631037712097 -0.9236704111099243
vn -0.11052186042070389 0.16625773906707764 -0.97986900806427
vn -0.21091653406620026 0.31991755962371826 -0.9236704111099243
vn -0.1398257166147232 0.14249731600284576 -0.97986900806427
vn -0.269613116979599 0.272289901971817 -0.9236704111099243
vn -0.16413643956184387 0.11364835500717163 -0.97986900806427
vn 0.6633741855621338 0 -0.7482877969741821
vn 0.679167628288269 0.14949609339237213 0.7185974717140198
vn 0.673848569393158 0.2862592935562134 0.681163489818573
vn 0.6633741855621338 0 -0.7482877969741821
vn 0.6633741855621338 0 -0.7482877969741821
vn 0.6633741855621338 0 -0.7482877969741821
vn 0.6633741855621338 0 -0.7482877969741821
vn -0.18551047146320343 0.07377388328313828 -0.97986900806427
vn -0.317818284034729 0.21406672894954681 -0.9236704111099243
vn -0.3581051826477051 0.14730972051620483 -0.9219872951507568
vn -0.196076899766922 0.03755752742290497 -0.97986900806427
vn -0.3798716962337494 0.07507968693971634 -0.9219872951507568
vn -0.19964148104190826 -4.1290470933867673e-14 -0.97986900806427
vn -0.387220174074173 -8.008608424862895e-14 -0.9219872951507568
vn -0.5461990237236023 0.10527123510837555 -0.8310141563415527
vn -0.5598641633987427 -0.003782563144341111 -0.8285757899284363
vn -0.6941385865211487 0.13879455626010895 -0.7063339352607727
vn -0.7109482288360596 -0.003779239719733596 -0.7032341957092285
vn -0.8146711587905884 0.15771456062793732 -0.5580654144287109
vn -0.8322274088859558 -1.721238575931247e-13 -0.5544344186782837
vn -0.905099093914032 0.18003539741039276 -0.3852050006389618
vn -0.9244976043701172 0.0037768674083054066 -0.3811691105365753
vn -0.9621957540512085 0.1875445544719696 -0.1975002884864807
vn -0.9811564087867737 -2.0249009717240862e-13 -0.19321508705615997
vn -0.9807829260826111 0.19508986175060272 0.002184694167226553
vn -0.999997615814209 -2.0682260971124217e-13 0.002184694167226553
vn -0.9621957540512085 0.1875445544719696 0.1975002884864807
vn -0.9811491966247559 0.0037728105671703815 0.19321508705615997
vn -0.905099093914032 0.18003539741039276 0.3852050006389618
vn -0.924505352973938 -1.9120906843538704e-13 0.3811691105365753
vn -0.8139903545379639 0.16119152307510376 0.5580654144287109
vn -0.8322188854217529 0.0037727425806224346 0.5544344186782837
vn -0.6949129700660706 0.13486407697200775 0.7063339352607727
vn -0.7109582424163818 -1.470425886086757e-13 0.7032341957092285
vn -0.5462852716445923 0.10482294112443924 0.8310141563415527
vn -0.5598642826080322 -0.003766364185139537 0.8285757899284363
vn -0.3791710138320923 0.07854177057743073 0.9219872951507568
vn -0.38720187544822693 -0.003766157664358616 0.9219872951507568
vn -0.19538232684135437 0.04101785644888878 0.97986900806427
vn -0.19960615038871765 -0.003755420446395874 0.97986900806427
vn 0.6633741855621338 0 0.7482877969741821
vn 0.6633741855621338 0 -0.7482877969741821
vn 0.6633741855621338 0 -0.7482877969741821
vn 0.6633741855621338 0 0.7482877969741821
vn -0.18426451086997986 0.07683299481868744 0.97986900806427
vn -0.3568373918533325 0.15035469830036163 0.9219872951507568
vn 0.6633741855621338 0 0.7482877969741821
vn -0.16664499044418335 0.10993710905313492 0.97986900806427
vn -0.3186091482639313 0.21288783848285675 0.9236704111099243
vn -0.14314545691013336 0.1391621232032776 0.97986900806427
vn -0.27095481753349304 0.27095481753349304 0.9236704111099243
vn -0.10836481302976608 0.16767166554927826 0.97986900806427
vn -0.21288783848285675 0.3186091482639313 0.9236704111099243
vn -0.07509643584489822 0.18497903645038605 0.97986900806427
vn -0.14663968980312347 0.35401952266693115 0.9236704111099243
vn -0.039178311824798584 0.19575949013233185 0.97986900806427
vn -0.07669688761234283 0.37954849004745483 0.9219872951507568
vn -0.10295777022838593 0.5429391860961914 0.8334367275238037
vn -0.20406122505664825 0.5135584473609924 0.8334367275238037
vn -0.30407461524009705 0.46143457293510437 0.8334367275238037
vn -0.38606998324394226 0.39538994431495667 0.8334367275238037
vn -0.45830225944519043 0.3087754547595978 0.8334367275238037
vn -0.5139091610908508 0.21286813914775848 0.8310141563415527
vn -0.651677131652832 0.26840248703956604 0.7094202041625977
vn 0.6633741855621338 0 0.7482877969741821
vn 0.6633741855621338 0 0.7482877969741821
vn 0.6633741855621338 0 0.7482877969741821
vn 0.6633741855621338 0 0.7482877969741821
vn 0.6633741855621338 0 0.7482877969741821
vn -0.5806628465652466 0.3939346671104431 0.7124928832054138
vn -0.7631030678749084 0.3196604549884796 0.5616858005523682
vn -0.8490809798240662 0.352721244096756 0.3932546079158783
vn -0.906134843826294 0.3717576861381531 0.2017817199230194
vn -0.9267409443855286 0.3756946325302124 0.002184694167226553
vn -0.906134843826294 0.3717576861381531 -0.2017817199230194
vn -0.8503425121307373 0.34966909885406494 -0.3932546079158783
vn -0.7643722891807556 0.3166133761405945 -0.5616858005523682
vn -0.6500474214553833 0.2723257541656494 -0.7094202041625977
vn -0.5135465264320374 0.2137414664030075 -0.8310141563415527
vn -0.4575030505657196 0.30995839834213257 -0.8334367275238037
vn -0.5798560380935669 0.3951212465763092 -0.7124928832054138
vn -0.682970404624939 0.4625932574272156 -0.5652954578399658
vn -0.7592227458953857 0.5124058723449707 -0.401274174451828
vn -0.8116869926452637 0.5449076294898987 -0.2103329300880432
vn -0.8314676284790039 0.5555689334869385 0.002184694167226553
vn -0.8099757432937622 0.5474480390548706 0.2103329300880432
vn -0.7575074434280396 0.5149383544921875 0.401274174451828
vn -0.6812511682510376 0.46512138843536377 0.5652954578399658
vn -0.4872455298900604 0.5005767941474915 0.715552031993866
vn -0.38141098618507385 0.585244357585907 0.715552031993866
vn -0.5768461227416992 0.5861807465553284 0.5688942670822144
vn -0.6390538811683655 0.6537310481071472 0.405272513628006
vn -0.6812331676483154 0.6972335577011108 0.22312943637371063
vn -0.6963448524475098 0.7177039980888367 0.002184694167226553
vn -0.6832460165023804 0.6952612400054932 -0.22312943637371063
vn -0.6390538811683655 0.6537310481071472 -0.405272513628006
vn -0.5734643340110779 0.5894895792007446 -0.5688942670822144
vn -0.4892599582672119 0.4986080825328827 -0.715552031993866
vn -0.3900885581970215 0.39142581820487976 -0.8334367275238037
vn -0.3020850419998169 0.4627395272254944 -0.8334367275238037
vn -0.38357242941856384 0.5838300585746765 -0.715552031993866
vn -0.4464532732963562 0.6877089142799377 -0.5724822878837585
vn -0.49487704038619995 0.7665510177612305 -0.40926313400268555
vn -0.5256116390228271 0.8197729587554932 -0.22738653421401978
vn -0.5429477095603943 0.8397637009620667 0.002184694167226553
vn -0.5297918319702148 0.8170776963233948 0.22738653421401978
vn -0.49271252751350403 0.7679440379142761 0.40926313400268555
vn -0.4442896544933319 0.689108669757843 0.5724822878837585
vn -0.2628537118434906 0.6505857110023499 0.7124928832054138
vn -0.13296186923980713 0.6889666318893433 0.7124928832054138
vn -0.3037241995334625 0.7615875601768494 0.5724822878837585
vn -0.338686466217041 0.847227931022644 0.40926313400268555
vn -0.3574104905128479 0.9047657251358032 0.23163928091526031
vn -0.36165499687194824 0.9323094487190247 0.002184694167226553
vn -0.3595869541168213 0.9039028882980347 -0.23163928091526031
vn -0.333845317363739 0.8491472005844116 -0.40926313400268555
vn -0.30590081214904785 0.760715901851654 -0.5724822878837585
vn -0.26020270586013794 0.6516505479812622 -0.7124928832054138
vn -0.2084151804447174 0.5118069648742676 -0.8334367275238037
vn -0.10711417347192764 0.5421344637870789 -0.8334367275238037
vn -0.12969836592674255 0.6895884275436401 -0.7124928832054138
vn -0.1502438336610794 0.808570384979248 -0.5688942670822144
vn -0.16328904032707214 0.8994947671890259 -0.405272513628006
vn -0.16909939050674438 0.9590103030204773 -0.22738653421401978
vn -0.17282135784626007 0.9849507808685303 0.002184694167226553
vn -0.17446275055408478 0.9580491185188293 0.22738653421401978
vn -0.16328904032707214 0.8994947671890259 0.405272513628006
vn -0.1481723189353943 0.8089525699615479 0.5688942670822144
vn 0.6643130779266357 0.5246028304100037 0.5324283838272095
vn 0.6675320267677307 0.41514432430267334 0.6181069612503052
vn 0.6671785712242126 0.41571205854415894 -0.6181069612503052
vn 0.6638147234916687 0.5252333283424377 -0.5324283838272095
vn 0.6622804403305054 0.6169562339782715 0.42514660954475403
vn 0.6582997441291809 0.6889957785606384 0.30319350957870483
vn 0.6554410457611084 0.7354617714881897 0.17173540592193604
vn 0.651740550994873 0.7584388852119446 0.002184694167226553
vn 0.6554410457611084 0.7354617714881897 -0.17173540592193604
vn 0.6582997441291809 0.6889957785606384 -0.30319350957870483
vn 0.6616656184196472 0.6176155805587769 -0.42514660954475403
vn 0.6633741855621338 0 -0.7482877969741821
vn 0.6790553331375122 -0.15000522136688232 -0.7185974717140198
vn -0.04126138240098953 -0.19533105194568634 -0.97986900806427
vn -0.07878227531909943 -0.3791211247444153 -0.9219872951507568
vn -0.15079650282859802 -0.3566509187221527 -0.9219872951507568
vn -0.07727129012346268 -0.18408113718032837 -0.97986900806427
vn -0.21912966668605804 -0.3241216242313385 -0.9202865362167358
vn -0.11052186042070389 -0.16625773906707764 -0.97986900806427
vn -0.2773197293281555 -0.2759826183319092 -0.9202865362167358
vn -0.1475052684545517 -0.1408047080039978 -0.9789873361587524
vn -0.3251769542694092 -0.2175605744123459 -0.9202865362167358
vn -0.17098811268806458 -0.11111631244421005 -0.9789873361587524
vn -0.3609181344509125 -0.15103226900100708 -0.9202865362167358
vn -0.18551047146320343 -0.07377388328313828 -0.97986900806427
vn -0.3798716962337494 -0.07507968693971634 -0.9219872951507568
vn -0.196076899766922 -0.03755752742290497 -0.97986900806427
vn -0.387220174074173 -8.008608424862895e-14 -0.9219872951507568
vn -0.19964148104190826 -4.1290470933867673e-14 -0.97986900806427
vn 0.6633741855621338 0 -0.7482877969741821
vn 0.6633741855621338 0 -0.7482877969741821
vn 0.6633741855621338 0 -0.7482877969741821
vn 0.6633741855621338 0 -0.7482877969741821
vn 0.6633741855621338 0 -0.7482877969741821
vn 0.6633741855621338 0 -0.7482877969741821
vn 0.6633741855621338 0 -0.7482877969741821
vn -0.5598641633987427 -0.003782563144341111 -0.8285757899284363
vn -0.5521041750907898 -0.11271286755800247 -0.8261215686798096
vn -0.5213195085525513 -0.21389049291610718 -0.8261215686798096
vn -0.4721716642379761 -0.3075339198112488 -0.8261215686798096
vn -0.40111470222473145 -0.3957653045654297 -0.8261215686798096
vn -0.32009992003440857 -0.46374478936195374 -0.8261215686798096
vn -0.21905146539211273 -0.5152462124824524 -0.8285757899284363
vn -0.11084917932748795 -0.5487937927246094 -0.8285757899284363
vn 0.6703444719314575 -0.2868713438510895 -0.6843559741973877
vn 0.6707254648208618 -0.28597941994667053 0.6843559741973877
vn -0.07669688761234283 -0.37954849004745483 0.9219872951507568
vn -0.07509643584489822 -0.18497903645038605 0.97986900806427
vn -0.14861758053302765 -0.35756438970565796 0.9219872951507568
vn -0.11459508538246155 -0.1634768694639206 0.97986900806427
vn -0.22106118500232697 -0.3228073716163635 0.9202865362167358
vn -0.14353011548519135 -0.14485466480255127 0.9789873361587524
vn -0.27863821387290955 -0.2746514081954956 0.9202865362167358
vn -0.17173314094543457 -0.10996133834123611 0.9789873361587524
vn -0.3259594440460205 -0.21638642251491547 0.9202865362167358
vn -0.18426451086997986 -0.07683299481868744 0.97986900806427
vn 0.6633741855621338 0 0.7482877969741821
vn -0.7109482288360596 -0.003779239719733596 -0.7032341957092285
vn 0.6633741855621338 0 0.7482877969741821
vn 0.6633741855621338 0 0.7482877969741821
vn 0.6633741855621338 0 0.7482877969741821
vn 0.6633741855621338 0 0.7482877969741821
vn 0.6633741855621338 0 0.7482877969741821
vn -0.19538232684135437 -0.04101785644888878 0.97986900806427
vn -0.36128318309783936 -0.15015695989131927 0.9202865362167358
vn 0.6633741855621338 0 0.7482877969741821
vn -0.19960615038871765 -0.003755420446395874 0.97986900806427
vn -0.3791710138320923 -0.07854177057743073 0.9219872951507568
vn -0.38720187544822693 -0.003766157664358616 0.9219872951507568
vn -0.5522005558013916 -0.11223970353603363 0.8261215686798096
vn -0.5598642826080322 -0.003766364185139537 0.8285757899284363
vn -0.5216732025146484 -0.2130264788866043 0.8261215686798096
vn -0.47292572259902954 -0.30637305974960327 0.8261215686798096
vn -0.4024238884449005 -0.39443403482437134 0.8261215686798096
vn -0.3157942593097687 -0.4666874408721924 0.8261215686798096
vn -0.2216278314590454 -0.5141432881355286 0.8285757899284363
vn -0.11407065391540527 -0.5481332540512085 0.8285757899284363
vn 0.663519024848938 -0.42152851819992065 0.6181069612503052
vn 0.6671785712242126 -0.41571205854415894 -0.6181069612503052
vn 0.6576935648918152 -0.5365532040596008 0.528724730014801
vn -0.14239947497844696 -0.696551501750946 0.7032341957092285
vn -0.2790278494358063 -0.6539152264595032 0.7032341957092285
vn -0.4058505892753601 -0.5874655842781067 0.7001210451126099
vn -0.5095348954200745 -0.5002046227455139 0.7001210451126099
vn -0.5990021228790283 -0.38862189650535583 0.7001210451126099
vn -0.6616386771202087 -0.2684488594532013 0.7001210451126099
vn -0.7004419565200806 -0.13860583305358887 0.7001210451126099
vn -0.7109582424163818 -1.470425886086757e-13 0.7032341957092285
vn -0.8189250230789185 -0.16121137142181396 0.5507928133010864
vn -0.8322188854217529 0.0037727425806224346 0.5544344186782837
vn -0.7763572931289673 -0.3129000961780548 0.5471406579017639
vn -0.6994907855987549 -0.45972785353660583 0.5471406579017639
vn -0.6004835963249207 -0.5831437110900879 0.5471406579017639
vn -0.4738200008869171 -0.6900229454040527 0.5471406579017639
vn -0.3319956064224243 -0.7657716274261475 0.5507928133010864
vn -0.16676028072834015 -0.8178131580352783 0.5507928133010864
vn 0.656470000743866 -0.6284695267677307 0.417220801115036
vn 0.6571731567382812 -0.5371904373168945 -0.528724730014801
vn -0.14448784291744232 -0.696121335029602 -0.7032341957092285
vn -0.2812105417251587 -0.6529794931411743 -0.7032341957092285
vn -0.40799927711486816 -0.5859753489494324 -0.7001210451126099
vn -0.5115227699279785 -0.4981716275215149 -0.7001210451126099
vn -0.5965584516525269 -0.39236268401145935 -0.7001210451126099
vn -0.6600330471992493 -0.2723727524280548 -0.7001210451126099
vn -0.7011207938194275 -0.13512995839118958 -0.7001210451126099
vn -0.8322274088859558 -1.721238575931247e-13 -0.5544344186782837
vn -0.8196022510528564 -0.15773218870162964 -0.5507928133010864
vn -0.9244976043701172 0.0037768674083054066 -0.3811691105365753
vn -0.774762749671936 -0.3168277144432068 -0.5471406579017639
vn -0.7011771202087402 -0.45715174078941345 -0.5471406579017639
vn -0.6024665236473083 -0.5810948014259338 -0.5471406579017639
vn -0.4759715497493744 -0.6885406374931335 -0.5471406579017639
vn -0.327240914106369 -0.7678155303001404 -0.5507928133010864
vn -0.16884779930114746 -0.817384660243988 -0.5507928133010864
vn 0.6558348536491394 -0.6291323304176331 -0.417220801115036
vn 0.6473069190979004 -0.7046281695365906 0.29067665338516235
vn -0.19098544120788574 -0.9045632481575012 0.3811691105365753
vn -0.3687581717967987 -0.8495842814445496 0.37712597846984863
vn -0.5268364548683167 -0.7617213129997253 0.37712597846984863
vn -0.664825439453125 -0.6448124647140503 0.37712597846984863
vn -0.7795878648757935 -0.5030480623245239 0.37307560443878174
vn -0.857634425163269 -0.349627286195755 0.37712597846984863
vn -0.9092296957969666 -0.17628782987594604 0.37712597846984863
vn -0.924505352973938 -1.9120906843538704e-13 0.3811691105365753
vn -0.9623497724533081 -0.19118285179138184 0.19321508705615997
vn -0.9811491966247559 0.0037728105671703815 0.19321508705615997
vn -0.9088588356971741 -0.37186363339424133 0.18892620503902435
vn -0.8251744508743286 -0.5323476791381836 0.18892620503902435
vn -0.7082480788230896 -0.6802143454551697 0.18892620503902435
vn -0.5585539937019348 -0.806650698184967 0.19321508705615997
vn -0.3872043788433075 -0.9015213251113892 0.19321508705615997
vn -0.2004251331090927 -0.9604674577713013 0.19321508705615997
vn 0.6499285101890564 -0.7458686232566833 0.1458524912595749
vn 0.65212082862854 -0.7001753449440002 -0.29067665338516235
vn -0.18568384647369385 -0.9056664109230042 -0.3811691105365753
vn -0.3687581717967987 -0.8495842814445496 -0.37712597846984863
vn -0.5268364548683167 -0.7617213129997253 -0.37712597846984863
vn -0.664825439453125 -0.6448124647140503 -0.37712597846984863
vn -0.7771583199501038 -0.5067933797836304 -0.37307560443878174
vn -0.857634425163269 -0.349627286195755 -0.37712597846984863
vn -0.9092296957969666 -0.17628782987594604 -0.37712597846984863
vn -0.9811564087867737 -2.0249009717240862e-13 -0.19321508705615997
vn -0.9630336165428162 -0.18770785629749298 -0.19321508705615997
vn -0.999997615814209 -2.0682260971124217e-13 0.002184694167226553
vn -0.9088588356971741 -0.37186363339424133 -0.18892620503902435
vn -0.8251744508743286 -0.5323476791381836 -0.18892620503902435
vn -0.7082480788230896 -0.6802143454551697 -0.18892620503902435
vn -0.5607035160064697 -0.8051580786705017 -0.19321508705615997
vn -0.3893868327140808 -0.9005808234214783 -0.19321508705615997
vn -0.20251569151878357 -0.9600288271903992 -0.19321508705615997
vn 0.6491541862487793 -0.7465426325798035 -0.1458524912595749
vn 0.6459943652153015 -0.7633390426635742 0.002184694167226553
vn -0.20249100029468536 -0.9792816638946533 0.002184694167226553
vn -0.3965924084186554 -0.9179922342300415 0.002184694167226553
vn -0.5742622017860413 -0.8186684846878052 0.002184694167226553
vn -0.7177039980888367 -0.6963448524475098 0.002184694167226553
vn -0.8397637009620667 -0.5429477095603943 0.002184694167226553
vn -0.9267409443855286 -0.3756946325302124 0.002184694167226553
vn -0.9807829260826111 -0.19508986175060272 0.002184694167226553
s on
f 1//1 2//2 3//3
f 2//2 4//4 3//3
f 3//3 4//4 5//5
f 4//4 6//6 5//5
f 5//5 6//6 7//7
f 7//7 6//6 8//8
f 6//6 9//9 8//8
f 8//8 9//9 10//10
f 9//9 11//11 10//10
f 10//10 11//11 12//12
f 11//11 13//13 12//12
f 12//12 13//13 14//14
f 14//14 13//13 15//15
f 13//13 16//16 15//15
f 3//3 5//5 17//17
f 17//17 5//5 18//18
f 5//5 7//7 18//18
f 19//19 9//9 6//6
f 20//20 11//11 9//9
f 21//21 13//13 11//11
f 22//22 23//23 15//15
f 15//15 23//23 24//24
f 24//24 23//23 25//25
f 23//23 26//26 25//25
f 25//25 26//26 27//27
f 26//26 28//28 27//27
f 28//28 29//29 27//27
f 27//27 29//29 30//30
f 29//29 31//31 30//30
f 30//30 31//31 32//32
f 31//31 33//33 32//32
f 32//32 33//33 34//34
f 33//33 35//35 34//34
f 34//34 35//35 36//36
f 35//35 37//37 36//36
f 36//36 37//37 38//38
f 37//37 39//39 38//38
f 38//38 39//39 40//40
f 39//39 41//41 40//40
f 40//40 41//41 42//42
f 41//41 43//43 42//42
f 42//42 43//43 44//44
f 43//43 45//45 44//44
f 44//44 45//45 46//46
f 45//45 47//47 46//46
f 46//46 47//47 48//48
f 47//47 49//49 48//48
f 48//48 49//49 50//50
f 49//49 51//51 50//50
f 50//50 51//51 52//52
f 51//51 53//53 52//52
f 52//52 53//53 54//54
f 53//53 55//55 54//54
f 54//54 55//55 56//56
f 15//15 24//24 14//14
f 57//57 26//26 23//23
f 58//58 28//28 26//26
f 59//59 60//60 54//54
f 54//54 60//60 52//52
f 60//60 61//61 52//52
f 52//52 61//61 50//50
f 62//62 63//63 60//60
f 60//60 63//63 61//61
f 61//61 63//63 64//64
f 63//63 65//65 64//64
f 64//64 65//65 66//66
f 65//65 67//67 66//66
f 66//66 67//67 68//68
f 67//67 69//69 68//68
f 68//68 69//69 70//70
f 69//69 71//71 70//70
f 70//70 71//71 72//72
f 71//71 17//17 72//72
f 17//17 18//18 72//72
f 18//18 73//73 72//72
f 73//73 74//74 72//72
f 72//72 74//74 70//70
f 74//74 75//75 70//70
f 70//70 75//75 68//68
f 75//75 76//76 68//68
f 68//68 76//76 66//66
f 76//76 77//77 66//66
f 66//66 77//77 64//64
f 77//77 78//78 64//64
f 64//64 78//78 61//61
f 61//61 78//78 50//50
f 50//50 78//78 48//48
f 78//78 79//79 48//48
f 48//48 79//79 46//46
f 63//63 80//80 65//65
f 65//65 81//81 67//67
f 67//67 82//82 69//69
f 69//69 83//83 71//71
f 71//71 84//84 17//17
f 78//78 77//77 79//79
f 77//77 85//85 79//79
f 85//85 86//86 79//79
f 79//79 86//86 46//46
f 46//46 86//86 44//44
f 86//86 87//87 44//44
f 44//44 87//87 42//42
f 87//87 88//88 42//42
f 42//42 88//88 40//40
f 88//88 89//89 40//40
f 40//40 89//89 38//38
f 89//89 90//90 38//38
f 38//38 90//90 36//36
f 90//90 91//91 36//36
f 36//36 91//91 34//34
f 91//91 92//92 34//34
f 34//34 92//92 32//32
f 92//92 93//93 32//32
f 32//32 93//93 30//30
f 93//93 94//94 30//30
f 30//30 94//94 27//27
f 27//27 94//94 25//25
f 94//94 95//95 25//25
f 25//25 95//95 24//24
f 85//85 77//77 76//76
f 95//95 94//94 96//96
f 94//94 93//93 96//96
f 96//96 93//93 97//97
f 93//93 92//92 97//97
f 97//97 92//92 98//98
f 92//92 91//91 98//98
f 98//98 91//91 99//99
f 91//91 90//90 99//99
f 99//99 90//90 100//100
f 90//90 89//89 100//100
f 100//100 89//89 101//101
f 89//89 88//88 101//101
f 101//101 88//88 102//102
f 88//88 87//87 102//102
f 102//102 87//87 103//103
f 87//87 86//86 103//103
f 86//86 85//85 103//103
f 103//103 85//85 104//104
f 85//85 76//76 104//104
f 76//76 75//75 104//104
f 104//104 75//75 105//105
f 75//75 74//74 105//105
f 105//105 106//106 104//104
f 104//104 106//106 103//103
f 103//103 106//106 102//102
f 106//106 107//107 102//102
f 102//102 107//107 101//101
f 107//107 108//108 101//101
f 101//101 108//108 100//100
f 108//108 109//109 100//100
f 100//100 109//109 99//99
f 109//109 110//110 99//99
f 99//99 110//110 98//98
f 110//110 111//111 98//98
f 98//98 111//111 97//97
f 111//111 112//112 97//97
f 97//97 112//112 96//96
f 112//112 113//113 96//96
f 96//96 113//113 95//95
f 113//113 114//114 95//95
f 95//95 114//114 24//24
f 24//24 114//114 14//14
f 114//114 115//115 14//14
f 14//14 115//115 12//12
f 115//115 114//114 116//116
f 114//114 113//113 116//116
f 116//116 113//113 117//117
f 113//113 112//112 117//117
f 117//117 112//112 118//118
f 112//112 111//111 118//118
f 118//118 111//111 119//119
f 111//111 110//110 119//119
f 119//119 110//110 120//120
f 110//110 109//109 120//120
f 120//120 109//109 121//121
f 109//109 108//108 121//121
f 121//121 108//108 122//122
f 108//108 107//107 122//122
f 122//122 107//107 123//123
f 107//107 106//106 123//123
f 106//106 105//105 123//123
f 123//123 105//105 124//124
f 105//105 74//74 124//124
f 74//74 73//73 124//124
f 73//73 125//125 124//124
f 125//125 126//126 124//124
f 124//124 126//126 123//123
f 123//123 126//126 122//122
f 126//126 127//127 122//122
f 122//122 127//127 121//121
f 127//127 128//128 121//121
f 121//121 128//128 120//120
f 128//128 129//129 120//120
f 120//120 129//129 119//119
f 129//129 130//130 119//119
f 119//119 130//130 118//118
f 130//130 131//131 118//118
f 118//118 131//131 117//117
f 131//131 132//132 117//117
f 117//117 132//132 116//116
f 132//132 133//133 116//116
f 116//116 133//133 115//115
f 133//133 134//134 115//115
f 115//115 134//134 12//12
f 12//12 134//134 10//10
f 134//134 135//135 10//10
f 10//10 135//135 8//8
f 135//135 134//134 136//136
f 134//134 133//133 136//136
f 136//136 133//133 137//137
f 133//133 132//132 137//137
f 137//137 132//132 138//138
f 132//132 131//131 138//138
f 138//138 131//131 139//139
f 131//131 130//130 139//139
f 139//139 130//130 140//140
f 130//130 129//129 140//140
f 140//140 129//129 141//141
f 129//129 128//128 141//141
f 141//141 128//128 142//142
f 128//128 127//127 142//142
f 142//142 127//127 143//143
f 127//127 126//126 143//143
f 126//126 125//125 143//143
f 143//143 125//125 144//144
f 125//125 145//145 144//144
f 144//144 145//145 146//146
f 145//145 7//7 146//146
f 7//7 8//8 146//146
f 8//8 135//135 146//146
f 146//146 135//135 147//147
f 135//135 136//136 147//147
f 125//125 73//73 145//145
f 73//73 18//18 145//145
f 145//145 18//18 7//7
f 146//146 147//147 144//144
f 147//147 148//148 144//144
f 144//144 148//148 143//143
f 143//143 148//148 142//142
f 148//148 149//149 142//142
f 142//142 149//149 141//141
f 149//149 150//150 141//141
f 141//141 150//150 140//140
f 150//150 151//151 140//140
f 140//140 151//151 139//139
f 151//151 152//152 139//139
f 139//139 152//152 138//138
f 152//152 153//153 138//138
f 138//138 153//153 137//137
f 137//137 153//153 154//154
f 153//153 149//149 154//154
f 149//149 148//148 154//154
f 148//148 147//147 154//154
f 147//147 136//136 154//154
f 154//154 136//136 137//137
f 151//151 150//150 152//152
f 152//152 150//150 153//153
f 150//150 149//149 153//153
f 155//155 156//156 157//157
f 156//156 158//158 157//157
f 158//158 159//159 157//157
f 157//157 159//159 160//160
f 159//159 161//161 160//160
f 160//160 161//161 162//162
f 161//161 163//163 162//162
f 162//162 163//163 164//164
f 163//163 165//165 164//164
f 164//164 165//165 166//166
f 165//165 167//167 166//166
f 166//166 167//167 168//168
f 167//167 169//169 168//168
f 168//168 169//169 170//170
f 169//169 171//171 170//170
f 171//171 172//172 170//170
f 170//170 172//172 173//173
f 174//174 157//157 160//160
f 175//175 160//160 162//162
f 176//176 162//162 164//164
f 177//177 164//164 166//166
f 178//178 166//166 168//168
f 179//179 168//168 170//170
f 171//171 169//169 180//180
f 180//180 169//169 181//181
f 169//169 167//167 181//181
f 181//181 167//167 182//182
f 167//167 165//165 182//182
f 182//182 165//165 183//183
f 165//165 163//163 183//183
f 183//183 163//163 184//184
f 163//163 161//161 184//184
f 184//184 161//161 185//185
f 161//161 159//159 185//185
f 185//185 159//159 186//186
f 159//159 158//158 186//186
f 186//186 158//158 187//187
f 187//187 158//158 188//188
f 158//158 156//156 188//188
f 188//188 156//156 189//189
f 156//156 2//2 189//189
f 2//2 1//1 189//189
f 189//189 1//1 190//190
f 1//1 191//191 190//190
f 190//190 191//191 192//192
f 191//191 193//193 192//192
f 192//192 193//193 194//194
f 193//193 195//195 194//194
f 194//194 195//195 196//196
f 195//195 197//197 196//196
f 196//196 197//197 198//198
f 198//198 197//197 199//199
f 197//197 200//200 199//199
f 181//181 201//201 180//180
f 2//2 156//156 4//4
f 1//1 202//202 191//191
f 191//191 203//203 193//193
f 193//193 204//204 195//195
f 195//195 205//205 197//197
f 206//206 207//207 199//199
f 207//207 208//208 199//199
f 199//199 208//208 198//198
f 209//209 210//210 207//207
f 207//207 210//210 211//211
f 210//210 212//212 211//211
f 211//211 212//212 213//213
f 212//212 214//214 213//213
f 207//207 211//211 208//208
f 211//211 215//215 208//208
f 215//215 216//216 208//208
f 208//208 216//216 198//198
f 216//216 217//217 198//198
f 198//198 217//217 196//196
f 217//217 218//218 196//196
f 196//196 218//218 194//194
f 218//218 219//219 194//194
f 194//194 219//219 192//192
f 219//219 220//220 192//192
f 192//192 220//220 190//190
f 220//220 221//221 190//190
f 190//190 221//221 189//189
f 189//189 221//221 188//188
f 221//221 222//222 188//188
f 188//188 222//222 187//187
f 215//215 211//211 213//213
f 222//222 221//221 223//223
f 221//221 220//220 223//223
f 223//223 220//220 224//224
f 220//220 219//219 224//224
f 224//224 219//219 225//225
f 219//219 218//218 225//225
f 225//225 218//218 226//226
f 218//218 217//217 226//226
f 226//226 217//217 227//227
f 217//217 216//216 227//227
f 227//227 216//216 228//228
f 216//216 215//215 228//228
f 228//228 215//215 229//229
f 215//215 213//213 229//229
f 229//229 213//213 230//230
f 213//213 214//214 230//230
f 214//214 231//231 230//230
f 230//230 231//231 232//232
f 231//231 233//233 232//232
f 232//232 234//234 230//230
f 230//230 234//234 229//229
f 234//234 235//235 229//229
f 229//229 235//235 228//228
f 235//235 236//236 228//228
f 228//228 236//236 227//227
f 236//236 237//237 227//227
f 227//227 237//237 226//226
f 237//237 238//238 226//226
f 226//226 238//238 225//225
f 238//238 239//239 225//225
f 225//225 239//239 224//224
f 239//239 240//240 224//224
f 224//224 240//240 223//223
f 240//240 241//241 223//223
f 223//223 241//241 222//222
f 241//241 242//242 222//222
f 222//222 242//242 187//187
f 242//242 243//243 187//187
f 187//187 243//243 186//186
f 243//243 244//244 186//186
f 186//186 244//244 185//185
f 244//244 245//245 185//185
f 185//185 245//245 184//184
f 245//245 246//246 184//184
f 184//184 246//246 183//183
f 246//246 247//247 183//183
f 183//183 247//247 182//182
f 247//247 248//248 182//182
f 182//182 248//248 181//181
f 181//181 248//248 201//201
f 201//201 248//248 249//249
f 248//248 250//250 249//249
f 249//249 250//250 251//251
f 248//248 247//247 250//250
f 250//250 247//247 252//252
f 247//247 246//246 252//252
f 252//252 246//246 253//253
f 246//246 245//245 253//253
f 253//253 245//245 254//254
f 245//245 244//244 254//254
f 254//254 244//244 255//255
f 244//244 243//243 255//255
f 255//255 243//243 256//256
f 243//243 242//242 256//256
f 256//256 242//242 257//257
f 242//242 241//241 257//257
f 257//257 241//241 258//258
f 241//241 240//240 258//258
f 258//258 240//240 259//259
f 240//240 239//239 259//259
f 259//259 239//239 260//260
f 239//239 238//238 260//260
f 260//260 238//238 261//261
f 238//238 237//237 261//261
f 261//261 237//237 262//262
f 237//237 236//236 262//262
f 262//262 236//236 263//263
f 236//236 235//235 263//263
f 263//263 235//235 264//264
f 235//235 234//234 264//264
f 264//264 234//234 265//265
f 234//234 232//232 265//265
f 265//265 232//232 266//266
f 232//232 233//233 266//266
f 233//233 267//267 266//266
f 266//266 267//267 268//268
f 267//267 269//269 268//268
f 268//268 270//270 266//266
f 266//266 270//270 265//265
f 270//270 271//271 265//265
f 265//265 271//271 264//264
f 271//271 272//272 264//264
f 264//264 272//272 263//263
f 272//272 273//273 263//263
f 263//263 273//273 262//262
f 273//273 274//274 262//262
f 262//262 274//274 261//261
f 274//274 275//275 261//261
f 261//261 275//275 260//260
f 275//275 276//276 260//260
f 260//260 276//276 259//259
f 276//276 277//277 259//259
f 259//259 277//277 258//258
f 277//277 278//278 258//258
f 258//258 278//278 257//257
f 278//278 279//279 257//257
f 257//257 279//279 256//256
f 279//279 280//280 256//256
f 256//256 280//280 255//255
f 280//280 281//281 255//255
f 255//255 281//281 254//254
f 281//281 282//282 254//254
f 254//254 282//282 253//253
f 282//282 283//283 253//253
f 253//253 283//283 252//252
f 283//283 284//284 252//252
f 252//252 284//284 250//250
f 250//250 284//284 251//251
f 251//251 284//284 285//285
f 284//284 286//286 285//285
f 285//285 286//286 287//287
f 284//284 283//283 286//286
f 286//286 283//283 288//288
f 283//283 282//282 288//288
f 288//288 282//282 289//289
f 282//282 281//281 289//289
f 289//289 281//281 290//290
f 281//281 280//280 290//290
f 290//290 280//280 291//291
f 280//280 279//279 291//291
f 291//291 279//279 292//292
f 279//279 278//278 292//292
f 292//292 278//278 293//293
f 278//278 277//277 293//293
f 293//293 277//277 294//294
f 277//277 276//276 294//294
f 294//294 276//276 295//295
f 276//276 275//275 295//295
f 295//295 275//275 296//296
f 275//275 274//274 296//296
f 296//296 274//274 297//297
f 274//274 273//273 297//297
f 297//297 273//273 298//298
f 273//273 272//272 298//298
f 298//298 272//272 299//299
f 272//272 271//271 299//299
f 295//295 296//296 294//294
f 294//294 296//296 293//293
f 296//296 297//297 293//293
f 293//293 297//297 292//292
f 297//297 298//298 292//292
f 292//292 298//298 291//291
f 298//298 299//299 291//291
f 291//291 299//299 290//290
f 299//299 300//300 290//290
f 290//290 300//300 289//289
f 300//300 301//301 289//289
f 289//289 301//301 288//288
f 288//288 301//301 302//302
f 301//301 268//268 302//302
f 268//268 269//269 302//302
f 269//269 287//287 302//302
f 287//287 286//286 302//302
f 302//302 286//286 288//288
f 299//299 271//271 300//300
f 271//271 270//270 300//300
f 300//300 270//270 301//301
f 270//270 268//268 301//301

