# Exported by Sketchfab Model Ripper robust edition
o model_1
v 0.41375818848609924 -0.6191901564598083 0.02011849917471409
v 0.4123678207397461 -0.6205024719238281 0.021964961662888527
v 0.4154508113861084 -0.6185492873191833 0.021890252828598022
v 0.2808273136615753 -0.6779993176460266 0.02011849917471409
v 0.28481703996658325 -0.6774194836616516 0.024037109687924385
v 0.277442067861557 -0.6803492307662964 0.02414139173924923
v 0.14154912531375885 -0.7117222547531128 0.02011849917471409
v 0.13689443469047546 -0.7138585448265076 0.025125063955783844
v 0.14668743312358856 -0.7121189832687378 0.025083040818572044
v -0.00002617479913169518 -0.7203589677810669 0.02011849917471409
v 0.004809873178601265 -0.7217628359794617 0.02494036592543125
v -0.004741321783512831 -0.7215492129325867 0.024889003485441208
v -0.140090212225914 -0.7043062448501587 0.02011849917471409
v -0.14347544312477112 -0.7044588327407837 0.0234212763607502
v -0.13694678246974945 -0.7059542536735535 0.023525558412075043
v -0.2751368582248688 -0.6641744375228882 0.02011849917471409
v -0.27453234791755676 -0.6646627187728882 0.020844321697950363
v -0.27580180764198303 -0.6640828847885132 0.020809561014175415
v 0.6354305148124695 -0.43479737639427185 0.028618764132261276
v 0.635611891746521 -0.43455323576927185 0.028912413865327835
v 0.635611891746521 -0.43470582365989685 0.028461044654250145
v 0.6414756178855896 -0.4286021292209625 0.02011849917471409
v 0.6391180157661438 -0.42701515555381775 0.03711850941181183
v 0.6451026201248169 -0.4208199083805084 0.028618764132261276
v -0.6132370829582214 -0.3995485007762909 0.028618764132261276
v -0.6110004186630249 -0.4058048129081726 0.02214447222650051
v -0.6106376647949219 -0.40232568979263306 0.032369278371334076
v -0.6064061522483826 -0.4051944315433502 0.03711850941181183
v -0.6100331544876099 -0.4076054096221924 0.02011849917471409
v -0.6024163961410522 -0.4127325117588043 0.028618764132261276
v -0.6800349950790405 -0.28168606758117676 0.03711850941181183
v -0.6803976893424988 -0.2879423499107361 0.03146498277783394
v -0.6871076822280884 -0.2772913873195648 0.03034382499754429
v -0.6855359673500061 -0.28394442796707153 0.02011849917471409
v -0.6883771419525146 -0.27591806650161743 0.028618764132261276
v -0.6794304847717285 -0.29062798619270325 0.028618764132261276
v 0.7276176810264587 -0.29712843894958496 0.033166177570819855
v 0.7302775382995605 -0.2937408685684204 0.029027072712779045
v 0.7272549867630005 -0.3006075322628021 0.02971346490085125
v 0.7305193543434143 -0.2933746576309204 0.028618764132261276
v 0.727980375289917 -0.3015230894088745 0.02011849917471409
v 0.7270131707191467 -0.3032321333885193 0.022060424089431763
v 0.7221771478652954 -0.3083287179470062 0.028618764132261276
v 0.7229025363922119 -0.30674174427986145 0.03035471960902214
v 0.7237488627433777 -0.29978352785110474 0.03711850941181183
v -0.9906301498413086 -0.008514972403645515 0.028618764132261276
v -0.7617641687393188 -0.008514972403645515 0.028618764132261276
v -1 -3.105000132563873e-7 0.02011849917471409
v -0.7664188742637634 -3.105000132563873e-7 0.02011849917471409
v -0.9732204079627991 -0.18491190671920776 0.028618764132261276
v -0.9906301498413086 -0.008514972403645515 0.028618764132261276
v -0.9807767271995544 -0.19510507583618164 0.02011849917471409
v -1 -3.105000132563873e-7 0.02011849917471409
v -0.9906301498413086 -0.008514972403645515 0.028618764132261276
v -0.9732204079627991 -0.18491190671920776 0.028618764132261276
v -1 -3.105000132563873e-7 0.03711850941181183
v -0.9807767271995544 -0.19510507583618164 0.03711850941181183
v -0.737946629524231 -0.13812704384326935 0.028618764132261276
v -0.9732204079627991 -0.18491190671920776 0.028618764132261276
v -0.738853394985199 -0.14697740972042084 0.02011849917471409
v -0.9807767271995544 -0.19510507583618164 0.02011849917471409
v -0.9732204079627991 -0.18491190671920776 0.028618764132261276
v -0.737946629524231 -0.13812704384326935 0.028618764132261276
v -0.9807767271995544 -0.19510507583618164 0.03711850941181183
v -0.7315388917922974 -0.14551252126693726 0.03711850941181183
v -0.9699560403823853 -0.20160552859306335 0.028618764132261276
v -0.7324456572532654 -0.15436288714408875 0.028618764132261276
v -0.9807767271995544 -0.19510507583618164 0.02011849917471409
v -0.738853394985199 -0.14697740972042084 0.02011849917471409
v -0.9699560403823853 -0.20160552859306335 0.028618764132261276
v -0.9807767271995544 -0.19510507583618164 0.03711850941181183
v -0.7324456572532654 -0.15436288714408875 0.028618764132261276
v -0.7315388917922974 -0.14551252126693726 0.03711850941181183
v -0.9184521436691284 -0.37122735381126404 0.028618764132261276
v -0.9699560403823853 -0.20160552859306335 0.028618764132261276
v -0.9238926768302917 -0.3826717734336853 0.02011849917471409
v -0.9807767271995544 -0.19510507583618164 0.02011849917471409
v -0.9699560403823853 -0.20160552859306335 0.028618764132261276
v -0.9184521436691284 -0.37122735381126404 0.028618764132261276
v -0.9807767271995544 -0.19510507583618164 0.03711850941181183
v -0.9238926768302917 -0.3826717734336853 0.03711850941181183
v -0.6883771419525146 -0.27591806650161743 0.028618764132261276
v -0.9184521436691284 -0.37122735381126404 0.028618764132261276
v -0.6855359673500061 -0.28394442796707153 0.02011849917471409
v -0.9238926768302917 -0.3826717734336853 0.02011849917471409
v -0.9119839072227478 -0.38694438338279724 0.028618764132261276
v -0.6794304847717285 -0.29062798619270325 0.028618764132261276
v -0.9238926768302917 -0.3826717734336853 0.02011849917471409
v -0.6855359673500061 -0.28394442796707153 0.02011849917471409
v -0.8283807635307312 -0.5432906746864319 0.028618764132261276
v -0.9119839072227478 -0.38694438338279724 0.028618764132261276
v -0.8314637541770935 -0.5555590987205505 0.02011849917471409
v -0.9238926768302917 -0.3826717734336853 0.02011849917471409
v -0.9119839072227478 -0.38694438338279724 0.028618764132261276
v -0.8283807635307312 -0.5432906746864319 0.028618764132261276
v -0.9238926768302917 -0.3826717734336853 0.03711850941181183
v -0.8314637541770935 -0.5555590987205505 0.03711850941181183
v -0.8189504742622375 -0.5574207305908203 0.028618764132261276
v -0.6024163961410522 -0.4127325117588043 0.028618764132261276
v -0.8314637541770935 -0.5555590987205505 0.02011849917471409
v -0.6100331544876099 -0.4076054096221924 0.02011849917471409
v -0.8189504742622375 -0.5574207305908203 0.028618764132261276
v -0.8314637541770935 -0.5555590987205505 0.03711850941181183
v -0.6024163961410522 -0.4127325117588043 0.028618764132261276
v -0.6064061522483826 -0.4051944315433502 0.03711850941181183
v -0.7065123319625854 -0.6944792866706848 0.028618764132261276
v -0.8189504742622375 -0.5574207305908203 0.028618764132261276
v -0.7071168422698975 -0.7071139812469482 0.02011849917471409
v -0.8314637541770935 -0.5555590987205505 0.02011849917471409
v -0.8189504742622375 -0.5574207305908203 0.028618764132261276
v -0.7065123319625854 -0.6944792866706848 0.028618764132261276
v -0.8314637541770935 -0.5555590987205505 0.03711850941181183
v -0.7071168422698975 -0.7071139812469482 0.03711850941181183
v -0.5175437331199646 -0.5055087208747864 0.028618764132261276
v -0.7065123319625854 -0.6944792866706848 0.028618764132261276
v -0.5133122205734253 -0.5133214592933655 0.02011849917471409
v -0.7071168422698975 -0.7071139812469482 0.02011849917471409
v -0.7065123319625854 -0.6944792866706848 0.028618764132261276
v -0.5175437331199646 -0.5055087208747864 0.028618764132261276
v -0.7071168422698975 -0.7071139812469482 0.03711850941181183
v -0.5102896690368652 -0.5102696418762207 0.03711850941181183
v -0.694482684135437 -0.7064730525016785 0.028618764132261276
v -0.5060581564903259 -0.5180518627166748 0.028618764132261276
v -0.7071168422698975 -0.7071139812469482 0.02011849917471409
v -0.5133122205734253 -0.5133214592933655 0.02011849917471409
v -0.694482684135437 -0.7064730525016785 0.028618764132261276
v -0.7071168422698975 -0.7071139812469482 0.03711850941181183
v -0.5060581564903259 -0.5180518627166748 0.028618764132261276
v -0.5102896690368652 -0.5102696418762207 0.03711850941181183
v -0.5574411749839783 -0.8189642429351807 0.028618764132261276
v -0.694482684135437 -0.7064730525016785 0.028618764132261276
v -0.55556720495224 -0.8314768671989441 0.02011849917471409
v -0.7071168422698975 -0.7071139812469482 0.02011849917471409
v -0.694482684135437 -0.7064730525016785 0.028618764132261276
v -0.5574411749839783 -0.8189642429351807 0.028618764132261276
v -0.7071168422698975 -0.7071139812469482 0.03711850941181183
v -0.55556720495224 -0.8314768671989441 0.03711850941181183
v -0.4061332941055298 -0.5925169587135315 0.028618764132261276
v -0.5574411749839783 -0.8189642429351807 0.028618764132261276
v -0.4006322920322418 -0.5996277928352356 0.02011849917471409
v -0.55556720495224 -0.8314768671989441 0.02011849917471409
v -0.5574411749839783 -0.8189642429351807 0.028618764132261276
v -0.4061332941055298 -0.5925169587135315 0.028618764132261276
v -0.55556720495224 -0.8314768671989441 0.03711850941181183
v -0.39791202545166016 -0.595477283000946 0.03711850941181183
v -0.5432957410812378 -0.8283944725990295 0.028618764132261276
v -0.3924110233783722 -0.6025575995445251 0.028618764132261276
v -0.55556720495224 -0.8314768671989441 0.02011849917471409
v -0.4006322920322418 -0.5996277928352356 0.02011849917471409
v -0.5432957410812378 -0.8283944725990295 0.028618764132261276
v -0.55556720495224 -0.8314768671989441 0.03711850941181183
v -0.3924110233783722 -0.6025575995445251 0.028618764132261276
v -0.39791202545166016 -0.595477283000946 0.03711850941181183
v -0.3869704604148865 -0.9119541049003601 0.028618764132261276
v -0.5432957410812378 -0.8283944725990295 0.028618764132261276
v -0.38267847895622253 -0.9238868355751038 0.02011849917471409
v -0.55556720495224 -0.8314768671989441 0.02011849917471409
v -0.5432957410812378 -0.8283944725990295 0.028618764132261276
v -0.3869704604148865 -0.9119541049003601 0.028618764132261276
v -0.55556720495224 -0.8314768671989441 0.03711850941181183
v -0.38267847895622253 -0.9238868355751038 0.03711850941181183
v -0.3869704604148865 -0.9119541049003601 0.028618764132261276
v -0.28196775913238525 -0.6584979891777039 0.028618764132261276
v -0.38267847895622253 -0.9238868355751038 0.03711850941181183
v -0.27320244908332825 -0.6595355868339539 0.03711850941181183
v -0.3712533116340637 -0.9184545874595642 0.028618764132261276
v -0.38267847895622253 -0.9238868355751038 0.03711850941181183
v -0.26649242639541626 -0.665608823299408 0.028618764132261276
v -0.27320244908332825 -0.6595355868339539 0.03711850941181183
v -0.20156846940517426 -0.9699392914772034 0.028618764132261276
v -0.3712533116340637 -0.9184545874595642 0.028618764132261276
v -0.19510026276111603 -0.9807733297348022 0.02011849917471409
v -0.38267847895622253 -0.9238868355751038 0.02011849917471409
v -0.3712533116340637 -0.9184545874595642 0.028618764132261276
v -0.20156846940517426 -0.9699392914772034 0.028618764132261276
v -0.38267847895622253 -0.9238868355751038 0.03711850941181183
v -0.19510026276111603 -0.9807733297348022 0.03711850941181183
v -0.20156846940517426 -0.9699392914772034 0.028618764132261276
v -0.14819060266017914 -0.7015901207923889 0.028618764132261276
v -0.19510026276111603 -0.9807733297348022 0.03711850941181183
v -0.1393648087978363 -0.7007050514221191 0.03711850941181183
v -0.18494455516338348 -0.9732352495193481 0.028618764132261276
v -0.19510026276111603 -0.9807733297348022 0.03711850941181183
v -0.1316271275281906 -0.7054354548454285 0.028618764132261276
v -0.1393648087978363 -0.7007050514221191 0.03711850941181183
v -0.008489258587360382 -0.9906308054924011 0.028618764132261276
v -0.18494455516338348 -0.9732352495193481 0.028618764132261276
v -0.00002617479913169518 -1 0.02011849917471409
v -0.19510026276111603 -0.9807733297348022 0.02011849917471409
v -0.18494455516338348 -0.9732352495193481 0.028618764132261276
v -0.008489258587360382 -0.9906308054924011 0.028618764132261276
v -0.19510026276111603 -0.9807733297348022 0.03711850941181183
v -0.00002617479913169518 -1 0.03711850941181183
v -0.008489258587360382 -0.9906308054924011 0.028618764132261276
v -0.008489258587360382 -0.7202063798904419 0.028618764132261276
v -0.00002617479913169518 -1 0.03711850941181183
v -0.00002617479913169518 -0.7175207734107971 0.03711850941181183
v 0.008497360162436962 -0.9906308054924011 0.028618764132261276
v -0.00002617479913169518 -1 0.03711850941181183
v 0.008497360162436962 -0.7206336259841919 0.028618764132261276
v -0.00002617479913169518 -0.7175207734107971 0.03711850941181183
v 0.18495266139507294 -0.9732352495193481 0.028618764132261276
v 0.008497360162436962 -0.9906308054924011 0.028618764132261276
v 0.19510836899280548 -0.9807733297348022 0.02011849917471409
v -0.00002617479913169518 -1 0.02011849917471409
v 0.008497360162436962 -0.9906308054924011 0.028618764132261276
v 0.18495266139507294 -0.9732352495193481 0.028618764132261276
v -0.00002617479913169518 -1 0.03711850941181183
v 0.19510836899280548 -0.9807733297348022 0.03711850941181183
v 0.19510836899280548 -0.9807733297348022 0.03711850941181183
v 0.18495266139507294 -0.9732352495193481 0.028618764132261276
v 0.14106552302837372 -0.709128201007843 0.03711850941181183
v 0.13320694863796234 -0.7133702635765076 0.028618764132261276
v 0.2015765756368637 -0.9699392914772034 0.028618764132261276
v 0.19510836899280548 -0.9807733297348022 0.03711850941181183
v 0.14995177090168 -0.710348904132843 0.028618764132261276
v 0.14106552302837372 -0.709128201007843 0.03711850941181183
v 0.3712614178657532 -0.9184545874595642 0.028618764132261276
v 0.2015765756368637 -0.9699392914772034 0.028618764132261276
v 0.382686585187912 -0.9238868355751038 0.02011849917471409
v 0.19510836899280548 -0.9807733297348022 0.02011849917471409
v 0.2015765756368637 -0.9699392914772034 0.028618764132261276
v 0.3712614178657532 -0.9184545874595642 0.028618764132261276
v 0.19510836899280548 -0.9807733297348022 0.03711850941181183
v 0.382686585187912 -0.9238868355751038 0.03711850941181183
v 0.382686585187912 -0.9238868355751038 0.03711850941181183
v 0.3712614178657532 -0.9184545874595642 0.028618764132261276
v 0.2796787619590759 -0.6751915812492371 0.03711850941181183
v 0.2727873921394348 -0.6807459592819214 0.028618764132261276
v 0.3869181275367737 -0.9119541049003601 0.028618764132261276
v 0.382686585187912 -0.9238868355751038 0.03711850941181183
v 0.2885649800300598 -0.6744286417961121 0.028618764132261276
v 0.2796787619590759 -0.6751915812492371 0.03711850941181183
v 0.5433038473129272 -0.8283944725990295 0.028618764132261276
v 0.3869181275367737 -0.9119541049003601 0.028618764132261276
v 0.5555753111839294 -0.8314768671989441 0.02011849917471409
v 0.382686585187912 -0.9238868355751038 0.02011849917471409
v 0.3869181275367737 -0.9119541049003601 0.028618764132261276
v 0.5433038473129272 -0.8283944725990295 0.028618764132261276
v 0.382686585187912 -0.9238868355751038 0.03711850941181183
v 0.5555753111839294 -0.8314768671989441 0.03711850941181183
v 0.5555753111839294 -0.8314768671989441 0.03711850941181183
v 0.5433038473129272 -0.8283944725990295 0.028618764132261276
v 0.41170287132263184 -0.6161077618598938 0.03711850941181183
v 0.40583914518356323 -0.6226692795753479 0.028618764132261276
v 0.5574492812156677 -0.8189642429351807 0.028618764132261276
v 0.5555753111839294 -0.8314768671989441 0.03711850941181183
v 0.42004504799842834 -0.613361120223999 0.028618764132261276
v 0.41170287132263184 -0.6161077618598938 0.03711850941181183
v 0.6944907903671265 -0.7064730525016785 0.028618764132261276
v 0.5574492812156677 -0.8189642429351807 0.028618764132261276
v 0.7071249485015869 -0.7071139812469482 0.02011849917471409
v 0.5555753111839294 -0.8314768671989441 0.02011849917471409
v 0.5574492812156677 -0.8189642429351807 0.028618764132261276
v 0.6944907903671265 -0.7064730525016785 0.028618764132261276
v 0.5555753111839294 -0.8314768671989441 0.03711850941181183
v 0.7071249485015869 -0.7071139812469482 0.03711850941181183
v 0.7071249485015869 -0.7071139812469482 0.02011849917471409
v 0.5355057120323181 -0.5355389714241028 0.02011849917471409
v 0.6944907903671265 -0.7064730525016785 0.028618764132261276
v 0.5281307101249695 -0.5401472449302673 0.028618764132261276
v 0.7071249485015869 -0.7071139812469482 0.03711850941181183
v 0.6944907903671265 -0.7064730525016785 0.028618764132261276
v 0.5328458547592163 -0.5328533053398132 0.03711850941181183
v 0.5281307101249695 -0.5401472449302673 0.028618764132261276
v 0.7071249485015869 -0.7071139812469482 0.02011849917471409
v 0.7064599990844727 -0.6944792866706848 0.028618764132261276
v 0.5355057120323181 -0.5355389714241028 0.02011849917471409
v 0.5402812957763672 -0.5282450318336487 0.028618764132261276
v 0.7064599990844727 -0.6944792866706848 0.028618764132261276
v 0.7071249485015869 -0.7071139812469482 0.03711850941181183
v 0.5402812957763672 -0.5282450318336487 0.028618764132261276
v 0.5328458547592163 -0.5328533053398132 0.03711850941181183
v 0.818958580493927 -0.5574207305908203 0.028618764132261276
v 0.7064599990844727 -0.6944792866706848 0.028618764132261276
v 0.8314718008041382 -0.5555590987205505 0.02011849917471409
v 0.7071249485015869 -0.7071139812469482 0.02011849917471409
v 0.7064599990844727 -0.6944792866706848 0.028618764132261276
v 0.818958580493927 -0.5574207305908203 0.028618764132261276
v 0.7071249485015869 -0.7071139812469482 0.03711850941181183
v 0.8314718008041382 -0.5555590987205505 0.03711850941181183
v 0.8314718008041382 -0.5555590987205505 0.02011849917471409
v 0.8283888697624207 -0.5432906746864319 0.028618764132261276
v 0.6414756178855896 -0.4286021292209625 0.02011849917471409
v 0.6451026201248169 -0.4208199083805084 0.028618764132261276
v 0.8283888697624207 -0.5432906746864319 0.028618764132261276
v 0.8314718008041382 -0.5555590987205505 0.03711850941181183
v 0.6451026201248169 -0.4208199083805084 0.028618764132261276
v 0.6391180157661438 -0.42701515555381775 0.03711850941181183
v 0.9119920134544373 -0.38694438338279724 0.028618764132261276
v 0.8283888697624207 -0.5432906746864319 0.028618764132261276
v 0.9239007830619812 -0.3826717734336853 0.02011849917471409
v 0.8314718008041382 -0.5555590987205505 0.02011849917471409
v 0.8283888697624207 -0.5432906746864319 0.028618764132261276
v 0.9119920134544373 -0.38694438338279724 0.028618764132261276
v 0.8314718008041382 -0.5555590987205505 0.03711850941181183
v 0.9239007830619812 -0.3826717734336853 0.03711850941181183
v 0.9239007830619812 -0.3826717734336853 0.02011849917471409
v 0.9184602499008179 -0.37122735381126404 0.028618764132261276
v 0.727980375289917 -0.3015230894088745 0.02011849917471409
v 0.7305193543434143 -0.2933746576309204 0.028618764132261276
v 0.9699037075042725 -0.20160552859306335 0.028618764132261276
v 0.9184602499008179 -0.37122735381126404 0.028618764132261276
v 0.9807848334312439 -0.19510507583618164 0.02011849917471409
v 0.9239007830619812 -0.3826717734336853 0.02011849917471409
v 0.9184602499008179 -0.37122735381126404 0.028618764132261276
v 0.9699037075042725 -0.20160552859306335 0.028618764132261276
v 0.9239007830619812 -0.3826717734336853 0.03711850941181183
v 0.9807848334312439 -0.19510507583618164 0.03711850941181183
v 0.9699037075042725 -0.20160552859306335 0.028618764132261276
v 0.7837762832641602 -0.16455605626106262 0.028618764132261276
v 0.9807848334312439 -0.19510507583618164 0.03711850941181183
v 0.7830508947372437 -0.15576674044132233 0.03711850941181183
v -0.39791202545166016 -0.595477283000946 0.03711850941181183
v -0.4061332941055298 -0.5925169587135315 0.028618764132261276
v -0.3924110233783722 -0.6025575995445251 0.028618764132261276
v -0.4006322920322418 -0.5996277928352356 0.02011849917471409
v 0.5281307101249695 -0.5401472449302673 0.028618764132261276
v 0.5355057120323181 -0.5355389714241028 0.02011849917471409
v 0.5328458547592163 -0.5328533053398132 0.03711850941181183
v 0.5402812957763672 -0.5282450318336487 0.028618764132261276
v -0.5175437331199646 -0.5055087208747864 0.028618764132261276
v -0.5133122205734253 -0.5133214592933655 0.02011849917471409
v -0.5102896690368652 -0.5102696418762207 0.03711850941181183
v -0.5060581564903259 -0.5180518627166748 0.028618764132261276
v -0.737946629524231 -0.13812704384326935 0.028618764132261276
v -0.738853394985199 -0.14697740972042084 0.02011849917471409
v -0.7315388917922974 -0.14551252126693726 0.03711850941181183
v -0.7324456572532654 -0.15436288714408875 0.028618764132261276
v -1 -3.105000132563873e-7 0.03711850941181183
v -0.7583184838294983 -3.105000132563873e-7 0.03711850941181183
v -0.9906301498413086 -0.008514972403645515 0.028618764132261276
v -0.7605551481246948 -0.004608604125678539 0.032509878277778625
v -0.7617641687393188 -0.008514972403645515 0.028618764132261276
v -0.9238926768302917 -0.3826717734336853 0.03711850941181183
v -0.6800349950790405 -0.28168606758117676 0.03711850941181183
v -0.9184521436691284 -0.37122735381126404 0.028618764132261276
v -0.6871076822280884 -0.2772913873195648 0.03034382499754429
v -0.6883771419525146 -0.27591806650161743 0.028618764132261276
v -0.6794304847717285 -0.29062798619270325 0.028618764132261276
v -0.9119839072227478 -0.38694438338279724 0.028618764132261276
v -0.6803976893424988 -0.2879423499107361 0.03146498277783394
v -0.6800349950790405 -0.28168606758117676 0.03711850941181183
v -0.9238926768302917 -0.3826717734336853 0.03711850941181183
v -0.8314637541770935 -0.5555590987205505 0.02011849917471409
v -0.6100331544876099 -0.4076054096221924 0.02011849917471409
v -0.8283807635307312 -0.5432906746864319 0.028618764132261276
v -0.6110004186630249 -0.4058048129081726 0.02214447222650051
v -0.6132370829582214 -0.3995485007762909 0.028618764132261276
v -0.8314637541770935 -0.5555590987205505 0.03711850941181183
v -0.6064061522483826 -0.4051944315433502 0.03711850941181183
v -0.8283807635307312 -0.5432906746864319 0.028618764132261276
v -0.6106376647949219 -0.40232568979263306 0.032369278371334076
v -0.6132370829582214 -0.3995485007762909 0.028618764132261276
v -0.3869704604148865 -0.9119541049003601 0.028618764132261276
v -0.38267847895622253 -0.9238868355751038 0.02011849917471409
v -0.28196775913238525 -0.6584979891777039 0.028618764132261276
v -0.27580180764198303 -0.6640828847885132 0.020809561014175415
v -0.2751368582248688 -0.6641744375228882 0.02011849917471409
v -0.38267847895622253 -0.9238868355751038 0.02011849917471409
v -0.3712533116340637 -0.9184545874595642 0.028618764132261276
v -0.2751368582248688 -0.6641744375228882 0.02011849917471409
v -0.27453234791755676 -0.6646627187728882 0.020844321697950363
v -0.26649242639541626 -0.665608823299408 0.028618764132261276
v -0.20156846940517426 -0.9699392914772034 0.028618764132261276
v -0.19510026276111603 -0.9807733297348022 0.02011849917471409
v -0.14819060266017914 -0.7015901207923889 0.028618764132261276
v -0.14347544312477112 -0.7044588327407837 0.0234212763607502
v -0.140090212225914 -0.7043062448501587 0.02011849917471409
v -0.19510026276111603 -0.9807733297348022 0.02011849917471409
v -0.18494455516338348 -0.9732352495193481 0.028618764132261276
v -0.140090212225914 -0.7043062448501587 0.02011849917471409
v -0.13694678246974945 -0.7059542536735535 0.023525558412075043
v -0.1316271275281906 -0.7054354548454285 0.028618764132261276
v -0.008489258587360382 -0.7202063798904419 0.028618764132261276
v -0.008489258587360382 -0.9906308054924011 0.028618764132261276
v -0.004741321783512831 -0.7215492129325867 0.024889003485441208
v -0.00002617479913169518 -1 0.02011849917471409
v -0.00002617479913169518 -0.7203589677810669 0.02011849917471409
v -0.00002617479913169518 -1 0.02011849917471409
v -0.00002617479913169518 -0.7203589677810669 0.02011849917471409
v 0.008497360162436962 -0.9906308054924011 0.028618764132261276
v 0.004809873178601265 -0.7217628359794617 0.02494036592543125
v 0.008497360162436962 -0.7206336259841919 0.028618764132261276
v 0.13320694863796234 -0.7133702635765076 0.028618764132261276
v 0.18495266139507294 -0.9732352495193481 0.028618764132261276
v 0.13689443469047546 -0.7138585448265076 0.025125063955783844
v 0.14154912531375885 -0.7117222547531128 0.02011849917471409
v 0.19510836899280548 -0.9807733297348022 0.02011849917471409
v 0.14154912531375885 -0.7117222547531128 0.02011849917471409
v 0.19510836899280548 -0.9807733297348022 0.02011849917471409
v 0.14668743312358856 -0.7121189832687378 0.025083040818572044
v 0.14995177090168 -0.710348904132843 0.028618764132261276
v 0.2015765756368637 -0.9699392914772034 0.028618764132261276
v 0.2727873921394348 -0.6807459592819214 0.028618764132261276
v 0.3712614178657532 -0.9184545874595642 0.028618764132261276
v 0.277442067861557 -0.6803492307662964 0.02414139173924923
v 0.2808273136615753 -0.6779993176460266 0.02011849917471409
v 0.382686585187912 -0.9238868355751038 0.02011849917471409
v 0.2808273136615753 -0.6779993176460266 0.02011849917471409
v 0.382686585187912 -0.9238868355751038 0.02011849917471409
v 0.28481703996658325 -0.6774194836616516 0.024037109687924385
v 0.2885649800300598 -0.6744286417961121 0.028618764132261276
v 0.3869181275367737 -0.9119541049003601 0.028618764132261276
v 0.40583914518356323 -0.6226692795753479 0.028618764132261276
v 0.5433038473129272 -0.8283944725990295 0.028618764132261276
v 0.4123678207397461 -0.6205024719238281 0.021964961662888527
v 0.41375818848609924 -0.6191901564598083 0.02011849917471409
v 0.5555753111839294 -0.8314768671989441 0.02011849917471409
v 0.41375818848609924 -0.6191901564598083 0.02011849917471409
v 0.5555753111839294 -0.8314768671989441 0.02011849917471409
v 0.4154508113861084 -0.6185492873191833 0.021890252828598022
v 0.42004504799842834 -0.613361120223999 0.028618764132261276
v 0.5574492812156677 -0.8189642429351807 0.028618764132261276
v 0.6354305148124695 -0.43479737639427185 0.028618764132261276
v 0.818958580493927 -0.5574207305908203 0.028618764132261276
v 0.635611891746521 -0.43470582365989685 0.028461044654250145
v 0.6414756178855896 -0.4286021292209625 0.02011849917471409
v 0.8314718008041382 -0.5555590987205505 0.02011849917471409
v 0.6354305148124695 -0.43479737639427185 0.028618764132261276
v 0.635611891746521 -0.43455323576927185 0.028912413865327835
v 0.818958580493927 -0.5574207305908203 0.028618764132261276
v 0.6391180157661438 -0.42701515555381775 0.03711850941181183
v 0.8314718008041382 -0.5555590987205505 0.03711850941181183
v 0.7221771478652954 -0.3083287179470062 0.028618764132261276
v 0.7270131707191467 -0.3032321333885193 0.022060424089431763
v 0.9119920134544373 -0.38694438338279724 0.028618764132261276
v 0.727980375289917 -0.3015230894088745 0.02011849917471409
v 0.9239007830619812 -0.3826717734336853 0.02011849917471409
v 0.7221771478652954 -0.3083287179470062 0.028618764132261276
v 0.7229025363922119 -0.30674174427986145 0.03035471960902214
v 0.9119920134544373 -0.38694438338279724 0.028618764132261276
v 0.7237488627433777 -0.29978352785110474 0.03711850941181183
v 0.9239007830619812 -0.3826717734336853 0.03711850941181183
v 0.7237488627433777 -0.29978352785110474 0.03711850941181183
v 0.9239007830619812 -0.3826717734336853 0.03711850941181183
v 0.7276176810264587 -0.29712843894958496 0.033166177570819855
v 0.7302775382995605 -0.2937408685684204 0.029027072712779045
v 0.7305193543434143 -0.2933746576309204 0.028618764132261276
v 0.9184602499008179 -0.37122735381126404 0.028618764132261276
v 0.7837762832641602 -0.16455605626106262 0.028618764132261276
v 0.7847434878349304 -0.16354894638061523 0.027428602799773216
v 0.9699037075042725 -0.20160552859306335 0.028618764132261276
v 0.7896400094032288 -0.15707902610301971 0.02011849917471409
v 0.9807848334312439 -0.19510507583618164 0.02011849917471409
v -0.004741321783512831 -0.7215492129325867 0.024889003485441208
v 0.004809873178601265 -0.7217628359794617 0.02494036592543125
v -0.008489258587360382 -0.7202063798904419 0.028618764132261276
v 0.008497360162436962 -0.7206336259841919 0.028618764132261276
v -0.00002617479913169518 -0.7175207734107971 0.03711850941181183
v -0.14347544312477112 -0.7044588327407837 0.0234212763607502
v -0.14819060266017914 -0.7015901207923889 0.028618764132261276
v -0.13694678246974945 -0.7059542536735535 0.023525558412075043
v -0.1316271275281906 -0.7054354548454285 0.028618764132261276
v -0.1393648087978363 -0.7007050514221191 0.03711850941181183
v -0.27580180764198303 -0.6640828847885132 0.020809561014175415
v -0.28196775913238525 -0.6584979891777039 0.028618764132261276
v -0.27453234791755676 -0.6646627187728882 0.020844321697950363
v -0.26649242639541626 -0.665608823299408 0.028618764132261276
v -0.27320244908332825 -0.6595355868339539 0.03711850941181183
v 0.4154508113861084 -0.6185492873191833 0.021890252828598022
v 0.4123678207397461 -0.6205024719238281 0.021964961662888527
v 0.42004504799842834 -0.613361120223999 0.028618764132261276
v 0.40583914518356323 -0.6226692795753479 0.028618764132261276
v 0.41170287132263184 -0.6161077618598938 0.03711850941181183
v 0.28481703996658325 -0.6774194836616516 0.024037109687924385
v 0.2885649800300598 -0.6744286417961121 0.028618764132261276
v 0.277442067861557 -0.6803492307662964 0.02414139173924923
v 0.2727873921394348 -0.6807459592819214 0.028618764132261276
v 0.2796787619590759 -0.6751915812492371 0.03711850941181183
v 0.14668743312358856 -0.7121189832687378 0.025083040818572044
v 0.14995177090168 -0.710348904132843 0.028618764132261276
v 0.13689443469047546 -0.7138585448265076 0.025125063955783844
v 0.13320694863796234 -0.7133702635765076 0.028618764132261276
v 0.14106552302837372 -0.709128201007843 0.03711850941181183
vn -0.3638288080692291 0.5547016263008118 -0.7482877969741821
vn -0.7584621906280518 0.3305211067199707 -0.5616858005523682
vn -8.606192879656235e-14 0.8322274088859558 -0.5544344186782837
vn -0.25445556640625 0.626659631729126 -0.736579954624176
vn 0.15770111978054047 0.8121818900108337 -0.5616858005523682
vn -0.6715056896209717 0.4748045802116394 -0.5688942670822144
vn -0.1315033882856369 0.6732240319252014 -0.7276512384414673
vn -0.564895749092102 0.5942699909210205 -0.5724822878837585
vn 0.3130517601966858 0.7631773352622986 -0.5652954578399658
vn 0.0018891204381361604 0.6891175508499146 -0.7246471047401428
vn 0.45946070551872253 0.6850817203521729 -0.5652954578399658
vn -0.4337066411972046 0.6958179473876953 -0.5724822878837585
vn 0.14245541393756866 0.6774642467498779 -0.7216291427612305
vn -0.284761518239975 0.7688789963722229 -0.5724822878837585
vn 0.5872772932052612 0.5792637467384338 -0.5652954578399658
vn 0.26676613092422485 0.6353915333747864 -0.7246471047401428
vn 0.69414883852005 0.4501849114894867 -0.5616858005523682
vn -0.12418825924396515 0.8154865503311157 -0.5652954578399658
vn -0.9647293090820312 -0.2575214207172394 -0.05459024757146835
vn -0.9176715016365051 0.007547160144895315 0.3972681760787964
vn -0.8013060688972473 0.033987969160079956 -0.5972883701324463
vn -0.4162590801715851 0.27813541889190674 -0.865661084651947
vn -0.5398311614990234 0.36240339279174805 0.7597671151161194
vn -0.015095127746462822 0.9993491172790527 -0.03276457265019417
vn 0.043416284024715424 0.9980038404464722 -0.04586252197623253
vn 0.2255362868309021 0.772373378276825 -0.5937783122062683
vn 0.2967534363269806 0.8937740921974182 0.3363112509250641
vn 0.5474502444267273 0.4079967439174652 0.7306414246559143
vn 0.37135547399520874 0.27541598677635193 -0.8867024183273315
vn 0.9573395252227783 -0.2828880846500397 -0.058952588587999344
vn 0.7227910757064819 0.3289577066898346 0.607749879360199
vn 0.9519424438476562 -0.08286353945732117 0.2948545813560486
vn 0.4425206184387207 0.8468980193138123 0.2948545813560486
vn 0.43664687871932983 0.21207809448242188 -0.87427818775177
vn 0.13542260229587555 0.9900919198989868 -0.03713129088282585
vn 0.8842541575431824 -0.4647485315799713 -0.04586252197623253
vn -0.4717060625553131 0.8472168445587158 0.24437066912651062
vn -0.49150651693344116 0.7708278298377991 0.405272513628006
vn -0.8474708795547485 0.46676281094551086 -0.25283506512641907
vn -0.20982049405574799 0.977444589138031 -0.024029340595006943
vn -0.49037063121795654 0.20260676741600037 -0.8476362228393555
vn -0.8135439157485962 -0.12043917179107666 -0.5688942670822144
vn -0.8983136415481567 -0.43739062547683716 -0.04149730131030083
vn -0.9313234090805054 -0.048997391015291214 0.36088213324546814
vn -0.678790271282196 0.3316745460033417 0.6551609039306641
vn 0.0018878303235396743 -0.7078762650489807 -0.7063339352607727
vn 0.0018878303235396743 -0.7078762650489807 -0.7063339352607727
vn 0.0018878303235396743 -0.7078762650489807 -0.7063339352607727
vn 0.0018878303235396743 -0.7078762650489807 -0.7063339352607727
vn 0.7046188116073608 0.06785761564970016 -0.7063339352607727
vn 0.7046188116073608 0.06785761564970016 -0.7063339352607727
vn 0.7046188116073608 0.06785761564970016 -0.7063339352607727
vn 0.7046188116073608 0.06785761564970016 -0.7063339352607727
vn 0.7046298384666443 0.06774295121431351 0.7063339352607727
vn 0.7046298384666443 0.06774295121431351 0.7063339352607727
vn 0.7046298384666443 0.06774295121431351 0.7063339352607727
vn 0.7046298384666443 0.06774295121431351 0.7063339352607727
vn -0.14064525067806244 0.6937659978866577 -0.7063339352607727
vn -0.14064525067806244 0.6937659978866577 -0.7063339352607727
vn -0.14064525067806244 0.6937659978866577 -0.7063339352607727
vn -0.14064525067806244 0.6937659978866577 -0.7063339352607727
vn -0.1385623663663864 0.6941850185394287 0.7063339352607727
vn -0.1385623663663864 0.6941850185394287 0.7063339352607727
vn -0.1385623663663864 0.6941850185394287 0.7063339352607727
vn -0.1385623663663864 0.6941850185394287 0.7063339352607727
vn 0.13694287836551666 -0.6945062875747681 -0.7063339352607727
vn 0.13694287836551666 -0.6945062875747681 -0.7063339352607727
vn 0.13694287836551666 -0.6945062875747681 -0.7063339352607727
vn 0.13694287836551666 -0.6945062875747681 -0.7063339352607727
vn 0.1385623663663864 -0.6941850185394287 0.7063339352607727
vn 0.1385623663663864 -0.6941850185394287 0.7063339352607727
vn 0.1385623663663864 -0.6941850185394287 0.7063339352607727
vn 0.1385623663663864 -0.6941850185394287 0.7063339352607727
vn 0.6765356063842773 0.20830729603767395 -0.7063339352607727
vn 0.6765356063842773 0.20830729603767395 -0.7063339352607727
vn 0.6765356063842773 0.20830729603767395 -0.7063339352607727
vn 0.6765356063842773 0.20830729603767395 -0.7063339352607727
vn 0.6766409873962402 0.20796476304531097 0.7063339352607727
vn 0.6766409873962402 0.20796476304531097 0.7063339352607727
vn 0.6766409873962402 0.20796476304531097 0.7063339352607727
vn 0.6766409873962402 0.20796476304531097 0.7063339352607727
vn -0.27045738697052 0.6541751623153687 -0.7063339352607727
vn -0.27045738697052 0.6541751623153687 -0.7063339352607727
vn -0.27045738697052 0.6541751623153687 -0.7063339352607727
vn -0.27045738697052 0.6541751623153687 -0.7063339352607727
vn 0.2739427387714386 -0.6527233123779297 -0.7063339352607727
vn 0.2739427387714386 -0.6527233123779297 -0.7063339352607727
vn 0.2739427387714386 -0.6527233123779297 -0.7063339352607727
vn 0.2739427387714386 -0.6527233123779297 -0.7063339352607727
vn 0.6243489384651184 0.3335876762866974 -0.7063339352607727
vn 0.6243489384651184 0.3335876762866974 -0.7063339352607727
vn 0.6243489384651184 0.3335876762866974 -0.7063339352607727
vn 0.6243489384651184 0.3335876762866974 -0.7063339352607727
vn 0.6246261596679688 0.33306828141212463 0.7063339352607727
vn 0.6246261596679688 0.33306828141212463 0.7063339352607727
vn 0.6246261596679688 0.33306828141212463 0.7063339352607727
vn 0.6246261596679688 0.33306828141212463 0.7063339352607727
vn 0.3934725522994995 -0.5884485244750977 -0.7063339352607727
vn 0.3934725522994995 -0.5884485244750977 -0.7063339352607727
vn 0.3934725522994995 -0.5884485244750977 -0.7063339352607727
vn 0.3934725522994995 -0.5884485244750977 -0.7063339352607727
vn 0.394450843334198 -0.587793231010437 0.7063339352607727
vn 0.394450843334198 -0.587793231010437 0.7063339352607727
vn 0.394450843334198 -0.587793231010437 0.7063339352607727
vn 0.394450843334198 -0.587793231010437 0.7063339352607727
vn 0.5492131114006042 0.4466063976287842 -0.7063339352607727
vn 0.5492131114006042 0.4466063976287842 -0.7063339352607727
vn 0.5492131114006042 0.4466063976287842 -0.7063339352607727
vn 0.5492131114006042 0.4466063976287842 -0.7063339352607727
vn 0.5449491143226624 0.45179951190948486 0.7063339352607727
vn 0.5449491143226624 0.45179951190948486 0.7063339352607727
vn 0.5449491143226624 0.45179951190948486 0.7063339352607727
vn 0.5449491143226624 0.45179951190948486 0.7063339352607727
vn -0.5012128949165344 0.4998779892921448 -0.7063339352607727
vn -0.5012128949165344 0.4998779892921448 -0.7063339352607727
vn -0.5012128949165344 0.4998779892921448 -0.7063339352607727
vn -0.5012128949165344 0.4998779892921448 -0.7063339352607727
vn -0.49921146035194397 0.501876711845398 0.7063339352607727
vn -0.49921146035194397 0.501876711845398 0.7063339352607727
vn -0.49921146035194397 0.501876711845398 0.7063339352607727
vn -0.49921146035194397 0.501876711845398 0.7063339352607727
vn 0.498539537191391 -0.5025442242622375 -0.7063339352607727
vn 0.498539537191391 -0.5025442242622375 -0.7063339352607727
vn 0.498539537191391 -0.5025442242622375 -0.7063339352607727
vn 0.498539537191391 -0.5025442242622375 -0.7063339352607727
vn 0.49921146035194397 -0.501876711845398 0.7063339352607727
vn 0.49921146035194397 -0.501876711845398 0.7063339352607727
vn 0.49921146035194397 -0.501876711845398 0.7063339352607727
vn 0.49921146035194397 -0.501876711845398 0.7063339352607727
vn 0.4480695128440857 0.5480201244354248 -0.7063339352607727
vn 0.4480695128440857 0.5480201244354248 -0.7063339352607727
vn 0.4480695128440857 0.5480201244354248 -0.7063339352607727
vn 0.4480695128440857 0.5480201244354248 -0.7063339352607727
vn 0.44889140129089355 0.5473471283912659 0.7063339352607727
vn 0.44889140129089355 0.5473471283912659 0.7063339352607727
vn 0.44889140129089355 0.5473471283912659 0.7063339352607727
vn 0.44889140129089355 0.5473471283912659 0.7063339352607727
vn -0.5873970985412598 0.39504048228263855 -0.7063339352607727
vn -0.5873970985412598 0.39504048228263855 -0.7063339352607727
vn -0.5873970985412598 0.39504048228263855 -0.7063339352607727
vn -0.5873970985412598 0.39504048228263855 -0.7063339352607727
vn -0.5898852348327637 0.39131543040275574 0.7063339352607727
vn -0.5898852348327637 0.39131543040275574 0.7063339352607727
vn -0.5898852348327637 0.39131543040275574 0.7063339352607727
vn -0.5898852348327637 0.39131543040275574 0.7063339352607727
vn 0.5894957780838013 -0.39190182089805603 -0.7063339352607727
vn 0.5894957780838013 -0.39190182089805603 -0.7063339352607727
vn 0.5894957780838013 -0.39190182089805603 -0.7063339352607727
vn 0.5894957780838013 -0.39190182089805603 -0.7063339352607727
vn 0.5898852348327637 -0.39131543040275574 0.7063339352607727
vn 0.5898852348327637 -0.39131543040275574 0.7063339352607727
vn 0.5898852348327637 -0.39131543040275574 0.7063339352607727
vn 0.5898852348327637 -0.39131543040275574 0.7063339352607727
vn 0.3352515697479248 0.6234570741653442 -0.7063339352607727
vn 0.3352515697479248 0.6234570741653442 -0.7063339352607727
vn 0.3352515697479248 0.6234570741653442 -0.7063339352607727
vn 0.3352515697479248 0.6234570741653442 -0.7063339352607727
vn 0.3363895118236542 0.622843861579895 0.7063339352607727
vn 0.3363895118236542 0.622843861579895 0.7063339352607727
vn 0.3363895118236542 0.622843861579895 0.7063339352607727
vn 0.3363895118236542 0.622843861579895 0.7063339352607727
vn -0.6536335349082947 0.2717638313770294 0.7063339352607727
vn -0.6536335349082947 0.2717638313770294 0.7063339352607727
vn -0.6536335349082947 0.2717638313770294 0.7063339352607727
vn -0.6536335349082947 0.2717638313770294 0.7063339352607727
vn 0.6536335349082947 -0.2717638313770294 0.7063339352607727
vn 0.6536335349082947 -0.2717638313770294 0.7063339352607727
vn 0.6536335349082947 -0.2717638313770294 0.7063339352607727
vn 0.6536335349082947 -0.2717638313770294 0.7063339352607727
vn 0.20288795232772827 0.6781805157661438 -0.7063339352607727
vn 0.20288795232772827 0.6781805157661438 -0.7063339352607727
vn 0.20288795232772827 0.6781805157661438 -0.7063339352607727
vn 0.20288795232772827 0.6781805157661438 -0.7063339352607727
vn 0.20435890555381775 0.6777387261390686 0.7063339352607727
vn 0.20435890555381775 0.6777387261390686 0.7063339352607727
vn 0.20435890555381775 0.6777387261390686 0.7063339352607727
vn 0.20435890555381775 0.6777387261390686 0.7063339352607727
vn -0.6949129700660706 0.13486407697200775 0.7063339352607727
vn -0.6949129700660706 0.13486407697200775 0.7063339352607727
vn -0.6949129700660706 0.13486407697200775 0.7063339352607727
vn -0.6949129700660706 0.13486407697200775 0.7063339352607727
vn 0.6949129700660706 -0.13486407697200775 0.7063339352607727
vn 0.6949129700660706 -0.13486407697200775 0.7063339352607727
vn 0.6949129700660706 -0.13486407697200775 0.7063339352607727
vn 0.6949129700660706 -0.13486407697200775 0.7063339352607727
vn 0.06973651051521301 0.7044353485107422 -0.7063339352607727
vn 0.06973651051521301 0.7044353485107422 -0.7063339352607727
vn 0.06973651051521301 0.7044353485107422 -0.7063339352607727
vn 0.06973651051521301 0.7044353485107422 -0.7063339352607727
vn 0.07149393856525421 0.7042591571807861 0.7063339352607727
vn 0.07149393856525421 0.7042591571807861 0.7063339352607727
vn 0.07149393856525421 0.7042591571807861 0.7063339352607727
vn 0.07149393856525421 0.7042591571807861 0.7063339352607727
vn -0.7078787684440613 -1.4640568759497624e-13 0.7063339352607727
vn -0.7078787684440613 -1.4640568759497624e-13 0.7063339352607727
vn -0.7078787684440613 -1.4640568759497624e-13 0.7063339352607727
vn -0.7078787684440613 -1.4640568759497624e-13 0.7063339352607727
vn 0.7078787684440613 0 0.7063339352607727
vn 0.7078787684440613 0 0.7063339352607727
vn 0.7078787684440613 0 0.7063339352607727
vn 0.7078787684440613 0 0.7063339352607727
vn -0.06597823649644852 0.7047972679138184 -0.7063339352607727
vn -0.06597823649644852 0.7047972679138184 -0.7063339352607727
vn -0.06597823649644852 0.7047972679138184 -0.7063339352607727
vn -0.06597823649644852 0.7047972679138184 -0.7063339352607727
vn -0.07149393856525421 0.7042591571807861 0.7063339352607727
vn -0.07149393856525421 0.7042591571807861 0.7063339352607727
vn -0.07149393856525421 0.7042591571807861 0.7063339352607727
vn -0.07149393856525421 0.7042591571807861 0.7063339352607727
vn -0.6949129700660706 -0.13486407697200775 0.7063339352607727
vn -0.6949129700660706 -0.13486407697200775 0.7063339352607727
vn -0.6949129700660706 -0.13486407697200775 0.7063339352607727
vn -0.6949129700660706 -0.13486407697200775 0.7063339352607727
vn 0.6949129700660706 0.13486407697200775 0.7063339352607727
vn 0.6949129700660706 0.13486407697200775 0.7063339352607727
vn 0.6949129700660706 0.13486407697200775 0.7063339352607727
vn 0.6949129700660706 0.13486407697200775 0.7063339352607727
vn -0.206502303481102 0.677088737487793 -0.7063339352607727
vn -0.206502303481102 0.677088737487793 -0.7063339352607727
vn -0.206502303481102 0.677088737487793 -0.7063339352607727
vn -0.206502303481102 0.677088737487793 -0.7063339352607727
vn -0.20435890555381775 0.6777387261390686 0.7063339352607727
vn -0.20435890555381775 0.6777387261390686 0.7063339352607727
vn -0.20435890555381775 0.6777387261390686 0.7063339352607727
vn -0.20435890555381775 0.6777387261390686 0.7063339352607727
vn -0.6536335349082947 -0.2717638313770294 0.7063339352607727
vn -0.6536335349082947 -0.2717638313770294 0.7063339352607727
vn -0.6536335349082947 -0.2717638313770294 0.7063339352607727
vn -0.6536335349082947 -0.2717638313770294 0.7063339352607727
vn 0.6536335349082947 0.2717638313770294 0.7063339352607727
vn 0.6536335349082947 0.2717638313770294 0.7063339352607727
vn 0.6536335349082947 0.2717638313770294 0.7063339352607727
vn 0.6536335349082947 0.2717638313770294 0.7063339352607727
vn -0.33192142844200134 0.6252363920211792 -0.7063339352607727
vn -0.33192142844200134 0.6252363920211792 -0.7063339352607727
vn -0.33192142844200134 0.6252363920211792 -0.7063339352607727
vn -0.33192142844200134 0.6252363920211792 -0.7063339352607727
vn -0.3363895118236542 0.622843861579895 0.7063339352607727
vn -0.3363895118236542 0.622843861579895 0.7063339352607727
vn -0.3363895118236542 0.622843861579895 0.7063339352607727
vn -0.3363895118236542 0.622843861579895 0.7063339352607727
vn -0.5898852348327637 -0.39131543040275574 0.7063339352607727
vn -0.5898852348327637 -0.39131543040275574 0.7063339352607727
vn -0.5898852348327637 -0.39131543040275574 0.7063339352607727
vn -0.5898852348327637 -0.39131543040275574 0.7063339352607727
vn 0.5898852348327637 0.39131543040275574 0.7063339352607727
vn 0.5898852348327637 0.39131543040275574 0.7063339352607727
vn 0.5898852348327637 0.39131543040275574 0.7063339352607727
vn 0.5898852348327637 0.39131543040275574 0.7063339352607727
vn -0.4509861171245575 0.5456224679946899 -0.7063339352607727
vn -0.4509861171245575 0.5456224679946899 -0.7063339352607727
vn -0.4509861171245575 0.5456224679946899 -0.7063339352607727
vn -0.4509861171245575 0.5456224679946899 -0.7063339352607727
vn -0.44889140129089355 0.5473471283912659 0.7063339352607727
vn -0.44889140129089355 0.5473471283912659 0.7063339352607727
vn -0.44889140129089355 0.5473471283912659 0.7063339352607727
vn -0.44889140129089355 0.5473471283912659 0.7063339352607727
vn -0.5012128949165344 -0.4998779892921448 -0.7063339352607727
vn -0.5012128949165344 -0.4998779892921448 -0.7063339352607727
vn -0.5012128949165344 -0.4998779892921448 -0.7063339352607727
vn -0.5012128949165344 -0.4998779892921448 -0.7063339352607727
vn -0.49921146035194397 -0.501876711845398 0.7063339352607727
vn -0.49921146035194397 -0.501876711845398 0.7063339352607727
vn -0.49921146035194397 -0.501876711845398 0.7063339352607727
vn -0.49921146035194397 -0.501876711845398 0.7063339352607727
vn 0.498539537191391 0.5025442242622375 -0.7063339352607727
vn 0.498539537191391 0.5025442242622375 -0.7063339352607727
vn 0.498539537191391 0.5025442242622375 -0.7063339352607727
vn 0.498539537191391 0.5025442242622375 -0.7063339352607727
vn 0.49921146035194397 0.501876711845398 0.7063339352607727
vn 0.49921146035194397 0.501876711845398 0.7063339352607727
vn 0.49921146035194397 0.501876711845398 0.7063339352607727
vn 0.49921146035194397 0.501876711845398 0.7063339352607727
vn -0.546823263168335 0.44952940940856934 -0.7063339352607727
vn -0.546823263168335 0.44952940940856934 -0.7063339352607727
vn -0.546823263168335 0.44952940940856934 -0.7063339352607727
vn -0.546823263168335 0.44952940940856934 -0.7063339352607727
vn -0.5449491143226624 0.45179951190948486 0.7063339352607727
vn -0.5449491143226624 0.45179951190948486 0.7063339352607727
vn -0.5449491143226624 0.45179951190948486 0.7063339352607727
vn -0.5449491143226624 0.45179951190948486 0.7063339352607727
vn 0.3934725522994995 0.5884485244750977 -0.7063339352607727
vn 0.3934725522994995 0.5884485244750977 -0.7063339352607727
vn 0.3934725522994995 0.5884485244750977 -0.7063339352607727
vn 0.3934725522994995 0.5884485244750977 -0.7063339352607727
vn 0.394450843334198 0.587793231010437 0.7063339352607727
vn 0.394450843334198 0.587793231010437 0.7063339352607727
vn 0.394450843334198 0.587793231010437 0.7063339352607727
vn 0.394450843334198 0.587793231010437 0.7063339352607727
vn -0.6225607991218567 0.3369130492210388 -0.7063339352607727
vn -0.6225607991218567 0.3369130492210388 -0.7063339352607727
vn -0.6225607991218567 0.3369130492210388 -0.7063339352607727
vn -0.6225607991218567 0.3369130492210388 -0.7063339352607727
vn -0.6246261596679688 0.33306828141212463 0.7063339352607727
vn -0.6246261596679688 0.33306828141212463 0.7063339352607727
vn -0.6246261596679688 0.33306828141212463 0.7063339352607727
vn -0.6246261596679688 0.33306828141212463 0.7063339352607727
vn 0.2739427387714386 0.6527233123779297 -0.7063339352607727
vn 0.2739427387714386 0.6527233123779297 -0.7063339352607727
vn 0.2739427387714386 0.6527233123779297 -0.7063339352607727
vn 0.2739427387714386 0.6527233123779297 -0.7063339352607727
vn -0.6776370406150818 0.20469585061073303 -0.7063339352607727
vn -0.6776370406150818 0.20469585061073303 -0.7063339352607727
vn -0.6776370406150818 0.20469585061073303 -0.7063339352607727
vn -0.6776370406150818 0.20469585061073303 -0.7063339352607727
vn -0.6766409873962402 0.20796476304531097 0.7063339352607727
vn -0.6766409873962402 0.20796476304531097 0.7063339352607727
vn -0.6766409873962402 0.20796476304531097 0.7063339352607727
vn -0.6766409873962402 0.20796476304531097 0.7063339352607727
vn -0.1385623663663864 -0.6941850185394287 0.7063339352607727
vn -0.1385623663663864 -0.6941850185394287 0.7063339352607727
vn -0.1385623663663864 -0.6941850185394287 0.7063339352607727
vn -0.1385623663663864 -0.6941850185394287 0.7063339352607727
vn 0.3939575254917145 0.5768733024597168 0.715552031993866
vn -0.3419247567653656 0.9375920295715332 -0.0633138045668602
vn 0.9982607960700989 0 -0.058952588587999344
vn 0.25427502393722534 0.3673563599586487 -0.8946471214294434
vn -0.9845269918441772 -0.1691247820854187 -0.04586252197623253
vn -0.33849969506263733 0.3371630311012268 -0.8784868121147156
vn -0.4723469614982605 0.4750138521194458 0.7424622178077698
vn 0.17842209339141846 0.9828846454620361 -0.04586252197623253
vn -0.15228517353534698 0.9868277907371521 -0.05459024757146835
vn 0.33222946524620056 0.32153138518333435 -0.8867024183273315
vn 0.4887453317642212 0.47675055265426636 0.7306414246559143
vn 0.9795013070106506 -0.19507552683353424 -0.05022686347365379
vn 0.32805439829826355 0.9412015676498413 -0.08074574917554855
vn 0.37665313482284546 0.08984363079071045 -0.9219872951507568
vn 0.7249959707260132 0.17929314076900482 0.6650074124336243
vn 0.7574694156646729 -0.6454502940177917 -0.0981530249118805
vn 0.00376924779266119 -0.707868754863739 0.7063339352607727
vn 0.00376924779266119 -0.707868754863739 0.7063339352607727
vn 0.00376924779266119 -0.707868754863739 0.7063339352607727
vn 0.00376924779266119 -0.707868754863739 0.7063339352607727
vn 0.00376924779266119 -0.707868754863739 0.7063339352607727
vn -0.2682795524597168 0.6550713181495667 0.7063339352607727
vn -0.2682795524597168 0.6550713181495667 0.7063339352607727
vn -0.2682795524597168 0.6550713181495667 0.7063339352607727
vn -0.2682795524597168 0.6550713181495667 0.7063339352607727
vn -0.2682795524597168 0.6550713181495667 0.7063339352607727
vn 0.2682795524597168 -0.6550713181495667 0.7063339352607727
vn 0.2682795524597168 -0.6550713181495667 0.7063339352607727
vn 0.2682795524597168 -0.6550713181495667 0.7063339352607727
vn 0.2682795524597168 -0.6550713181495667 0.7063339352607727
vn 0.2682795524597168 -0.6550713181495667 0.7063339352607727
vn -0.3903283178806305 0.5905388593673706 -0.7063339352607727
vn -0.3903283178806305 0.5905388593673706 -0.7063339352607727
vn -0.3903283178806305 0.5905388593673706 -0.7063339352607727
vn -0.3903283178806305 0.5905388593673706 -0.7063339352607727
vn -0.3903283178806305 0.5905388593673706 -0.7063339352607727
vn -0.394450843334198 0.587793231010437 0.7063339352607727
vn -0.394450843334198 0.587793231010437 0.7063339352607727
vn -0.394450843334198 0.587793231010437 0.7063339352607727
vn -0.394450843334198 0.587793231010437 0.7063339352607727
vn -0.394450843334198 0.587793231010437 0.7063339352607727
vn -0.6548941135406494 0.26871180534362793 -0.7063339352607727
vn -0.6548941135406494 0.26871180534362793 -0.7063339352607727
vn -0.6548941135406494 0.26871180534362793 -0.7063339352607727
vn -0.6548941135406494 0.26871180534362793 -0.7063339352607727
vn -0.6548941135406494 0.26871180534362793 -0.7063339352607727
vn 0.6534515619277954 -0.2722010314464569 -0.7063339352607727
vn 0.6534515619277954 -0.2722010314464569 -0.7063339352607727
vn 0.6534515619277954 -0.2722010314464569 -0.7063339352607727
vn 0.6534515619277954 -0.2722010314464569 -0.7063339352607727
vn 0.6534515619277954 -0.2722010314464569 -0.7063339352607727
vn -0.6941385865211487 0.13879455626010895 -0.7063339352607727
vn -0.6941385865211487 0.13879455626010895 -0.7063339352607727
vn -0.6941385865211487 0.13879455626010895 -0.7063339352607727
vn -0.6941385865211487 0.13879455626010895 -0.7063339352607727
vn -0.6941385865211487 0.13879455626010895 -0.7063339352607727
vn 0.6948690414428711 -0.13509023189544678 -0.7063339352607727
vn 0.6948690414428711 -0.13509023189544678 -0.7063339352607727
vn 0.6948690414428711 -0.13509023189544678 -0.7063339352607727
vn 0.6948690414428711 -0.13509023189544678 -0.7063339352607727
vn 0.6948690414428711 -0.13509023189544678 -0.7063339352607727
vn -0.7078686952590942 0.0037756471429020166 -0.7063339352607727
vn -0.7078686952590942 0.0037756471429020166 -0.7063339352607727
vn -0.7078686952590942 0.0037756471429020166 -0.7063339352607727
vn -0.7078686952590942 0.0037756471429020166 -0.7063339352607727
vn -0.7078686952590942 0.0037756471429020166 -0.7063339352607727
vn 0.7078787684440613 0 -0.7063339352607727
vn 0.7078787684440613 0 -0.7063339352607727
vn 0.7078787684440613 0 -0.7063339352607727
vn 0.7078787684440613 0 -0.7063339352607727
vn 0.7078787684440613 0 -0.7063339352607727
vn -0.6941385865211487 -0.13879455626010895 -0.7063339352607727
vn -0.6941385865211487 -0.13879455626010895 -0.7063339352607727
vn -0.6941385865211487 -0.13879455626010895 -0.7063339352607727
vn -0.6941385865211487 -0.13879455626010895 -0.7063339352607727
vn -0.6941385865211487 -0.13879455626010895 -0.7063339352607727
vn 0.6948690414428711 0.13509023189544678 -0.7063339352607727
vn 0.6948690414428711 0.13509023189544678 -0.7063339352607727
vn 0.6948690414428711 0.13509023189544678 -0.7063339352607727
vn 0.6948690414428711 0.13509023189544678 -0.7063339352607727
vn 0.6948690414428711 0.13509023189544678 -0.7063339352607727
vn -0.6548941135406494 -0.26871180534362793 -0.7063339352607727
vn -0.6548941135406494 -0.26871180534362793 -0.7063339352607727
vn -0.6548941135406494 -0.26871180534362793 -0.7063339352607727
vn -0.6548941135406494 -0.26871180534362793 -0.7063339352607727
vn -0.6548941135406494 -0.26871180534362793 -0.7063339352607727
vn 0.6534515619277954 0.2722010314464569 -0.7063339352607727
vn 0.6534515619277954 0.2722010314464569 -0.7063339352607727
vn 0.6534515619277954 0.2722010314464569 -0.7063339352607727
vn 0.6534515619277954 0.2722010314464569 -0.7063339352607727
vn 0.6534515619277954 0.2722010314464569 -0.7063339352607727
vn -0.5873970985412598 -0.39504048228263855 -0.7063339352607727
vn -0.5873970985412598 -0.39504048228263855 -0.7063339352607727
vn -0.5873970985412598 -0.39504048228263855 -0.7063339352607727
vn -0.5873970985412598 -0.39504048228263855 -0.7063339352607727
vn -0.5873970985412598 -0.39504048228263855 -0.7063339352607727
vn 0.5894957780838013 0.39190182089805603 -0.7063339352607727
vn 0.5894957780838013 0.39190182089805603 -0.7063339352607727
vn 0.5894957780838013 0.39190182089805603 -0.7063339352607727
vn 0.5894957780838013 0.39190182089805603 -0.7063339352607727
vn 0.5894957780838013 0.39190182089805603 -0.7063339352607727
vn -0.3903283178806305 -0.5905388593673706 -0.7063339352607727
vn -0.3903283178806305 -0.5905388593673706 -0.7063339352607727
vn -0.3903283178806305 -0.5905388593673706 -0.7063339352607727
vn -0.3903283178806305 -0.5905388593673706 -0.7063339352607727
vn -0.3903283178806305 -0.5905388593673706 -0.7063339352607727
vn -0.394450843334198 -0.587793231010437 0.7063339352607727
vn -0.394450843334198 -0.587793231010437 0.7063339352607727
vn -0.394450843334198 -0.587793231010437 0.7063339352607727
vn -0.394450843334198 -0.587793231010437 0.7063339352607727
vn -0.394450843334198 -0.587793231010437 0.7063339352607727
vn -0.27045738697052 -0.6541751623153687 -0.7063339352607727
vn -0.27045738697052 -0.6541751623153687 -0.7063339352607727
vn -0.27045738697052 -0.6541751623153687 -0.7063339352607727
vn -0.27045738697052 -0.6541751623153687 -0.7063339352607727
vn -0.27045738697052 -0.6541751623153687 -0.7063339352607727
vn -0.2682795524597168 -0.6550713181495667 0.7063339352607727
vn -0.2682795524597168 -0.6550713181495667 0.7063339352607727
vn -0.2682795524597168 -0.6550713181495667 0.7063339352607727
vn -0.2682795524597168 -0.6550713181495667 0.7063339352607727
vn -0.2682795524597168 -0.6550713181495667 0.7063339352607727
vn 0.2682795524597168 0.6550713181495667 0.7063339352607727
vn 0.2682795524597168 0.6550713181495667 0.7063339352607727
vn 0.2682795524597168 0.6550713181495667 0.7063339352607727
vn 0.2682795524597168 0.6550713181495667 0.7063339352607727
vn 0.2682795524597168 0.6550713181495667 0.7063339352607727
vn 0.2682795524597168 0.6550713181495667 0.7063339352607727
vn -0.14064525067806244 -0.6937659978866577 -0.7063339352607727
vn -0.14064525067806244 -0.6937659978866577 -0.7063339352607727
vn -0.14064525067806244 -0.6937659978866577 -0.7063339352607727
vn -0.14064525067806244 -0.6937659978866577 -0.7063339352607727
vn -0.14064525067806244 -0.6937659978866577 -0.7063339352607727
vn -0.4337066411972046 0.6958179473876953 -0.5724822878837585
vn 0.45946070551872253 0.6850817203521729 -0.5652954578399658
vn -0.811330258846283 0.5801331996917725 -0.07203252613544464
vn 0.8287758827209473 0.5554735064506531 -0.06767380982637405
vn 0.005654999054968357 0.7140017747879028 0.7001210451126099
vn -0.284761518239975 0.7688789963722229 -0.5724822878837585
vn -0.6822182536125183 0.7275916337966919 -0.07203252613544464
vn 0.5872772932052612 0.5792637467384338 -0.5652954578399658
vn 0.9213998317718506 0.38267818093299866 -0.06767380982637405
vn 0.14783930778503418 0.69855135679245 0.7001210451126099
vn -0.12418825924396515 0.8154865503311157 -0.5652954578399658
vn -0.5204955339431763 0.8511784076690674 -0.06767380982637405
vn 0.69414883852005 0.4501849114894867 -0.5616858005523682
vn 0.978771448135376 0.19493018090724945 -0.0633138045668602
vn 0.28216996788978577 0.6492090821266174 0.7063339352607727
vn -8.606192879656235e-14 0.8322274088859558 -0.5544344186782837
vn -0.7584621906280518 0.3305211067199707 -0.5616858005523682
vn 0.3668033480644226 0.9286954402923584 -0.05459024757146835
vn -0.9981592297554016 0.02642093040049076 -0.05459024757146835
vn -0.38089239597320557 0.5742887258529663 0.7246471047401428
vn 0.15770111978054047 0.8121818900108337 -0.5616858005523682
vn 0.5471799969673157 0.8346168994903564 -0.0633138045668602
vn -0.6715056896209717 0.4748045802116394 -0.5688942670822144
vn -0.973270833492279 0.22076059877872467 -0.0633138045668602
vn -0.2628537118434906 0.6505857110023499 0.7124928832054138
vn 0.3130517601966858 0.7631773352622986 -0.5652954578399658
vn 0.698778510093689 0.7121298313140869 -0.06767380982637405
vn -0.564895749092102 0.5942699909210205 -0.5724822878837585
vn -0.9124722480773926 0.4035029709339142 -0.06767380982637405
vn -0.13499875366687775 0.6980236172676086 0.7032341957092285
s on
f 1//1 2//2 3//3
f 4//4 6//6 5//5
f 7//7 8//8 9//9
f 10//10 12//12 11//11
f 13//13 14//14 15//15
f 16//16 18//18 17//17
f 19//19 20//20 21//21
f 21//21 20//20 22//22
f 20//20 23//23 22//22
f 22//22 23//23 24//24
f 25//25 27//27 26//26
f 27//27 28//28 26//26
f 26//26 28//28 29//29
f 28//28 30//30 29//29
f 31//31 32//32 33//33
f 32//32 34//34 33//33
f 33//33 34//34 35//35
f 34//34 32//32 36//36
f 37//37 38//38 39//39
f 38//38 40//40 39//39
f 40//40 41//41 39//39
f 41//41 42//42 39//39
f 42//42 43//43 39//39
f 43//43 44//44 39//39
f 44//44 45//45 39//39
f 39//39 45//45 37//37
f 46//46 48//48 47//47
f 47//47 48//48 49//49
f 50//50 52//52 51//51
f 51//51 52//52 53//53
f 54//54 56//56 55//55
f 55//55 56//56 57//57
f 58//58 60//60 59//59
f 59//59 60//60 61//61
f 62//62 64//64 63//63
f 63//63 64//64 65//65
f 66//66 68//68 67//67
f 67//67 68//68 69//69
f 70//70 72//72 71//71
f 71//71 72//72 73//73
f 74//74 76//76 75//75
f 75//75 76//76 77//77
f 78//78 80//80 79//79
f 79//79 80//80 81//81
f 82//82 84//84 83//83
f 83//83 84//84 85//85
f 86//86 88//88 87//87
f 87//87 88//88 89//89
f 90//90 92//92 91//91
f 91//91 92//92 93//93
f 94//94 96//96 95//95
f 95//95 96//96 97//97
f 98//98 100//100 99//99
f 99//99 100//100 101//101
f 102//102 104//104 103//103
f 103//103 104//104 105//105
f 106//106 108//108 107//107
f 107//107 108//108 109//109
f 110//110 112//112 111//111
f 111//111 112//112 113//113
f 114//114 116//116 115//115
f 115//115 116//116 117//117
f 118//118 120//120 119//119
f 119//119 120//120 121//121
f 122//122 124//124 123//123
f 123//123 124//124 125//125
f 126//126 128//128 127//127
f 127//127 128//128 129//129
f 130//130 132//132 131//131
f 131//131 132//132 133//133
f 134//134 136//136 135//135
f 135//135 136//136 137//137
f 138//138 140//140 139//139
f 139//139 140//140 141//141
f 142//142 144//144 143//143
f 143//143 144//144 145//145
f 146//146 148//148 147//147
f 147//147 148//148 149//149
f 150//150 152//152 151//151
f 151//151 152//152 153//153
f 154//154 156//156 155//155
f 155//155 156//156 157//157
f 158//158 160//160 159//159
f 159//159 160//160 161//161
f 162//162 164//164 163//163
f 163//163 164//164 165//165
f 166//166 168//168 167//167
f 167//167 168//168 169//169
f 170//170 172//172 171//171
f 171//171 172//172 173//173
f 174//174 176//176 175//175
f 175//175 176//176 177//177
f 178//178 180//180 179//179
f 179//179 180//180 181//181
f 182//182 184//184 183//183
f 183//183 184//184 185//185
f 186//186 188//188 187//187
f 187//187 188//188 189//189
f 190//190 192//192 191//191
f 191//191 192//192 193//193
f 194//194 196//196 195//195
f 195//195 196//196 197//197
f 198//198 200//200 199//199
f 199//199 200//200 201//201
f 202//202 204//204 203//203
f 203//203 204//204 205//205
f 206//206 208//208 207//207
f 207//207 208//208 209//209
f 210//210 212//212 211//211
f 211//211 212//212 213//213
f 214//214 216//216 215//215
f 215//215 216//216 217//217
f 218//218 220//220 219//219
f 219//219 220//220 221//221
f 222//222 224//224 223//223
f 223//223 224//224 225//225
f 226//226 228//228 227//227
f 227//227 228//228 229//229
f 230//230 232//232 231//231
f 231//231 232//232 233//233
f 234//234 236//236 235//235
f 235//235 236//236 237//237
f 238//238 240//240 239//239
f 239//239 240//240 241//241
f 242//242 244//244 243//243
f 243//243 244//244 245//245
f 246//246 248//248 247//247
f 247//247 248//248 249//249
f 250//250 252//252 251//251
f 251//251 252//252 253//253
f 254//254 256//256 255//255
f 255//255 256//256 257//257
f 258//258 260//260 259//259
f 259//259 260//260 261//261
f 262//262 264//264 263//263
f 263//263 264//264 265//265
f 266//266 268//268 267//267
f 267//267 268//268 269//269
f 270//270 272//272 271//271
f 271//271 272//272 273//273
f 274//274 276//276 275//275
f 275//275 276//276 277//277
f 278//278 280//280 279//279
f 279//279 280//280 281//281
f 282//282 284//284 283//283
f 283//283 284//284 285//285
f 286//286 288//288 287//287
f 287//287 288//288 289//289
f 290//290 292//292 291//291
f 291//291 292//292 293//293
f 294//294 296//296 295//295
f 295//295 296//296 297//297
f 298//298 300//300 299//299
f 299//299 300//300 301//301
f 302//302 304//304 303//303
f 303//303 304//304 305//305
f 306//306 308//308 307//307
f 307//307 308//308 309//309
f 310//310 312//312 311//311
f 311//311 312//312 313//313
f 314//314 316//316 315//315
f 315//315 316//316 317//317
f 318//318 320//320 319//319
f 319//319 320//320 321//321
f 322//322 324//324 323//323
f 323//323 324//324 325//325
f 326//326 328//328 327//327
f 327//327 328//328 329//329
f 330//330 332//332 331//331
f 331//331 332//332 333//333
f 332//332 334//334 333//333
f 335//335 336//336 337//337
f 336//336 338//338 337//337
f 337//337 338//338 339//339
f 340//340 342//342 341//341
f 342//342 343//343 341//341
f 341//341 343//343 344//344
f 345//345 347//347 346//346
f 346//346 347//347 348//348
f 347//347 349//349 348//348
f 350//350 351//351 352//352
f 351//351 353//353 352//352
f 352//352 353//353 354//354
f 355//355 357//357 356//356
f 357//357 358//358 356//356
f 356//356 358//358 359//359
f 360//360 362//362 361//361
f 362//362 363//363 361//361
f 361//361 363//363 364//364
f 365//365 367//367 366//366
f 367//367 368//368 366//366
f 366//366 368//368 369//369
f 370//370 372//372 371//371
f 372//372 373//373 371//371
f 371//371 373//373 374//374
f 375//375 377//377 376//376
f 376//376 377//377 378//378
f 377//377 379//379 378//378
f 380//380 381//381 382//382
f 381//381 383//383 382//382
f 382//382 383//383 384//384
f 385//385 387//387 386//386
f 387//387 388//388 386//386
f 386//386 388//388 389//389
f 390//390 392//392 391//391
f 392//392 393//393 391//391
f 391//391 393//393 394//394
f 395//395 397//397 396//396
f 397//397 398//398 396//396
f 396//396 398//398 399//399
f 400//400 402//402 401//401
f 402//402 403//403 401//401
f 401//401 403//403 404//404
f 405//405 407//407 406//406
f 407//407 408//408 406//406
f 406//406 408//408 409//409
f 410//410 412//412 411//411
f 412//412 413//413 411//411
f 411//411 413//413 414//414
f 415//415 417//417 416//416
f 417//417 418//418 416//416
f 416//416 418//418 419//419
f 420//420 422//422 421//421
f 421//421 422//422 423//423
f 422//422 424//424 423//423
f 425//425 426//426 427//427
f 426//426 428//428 427//427
f 427//427 428//428 429//429
f 430//430 432//432 431//431
f 431//431 432//432 433//433
f 432//432 434//434 433//433
f 435//435 436//436 437//437
f 437//437 436//436 438//438
f 438//438 436//436 439//439
f 436//436 440//440 439//439
f 441//441 442//442 443//443
f 442//442 444//444 443//443
f 443//443 444//444 445//445
f 446//446 448//448 447//447
f 447//447 448//448 449//449
f 448//448 450//450 449//449
f 451//451 452//452 453//453
f 453//453 452//452 454//454
f 452//452 455//455 454//454
f 456//456 457//457 458//458
f 458//458 457//457 459//459
f 457//457 460//460 459//459
f 461//461 462//462 463//463
f 462//462 464//464 463//463
f 463//463 464//464 465//465
f 466//466 468//468 467//467
f 468//468 469//469 467//467
f 467//467 469//469 470//470
f 471//471 473//473 472//472
f 473//473 474//474 472//472
f 472//472 474//474 475//475

