# Exported by Sketchfab Model Ripper robust edition
o model_42
v 2.5176544189453125 -16.855249404907227 87.516357421875
v 1.8485761880874634 -16.60781478881836 87.516357421875
v 1.902482271194458 -16.931385040283203 85.76111602783203
v 1.4775701761245728 -16.360380172729492 85.85112762451172
v 1.1731548309326172 -16.598299026489258 84.0508804321289
v 1.1255900859832764 -15.894062042236328 84.18589782714844
v 0.5738378167152405 -15.875028610229492 82.47566986083984
v 0.9194753766059875 -15.256441116333008 82.61068725585938
v 0.3043033480644226 -14.885290145874023 80.9454574584961
v 0.9353296160697937 -14.552204132080078 80.99046325683594
v 0.45651012659072876 -13.838449478149414 79.41524505615234
v 1.1699820756912231 -13.895549774169922 79.3702392578125
v 0.9924061894416809 -12.981945037841797 77.84003448486328
v 1.560012698173523 -13.410197257995605 77.7500228881836
v 1.7471002340316772 -12.487075805664062 76.1748046875
v 1.991266131401062 -13.143729209899902 76.08479309082031
v 2.4891104698181152 -12.410942077636719 74.46456909179688
v 2.3337321281433105 -13.096146583557129 74.37455749511719
v 2.9932963848114014 -12.677410125732422 72.7093276977539
v 2.485938787460327 -13.162762641906738 72.61931610107422
v 3.1074514389038086 -13.105663299560547 70.9090805053711
v 2.406663417816162 -13.248414039611816 70.86407470703125
v 2.7998650074005127 -13.457780838012695 69.10883331298828
v 2.130786895751953 -13.210346221923828 69.15383911132812
v 1.807347059249878 -12.867744445800781 70.95408630371094
v 1.839056134223938 -12.572726249694824 69.28885650634766
v 1.5568455457687378 -15.960679054260254 87.65137481689453
v 1.7692956924438477 -13.162762641906738 72.61931610107422
v 1.7312445640563965 -13.467297554016113 74.2845458984375
v 1.6900224685668945 -13.790865898132324 75.94977569580078
v 1.6583131551742554 -14.104918479919434 77.61500549316406
v 1.6361169815063477 -14.428486824035645 79.28022766113281
v 1.6202627420425415 -14.752055168151855 80.9454574584961
v 1.6075793504714966 -15.066106796264648 82.61068725585938
v 1.598067045211792 -15.37064266204834 84.27590942382812
v 1.5822128057479858 -15.66565990447998 85.98614501953125
v 1.8105244636535645 -15.304024696350098 87.78639221191406
v 2.159332275390625 -15.24692440032959 86.07615661621094
v 2.4605767726898193 -15.018523216247559 87.8313980102539
v 2.3115389347076416 -15.323058128356934 84.32091522216797
v 2.2322635650634766 -15.408708572387695 82.56568145751953
v 1.9563871622085571 -15.37064266204834 80.8554458618164
v 1.5790390968322754 -15.13272476196289 79.14521026611328
v 1.227059006690979 -14.666404724121094 77.52498626708984
v 1.0209442377090454 -14.02878475189209 75.90476989746094
v 1.0336276292800903 -13.315030097961426 74.32955169677734
v 1.268280029296875 -12.658376693725586 72.7093276977539
v 1.6614816188812256 -12.17302417755127 71.08910369873047
v 2.0927350521087646 -11.916072845458984 69.37887573242188
v 2.0515129566192627 -11.582987785339355 71.17911529541016
v 2.745958089828491 -11.621053695678711 69.42388153076172
v 1.2714509963989258 -11.95413875579834 72.84434509277344
v 0.6499383449554443 -12.724993705749512 74.41956329345703
v 0.37089213728904724 -13.733765602111816 75.94977569580078
v 0.5199291110038757 -14.761571884155273 77.52498626708984
v 1.036800503730774 -15.589527130126953 79.10020446777344
v 1.7534440755844116 -16.046329498291016 80.72042846679688
v 2.4320356845855713 -16.084396362304688 82.43065643310547
v 2.847435712814331 -15.78937816619873 84.23090362548828
v 2.866462230682373 -15.361124992370605 86.0311508178711
v 3.1296546459198 -15.275474548339844 87.78639221191406
v 3.291374444961548 -15.922611236572266 85.9411392211914
v 3.4245564937591553 -15.913094520568848 87.69638061523438
v 2.8950002193450928 -16.493616104125977 84.09588623046875
v 2.0832271575927734 -16.693466186523438 82.34064483642578
v 1.122417688369751 -16.37941551208496 80.67542266845703
v 0.32332858443260193 -15.532426834106445 79.10020446777344
v -0.05084841698408127 -14.342836380004883 77.56999206542969
v 0.12672623991966248 -13.067595481872559 76.08479309082031
v 0.805316686630249 -12.039789199829102 74.55458068847656
v 1.7819799184799194 -11.468786239624023 72.93435668945312
v 2.7491300106048584 -11.44023609161377 71.17911529541016
v 3.41503643989563 -11.878005027770996 69.37886810302734
v 3.3484463691711426 -11.820905685424805 71.13410949707031
v 3.7067670822143555 -12.515626907348633 69.28885650634766
v 2.4954516887664795 -11.468786239624023 72.93435668945312
v 1.4109752178192139 -11.659120559692383 74.5995864868164
v 0.4279699921607971 -12.429975509643555 76.21981048583984
v -0.14914894104003906 -13.638598442077637 77.70501708984375
v -0.14280638098716736 -14.999489784240723 79.19021606445312
v 0.4374846816062927 -16.179563522338867 80.72042846679688
v 1.3982940912246704 -16.89331817626953 82.29563903808594
v 2.422523260116577 -17.01703453063965 84.00587463378906
v 3.183560848236084 -16.617332458496094 85.80612182617188
v 3.1677064895629883 -16.56974983215332 87.56136322021484
v 2.609612226486206 -17.036067962646484 85.71611022949219
v 2.5176544189453125 -16.855249404907227 87.516357421875
v 1.902482271194458 -16.931385040283203 85.76111602783203
v 1.709051489830017 -17.064619064331055 84.00587463378906
v 0.7704389095306396 -16.550716400146484 82.34064483642578
v 0.09818920493125916 -15.5609769821167 80.81044006347656
v -0.08572857826948166 -14.295252799987793 79.32523345947266
v 0.2821052372455597 -13.077112197875977 77.79502868652344
v 1.097048044204712 -12.192056655883789 76.26481628417969
v 2.1085920333862305 -11.81138801574707 74.5995864868164
v 2.999638795852661 -11.973172187805176 72.84434509277344
v 3.4974827766418457 -12.515625953674316 70.99909210205078
v 3.4530880451202393 -13.172280311584473 69.15383911132812
v 3.1074514389038086 -13.105663299560547 70.9090805053711
v 2.7998650074005127 -13.457780838012695 69.10883331298828
v 2.9932963848114014 -12.677410125732422 72.7093276977539
v 2.4891104698181152 -12.410942077636719 74.46456909179688
v 1.7471002340316772 -12.487075805664062 76.1748046875
v 0.9924061894416809 -12.981945037841797 77.84003448486328
v 0.45651012659072876 -13.838449478149414 79.41524505615234
v 0.3043033480644226 -14.885290145874023 80.9454574584961
v 0.5738378167152405 -15.875028610229492 82.47566986083984
v 1.1731548309326172 -16.598299026489258 84.0508804321289
v 1.8612674474716187 -20.33837127685547 105.87886810302734
v 1.284147024154663 -20.395469665527344 104.07862854003906
v 1.1953603029251099 -20.081418991088867 105.87887573242188
v 0.8592349886894226 -19.833984375 104.16864013671875
v 0.900458574295044 -19.443798065185547 105.96888732910156
v 0.5960424542427063 -20.052867889404297 102.41339874267578
v 0.5516486763954163 -19.3581485748291 102.54841613769531
v 0.041119229048490524 -19.32008171081543 100.79317474365234
v 0.3867568075656891 -18.701494216918945 100.92819213867188
v -0.19353435933589935 -18.320825576782227 99.26296997070312
v 0.43749192357063293 -17.98773956298828 99.30797576904297
v -0.0032757690642029047 -17.273984909057617 97.73275756835938
v 0.7070251703262329 -17.331087112426758 97.73275756835938
v 0.5675011277198792 -16.4079647064209 96.15753936767578
v 1.1351077556610107 -16.836217880249023 96.11253356933594
v 1.3570761680603027 -15.90357780456543 94.58232116699219
v 1.6012420654296875 -16.569747924804688 94.44730377197266
v 2.130796194076538 -15.827444076538086 92.8720932006836
v 1.9754177331924438 -16.51264762878418 92.73707580566406
v 2.6603500843048096 -16.084394454956055 91.11685180664062
v 2.1529922485351562 -16.579265594482422 90.9818344116211
v 2.799872875213623 -16.503131866455078 89.31660461425781
v 2.0990848541259766 -16.645883560180664 89.27159881591797
v 2.5176544189453125 -16.855249404907227 87.516357421875
v 1.8485761880874634 -16.60781478881836 87.516357421875
v 1.4997683763504028 -16.265213012695312 89.31660461425781
v 1.5568455457687378 -15.960679054260254 87.65137481689453
v 1.4363492727279663 -16.56974983215332 90.9818344116211
v 1.3729302883148193 -16.883800506591797 92.64705657958984
v 1.3031693696975708 -17.207368850708008 94.31228637695312
v 1.2334082126617432 -17.53093719482422 95.9775161743164
v 1.1731600761413574 -17.86402130126953 97.64274597167969
v 1.1224249601364136 -18.19710922241211 99.30797576904297
v 1.0748608112335205 -18.52067756652832 100.97319793701172
v 1.0209547281265259 -18.83473014831543 102.638427734375
v 0.9670485854148865 -19.139263153076172 104.30365753173828
v 1.1573084592819214 -18.78714370727539 106.1039047241211
v 1.5409971475601196 -18.72052764892578 104.43867492675781
v 1.8073607683181763 -18.50164222717285 106.19391632080078
v 1.7344266176223755 -18.78714370727539 102.68343353271484
v 1.69954514503479 -18.863279342651367 100.92819213867188
v 1.4585494995117188 -18.815696716308594 99.21795654296875
v 1.1192532777786255 -18.568260192871094 97.50772857666016
v 0.802154004573822 -18.092424392700195 95.84249877929688
v 0.6309201717376709 -17.44528579711914 94.26728057861328
v 0.6753132939338684 -16.722015380859375 92.64705657958984
v 0.9353335499763489 -16.06536293029785 91.07184600830078
v 1.35390305519104 -15.5704927444458 89.45162200927734
v 1.8105244636535645 -15.304024696350098 87.78639221191406
v 1.7439345121383667 -14.989972114562988 89.54163360595703
v 2.4605767726898193 -15.018523216247559 87.8313980102539
v 0.9385046362876892 -15.361124992370605 91.20686340332031
v 0.2916240394115448 -16.13197898864746 92.7820816040039
v -0.015961064025759697 -17.1407527923584 94.26728057861328
v 0.09502407163381577 -18.178075790405273 95.84249877929688
v 0.5738435983657837 -19.015546798706055 97.41771697998047
v 1.2556062936782837 -19.491382598876953 99.08293914794922
v 1.8961461782455444 -19.538965225219727 100.83818054199219
v 2.273494243621826 -19.253463745117188 102.638427734375
v 2.2481272220611572 -18.834728240966797 104.43867492675781
v 2.4764387607574463 -18.758594512939453 106.19391632080078
v 2.673039197921753 -19.405731201171875 104.34866333007812
v 2.768169403076172 -19.396215438842773 106.05889892578125
v 2.317888021469116 -19.95770263671875 102.50341033935547
v 1.5505086183547974 -20.14803695678711 100.70316314697266
v 0.6245799660682678 -19.814950942993164 98.99292755126953
v -0.13645733892917633 -18.958444595336914 97.37271118164062
v -0.47575345635414124 -17.75933837890625 95.88750457763672
v -0.2632979452610016 -16.484098434448242 94.40229797363281
v 0.4470023810863495 -15.446775436401367 92.8720932006836
v 1.449033498764038 -14.875772476196289 91.296875
v 2.441551685333252 -14.847221374511719 89.58663940429688
v 3.1296546459198 -15.275474548339844 87.78639221191406
v 3.040867805480957 -15.227890968322754 89.54163360595703
v 3.4245564937591553 -15.913094520568848 87.69638061523438
v 2.1625053882598877 -14.875772476196289 91.34188079833984
v 1.0526608228683472 -15.066105842590332 92.96210479736328
v 0.03794580698013306 -15.846477508544922 94.53732299804688
v -0.574053943157196 -17.05510139465332 96.02252197265625
v -0.6025922894477844 -18.42551040649414 97.46272277832031
v -0.060353029519319534 -19.605581283569336 98.99292755126953
v 0.8624045848846436 -20.33837127685547 100.61315155029297
v 1.8485820293426514 -20.481121063232422 102.36839294433594
v 2.565225601196289 -20.09093475341797 104.2136459350586
v 2.5144906044006348 -20.052867889404297 105.92388153076172
v 1.9912770986557007 -20.509672164916992 104.07862854003906
v 1.8612674474716187 -20.33837127685547 105.87886810302734
v 1.284147024154663 -20.395469665527344 104.07862854003906
v 1.1351101398468018 -20.528705596923828 102.3233871459961
v 0.23772032558918 -19.995769500732422 100.65815734863281
v -0.39647752046585083 -18.986997604370117 99.12794494628906
v -0.5455144643783569 -17.721271514892578 97.59774017333984
v -0.14279979467391968 -16.503131866455078 96.11253356933594
v 0.7101948857307434 -15.608559608459473 94.58232879638672
v 1.7502777576446533 -15.227890968322754 92.96210479736328
v 2.6666922569274902 -15.380158424377441 91.25186920166016
v 3.18990421295166 -15.922611236572266 89.4066162109375
v 3.1677064895629883 -16.56974983215332 87.56136322021484
v 2.799872875213623 -16.503131866455078 89.31660461425781
v 2.5176544189453125 -16.855249404907227 87.516357421875
v 2.6603500843048096 -16.084394454956055 91.11685180664062
v 2.130796194076538 -15.827444076538086 92.8720932006836
v 1.3570761680603027 -15.90357780456543 94.58232116699219
v 0.5675011277198792 -16.4079647064209 96.15753936767578
v -0.0032757690642029047 -17.273984909057617 97.73275756835938
v -0.19353435933589935 -18.320825576782227 99.26296997070312
v 0.041119229048490524 -19.32008171081543 100.79317474365234
v 0.5960424542427063 -20.052867889404297 102.41339874267578
v 1.109750747680664 -23.83100700378418 124.19638061523438
v 0.5326305627822876 -23.888107299804688 122.4411392211914
v 0.4406726360321045 -23.57405662536621 124.24138641357422
v 0.10771840810775757 -23.32662010192871 122.5311508178711
v 0.14894193410873413 -22.926916122436523 124.3313980102539
v -0.15230317413806915 -23.54550552368164 120.73090362548828
v -0.19986790418624878 -22.850784301757812 120.86592864990234
v -0.7072263956069946 -22.81271743774414 119.11068725585938
v -0.36158883571624756 -22.194129943847656 119.2457046508789
v -0.9323670268058777 -21.803945541381836 117.58047485351562
v -0.3045117259025574 -21.480377197265625 117.67048645019531
v -0.7357664704322815 -20.757104873657227 116.05026245117188
v -0.025465521961450577 -20.823720932006836 116.09526824951172
v -0.1586475670337677 -19.90060043334961 114.52005767822266
v 0.40895897150039673 -20.3288516998291 114.47505187988281
v 0.6372693777084351 -19.396215438842773 112.89983367919922
v 0.8846062421798706 -20.06238555908203 112.80982208251953
v 1.4268442392349243 -19.310564041137695 111.23460388183594
v 1.2682949304580688 -19.995769500732422 111.0995864868164
v 1.9722533226013184 -19.567516326904297 109.47936248779297
v 1.464895486831665 -20.06238555908203 109.34434509277344
v 2.1276309490203857 -19.995769500732422 107.67911529541016
v 1.4268428087234497 -20.12900161743164 107.58910369873047
v 1.8612674474716187 -20.33837127685547 105.87886810302734
v 1.1953603029251099 -20.081418991088867 105.87887573242188
v 0.8306974768638611 -19.748332977294922 107.67911529541016
v 0.900458574295044 -19.443798065185547 105.96888732910156
v 0.7514234781265259 -20.052867889404297 109.34434509277344
v 0.6658074855804443 -20.366920471191406 111.00957489013672
v 0.5833625197410583 -20.690488815307617 112.6748046875
v 0.5072594881057739 -21.023574829101562 114.34003448486328
v 0.440669447183609 -21.356658935546875 116.00525665283203
v 0.38042134046554565 -21.68974494934082 117.67048645019531
v 0.32651522755622864 -22.01331329345703 119.3357162475586
v 0.2726091146469116 -22.317848205566406 121.00094604492188
v 0.21236100792884827 -22.631900787353516 122.66616821289062
v 0.4026208817958832 -22.2797794342041 124.46641540527344
v 0.7894805669784546 -22.213163375854492 122.75618743896484
v 1.052673101425171 -21.994279861450195 124.55642700195312
v 0.986081063747406 -22.279781341552734 121.04595184326172
v 0.9511995315551758 -22.355915069580078 119.29071044921875
v 0.7197167873382568 -22.308332443237305 117.53546905517578
v 0.3835916221141815 -22.060895919799805 115.8702392578125
v 0.07600530236959457 -21.585060119628906 114.20500946044922
v -0.0857156291604042 -20.92840576171875 112.58479309082031
v -0.031809475272893906 -20.21465301513672 111.00957489013672
v 0.2472366839647293 -19.54848289489746 109.38935089111328
v 0.6816611886024475 -19.053613662719727 107.76913452148438
v 1.1573084592819214 -18.78714370727539 106.1039047241211
v 1.0716925859451294 -18.47309112548828 107.9041519165039
v 1.8073607683181763 -18.50164222717285 106.19391632080078
v 0.25357872247695923 -18.8442440032959 109.52437591552734
v -0.4123277962207794 -19.61509895324707 111.0995864868164
v -0.7357677817344666 -20.633386611938477 112.62979888916016
v -0.6311246752738953 -21.670711517333984 114.16000366210938
v -0.1586470901966095 -22.508182525634766 115.73522186279297
v 0.5136026740074158 -22.974502563476562 117.40045166015625
v 1.1478006839752197 -23.031600952148438 119.15569305419922
v 1.5219776630401611 -22.74610137939453 120.95594024658203
v 1.4934395551681519 -22.327363967895508 122.75618743896484
v 1.7217512130737305 -22.251230239868164 124.51142120361328
v 1.918351650238037 -22.888851165771484 122.66616821289062
v 2.013481855392456 -22.888851165771484 124.4214096069336
v 1.569542407989502 -23.45033836364746 120.8209228515625
v 0.8021630644798279 -23.64067268371582 119.02067565917969
v -0.11425266414880753 -23.307586669921875 117.31044006347656
v -0.8689480423927307 -22.451082229614258 115.73522186279297
v -1.201902151107788 -21.24245834350586 114.20501708984375
v -0.9799336791038513 -19.96721649169922 112.71981048583984
v -0.25694942474365234 -18.929895401000977 111.23460388183594
v 0.7609366178512573 -18.3588924407959 109.65939331054688
v 1.7693095207214355 -18.330341339111328 107.94915771484375
v 2.4764387607574463 -18.758594512939453 106.19391632080078
v 2.3686258792877197 -18.72052574157715 107.9041519165039
v 2.768169403076172 -19.396215438842773 106.05889892578125
v 1.474408507347107 -18.368408203125 109.65939331054688
v 0.3455379903316498 -18.55874252319336 111.32461547851562
v -0.6818609237670898 -19.32959747314453 112.85482788085938
v -1.30020272731781 -20.54773712158203 114.34003448486328
v -1.3350830078125 -21.908628463745117 115.82523345947266
v -0.7991856932640076 -23.09821891784668 117.3554458618164
v 0.11405899375677109 -23.831008911132812 118.97566986083984
v 1.0970654487609863 -23.973756790161133 120.73090362548828
v 1.813709020614624 -23.583572387695312 122.5311508178711
v 1.7598029375076294 -23.545503616333008 124.28639221191406
v 1.239760398864746 -24.002307891845703 122.4411392211914
v 1.109750747680664 -23.83100700378418 124.19638061523438
v 0.5326305627822876 -23.888107299804688 122.4411392211914
v 0.38359349966049194 -24.011825561523438 120.68589782714844
v -0.5106253027915955 -23.488405227661133 119.02067565917969
v -1.1384812593460083 -22.479633331298828 117.4454574584961
v -1.281176209449768 -21.21390724182129 115.96025085449219
v -0.8657774925231934 -19.986249923706055 114.47505187988281
v -0.009611818008124828 -19.1011962890625 112.94483947753906
v 1.0431549549102783 -18.72052574157715 111.32461547851562
v 1.9785953760147095 -18.872793197631836 109.6143798828125
v 2.517662286758423 -19.405731201171875 107.81414031982422
v 2.5144906044006348 -20.052867889404297 105.92388153076172
v 2.1276309490203857 -19.995769500732422 107.67911529541016
v 1.8612674474716187 -20.33837127685547 105.87886810302734
v 1.9722533226013184 -19.567516326904297 109.47936248779297
v 1.4268442392349243 -19.310564041137695 111.23460388183594
v 0.6372693777084351 -19.396215438842773 112.89983367919922
v -0.1586475670337677 -19.90060043334961 114.52005767822266
v -0.7357664704322815 -20.757104873657227 116.05026245117188
v -0.9323670268058777 -21.803945541381836 117.58047485351562
v -0.7072263956069946 -22.81271743774414 119.11068725585938
v -0.15230317413806915 -23.54550552368164 120.73090362548828
v 0.3740890622138977 -27.29509162902832 142.55889892578125
v -0.2093731164932251 -27.361709594726562 140.80364990234375
v -0.29498904943466187 -27.03814125061035 142.55889892578125
v -0.6342852711677551 -26.790706634521484 140.8936767578125
v -0.5867197513580322 -26.40052032470703 142.6939239501953
v -0.9006487727165222 -27.019107818603516 139.0934295654297
v -0.9450425505638123 -26.324386596679688 139.2284393310547
v -1.4555720090866089 -26.286319732666016 137.47320556640625
v -1.1099344491958618 -25.677249908447266 137.60821533203125
v -1.683883547782898 -25.287063598632812 135.9429931640625
v -1.0560282468795776 -24.9539794921875 136.0330047607422
v -1.490454077720642 -24.240224838256836 134.41278076171875
v -0.7769821286201477 -24.297325134277344 134.41278076171875
v -0.9133352041244507 -23.38372039794922 132.8375701904297
v -0.34572863578796387 -23.811973571777344 132.7925567626953
v -0.11741822212934494 -22.87933349609375 131.26234436035156
v 0.12674766778945923 -23.545503616333008 131.12733459472656
v 0.6658146977424622 -22.80320167541504 129.55210876464844
v 0.5104363560676575 -23.488405227661133 129.41709899902344
v 1.2143946886062622 -23.060152053833008 127.796875
v 0.7070368528366089 -23.555021286010742 127.70686340332031
v 1.3697723150253296 -23.4788875579834 125.99662780761719
v 0.6721553206443787 -23.621639251708984 125.95162200927734
v 1.109750747680664 -23.83100700378418 124.19638061523438
v 0.4406726360321045 -23.57405662536621 124.24138641357422
v 0.0728389099240303 -23.23145294189453 125.99662780761719
v 0.14894193410873413 -22.926916122436523 124.3313980102539
v -0.009606086649000645 -23.545503616333008 127.66185760498047
v -0.09205108135938644 -23.859556198120117 129.32708740234375
v -0.17132508754730225 -24.183124542236328 130.9923095703125
v -0.24742810428142548 -24.50669288635254 132.6575469970703
v -0.314018189907074 -24.839778900146484 134.32276916503906
v -0.3710952699184418 -25.163347244262695 135.9879913330078
v -0.421830415725708 -25.486915588378906 137.65322875976562
v -0.475736528635025 -25.800966262817383 139.31845092773438
v -0.5264716148376465 -26.095985412597656 141.0286865234375
v -0.3330407738685608 -25.743867874145508 142.8289337158203
v 0.04747690632939339 -25.686765670776367 141.1186981201172
v 0.31701144576072693 -25.458364486694336 142.8739471435547
v 0.23773540556430817 -25.75338363647461 139.36346435546875
v 0.20285387337207794 -25.829517364501953 137.60821533203125
v -0.03179978206753731 -25.78193473815918 135.89797973632812
v -0.3679249882698059 -25.534500122070312 134.187744140625
v -0.678682267665863 -25.068180084228516 132.56753540039062
v -0.8435741662979126 -24.411527633666992 130.9473114013672
v -0.789668083190918 -23.697771072387695 129.32708740234375
v -0.5106219053268433 -23.041118621826172 127.75186920166016
v -0.07619739323854446 -22.546249389648438 126.13164520263672
v 0.4026208817958832 -22.2797794342041 124.46641540527344
v 0.31383395195007324 -21.95621109008789 126.26666259765625
v 1.052673101425171 -21.994279861450195 124.55642700195312
v -0.5074508786201477 -22.336881637573242 127.88688659667969
v -1.173357367515564 -23.098217010498047 129.41709899902344
v -1.4904553890228271 -24.11650848388672 130.9473114013672
v -1.3858121633529663 -25.15382957458496 132.52252197265625
v -0.9101637005805969 -25.991300582885742 134.0977325439453
v -0.23791395127773285 -26.45762062072754 135.76296997070312
v 0.3994549810886383 -26.505205154418945 137.51820373535156
v 0.7768030762672424 -26.219703674316406 139.31845092773438
v 0.7546068429946899 -25.79145050048828 141.1186981201172
v 0.9860895872116089 -25.715314865112305 142.87393188476562
v 1.1795190572738647 -26.362455368041992 141.0286865234375
v 1.2778202295303345 -26.352935791015625 142.73892211914062
v 0.8211967945098877 -26.923940658569336 139.18344116210938
v 0.053817424923181534 -27.12379264831543 137.38319396972656
v -0.8657692670822144 -26.790708541870117 135.67295837402344
v -1.6236356496810913 -25.934202194213867 134.052734375
v -1.9565898180007935 -24.72557830810547 132.56753540039062
v -1.7377922534942627 -23.45033836364746 131.0823211669922
v -1.014807939529419 -22.413013458251953 129.55210876464844
v 0.003077981062233448 -21.842012405395508 127.97689819335938
v 1.0146219730377197 -21.82297706604004 126.3116683959961
v 1.7217512130737305 -22.251230239868164 124.51142120361328
v 1.613938331604004 -22.20364761352539 126.26666259765625
v 2.013481855392456 -22.888851165771484 124.4214096069336
v 0.7165499329566956 -21.85152816772461 128.02191162109375
v -0.4123205840587616 -22.04186248779297 129.6871337890625
v -1.4365485906600952 -22.82223129272461 131.21734619140625
v -2.0517191886901855 -24.03085708618164 132.70254516601562
v -2.086599588394165 -25.391748428344727 134.1427459716797
v -1.5507023334503174 -26.58133888244629 135.67295837402344
v -0.634286642074585 -27.304611206054688 137.29318237304688
v 0.35189077258110046 -27.44736099243164 139.0484161376953
v 1.0717054605484009 -27.057174682617188 140.89366149902344
v 1.0241413116455078 -27.009592056274414 142.60389709472656
v 0.49775683879852295 -27.466394424438477 140.80364990234375
v 0.3740890622138977 -27.29509162902832 142.55889892578125
v -0.2093731164932251 -27.361709594726562 140.80364990234375
v -0.36158114671707153 -27.494943618774414 139.00341796875
v -1.258970856666565 -26.96200942993164 137.3381805419922
v -1.8899977207183838 -25.953235626220703 135.80796813964844
v -2.0326926708221436 -24.6970272064209 134.27777099609375
v -1.6204650402069092 -23.469371795654297 132.7925567626953
v -0.7642994523048401 -22.584314346313477 131.26234436035156
v 0.28529641032218933 -22.20364761352539 129.6871337890625
v 1.217565655708313 -22.355915069580078 127.93189239501953
v 1.7598036527633667 -22.898366928100586 126.13164520263672
v 1.7598029375076294 -23.545503616333008 124.28639221191406
v 1.3697723150253296 -23.4788875579834 125.99662780761719
v 1.109750747680664 -23.83100700378418 124.19638061523438
v 1.2143946886062622 -23.060152053833008 127.796875
v 0.6658146977424622 -22.80320167541504 129.55210876464844
v -0.11741822212934494 -22.87933349609375 131.26234436035156
v -0.9133352041244507 -23.38372039794922 132.8375701904297
v -1.490454077720642 -24.240224838256836 134.41278076171875
v -1.683883547782898 -25.287063598632812 135.9429931640625
v -1.4555720090866089 -26.286319732666016 137.47320556640625
v -0.9006487727165222 -27.019107818603516 139.0934295654297
v -0.2727850079536438 -30.711593627929688 160.92141723632812
v -0.8689311146736145 -30.787729263305664 159.1211700439453
v -0.9418631196022034 -30.45464324951172 160.92141723632812
v -1.2938432693481445 -30.216724395751953 159.211181640625
v -1.2335937023162842 -29.81702423095703 161.05642700195312
v -1.5665487051010132 -30.45464324951172 157.4559326171875
v -1.6141135692596436 -29.75040626525879 157.59095764160156
v -2.134155750274658 -29.72185516357422 155.83572387695312
v -1.7885183095932007 -29.11278533935547 155.97073364257812
v -2.3719804286956787 -28.72260093688965 154.30551147460938
v -1.7409542798995972 -28.399032592773438 154.3505096435547
v -2.1848928928375244 -27.68527603149414 152.77529907226562
v -1.4745919704437256 -27.74237823486328 152.77529907226562
v -1.6204578876495361 -26.828771591186523 151.2000732421875
v -1.049680471420288 -27.25702476501465 151.1550750732422
v -0.8340539932250977 -26.33390235900879 149.57986450195312
v -0.5867170691490173 -27.000072479248047 149.48983764648438
v -0.05082102492451668 -26.257770538330078 147.9146270751953
v -0.20937038958072662 -26.942974090576172 147.7796173095703
v 0.49141693115234375 -26.514720916748047 146.15939331054688
v -0.01911189593374729 -27.009592056274414 146.0243682861328
v 0.6404526233673096 -26.942974090576172 144.35914611816406
v -0.05716439709067345 -27.085723876953125 144.3141326904297
v 0.3740890622138977 -27.29509162902832 142.55889892578125
v -0.29498904943466187 -27.03814125061035 142.55889892578125
v -0.6564807891845703 -26.695539474487305 144.35914611816406
v -0.5867197513580322 -26.40052032470703 142.6939239501953
v -0.73258376121521 -27.000072479248047 146.0243682861328
v -0.8118578195571899 -27.314125061035156 147.68960571289062
v -0.8879608511924744 -27.637693405151367 149.35482788085938
v -0.9513798952102661 -27.961261749267578 151.02005004882812
v -1.008457064628601 -28.28483009338379 152.68528747558594
v -1.0560210943222046 -28.6083984375 154.3505096435547
v -1.1004142761230469 -28.92245101928711 156.0157470703125
v -1.1416364908218384 -29.226985931396484 157.68096923828125
v -1.189200520515442 -29.522005081176758 159.34619140625
v -0.9799148440361023 -29.160369873046875 161.1464385986328
v -0.6120811104774475 -29.11278533935547 159.4362030029297
v -0.3266916275024414 -28.874868392944336 161.2364501953125
v -0.4281645715236664 -29.188919067382812 157.72598266601562
v -0.4757300615310669 -29.265052795410156 155.97073364257812
v -0.7167256474494934 -29.226985931396484 154.260498046875
v -1.0655348300933838 -28.97955322265625 152.55026245117188
v -1.3858050107955933 -28.513233184814453 150.88504028320312
v -1.5602099895477295 -27.86609649658203 149.2648162841797
v -1.509474754333496 -27.152339935302734 147.68960571289062
v -1.2335995435714722 -26.49568748474121 146.1143798828125
v -0.8055171370506287 -26.010334014892578 144.49415588378906
v -0.3330407738685608 -25.743867874145508 142.8289337158203
v -0.4154857397079468 -25.420299530029297 144.5841827392578
v 0.31701144576072693 -25.458364486694336 142.8739471435547
v -1.2304285764694214 -25.79145050048828 146.2043914794922
v -1.8899930715560913 -26.562305450439453 147.7796173095703
v -2.2070910930633545 -27.571077346801758 149.309814453125
v -2.092935085296631 -28.6083984375 150.84002685546875
v -1.6077735424041748 -29.436355590820312 152.4602508544922
v -0.9228398203849792 -29.893156051635742 154.12548828125
v -0.27912893891334534 -29.94074249267578 155.88072204589844
v 0.10773207992315292 -29.65523910522461 157.63597106933594
v 0.09187786281108856 -29.217470169067383 159.48121643066406
v 0.339215487241745 -29.131818771362305 161.1914520263672
v 0.5167900323867798 -29.78847312927246 159.39120483398438
v 0.6341171264648438 -29.769439697265625 161.1014404296875
v 0.15529684722423553 -30.349960327148438 157.5459442138672
v -0.62476646900177 -30.54981231689453 155.74571228027344
v -1.5538661479949951 -30.22624397277832 154.0354766845703
v -2.3180744647979736 -29.379253387451172 152.41525268554688
v -2.660541534423828 -28.180147171020508 150.93003845214844
v -2.4512569904327393 -26.9049072265625 149.44483947753906
v -1.7346147298812866 -25.877099990844727 147.9146270751953
v -0.7230706810951233 -25.30609703063965 146.33941650390625
v 0.2853022515773773 -25.27754783630371 144.62918090820312
v 0.9860895872116089 -25.715314865112305 142.87393188476562
v 0.8846186399459839 -25.66773223876953 144.58416748046875
v 1.2778202295303345 -26.352935791015625 142.73892211914062
v -0.006427827291190624 -25.315614700317383 146.33941650390625
v -1.132127285003662 -25.505949020385742 148.004638671875
v -2.153184413909912 -26.276803970336914 149.57986450195312
v -2.7588419914245605 -27.475910186767578 151.0650634765625
v -2.7842094898223877 -28.836801528930664 152.50526428222656
v -2.2387990951538086 -30.016874313354492 154.0354766845703
v -1.309699535369873 -30.74014663696289 155.6556854248047
v -0.31718015670776367 -30.882896423339844 157.4109344482422
v 0.4121474027633667 -30.48319435119629 159.2561798095703
v 0.37726718187332153 -30.42609405517578 160.96641540527344
v -0.16180117428302765 -30.892414093017578 159.1211700439453
v -0.2727850079536438 -30.711593627929688 160.92141723632812
v -0.8689311146736145 -30.787729263305664 159.1211700439453
v -1.0306521654129028 -30.920963287353516 157.3659210205078
v -1.9375548362731934 -30.397544860839844 155.70069885253906
v -2.574923515319824 -29.398286819458008 154.1704864501953
v -2.730302572250366 -28.142080307006836 152.64027404785156
v -2.327587842941284 -26.923940658569336 151.1550750732422
v -1.4809352159500122 -26.03888511657715 149.62486267089844
v -0.43451032042503357 -25.65821647644043 148.004638671875
v 0.4945879876613617 -25.81999969482422 146.29440307617188
v 1.0304839611053467 -26.352935791015625 144.49415588378906
v 1.0241413116455078 -27.009592056274414 142.60389709472656
v 0.6404526233673096 -26.942974090576172 144.35914611816406
v 0.3740890622138977 -27.29509162902832 142.55889892578125
v 0.49141693115234375 -26.514720916748047 146.15939331054688
v -0.05082102492451668 -26.257770538330078 147.9146270751953
v -0.8340539932250977 -26.33390235900879 149.57986450195312
v -1.6204578876495361 -26.828771591186523 151.2000732421875
v -2.1848928928375244 -27.68527603149414 152.77529907226562
v -2.3719804286956787 -28.72260093688965 154.30551147460938
v -2.134155750274658 -29.72185516357422 155.83572387695312
v -1.5665487051010132 -30.45464324951172 157.4559326171875
vn 0.0024211115669459105 -0.10605538636445999 0.014249617233872414
vn -0.07253953814506531 -0.07820477336645126 0.008870570920407772
vn -0.05284537747502327 -0.09170606732368469 0.015938101336359978
vn -0.10166548937559128 -0.028417492285370827 0.017698373645544052
vn -0.09169091284275055 -0.050107963383197784 0.023208359256386757
vn -0.09886489063501358 0.029318194836378098 0.028685107827186584
vn -0.10153231024742126 0.0058431122452020645 0.033372242003679276
vn -0.06455070525407791 0.0765896737575531 0.037734437733888626
vn -0.07898776978254318 0.05777847394347191 0.04335020110011101
vn -0.010187797248363495 0.09756527096033096 0.04282388836145401
vn -0.03167508542537689 0.08946514874696732 0.049490753561258316
vn 0.04796167090535164 0.08626271039247513 0.0414135605096817
vn 0.025800451636314392 0.09072741121053696 0.05059182643890381
vn 0.0898696556687355 0.04635077342391014 0.035095710307359695
vn 0.07451529800891876 0.06127609312534332 0.046361301094293594
vn 0.10377092659473419 -0.009574648924171925 0.024424968287348747
vn 0.09977177530527115 0.010971209965646267 0.03717370703816414
vn 0.08468171954154968 -0.06393122673034668 0.01408770028501749
vn 0.09333033114671707 -0.045082155615091324 0.026715314015746117
vn 0.038680046796798706 -0.0995674803853035 0.006843152455985546
vn 0.05746110528707504 -0.08842457085847855 0.01832965947687626
vn -0.019673971459269524 -0.1050637736916542 0.005585387349128723
vn 0.026628587394952774 -0.1026158332824707 0.014750165864825249
vn -0.048326730728149414 -0.09533771127462387 0.0056486111134290695
vn -0.08825322240591049 -0.059344321489334106 -0.012094590812921524
vn -0.10173828154802322 -0.032452553510665894 -0.007267216686159372
vn -0.10695606470108032 -0.0025719995610415936 -0.00323182949796319
vn -0.04120100662112236 -0.09697989374399185 -0.018815841525793076
vn 0.018148692324757576 -0.10373327136039734 -0.019149212166666985
vn 0.0725565031170845 -0.07756317406892776 -0.013272776268422604
vn 0.10349425673484802 -0.027062399312853813 -0.0036366034764796495
vn 0.10187940299510956 0.032006580382585526 0.007268100045621395
vn 0.06773200631141663 0.08132226765155792 0.01599133014678955
vn 0.011831140145659447 0.10459194332361221 0.01942186988890171
vn -0.04749099165201187 0.09447281807661057 0.016617830842733383
vn -0.0916372537612915 0.05459429696202278 0.008873296901583672
vn -0.07567081600427628 0.0746033564209938 -0.012842357158660889
vn -0.025138746947050095 0.10384755581617355 -0.006355099380016327
vn -0.001991031691431999 0.10611753165721893 -0.013847899623215199
vn 0.0330929271876812 0.10163693130016327 -0.005608155857771635
vn 0.08135553449392319 0.06870170682668686 -0.010863324627280235
vn 0.1038828194141388 0.015148606151342392 -0.02086956799030304
vn 0.09333530068397522 -0.04166191816329956 -0.03177206590771675
vn 0.05319303646683693 -0.08399545401334763 -0.03964749351143837
vn -0.0038404797669500113 -0.09794621169567108 -0.042993586510419846
vn -0.0592646598815918 -0.07947003096342087 -0.04035930335521698
vn -0.09588745981454849 -0.034672971814870834 -0.03255825489759445
vn -0.10220688581466675 0.022513147443532944 -0.022440357133746147
vn -0.09137190133333206 0.05338282510638237 -0.016065753996372223
vn -0.05748513713479042 0.08842457085847855 -0.01825414039194584
vn -0.023037416860461235 0.10361700505018234 -0.013764210976660252
vn -0.0934268906712532 0.04465755447745323 -0.027088334783911705
vn -0.09977177530527115 -0.010971209965646267 -0.03717370703816414
vn -0.07438712567090988 -0.06165896728634834 -0.04605851322412491
vn -0.025908594951033592 -0.09072741121053696 -0.05053652822971344
vn 0.03165287524461746 -0.08920755982398987 -0.049967654049396515
vn 0.07895666360855103 -0.05777847394347191 -0.04340682923793793
vn 0.10165774822235107 -0.0058431122452020645 -0.03298816457390785
vn 0.09169872105121613 0.050107963383197784 -0.02317747287452221
vn 0.05285622179508209 0.09170606732368469 -0.015902098268270493
vn 0.07275822013616562 0.07820477336645126 -0.006849340628832579
vn 0.10192946344614029 0.027966327965259552 -0.016879811882972717
vn 0.10695606470108032 0.0025719995610415936 0.00323182949796319
vn 0.0990525335073471 -0.029767706990242004 -0.027552474290132523
vn 0.06453033536672592 -0.07691564410924911 -0.03710091486573219
vn 0.010408598929643631 -0.098133884370327 -0.041449498385190964
vn -0.04796281084418297 -0.08681315928697586 -0.04024553671479225
vn -0.09034620225429535 -0.04677188768982887 -0.03326578065752983
vn -0.10408174246549606 0.009108752012252808 -0.023252559825778008
vn -0.08487522602081299 0.06393122673034668 -0.012870621867477894
vn -0.038878291845321655 0.0995674803853035 -0.005608305800706148
vn 0.019668858498334885 0.10515213012695312 -0.0035810042172670364
vn 0.05981706455349922 0.08868725597858429 -0.003626062534749508
vn 0.08819994330406189 0.059344321489334106 0.012477211654186249
vn 0.10511645674705505 0.017920926213264465 0.009275270625948906
vn 0.041862573474645615 0.09678106009960175 0.018374159932136536
vn -0.018512863665819168 0.10373327136039734 0.01879737339913845
vn -0.07248707860708237 0.07756317406892776 0.01364684198051691
vn -0.10350766032934189 0.027062399312853813 0.0032326802611351013
vn -0.10173828154802322 -0.032452553510665894 -0.007267216686159372
vn -0.06772514432668686 -0.08132226765155792 -0.016020355746150017
vn -0.012295102700591087 -0.10459194332361221 -0.019131528213620186
vn 0.04734128713607788 -0.09447281807661057 -0.017039628699421883
vn 0.09167420864105225 -0.05459429696202278 -0.008482949808239937
vn 0.07591839879751205 -0.0746033564209938 0.011286967433989048
vn 0.025396179407835007 -0.10384755581617355 0.005232391878962517
vn 0.0024211115669459105 -0.10605538636445999 0.014249617233872414
vn -0.05284537747502327 -0.09170606732368469 0.015938101336359978
vn -0.03321254625916481 -0.10163693130016327 0.004849761258810759
vn -0.0818060114979744 -0.0683424174785614 0.009682416915893555
vn -0.10425308346748352 -0.014685489237308502 0.019294803962111473
vn -0.09366978704929352 0.04209231585264206 0.030180564150214195
vn -0.053124282509088516 0.08457199484109879 0.03849736228585243
vn 0.0034160015638917685 0.09850358963012695 0.04173764958977699
vn 0.05938468500971794 0.07978256046772003 0.03955831751227379
vn 0.09615720808506012 0.034672971814870834 0.03175272047519684
vn 0.10245449841022491 -0.022513147443532944 0.021281272172927856
vn 0.08734907954931259 -0.059732966125011444 0.016086343675851822
vn 0.05746110528707504 -0.08842457085847855 0.01832965947687626
vn 0.026628587394952774 -0.1026158332824707 0.014750165864825249
vn 0.09333033114671707 -0.045082155615091324 0.026715314015746117
vn 0.09977177530527115 0.010971209965646267 0.03717370703816414
vn 0.07451529800891876 0.06127609312534332 0.046361301094293594
vn 0.025800451636314392 0.09072741121053696 0.05059182643890381
vn -0.03167508542537689 0.08946514874696732 0.049490753561258316
vn -0.07898776978254318 0.05777847394347191 0.04335020110011101
vn -0.10153231024742126 0.0058431122452020645 0.033372242003679276
vn -0.09169091284275055 -0.050107963383197784 0.023208359256386757
vn 0.0014139085542410612 -0.10617764294147491 0.013452400453388691
vn -0.05370228365063667 -0.09146401286125183 0.01438951212912798
vn -0.07271801680326462 -0.07820477336645126 0.007263673935085535
vn -0.10217799991369247 -0.027966327965259552 0.01530357077717781
vn -0.1069052517414093 -0.0021044304594397545 -0.004847306292504072
vn -0.09248115122318268 -0.04969421774148941 0.020841797813773155
vn -0.09937918931245804 0.029767706990242004 0.026349952444434166
vn -0.10226310789585114 0.0058431122452020645 0.031060801818966866
vn -0.06534302979707718 0.07626223564147949 0.0370272621512413
vn -0.08003266155719757 0.05738423019647598 0.041934262961149216
vn -0.010951624251902103 0.09737200289964676 0.043074507266283035
vn -0.03288266807794571 0.08920755982398987 0.049167074263095856
vn 0.04709108546376228 0.08598500490188599 0.042961228638887405
vn 0.024552851915359497 0.09047839790582657 0.0516476072371006
vn 0.089321568608284 0.045928776264190674 0.03699816018342972
vn 0.07395397871732712 0.06089204549789429 0.04774542897939682
vn 0.10314730554819107 -0.010040362365543842 0.026767199859023094
vn 0.09923984110355377 0.010505888611078262 0.03870062902569771
vn 0.08411720395088196 -0.06430570781230927 0.015675820410251617
vn 0.09266126900911331 -0.04550589993596077 0.028280045837163925
vn 0.037719666957855225 -0.09990695118904114 0.007244869600981474
vn 0.05664972588419914 -0.08894824981689453 0.018321456387639046
vn -0.02034667134284973 -0.10497341305017471 0.004822265822440386
vn 0.0024211115669459105 -0.10605538636445999 0.014249617233872414
vn -0.07253953814506531 -0.07820477336645126 0.008870570920407772
vn -0.08828052878379822 -0.05895454064011574 -0.0136956088244915
vn -0.10695606470108032 -0.0025719995610415936 -0.00323182949796319
vn -0.04131456837058067 -0.09678106009960175 -0.019575271755456924
vn 0.018148692324757576 -0.10373327136039734 -0.019149212166666985
vn 0.07241953909397125 -0.0778847187757492 -0.01208470668643713
vn 0.1034262552857399 -0.0275146272033453 -0.0016167029971256852
vn 0.10167816281318665 0.032006580382585526 0.009684441611170769
vn 0.06760866940021515 0.08101741224527359 0.017941724509000778
vn 0.012058581225574017 0.10438921302556992 0.020350463688373566
vn -0.04732000455260277 0.09469175338745117 0.015841329470276833
vn -0.09159961342811584 0.05499604716897011 0.006450239568948746
vn -0.07519794255495071 0.07493800669908524 -0.013646389357745647
vn -0.02466721460223198 0.10395986586809158 -0.006366679910570383
vn -0.0013875745935365558 0.10617764294147491 -0.013455142267048359
vn 0.03377161920070648 0.10148930549621582 -0.0040072668343782425
vn 0.08185417950153351 0.0683424174785614 -0.009266320616006851
vn 0.10447071492671967 0.014685489237308502 -0.01807941123843193
vn 0.09408880770206451 -0.04166191816329956 -0.02946590632200241
vn 0.05434713140130043 -0.08370477706193924 -0.038685392588377
vn -0.0028342455625534058 -0.09775667637586594 -0.04350009188055992
vn -0.05875997617840767 -0.07915598154067993 -0.04169238731265068
vn -0.09551199525594711 -0.034230176359415054 -0.034094177186489105
vn -0.10174474120140076 0.022970151156187057 -0.02402164600789547
vn -0.07567081600427628 0.0746033564209938 -0.012842357158660889
vn -0.05642212554812431 0.08894824981689453 -0.019010810181498528
vn -0.001991031691431999 0.10611753165721893 -0.013847899623215199
vn -0.09278924763202667 0.04550589993596077 -0.02785727009177208
vn -0.09923984110355377 -0.010505888611078262 -0.03870062902569771
vn -0.07369358092546463 -0.06089204549789429 -0.04814637452363968
vn -0.024290336295962334 -0.09047839790582657 -0.051771584898233414
vn 0.03233388811349869 -0.08920755982398987 -0.04952969402074814
vn 0.08000380545854568 -0.05738423019647598 -0.0419892743229866
vn 0.10237980633974075 -0.0058431122452020645 -0.030673973262310028
vn 0.0924874022603035 0.04969421774148941 -0.020814020186662674
vn 0.05381372570991516 0.09146401286125183 -0.013966971077024937
vn 0.07282941043376923 0.07820477336645126 -0.006045506335794926
vn 0.10229715704917908 0.027966327965259552 -0.014485685154795647
vn 0.1069052517414093 0.0021044304594397545 0.004847306292504072
vn 0.09967491030693054 -0.029767706990242004 -0.025208232924342155
vn 0.06532163918018341 -0.07691564410924911 -0.03568929433822632
vn 0.010616962797939777 -0.09794621169567108 -0.041838712990283966
vn -0.04683755710721016 -0.08653876185417175 -0.04211822897195816
vn -0.0897042453289032 -0.04635077342391014 -0.03551637753844261
vn -0.1034865453839302 0.009574648924171925 -0.025603121146559715
vn -0.0843346044421196 0.06430570781230927 -0.014460591599345207
vn -0.03843677043914795 0.09973817318677902 -0.005618843249976635
vn 0.020199650898575783 0.1050637811422348 -0.0031993265729397535
vn 0.07275822013616562 0.07820477336645126 -0.006849340628832579
vn 0.08822083473205566 0.05895454064011574 0.01407498400658369
vn 0.10695606470108032 0.0025719995610415936 0.00323182949796319
vn 0.0415327213704586 0.09678106009960175 0.019108057022094727
vn -0.018512863665819168 0.10373327136039734 0.01879737339913845
vn -0.07242651283740997 0.0778847187757492 0.012042836286127567
vn -0.10342628508806229 0.0275146272033453 0.0016146948328241706
vn -0.10167816281318665 -0.032006580382585526 -0.009684441611170769
vn -0.06769454479217529 -0.08101741224527359 -0.017614951357245445
vn -0.012177345342934132 -0.10438921302556992 -0.020279621705412865
vn 0.04716269671916962 -0.09469175338745117 -0.016303695738315582
vn 0.09159897267818451 -0.05499604716897011 -0.006459258962422609
vn 0.07546614110469818 -0.07493800669908524 0.012075412087142467
vn 0.025015220046043396 -0.10395986586809158 0.004821286536753178
vn 0.0014139085542410612 -0.10617764294147491 0.013452400453388691
vn -0.05370228365063667 -0.09146401286125183 0.01438951212912798
vn -0.03385453671216965 -0.10148930549621582 0.00323273753747344
vn -0.08235432952642441 -0.06798183172941208 0.0072727929800748825
vn -0.10466714948415756 -0.014685490168631077 0.016905102878808975
vn -0.09415227919816971 0.04209231585264206 0.0286399032920599
vn -0.054031167179346085 0.08428452908992767 0.03786040470004082
vn 0.0028172763995826244 0.09831967204809189 0.04221329838037491
vn 0.05885038152337074 0.07947003096342087 0.04096103087067604
vn 0.09592674672603607 0.034230176359415054 0.032909177243709564
vn 0.10218983888626099 -0.022970151156187057 0.022051477804780006
vn 0.07591839879751205 -0.0746033564209938 0.011286967433989048
vn 0.05664972588419914 -0.08894824981689453 0.018321456387639046
vn 0.0024211115669459105 -0.10605538636445999 0.014249617233872414
vn 0.09266126900911331 -0.04550589993596077 0.028280045837163925
vn 0.09923984110355377 0.010505888611078262 0.03870062902569771
vn 0.07395397871732712 0.06089204549789429 0.04774542897939682
vn 0.024552851915359497 0.09047839790582657 0.0516476072371006
vn -0.03288266807794571 0.08920755982398987 0.049167074263095856
vn -0.08003266155719757 0.05738423019647598 0.041934262961149216
vn -0.10226310789585114 0.0058431122452020645 0.031060801818966866
vn -0.09248115122318268 -0.04969421774148941 0.020841797813773155
vn 0.0016241793055087328 -0.10611753165721893 0.013895702548325062
vn -0.05370228365063667 -0.09146401286125183 0.01438951212912798
vn -0.07271801680326462 -0.07820477336645126 0.007263673935085535
vn -0.10217799991369247 -0.027966327965259552 0.01530357077717781
vn -0.1069052517414093 -0.0021044304594397545 -0.004847306292504072
vn -0.09248115122318268 -0.04969421774148941 0.020841797813773155
vn -0.09937918931245804 0.029767706990242004 0.026349952444434166
vn -0.10249503701925278 0.0058431122452020645 0.03028671257197857
vn -0.06534302979707718 0.07626223564147949 0.0370272621512413
vn -0.08012473583221436 0.05777847394347191 0.0412108413875103
vn -0.010951624251902103 0.09737200289964676 0.043074507266283035
vn -0.03288266807794571 0.08920755982398987 0.049167074263095856
vn 0.046544209122657776 0.08598500490188599 0.04355311393737793
vn 0.024750087410211563 0.09022766351699829 0.05199095979332924
vn 0.08900932222604752 0.045928776264190674 0.03774316981434822
vn 0.07351292669773102 0.06089204549789429 0.04842175543308258
vn 0.10299327224493027 -0.01050588395446539 0.027178511023521423
vn 0.09885295480489731 0.010040367022156715 0.0397987924516201
vn 0.0836792066693306 -0.06467895954847336 0.016464537009596825
vn 0.09242207556962967 -0.04550589993596077 0.029052238911390305
vn 0.037719666957855225 -0.09990695118904114 0.007244869600981474
vn 0.05611538141965866 -0.08920755237340927 0.0187012180685997
vn -0.020987242460250854 -0.10488104820251465 0.0040200152434408665
vn 0.0014139085542410612 -0.10617764294147491 0.013452400453388691
vn -0.07271801680326462 -0.07820477336645126 0.007263673935085535
vn -0.0881529152393341 -0.05895454064011574 -0.014494291506707668
vn -0.1069052517414093 -0.0021044304594397545 -0.004847306292504072
vn -0.04141885042190552 -0.0965803787112236 -0.02033143676817417
vn 0.018148692324757576 -0.10373327136039734 -0.019149212166666985
vn 0.07241953909397125 -0.0778847187757492 -0.01208470668643713
vn 0.10343573242425919 -0.0275146272033453 -0.0008083952707238495
vn 0.1015983447432518 0.032006580382585526 0.010488742962479591
vn 0.06760866940021515 0.08101741224527359 0.017941724509000778
vn 0.012058581225574017 0.10438921302556992 0.020350463688373566
vn -0.04732000455260277 0.09469175338745117 0.015841329470276833
vn -0.09159961342811584 0.05499604716897011 0.006450239568948746
vn -0.07519794255495071 0.07493800669908524 -0.013646389357745647
vn -0.02466721460223198 0.10395986586809158 -0.006366679910570383
vn -0.001991031691431999 0.10611753165721893 -0.013847899623215199
vn 0.03377161920070648 0.10148930549621582 -0.0040072668343782425
vn 0.08194108307361603 0.0683424174785614 -0.008463540114462376
vn 0.10447071492671967 0.014685489237308502 -0.01807941123843193
vn 0.09408880770206451 -0.04166191816329956 -0.02946590632200241
vn 0.05434713140130043 -0.08370477706193924 -0.038685392588377
vn -0.002828562632203102 -0.09756527096033096 -0.04392807558178902
vn -0.05828850343823433 -0.07915598154067993 -0.04234903305768967
vn -0.09511151164770126 -0.03378672897815704 -0.03562185540795326
vn -0.10145026445388794 0.023426715284585953 -0.024813126772642136
vn -0.07519794255495071 0.07493800669908524 -0.013646389357745647
vn -0.05601321533322334 0.08920755237340927 -0.01900503784418106
vn -0.0013875745935365558 0.10617764294147491 -0.013455142267048359
vn -0.09255389124155045 0.04550589993596077 -0.028629520907998085
vn -0.09870141744613647 -0.010040367022156715 -0.04017312452197075
vn -0.07369358092546463 -0.06089204549789429 -0.04814637452363968
vn -0.02412085048854351 -0.09022766351699829 -0.05228586122393608
vn 0.033008843660354614 -0.08920755982398987 -0.049082450568675995
vn 0.08009675145149231 -0.05777847394347191 -0.04126520827412605
vn 0.10237980633974075 -0.0058431122452020645 -0.030673973262310028
vn 0.0924874022603035 0.04969421774148941 -0.020814020186662674
vn 0.05381372570991516 0.09146401286125183 -0.013966971077024937
vn 0.07282941043376923 0.07820477336645126 -0.006045506335794926
vn 0.10229715704917908 0.027966327965259552 -0.014485685154795647
vn 0.1069052517414093 0.0021044304594397545 0.004847306292504072
vn 0.09967491030693054 -0.029767706990242004 -0.025208232924342155
vn 0.06532163918018341 -0.07691564410924911 -0.03568929433822632
vn 0.010616962797939777 -0.09794621169567108 -0.041838712990283966
vn -0.04683755710721016 -0.08653876185417175 -0.04211822897195816
vn -0.08940355479717255 -0.04635077342391014 -0.03626662865281105
vn -0.10324800759553909 0.010040362365543842 -0.026376118883490562
vn -0.0843346044421196 0.06430570781230927 -0.014460591599345207
vn -0.03787124902009964 0.09990695118904114 -0.006405435036867857
vn 0.020665252581238747 0.10497341305017471 -0.0031919602770358324
vn 0.07282941043376923 0.07820477336645126 -0.006045506335794926
vn 0.08808998763561249 0.05895454064011574 0.014871961437165737
vn 0.1069052517414093 0.0021044304594397545 0.004847306292504072
vn 0.04147025942802429 0.0965803787112236 0.0202263705432415
vn -0.018512863665819168 0.10373327136039734 0.01879737339913845
vn -0.07242651283740997 0.0778847187757492 0.012042836286127567
vn -0.10343573987483978 0.0275146272033453 0.0008073911885730922
vn -0.1015983447432518 -0.032006580382585526 -0.010488742962479591
vn -0.06748618930578232 -0.08101741224527359 -0.01839706487953663
vn -0.012177345342934132 -0.10438921302556992 -0.020279621705412865
vn 0.04716269671916962 -0.09469175338745117 -0.016303695738315582
vn 0.09159897267818451 -0.05499604716897011 -0.006459258962422609
vn 0.07533419132232666 -0.07493800669908524 0.012872983701527119
vn 0.025015220046043396 -0.10395986586809158 0.004821286536753178
vn 0.0016241793055087328 -0.10611753165721893 0.013895702548325062
vn -0.05370228365063667 -0.09146401286125183 0.01438951212912798
vn -0.03385453671216965 -0.10148930549621582 0.00323273753747344
vn -0.08235432952642441 -0.06798183172941208 0.0072727929800748825
vn -0.10466714948415756 -0.014685490168631077 0.016905102878808975
vn -0.09418581426143646 0.04252191260457039 0.02788510173559189
vn -0.054031167179346085 0.08428452908992767 0.03786040470004082
vn 0.0030213764403015375 0.098133884370327 0.042629461735486984
vn 0.05885038152337074 0.07947003096342087 0.04096103087067604
vn 0.0953904539346695 0.034230176359415054 0.03443276137113571
vn 0.10182210803031921 -0.023426715284585953 0.023240189999341965
vn 0.07546614110469818 -0.07493800669908524 0.012075412087142467
vn 0.05611538141965866 -0.08920755237340927 0.0187012180685997
vn 0.0014139085542410612 -0.10617764294147491 0.013452400453388691
vn 0.09242207556962967 -0.04550589993596077 0.029052238911390305
vn 0.09885295480489731 0.010040367022156715 0.0397987924516201
vn 0.07351292669773102 0.06089204549789429 0.04842175543308258
vn 0.024750087410211563 0.09022766351699829 0.05199095979332924
vn -0.03288266807794571 0.08920755982398987 0.049167074263095856
vn -0.08012473583221436 0.05777847394347191 0.0412108413875103
vn -0.10249503701925278 0.0058431122452020645 0.03028671257197857
vn -0.09248115122318268 -0.04969421774148941 0.020841797813773155
vn 0.0016241793055087328 -0.10611753165721893 0.013895702548325062
vn -0.05370228365063667 -0.09146401286125183 0.01438951212912798
vn -0.07271801680326462 -0.07820477336645126 0.007263673935085535
vn -0.1020551323890686 -0.027966327965259552 0.01610260084271431
vn -0.10689505189657211 -0.0025719995610415936 -0.004846843890845776
vn -0.09248115122318268 -0.04969421774148941 0.020841797813773155
vn -0.09937918931245804 0.029767706990242004 0.026349952444434166
vn -0.10226310789585114 0.0058431122452020645 0.031060801818966866
vn -0.06495431065559387 0.0765896737575531 0.037035372108221054
vn -0.08012473583221436 0.05777847394347191 0.0412108413875103
vn -0.010951624251902103 0.09737200289964676 0.043074507266283035
vn -0.03288266807794571 0.08920755982398987 0.049167074263095856
vn 0.04709108546376228 0.08598500490188599 0.042961228638887405
vn 0.024552851915359497 0.09047839790582657 0.0516476072371006
vn 0.089321568608284 0.045928776264190674 0.03699816018342972
vn 0.07351292669773102 0.06089204549789429 0.04842175543308258
vn 0.10299327224493027 -0.01050588395446539 0.027178511023521423
vn 0.09885295480489731 0.010040367022156715 0.0397987924516201
vn 0.0836792066693306 -0.06467895954847336 0.016464537009596825
vn 0.09242207556962967 -0.04550589993596077 0.029052238911390305
vn 0.037719666957855225 -0.09990695118904114 0.007244869600981474
vn 0.055854134261608124 -0.08920755237340927 0.01946759782731533
vn -0.020987242460250854 -0.10488104820251465 0.0040200152434408665
vn 0.0016241793055087328 -0.10611753165721893 0.013895702548325062
vn -0.07271801680326462 -0.07820477336645126 0.007263673935085535
vn -0.0881529152393341 -0.05895454064011574 -0.014494291506707668
vn -0.1069052517414093 -0.0021044304594397545 -0.004847306292504072
vn -0.04141885042190552 -0.0965803787112236 -0.02033143676817417
vn 0.018148692324757576 -0.10373327136039734 -0.019149212166666985
vn 0.07241953909397125 -0.0778847187757492 -0.01208470668643713
vn 0.10343573242425919 -0.0275146272033453 -0.0008083952707238495
vn 0.10167816281318665 0.032006580382585526 0.009684441611170769
vn 0.06760866940021515 0.08101741224527359 0.017941724509000778
vn 0.012058581225574017 0.10438921302556992 0.020350463688373566
vn -0.04732000455260277 0.09469175338745117 0.015841329470276833
vn -0.09159961342811584 0.05499604716897011 0.006450239568948746
vn -0.07519794255495071 0.07493800669908524 -0.013646389357745647
vn -0.025138746947050095 0.10384755581617355 -0.006355099380016327
vn -0.001991031691431999 0.10611753165721893 -0.013847899623215199
vn 0.03366754949092865 0.10148930549621582 -0.004803793970495462
vn 0.08185417950153351 0.0683424174785614 -0.009266320616006851
vn 0.10447071492671967 0.014685489237308502 -0.01807941123843193
vn 0.09408880770206451 -0.04166191816329956 -0.02946590632200241
vn 0.05434713140130043 -0.08370477706193924 -0.038685392588377
vn -0.0028342455625534058 -0.09775667637586594 -0.04350009188055992
vn -0.05828850343823433 -0.07915598154067993 -0.04234903305768967
vn -0.09511151164770126 -0.03378672897815704 -0.03562185540795326
vn -0.10145026445388794 0.023426715284585953 -0.024813126772642136
vn -0.07519794255495071 0.07493800669908524 -0.013646389357745647
vn -0.05642212554812431 0.08894824981689453 -0.019010810181498528
vn -0.001991031691431999 0.10611753165721893 -0.013847899623215199
vn -0.09255389124155045 0.04550589993596077 -0.028629520907998085
vn -0.09900306165218353 -0.010040367022156715 -0.03942389413714409
vn -0.07369358092546463 -0.06089204549789429 -0.04814637452363968
vn -0.024290336295962334 -0.09047839790582657 -0.051771584898233414
vn 0.033008843660354614 -0.08920755982398987 -0.049082450568675995
vn 0.08009675145149231 -0.05777847394347191 -0.04126520827412605
vn 0.10237980633974075 -0.0058431122452020645 -0.030673973262310028
vn 0.0924874022603035 0.04969421774148941 -0.020814020186662674
vn 0.05360539257526398 0.09146401286125183 -0.014746354892849922
vn 0.07282941043376923 0.07820477336645126 -0.006045506335794926
vn 0.10229715704917908 0.027966327965259552 -0.014485685154795647
vn 0.10689505189657211 0.0025719995610415936 0.004846843890845776
vn 0.09967491030693054 -0.029767706990242004 -0.025208232924342155
vn 0.06532163918018341 -0.07691564410924911 -0.03568929433822632
vn 0.010616962797939777 -0.09794621169567108 -0.041838712990283966
vn -0.04683755710721016 -0.08653876185417175 -0.04211822897195816
vn -0.08940355479717255 -0.04635077342391014 -0.03626662865281105
vn -0.10344494134187698 0.010040362365543842 -0.025592830032110214
vn -0.0843346044421196 0.06430570781230927 -0.014460591599345207
vn -0.03787124902009964 0.09990695118904114 -0.006405435036867857
vn 0.020665252581238747 0.10497341305017471 -0.0031919602770358324
vn 0.07282941043376923 0.07820477336645126 -0.006045506335794926
vn 0.08808998763561249 0.05895454064011574 0.014871961437165737
vn 0.1069052517414093 0.0021044304594397545 0.004847306292504072
vn 0.04147025942802429 0.0965803787112236 0.0202263705432415
vn -0.018512863665819168 0.10373327136039734 0.01879737339913845
vn -0.07242651283740997 0.0778847187757492 0.012042836286127567
vn -0.10343573987483978 0.0275146272033453 0.0008073911885730922
vn -0.10167816281318665 -0.032006580382585526 -0.009684441611170769
vn -0.06769454479217529 -0.08101741224527359 -0.017614951357245445
vn -0.012177345342934132 -0.10438921302556992 -0.020279621705412865
vn 0.04716269671916962 -0.09469175338745117 -0.016303695738315582
vn 0.09159897267818451 -0.05499604716897011 -0.006459258962422609
vn 0.07533419132232666 -0.07493800669908524 0.012872983701527119
vn 0.025015220046043396 -0.10395986586809158 0.004821286536753178
vn 0.0016241793055087328 -0.10611753165721893 0.013895702548325062
vn -0.05370228365063667 -0.09146401286125183 0.01438951212912798
vn -0.03385453671216965 -0.10148930549621582 0.00323273753747344
vn -0.08235432952642441 -0.06798183172941208 0.0072727929800748825
vn -0.10473278164863586 -0.014222091995179653 0.01689484529197216
vn -0.09418581426143646 0.04252191260457039 0.02788510173559189
vn -0.054031167179346085 0.08428452908992767 0.03786040470004082
vn 0.0028172763995826244 0.09831967204809189 0.04221329838037491
vn 0.05885038152337074 0.07947003096342087 0.04096103087067604
vn 0.0953904539346695 0.034230176359415054 0.03443276137113571
vn 0.10182210803031921 -0.023426715284585953 0.023240189999341965
vn 0.07533419132232666 -0.07493800669908524 0.012872983701527119
vn 0.055854134261608124 -0.08920755237340927 0.01946759782731533
vn 0.0016241793055087328 -0.10611753165721893 0.013895702548325062
vn 0.09242207556962967 -0.04550589993596077 0.029052238911390305
vn 0.09885295480489731 0.010040367022156715 0.0397987924516201
vn 0.07351292669773102 0.06089204549789429 0.04842175543308258
vn 0.024552851915359497 0.09047839790582657 0.0516476072371006
vn -0.03288266807794571 0.08920755982398987 0.049167074263095856
vn -0.08012473583221436 0.05777847394347191 0.0412108413875103
vn -0.10226310789585114 0.0058431122452020645 0.031060801818966866
vn -0.09248115122318268 -0.04969421774148941 0.020841797813773155
vn -0.018680505454540253 -0.10459193587303162 0.012970124371349812
vn -0.053487323224544525 -0.09146401286125183 0.015169031918048859
vn -0.08939116448163986 -0.05777847021818161 0.011292770504951477
vn -0.10192601382732391 -0.027966327965259552 0.016900643706321716
vn -0.10342628508806229 0.0275146272033453 0.0016146948328241706
vn -0.09230010956525803 -0.04969421774148941 0.021629467606544495
vn -0.09916916489601135 0.029767706990242004 0.027129653841257095
vn -0.10226310789585114 0.0058431122452020645 0.031060801818966866
vn -0.06495431065559387 0.0765896737575531 0.037035372108221054
vn -0.07975214719772339 0.05777847394347191 0.04192734882235527
vn -0.010970505885779858 0.09756527096033096 0.042630091309547424
vn -0.03288266807794571 0.08920755982398987 0.049167074263095856
vn 0.046892788261175156 0.08626271039247513 0.04262007772922516
vn 0.024552851915359497 0.09047839790582657 0.0516476072371006
vn 0.089321568608284 0.045928776264190674 0.03699816018342972
vn 0.07364973425865173 0.06127609312534332 0.047724366188049316
vn 0.10314730554819107 -0.010040362365543842 0.026767199859023094
vn 0.0989433154463768 0.010505888611078262 0.03945257514715195
vn 0.08383148163557053 -0.06467895954847336 0.015670789405703545
vn 0.09242207556962967 -0.04550589993596077 0.029052238911390305
vn 0.037719666957855225 -0.09990695118904114 0.007244869600981474
vn 0.05639532208442688 -0.08894824981689453 0.01909017004072666
vn -0.02082008868455887 -0.10488104820251465 0.004811324644833803
vn 0.0016241793055087328 -0.10611753165721893 0.013895702548325062
vn -0.07271801680326462 -0.07820477336645126 0.007263673935085535
vn -0.0881529152393341 -0.05895454064011574 -0.014494291506707668
vn -0.10689505189657211 -0.0025719995610415936 -0.004846843890845776
vn -0.04176928475499153 -0.0965803787112236 -0.019601410254836082
vn 0.018148692324757576 -0.10373327136039734 -0.019149212166666985
vn 0.07241953909397125 -0.0778847187757492 -0.01208470668643713
vn 0.10355103015899658 -0.027062399312853813 -0.0012124482309445739
vn 0.10167816281318665 0.032006580382585526 0.009684441611170769
vn 0.067811019718647 0.08101741224527359 0.01716110296547413
vn 0.011829675175249577 0.10449156910181046 0.01995566114783287
vn -0.04732000455260277 0.09469175338745117 0.015841329470276833
vn -0.09177886694669724 0.05459429696202278 0.007263705600053072
vn -0.05298114940524101 0.092656709253788 -0.008024398237466812
vn -0.025138746947050095 0.10384755581617355 -0.006355099380016327
vn 0.02168465405702591 0.10395985841751099 -0.013370937667787075
vn 0.03366754949092865 0.10148930549621582 -0.004803793970495462
vn 0.08185417950153351 0.0683424174785614 -0.009266320616006851
vn 0.10432999581098557 0.014685489237308502 -0.018874527886509895
vn 0.09408880770206451 -0.04166191816329956 -0.02946590632200241
vn 0.05414453521370888 -0.08399545401334763 -0.03833787143230438
vn -0.0028342455625534058 -0.09775667637586594 -0.04350009188055992
vn -0.05828850343823433 -0.07915598154067993 -0.04234903305768967
vn -0.09523710608482361 -0.034230176359415054 -0.03485465794801712
vn -0.10145026445388794 0.023426715284585953 -0.024813126772642136
vn -0.07519794255495071 0.07493800669908524 -0.013646389357745647
vn -0.05642212554812431 0.08894824981689453 -0.019010810181498528
vn -0.001991031691431999 0.10611753165721893 -0.013847899623215199
vn -0.09255389124155045 0.04550589993596077 -0.028629520907998085
vn -0.0989433154463768 -0.010505888611078262 -0.03945257514715195
vn -0.0738288164138794 -0.06127609312534332 -0.04744685813784599
vn -0.02502051554620266 -0.09047839790582657 -0.05142267048358917
vn 0.033008843660354614 -0.08920755982398987 -0.049082450568675995
vn 0.07972313463687897 -0.05777847394347191 -0.04198248311877251
vn 0.10214495658874512 -0.0058431122452020645 -0.03144718334078789
vn 0.09230684489011765 0.04969421774148941 -0.02160067670047283
vn 0.05338577553629875 0.09146401286125183 -0.01552263367921114
vn 0.08471003919839859 0.06430570781230927 -0.012068293057382107
vn 0.1021808311343193 0.027966327965259552 -0.015284677036106586
vn 0.10625693202018738 -0.01236587855964899 -0.0036342788953334093
vn 0.09947359561920166 -0.029767706990242004 -0.025991268455982208
vn 0.06532163918018341 -0.07691564410924911 -0.03568929433822632
vn 0.010408598929643631 -0.098133884370327 -0.041449498385190964
vn -0.046906277537345886 -0.08681315928697586 -0.04147210717201233
vn -0.08947931230068207 -0.04677188768982887 -0.035531699657440186
vn -0.1034865453839302 0.009574648924171925 -0.025603121146559715
vn -0.0843346044421196 0.06430570781230927 -0.014460591599345207
vn -0.03787124902009964 0.09990695118904114 -0.006405435036867857
vn 0.020665252581238747 0.10497341305017471 -0.0031919602770358324
vn 0.07282941043376923 0.07820477336645126 -0.006045506335794926
vn 0.08822083473205566 0.05895454064011574 0.01407498400658369
vn 0.10689505189657211 0.0025719995610415936 0.004846843890845776
vn 0.041816942393779755 0.0965803787112236 0.019499534741044044
vn -0.018512863665819168 0.10373327136039734 0.01879737339913845
vn -0.07242651283740997 0.0778847187757492 0.012042836286127567
vn -0.10354550182819366 0.027062399312853813 0.0016165561974048615
vn -0.10167816281318665 -0.032006580382585526 -0.009684441611170769
vn -0.06769454479217529 -0.08101741224527359 -0.017614951357245445
vn -0.012293334119021893 -0.10449156910181046 -0.0196734219789505
vn 0.0474211722612381 -0.09469175338745117 -0.015535866841673851
vn 0.09153858572244644 -0.05499604716897011 -0.007265067659318447
vn 0.0637056976556778 -0.08570566028356552 0.007265114225447178
vn 0.024849656969308853 -0.10395986586809158 0.005612540058791637
vn -0.018680505454540253 -0.10459193587303162 0.012970124371349812
vn -0.053487323224544525 -0.09146401286125183 0.015169031918048859
vn -0.03376802057027817 -0.10148930549621582 0.0040374817326664925
vn -0.08227920532226562 -0.06798183172941208 0.00807842519134283
vn -0.10453520715236664 -0.014685490168631077 0.01770271360874176
vn -0.09395329654216766 0.04252191260457039 0.02865874208509922
vn -0.05405484139919281 0.08457199484109879 0.03717943653464317
vn 0.0028172763995826244 0.09831967204809189 0.04221329838037491
vn 0.05885038152337074 0.07947003096342087 0.04096103087067604
vn 0.09566163271665573 0.034230176359415054 0.033672034740448
vn 0.10182210803031921 -0.023426715284585953 0.023240189999341965
vn 0.07533419132232666 -0.07493800669908524 0.012872983701527119
vn 0.05639532208442688 -0.08894824981689453 0.01909017004072666
vn 0.0016241793055087328 -0.10611753165721893 0.013895702548325062
vn 0.09242207556962967 -0.04550589993596077 0.029052238911390305
vn 0.0989433154463768 0.010505888611078262 0.03945257514715195
vn 0.07364973425865173 0.06127609312534332 0.047724366188049316
vn 0.024552851915359497 0.09047839790582657 0.0516476072371006
vn -0.03288266807794571 0.08920755982398987 0.049167074263095856
vn -0.07975214719772339 0.05777847394347191 0.04192734882235527
vn -0.10226310789585114 0.0058431122452020645 0.031060801818966866
vn -0.09230010956525803 -0.04969421774148941 0.021629467606544495
s on
f 1//1 2//2 3//3
f 2//2 4//4 3//3
f 3//3 4//4 5//5
f 4//4 6//6 5//5
f 5//5 6//6 7//7
f 6//6 8//8 7//7
f 7//7 8//8 9//9
f 8//8 10//10 9//9
f 9//9 10//10 11//11
f 10//10 12//12 11//11
f 11//11 12//12 13//13
f 12//12 14//14 13//13
f 13//13 14//14 15//15
f 14//14 16//16 15//15
f 15//15 16//16 17//17
f 16//16 18//18 17//17
f 17//17 18//18 19//19
f 18//18 20//20 19//19
f 19//19 20//20 21//21
f 20//20 22//22 21//21
f 21//21 22//22 23//23
f 23//23 22//22 24//24
f 22//22 25//25 24//24
f 24//24 25//25 26//26
f 4//4 2//2 27//27
f 25//25 22//22 28//28
f 22//22 20//20 28//28
f 28//28 20//20 29//29
f 20//20 18//18 29//29
f 29//29 18//18 30//30
f 18//18 16//16 30//30
f 30//30 16//16 31//31
f 16//16 14//14 31//31
f 31//31 14//14 32//32
f 14//14 12//12 32//32
f 32//32 12//12 33//33
f 12//12 10//10 33//33
f 33//33 10//10 34//34
f 10//10 8//8 34//34
f 34//34 8//8 35//35
f 8//8 6//6 35//35
f 35//35 6//6 36//36
f 6//6 4//4 36//36
f 4//4 27//27 36//36
f 27//27 37//37 36//36
f 36//36 37//37 38//38
f 37//37 39//39 38//38
f 36//36 38//38 35//35
f 38//38 40//40 35//35
f 35//35 40//40 34//34
f 40//40 41//41 34//34
f 34//34 41//41 33//33
f 41//41 42//42 33//33
f 33//33 42//42 32//32
f 42//42 43//43 32//32
f 32//32 43//43 31//31
f 43//43 44//44 31//31
f 31//31 44//44 30//30
f 44//44 45//45 30//30
f 30//30 45//45 29//29
f 45//45 46//46 29//29
f 29//29 46//46 28//28
f 46//46 47//47 28//28
f 28//28 47//47 25//25
f 47//47 48//48 25//25
f 25//25 48//48 26//26
f 26//26 48//48 49//49
f 48//48 50//50 49//49
f 49//49 50//50 51//51
f 50//50 48//48 52//52
f 48//48 47//47 52//52
f 52//52 47//47 53//53
f 47//47 46//46 53//53
f 53//53 46//46 54//54
f 46//46 45//45 54//54
f 54//54 45//45 55//55
f 45//45 44//44 55//55
f 55//55 44//44 56//56
f 44//44 43//43 56//56
f 56//56 43//43 57//57
f 43//43 42//42 57//57
f 57//57 42//42 58//58
f 42//42 41//41 58//58
f 58//58 41//41 59//59
f 41//41 40//40 59//59
f 59//59 40//40 60//60
f 40//40 38//38 60//60
f 38//38 39//39 60//60
f 39//39 61//61 60//60
f 60//60 61//61 62//62
f 61//61 63//63 62//62
f 60//60 62//62 59//59
f 62//62 64//64 59//59
f 59//59 64//64 58//58
f 64//64 65//65 58//58
f 58//58 65//65 57//57
f 65//65 66//66 57//57
f 57//57 66//66 56//56
f 66//66 67//67 56//56
f 56//56 67//67 55//55
f 67//67 68//68 55//55
f 55//55 68//68 54//54
f 68//68 69//69 54//54
f 54//54 69//69 53//53
f 69//69 70//70 53//53
f 53//53 70//70 52//52
f 70//70 71//71 52//52
f 52//52 71//71 50//50
f 71//71 72//72 50//50
f 50//50 72//72 51//51
f 51//51 72//72 73//73
f 72//72 74//74 73//73
f 73//73 74//74 75//75
f 74//74 72//72 76//76
f 72//72 71//71 76//76
f 76//76 71//71 77//77
f 71//71 70//70 77//77
f 77//77 70//70 78//78
f 70//70 69//69 78//78
f 78//78 69//69 79//79
f 69//69 68//68 79//79
f 79//79 68//68 80//80
f 68//68 67//67 80//80
f 80//80 67//67 81//81
f 67//67 66//66 81//81
f 81//81 66//66 82//82
f 66//66 65//65 82//82
f 82//82 65//65 83//83
f 65//65 64//64 83//83
f 83//83 64//64 84//84
f 64//64 62//62 84//84
f 62//62 63//63 84//84
f 63//63 85//85 84//84
f 84//84 85//85 86//86
f 85//85 87//87 86//86
f 87//87 88//88 86//86
f 88//88 89//89 86//86
f 86//86 89//89 83//83
f 83//83 89//89 82//82
f 89//89 90//90 82//82
f 82//82 90//90 81//81
f 90//90 91//91 81//81
f 81//81 91//91 80//80
f 91//91 92//92 80//80
f 80//80 92//92 79//79
f 92//92 93//93 79//79
f 79//79 93//93 78//78
f 93//93 94//94 78//78
f 78//78 94//94 77//77
f 94//94 95//95 77//77
f 77//77 95//95 76//76
f 95//95 96//96 76//76
f 76//76 96//96 74//74
f 96//96 97//97 74//74
f 74//74 97//97 75//75
f 75//75 97//97 98//98
f 97//97 99//99 98//98
f 98//98 99//99 100//100
f 83//83 84//84 86//86
f 99//99 97//97 101//101
f 97//97 96//96 101//101
f 101//101 96//96 102//102
f 96//96 95//95 102//102
f 102//102 95//95 103//103
f 95//95 94//94 103//103
f 103//103 94//94 104//104
f 94//94 93//93 104//104
f 104//104 93//93 105//105
f 93//93 92//92 105//105
f 105//105 92//92 106//106
f 92//92 91//91 106//106
f 106//106 91//91 107//107
f 91//91 90//90 107//107
f 107//107 90//90 108//108
f 90//90 89//89 108//108
f 108//108 89//89 88//88
f 109//109 111//111 110//110
f 110//110 111//111 112//112
f 111//111 113//113 112//112
f 110//110 112//112 114//114
f 112//112 115//115 114//114
f 114//114 115//115 116//116
f 115//115 117//117 116//116
f 116//116 117//117 118//118
f 117//117 119//119 118//118
f 118//118 119//119 120//120
f 119//119 121//121 120//120
f 120//120 121//121 122//122
f 121//121 123//123 122//122
f 122//122 123//123 124//124
f 123//123 125//125 124//124
f 124//124 125//125 126//126
f 125//125 127//127 126//126
f 126//126 127//127 128//128
f 127//127 129//129 128//128
f 128//128 129//129 130//130
f 129//129 131//131 130//130
f 130//130 131//131 132//132
f 132//132 131//131 133//133
f 131//131 134//134 133//133
f 133//133 134//134 135//135
f 134//134 131//131 136//136
f 131//131 129//129 136//136
f 136//136 129//129 137//137
f 129//129 127//127 137//137
f 137//137 127//127 138//138
f 127//127 125//125 138//138
f 138//138 125//125 139//139
f 125//125 123//123 139//139
f 139//139 123//123 140//140
f 123//123 121//121 140//140
f 140//140 121//121 141//141
f 121//121 119//119 141//141
f 141//141 119//119 142//142
f 119//119 117//117 142//142
f 142//142 117//117 143//143
f 117//117 115//115 143//143
f 143//143 115//115 144//144
f 115//115 112//112 144//144
f 112//112 113//113 144//144
f 113//113 145//145 144//144
f 144//144 145//145 146//146
f 145//145 147//147 146//146
f 144//144 146//146 143//143
f 146//146 148//148 143//143
f 143//143 148//148 142//142
f 148//148 149//149 142//142
f 142//142 149//149 141//141
f 149//149 150//150 141//141
f 141//141 150//150 140//140
f 150//150 151//151 140//140
f 140//140 151//151 139//139
f 151//151 152//152 139//139
f 139//139 152//152 138//138
f 152//152 153//153 138//138
f 138//138 153//153 137//137
f 153//153 154//154 137//137
f 137//137 154//154 136//136
f 154//154 155//155 136//136
f 136//136 155//155 134//134
f 155//155 156//156 134//134
f 134//134 156//156 135//135
f 135//135 156//156 157//157
f 156//156 158//158 157//157
f 157//157 158//158 159//159
f 158//158 156//156 160//160
f 156//156 155//155 160//160
f 160//160 155//155 161//161
f 155//155 154//154 161//161
f 161//161 154//154 162//162
f 154//154 153//153 162//162
f 162//162 153//153 163//163
f 153//153 152//152 163//163
f 163//163 152//152 164//164
f 152//152 151//151 164//164
f 164//164 151//151 165//165
f 151//151 150//150 165//165
f 165//165 150//150 166//166
f 150//150 149//149 166//166
f 166//166 149//149 167//167
f 149//149 148//148 167//167
f 167//167 148//148 168//168
f 148//148 146//146 168//168
f 146//146 147//147 168//168
f 147//147 169//169 168//168
f 168//168 169//169 170//170
f 169//169 171//171 170//170
f 168//168 170//170 167//167
f 170//170 172//172 167//167
f 167//167 172//172 166//166
f 172//172 173//173 166//166
f 166//166 173//173 165//165
f 173//173 174//174 165//165
f 165//165 174//174 164//164
f 174//174 175//175 164//164
f 164//164 175//175 163//163
f 175//175 176//176 163//163
f 163//163 176//176 162//162
f 176//176 177//177 162//162
f 162//162 177//177 161//161
f 177//177 178//178 161//161
f 161//161 178//178 160//160
f 178//178 179//179 160//160
f 160//160 179//179 158//158
f 179//179 180//180 158//158
f 158//158 180//180 159//159
f 159//159 180//180 181//181
f 180//180 182//182 181//181
f 181//181 182//182 183//183
f 182//182 180//180 184//184
f 180//180 179//179 184//184
f 184//184 179//179 185//185
f 179//179 178//178 185//185
f 185//185 178//178 186//186
f 178//178 177//177 186//186
f 186//186 177//177 187//187
f 177//177 176//176 187//187
f 187//187 176//176 188//188
f 176//176 175//175 188//188
f 188//188 175//175 189//189
f 175//175 174//174 189//189
f 189//189 174//174 190//190
f 174//174 173//173 190//190
f 190//190 173//173 191//191
f 173//173 172//172 191//191
f 191//191 172//172 192//192
f 172//172 170//170 192//192
f 170//170 171//171 192//192
f 171//171 193//193 192//192
f 192//192 193//193 194//194
f 193//193 195//195 194//194
f 195//195 196//196 194//194
f 196//196 197//197 194//194
f 194//194 197//197 191//191
f 191//191 197//197 190//190
f 197//197 198//198 190//190
f 190//190 198//198 189//189
f 198//198 199//199 189//189
f 189//189 199//199 188//188
f 199//199 200//200 188//188
f 188//188 200//200 187//187
f 200//200 201//201 187//187
f 187//187 201//201 186//186
f 201//201 202//202 186//186
f 186//186 202//202 185//185
f 202//202 203//203 185//185
f 185//185 203//203 184//184
f 203//203 204//204 184//184
f 184//184 204//204 182//182
f 204//204 205//205 182//182
f 182//182 205//205 183//183
f 183//183 205//205 206//206
f 205//205 207//207 206//206
f 206//206 207//207 208//208
f 191//191 192//192 194//194
f 207//207 205//205 209//209
f 205//205 204//204 209//209
f 209//209 204//204 210//210
f 204//204 203//203 210//210
f 210//210 203//203 211//211
f 203//203 202//202 211//211
f 211//211 202//202 212//212
f 202//202 201//201 212//212
f 212//212 201//201 213//213
f 201//201 200//200 213//213
f 213//213 200//200 214//214
f 200//200 199//199 214//214
f 214//214 199//199 215//215
f 199//199 198//198 215//215
f 215//215 198//198 216//216
f 198//198 197//197 216//216
f 216//216 197//197 196//196
f 217//217 219//219 218//218
f 218//218 219//219 220//220
f 219//219 221//221 220//220
f 218//218 220//220 222//222
f 220//220 223//223 222//222
f 222//222 223//223 224//224
f 223//223 225//225 224//224
f 224//224 225//225 226//226
f 225//225 227//227 226//226
f 226//226 227//227 228//228
f 227//227 229//229 228//228
f 228//228 229//229 230//230
f 229//229 231//231 230//230
f 230//230 231//231 232//232
f 231//231 233//233 232//232
f 232//232 233//233 234//234
f 233//233 235//235 234//234
f 234//234 235//235 236//236
f 235//235 237//237 236//236
f 236//236 237//237 238//238
f 237//237 239//239 238//238
f 238//238 239//239 240//240
f 240//240 239//239 241//241
f 239//239 242//242 241//241
f 241//241 242//242 243//243
f 242//242 239//239 244//244
f 239//239 237//237 244//244
f 244//244 237//237 245//245
f 237//237 235//235 245//245
f 245//245 235//235 246//246
f 235//235 233//233 246//246
f 246//246 233//233 247//247
f 233//233 231//231 247//247
f 247//247 231//231 248//248
f 231//231 229//229 248//248
f 248//248 229//229 249//249
f 229//229 227//227 249//249
f 249//249 227//227 250//250
f 227//227 225//225 250//250
f 250//250 225//225 251//251
f 225//225 223//223 251//251
f 251//251 223//223 252//252
f 223//223 220//220 252//252
f 220//220 221//221 252//252
f 221//221 253//253 252//252
f 252//252 253//253 254//254
f 253//253 255//255 254//254
f 252//252 254//254 251//251
f 254//254 256//256 251//251
f 251//251 256//256 250//250
f 256//256 257//257 250//250
f 250//250 257//257 249//249
f 257//257 258//258 249//249
f 249//249 258//258 248//248
f 258//258 259//259 248//248
f 248//248 259//259 247//247
f 259//259 260//260 247//247
f 247//247 260//260 246//246
f 260//260 261//261 246//246
f 246//246 261//261 245//245
f 261//261 262//262 245//245
f 245//245 262//262 244//244
f 262//262 263//263 244//244
f 244//244 263//263 242//242
f 263//263 264//264 242//242
f 242//242 264//264 243//243
f 243//243 264//264 265//265
f 264//264 266//266 265//265
f 265//265 266//266 267//267
f 266//266 264//264 268//268
f 264//264 263//263 268//268
f 268//268 263//263 269//269
f 263//263 262//262 269//269
f 269//269 262//262 270//270
f 262//262 261//261 270//270
f 270//270 261//261 271//271
f 261//261 260//260 271//271
f 271//271 260//260 272//272
f 260//260 259//259 272//272
f 272//272 259//259 273//273
f 259//259 258//258 273//273
f 273//273 258//258 274//274
f 258//258 257//257 274//274
f 274//274 257//257 275//275
f 257//257 256//256 275//275
f 275//275 256//256 276//276
f 256//256 254//254 276//276
f 254//254 255//255 276//276
f 255//255 277//277 276//276
f 276//276 277//277 278//278
f 277//277 279//279 278//278
f 276//276 278//278 275//275
f 278//278 280//280 275//275
f 275//275 280//280 274//274
f 280//280 281//281 274//274
f 274//274 281//281 273//273
f 281//281 282//282 273//273
f 273//273 282//282 272//272
f 282//282 283//283 272//272
f 272//272 283//283 271//271
f 283//283 284//284 271//271
f 271//271 284//284 270//270
f 284//284 285//285 270//270
f 270//270 285//285 269//269
f 285//285 286//286 269//269
f 269//269 286//286 268//268
f 286//286 287//287 268//268
f 268//268 287//287 266//266
f 287//287 288//288 266//266
f 266//266 288//288 267//267
f 267//267 288//288 289//289
f 288//288 290//290 289//289
f 289//289 290//290 291//291
f 290//290 288//288 292//292
f 288//288 287//287 292//292
f 292//292 287//287 293//293
f 287//287 286//286 293//293
f 293//293 286//286 294//294
f 286//286 285//285 294//294
f 294//294 285//285 295//295
f 285//285 284//284 295//295
f 295//295 284//284 296//296
f 284//284 283//283 296//296
f 296//296 283//283 297//297
f 283//283 282//282 297//297
f 297//297 282//282 298//298
f 282//282 281//281 298//298
f 298//298 281//281 299//299
f 281//281 280//280 299//299
f 299//299 280//280 300//300
f 280//280 278//278 300//300
f 278//278 279//279 300//300
f 279//279 301//301 300//300
f 300//300 301//301 302//302
f 301//301 303//303 302//302
f 303//303 304//304 302//302
f 304//304 305//305 302//302
f 302//302 305//305 299//299
f 299//299 305//305 298//298
f 305//305 306//306 298//298
f 298//298 306//306 297//297
f 306//306 307//307 297//297
f 297//297 307//307 296//296
f 307//307 308//308 296//296
f 296//296 308//308 295//295
f 308//308 309//309 295//295
f 295//295 309//309 294//294
f 309//309 310//310 294//294
f 294//294 310//310 293//293
f 310//310 311//311 293//293
f 293//293 311//311 292//292
f 311//311 312//312 292//292
f 292//292 312//312 290//290
f 312//312 313//313 290//290
f 290//290 313//313 291//291
f 291//291 313//313 314//314
f 313//313 315//315 314//314
f 314//314 315//315 316//316
f 299//299 300//300 302//302
f 315//315 313//313 317//317
f 313//313 312//312 317//317
f 317//317 312//312 318//318
f 312//312 311//311 318//318
f 318//318 311//311 319//319
f 311//311 310//310 319//319
f 319//319 310//310 320//320
f 310//310 309//309 320//320
f 320//320 309//309 321//321
f 309//309 308//308 321//321
f 321//321 308//308 322//322
f 308//308 307//307 322//322
f 322//322 307//307 323//323
f 307//307 306//306 323//323
f 323//323 306//306 324//324
f 306//306 305//305 324//324
f 324//324 305//305 304//304
f 325//325 327//327 326//326
f 326//326 327//327 328//328
f 327//327 329//329 328//328
f 326//326 328//328 330//330
f 328//328 331//331 330//330
f 330//330 331//331 332//332
f 331//331 333//333 332//332
f 332//332 333//333 334//334
f 333//333 335//335 334//334
f 334//334 335//335 336//336
f 335//335 337//337 336//336
f 336//336 337//337 338//338
f 337//337 339//339 338//338
f 338//338 339//339 340//340
f 339//339 341//341 340//340
f 340//340 341//341 342//342
f 341//341 343//343 342//342
f 342//342 343//343 344//344
f 343//343 345//345 344//344
f 344//344 345//345 346//346
f 345//345 347//347 346//346
f 346//346 347//347 348//348
f 348//348 347//347 349//349
f 347//347 350//350 349//349
f 349//349 350//350 351//351
f 350//350 347//347 352//352
f 347//347 345//345 352//352
f 352//352 345//345 353//353
f 345//345 343//343 353//353
f 353//353 343//343 354//354
f 343//343 341//341 354//354
f 354//354 341//341 355//355
f 341//341 339//339 355//355
f 355//355 339//339 356//356
f 339//339 337//337 356//356
f 356//356 337//337 357//357
f 337//337 335//335 357//357
f 357//357 335//335 358//358
f 335//335 333//333 358//358
f 358//358 333//333 359//359
f 333//333 331//331 359//359
f 359//359 331//331 360//360
f 331//331 328//328 360//360
f 328//328 329//329 360//360
f 329//329 361//361 360//360
f 360//360 361//361 362//362
f 361//361 363//363 362//362
f 360//360 362//362 359//359
f 362//362 364//364 359//359
f 359//359 364//364 358//358
f 364//364 365//365 358//358
f 358//358 365//365 357//357
f 365//365 366//366 357//357
f 357//357 366//366 356//356
f 366//366 367//367 356//356
f 356//356 367//367 355//355
f 367//367 368//368 355//355
f 355//355 368//368 354//354
f 368//368 369//369 354//354
f 354//354 369//369 353//353
f 369//369 370//370 353//353
f 353//353 370//370 352//352
f 370//370 371//371 352//352
f 352//352 371//371 350//350
f 371//371 372//372 350//350
f 350//350 372//372 351//351
f 351//351 372//372 373//373
f 372//372 374//374 373//373
f 373//373 374//374 375//375
f 374//374 372//372 376//376
f 372//372 371//371 376//376
f 376//376 371//371 377//377
f 371//371 370//370 377//377
f 377//377 370//370 378//378
f 370//370 369//369 378//378
f 378//378 369//369 379//379
f 369//369 368//368 379//379
f 379//379 368//368 380//380
f 368//368 367//367 380//380
f 380//380 367//367 381//381
f 367//367 366//366 381//381
f 381//381 366//366 382//382
f 366//366 365//365 382//382
f 382//382 365//365 383//383
f 365//365 364//364 383//383
f 383//383 364//364 384//384
f 364//364 362//362 384//384
f 362//362 363//363 384//384
f 363//363 385//385 384//384
f 384//384 385//385 386//386
f 385//385 387//387 386//386
f 384//384 386//386 383//383
f 386//386 388//388 383//383
f 383//383 388//388 382//382
f 388//388 389//389 382//382
f 382//382 389//389 381//381
f 389//389 390//390 381//381
f 381//381 390//390 380//380
f 390//390 391//391 380//380
f 380//380 391//391 379//379
f 391//391 392//392 379//379
f 379//379 392//392 378//378
f 392//392 393//393 378//378
f 378//378 393//393 377//377
f 393//393 394//394 377//377
f 377//377 394//394 376//376
f 394//394 395//395 376//376
f 376//376 395//395 374//374
f 395//395 396//396 374//374
f 374//374 396//396 375//375
f 375//375 396//396 397//397
f 396//396 398//398 397//397
f 397//397 398//398 399//399
f 398//398 396//396 400//400
f 396//396 395//395 400//400
f 400//400 395//395 401//401
f 395//395 394//394 401//401
f 401//401 394//394 402//402
f 394//394 393//393 402//402
f 402//402 393//393 403//403
f 393//393 392//392 403//403
f 403//403 392//392 404//404
f 392//392 391//391 404//404
f 404//404 391//391 405//405
f 391//391 390//390 405//405
f 405//405 390//390 406//406
f 390//390 389//389 406//406
f 406//406 389//389 407//407
f 389//389 388//388 407//407
f 407//407 388//388 408//408
f 388//388 386//386 408//408
f 386//386 387//387 408//408
f 387//387 409//409 408//408
f 408//408 409//409 410//410
f 409//409 411//411 410//410
f 411//411 412//412 410//410
f 412//412 413//413 410//410
f 410//410 413//413 407//407
f 407//407 413//413 406//406
f 413//413 414//414 406//406
f 406//406 414//414 405//405
f 414//414 415//415 405//405
f 405//405 415//415 404//404
f 415//415 416//416 404//404
f 404//404 416//416 403//403
f 416//416 417//417 403//403
f 403//403 417//417 402//402
f 417//417 418//418 402//402
f 402//402 418//418 401//401
f 418//418 419//419 401//401
f 401//401 419//419 400//400
f 419//419 420//420 400//400
f 400//400 420//420 398//398
f 420//420 421//421 398//398
f 398//398 421//421 399//399
f 399//399 421//421 422//422
f 421//421 423//423 422//422
f 422//422 423//423 424//424
f 407//407 408//408 410//410
f 423//423 421//421 425//425
f 421//421 420//420 425//425
f 425//425 420//420 426//426
f 420//420 419//419 426//426
f 426//426 419//419 427//427
f 419//419 418//418 427//427
f 427//427 418//418 428//428
f 418//418 417//417 428//428
f 428//428 417//417 429//429
f 417//417 416//416 429//429
f 429//429 416//416 430//430
f 416//416 415//415 430//430
f 430//430 415//415 431//431
f 415//415 414//414 431//431
f 431//431 414//414 432//432
f 414//414 413//413 432//432
f 432//432 413//413 412//412
f 433//433 435//435 434//434
f 434//434 435//435 436//436
f 435//435 437//437 436//436
f 434//434 436//436 438//438
f 436//436 439//439 438//438
f 438//438 439//439 440//440
f 439//439 441//441 440//440
f 440//440 441//441 442//442
f 441//441 443//443 442//442
f 442//442 443//443 444//444
f 443//443 445//445 444//444
f 444//444 445//445 446//446
f 445//445 447//447 446//446
f 446//446 447//447 448//448
f 447//447 449//449 448//448
f 448//448 449//449 450//450
f 449//449 451//451 450//450
f 450//450 451//451 452//452
f 451//451 453//453 452//452
f 452//452 453//453 454//454
f 453//453 455//455 454//454
f 454//454 455//455 456//456
f 456//456 455//455 457//457
f 455//455 458//458 457//457
f 457//457 458//458 459//459
f 458//458 455//455 460//460
f 455//455 453//453 460//460
f 460//460 453//453 461//461
f 453//453 451//451 461//461
f 461//461 451//451 462//462
f 451//451 449//449 462//462
f 462//462 449//449 463//463
f 449//449 447//447 463//463
f 463//463 447//447 464//464
f 447//447 445//445 464//464
f 464//464 445//445 465//465
f 445//445 443//443 465//465
f 465//465 443//443 466//466
f 443//443 441//441 466//466
f 466//466 441//441 467//467
f 441//441 439//439 467//467
f 467//467 439//439 468//468
f 439//439 436//436 468//468
f 436//436 437//437 468//468
f 437//437 469//469 468//468
f 468//468 469//469 470//470
f 469//469 471//471 470//470
f 468//468 470//470 467//467
f 470//470 472//472 467//467
f 467//467 472//472 466//466
f 472//472 473//473 466//466
f 466//466 473//473 465//465
f 473//473 474//474 465//465
f 465//465 474//474 464//464
f 474//474 475//475 464//464
f 464//464 475//475 463//463
f 475//475 476//476 463//463
f 463//463 476//476 462//462
f 476//476 477//477 462//462
f 462//462 477//477 461//461
f 477//477 478//478 461//461
f 461//461 478//478 460//460
f 478//478 479//479 460//460
f 460//460 479//479 458//458
f 479//479 480//480 458//458
f 458//458 480//480 459//459
f 459//459 480//480 481//481
f 480//480 482//482 481//481
f 481//481 482//482 483//483
f 482//482 480//480 484//484
f 480//480 479//479 484//484
f 484//484 479//479 485//485
f 479//479 478//478 485//485
f 485//485 478//478 486//486
f 478//478 477//477 486//486
f 486//486 477//477 487//487
f 477//477 476//476 487//487
f 487//487 476//476 488//488
f 476//476 475//475 488//488
f 488//488 475//475 489//489
f 475//475 474//474 489//489
f 489//489 474//474 490//490
f 474//474 473//473 490//490
f 490//490 473//473 491//491
f 473//473 472//472 491//491
f 491//491 472//472 492//492
f 472//472 470//470 492//492
f 470//470 471//471 492//492
f 471//471 493//493 492//492
f 492//492 493//493 494//494
f 493//493 495//495 494//494
f 492//492 494//494 491//491
f 494//494 496//496 491//491
f 491//491 496//496 490//490
f 496//496 497//497 490//490
f 490//490 497//497 489//489
f 497//497 498//498 489//489
f 489//489 498//498 488//488
f 498//498 499//499 488//488
f 488//488 499//499 487//487
f 499//499 500//500 487//487
f 487//487 500//500 486//486
f 500//500 501//501 486//486
f 486//486 501//501 485//485
f 501//501 502//502 485//485
f 485//485 502//502 484//484
f 502//502 503//503 484//484
f 484//484 503//503 482//482
f 503//503 504//504 482//482
f 482//482 504//504 483//483
f 483//483 504//504 505//505
f 504//504 506//506 505//505
f 505//505 506//506 507//507
f 506//506 504//504 508//508
f 504//504 503//503 508//508
f 508//508 503//503 509//509
f 503//503 502//502 509//509
f 509//509 502//502 510//510
f 502//502 501//501 510//510
f 510//510 501//501 511//511
f 501//501 500//500 511//511
f 511//511 500//500 512//512
f 500//500 499//499 512//512
f 512//512 499//499 513//513
f 499//499 498//498 513//513
f 513//513 498//498 514//514
f 498//498 497//497 514//514
f 514//514 497//497 515//515
f 497//497 496//496 515//515
f 515//515 496//496 516//516
f 496//496 494//494 516//516
f 494//494 495//495 516//516
f 495//495 517//517 516//516
f 516//516 517//517 518//518
f 517//517 519//519 518//518
f 519//519 520//520 518//518
f 520//520 521//521 518//518
f 518//518 521//521 515//515
f 515//515 521//521 514//514
f 521//521 522//522 514//514
f 514//514 522//522 513//513
f 522//522 523//523 513//513
f 513//513 523//523 512//512
f 523//523 524//524 512//512
f 512//512 524//524 511//511
f 524//524 525//525 511//511
f 511//511 525//525 510//510
f 525//525 526//526 510//510
f 510//510 526//526 509//509
f 526//526 527//527 509//509
f 509//509 527//527 508//508
f 527//527 528//528 508//508
f 508//508 528//528 506//506
f 528//528 529//529 506//506
f 506//506 529//529 507//507
f 507//507 529//529 530//530
f 529//529 531//531 530//530
f 530//530 531//531 532//532
f 515//515 516//516 518//518
f 531//531 529//529 533//533
f 529//529 528//528 533//533
f 533//533 528//528 534//534
f 528//528 527//527 534//534
f 534//534 527//527 535//535
f 527//527 526//526 535//535
f 535//535 526//526 536//536
f 526//526 525//525 536//536
f 536//536 525//525 537//537
f 525//525 524//524 537//537
f 537//537 524//524 538//538
f 524//524 523//523 538//538
f 538//538 523//523 539//539
f 523//523 522//522 539//539
f 539//539 522//522 540//540
f 522//522 521//521 540//540
f 540//540 521//521 520//520

