# Exported by Sketchfab Model Ripper robust edition
o model_5
v 1089.95849609375 -22961.89453125 157929.015625
v 1077.0579833984375 -22887.458984375 157967.203125
v 1085.820556640625 -22937.91015625 157882.453125
v 1080.7091064453125 -22877.533203125 157911.78125
v 1095.5567626953125 -22899.037109375 157868.46875
v 1095.0699462890625 -22854.375 157909.921875
v 1085.820556640625 -22853.548828125 157953.703125
v 1124.765380859375 -22812.1953125 157970.9375
v 1112.1082763671875 -22832.87109375 158028.21875
v 1105.77978515625 -22877.533203125 158078.046875
v 1113.8121337890625 -22945.353515625 158110.640625
v 1141.560302734375 -23085.955078125 157990.03125
v 1109.917724609375 -23004.90234375 157875
v 1165.4140625 -23105.8046875 157943.921875
v 1154.4608154296875 -23042.947265625 157850.78125
v 1118.4368896484375 -22988.359375 157839.609375
v 1176.85400390625 -23200.08984375 158051.96875
v 1148.6190185546875 -23181.06640625 158155.8125
v 1186.3468017578125 -23236.48046875 158183.296875
v 1156.6514892578125 -23175.27734375 158228.9375
v 1150.0794677734375 -23071.06640625 158256.875
v 1157.1383056640625 -22937.08203125 158236.390625
v 1184.399658203125 -22849.412109375 158231.71875
v 1292.471435546875 -22730.314453125 158272.703125
v 1291.497802734375 -22803.923828125 158383.546875
v 1348.211181640625 -22927.158203125 158504.171875
v 1195.109375 -23057.005859375 158321.609375
v 1356.7303466796875 -23043.7734375 158497.171875
v 1191.2149658203125 -23133.923828125 158308.109375
v 1234.297607421875 -23195.126953125 158323
v 1229.9163818359375 -23251.3671875 158248.484375
v 1209.7137451171875 -23246.404296875 158148.828125
v 1207.2796630859375 -23215.8046875 158032.875
v 1199.49072265625 -23195.953125 158001.203125
v 1225.2916259765625 -23074.375 157856.359375
v 1166.631103515625 -23021.443359375 157822.375
v 1143.7509765625 -22954.451171875 157819.109375
v 1141.31689453125 -22865.955078125 157851.703125
v 1143.020751953125 -22822.947265625 157893.15625
v 1170.2821044921875 -22789.037109375 157959.75
v 1277.8670654296875 -22740.240234375 158129.265625
v 1369.387451171875 -22703.021484375 158245.703125
v 1400.78662109375 -22655.052734375 158369.578125
v 1362.32861328125 -22679.86328125 158437.5625
v 1388.129638671875 -22620.314453125 158482.734375
v 1414.1739501953125 -22605.427734375 158444.546875
v 1397.3790283203125 -22555.8046875 158513.484375
v 1387.88623046875 -22593.849609375 158537.234375
v 1382.287841796875 -22703.021484375 158554.453125
v 1362.32861328125 -22679.86328125 158437.5625
v 1388.616455078125 -22812.1953125 158574.015625
v 1403.70751953125 -22834.525390625 158593.109375
v 1441.922119140625 -22554.150390625 158701.625
v 1404.924560546875 -22645.126953125 158624.78125
v 1391.5372314453125 -22521.06640625 158589.859375
v 1392.2674560546875 -22521.89453125 158547.9375
v 1402.2470703125 -22507.833984375 158526.984375
v 1423.42333984375 -22550.841796875 158482.734375
v 1392.0240478515625 -22420.9921875 158576.34375
v 1403.464111328125 -22410.240234375 158557.25
v 1424.39697265625 -22500.390625 158507.421875
v 1391.5372314453125 -22253.923828125 158601.03125
v 1400.78662109375 -22287.833984375 158679.265625
v 1426.8309326171875 -22315.955078125 158723.984375
v 1463.3416748046875 -22334.9765625 158749.59375
v 1449.4676513671875 -22162.947265625 158754.71875
v 1407.8453369140625 -21812.271484375 158724.4375
v 1391.7806396484375 -21890.841796875 158643.40625
v 1400.056396484375 -21931.369140625 158609.40625
v 1412.7135009765625 -22229.11328125 158574.953125
v 1460.664306640625 -22382.119140625 158531.640625
v 1465.0455322265625 -22491.29296875 158497.640625
v 1445.3297119140625 -22564.07421875 158463.640625
v 1454.09228515625 -22598.8125 158433.375
v 1400.78662109375 -22655.052734375 158369.578125
v 1485.7349853515625 -22574.826171875 158463.640625
v 1507.8848876953125 -22516.10546875 158503.703125
v 1503.7469482421875 -22380.466796875 158539.5625
v 1535.633056640625 -22348.2109375 158577.75
v 1513.969970703125 -22247.30859375 158564.703125
v 1464.8021240234375 -22220.015625 158553.0625
v 1444.356201171875 -22676.556640625 158333.25
v 1485.4915771484375 -22619.48828125 158430.109375
v 1516.16064453125 -22612.87109375 158468.765625
v 1536.119873046875 -22549.1875 158525.59375
v 1369.387451171875 -22703.021484375 158245.703125
v 1357.2171630859375 -22740.240234375 158156.75
v 1210.2005615234375 -22798.962890625 157917.375
v 1182.939208984375 -22832.87109375 157864.75
v 1186.5902099609375 -22887.458984375 157830.75
v 1226.2652587890625 -22832.87109375 157870.34375
v 1300.0169677734375 -22822.947265625 157939.734375
v 1406.385009765625 -22794 158134.859375
v 1492.793701171875 -22755.955078125 158327.65625
v 1339.2052001953125 -22896.556640625 157919.234375
v 1259.125 -22875.87890625 157851.25
v 1236.97509765625 -22927.984375 157821.90625
v 1196.56982421875 -22985.87890625 157810.734375
v 1240.8695068359375 -22989.1875 157817.25
v 1226.5086669921875 -23031.3671875 157822.84375
v 1268.861083984375 -23042.947265625 157845.65625
v 1290.037353515625 -22937.91015625 157844.265625
v 1298.5565185546875 -22999.939453125 157849.375
v 1349.184814453125 -22974.30078125 157911.78125
v 1303.4246826171875 -23045.427734375 157873.59375
v 1271.53857421875 -23122.345703125 157911.328125
v 1240.139404296875 -23186.029296875 157967.203125
v 1232.10693359375 -23218.28515625 158024.953125
v 1272.268798828125 -23257.15625 158192.609375
v 1282.2484130859375 -23193.47265625 157987.703125
v 1300.5037841796875 -23219.111328125 158073.390625
v 1320.4630126953125 -23114.90234375 157946.25
v 1340.9090576171875 -23042.119140625 157917.375
v 1390.3201904296875 -22992.49609375 158004.921875
v 1373.7686767578125 -23075.203125 158017.03125
v 1331.65966796875 -23185.203125 158065.46875
v 1317.7855224609375 -23227.3828125 158170.25
v 1329.71240234375 -23227.3828125 158256.875
v 1302.9378662109375 -23239.7890625 158282.953125
v 1279.8143310546875 -23228.208984375 158314.15625
v 1352.5924072265625 -23126.48046875 158452
v 1431.2122802734375 -23119.86328125 158354.203125
v 1401.516845703125 -23148.810546875 158411.484375
v 1446.7901611328125 -23090.08984375 158449.671875
v 1427.5611572265625 -23085.126953125 158491.125
v 1384.235107421875 -23136.404296875 158448.28125
v 1406.1416015625 -23084.30078125 158502.765625
v 1398.83935546875 -23038.810546875 158529.3125
v 1451.9017333984375 -22711.29296875 158666.234375
v 1485.7349853515625 -22557.458984375 158722.109375
v 1438.7578125 -23024.751953125 158536.765625
v 1449.4676513671875 -22903.171875 158595.4375
v 1496.688232421875 -22660.013671875 158691.84375
v 1460.664306640625 -23040.46484375 158499.046875
v 1497.175048828125 -22860.1640625 158596.375
v 1538.3104248046875 -22674.07421875 158660.640625
v 1519.5682373046875 -22581.443359375 158710
v 1513.483154296875 -22335.8046875 158746.796875
v 1472.83447265625 -22182.796875 158761.703125
v 1448.7374267578125 -21773.3984375 158760.765625
v 1501.3128662109375 -22081.89453125 158761.703125
v 1524.4364013671875 -22091.8203125 158750.515625
v 1548.77685546875 -22338.28515625 158716.0625
v 1553.64501953125 -22534.30078125 158683.453125
v 1553.401611328125 -22678.2109375 158617.328125
v 1518.5947265625 -22865.955078125 158557.71875
v 1532.712158203125 -22841.142578125 158482.734375
v 1491.820068359375 -22994.150390625 158473.421875
v 1474.051513671875 -23033.021484375 158371.4375
v 1490.1163330078125 -22884.9765625 158294.125
v 1551.2109375 -22655.052734375 158529.78125
v 1562.1641845703125 -22444.9765625 158659.703125
v 1563.6246337890625 -22071.970703125 158691.375
v 1558.9998779296875 -22115.8046875 158641.078125
v 1536.606689453125 -22150.541015625 158590.3125
v 1496.44482421875 -22153.849609375 158559.125
v 1488.1690673828125 -21785.8046875 158563.78125
v 1447.0335693359375 -21883.3984375 158570.765625
v 1417.0947265625 -21990.91796875 158587.0625
v 1397.8658447265625 -21831.29296875 158610.8125
v 1539.2840576171875 -21736.181640625 158578.21875
v 1416.851318359375 -21822.1953125 158588.453125
v 1448.0072021484375 -21758.51171875 158569.828125
v 1467.7230224609375 -21658.435546875 158559.125
v 1435.1068115234375 -21660.08984375 158567.03125
v 1405.411376953125 -21665.880859375 158583.328125
v 1389.8333740234375 -21662.572265625 158600.5625
v 1375.7159423828125 -21654.30078125 158631.765625
v 1373.0384521484375 -21651.8203125 158666.6875
v 1404.68115234375 -21639.4140625 158735.15625
v 1446.5467529296875 -21636.10546875 158759.84375
v 1423.42333984375 -21600.541015625 158736.078125
v 1385.4521484375 -21601.369140625 158686.25
v 1382.04443359375 -21602.1953125 158652.265625
v 1392.9976806640625 -21612.947265625 158609.40625
v 1403.464111328125 -21631.970703125 158586.59375
v 1416.1212158203125 -21631.970703125 158577.75
v 1414.4173583984375 -21610.466796875 158587.53125
v 1404.1943359375 -21591.443359375 158621.515625
v 1395.6751708984375 -21586.482421875 158662.96875
v 1416.1212158203125 -21578.2109375 158695.109375
v 1443.869384765625 -21565.8046875 158663.90625
v 1436.32373046875 -21574.076171875 158631.296875
v 1434.6199951171875 -21593.92578125 158591.71875
v 1445.0863037109375 -21610.466796875 158573.546875
v 1447.5203857421875 -21631.142578125 158564.703125
v 1487.6822509765625 -21631.142578125 158561.453125
v 1476.72900390625 -21608.8125 158569.359375
v 1465.7757568359375 -21588.13671875 158590.78125
v 1486.7086181640625 -21577.384765625 158611.28125
v 1487.9256591796875 -21588.962890625 158588.921875
v 1509.1019287109375 -21592.271484375 158591.25
v 1498.87890625 -21608.8125 158571.6875
v 1477.2158203125 -21565.8046875 158644.34375
v 1517.62109375 -21578.2109375 158622.453125
v 1465.2889404296875 -21564.150390625 158685.328125
v 1455.06591796875 -21578.2109375 158725.84375
v 1457.01318359375 -21600.541015625 158748.1875
v 1489.1427001953125 -21632.796875 158757.515625
v 1488.8992919921875 -21721.29296875 158764.03125
v 1489.6295166015625 -21854.451171875 158760.765625
v 1511.535888671875 -21878.435546875 158753.78125
v 1547.072998046875 -21727.083984375 158729.09375
v 1530.03466796875 -21612.12109375 158727.703125
v 1497.41845703125 -21584 158727.234375
v 1486.7086181640625 -21569.11328125 158705.8125
v 1487.9256591796875 -21564.150390625 158683.921875
v 1508.3717041015625 -21570.767578125 158695.5625
v 1528.817626953125 -21586.482421875 158706.75
v 1548.533447265625 -21598.88671875 158695.5625
v 1560.7037353515625 -21632.796875 158697.4375
v 1568.49267578125 -21722.12109375 158696.03125
v 1575.3079833984375 -21706.40625 158664.828125
v 1567.51904296875 -21631.970703125 158675.078125
v 1555.59228515625 -21598.88671875 158662.96875
v 1530.03466796875 -21578.2109375 158683.921875
v 1508.8585205078125 -21568.287109375 158655.046875
v 1530.278076171875 -21577.384765625 158643.875
v 1539.7708740234375 -21596.40625 158612.203125
v 1520.2984619140625 -21610.466796875 158580.078125
v 1509.5887451171875 -21630.31640625 158566.109375
v 1508.8585205078125 -21665.052734375 158562.375
v 1530.521484375 -21641.89453125 158574.015625
v 1551.941162109375 -21655.955078125 158592.640625
v 1541.4747314453125 -21621.21875 158591.25
v 1566.302001953125 -21634.451171875 158632.703125
v 1572.38720703125 -21768.435546875 158631.765625
v -1674.7999267578125 -22631.322265625 158672.875
v -1652.169677734375 -22589.068359375 158708.359375
v -1687.5594482421875 -22525.26953125 158676.140625
v -1662.040283203125 -22345.478515625 158736.359375
v -1689.24462890625 -22266.767578125 158708.8125
v -1675.0406494140625 -22168.171875 158731.234375
v -1704.1710205078125 -21762.19140625 158677.078125
v -1680.818603515625 -21656.966796875 158718.15625
v -1694.7818603515625 -21623.826171875 158676.609375
v -1701.281982421875 -21654.48046875 158636
v -1693.578125 -21752.248046875 158606.578125
v -1680.5777587890625 -22318.96484375 158602.84375
v -1693.33740234375 -22314.822265625 158680.8125
v -1686.114990234375 -22628.0078125 158548.703125
v -1683.466796875 -22719.9765625 158580.4375
v -1670.2257080078125 -22768.859375 158592.578125
v -1657.9476318359375 -22879.0546875 158479.140625
v -1660.5958251953125 -22831 158429.1875
v -1633.150634765625 -22939.537109375 158373.640625
v -1612.4464111328125 -22843.427734375 158263
v -1513.017822265625 -23009.962890625 157987.5625
v -1490.869140625 -22957.765625 157927.8125
v -1477.1466064453125 -22894.796875 157928.75
v -1452.8311767578125 -22922.138671875 157875.53125
v -1457.4052734375 -22995.048828125 157877.390625
v -1472.8131103515625 -23061.33203125 157932.484375
v -1511.3326416015625 -23100.2734375 158071.125
v -1448.2569580078125 -23169.041015625 157999.703125
v -1410.700439453125 -23080.388671875 157879.734375
v -1401.792724609375 -23000.849609375 157830.71875
v -1432.84912109375 -22944.5078125 157849.859375
v -1412.1448974609375 -22932.080078125 157836.78125
v -1423.7008056640625 -22908.880859375 157851.25
v -1438.8677978515625 -22868.283203125 157894.203125
v -1572.72314453125 -22777.97265625 158211.1875
v -1633.391357421875 -22709.205078125 158377.375
v -1663.7254638671875 -22618.06640625 158490.34375
v -1627.1319580078125 -22596.5234375 158456.265625
v -1649.76220703125 -22512.013671875 158514.625
v -1672.151611328125 -22500.4140625 158550.09375
v -1572.72314453125 -22674.40625 158335.828125
v -1486.7764892578125 -22756.431640625 158124.34375
v -1416.9598388671875 -22831.828125 157910.078125
v -1412.1448974609375 -22877.396484375 157859.65625
v -1400.1075439453125 -22908.052734375 157837.71875
v -1389.033203125 -22932.908203125 157826.515625
v -1366.6436767578125 -22983.44921875 157814.84375
v -1359.4212646484375 -23027.361328125 157821.375
v -1358.9398193359375 -23077.07421875 157856.859375
v -1378.4403076171875 -23138.384765625 157921.28125
v -1344.2542724609375 -23130.9296875 157924.078125
v -1388.79248046875 -23187.26953125 157969.359375
v -1316.80908203125 -23046.41796875 157833.046875
v -1326.43896484375 -23013.27734375 157812.96875
v -1307.9013671875 -22980.96484375 157810.171875
v -1336.7911376953125 -22941.1953125 157813.4375
v -1348.8284912109375 -22898.939453125 157826.046875
v -1361.1065673828125 -22855.85546875 157851.25
v -1361.1065673828125 -22805.314453125 157904.9375
v -1384.458984375 -22787.087890625 157956.296875
v -1331.25390625 -22792.88671875 157920.8125
v -1341.365234375 -22773.001953125 157981.03125
v -1424.1822509765625 -22741.517578125 158119.6875
v -1318.0128173828125 -22815.2578125 157884.40625
v -1298.03076171875 -22795.373046875 157929.6875
v -1304.771728515625 -22778.802734375 158023.984375
v -1470.1649169921875 -22696.77734375 158297.078125
v -1541.666748046875 -22641.265625 158392.78125
v -1565.982177734375 -22601.49609375 158434.796875
v -1607.6314697265625 -22525.26953125 158484.734375
v -1639.1693115234375 -22385.248046875 158541.6875
v -1643.7435302734375 -22264.28125 158561.765625
v -1646.6324462890625 -22089.4609375 158568.765625
v -1667.095947265625 -21791.189453125 158575.3125
v -1626.6505126953125 -22037.263671875 158560.375
v -1611.4833984375 -22210.427734375 158553.828125
v -1567.908203125 -22370.333984375 158538.890625
v -1565.982177734375 -22550.955078125 158475.40625
v -1526.981201171875 -22543.498046875 158525.828125
v -1531.314697265625 -22604.810546875 158464.671875
v -1515.1845703125 -22625.5234375 158488.484375
v -1511.5733642578125 -22647.892578125 158429.65625
v -1470.1649169921875 -22696.77734375 158297.078125
v -1567.908203125 -22370.333984375 158538.890625
v -1518.7957763671875 -22594.8671875 158553.828125
v -1523.3699951171875 -22389.390625 158584.640625
v -1535.6480712890625 -22403.4765625 158672.875
v -1517.832763671875 -21835.1015625 158654.203125
v -1446.0902099609375 -22718.318359375 158336.296875
v -1494.7210693359375 -22676.064453125 158445.53125
v -1502.665771484375 -22691.8046875 158512.28125
v -1523.3699951171875 -22688.4921875 158588.375
v -1446.8125 -22787.087890625 158418.921875
v -1474.4984130859375 -22900.595703125 158498.28125
v -1284.3082275390625 -22911.3671875 158211.640625
v -1254.6962890625 -22850.884765625 158096.8125
v -1251.325927734375 -22821.056640625 158029.109375
v -1265.2891845703125 -22802.830078125 157967.96875
v -1257.5853271484375 -22831.828125 157897
v -1218.343505859375 -22857.51171875 157939.015625
v -1216.4176025390625 -22886.51171875 158011.84375
v -1249.1591796875 -22949.48046875 158132.28125
v -1286.9564208984375 -23051.388671875 158266.265625
v -1321.6240234375 -23130.9296875 158307.8125
v -1472.5723876953125 -23029.84765625 158487.078125
v -1551.296630859375 -22758.916015625 158628.53125
v -1554.1856689453125 -22517.814453125 158689.21875
v -1568.6304931640625 -22319.79296875 158734.5
v -1587.16796875 -22555.09765625 158712.546875
v -1594.631103515625 -22647.064453125 158692.015625
v -1518.5550537109375 -23017.419921875 158531.890625
v -1358.9398193359375 -23174.01171875 158332.09375
v -1322.5870361328125 -23193.896484375 158285.40625
v -1281.6600341796875 -23143.357421875 158246.1875
v -1265.5299072265625 -23108.55859375 158195.3125
v -1266.252197265625 -23067.130859375 157973.5625
v -1212.565673828125 -22922.966796875 157960.953125
v -1211.3619384765625 -22918.82421875 157896.078125
v -1238.5662841796875 -23002.505859375 157879.265625
v -1222.677001953125 -22941.1953125 157863.390625
v -1229.1771240234375 -22897.28125 157864.796875
v -1296.5863037109375 -22868.283203125 157842.390625
v -1297.7900390625 -22908.880859375 157821.375
v -1265.0484619140625 -22917.16796875 157827.453125
v -1276.8450927734375 -22941.1953125 157817.640625
v -1275.641357421875 -22993.392578125 157819.515625
v -1262.6409912109375 -23019.904296875 157847.984375
v -1244.34423828125 -22941.1953125 157834.921875
v -1244.82568359375 -22990.078125 157843.3125
v -1301.4012451171875 -23113.529296875 157944.15625
v -1316.568359375 -23190.583984375 158016.046875
v -1280.215576171875 -23187.26953125 158151.421875
v -1284.5489501953125 -23193.068359375 158211.640625
v -1300.6790771484375 -23205.49609375 158244.796875
v -1335.828125 -23240.294921875 158255.0625
v -1363.9954833984375 -23227.8671875 158295.203125
v -1479.7947998046875 -23134.2421875 158443.65625
v -1527.9442138671875 -23101.1015625 158486.140625
v -1314.642333984375 -23232.009765625 158220.515625
v -1293.6973876953125 -23215.439453125 158166.828125
v -1330.0501708984375 -23239.466796875 158138.828125
v -1385.9034423828125 -23220.41015625 158027.71875
v -1408.7744140625 -23241.123046875 158116.875
v -1420.330322265625 -23210.46875 158025.84375
v -1453.5533447265625 -23212.125 158111.75
v -1514.94384765625 -23174.01171875 158277
v -1578.7418212890625 -23096.130859375 158367.5625
v -1626.6505126953125 -22995.048828125 158436.65625
v -1621.11328125 -22975.9921875 158510.890625
v -1601.1312255859375 -23039.7890625 158475.40625
v -1557.796875 -23110.21484375 158453.46875
v -1507.480712890625 -23183.126953125 158357.765625
v -1465.5906982421875 -23225.380859375 158261.59375
v -1431.8861083984375 -23245.265625 158183.171875
v -1397.2186279296875 -23260.1796875 158201.84375
v -1338.476318359375 -23249.408203125 158221.921875
v -1372.662353515625 -23253.55078125 158259.265625
v -1442.7197265625 -23237.810546875 158277
v -1490.62841796875 -23163.2421875 158414.25
v -1564.5377197265625 -23037.3046875 158529.5625
v -1626.40966796875 -22870.76953125 158592.109375
v -1657.706787109375 -22671.091796875 158676.609375
v -1627.3726806640625 -22666.12109375 158691.546875
v -1606.427734375 -22860.826171875 158610.3125
v -1575.130615234375 -22889.826171875 158600.984375
v -1628.576416015625 -22563.3828125 158721.421875
v -1610.7611083984375 -22337.193359375 158752.234375
v -1582.83447265625 -22072.0625 158757.84375
v -1535.8887939453125 -21818.53125 158720.484375
v -1510.6103515625 -21637.91015625 158697.609375
v -1535.6480712890625 -21647.0234375 158737.765625
v -1573.20458984375 -21811.90234375 158754.5625
v -1614.372314453125 -21742.306640625 158765.765625
v -1625.44677734375 -22089.4609375 158762.96875
v -1638.447021484375 -21705.849609375 158758.296875
v -1657.9476318359375 -21656.138671875 158742.4375
v -1609.557373046875 -21632.939453125 158761.109375
v -1585.001220703125 -21645.3671875 158762.5
v -1555.870849609375 -21607.25390625 158741.96875
v -1524.3330078125 -21608.083984375 158713.953125
v -1544.5557861328125 -21584.0546875 158709.28125
v -1516.1475830078125 -21598.140625 158668.203125
v -1509.1658935546875 -21647.0234375 158627.125
v -1524.57373046875 -21830.958984375 158622.921875
v -1538.2962646484375 -22029.806640625 158594.90625
v -1525.7774658203125 -22255.16796875 158592.578125
v -1569.5933837890625 -22214.5703125 158560.828125
v -1523.3699951171875 -22389.390625 158584.640625
v -1532.7591552734375 -21678.5078125 158587.4375
v -1552.0189208984375 -21785.388671875 158583.703125
v -1572.24169921875 -21964.353515625 158571.578125
v -1556.111572265625 -21655.310546875 158571.578125
v -1533.2406005859375 -21637.91015625 158587.4375
v -1522.406982421875 -21607.25390625 158615.453125
v -1544.5557861328125 -21608.083984375 158589.78125
v -1555.1485595703125 -21627.96875 158573.90625
v -1595.8348388671875 -21628.796875 158562.234375
v -1606.18701171875 -21659.453125 158558.96875
v -1594.149658203125 -21772.9609375 158566.4375
v -1612.4464111328125 -21947.78125 158561.296875
v -1643.021240234375 -21808.587890625 158565.96875
v -1630.0208740234375 -21647.853515625 158561.765625
v -1678.4111328125 -21635.423828125 158593.984375
v -1681.300048828125 -21599.798828125 158627.59375
v -1668.0589599609375 -21587.369140625 158688.75
v -1658.9105224609375 -21618.025390625 158734.03125
v -1620.3909912109375 -21608.912109375 158751.296875
v -1597.03857421875 -21598.96875 158748.5
v -1586.4456787109375 -21574.94140625 158720.03125
v -1577.29736328125 -21607.25390625 158575.3125
v -1628.335693359375 -21588.19921875 158731.6875
v -1618.705810546875 -21570.798828125 158708.359375
v -1618.946533203125 -21564.169921875 158668.203125
v -1596.55712890625 -21564.169921875 158688.75
v -1648.5584716796875 -21577.427734375 158627.125
v -1659.1513671875 -21598.140625 158596.3125
v -1636.7618408203125 -21608.912109375 158575.3125
v -1617.0206298828125 -21586.541015625 158595.375
v -1607.14990234375 -21568.314453125 158635.53125
v -1586.92724609375 -21565 158658.40625
v -1555.870849609375 -21570.798828125 158677.546875
v -1534.9259033203125 -21586.541015625 158632.265625
v -1543.83349609375 -21593.169921875 158605.1875
v -1565.982177734375 -21591.51171875 158594.90625
v -1585.7235107421875 -21575.76953125 158614.515625
v -1566.2230224609375 -21572.45703125 158636.921875
v -1555.389404296875 -21582.3984375 158615.453125
vn -0.009560762904584408 -0.002906766487285495 0.0003775334625970572
vn -0.009909790009260178 0.0007203254499472678 0.0011301332851871848
vn -0.009596019051969051 -0.0012854046653956175 -0.0025028276722878218
vn -0.009370751678943634 0.0026128015015274286 -0.0023156595416367054
vn -0.007436275947839022 0.0024437056854367256 -0.00622335122898221
vn -0.006907116621732712 0.006112138740718365 -0.0038643882144242525
vn -0.00860107783228159 0.005100565031170845 -0.0000754806533223018
vn -0.006048274226486683 0.007927988655865192 -0.0007519187056459486
vn -0.00812534336000681 0.005398052278906107 0.0021999613381922245
vn -0.009218193590641022 0.0024013149086385965 0.0030427949968725443
vn -0.009787129238247871 -0.0009815299417823553 0.0018024167511612177
vn -0.009213607758283615 -0.0037712599150836468 -0.0009418262634426355
vn -0.008518088608980179 -0.004681422375142574 -0.0023508421145379543
vn -0.006914842873811722 -0.006077499594539404 -0.0039049903862178326
vn -0.0052816118113696575 -0.006584557704627514 -0.00536173302680254
vn -0.007232797797769308 -0.0026128028985112906 -0.006392175331711769
vn -0.007464313879609108 -0.006215358152985573 -0.002377674914896488
vn -0.009324891492724419 -0.003608821425586939 -0.0001510178262833506
vn -0.006939476355910301 -0.00718597462400794 0.000453260145150125
vn -0.008692821487784386 -0.0036901808343827724 0.003288984065875411
vn -0.009053357876837254 -0.00024029272026382387 0.004240161739289761
vn -0.008690409362316132 0.0017173548694700003 0.004639770835638046
vn -0.008114567026495934 0.00440900307148695 0.0038359465543180704
vn -0.006376506760716438 0.007626008708029985 0.0010881911730393767
vn -0.008503646589815617 0.00294854654930532 0.0043582189828157425
vn -0.008270904421806335 0.00019661088299471885 0.005617248825728893
vn -0.007871665991842747 0.00006554141145898029 0.006167056504637003
vn -0.006558076944202185 -0.002231293125078082 0.0072120013646781445
vn -0.00770737836137414 -0.0020605919416993856 0.006029119249433279
vn -0.005912818480283022 -0.00510056409984827 0.006246825214475393
vn -0.0035521879326552153 -0.008887140080332756 0.0028983959928154945
vn -0.0031722700223326683 -0.009380211122334003 -0.0013958306517452002
vn -0.003985595889389515 -0.008590245619416237 -0.003212896641343832
vn -0.00471680099144578 -0.0072464719414711 -0.005023985635489225
vn -0.0012215273454785347 -0.00693854782730341 -0.007096789311617613
vn -0.002875881502404809 -0.004251467529684305 -0.008582210168242455
vn -0.0037559675984084606 0.000981528777629137 -0.009215709753334522
vn -0.004158424213528633 0.005062932148575783 -0.007554748095571995
vn -0.003953872714191675 0.008007196709513664 -0.004500187933444977
vn -0.003094882471486926 0.009318207390606403 -0.0018954445840790868
vn -0.0010812480468302965 0.009722933173179626 -0.002072551753371954
vn -0.00375193078070879 0.009168324060738087 -0.0013655925868079066
vn -0.006492653861641884 0.007336176931858063 -0.002006479073315859
vn -0.007004419341683388 0.007001210004091263 -0.0013860594481229782
vn -0.009275787509977818 0.003404228948056698 -0.0015398035757243633
vn -0.005558584816753864 0.006007869727909565 -0.005745226982980967
vn -0.008866516873240471 0.002612801268696785 -0.0038155142683535814
vn -0.009928387589752674 0.0008945278823375702 -0.0007917929324321449
vn -0.009568511508405209 0.0014152848161756992 0.0025378253776580095
vn -0.009100265800952911 0.003486266825348139 0.0022430133540183306
vn -0.008775796741247177 -0.00041497222264297307 0.004776316229254007
vn -0.007418173365294933 -0.0013720159186050296 0.006564166396856308
vn -0.006783165968954563 -0.0014152833027765155 0.007210105657577515
vn -0.009181338362395763 -0.0005022679688408971 0.003930744715034962
vn -0.009965301491320133 0.00006554053834406659 0.000829736643936485
vn -0.00975969061255455 0.0008945277077145875 -0.0019870225805789232
vn -0.00826489832252264 0.0021033284720033407 -0.005221826024353504
vn -0.005459423642605543 0.0043697417713701725 -0.007148429751396179
vn -0.009588263928890228 0.0006767376326024532 -0.0027581206522881985
vn -0.007290254812687635 0.0016742919106036425 -0.006636937148869038
vn -0.005060302093625069 0.0031980108469724655 -0.008010372519493103
vn -0.009647529572248459 0.0003276453062426299 -0.0026110948529094458
vn -0.009628823027014732 -0.0002839718363247812 0.002684235805645585
vn -0.007699535693973303 -0.0007203242275863886 0.006340211722999811
vn -0.0032599368132650852 -0.0010250022169202566 0.009397988207638264
vn -0.005362216848880053 -0.00037131152930669487 0.00843260157853365
vn -0.008471398614346981 -0.00041497216443531215 0.005297471769154072
vn -0.009982846677303314 -0.0003713129844982177 -0.0004526468401309103
vn -0.00874532014131546 0.00019660918042063713 -0.004845691844820976
vn -0.006193369626998901 0.0007203239947557449 -0.007818140089511871
vn -0.0023182120639830828 0.0021886792965233326 -0.009478162974119186
vn -0.00011315636220388114 0.0038116895593702793 -0.009244361892342567
vn -0.001519294106401503 0.005580652970820665 -0.0081576993688941
vn 0.0002639518352225423 0.007246470078825951 -0.006886145565658808
vn -0.0009177999454550445 0.008590244688093662 -0.005036402028053999
vn 0.0036399459931999445 0.004873339552432299 -0.007937339134514332
vn 0.005674100946635008 0.0028649303130805492 -0.007719893474131823
vn 0.003975781612098217 0.0019321494037285447 -0.008969947695732117
vn 0.00839361920952797 0.0008945271838456392 -0.005361621733754873
vn 0.005216915160417557 0.0006331366603262722 -0.00850781612098217
vn -0.0002642344043124467 0.0007203236455097795 -0.009970522485673428
vn 0.004109429195523262 0.0073361764661967754 -0.00541231082752347
vn 0.004961939994245768 0.005796253215521574 -0.006463946308940649
vn 0.00742286816239357 0.003445279784500599 -0.005747267045080662
vn 0.008319644257426262 0.0016742921434342861 -0.005289637017995119
vn 0.0012421563733369112 0.009115200489759445 -0.0039204806089401245
vn 0.003061507595703006 0.008567794226109982 -0.0041497074998915195
vn 0.0007485446985810995 0.009023184888064861 -0.0042452095076441765
vn -0.0008647655486129224 0.007063338067382574 -0.00702576944604516
vn 0.00003770842158701271 0.003932544495910406 -0.00919421948492527
vn 0.0024386809673160315 0.0068435585126280785 -0.006871575023978949
vn 0.005261309910565615 0.006843558978289366 -0.005048200022429228
vn 0.006833710242062807 0.0056529538705945015 -0.004620013292878866
vn 0.008745462633669376 0.002486051758751273 -0.004163703881204128
vn 0.007598148193210363 0.0036495355889201164 -0.005380431190133095
vn 0.004397642333060503 0.004758461378514767 -0.007616940885782242
vn 0.002371297450736165 0.0022738638799637556 -0.009444919414818287
vn -0.00007550373993581161 -0.00019661159603856504 -0.009997782297432423
vn 0.003421589033678174 -0.0008510023471899331 -0.009357805363833904
vn 0.0013171349419280887 -0.0040127430111169815 -0.009064383804798126
vn 0.004143997561186552 -0.004369744099676609 -0.007983271032571793
vn 0.006018724292516708 0.001760380924679339 -0.0077894809655845165
vn 0.0063147395849227905 -0.0015017387922853231 -0.0076071578077971935
vn 0.008478681556880474 -0.000021847805328434333 -0.005302026402205229
vn 0.006587186362594366 -0.003730757161974907 -0.006533790845423937
vn 0.0036302872467786074 -0.006215359084308147 -0.006941925268620253
vn -0.0003587797691579908 -0.007792954798787832 -0.0062562874518334866
vn -0.00022693898063153028 -0.009286138229072094 -0.0037035297136753798
vn 0.002280706539750099 -0.009702134877443314 -0.0008166765910573304
vn 0.004224760923534632 -0.007569190114736557 -0.0049858554266393185
vn 0.004664308857172728 -0.008453098125755787 -0.0026056377682834864
vn 0.006990036461502314 -0.005025206599384546 -0.005087897181510925
vn 0.008291720412671566 -0.0026970538310706615 -0.004896250087767839
vn 0.00934169813990593 -0.0010684580774977803 -0.003404565853998065
vn 0.008841242641210556 -0.003608821891248226 -0.002967969747260213
vn 0.0077010150998830795 -0.005760593805462122 -0.0027404255233705044
vn 0.006641712971031666 -0.007365799974650145 -0.0012777504744008183
vn 0.006128950510174036 -0.007901282049715519 0.00007551359885837883
vn 0.002657358068972826 -0.009349565953016281 0.0023503326810896397
vn -0.0009035717230290174 -0.008358431980013847 0.005414809565991163
vn -0.0035757357254624367 -0.00576059240847826 0.007350489031523466
vn 0.008256375789642334 -0.005580654367804527 -0.0008297903113998473
vn 0.005282938480377197 -0.007980946451425552 0.0028974227607250214
vn 0.008125456981360912 -0.005544343963265419 0.0017992214998230338
vn 0.005097307730466127 -0.006747395731508732 0.0053376127034425735
vn 0.001329915365204215 -0.007927987724542618 0.005947968922555447
vn 0.00030215189326554537 -0.006385005544871092 0.007690279744565487
vn -0.002965920837596059 -0.00417220639064908 0.008590459823608398
vn -0.004214473534375429 -0.002697051502764225 0.008658182807266712
vn -0.0010178441880270839 -0.0020605912432074547 0.009732315316796303
vn 0.003482509171590209 -0.005212871357798576 0.007790898904204369
vn 0.0004906884860247374 -0.004012740217149258 0.009146427735686302
vn 0.0019486765377223492 -0.0034862649627029896 0.009167803451418877
vn 0.007605694700032473 -0.004835139494389296 0.004332994110882282
vn 0.005899345502257347 -0.004172206856310368 0.006913061253726482
vn 0.007540888153016567 -0.00290676555596292 0.005889458116143942
vn 0.005165122915059328 -0.0019321495201438665 0.008341960608959198
vn 0.003351785009726882 -0.0008074559736996889 0.009386882185935974
vn -0.0008290397236123681 -0.0004149713786318898 0.009956931695342064
vn -0.002902507083490491 -0.00015292118769139051 0.009568284265697002
vn 0.0022461917251348495 -0.00006553882121806964 0.009744245558977127
vn 0.0057422928512096405 -0.00010923128138529137 0.008186216466128826
vn 0.008307534269988537 -0.00041497210622765124 0.005550916772335768
vn 0.008960452862083912 -0.0010684567969292402 0.004309138283133507
vn 0.009801655076444149 -0.0013720167335122824 0.0014300767797976732
vn 0.008908737450838089 -0.0032393804285675287 0.003184464294463396
vn 0.009829642251133919 -0.0017603823216632009 -0.0005283835344016552
vn 0.009232036769390106 -0.0036495362874120474 0.0012043185997754335
vn 0.009405465796589851 -0.0031150926370173693 -0.001354034524410963
vn 0.009628921747207642 -0.0006767385057173669 -0.0026126415468752384
vn 0.00963748898357153 0.0005459020612761378 -0.0026116676162928343
vn 0.009999403730034828 -0.00010923262016149238 1.7796287013482903e-11
vn 0.009933039546012878 -0.00024029321502894163 0.0011300384066998959
vn 0.009671035222709179 -0.00015292316675186157 -0.002539230277761817
vn 0.007824868895113468 0.00006553938874276355 -0.006226325873285532
vn 0.003826606087386608 0.00010923111403826624 -0.009238244034349918
vn 0.00030199496541172266 -0.00015292437456082553 -0.009994269348680973
vn -0.004034365992993116 0.00019660846737679094 -0.009147963486611843
vn -0.00696211913600564 0.00019660878751892596 -0.007175670471042395
vn -0.008775796741247177 -0.00041497379424981773 -0.004776316229254007
vn 0.005986579228192568 -0.0001529240544186905 -0.00800858810544014
vn -0.005982121918350458 -0.00041497431811876595 -0.008002625778317451
vn -0.002972467802464962 -0.00041497458005324006 -0.0095389848574996
vn -0.0009801503038033843 0.00006553878483828157 -0.009951633401215076
vn -0.0036866420414298773 -0.00010923413356067613 -0.009294983930885792
vn -0.006107201799750328 -0.00010923390800599009 -0.00791771151125431
vn -0.008271535858511925 0.00015292182797566056 -0.005617678165435791
vn -0.009609452448785305 0.0005022682016715407 -0.0027214244473725557
vn -0.009829415939748287 0.0003713131882250309 0.001801307313144207
vn -0.007307964377105236 0.0009380391566082835 0.00676119327545166
vn -0.0023181168362498283 0.0017173555679619312 0.009574811905622482
vn -0.0049265287816524506 0.005398052744567394 0.006825712043792009
vn -0.00824780948460102 0.004681422375142574 0.003171423450112343
vn -0.008905993774533272 0.0043303994461894035 -0.0013895744923502207
vn -0.00808155257254839 0.003527184948325157 -0.004716723691672087
vn -0.006962829735130072 0.0018463359447196126 -0.0069361403584480286
vn -0.004686370026320219 0.0019321495201438665 -0.008620019070804119
vn -0.005203083623200655 0.00502520427107811 -0.006904726382344961
vn -0.005505995359271765 0.007453820668160915 -0.0037582668010145426
vn -0.005583447404205799 0.008285758085548878 -0.0004139265220146626
vn -0.004256446845829487 0.008612532168626785 0.002776139648631215
vn -0.00240891776047647 0.009691457264125347 -0.0005222809268161654
vn -0.0022919292096048594 0.009253358468413353 -0.0030203352216631174
vn -0.0029249617364257574 0.0076260073110461235 -0.005769628565758467
vn -0.0025074889417737722 0.005175533704459667 -0.008180852979421616
vn -0.0021523339673876762 0.0021460240241140127 -0.009526911191642284
vn 0.0006783062126487494 0.0022312928922474384 -0.009724259376525879
vn -0.00032057068892754614 0.00536121753975749 -0.008435317315161228
vn -0.0009557813173159957 0.00803329423069954 -0.00587815186008811
vn 0.00043237637146376073 0.009115200489759445 -0.004089763853698969
vn 0.0007330629741773009 0.0077101425267755985 -0.00632584560662508
vn 0.0028912837151437998 0.0076260073110461235 -0.005786578636616468
vn 0.0019990229047834873 0.00536121753975749 -0.008201296441257
vn 0.000186257588211447 0.009839963167905807 -0.0017721240874379873
vn 0.0028770428616553545 0.009004264138638973 -0.0032627969048917294
vn -0.0008908610325306654 0.009855159558355808 0.0014429806033149362
vn -0.00130388920661062 0.008453099057078362 0.005181215237826109
vn -0.0004712956724688411 0.005361220333725214 0.008428237400949001
vn 0.003061496652662754 0.0025283521972596645 0.009177944622933865
vn 0.0020984052680432796 0.00019661155238281935 0.009775379672646523
vn 0.001429912867024541 -0.00006553879211423919 0.009897022508084774
vn 0.0041726273484528065 0.00010923409718088806 0.00908720213919878
vn 0.006729046814143658 0.0004586264258250594 0.007383061107248068
vn 0.006140677724033594 0.0035271868109703064 0.007060525938868523
vn 0.0027715882752090693 0.007001211401075125 0.0065803746692836285
vn 0.0010748456697911024 0.009286138229072094 0.003551385598257184
vn 0.0012088040821254253 0.009896226227283478 0.000776849570684135
vn 0.0032059175428003073 0.009078915230929852 0.0027009982150048018
vn 0.005302392411977053 0.007063339930027723 0.004689760971814394
vn 0.007842889055609703 0.005062934011220932 0.0035854976158589125
vn 0.008544905111193657 0.0018892628140747547 0.004838933702558279
vn 0.009291790425777435 0.0002839728840626776 0.0036853752098977566
vn 0.009982846677303314 0.0003713129844982177 0.0004526468401309103
vn 0.00960698351264 0.002231294522061944 0.0016514192102476954
vn 0.008173731155693531 0.005760593339800835 -0.00007541727245552465
vn 0.005397291854023933 0.008285758085548878 0.001488440204411745
vn 0.002624590415507555 0.009635298512876034 -0.0005220650928094983
vn 0.005247756838798523 0.008406085893511772 -0.0013411774998530746
vn 0.006525869946926832 0.006385006010532379 -0.00407979404553771
vn 0.004699295852333307 0.004873339552432299 -0.007359835784882307
vn 0.0033465009182691574 0.002528349170461297 -0.009077906608581543
vn 0.0026847997214645147 0.0001966083946172148 -0.009630845859646797
vn 0.005578932352364063 0.0015449200291186571 -0.008154062554240227
vn 0.008181165903806686 0.0009380371775478125 -0.005673499777913094
vn 0.007298972457647324 0.003404228249564767 -0.005927582271397114
vn 0.009400371462106705 0.0023588757030665874 -0.002463475801050663
vn 0.009523901157081127 -0.00010923311492661014 -0.003046862781047821
vn -0.008600621484220028 -0.001975002232939005 0.004704113118350506
vn -0.005494282115250826 -0.0020178158301860094 0.008108099922537804
vn -0.009372333995997906 -0.0007638980750925839 0.0034023255575448275
vn -0.005644919816404581 -0.000763897318392992 0.008218961767852306
vn -0.009018839336931705 -0.0003276450152043253 0.004307340830564499
vn -0.007124112918972969 -0.00006553926505148411 0.007017316296696663
vn -0.009885941632091999 0.0000655406474834308 0.0015046127373352647
vn -0.008259178139269352 0.0015449222410097718 0.005422103218734264
vn -0.009309161454439163 0.002990269334986806 0.002097092568874359
vn -0.009684134274721146 0.0014585246099159122 -0.0020224363543093204
vn -0.00905577838420868 0.00006553971616085619 -0.004241295158863068
vn -0.008850988931953907 0.00028397151618264616 -0.004645357374101877
vn -0.009998262859880924 -0.00010923259105766192 0.0001510233705630526
vn -0.009752732701599598 0.0004149726592004299 -0.002170716179534793
vn -0.009891096502542496 -0.0012854041997343302 0.0007168905576691031
vn -0.00897091906517744 -0.0029067660216242075 0.0033276600297540426
vn -0.009724424220621586 -0.0023163927253335714 0.0002644057385623455
vn -0.009819195605814457 -0.0008510011248290539 -0.0016909177647903562
vn -0.009562895633280277 -0.002146025886759162 -0.001986354123800993
vn -0.00932140089571476 0.0008945274748839438 -0.0035087470896542072
vn -0.009165176190435886 -0.0017173546366393566 -0.0036125120241194963
vn -0.008890773169696331 0.0005459017120301723 -0.00454490352421999
vn -0.008380956016480923 0.0029902684036642313 -0.004562661051750183
vn -0.007700213231146336 0.002103328239172697 -0.006023514550179243
vn -0.007688313722610474 -0.0016312010120600462 -0.006182961631566286
vn -0.007930049672722816 -0.0036901822313666344 -0.004847357049584389
vn -0.00879448838531971 -0.004052725620567799 -0.0024964765179902315
vn -0.006840346846729517 -0.005796255078166723 -0.0044286660850048065
vn -0.004735252819955349 -0.005287248641252518 -0.007044315803796053
vn -0.0049399700947105885 -0.001544922823086381 -0.008556278422474861
vn -0.006486767902970314 0.0006767368759028614 -0.0075804926455020905
vn -0.004906026180833578 0.0014152830699458718 -0.00859813205897808
vn -0.006012766156345606 0.0031150912400335073 -0.00735818175598979
vn -0.006777646951377392 0.004835139028728008 -0.005539397709071636
vn -0.007424693554639816 0.004911447409540415 -0.004555392544716597
vn -0.007855631411075592 0.003771258983761072 -0.004905777517706156
vn -0.008504072204232216 0.0022312935907393694 -0.004764670971781015
vn -0.005257357377558947 0.004835139028728008 -0.006998687516897917
vn -0.0066607678309082985 0.0026970517355948687 -0.0069541409611701965
vn -0.008151708170771599 0.001458524027839303 -0.005605564918369055
vn -0.0022122440859675407 0.008382339030504227 -0.004984211642295122
vn -0.004512215964496136 0.007820259779691696 -0.00429923739284277
vn -0.004979085177183151 0.006875352468341589 -0.005285663530230522
vn -0.004842380993068218 0.005138098262250423 -0.007081757299602032
vn -0.003743091132491827 0.0034862649627029896 -0.008592742495238781
vn -0.003224923275411129 0.0015449199127033353 -0.009338795207440853
vn -0.002170716179534793 -0.0004149746091570705 -0.009752732701599598
vn -0.0021860292181372643 -0.00421187886968255 -0.008802349679172039
vn -0.00045320604112930596 -0.00671508489176631 -0.007396095898002386
vn -0.00033992520184256136 -0.007094203028827906 -0.007039654068648815
vn 0.0035913626197725534 -0.007216292433440685 -0.0059183812700212
vn -0.0009781619301065803 -0.007765498943626881 -0.0062241642735898495
vn 0.0023819811176508665 -0.006077500060200691 -0.007575628813356161
vn 0.00047187681775540113 -0.002864933107048273 -0.009569195099174976
vn 0.0007543271058239043 -0.0001966115814866498 -0.00996957067400217
vn -0.0006410246132872999 0.0015880742575973272 -0.009852264076471329
vn -0.0013159161899238825 0.003690179903060198 -0.009200594387948513
vn -0.002305590780451894 0.005972882267087698 -0.007681726478040218
vn -0.002419166499748826 0.007927987724542618 -0.005594161804765463
vn -0.0026501640677452087 0.008867023512721062 -0.0037884728517383337
vn -0.000018796725271386094 0.0090971440076828 -0.004152302630245686
vn 0.0009171628043986857 0.009691456332802773 -0.002287898678332567
vn -0.0004669602494686842 0.009611545130610466 -0.0027203208301216364
vn 0.0010504383826628327 0.007737893611192703 -0.0062467255629599094
vn 0.0031434663105756044 0.008985171094536781 -0.0030635457951575518
vn 0.0038771135732531548 0.009202864952385426 -0.000524650327861309
vn 0.0007274622330442071 0.009302261285483837 -0.003597045550122857
vn 0.0038046943955123425 0.00811066571623087 -0.004443129524588585
vn 0.002738980343565345 0.006779579445719719 -0.006821677554398775
vn -0.0019842449110001326 0.004132457543164492 -0.008887382224202156
vn -0.0044227843172848225 0.00188926060218364 -0.008767534978687763
vn -0.005708832293748856 0.000720323936548084 -0.008178653195500374
vn -0.005555689334869385 0.000021845586161362007 -0.008314676582813263
vn -0.005492634605616331 0.00006553904677275568 -0.00835623499006033
vn -0.002757664304226637 0.00015292118769139051 -0.009611030109226704
vn -0.0008672039839439094 0.0007203236455097795 -0.009936250746250153
vn 0.000056583481637062505 0.002273863647133112 -0.00973788183182478
vn 0.004389354493469 0.004409001208841801 -0.00782906636595726
vn 0.00843378622084856 0.002948545152321458 -0.004491917788982391
vn 0.007125426549464464 0.005688942037522793 -0.004106609150767326
vn 0.009466180577874184 0.0031150924041867256 -0.0008292363490909338
vn 0.007491066586226225 0.006485338788479567 -0.001350667211227119
vn 0.005796487908810377 0.008136147633194923 -0.0004514726751949638
vn 0.0072351666167378426 0.0015449202619493008 -0.0067279706709086895
vn 0.009960022754967213 0.0007203253335319459 0.0005282832426019013
vn 0.00999522302299738 0.00006554045830853283 0.0003020237782038748
vn 0.009444855153560638 -0.0004149724845774472 0.0032592180650681257
vn 0.009967477060854435 -0.0002839724184013903 -0.0007541686063632369
vn 0.00785717274993658 0.005796254612505436 0.0021606183145195246
vn 0.008941306732594967 0.004369743168354034 0.0009789681062102318
vn 0.009507264941930771 0.0020605933386832476 0.002316434634849429
vn 0.009295517578721046 0.00002184754157497082 0.003686853451654315
vn 0.008765507489442825 0.00252835126593709 0.004095523618161678
vn 0.008489424362778664 0.0007203260902315378 0.005235533230006695
vn 0.008757481351494789 0.002443707315251231 0.004163511097431183
vn 0.008564870804548264 0.004012742079794407 0.003246674779802561
vn 0.007701979484409094 0.006181069649755955 0.0015728626167401671
vn 0.006038823630660772 0.007901282049715519 -0.0010499281343072653
vn 0.00528681417927146 0.007032341323792934 -0.004753500688821077
vn 0.009008246473968029 0.004211877007037401 -0.0010543209500610828
vn 0.009584963321685791 0.001932151266373694 0.002096488606184721
vn 0.009746013209223747 -0.0005459021194837987 0.0021719164215028286
vn 0.008916052058339119 0.0004149737360421568 0.004509081598371267
vn 0.0076247695833444595 -0.0013287222245708108 0.0063322498463094234
vn 0.0074781132861971855 -0.0013287222245708108 0.006504792254418135
vn 0.007546550128608942 -0.0015017364639788866 0.006387047003954649
vn 0.007891038432717323 -0.0011118899565190077 0.006041127722710371
vn 0.006711245980113745 -0.0007203240529634058 0.007378367707133293
vn 0.004838296677917242 -0.0017173526575788856 0.008581467904150486
vn 0.0036458391696214676 -0.002654951298609376 0.008925193920731544
vn 0.004525118973106146 -0.003527184249833226 0.008190376684069633
vn 0.006096923258155584 -0.0036088202614337206 0.007057190407067537
vn 0.007043239660561085 -0.003932544961571693 0.005909979809075594
vn 0.008958323858678341 -0.0017173533560708165 0.004098673816770315
vn 0.009855215437710285 -0.0011118907714262605 0.0012800113763660192
vn 0.009342224337160587 -0.003486266592517495 -0.0007541817612946033
vn 0.009842668659985065 -0.001631199847906828 0.0006790157058276236
vn 0.00984894298017025 -0.00010923289664788172 -0.0017281144391745329
vn 0.008944394998252392 -0.0042118774726986885 -0.0015026237815618515
vn 0.00904829055070877 -0.0008510015322826803 -0.004171838518232107
vn 0.007309990003705025 0.003690180368721485 -0.005739914253354073
vn 0.002181601244956255 0.005471405107527971 -0.008081110194325447
vn 0.001091856975108385 0.003156580962240696 -0.009425701573491096
vn 0.004104582592844963 0.003321930533275008 -0.00849218387156725
vn 0.0026662200689315796 0.0011118893744423985 -0.009573660790920258
vn 0.004197702743113041 -0.0026549540925771 -0.008679315447807312
vn 0.006166768725961447 -0.006007871124893427 -0.005086889490485191
vn 0.006385956425219774 0.000502267386764288 -0.0076790158636868
vn 0.007700680289417505 -0.0031980129424482584 -0.005520165432244539
vn 0.007152548059821129 -0.006007871124893427 -0.003570230444893241
vn 0.0061494288966059685 -0.006907016504555941 -0.003804948879405856
vn 0.009304860606789589 -0.0035680378787219524 -0.0008298672619275749
vn 0.009092447347939014 -0.003852049820125103 0.0015776900108903646
vn 0.008000734262168407 -0.004642766434699297 0.0037990750279277563
vn 0.005636962596327066 -0.007276511751115322 0.003908583894371986
vn 0.003923535812646151 -0.006779579911381006 0.006216363050043583
vn 0.0035731354728341103 -0.005831803195178509 0.007295394316315651
vn -0.00026428705314174294 -0.0067473952658474445 0.0073758261278271675
vn 0.006881281733512878 -0.007155519910156727 0.001202702522277832
vn 0.007694093510508537 -0.006351318676024675 -0.0006794685032218695
vn 0.003719218308106065 -0.00911520142108202 -0.0017551400233060122
vn 0.00045302824582904577 -0.009286138229072094 -0.0036827162839472294
vn -0.0024779601953923702 -0.009410140104591846 -0.0023041244130581617
vn -0.0044619073159992695 -0.008136148564517498 -0.003727528266608715
vn -0.007007630541920662 -0.00684355990961194 -0.002014647703617811
vn -0.007929148152470589 -0.00600787065923214 -0.001016909722238779
vn -0.008675376884639263 -0.004949462134391069 -0.000490574340801686
vn -0.00940151046961546 -0.0034042291808873415 0.00015109138621482998
vn -0.008559714071452618 -0.003932545427232981 0.0033565436024218798
vn -0.008209568448364735 -0.005025205202400684 0.002711143344640732
vn -0.005990230944007635 -0.007032341323792934 0.0038292689714580774
vn -0.006016584578901529 -0.00779295340180397 0.0017523091519251466
vn -0.006464723963290453 -0.007626008242368698 -0.00022659181558992714
vn -0.004986865445971489 -0.00861253123730421 -0.0009774831123650074
vn -0.0007273871451616287 -0.009965559467673302 -0.0003981594636570662
vn 0.0038533753249794245 -0.009202864952385426 0.0006773220375180244
vn 0.0012923567555844784 -0.009318207390606403 0.003391286823898554
vn -0.0033975550904870033 -0.00918568205088377 0.0020198659040033817
vn -0.0009780937107279897 -0.008358431980013847 0.005401845555752516
vn -0.0038209976628422737 -0.005434779450297356 0.0074741654098033905
vn -0.006738525815308094 -0.004132458008825779 0.006124953739345074
vn -0.006021418608725071 -0.0034042280167341232 0.00722175557166338
vn -0.0012429046910256147 -0.0034042277839034796 0.009320215322077274
vn -0.003123694099485874 -0.004211876075714827 0.008514847606420517
vn 0.0009796367958188057 -0.003852048423141241 0.009176166728138924
vn -0.00039631142863072455 -0.0020178155973553658 0.009786284528672695
vn 0.0011481763795018196 -0.0009380364790558815 0.009889477863907814
vn 0.004033980891108513 -0.0002402919199084863 0.009147089906036854
vn 0.008300266228616238 -0.0005022677360102534 0.005554575473070145
vn 0.009594510309398174 0.0005895263166166842 0.0027564160991460085
vn 0.006724419072270393 0.0005895270733162761 0.007377984002232552
vn 0.004645357374101877 -0.00028397084679454565 0.008850988931953907
vn 0.0000755167129682377 0.00006554203719133511 0.009999499656260014
vn -0.0023926941212266684 -0.00019660838006529957 0.009707541204988956
vn -0.0042384616099298 0.0003713143814820796 0.009049727581441402
vn -0.005671987310051918 0.0010684588924050331 0.008166207931935787
vn -0.0018386312294751406 0.0018463386222720146 0.009654556401073933
vn 0.0023352939169853926 0.0013720184797421098 0.009626212529838085
vn 0.0042000641115009785 0.004758463706821203 0.00772764440625906
vn 0.007697871420532465 0.003972682636231184 0.0049960557371377945
vn 0.005015181377530098 0.007682245224714279 0.00397882703691721
vn 0.008313724771142006 0.005544344428926706 0.00037714545032940805
vn 0.009615077637135983 0.0005895254435017705 -0.0026837943587452173
vn 0.009007919579744339 -0.0005459031672216952 -0.00430805841460824
vn 0.007728610187768936 0.00019660893303807825 -0.006342706736177206
vn 0.00775913055986166 0.0005895248614251614 -0.006280792411416769
vn 0.004275348037481308 0.0006767366430722177 -0.009014622308313847
vn 0.008079188875854015 0.0010684565640985966 -0.005795266013592482
vn 0.007319134660065174 -0.00045862633851356804 -0.006798524409532547
vn 0.005800294224172831 -0.00037131423596292734 -0.00813748873770237
vn 0.004172069951891899 0.00019660848192870617 -0.009085988625884056
vn 0.0039659240283071995 -0.000021848436517757364 -0.009179922752082348
vn 0.007063951343297958 0.0013720158021897078 -0.006943929474800825
vn 0.007908651605248451 0.004448177292943001 -0.004203206859529018
vn 0.005143939983099699 0.004949461203068495 -0.00700305076315999
vn 0.004163240548223257 0.0024013130459934473 -0.008769328705966473
vn 0.0009045287733897567 0.0024013128131628036 -0.009665170684456825
vn 0.0006791078485548496 0.0001092309903469868 -0.00997631624341011
vn 0.002172167645767331 -0.00019661155238281935 -0.009759253822267056
vn 0.0007542550447396934 0.00024029178894124925 -0.009968618862330914
vn -0.001504641491919756 -0.00002184855293307919 -0.009886130690574646
vn -0.003010374028235674 0.0011986917816102505 -0.00946048554033041
vn -0.007250895723700523 0.0020605919416993856 -0.006571033503860235
vn -0.007955541834235191 0.005616857670247555 -0.0022716226521879435
vn -0.006405958905816078 0.0071555208414793015 0.0027860745321959257
vn -0.006396351847797632 0.003690182464197278 0.006743087898939848
vn -0.00321313738822937 0.003811692586168647 0.008668722584843636
vn 0.00047132279723882675 0.0053980532102286816 0.008404693566262722
vn 0.0013770941877737641 0.00856779608875513 0.004969556350260973
vn 0.001666820957325399 0.0056889415718615055 -0.008053424768149853
vn -0.003093876177445054 0.007155521307140589 0.006263102404773235
vn -0.002168507780879736 0.009185682982206345 0.003304662648588419
vn -0.0019535815808922052 0.00980731938034296 -1.5978178780073904e-9
vn 0.0005672235856764019 0.009862476028501987 0.0015523649053648114
vn -0.003639030735939741 0.009004265069961548 -0.0023834160529077053
vn -0.004919320344924927 0.006518535315990448 -0.005771393422037363
vn -0.00258267461322248 0.004835138563066721 -0.008363685570657253
vn -0.0007324285106733441 0.008236514404416084 -0.005623466335237026
vn -0.0002996179973706603 0.00963529758155346 -0.0026591846253722906
vn 0.0010676009114831686 0.009902410209178925 -0.0008958251564763486
vn 0.0035932748578488827 0.009302261285483837 0.0007458557956852019
vn 0.005389745347201824 0.008110666647553444 -0.0022732666693627834
vn 0.004914774559438229 0.007124927826225758 -0.005008032079786062
vn 0.0022484257351607084 0.007682243827730417 -0.00599397299811244
vn 0.0010060339700430632 0.009078914299607277 -0.004069547168910503
vn 0.002362871076911688 0.009481810964643955 -0.0021241737995296717
vn 0.003057229332625866 0.00870002806186676 -0.0038681861478835344
s on
f 1//1 2//2 3//3
f 2//2 4//4 3//3
f 3//3 4//4 5//5
f 5//5 4//4 6//6
f 4//4 7//7 6//6
f 6//6 7//7 8//8
f 8//8 7//7 9//9
f 7//7 2//2 9//9
f 9//9 2//2 10//10
f 10//10 2//2 11//11
f 2//2 1//1 11//11
f 11//11 1//1 12//12
f 1//1 13//13 12//12
f 12//12 13//13 14//14
f 14//14 13//13 15//15
f 15//15 13//13 16//16
f 13//13 3//3 16//16
f 16//16 3//3 5//5
f 2//2 7//7 4//4
f 1//1 3//3 13//13
f 14//14 17//17 12//12
f 12//12 17//17 18//18
f 17//17 19//19 18//18
f 19//19 20//20 18//18
f 18//18 20//20 11//11
f 20//20 21//21 11//11
f 21//21 22//22 11//11
f 11//11 22//22 10//10
f 22//22 23//23 10//10
f 10//10 23//23 9//9
f 23//23 24//24 9//9
f 9//9 24//24 8//8
f 11//11 12//12 18//18
f 24//24 23//23 25//25
f 23//23 22//22 25//25
f 25//25 22//22 26//26
f 22//22 27//27 26//26
f 26//26 27//27 28//28
f 27//27 29//29 28//28
f 28//28 29//29 30//30
f 29//29 20//20 30//30
f 30//30 20//20 31//31
f 20//20 19//19 31//31
f 31//31 19//19 32//32
f 19//19 17//17 32//32
f 32//32 17//17 33//33
f 33//33 17//17 34//34
f 17//17 14//14 34//34
f 34//34 14//14 35//35
f 14//14 15//15 35//35
f 35//35 15//15 36//36
f 15//15 16//16 36//36
f 36//36 16//16 37//37
f 16//16 5//5 37//37
f 37//37 5//5 38//38
f 5//5 6//6 38//38
f 38//38 6//6 39//39
f 6//6 8//8 39//39
f 39//39 8//8 40//40
f 8//8 24//24 40//40
f 40//40 24//24 41//41
f 41//41 24//24 42//42
f 42//42 24//24 43//43
f 24//24 44//44 43//43
f 44//44 45//45 43//43
f 43//43 45//45 46//46
f 46//46 45//45 47//47
f 47//47 45//45 48//48
f 48//48 45//45 49//49
f 45//45 50//50 49//49
f 50//50 24//24 49//49
f 24//24 25//25 49//49
f 25//25 26//26 49//49
f 49//49 26//26 51//51
f 26//26 52//52 51//51
f 52//52 53//53 51//51
f 53//53 54//54 51//51
f 51//51 54//54 49//49
f 54//54 55//55 49//49
f 49//49 55//55 48//48
f 55//55 56//56 48//48
f 48//48 56//56 47//47
f 56//56 57//57 47//47
f 57//57 58//58 47//47
f 47//47 58//58 46//46
f 22//22 21//21 27//27
f 27//27 21//21 29//29
f 21//21 20//20 29//29
f 28//28 52//52 26//26
f 55//55 59//59 56//56
f 56//56 59//59 57//57
f 59//59 60//60 57//57
f 60//60 61//61 57//57
f 57//57 61//61 58//58
f 60//60 59//59 62//62
f 59//59 55//55 62//62
f 62//62 55//55 63//63
f 55//55 54//54 63//63
f 63//63 54//54 64//64
f 54//54 53//53 64//64
f 53//53 65//65 64//64
f 65//65 66//66 64//64
f 66//66 67//67 64//64
f 64//64 67//67 63//63
f 67//67 68//68 63//63
f 63//63 68//68 62//62
f 68//68 69//69 62//62
f 69//69 70//70 62//62
f 62//62 70//70 60//60
f 70//70 71//71 60//60
f 60//60 71//71 61//61
f 71//71 72//72 61//61
f 61//61 72//72 58//58
f 72//72 73//73 58//58
f 58//58 73//73 46//46
f 73//73 74//74 46//46
f 46//46 74//74 75//75
f 74//74 73//73 76//76
f 73//73 72//72 76//76
f 76//76 72//72 77//77
f 72//72 78//78 77//77
f 77//77 78//78 79//79
f 79//79 78//78 80//80
f 80//80 78//78 81//81
f 78//78 71//71 81//81
f 81//81 71//71 70//70
f 72//72 71//71 78//78
f 75//75 74//74 82//82
f 74//74 83//83 82//82
f 82//82 83//83 84//84
f 83//83 76//76 84//84
f 76//76 77//77 84//84
f 84//84 77//77 85//85
f 77//77 79//79 85//85
f 83//83 74//74 76//76
f 75//75 82//82 86//86
f 82//82 87//87 86//86
f 86//86 87//87 41//41
f 87//87 88//88 41//41
f 41//41 88//88 40//40
f 40//40 88//88 39//39
f 88//88 89//89 39//39
f 39//39 89//89 38//38
f 89//89 90//90 38//38
f 38//38 90//90 37//37
f 90//90 89//89 91//91
f 89//89 88//88 91//91
f 91//91 88//88 92//92
f 88//88 87//87 92//92
f 92//92 87//87 93//93
f 87//87 82//82 93//93
f 93//93 82//82 94//94
f 82//82 84//84 94//94
f 94//94 95//95 93//93
f 93//93 95//95 92//92
f 95//95 96//96 92//92
f 92//92 96//96 91//91
f 91//91 96//96 90//90
f 96//96 97//97 90//90
f 90//90 97//97 98//98
f 97//97 99//99 98//98
f 98//98 99//99 100//100
f 99//99 101//101 100//100
f 101//101 35//35 100//100
f 35//35 36//36 100//100
f 100//100 36//36 98//98
f 36//36 37//37 98//98
f 98//98 37//37 90//90
f 97//97 102//102 99//99
f 99//99 102//102 103//103
f 102//102 104//104 103//103
f 104//104 105//105 103//103
f 103//103 105//105 101//101
f 105//105 106//106 101//101
f 101//101 106//106 35//35
f 106//106 107//107 35//35
f 35//35 107//107 34//34
f 107//107 108//108 34//34
f 34//34 108//108 33//33
f 33//33 108//108 32//32
f 108//108 109//109 32//32
f 32//32 109//109 31//31
f 103//103 101//101 99//99
f 97//97 96//96 102//102
f 96//96 95//95 102//102
f 102//102 95//95 104//104
f 95//95 94//94 104//104
f 107//107 110//110 108//108
f 110//110 111//111 108//108
f 108//108 111//111 109//109
f 107//107 106//106 110//110
f 110//110 106//106 112//112
f 106//106 105//105 112//112
f 112//112 105//105 113//113
f 105//105 104//104 113//113
f 113//113 104//104 114//114
f 104//104 94//94 114//114
f 114//114 115//115 113//113
f 113//113 115//115 112//112
f 115//115 116//116 112//112
f 112//112 116//116 110//110
f 110//110 116//116 111//111
f 116//116 117//117 111//111
f 111//111 117//117 109//109
f 117//117 118//118 109//109
f 118//118 119//119 109//109
f 109//109 119//119 31//31
f 119//119 120//120 31//31
f 31//31 120//120 30//30
f 120//120 121//121 30//30
f 30//30 121//121 28//28
f 117//117 116//116 122//122
f 122//122 116//116 115//115
f 117//117 122//122 118//118
f 118//118 122//122 123//123
f 122//122 124//124 123//123
f 124//124 125//125 123//123
f 123//123 125//125 126//126
f 125//125 127//127 126//126
f 126//126 127//127 121//121
f 127//127 128//128 121//121
f 121//121 128//128 28//28
f 128//128 129//129 28//28
f 28//28 129//129 52//52
f 52//52 129//129 53//53
f 129//129 130//130 53//53
f 53//53 130//130 65//65
f 121//121 120//120 126//126
f 126//126 120//120 123//123
f 120//120 119//119 123//123
f 123//123 119//119 118//118
f 127//127 131//131 128//128
f 131//131 132//132 128//128
f 128//128 132//132 129//129
f 132//132 133//133 129//129
f 129//129 133//133 130//130
f 127//127 125//125 131//131
f 131//131 125//125 134//134
f 125//125 124//124 134//134
f 134//134 135//135 131//131
f 131//131 135//135 132//132
f 132//132 135//135 133//133
f 135//135 136//136 133//133
f 136//136 137//137 133//133
f 133//133 137//137 130//130
f 137//137 138//138 130//130
f 130//130 138//138 65//65
f 138//138 139//139 65//65
f 65//65 139//139 66//66
f 139//139 140//140 66//66
f 66//66 140//140 67//67
f 140//140 139//139 141//141
f 139//139 138//138 141//141
f 141//141 138//138 142//142
f 142//142 138//138 143//143
f 138//138 137//137 143//143
f 143//143 137//137 144//144
f 137//137 136//136 144//144
f 144//144 136//136 145//145
f 136//136 146//146 145//145
f 145//145 146//146 147//147
f 146//146 148//148 147//147
f 147//147 148//148 149//149
f 148//148 124//124 149//149
f 124//124 122//122 149//149
f 122//122 115//115 149//149
f 115//115 114//114 149//149
f 149//149 114//114 150//150
f 114//114 94//94 150//150
f 150//150 94//94 151//151
f 94//94 84//84 151//151
f 84//84 85//85 151//151
f 151//151 85//85 79//79
f 136//136 135//135 146//146
f 135//135 134//134 146//146
f 146//146 134//134 148//148
f 134//134 124//124 148//148
f 149//149 150//150 147//147
f 150//150 151//151 147//147
f 147//147 151//151 145//145
f 151//151 152//152 145//145
f 145//145 152//152 144//144
f 144//144 152//152 143//143
f 143//143 152//152 153//153
f 153//153 152//152 154//154
f 152//152 79//79 154//154
f 154//154 79//79 155//155
f 79//79 80//80 155//155
f 155//155 80//80 156//156
f 80//80 81//81 156//156
f 156//156 81//81 157//157
f 157//157 81//81 158//158
f 81//81 70//70 158//158
f 158//158 70//70 159//159
f 70//70 69//69 159//159
f 159//159 69//69 160//160
f 69//69 68//68 160//160
f 152//152 151//151 79//79
f 155//155 156//156 161//161
f 161//161 156//156 157//157
f 160//160 162//162 159//159
f 159//159 162//162 158//158
f 162//162 163//163 158//158
f 158//158 163//163 157//157
f 157//157 163//163 164//164
f 164//164 163//163 165//165
f 163//163 162//162 165//165
f 165//165 162//162 166//166
f 166//166 162//162 167//167
f 162//162 160//160 167//167
f 167//167 160//160 168//168
f 160//160 68//68 168//168
f 168//168 68//68 169//169
f 68//68 67//67 169//169
f 169//169 67//67 170//170
f 67//67 140//140 170//170
f 140//140 171//171 170//170
f 171//171 172//172 170//170
f 172//172 173//173 170//170
f 170//170 173//173 169//169
f 173//173 174//174 169//169
f 169//169 174//174 168//168
f 174//174 175//175 168//168
f 168//168 175//175 167//167
f 175//175 176//176 167//167
f 167//167 176//176 166//166
f 176//176 177//177 166//166
f 166//166 177//177 165//165
f 177//177 176//176 178//178
f 176//176 175//175 178//178
f 178//178 175//175 179//179
f 175//175 174//174 179//179
f 179//179 174//174 180//180
f 174//174 173//173 180//180
f 180//180 173//173 181//181
f 173//173 172//172 181//181
f 181//181 182//182 180//180
f 182//182 183//183 180//180
f 180//180 183//183 179//179
f 183//183 184//184 179//179
f 179//179 184//184 178//178
f 184//184 185//185 178//178
f 178//178 185//185 177//177
f 185//185 186//186 177//177
f 177//177 186//186 165//165
f 165//165 186//186 164//164
f 164//164 186//186 187//187
f 187//187 186//186 188//188
f 186//186 185//185 188//188
f 188//188 185//185 189//189
f 185//185 184//184 189//189
f 184//184 183//183 189//189
f 183//183 190//190 189//189
f 189//189 190//190 191//191
f 190//190 192//192 191//191
f 192//192 193//193 191//191
f 191//191 193//193 188//188
f 193//193 187//187 188//188
f 191//191 188//188 189//189
f 183//183 194//194 190//190
f 194//194 195//195 190//190
f 190//190 195//195 192//192
f 183//183 182//182 194//194
f 194//194 182//182 196//196
f 182//182 181//181 196//196
f 196//196 181//181 197//197
f 181//181 172//172 197//197
f 197//197 172//172 198//198
f 172//172 171//171 198//198
f 198//198 171//171 199//199
f 199//199 171//171 200//200
f 171//171 140//140 200//200
f 200//200 140//140 201//201
f 140//140 141//141 201//201
f 201//201 141//141 202//202
f 141//141 142//142 202//202
f 142//142 203//203 202//202
f 202//202 203//203 200//200
f 200//200 203//203 199//199
f 203//203 204//204 199//199
f 204//204 205//205 199//199
f 199//199 205//205 198//198
f 198//198 205//205 197//197
f 205//205 206//206 197//197
f 197//197 206//206 196//196
f 206//206 207//207 196//196
f 196//196 207//207 194//194
f 201//201 202//202 200//200
f 207//207 206//206 208//208
f 206//206 205//205 208//208
f 208//208 205//205 209//209
f 205//205 204//204 209//209
f 209//209 204//204 210//210
f 210//210 204//204 211//211
f 204//204 203//203 211//211
f 211//211 203//203 212//212
f 203//203 143//143 212//212
f 143//143 153//153 212//212
f 153//153 213//213 212//212
f 213//213 214//214 212//212
f 212//212 214//214 211//211
f 211//211 214//214 210//210
f 214//214 215//215 210//210
f 215//215 216//216 210//210
f 210//210 216//216 209//209
f 209//209 216//216 208//208
f 216//216 217//217 208//208
f 208//208 217//217 207//207
f 207//207 217//217 194//194
f 194//194 217//217 195//195
f 217//217 218//218 195//195
f 195//195 218//218 219//219
f 219//219 218//218 215//215
f 215//215 218//218 216//216
f 218//218 217//217 216//216
f 203//203 142//142 143//143
f 195//195 219//219 192//192
f 219//219 220//220 192//192
f 192//192 220//220 193//193
f 220//220 221//221 193//193
f 193//193 221//221 187//187
f 221//221 222//222 187//187
f 187//187 222//222 164//164
f 164//164 222//222 157//157
f 157//157 222//222 161//161
f 222//222 223//223 161//161
f 161//161 223//223 224//224
f 223//223 225//225 224//224
f 224//224 225//225 226//226
f 225//225 219//219 226//226
f 219//219 215//215 226//226
f 215//215 214//214 226//226
f 214//214 213//213 226//226
f 213//213 227//227 226//226
f 226//226 227//227 224//224
f 224//224 227//227 161//161
f 161//161 227//227 155//155
f 155//155 227//227 154//154
f 154//154 227//227 153//153
f 227//227 213//213 153//153
f 222//222 221//221 223//223
f 221//221 220//220 223//223
f 223//223 220//220 225//225
f 220//220 219//219 225//225
f 228//228 229//229 230//230
f 229//229 231//231 230//230
f 230//230 231//231 232//232
f 231//231 233//233 232//232
f 232//232 233//233 234//234
f 233//233 235//235 234//234
f 235//235 236//236 234//234
f 236//236 237//237 234//234
f 237//237 238//238 234//234
f 238//238 239//239 234//234
f 234//234 239//239 240//240
f 239//239 241//241 240//240
f 240//240 241//241 230//230
f 241//241 242//242 230//230
f 230//230 242//242 228//228
f 228//228 242//242 243//243
f 243//243 242//242 244//244
f 242//242 245//245 244//244
f 244//244 245//245 246//246
f 245//245 247//247 246//246
f 246//246 247//247 248//248
f 248//248 247//247 249//249
f 247//247 250//250 249//249
f 250//250 251//251 249//249
f 251//251 252//252 249//249
f 249//249 252//252 248//248
f 252//252 253//253 248//248
f 248//248 253//253 254//254
f 254//254 253//253 255//255
f 255//255 253//253 256//256
f 253//253 252//252 256//256
f 256//256 252//252 257//257
f 252//252 258//258 257//257
f 257//257 258//258 259//259
f 230//230 232//232 240//240
f 240//240 232//232 234//234
f 242//242 241//241 245//245
f 245//245 241//241 247//247
f 254//254 246//246 248//248
f 252//252 251//251 258//258
f 251//251 260//260 258//258
f 258//258 260//260 259//259
f 260//260 251//251 261//261
f 251//251 250//250 261//261
f 261//261 250//250 262//262
f 250//250 247//247 262//262
f 262//262 247//247 263//263
f 247//247 264//264 263//263
f 263//263 264//264 265//265
f 265//265 264//264 266//266
f 266//266 264//264 267//267
f 264//264 241//241 267//267
f 267//267 241//241 239//239
f 264//264 247//247 241//241
f 265//265 268//268 263//263
f 263//263 268//268 262//262
f 268//268 269//269 262//262
f 269//269 270//270 262//262
f 262//262 270//270 261//261
f 270//270 271//271 261//261
f 261//261 271//271 260//260
f 271//271 272//272 260//260
f 260//260 272//272 259//259
f 272//272 273//273 259//259
f 259//259 273//273 257//257
f 273//273 274//274 257//257
f 274//274 275//275 257//257
f 257//257 275//275 256//256
f 275//275 276//276 256//256
f 256//256 276//276 277//277
f 276//276 278//278 277//277
f 278//278 279//279 277//277
f 277//277 279//279 256//256
f 279//279 255//255 256//256
f 278//278 276//276 280//280
f 276//276 275//275 280//280
f 280//280 275//275 281//281
f 275//275 274//274 281//281
f 281//281 274//274 282//282
f 282//282 274//274 283//283
f 274//274 273//273 283//283
f 283//283 273//273 284//284
f 273//273 272//272 284//284
f 284//284 272//272 285//285
f 272//272 271//271 285//285
f 271//271 270//270 285//285
f 285//285 270//270 286//286
f 270//270 287//287 286//286
f 286//286 287//287 288//288
f 288//288 287//287 289//289
f 289//289 287//287 290//290
f 287//287 269//269 290//290
f 290//290 269//269 268//268
f 270//270 269//269 287//287
f 288//288 291//291 286//286
f 291//291 285//285 286//286
f 291//291 288//288 292//292
f 288//288 289//289 292//292
f 292//292 289//289 293//293
f 289//289 290//290 293//293
f 290//290 268//268 293//293
f 293//293 268//268 294//294
f 294//294 268//268 295//295
f 295//295 268//268 296//296
f 268//268 265//265 296//296
f 296//296 265//265 297//297
f 265//265 266//266 297//297
f 297//297 266//266 298//298
f 266//266 267//267 298//298
f 298//298 267//267 299//299
f 267//267 239//239 299//299
f 299//299 239//239 300//300
f 239//239 301//301 300//300
f 301//301 302//302 300//300
f 300//300 302//302 299//299
f 302//302 303//303 299//299
f 299//299 303//303 298//298
f 303//303 304//304 298//298
f 298//298 304//304 297//297
f 304//304 305//305 297//297
f 297//297 305//305 296//296
f 305//305 306//306 296//296
f 296//296 306//306 307//307
f 306//306 308//308 307//307
f 308//308 309//309 307//307
f 307//307 309//309 295//295
f 309//309 310//310 295//295
f 239//239 238//238 301//301
f 311//311 306//306 305//305
f 307//307 295//295 296//296
f 308//308 306//306 312//312
f 306//306 313//313 312//312
f 312//312 313//313 314//314
f 313//313 315//315 314//314
f 310//310 309//309 316//316
f 309//309 317//317 316//316
f 316//316 317//317 318//318
f 317//317 308//308 318//318
f 308//308 312//312 318//318
f 318//318 312//312 319//319
f 312//312 314//314 319//319
f 317//317 309//309 308//308
f 310//310 316//316 293//293
f 316//316 318//318 320//320
f 318//318 321//321 320//320
f 321//321 322//322 320//320
f 320//320 322//322 316//316
f 322//322 323//323 316//316
f 323//323 324//324 316//316
f 316//316 324//324 293//293
f 324//324 325//325 293//293
f 293//293 325//325 292//292
f 325//325 326//326 292//292
f 292//292 326//326 291//291
f 319//319 321//321 318//318
f 326//326 325//325 327//327
f 325//325 324//324 327//327
f 327//327 324//324 328//328
f 324//324 323//323 328//328
f 323//323 322//322 328//328
f 328//328 322//322 329//329
f 329//329 322//322 330//330
f 322//322 321//321 330//330
f 330//330 321//321 331//331
f 331//331 321//321 332//332
f 321//321 319//319 332//332
f 332//332 319//319 333//333
f 319//319 314//314 333//333
f 333//333 314//314 334//334
f 314//314 335//335 334//334
f 335//335 336//336 334//334
f 334//334 336//336 333//333
f 336//336 337//337 333//333
f 337//337 338//338 333//333
f 333//333 338//338 332//332
f 338//338 339//339 332//332
f 332//332 339//339 331//331
f 339//339 340//340 331//331
f 340//340 341//341 331//331
f 331//331 341//341 330//330
f 341//341 342//342 330//330
f 330//330 342//342 329//329
f 342//342 343//343 329//329
f 343//343 344//344 329//329
f 329//329 344//344 328//328
f 328//328 344//344 327//327
f 327//327 344//344 345//345
f 344//344 346//346 345//345
f 346//346 347//347 345//345
f 347//347 348//348 345//345
f 345//345 348//348 327//327
f 327//327 348//348 326//326
f 348//348 349//349 326//326
f 326//326 349//349 291//291
f 291//291 349//349 285//285
f 285//285 349//349 284//284
f 349//349 350//350 284//284
f 284//284 350//350 283//283
f 343//343 346//346 344//344
f 350//350 349//349 351//351
f 349//349 348//348 351//351
f 351//351 352//352 350//350
f 350//350 352//352 283//283
f 283//283 352//352 282//282
f 352//352 353//353 282//282
f 282//282 353//353 281//281
f 281//281 353//353 280//280
f 353//353 354//354 280//280
f 280//280 354//354 278//278
f 352//352 355//355 353//353
f 355//355 356//356 353//353
f 353//353 356//356 354//354
f 352//352 351//351 355//355
f 351//351 348//348 355//355
f 348//348 347//347 355//355
f 355//355 347//347 356//356
f 347//347 346//346 356//356
f 356//356 346//346 354//354
f 346//346 357//357 354//354
f 354//354 357//357 278//278
f 357//357 358//358 278//278
f 278//278 358//358 279//279
f 346//346 343//343 357//357
f 357//357 343//343 358//358
f 358//358 343//343 359//359
f 343//343 342//342 359//359
f 359//359 342//342 360//360
f 342//342 341//341 360//360
f 360//360 341//341 361//361
f 341//341 340//340 361//361
f 361//361 340//340 362//362
f 362//362 340//340 363//363
f 340//340 339//339 363//363
f 363//363 339//339 364//364
f 339//339 338//338 364//364
f 364//364 338//338 365//365
f 362//362 366//366 361//361
f 361//361 366//366 360//360
f 366//366 367//367 360//360
f 360//360 367//367 359//359
f 359//359 367//367 358//358
f 367//367 368//368 358//358
f 358//358 368//368 369//369
f 368//368 370//370 369//369
f 369//369 370//370 371//371
f 370//370 372//372 371//371
f 371//371 372//372 255//255
f 255//255 372//372 254//254
f 372//372 373//373 254//254
f 373//373 374//374 254//254
f 254//254 374//374 246//246
f 374//374 375//375 246//246
f 246//246 375//375 244//244
f 375//375 376//376 244//244
f 244//244 376//376 243//243
f 368//368 367//367 366//366
f 358//358 369//369 279//279
f 369//369 371//371 279//279
f 279//279 371//371 255//255
f 376//376 375//375 377//377
f 375//375 374//374 377//377
f 377//377 374//374 378//378
f 378//378 374//374 379//379
f 374//374 373//373 379//379
f 379//379 373//373 380//380
f 373//373 372//372 380//380
f 380//380 372//372 381//381
f 372//372 370//370 381//381
f 381//381 370//370 382//382
f 370//370 368//368 382//382
f 382//382 368//368 383//383
f 368//368 366//366 383//383
f 366//366 362//362 383//383
f 383//383 362//362 384//384
f 362//362 363//363 384//384
f 383//383 384//384 382//382
f 384//384 385//385 382//382
f 382//382 385//385 381//381
f 381//381 385//385 380//380
f 380//380 385//385 379//379
f 385//385 386//386 379//379
f 379//379 386//386 378//378
f 386//386 365//365 378//378
f 365//365 387//387 378//378
f 378//378 387//387 377//377
f 377//377 387//387 376//376
f 387//387 388//388 376//376
f 376//376 388//388 243//243
f 388//388 389//389 243//243
f 243//243 389//389 228//228
f 228//228 389//389 229//229
f 229//229 389//389 390//390
f 390//390 389//389 391//391
f 389//389 388//388 391//391
f 388//388 387//387 391//391
f 391//391 387//387 392//392
f 387//387 338//338 392//392
f 338//338 337//337 392//392
f 392//392 337//337 390//390
f 337//337 393//393 390//390
f 390//390 393//393 229//229
f 385//385 384//384 386//386
f 384//384 363//363 386//386
f 363//363 364//364 386//386
f 386//386 364//364 365//365
f 392//392 390//390 391//391
f 387//387 365//365 338//338
f 337//337 336//336 393//393
f 393//393 336//336 394//394
f 336//336 335//335 394//394
f 394//394 335//335 395//395
f 395//395 335//335 396//396
f 335//335 314//314 396//396
f 314//314 315//315 396//396
f 315//315 397//397 396//396
f 397//397 398//398 396//396
f 398//398 399//399 396//396
f 396//396 399//399 395//395
f 399//399 400//400 395//395
f 395//395 400//400 401//401
f 400//400 402//402 401//401
f 401//401 402//402 233//233
f 402//402 403//403 233//233
f 233//233 403//403 235//235
f 229//229 393//393 231//231
f 393//393 394//394 231//231
f 231//231 394//394 401//401
f 394//394 395//395 401//401
f 231//231 401//401 233//233
f 403//403 402//402 404//404
f 402//402 400//400 404//404
f 404//404 400//400 405//405
f 400//400 399//399 405//405
f 399//399 398//398 405//405
f 405//405 398//398 406//406
f 398//398 407//407 406//406
f 406//406 407//407 408//408
f 408//408 407//407 409//409
f 407//407 397//397 409//409
f 409//409 397//397 410//410
f 397//397 315//315 410//410
f 410//410 315//315 411//411
f 411//411 315//315 412//412
f 315//315 413//413 412//412
f 412//412 413//413 414//414
f 414//414 413//413 311//311
f 413//413 415//415 311//311
f 311//311 415//415 306//306
f 397//397 407//407 398//398
f 415//415 413//413 315//315
f 410//410 411//411 416//416
f 416//416 411//411 417//417
f 411//411 412//412 417//417
f 417//417 412//412 418//418
f 412//412 414//414 418//418
f 417//417 419//419 416//416
f 419//419 420//420 416//416
f 416//416 420//420 410//410
f 420//420 421//421 410//410
f 410//410 421//421 409//409
f 421//421 420//420 422//422
f 422//422 420//420 423//423
f 420//420 419//419 423//423
f 423//423 419//419 424//424
f 424//424 419//419 425//425
f 425//425 419//419 426//426
f 419//419 417//417 426//426
f 417//417 418//418 426//426
f 426//426 418//418 427//427
f 418//418 414//414 427//427
f 427//427 414//414 303//303
f 414//414 304//304 303//303
f 303//303 302//302 427//427
f 302//302 428//428 427//427
f 427//427 428//428 426//426
f 426//426 428//428 425//425
f 428//428 429//429 425//425
f 425//425 429//429 424//424
f 302//302 301//301 428//428
f 428//428 301//301 429//429
f 429//429 301//301 430//430
f 301//301 238//238 430//430
f 238//238 237//237 430//430
f 430//430 237//237 431//431
f 237//237 236//236 431//431
f 431//431 236//236 432//432
f 236//236 235//235 432//432
f 432//432 235//235 433//433
f 235//235 403//403 433//433
f 433//433 403//403 434//434
f 403//403 404//404 434//434
f 434//434 404//404 435//435
f 404//404 405//405 435//435
f 405//405 406//406 435//435
f 435//435 406//406 436//436
f 406//406 408//408 436//436
f 422//422 423//423 437//437
f 423//423 424//424 437//437
f 434//434 438//438 433//433
f 433//433 438//438 432//432
f 438//438 439//439 432//432
f 432//432 439//439 440//440
f 440//440 439//439 441//441
f 441//441 439//439 436//436
f 439//439 438//438 436//436
f 436//436 438//438 435//435
f 438//438 434//434 435//435
f 440//440 442//442 432//432
f 432//432 442//442 431//431
f 442//442 443//443 431//431
f 431//431 443//443 430//430
f 443//443 444//444 430//430
f 430//430 444//444 429//429
f 429//429 444//444 424//424
f 424//424 444//444 437//437
f 437//437 444//444 445//445
f 444//444 443//443 445//445
f 443//443 442//442 445//445
f 445//445 442//442 446//446
f 442//442 440//440 446//446
f 446//446 440//440 447//447
f 440//440 441//441 447//447
f 447//447 441//441 448//448
f 441//441 436//436 448//448
f 436//436 408//408 448//448
f 408//408 409//409 448//448
f 448//448 409//409 449//449
f 409//409 421//421 449//449
f 449//449 421//421 450//450
f 421//421 422//422 450//450
f 450//450 422//422 451//451
f 422//422 437//437 451//451
f 437//437 445//445 451//451
f 451//451 445//445 452//452
f 445//445 446//446 452//452
f 452//452 446//446 453//453
f 446//446 447//447 453//453
f 447//447 448//448 453//453
f 448//448 449//449 453//453
f 453//453 449//449 454//454
f 449//449 450//450 454//454
f 450//450 451//451 454//454
f 451//451 452//452 454//454
f 454//454 452//452 453//453

