# Exported by Sketchfab Model Ripper robust edition
o model_4
v -0.5854947566986084 1.9551942348480225 -0.21553443372249603
v -0.6318871974945068 2.0201351642608643 -0.21395692229270935
v -0.6889474391937256 2.0506701469421387 -0.24498148262500763
v -0.6889474391937256 2.0506701469421387 -0.24498148262500763
v -0.5594455003738403 1.8377846479415894 -0.3049272298812866
v -0.6946534514427185 1.987019658088684 -0.3648729920387268
v -0.6311429738998413 2.024005889892578 -0.4032593071460724
v -0.5492739081382751 1.9934707880020142 -0.33227092027664185
v -0.3515477776527405 1.700591802597046 -0.33963268995285034
v -0.3515477776527405 1.700591802597046 -0.33963268995285034
v -0.2587628662586212 1.4576010704040527 -0.3706572353839874
v -0.2654612362384796 1.5672694444656372 -0.31596988439559937
v -0.3515477776527405 1.700591802597046 -0.33963268995285034
v -0.33939146995544434 1.774994134902954 -0.24130059778690338
v -0.2654612362384796 1.5672694444656372 -0.31596988439559937
v -0.3847915828227997 1.6907000541687012 0.4470239579677582
v -0.438874751329422 1.583612084388733 0.4617474675178528
v -0.4257260859012604 1.6674761772155762 0.4606958031654358
v -0.4031500816345215 1.5814619064331055 0.4396621882915497
v -0.438874751329422 1.583612084388733 0.4617474675178528
v -0.49519073963165283 1.5100698471069336 0.44229140877723694
v -0.438874751329422 1.583612084388733 0.4617474675178528
v -0.4865076541900635 1.5315735340118408 0.4601699709892273
v -0.4257260859012604 1.6674761772155762 0.4606958031654358
v -0.7665989995002747 2.1392650604248047 -0.3343742787837982
v -0.7626295685768127 2.1495869159698486 -0.3669763505458832
v -0.7532022595405579 2.0760445594787598 -0.4332321882247925
v -0.7326109409332275 2.1108803749084473 -0.26443755626678467
v -0.7665989995002747 2.1392650604248047 -0.3343742787837982
v -0.743526816368103 2.1435656547546387 -0.29493626952171326
v -0.7665989995002747 2.1392650604248047 -0.3343742787837982
v -0.743526816368103 2.1435656547546387 -0.29493626952171326
v -0.7626295685768127 2.1495869159698486 -0.3669763505458832
v -0.7082983255386353 2.127223014831543 -0.3743381202220917
v -0.7626295685768127 2.1495869159698486 -0.3669763505458832
v -0.7462557554244995 2.1070098876953125 -0.4242929220199585
v -0.7326109409332275 2.1108803749084473 -0.26443755626678467
v -0.6276696920394897 2.0480897426605225 -0.21974116563796997
v -0.743526816368103 2.1435656547546387 -0.29493626952171326
v -0.6318871974945068 2.0201351642608643 -0.21395692229270935
v -0.7326109409332275 2.1108803749084473 -0.26443755626678467
v -0.6276696920394897 2.0480897426605225 -0.21974116563796997
v -0.4465654790401459 1.8721904754638672 -0.19923339784145355
v -0.4096003770828247 1.8567078113555908 -0.2108018845319748
v -0.6276696920394897 2.0480897426605225 -0.21974116563796997
v -0.6286620497703552 2.0751843452453613 -0.27179932594299316
v -0.743526816368103 2.1435656547546387 -0.29493626952171326
v -0.7082983255386353 2.127223014831543 -0.3743381202220917
v -0.3262428045272827 1.6636055707931519 0.26455748081207275
v -0.29944929480552673 1.7384380102157593 0.27139338850975037
v -0.29845693707466125 1.6128569841384888 0.31661564111709595
v -0.3706505596637726 1.8924038410186768 0.2314295619726181
v -0.29944929480552673 1.7384380102157593 0.27139338850975037
v -0.3813183307647705 1.9448726177215576 0.268238365650177
v -0.3813183307647705 1.9448726177215576 0.268238365650177
v -0.42696651816368103 1.9207886457443237 0.36236372590065
v -0.35080352425575256 1.8528372049331665 0.3334425091743469
v -0.42696651816368103 1.9207886457443237 0.36236372590065
v -0.35080352425575256 1.8528372049331665 0.3334425091743469
v -0.3895052373409271 1.7934871912002563 0.4228353202342987
v -0.35080352425575256 1.8528372049331665 0.3334425091743469
v -0.3895052373409271 1.7934871912002563 0.4228353202342987
v -0.3123498857021332 1.6950007677078247 0.35552778840065
v -0.29944929480552673 1.7384380102157593 0.27139338850975037
v -0.29845693707466125 1.6128569841384888 0.31661564111709595
v -0.3123498857021332 1.6950007677078247 0.35552778840065
v -0.612288236618042 1.6683363914489746 -0.4111469089984894
v -0.6155133843421936 1.6580145359039307 -0.4384905993938446
v -0.5785483121871948 1.5651191473007202 -0.45111075043678284
v -0.6946534514427185 1.987019658088684 -0.3648729920387268
v -0.6055898666381836 1.8343440294265747 -0.34541693329811096
v -0.6859704256057739 1.8997149467468262 -0.4179828464984894
v -0.6859704256057739 1.8997149467468262 -0.4179828464984894
v -0.7532022595405579 2.0760445594787598 -0.4332321882247925
v -0.6155133843421936 1.6580145359039307 -0.4384905993938446
v -0.6055898666381836 1.8343440294265747 -0.34541693329811096
v -0.612288236618042 1.6683363914489746 -0.4111469089984894
v -0.6859704256057739 1.8997149467468262 -0.4179828464984894
v -0.5854947566986084 1.9551942348480225 -0.21553443372249603
v -0.5594455003738403 1.8377846479415894 -0.3049272298812866
v -0.2957279682159424 1.6042555570602417 -0.298091322183609
v -0.5854947566986084 1.9551942348480225 -0.21553443372249603
v -0.6318871974945068 2.0201351642608643 -0.21395692229270935
v -0.4465654790401459 1.8721904754638672 -0.19923339784145355
v -0.2957279682159424 1.6042555570602417 -0.298091322183609
v -0.30937281250953674 1.697581171989441 -0.24918819963932037
v -0.4465654790401459 1.8721904754638672 -0.19923339784145355
v -0.5373656749725342 1.7741340398788452 -0.3349001109600067
v -0.5537394881248474 1.5461958646774292 -0.43428388237953186
v -0.612288236618042 1.6683363914489746 -0.4111469089984894
v -0.5594455003738403 1.8377846479415894 -0.3049272298812866
v -0.6055898666381836 1.8343440294265747 -0.34541693329811096
v -0.5373656749725342 1.7741340398788452 -0.3349001109600067
v -0.5686247944831848 1.679518222808838 -0.46373093128204346
v -0.5098279118537903 1.5595282316207886 -0.5079014897346497
v -0.5964106321334839 1.7810152769088745 -0.4542658030986786
v -0.40017303824424744 1.3199779987335205 -0.605181872844696
v -0.5264497995376587 1.7513401508331299 -0.45111075043678284
v -0.35998275876045227 1.2692296504974365 -0.6146469712257385
v -0.5098279118537903 1.5595282316207886 -0.5079014897346497
v -0.40017303824424744 1.3199779987335205 -0.605181872844696
v -0.5264497995376587 1.7513401508331299 -0.45111075043678284
v -0.5964106321334839 1.7810152769088745 -0.4542658030986786
v -0.7087944746017456 2.0545408725738525 -0.4390164315700531
v -0.5264497995376587 1.7513401508331299 -0.45111075043678284
v -0.7065616846084595 1.959494948387146 -0.4547916352748871
v -0.7532022595405579 2.0760445594787598 -0.4332321882247925
v -0.6155133843421936 1.6580145359039307 -0.4384905993938446
v -0.55894935131073 1.8390748500823975 0.29347866773605347
v -0.5286825895309448 1.9070262908935547 0.31503811478614807
v -0.5018891096115112 1.9887399673461914 0.268238365650177
v -0.5460487604141235 1.7522003650665283 0.34448516368865967
v -0.5286825895309448 1.9070262908935547 0.31503811478614807
v -0.4812977910041809 1.8356342315673828 0.3855006694793701
v -0.4872519075870514 1.565979242324829 0.44281724095344543
v -0.4257260859012604 1.6674761772155762 0.4606958031654358
v -0.4812977910041809 1.8356342315673828 0.3855006694793701
v -0.5018891096115112 1.9887399673461914 0.268238365650177
v -0.45425620675086975 2.000782012939453 0.25877323746681213
v -0.42696651816368103 1.9207886457443237 0.36236372590065
v -0.49767160415649414 1.564689040184021 0.4165252447128296
v -0.4872519075870514 1.565979242324829 0.44281724095344543
v -0.5460487604141235 1.7522003650665283 0.34448516368865967
v -0.5428236126899719 1.7044624090194702 0.3202965259552002
v -0.55894935131073 1.8390748500823975 0.29347866773605347
v -0.5460487604141235 1.7522003650665283 0.34448516368865967
v -0.4257260859012604 1.6674761772155762 0.4606958031654358
v -0.4872519075870514 1.565979242324829 0.44281724095344543
v -0.4865076541900635 1.5315735340118408 0.4601699709892273
v -0.34559366106987 1.7973579168319702 0.2324812412261963
v -0.46666061878204346 1.9564845561981201 0.23511044681072235
v -0.5140454173088074 1.8799316883087158 0.24773059785366058
v -0.3262428045272827 1.6636055707931519 0.26455748081207275
v -0.535132884979248 1.75779128074646 0.28664276003837585
v -0.5140454173088074 1.8799316883087158 0.24773059785366058
v -0.3262428045272827 1.6636055707931519 0.26455748081207275
v -0.535132884979248 1.75779128074646 0.28664276003837585
v -0.4681491255760193 1.6141473054885864 0.32450324296951294
v -0.5140454173088074 1.8799316883087158 0.24773059785366058
v -0.5018891096115112 1.9887399673461914 0.268238365650177
v -0.46666061878204346 1.9564845561981201 0.23511044681072235
v -0.46666061878204346 1.9564845561981201 0.23511044681072235
v -0.3706505596637726 1.8924038410186768 0.2314295619726181
v -0.45425620675086975 2.000782012939453 0.25877323746681213
v -0.4681491255760193 1.6141473054885864 0.32450324296951294
v -0.4780726432800293 1.5578078031539917 0.37393221259117126
v -0.5428236126899719 1.7044624090194702 0.3202965259552002
v -0.535132884979248 1.75779128074646 0.28664276003837585
v -0.55894935131073 1.8390748500823975 0.29347866773605347
v -0.5428236126899719 1.7044624090194702 0.3202965259552002
v -0.6318871974945068 2.0201351642608643 -0.21395692229270935
v -0.7326109409332275 2.1108803749084473 -0.26443755626678467
v -0.6889474391937256 2.0506701469421387 -0.24498148262500763
v -0.6889474391937256 2.0506701469421387 -0.24498148262500763
v -0.6946534514427185 1.987019658088684 -0.3648729920387268
v -0.7326109409332275 2.1108803749084473 -0.26443755626678467
v -0.5854947566986084 1.9551942348480225 -0.21553443372249603
v -0.6889474391937256 2.0506701469421387 -0.24498148262500763
v -0.5594455003738403 1.8377846479415894 -0.3049272298812866
v -0.4780726432800293 1.5578078031539917 0.37393221259117126
v -0.48675572872161865 1.5315735340118408 0.393914133310318
v -0.48080161213874817 1.4674928188323975 0.4286195635795593
v -0.37337952852249146 1.5182411670684814 -0.46425676345825195
v -0.6311429738998413 2.024005889892578 -0.4032593071460724
v -0.3515477776527405 1.700591802597046 -0.33963268995285034
v -0.3515477776527405 1.700591802597046 -0.33963268995285034
v -0.33939146995544434 1.774994134902954 -0.24130059778690338
v -0.5492739081382751 1.9934707880020142 -0.33227092027664185
v -0.5264497995376587 1.7513401508331299 -0.45111075043678284
v -0.6311429738998413 2.024005889892578 -0.4032593071460724
v -0.37337952852249146 1.5182411670684814 -0.46425676345825195
v -0.6311429738998413 2.024005889892578 -0.4032593071460724
v -0.5492739081382751 1.9934707880020142 -0.33227092027664185
v -0.7082983255386353 2.127223014831543 -0.3743381202220917
v -0.4031500816345215 1.5814619064331055 0.4396621882915497
v -0.3847915828227997 1.6907000541687012 0.4470239579677582
v -0.438874751329422 1.583612084388733 0.4617474675178528
v -0.49519073963165283 1.5100698471069336 0.44229140877723694
v -0.4865076541900635 1.5315735340118408 0.4601699709892273
v -0.438874751329422 1.583612084388733 0.4617474675178528
v -0.3847915828227997 1.6907000541687012 0.4470239579677582
v -0.3895052373409271 1.7934871912002563 0.4228353202342987
v -0.4257260859012604 1.6674761772155762 0.4606958031654358
v -0.7326109409332275 2.1108803749084473 -0.26443755626678467
v -0.6946534514427185 1.987019658088684 -0.3648729920387268
v -0.7665989995002747 2.1392650604248047 -0.3343742787837982
v -0.7626295685768127 2.1495869159698486 -0.3669763505458832
v -0.743526816368103 2.1435656547546387 -0.29493626952171326
v -0.7082983255386353 2.127223014831543 -0.3743381202220917
v -0.7532022595405579 2.0760445594787598 -0.4332321882247925
v -0.7462557554244995 2.1070098876953125 -0.4242929220199585
v -0.7626295685768127 2.1495869159698486 -0.3669763505458832
v -0.6946534514427185 1.987019658088684 -0.3648729920387268
v -0.7665989995002747 2.1392650604248047 -0.3343742787837982
v -0.7532022595405579 2.0760445594787598 -0.4332321882247925
v -0.6276696920394897 2.0480897426605225 -0.21974116563796997
v -0.6286620497703552 2.0751843452453613 -0.27179932594299316
v -0.4096003770828247 1.8567078113555908 -0.2108018845319748
v -0.6318871974945068 2.0201351642608643 -0.21395692229270935
v -0.4465654790401459 1.8721904754638672 -0.19923339784145355
v -0.6276696920394897 2.0480897426605225 -0.21974116563796997
v -0.6286620497703552 2.0751843452453613 -0.27179932594299316
v -0.7082983255386353 2.127223014831543 -0.3743381202220917
v -0.5492739081382751 1.9934707880020142 -0.33227092027664185
v -0.743526816368103 2.1435656547546387 -0.29493626952171326
v -0.6276696920394897 2.0480897426605225 -0.21974116563796997
v -0.6286620497703552 2.0751843452453613 -0.27179932594299316
v -0.3279794156551361 1.583612084388733 0.30925387144088745
v -0.29845693707466125 1.6128569841384888 0.31661564111709595
v -0.3262428045272827 1.6636055707931519 0.26455748081207275
v -0.3262428045272827 1.6636055707931519 0.26455748081207275
v -0.34559366106987 1.7973579168319702 0.2324812412261963
v -0.29944929480552673 1.7384380102157593 0.27139338850975037
v -0.41505831480026245 1.4683529138565063 0.39864668250083923
v -0.38826480507850647 1.4305065870285034 0.41915443539619446
v -0.3279794156551361 1.583612084388733 0.30925387144088745
v -0.29944929480552673 1.7384380102157593 0.27139338850975037
v -0.3813183307647705 1.9448726177215576 0.268238365650177
v -0.35080352425575256 1.8528372049331665 0.3334425091743469
v -0.3706505596637726 1.8924038410186768 0.2314295619726181
v -0.3813183307647705 1.9448726177215576 0.268238365650177
v -0.45425620675086975 2.000782012939453 0.25877323746681213
v -0.3813183307647705 1.9448726177215576 0.268238365650177
v -0.45425620675086975 2.000782012939453 0.25877323746681213
v -0.42696651816368103 1.9207886457443237 0.36236372590065
v -0.29944929480552673 1.7384380102157593 0.27139338850975037
v -0.3123498857021332 1.6950007677078247 0.35552778840065
v -0.35080352425575256 1.8528372049331665 0.3334425091743469
v -0.34559366106987 1.7973579168319702 0.2324812412261963
v -0.3706505596637726 1.8924038410186768 0.2314295619726181
v -0.29944929480552673 1.7384380102157593 0.27139338850975037
v -0.6946534514427185 1.987019658088684 -0.3648729920387268
v -0.6859704256057739 1.8997149467468262 -0.4179828464984894
v -0.7532022595405579 2.0760445594787598 -0.4332321882247925
v -0.612288236618042 1.6683363914489746 -0.4111469089984894
v -0.6859704256057739 1.8997149467468262 -0.4179828464984894
v -0.6155133843421936 1.6580145359039307 -0.4384905993938446
v -0.5854947566986084 1.9551942348480225 -0.21553443372249603
v -0.4465654790401459 1.8721904754638672 -0.19923339784145355
v -0.2957279682159424 1.6042555570602417 -0.298091322183609
v -0.2957279682159424 1.6042555570602417 -0.298091322183609
v -0.5594455003738403 1.8377846479415894 -0.3049272298812866
v -0.5373656749725342 1.7741340398788452 -0.3349001109600067
v -0.5373656749725342 1.7741340398788452 -0.3349001109600067
v -0.612288236618042 1.6683363914489746 -0.4111469089984894
v -0.6055898666381836 1.8343440294265747 -0.34541693329811096
v -0.5594455003738403 1.8377846479415894 -0.3049272298812866
v -0.6946534514427185 1.987019658088684 -0.3648729920387268
v -0.6055898666381836 1.8343440294265747 -0.34541693329811096
v -0.5098279118537903 1.5595282316207886 -0.5079014897346497
v -0.5264497995376587 1.7513401508331299 -0.45111075043678284
v -0.5964106321334839 1.7810152769088745 -0.4542658030986786
v -0.7087944746017456 2.0545408725738525 -0.4390164315700531
v -0.5964106321334839 1.7810152769088745 -0.4542658030986786
v -0.7065616846084595 1.959494948387146 -0.4547916352748871
v -0.5264497995376587 1.7513401508331299 -0.45111075043678284
v -0.6311429738998413 2.024005889892578 -0.4032593071460724
v -0.7087944746017456 2.0545408725738525 -0.4390164315700531
v -0.5964106321334839 1.7810152769088745 -0.4542658030986786
v -0.5785483121871948 1.5651191473007202 -0.45111075043678284
v -0.7065616846084595 1.959494948387146 -0.4547916352748871
v -0.55894935131073 1.8390748500823975 0.29347866773605347
v -0.5286825895309448 1.9070262908935547 0.31503811478614807
v -0.5460487604141235 1.7522003650665283 0.34448516368865967
v -0.5460487604141235 1.7522003650665283 0.34448516368865967
v -0.4872519075870514 1.565979242324829 0.44281724095344543
v -0.4812977910041809 1.8356342315673828 0.3855006694793701
v -0.5428236126899719 1.7044624090194702 0.3202965259552002
v -0.5460487604141235 1.7522003650665283 0.34448516368865967
v -0.49767160415649414 1.564689040184021 0.4165252447128296
v -0.49767160415649414 1.564689040184021 0.4165252447128296
v -0.5247132182121277 1.520391583442688 0.4286195635795593
v -0.4872519075870514 1.565979242324829 0.44281724095344543
v -0.4780726432800293 1.5578078031539917 0.37393221259117126
v -0.41505831480026245 1.4683529138565063 0.39864668250083923
v -0.4681491255760193 1.6141473054885864 0.32450324296951294
v -0.48080161213874817 1.4674928188323975 0.4286195635795593
v -0.41505831480026245 1.4683529138565063 0.39864668250083923
v -0.4098484516143799 1.420184850692749 0.41915443539619446
v -0.4865076541900635 1.5315735340118408 0.4601699709892273
v -0.5247132182121277 1.520391583442688 0.4286195635795593
v -0.4872519075870514 1.565979242324829 0.44281724095344543
v -0.34559366106987 1.7973579168319702 0.2324812412261963
v -0.3262428045272827 1.6636055707931519 0.26455748081207275
v -0.5140454173088074 1.8799316883087158 0.24773059785366058
v -0.5140454173088074 1.8799316883087158 0.24773059785366058
v -0.55894935131073 1.8390748500823975 0.29347866773605347
v -0.535132884979248 1.75779128074646 0.28664276003837585
v -0.5140454173088074 1.8799316883087158 0.24773059785366058
v -0.55894935131073 1.8390748500823975 0.29347866773605347
v -0.5018891096115112 1.9887399673461914 0.268238365650177
v -0.46666061878204346 1.9564845561981201 0.23511044681072235
v -0.45425620675086975 2.000782012939453 0.25877323746681213
v -0.5018891096115112 1.9887399673461914 0.268238365650177
v -0.34559366106987 1.7973579168319702 0.2324812412261963
v -0.46666061878204346 1.9564845561981201 0.23511044681072235
v -0.3706505596637726 1.8924038410186768 0.2314295619726181
v -0.535132884979248 1.75779128074646 0.28664276003837585
v -0.5428236126899719 1.7044624090194702 0.3202965259552002
v -0.4681491255760193 1.6141473054885864 0.32450324296951294
v -0.6286620497703552 2.0751843452453613 -0.27179932594299316
v -0.4096003770828247 1.8567078113555908 -0.2108018845319748
v -0.5492739081382751 1.9934707880020142 -0.33227092027664185
v -0.33939146995544434 1.774994134902954 -0.24130059778690338
v -0.41505831480026245 1.4683529138565063 0.39864668250083923
v -0.4681491255760193 1.6141473054885864 0.32450324296951294
v -0.3279794156551361 1.583612084388733 0.30925387144088745
v -0.3262428045272827 1.6636055707931519 0.26455748081207275
v -0.4096003770828247 1.8567078113555908 -0.2108018845319748
v -0.4465654790401459 1.8721904754638672 -0.19923339784145355
v -0.33939146995544434 1.774994134902954 -0.24130059778690338
v -0.30937281250953674 1.697581171989441 -0.24918819963932037
v -0.7462557554244995 2.1070098876953125 -0.4242929220199585
v -0.7087944746017456 2.0545408725738525 -0.4390164315700531
v -0.7532022595405579 2.0760445594787598 -0.4332321882247925
v -0.7065616846084595 1.959494948387146 -0.4547916352748871
v -0.6311429738998413 2.024005889892578 -0.4032593071460724
v -0.7087944746017456 2.0545408725738525 -0.4390164315700531
v -0.7082983255386353 2.127223014831543 -0.3743381202220917
v -0.7462557554244995 2.1070098876953125 -0.4242929220199585
v -0.5018891096115112 1.9887399673461914 0.268238365650177
v -0.5286825895309448 1.9070262908935547 0.31503811478614807
v -0.42696651816368103 1.9207886457443237 0.36236372590065
v -0.4812977910041809 1.8356342315673828 0.3855006694793701
v -0.42696651816368103 1.9207886457443237 0.36236372590065
v -0.4812977910041809 1.8356342315673828 0.3855006694793701
v -0.3895052373409271 1.7934871912002563 0.4228353202342987
v -0.4257260859012604 1.6674761772155762 0.4606958031654358
v -0.5428236126899719 1.7044624090194702 0.3202965259552002
v -0.4780726432800293 1.5578078031539917 0.37393221259117126
v -0.49767160415649414 1.564689040184021 0.4165252447128296
v -0.48675572872161865 1.5315735340118408 0.393914133310318
v -0.6043494343757629 1.4644821882247925 0.41968026757240295
v -0.49519073963165283 1.5100698471069336 0.44229140877723694
v -0.5817734599113464 1.4808249473571777 0.4438689053058624
v -0.4865076541900635 1.5315735340118408 0.4601699709892273
vn -0.48618289828300476 -0.3583114743232727 0.5471406579017639
vn -0.48618289828300476 -0.3583114743232727 0.5471406579017639
vn -0.48618289828300476 -0.3583114743232727 0.5471406579017639
vn -0.5687206387519836 -0.4123145043849945 0.24860523641109467
vn -0.5687206387519836 -0.4123145043849945 0.24860523641109467
vn -0.5687206387519836 -0.4123145043849945 0.24860523641109467
vn 0.5351077318191528 0.37379345297813416 -0.456519216299057
vn 0.5351077318191528 0.37379345297813416 -0.456519216299057
vn 0.5351077318191528 0.37379345297813416 -0.456519216299057
vn 0.6165918707847595 0.30318036675453186 -0.5361219048500061
vn 0.6165918707847595 0.30318036675453186 -0.5361219048500061
vn 0.6165918707847595 0.30318036675453186 -0.5361219048500061
vn 0.6492639780044556 0.35546478629112244 -0.34862664341926575
vn 0.6492639780044556 0.35546478629112244 -0.34862664341926575
vn 0.6492639780044556 0.35546478629112244 -0.34862664341926575
vn 0.33847537636756897 -0.03917946666479111 0.9380210638046265
vn 0.33847537636756897 -0.03917946666479111 0.9380210638046265
vn 0.33847537636756897 -0.03917946666479111 0.9380210638046265
vn 0.3284091651439667 -0.400736004114151 0.5580654144287109
vn 0.3284091651439667 -0.400736004114151 0.5580654144287109
vn 0.3284091651439667 -0.400736004114151 0.5580654144287109
vn -0.0644177719950676 0.02365410514175892 0.9969087839126587
vn -0.0644177719950676 0.02365410514175892 0.9969087839126587
vn -0.0644177719950676 0.02365410514175892 0.9969087839126587
vn -0.991797149181366 -0.01587432622909546 -0.1242060661315918
vn -0.991797149181366 -0.01587432622909546 -0.1242060661315918
vn -0.991797149181366 -0.01587432622909546 -0.1242060661315918
vn -0.8274582624435425 0.1630670130252838 0.46814218163490295
vn -0.8274582624435425 0.1630670130252838 0.46814218163490295
vn -0.8274582624435425 0.1630670130252838 0.46814218163490295
vn -0.30103740096092224 0.4974987208843231 0.11986933648586273
vn -0.30103740096092224 0.4974987208843231 0.11986933648586273
vn -0.30103740096092224 0.4974987208843231 0.11986933648586273
vn 0.1579115092754364 0.4912852346897125 -0.3198012113571167
vn 0.1579115092754364 0.4912852346897125 -0.3198012113571167
vn 0.1579115092754364 0.4912852346897125 -0.3198012113571167
vn 0.07913331687450409 0.4617353081703186 0.4719987213611603
vn 0.07913331687450409 0.4617353081703186 0.4719987213611603
vn 0.07913331687450409 0.4617353081703186 0.4719987213611603
vn -0.24536901712417603 0.21557791531085968 0.8784868121147156
vn -0.24536901712417603 0.21557791531085968 0.8784868121147156
vn -0.24536901712417603 0.21557791531085968 0.8784868121147156
vn 0.3391525447368622 0.41049516201019287 0.5250110030174255
vn 0.3391525447368622 0.41049516201019287 0.5250110030174255
vn 0.3391525447368622 0.41049516201019287 0.5250110030174255
vn 0.29741716384887695 0.5019142627716064 0.024029340595006943
vn 0.29741716384887695 0.5019142627716064 0.024029340595006943
vn 0.29741716384887695 0.5019142627716064 0.024029340595006943
vn 0.7149588465690613 -0.20560666918754578 -0.5796254277229309
vn 0.7149588465690613 -0.20560666918754578 -0.5796254277229309
vn 0.7149588465690613 -0.20560666918754578 -0.5796254277229309
vn 0.7833013534545898 0.30762237310409546 -0.2103329300880432
vn 0.7833013534545898 0.30762237310409546 -0.2103329300880432
vn 0.7833013534545898 0.30762237310409546 -0.2103329300880432
vn 0.5054605603218079 0.4141037166118622 0.3527185618877411
vn 0.5054605603218079 0.4141037166118622 0.3527185618877411
vn 0.5054605603218079 0.4141037166118622 0.3527185618877411
vn 0.5126808881759644 0.37715399265289307 0.4719987213611603
vn 0.5126808881759644 0.37715399265289307 0.4719987213611603
vn 0.5126808881759644 0.37715399265289307 0.4719987213611603
vn 0.7374904155731201 0.24795329570770264 0.4835140109062195
vn 0.7374904155731201 0.24795329570770264 0.4835140109062195
vn 0.7374904155731201 0.24795329570770264 0.4835140109062195
vn 0.971526563167572 0.07518843561410904 0.18892620503902435
vn 0.971526563167572 0.07518843561410904 0.18892620503902435
vn 0.971526563167572 0.07518843561410904 0.18892620503902435
vn -0.748548686504364 -0.329150915145874 0.21886809170246124
vn -0.748548686504364 -0.329150915145874 0.21886809170246124
vn -0.748548686504364 -0.329150915145874 0.21886809170246124
vn -0.6545072793960571 -0.3273497223854065 0.42909738421440125
vn -0.6545072793960571 -0.3273497223854065 0.42909738421440125
vn -0.6545072793960571 -0.3273497223854065 0.42909738421440125
vn -0.7718406915664673 -0.2576313614845276 0.405272513628006
vn -0.7718406915664673 -0.2576313614845276 0.405272513628006
vn -0.7718406915664673 -0.2576313614845276 0.405272513628006
vn -0.7036424279212952 -0.20523400604724884 0.5937783122062683
vn -0.7036424279212952 -0.20523400604724884 0.5937783122062683
vn -0.7036424279212952 -0.20523400604724884 0.5937783122062683
vn -0.3900511562824249 -0.42396917939186096 0.44481781125068665
vn -0.3900511562824249 -0.42396917939186096 0.44481781125068665
vn -0.3900511562824249 -0.42396917939186096 0.44481781125068665
vn -0.20862644910812378 -0.17154532670974731 0.9219872951507568
vn -0.20862644910812378 -0.17154532670974731 0.9219872951507568
vn -0.20862644910812378 -0.17154532670974731 0.9219872951507568
vn -0.24276965856552124 -0.3762185573577881 0.6551609039306641
vn -0.24276965856552124 -0.3762185573577881 0.6551609039306641
vn -0.24276965856552124 -0.3762185573577881 0.6551609039306641
vn -0.33602917194366455 -0.3007819950580597 0.7482877969741821
vn -0.33602917194366455 -0.3007819950580597 0.7482877969741821
vn -0.33602917194366455 -0.3007819950580597 0.7482877969741821
vn -0.42346468567848206 -0.3909928798675537 0.5175535082817078
vn -0.42346468567848206 -0.3909928798675537 0.5175535082817078
vn -0.42346468567848206 -0.3909928798675537 0.5175535082817078
vn -0.752598226070404 -0.14968670904636383 -0.5937783122062683
vn -0.752598226070404 -0.14968670904636383 -0.5937783122062683
vn -0.752598226070404 -0.14968670904636383 -0.5937783122062683
vn 0.2597828805446625 0.3356516361236572 -0.7246471047401428
vn 0.2597828805446625 0.3356516361236572 -0.7246471047401428
vn 0.2597828805446625 0.3356516361236572 -0.7246471047401428
vn -0.25596722960472107 0.233143612742424 -0.8590245246887207
vn -0.25596722960472107 0.233143612742424 -0.8590245246887207
vn -0.25596722960472107 0.233143612742424 -0.8590245246887207
vn 0.07339601963758469 0.08538571000099182 -0.9839963912963867
vn 0.07339601963758469 0.08538571000099182 -0.9839963912963867
vn 0.07339601963758469 0.08538571000099182 -0.9839963912963867
vn -0.8013930916786194 -0.26011383533477783 -0.3363112509250641
vn -0.8013930916786194 -0.26011383533477783 -0.3363112509250641
vn -0.8013930916786194 -0.26011383533477783 -0.3363112509250641
vn -0.7906703948974609 0.31779545545578003 0.0981530249118805
vn -0.7906703948974609 0.31779545545578003 0.0981530249118805
vn -0.7906703948974609 0.31779545545578003 0.0981530249118805
vn -0.6623268723487854 0.19727273285388947 0.6485338807106018
vn -0.6623268723487854 0.19727273285388947 0.6485338807106018
vn -0.6623268723487854 0.19727273285388947 0.6485338807106018
vn -0.52132648229599 0.17960910499095917 0.7820260524749756
vn -0.52132648229599 0.17960910499095917 0.7820260524749756
vn -0.52132648229599 0.17960910499095917 0.7820260524749756
vn -0.045281171798706055 0.48470476269721985 0.3852050006389618
vn -0.045281171798706055 0.48470476269721985 0.3852050006389618
vn -0.045281171798706055 0.48470476269721985 0.3852050006389618
vn -0.9143682718276978 -0.09652935713529587 0.36088213324546814
vn -0.9143682718276978 -0.09652935713529587 0.36088213324546814
vn -0.9143682718276978 -0.09652935713529587 0.36088213324546814
vn -0.9781453013420105 -0.10256905853748322 0.07203252613544464
vn -0.9781453013420105 -0.10256905853748322 0.07203252613544464
vn -0.9781453013420105 -0.10256905853748322 0.07203252613544464
vn -0.6209423542022705 0.27543309330940247 0.5831804275512695
vn -0.6209423542022705 0.27543309330940247 0.5831804275512695
vn -0.6209423542022705 0.27543309330940247 0.5831804275512695
vn -0.12864837050437927 -0.08028148114681244 -0.97986900806427
vn -0.12864837050437927 -0.08028148114681244 -0.97986900806427
vn -0.12864837050437927 -0.08028148114681244 -0.97986900806427
vn -0.20042875409126282 -0.24341365694999695 -0.8634653687477112
vn -0.20042875409126282 -0.24341365694999695 -0.8634653687477112
vn -0.20042875409126282 -0.24341365694999695 -0.8634653687477112
vn -0.22003978490829468 -0.30855685472488403 -0.7792953848838806
vn -0.22003978490829468 -0.30855685472488403 -0.7792953848838806
vn -0.22003978490829468 -0.30855685472488403 -0.7792953848838806
vn -0.5278093814849854 0.20264162123203278 -0.7569189071655273
vn -0.5278093814849854 0.20264162123203278 -0.7569189071655273
vn -0.5278093814849854 0.20264162123203278 -0.7569189071655273
vn 0.19746451079845428 0.340176522731781 -0.736579954624176
vn 0.19746451079845428 0.340176522731781 -0.736579954624176
vn 0.19746451079845428 0.340176522731781 -0.736579954624176
vn -0.435252845287323 -0.38320210576057434 -0.528724730014801
vn -0.435252845287323 -0.38320210576057434 -0.528724730014801
vn -0.435252845287323 -0.38320210576057434 -0.528724730014801
vn -0.7921463847160339 -0.1905369609594345 -0.4911448359489441
vn -0.7921463847160339 -0.1905369609594345 -0.4911448359489441
vn -0.7921463847160339 -0.1905369609594345 -0.4911448359489441
vn -0.5040276646614075 -0.09319540113210678 0.8453097939491272
vn -0.5040276646614075 -0.09319540113210678 0.8453097939491272
vn -0.5040276646614075 -0.09319540113210678 0.8453097939491272
vn -0.635343074798584 -0.3866831362247467 0.23588760197162628
vn -0.635343074798584 -0.3866831362247467 0.23588760197162628
vn -0.635343074798584 -0.3866831362247467 0.23588760197162628
vn -0.4898500442504883 -0.4091654419898987 0.3932546079158783
vn -0.4898500442504883 -0.4091654419898987 0.3932546079158783
vn -0.4898500442504883 -0.4091654419898987 0.3932546079158783
vn -0.32045599818229675 -0.37117600440979004 -0.6317508816719055
vn -0.32045599818229675 -0.37117600440979004 -0.6317508816719055
vn -0.32045599818229675 -0.37117600440979004 -0.6317508816719055
vn 0.5131158828735352 0.33289968967437744 -0.5796254277229309
vn 0.5131158828735352 0.33289968967437744 -0.5796254277229309
vn 0.5131158828735352 0.33289968967437744 -0.5796254277229309
vn 0.5608911514282227 0.390778511762619 -0.3649536371231079
vn 0.5608911514282227 0.390778511762619 -0.3649536371231079
vn 0.5608911514282227 0.390778511762619 -0.3649536371231079
vn 0.35212716460227966 0.27042296528816223 -0.7820260524749756
vn 0.35212716460227966 0.27042296528816223 -0.7820260524749756
vn 0.35212716460227966 0.27042296528816223 -0.7820260524749756
vn 0.4555426836013794 0.4334444999694824 -0.3363112509250641
vn 0.4555426836013794 0.4334444999694824 -0.3363112509250641
vn 0.4555426836013794 0.4334444999694824 -0.3363112509250641
vn 0.5039676427841187 -0.14081475138664246 0.8211658596992493
vn 0.5039676427841187 -0.14081475138664246 0.8211658596992493
vn 0.5039676427841187 -0.14081475138664246 0.8211658596992493
vn 0.4661818742752075 -0.4378504455089569 0.2990269064903259
vn 0.4661818742752075 -0.4378504455089569 0.2990269064903259
vn 0.4661818742752075 -0.4378504455089569 0.2990269064903259
vn 0.17593993246555328 0.21819238364696503 0.8926864862442017
vn 0.17593993246555328 0.21819238364696503 0.8926864862442017
vn 0.17593993246555328 0.21819238364696503 0.8926864862442017
vn -0.6923672556877136 -0.3662014305591583 0.18892620503902435
vn -0.6923672556877136 -0.3662014305591583 0.18892620503902435
vn -0.6923672556877136 -0.3662014305591583 0.18892620503902435
vn 0.2098565548658371 0.5140973329544067 -0.0152922747656703
vn 0.2098565548658371 0.5140973329544067 -0.0152922747656703
vn 0.2098565548658371 0.5140973329544067 -0.0152922747656703
vn -0.7247826457023621 0.28672757744789124 -0.42118772864341736
vn -0.7247826457023621 0.28672757744789124 -0.42118772864341736
vn -0.7247826457023621 0.28672757744789124 -0.42118772864341736
vn -0.709034264087677 -0.3637433350086212 0.1372016966342926
vn -0.709034264087677 -0.3637433350086212 0.1372016966342926
vn -0.709034264087677 -0.3637433350086212 0.1372016966342926
vn 0.39575496315956116 0.46613427996635437 0.2401314377784729
vn 0.39575496315956116 0.46613427996635437 0.2401314377784729
vn 0.39575496315956116 0.46613427996635437 0.2401314377784729
vn 0.06910430639982224 0.1807926595211029 0.9364978075027466
vn 0.06910430639982224 0.1807926595211029 0.9364978075027466
vn 0.06910430639982224 0.1807926595211029 0.9364978075027466
vn 0.4187372624874115 0.475224107503891 -0.08945280313491821
vn 0.4187372624874115 0.475224107503891 -0.08945280313491821
vn 0.4187372624874115 0.475224107503891 -0.08945280313491821
vn 0.24069805443286896 0.4921831786632538 0.25706008076667786
vn 0.24069805443286896 0.4921831786632538 0.25706008076667786
vn 0.24069805443286896 0.4921831786632538 0.25706008076667786
vn 0.48450222611427307 -0.33952417969703674 -0.590256929397583
vn 0.48450222611427307 -0.33952417969703674 -0.590256929397583
vn 0.48450222611427307 -0.33952417969703674 -0.590256929397583
vn 0.5338580012321472 -0.11628632247447968 -0.8161473870277405
vn 0.5338580012321472 -0.11628632247447968 -0.8161473870277405
vn 0.5338580012321472 -0.11628632247447968 -0.8161473870277405
vn -0.09788466989994049 -0.408730685710907 -0.6215357780456543
vn -0.09788466989994049 -0.408730685710907 -0.6215357780456543
vn -0.09788466989994049 -0.408730685710907 -0.6215357780456543
vn 0.7931364178657532 0.3177488446235657 0.0763898640871048
vn 0.7931364178657532 0.3177488446235657 0.0763898640871048
vn 0.7931364178657532 0.3177488446235657 0.0763898640871048
vn 0.3831356465816498 0.41510769724845886 -0.4796847105026245
vn 0.3831356465816498 0.41510769724845886 -0.4796847105026245
vn 0.3831356465816498 0.41510769724845886 -0.4796847105026245
vn 0.3235752582550049 0.47491738200187683 0.28230419754981995
vn 0.3235752582550049 0.47491738200187683 0.28230419754981995
vn 0.3235752582550049 0.47491738200187683 0.28230419754981995
vn 0.8483081459999084 0.24343493580818176 0.25706008076667786
vn 0.8483081459999084 0.24343493580818176 0.25706008076667786
vn 0.8483081459999084 0.24343493580818176 0.25706008076667786
vn 0.7300599217414856 0.18425512313842773 -0.5867242813110352
vn 0.7300599217414856 0.18425512313842773 -0.5867242813110352
vn 0.7300599217414856 0.18425512313842773 -0.5867242813110352
vn -0.7897641658782959 -0.2752666771411896 0.3198012113571167
vn -0.7897641658782959 -0.2752666771411896 0.3198012113571167
vn -0.7897641658782959 -0.2752666771411896 0.3198012113571167
vn -0.8421708941459656 -0.2629520893096924 0.2017817199230194
vn -0.8421708941459656 -0.2629520893096924 0.2017817199230194
vn -0.8421708941459656 -0.2629520893096924 0.2017817199230194
vn -0.30168747901916504 -0.3907860517501831 0.5972883701324463
vn -0.30168747901916504 -0.3907860517501831 0.5972883701324463
vn -0.30168747901916504 -0.3907860517501831 0.5972883701324463
vn -0.3591190278530121 -0.3905182182788849 0.5652954578399658
vn -0.3591190278530121 -0.3905182182788849 0.5652954578399658
vn -0.3591190278530121 -0.3905182182788849 0.5652954578399658
vn -0.36717063188552856 -0.2842908501625061 0.7569189071655273
vn -0.36717063188552856 -0.2842908501625061 0.7569189071655273
vn -0.36717063188552856 -0.2842908501625061 0.7569189071655273
vn -0.5727236270904541 -0.24725082516670227 0.6715083718299866
vn -0.5727236270904541 -0.24725082516670227 0.6715083718299866
vn -0.5727236270904541 -0.24725082516670227 0.6715083718299866
vn 0.14722371101379395 0.26399075984954834 -0.8522403836250305
vn 0.14722371101379395 0.26399075984954834 -0.8522403836250305
vn 0.14722371101379395 0.26399075984954834 -0.8522403836250305
vn 0.25727763772010803 0.15779657661914825 -0.9185682535171509
vn 0.25727763772010803 0.15779657661914825 -0.9185682535171509
vn 0.25727763772010803 0.15779657661914825 -0.9185682535171509
vn 0.4362763464450836 0.29314857721328735 -0.7063339352607727
vn 0.4362763464450836 0.29314857721328735 -0.7063339352607727
vn 0.4362763464450836 0.29314857721328735 -0.7063339352607727
vn -0.019612373784184456 -0.015211367048323154 -0.999389111995697
vn -0.019612373784184456 -0.015211367048323154 -0.999389111995697
vn -0.019612373784184456 -0.015211367048323154 -0.999389111995697
vn -0.7849569916725159 0.1849425733089447 0.5100564956665039
vn -0.7849569916725159 0.1849425733089447 0.5100564956665039
vn -0.7849569916725159 0.1849425733089447 0.5100564956665039
vn -0.6451266407966614 0.16463202238082886 0.6969945430755615
vn -0.6451266407966614 0.16463202238082886 0.6969945430755615
vn -0.6451266407966614 0.16463202238082886 0.6969945430755615
vn -0.9294845461845398 -0.16382530331611633 0.1975002884864807
vn -0.9294845461845398 -0.16382530331611633 0.1975002884864807
vn -0.9294845461845398 -0.16382530331611633 0.1975002884864807
vn -0.5813311338424683 0.4133400619029999 0.2103329300880432
vn -0.5813311338424683 0.4133400619029999 0.2103329300880432
vn -0.5813311338424683 0.4133400619029999 0.2103329300880432
vn -0.36532580852508545 -0.40154483914375305 -0.5324283838272095
vn -0.36532580852508545 -0.40154483914375305 -0.5324283838272095
vn -0.36532580852508545 -0.40154483914375305 -0.5324283838272095
vn -0.3170742988586426 -0.3364313542842865 -0.7001210451126099
vn -0.3170742988586426 -0.3364313542842865 -0.7001210451126099
vn -0.3170742988586426 -0.3364313542842865 -0.7001210451126099
vn -0.5843225717544556 0.28485459089279175 0.6042742133140564
vn -0.5843225717544556 0.28485459089279175 0.6042742133140564
vn -0.5843225717544556 0.28485459089279175 0.6042742133140564
vn -0.19477176666259766 -0.2381901741027832 -0.8700028657913208
vn -0.19477176666259766 -0.2381901741027832 -0.8700028657913208
vn -0.19477176666259766 -0.2381901741027832 -0.8700028657913208
vn -0.6356592178344727 -0.1263648122549057 -0.7336177229881287
vn -0.6356592178344727 -0.1263648122549057 -0.7336177229881287
vn -0.6356592178344727 -0.1263648122549057 -0.7336177229881287
vn -0.7452636361122131 0.1918850541114807 -0.5580654144287109
vn -0.7452636361122131 0.1918850541114807 -0.5580654144287109
vn -0.7452636361122131 0.1918850541114807 -0.5580654144287109
vn -0.22706156969070435 0.39576295018196106 -0.6181069612503052
vn -0.22706156969070435 0.39576295018196106 -0.6181069612503052
vn -0.22706156969070435 0.39576295018196106 -0.6181069612503052
vn -0.05560975521802902 -0.02223034016788006 -0.9975572824478149
vn -0.05560975521802902 -0.02223034016788006 -0.9975572824478149
vn -0.05560975521802902 -0.02223034016788006 -0.9975572824478149
vn -0.384186327457428 -0.3472796380519867 -0.6452018022537231
vn -0.384186327457428 -0.3472796380519867 -0.6452018022537231
vn -0.384186327457428 -0.3472796380519867 -0.6452018022537231
vn 0.48432859778404236 0.4596620202064514 -0.03713129088282585
vn 0.48432859778404236 0.4596620202064514 -0.03713129088282585
vn 0.48432859778404236 0.4596620202064514 -0.03713129088282585
vn 0.48432859778404236 0.4596620202064514 -0.03713129088282585
vn -0.15564563870429993 -0.3841155171394348 -0.6650074124336243
vn -0.15564563870429993 -0.3841155171394348 -0.6650074124336243
vn -0.15564563870429993 -0.3841155171394348 -0.6650074124336243
vn -0.15564563870429993 -0.3841155171394348 -0.6650074124336243
vn 0.37795743346214294 0.015791134908795357 0.9253358840942383
vn 0.37795743346214294 0.015791134908795357 0.9253358840942383
vn 0.37795743346214294 0.015791134908795357 0.9253358840942383
vn 0.37795743346214294 0.015791134908795357 0.9253358840942383
vn -0.03213431313633919 0.18363282084465027 -0.9364978075027466
vn -0.03213431313633919 0.18363282084465027 -0.9364978075027466
vn -0.03213431313633919 0.18363282084465027 -0.9364978075027466
vn -0.03213431313633919 0.18363282084465027 -0.9364978075027466
vn 0.388579398393631 0.4161435067653656 -0.4719987213611603
vn 0.388579398393631 0.4161435067653656 -0.4719987213611603
vn 0.388579398393631 0.4161435067653656 -0.4719987213611603
vn 0.388579398393631 0.4161435067653656 -0.4719987213611603
vn -0.3210636079311371 0.3953039348125458 0.5760593414306641
vn -0.3210636079311371 0.3953039348125458 0.5760593414306641
vn -0.3210636079311371 0.3953039348125458 0.5760593414306641
vn -0.3210636079311371 0.3953039348125458 0.5760593414306641
vn -0.18725775182247162 0.3069171905517578 0.790128231048584
vn -0.18725775182247162 0.3069171905517578 0.790128231048584
vn -0.18725775182247162 0.3069171905517578 0.790128231048584
vn -0.18725775182247162 0.3069171905517578 0.790128231048584
vn -0.7102748155593872 -0.3419243097305298 -0.26970529556274414
vn -0.7102748155593872 -0.3419243097305298 -0.26970529556274414
vn -0.7102748155593872 -0.3419243097305298 -0.26970529556274414
vn -0.7102748155593872 -0.3419243097305298 -0.26970529556274414
vn 0.17078636586666107 -0.4915674030780792 0.31150925159454346
vn 0.17078636586666107 -0.4915674030780792 0.31150925159454346
vn 0.17078636586666107 -0.4915674030780792 0.31150925159454346
vn 0.17078636586666107 -0.4915674030780792 0.31150925159454346
s on
f 1//1 2//2 3//3
f 4//4 6//6 5//5
f 7//7 8//8 9//9
f 10//10 12//12 11//11
f 13//13 14//14 15//15
f 16//16 18//18 17//17
f 19//19 20//20 21//21
f 22//22 24//24 23//23
f 25//25 26//26 27//27
f 28//28 30//30 29//29
f 31//31 32//32 33//33
f 34//34 36//36 35//35
f 37//37 38//38 39//39
f 40//40 42//42 41//41
f 43//43 44//44 45//45
f 46//46 48//48 47//47
f 49//49 50//50 51//51
f 52//52 54//54 53//53
f 55//55 56//56 57//57
f 58//58 60//60 59//59
f 61//61 62//62 63//63
f 64//64 66//66 65//65
f 67//67 68//68 69//69
f 70//70 72//72 71//71
f 73//73 74//74 75//75
f 76//76 78//78 77//77
f 79//79 80//80 81//81
f 82//82 84//84 83//83
f 85//85 86//86 87//87
f 88//88 90//90 89//89
f 91//91 92//92 93//93
f 94//94 96//96 95//95
f 97//97 98//98 99//99
f 100//100 102//102 101//101
f 103//103 104//104 105//105
f 106//106 108//108 107//107
f 109//109 110//110 111//111
f 112//112 114//114 113//113
f 115//115 116//116 117//117
f 118//118 120//120 119//119
f 121//121 122//122 123//123
f 124//124 126//126 125//125
f 127//127 128//128 129//129
f 130//130 132//132 131//131
f 133//133 134//134 135//135
f 136//136 138//138 137//137
f 139//139 140//140 141//141
f 142//142 144//144 143//143
f 145//145 146//146 147//147
f 148//148 150//150 149//149
f 151//151 152//152 153//153
f 154//154 156//156 155//155
f 157//157 158//158 159//159
f 160//160 162//162 161//161
f 163//163 164//164 165//165
f 166//166 168//168 167//167
f 169//169 170//170 171//171
f 172//172 174//174 173//173
f 175//175 176//176 177//177
f 178//178 180//180 179//179
f 181//181 182//182 183//183
f 184//184 186//186 185//185
f 187//187 188//188 189//189
f 190//190 192//192 191//191
f 193//193 194//194 195//195
f 196//196 198//198 197//197
f 199//199 200//200 201//201
f 202//202 204//204 203//203
f 205//205 206//206 207//207
f 208//208 210//210 209//209
f 211//211 212//212 213//213
f 214//214 216//216 215//215
f 217//217 218//218 219//219
f 220//220 222//222 221//221
f 223//223 224//224 225//225
f 226//226 228//228 227//227
f 229//229 230//230 231//231
f 232//232 234//234 233//233
f 235//235 236//236 237//237
f 238//238 240//240 239//239
f 241//241 242//242 243//243
f 244//244 246//246 245//245
f 247//247 248//248 249//249
f 250//250 252//252 251//251
f 253//253 254//254 255//255
f 256//256 258//258 257//257
f 259//259 260//260 261//261
f 262//262 264//264 263//263
f 265//265 266//266 267//267
f 268//268 270//270 269//269
f 271//271 272//272 273//273
f 274//274 276//276 275//275
f 277//277 278//278 279//279
f 280//280 282//282 281//281
f 283//283 284//284 285//285
f 286//286 288//288 287//287
f 289//289 290//290 291//291
f 292//292 294//294 293//293
f 295//295 296//296 297//297
f 298//298 300//300 299//299
f 301//301 302//302 303//303
f 302//302 304//304 303//303
f 305//305 306//306 307//307
f 306//306 308//308 307//307
f 309//309 310//310 311//311
f 310//310 312//312 311//311
f 313//313 314//314 315//315
f 314//314 316//316 315//315
f 317//317 318//318 319//319
f 318//318 320//320 319//319
f 321//321 322//322 323//323
f 322//322 324//324 323//323
f 325//325 326//326 327//327
f 326//326 328//328 327//327
f 329//329 330//330 331//331
f 330//330 332//332 331//331
f 333//333 334//334 335//335
f 334//334 336//336 335//335

