# Exported by Sketchfab Model Ripper robust edition
o model_5
v -0.540094256401062 1.4205174446105957 0.49918344616889954
v -0.4814126789569855 1.4078679084777832 0.4597027003765106
v -0.6131991744041443 1.535234808921814 0.4295986592769623
v -0.4543440639972687 1.4325125217437744 0.43749481439590454
v -0.6149774193763733 1.5901944637298584 0.4212090075016022
v -0.3988237977027893 1.4189907312393188 0.4379883110523224
v -0.4377472698688507 1.6405742168426514 -0.43009400367736816
v -0.4166060984134674 1.670016884803772 -0.3891327679157257
v -0.3996141254901886 1.5805983543395996 -0.40295103192329407
v -0.5009731650352478 1.4645724296569824 0.4355207681655884
v -0.6211024522781372 1.5439585447311401 0.3215201795101166
v -0.6181387305259705 1.5158244371414185 0.3965335488319397
v -0.4166060984134674 1.670016884803772 -0.3891327679157257
v -0.2913397550582886 1.629887580871582 -0.3225090503692627
v -0.2812631130218506 1.58408784866333 -0.3461974859237671
v -0.4537513256072998 1.6706712245941162 0.4108453094959259
v -0.5796104073524475 1.7810267210006714 0.41281935572624207
v -0.3474527597427368 1.6935710906982422 0.37926074862480164
v -0.6149774193763733 1.5901944637298584 0.4212090075016022
v -0.4537513256072998 1.6706712245941162 0.4108453094959259
v -0.6467879414558411 1.6776502132415771 0.4463779628276825
v -0.3996141254901886 1.5805983543395996 -0.40295103192329407
v -0.387759268283844 1.4660990238189697 -0.39653539657592773
v -0.2812631130218506 1.58408784866333 -0.3461974859237671
v -0.4087028503417969 1.5304367542266846 -0.4009769856929779
v -0.3188035190105438 1.5252025127410889 -0.3772885501384735
v -0.3719528019428253 1.5561718940734863 -0.37679505348205566
v -0.5859330296516418 1.7768830060958862 -0.3614962697029114
v -0.5798079967498779 1.7583450078964233 -0.40492504835128784
v -0.5782273411750793 1.7930219173431396 -0.37037941813468933
v -0.5337716341018677 1.77055823802948 -0.30918431282043457
v -0.5555055737495422 1.792149543762207 -0.3249765932559967
v -0.5859330296516418 1.7768830060958862 -0.3614962697029114
v -0.5555055737495422 1.792149543762207 -0.3249765932559967
v -0.5782273411750793 1.7930219173431396 -0.37037941813468933
v -0.5468119978904724 1.7952028512954712 -0.3343532681465149
v -0.4539489150047302 1.7500574588775635 -0.3047427237033844
v -0.5082836747169495 1.7574726343154907 -0.39702892303466797
v -0.5468119978904724 1.7952028512954712 -0.3343532681465149
v -0.4539489150047302 1.7500574588775635 -0.3047427237033844
v -0.5555055737495422 1.792149543762207 -0.3249765932559967
v -0.5468119978904724 1.7952028512954712 -0.3343532681465149
v -0.3429083824157715 1.6748149394989014 -0.30523625016212463
v -0.2913397550582886 1.629887580871582 -0.3225090503692627
v -0.4539489150047302 1.7500574588775635 -0.3047427237033844
v -0.4071222245693207 1.6735063791275024 0.3230007290840149
v -0.4318198263645172 1.5367615222930908 0.3856763541698456
v -0.3014163672924042 1.6479893922805786 0.333857923746109
v -0.3952673673629761 1.765105962753296 0.2884550988674164
v -0.2856099009513855 1.687246322631836 0.3239877223968506
v -0.3014163672924042 1.6479893922805786 0.333857923746109
v -0.6181387305259705 1.5158244371414185 0.3965335488319397
v -0.6505420207977295 1.5576984882354736 0.333857923746109
v -0.6272274255752563 1.5051379203796387 0.4394688308238983
v -0.6319693922996521 1.5653318166732788 0.3052344024181366
v -0.6505420207977295 1.5576984882354736 0.333857923746109
v -0.6525177955627441 1.5930297374725342 0.30819544196128845
v -0.6211024522781372 1.5439585447311401 0.3215201795101166
v -0.6505420207977295 1.5576984882354736 0.333857923746109
v -0.6181387305259705 1.5158244371414185 0.3965335488319397
v -0.5926507711410522 1.4807113409042358 0.4325597286224365
v -0.6272274255752563 1.5051379203796387 0.4394688308238983
v -0.6181387305259705 1.5158244371414185 0.3965335488319397
v -0.6505420207977295 1.5576984882354736 0.333857923746109
v -0.6525177955627441 1.5930297374725342 0.30819544196128845
v -0.665162980556488 1.5947744846343994 0.35458528995513916
v -0.5009731650352478 1.4645724296569824 0.4355207681655884
v -0.5926507711410522 1.4807113409042358 0.4325597286224365
v -0.6181387305259705 1.5158244371414185 0.3965335488319397
v -0.3946745991706848 1.7675049304962158 0.3407670557498932
v -0.3474527597427368 1.6935710906982422 0.37926074862480164
v -0.5796104073524475 1.7810267210006714 0.41281935572624207
v -0.5165820717811584 1.6383932828903198 -0.3901197910308838
v -0.5434530973434448 1.6464627981185913 -0.4128212034702301
v -0.530017614364624 1.5382881164550781 -0.4296005070209503
v -0.5337716341018677 1.77055823802948 -0.30918431282043457
v -0.5165820717811584 1.6383932828903198 -0.3901197910308838
v -0.5859330296516418 1.7768830060958862 -0.3614962697029114
v -0.5434530973434448 1.6464627981185913 -0.4128212034702301
v -0.5798079967498779 1.7583450078964233 -0.40492504835128784
v -0.538316011428833 1.6220362186431885 -0.4296005070209503
v -0.3719528019428253 1.5561718940734863 -0.37679505348205566
v -0.3954649269580841 1.6992415189743042 -0.2919114828109741
v -0.2913397550582886 1.629887580871582 -0.3225090503692627
v -0.3719528019428253 1.5561718940734863 -0.37679505348205566
v -0.2812631130218506 1.58408784866333 -0.3461974859237671
v -0.2913397550582886 1.629887580871582 -0.3225090503692627
v -0.3188035190105438 1.5252025127410889 -0.3772885501384735
v -0.4859570264816284 1.473514199256897 -0.43108102679252625
v -0.4087028503417969 1.5304367542266846 -0.4009769856929779
v -0.387759268283844 1.4660990238189697 -0.39653539657592773
v -0.3188035190105438 1.5252025127410889 -0.3772885501384735
v -0.4859570264816284 1.473514199256897 -0.43108102679252625
v -0.387759268283844 1.4660990238189697 -0.39653539657592773
v -0.43972307443618774 1.4303315877914429 -0.39900293946266174
v -0.4859570264816284 1.473514199256897 -0.43108102679252625
v -0.5337716341018677 1.77055823802948 -0.30918431282043457
v -0.5165820717811584 1.6383932828903198 -0.3901197910308838
v -0.4758804142475128 1.6093868017196655 -0.38222363591194153
v -0.43241259455680847 1.5317453145980835 -0.4676007032394409
v -0.4377472698688507 1.6405742168426514 -0.43009400367736816
v -0.44565051794052124 1.5877954959869385 -0.4448992908000946
v -0.4409085512161255 1.4807113409042358 -0.5026398301124573
v -0.43241259455680847 1.5317453145980835 -0.4676007032394409
v -0.4106786847114563 1.4488695859909058 -0.5110294818878174
v -0.48299330472946167 1.4460344314575195 -0.4794449210166931
v -0.44565051794052124 1.5877954959869385 -0.4448992908000946
v -0.4960336685180664 1.5201863050460815 -0.4473668336868286
v -0.48299330472946167 1.4460344314575195 -0.4794449210166931
v -0.5308079123497009 1.473514199256897 -0.4365096390247345
v -0.4960336685180664 1.5201863050460815 -0.4473668336868286
v -0.4377472698688507 1.6405742168426514 -0.43009400367736816
v -0.5082836747169495 1.7574726343154907 -0.39702892303466797
v -0.5361425876617432 1.7275937795639038 -0.4236783981323242
v -0.5082836747169495 1.7574726343154907 -0.39702892303466797
v -0.5361425876617432 1.7275937795639038 -0.4236783981323242
v -0.5479974746704102 1.773829698562622 -0.39900293946266174
v -0.5361425876617432 1.7275937795639038 -0.4236783981323242
v -0.5798079967498779 1.7583450078964233 -0.40492504835128784
v -0.538316011428833 1.6220362186431885 -0.4296005070209503
v -0.6527153849601746 1.6926987171173096 0.36396196484565735
v -0.6465904116630554 1.7949848175048828 0.3930789828300476
v -0.6258443593978882 1.812650442123413 0.3610009253025055
v -0.6527153849601746 1.6926987171173096 0.36396196484565735
v -0.6465904116630554 1.7949848175048828 0.3930789828300476
v -0.659433126449585 1.73042893409729 0.44094938039779663
v -0.6525177955627441 1.5930297374725342 0.30819544196128845
v -0.665162980556488 1.5947744846343994 0.35458528995513916
v -0.6527153849601746 1.6926987171173096 0.36396196484565735
v -0.5960096716880798 1.7232319116592407 0.331390380859375
v -0.6527153849601746 1.6926987171173096 0.36396196484565735
v -0.6525177955627441 1.5930297374725342 0.30819544196128845
v -0.665162980556488 1.5947744846343994 0.35458528995513916
v -0.6432315111160278 1.5424319505691528 0.4261440932750702
v -0.659433126449585 1.73042893409729 0.44094938039779663
v -0.4318198263645172 1.5367615222930908 0.3856763541698456
v -0.48358607292175293 1.4316401481628418 0.45526114106178284
v -0.3014163672924042 1.6479893922805786 0.333857923746109
v -0.6272274255752563 1.5051379203796387 0.4394688308238983
v -0.5926507711410522 1.4807113409042358 0.4325597286224365
v -0.6159653067588806 1.4765675067901611 0.43897533416748047
v -0.6467879414558411 1.6776502132415771 0.4463779628276825
v -0.6272274255752563 1.5051379203796387 0.4394688308238983
v -0.6432315111160278 1.5424319505691528 0.4261440932750702
v -0.3988237977027893 1.4189907312393188 0.4379883110523224
v -0.47192877531051636 1.4157192707061768 0.4557546377182007
v -0.3237430453300476 1.4975045919418335 0.42219603061676025
v -0.3237430453300476 1.4975045919418335 0.42219603061676025
v -0.3474527597427368 1.6935710906982422 0.37926074862480164
v -0.26071467995643616 1.6178925037384033 0.3713645935058594
v -0.3952673673629761 1.765105962753296 0.2884550988674164
v -0.5197433829307556 1.7197424173355103 0.32003965973854065
v -0.5355498790740967 1.80828857421875 0.3042473793029785
v -0.5197433829307556 1.7197424173355103 0.32003965973854065
v -0.5809934735298157 1.8268264532089233 0.3274422883987427
v -0.5960096716880798 1.7232319116592407 0.331390380859375
v -0.4699529707431793 1.8045809268951416 0.29783177375793457
v -0.5355498790740967 1.80828857421875 0.3042473793029785
v -0.5809934735298157 1.8268264532089233 0.3274422883987427
v -0.6319693922996521 1.5653318166732788 0.3052344024181366
v -0.45849326252937317 1.6192010641098022 0.33533844351768494
v -0.5197433829307556 1.7197424173355103 0.32003965973854065
v -0.4318198263645172 1.5367615222930908 0.3856763541698456
v -0.6211024522781372 1.5439585447311401 0.3215201795101166
v -0.6319693922996521 1.5653318166732788 0.3052344024181366
v -0.5197433829307556 1.7197424173355103 0.32003965973854065
v -0.5960096716880798 1.7232319116592407 0.331390380859375
v -0.6525177955627441 1.5930297374725342 0.30819544196128845
v -0.5683482885360718 1.4229164123535156 0.48289763927459717
v -0.6228806376457214 1.4599924087524414 0.411832332611084
v -0.6266347169876099 1.4442896842956543 0.395546555519104
v -0.4960336685180664 1.5201863050460815 -0.4473668336868286
v -0.5349571108818054 1.532835841178894 -0.44637981057167053
v -0.5256708264350891 1.502302646636963 -0.44637981057167053
v -0.5349571108818054 1.532835841178894 -0.44637981057167053
v -0.5256708264350891 1.502302646636963 -0.44637981057167053
v -0.530017614364624 1.5382881164550781 -0.4296005070209503
v -0.4859570264816284 1.473514199256897 -0.43108102679252625
v -0.530017614364624 1.5382881164550781 -0.4296005070209503
v -0.4087028503417969 1.5304367542266846 -0.4009769856929779
v -0.5256708264350891 1.502302646636963 -0.44637981057167053
v -0.4859570264816284 1.473514199256897 -0.43108102679252625
v -0.530017614364624 1.5382881164550781 -0.4296005070209503
v -0.4960336685180664 1.5201863050460815 -0.4473668336868286
v -0.5256708264350891 1.502302646636963 -0.44637981057167053
v -0.5308079123497009 1.473514199256897 -0.4365096390247345
v -0.4814126789569855 1.4078679084777832 0.4597027003765106
v -0.428460955619812 1.3803881406784058 0.4310791790485382
v -0.4543440639972687 1.4325125217437744 0.43749481439590454
v -0.6131991744041443 1.535234808921814 0.4295986592769623
v -0.6149774193763733 1.5901944637298584 0.4212090075016022
v -0.4543440639972687 1.4325125217437744 0.43749481439590454
v -0.6131991744041443 1.535234808921814 0.4295986592769623
v -0.4814126789569855 1.4078679084777832 0.4597027003765106
v -0.4543440639972687 1.4325125217437744 0.43749481439590454
v -0.5683482885360718 1.4229164123535156 0.48289763927459717
v -0.6228806376457214 1.4599924087524414 0.411832332611084
v -0.6131991744041443 1.535234808921814 0.4295986592769623
v -0.5683482885360718 1.4229164123535156 0.48289763927459717
v -0.540094256401062 1.4205174446105957 0.49918344616889954
v -0.6131991744041443 1.535234808921814 0.4295986592769623
v -0.6131991744041443 1.535234808921814 0.4295986592769623
v -0.6467879414558411 1.6776502132415771 0.4463779628276825
v -0.6149774193763733 1.5901944637298584 0.4212090075016022
v -0.40099719166755676 1.4521410465240479 -0.4236783981323242
v -0.3996141254901886 1.5805983543395996 -0.40295103192329407
v -0.387759268283844 1.4660990238189697 -0.39653539657592773
v -0.3954649269580841 1.6992415189743042 -0.2919114828109741
v -0.457110196352005 1.7169071435928345 -0.30079466104507446
v -0.5337716341018677 1.77055823802948 -0.30918431282043457
v -0.3954649269580841 1.6992415189743042 -0.2919114828109741
v -0.4539489150047302 1.7500574588775635 -0.3047427237033844
v -0.5337716341018677 1.77055823802948 -0.30918431282043457
v -0.4539489150047302 1.7500574588775635 -0.3047427237033844
v -0.5337716341018677 1.77055823802948 -0.30918431282043457
v -0.5555055737495422 1.792149543762207 -0.3249765932559967
v -0.4318198263645172 1.5367615222930908 0.3856763541698456
v -0.5009731650352478 1.4645724296569824 0.4355207681655884
v -0.6211024522781372 1.5439585447311401 0.3215201795101166
v -0.4377472698688507 1.6405742168426514 -0.43009400367736816
v -0.4166060984134674 1.670016884803772 -0.3891327679157257
v -0.5082836747169495 1.7574726343154907 -0.39702892303466797
v -0.4166060984134674 1.670016884803772 -0.3891327679157257
v -0.5082836747169495 1.7574726343154907 -0.39702892303466797
v -0.2913397550582886 1.629887580871582 -0.3225090503692627
v -0.3996141254901886 1.5805983543395996 -0.40295103192329407
v -0.2812631130218506 1.58408784866333 -0.3461974859237671
v -0.4166060984134674 1.670016884803772 -0.3891327679157257
v -0.6149774193763733 1.5901944637298584 0.4212090075016022
v -0.3237430453300476 1.4975045919418335 0.42219603061676025
v -0.4537513256072998 1.6706712245941162 0.4108453094959259
v -0.6149774193763733 1.5901944637298584 0.4212090075016022
v -0.3237430453300476 1.4975045919418335 0.42219603061676025
v -0.3988237977027893 1.4189907312393188 0.4379883110523224
v -0.4537513256072998 1.6706712245941162 0.4108453094959259
v -0.3237430453300476 1.4975045919418335 0.42219603061676025
v -0.3474527597427368 1.6935710906982422 0.37926074862480164
v -0.387759268283844 1.4660990238189697 -0.39653539657592773
v -0.3188035190105438 1.5252025127410889 -0.3772885501384735
v -0.2812631130218506 1.58408784866333 -0.3461974859237671
v -0.5859330296516418 1.7768830060958862 -0.3614962697029114
v -0.5555055737495422 1.792149543762207 -0.3249765932559967
v -0.5782273411750793 1.7930219173431396 -0.37037941813468933
v -0.5782273411750793 1.7930219173431396 -0.37037941813468933
v -0.5479974746704102 1.773829698562622 -0.39900293946266174
v -0.5468119978904724 1.7952028512954712 -0.3343532681465149
v -0.5798079967498779 1.7583450078964233 -0.40492504835128784
v -0.5782273411750793 1.7930219173431396 -0.37037941813468933
v -0.5479974746704102 1.773829698562622 -0.39900293946266174
v -0.4539489150047302 1.7500574588775635 -0.3047427237033844
v -0.5082836747169495 1.7574726343154907 -0.39702892303466797
v -0.2913397550582886 1.629887580871582 -0.3225090503692627
v -0.3954649269580841 1.6992415189743042 -0.2919114828109741
v -0.3429083824157715 1.6748149394989014 -0.30523625016212463
v -0.4539489150047302 1.7500574588775635 -0.3047427237033844
v -0.5468119978904724 1.7952028512954712 -0.3343532681465149
v -0.5479974746704102 1.773829698562622 -0.39900293946266174
v -0.5082836747169495 1.7574726343154907 -0.39702892303466797
v -0.4758804142475128 1.6093868017196655 -0.38222363591194153
v -0.530017614364624 1.5382881164550781 -0.4296005070209503
v -0.4087028503417969 1.5304367542266846 -0.4009769856929779
v -0.4071222245693207 1.6735063791275024 0.3230007290840149
v -0.3014163672924042 1.6479893922805786 0.333857923746109
v -0.3952673673629761 1.765105962753296 0.2884550988674164
v -0.2856099009513855 1.687246322631836 0.3239877223968506
v -0.3952673673629761 1.765105962753296 0.2884550988674164
v -0.31544461846351624 1.7254128456115723 0.3274422883987427
v -0.2856099009513855 1.687246322631836 0.3239877223968506
v -0.26071467995643616 1.6178925037384033 0.3713645935058594
v -0.31544461846351624 1.7254128456115723 0.3274422883987427
v -0.6505420207977295 1.5576984882354736 0.333857923746109
v -0.6272274255752563 1.5051379203796387 0.4394688308238983
v -0.6432315111160278 1.5424319505691528 0.4261440932750702
v -0.6319693922996521 1.5653318166732788 0.3052344024181366
v -0.6505420207977295 1.5576984882354736 0.333857923746109
v -0.6211024522781372 1.5439585447311401 0.3215201795101166
v -0.6505420207977295 1.5576984882354736 0.333857923746109
v -0.6432315111160278 1.5424319505691528 0.4261440932750702
v -0.665162980556488 1.5947744846343994 0.35458528995513916
v -0.5009731650352478 1.4645724296569824 0.4355207681655884
v -0.5926507711410522 1.4807113409042358 0.4325597286224365
v -0.48358607292175293 1.4316401481628418 0.45526114106178284
v -0.3946745991706848 1.7675049304962158 0.3407670557498932
v -0.5851426720619202 1.8187570571899414 0.36889705061912537
v -0.5796104073524475 1.7810267210006714 0.41281935572624207
v -0.4758804142475128 1.6093868017196655 -0.38222363591194153
v -0.530017614364624 1.5382881164550781 -0.4296005070209503
v -0.5165820717811584 1.6383932828903198 -0.3901197910308838
v -0.5165820717811584 1.6383932828903198 -0.3901197910308838
v -0.5859330296516418 1.7768830060958862 -0.3614962697029114
v -0.5434530973434448 1.6464627981185913 -0.4128212034702301
v -0.5434530973434448 1.6464627981185913 -0.4128212034702301
v -0.5798079967498779 1.7583450078964233 -0.40492504835128784
v -0.5859330296516418 1.7768830060958862 -0.3614962697029114
v -0.3954649269580841 1.6992415189743042 -0.2919114828109741
v -0.2913397550582886 1.629887580871582 -0.3225090503692627
v -0.3429083824157715 1.6748149394989014 -0.30523625016212463
v -0.3719528019428253 1.5561718940734863 -0.37679505348205566
v -0.2812631130218506 1.58408784866333 -0.3461974859237671
v -0.3188035190105438 1.5252025127410889 -0.3772885501384735
v -0.3719528019428253 1.5561718940734863 -0.37679505348205566
v -0.4758804142475128 1.6093868017196655 -0.38222363591194153
v -0.4087028503417969 1.5304367542266846 -0.4009769856929779
v -0.457110196352005 1.7169071435928345 -0.30079466104507446
v -0.4758804142475128 1.6093868017196655 -0.38222363591194153
v -0.5337716341018677 1.77055823802948 -0.30918431282043457
v -0.43241259455680847 1.5317453145980835 -0.4676007032394409
v -0.4409085512161255 1.4807113409042358 -0.5026398301124573
v -0.44565051794052124 1.5877954959869385 -0.4448992908000946
v -0.4409085512161255 1.4807113409042358 -0.5026398301124573
v -0.44565051794052124 1.5877954959869385 -0.4448992908000946
v -0.48299330472946167 1.4460344314575195 -0.4794449210166931
v -0.4377472698688507 1.6405742168426514 -0.43009400367736816
v -0.44565051794052124 1.5877954959869385 -0.4448992908000946
v -0.5361425876617432 1.7275937795639038 -0.4236783981323242
v -0.5479974746704102 1.773829698562622 -0.39900293946266174
v -0.5798079967498779 1.7583450078964233 -0.40492504835128784
v -0.5361425876617432 1.7275937795639038 -0.4236783981323242
v -0.44565051794052124 1.5877954959869385 -0.4448992908000946
v -0.5349571108818054 1.532835841178894 -0.44637981057167053
v -0.5361425876617432 1.7275937795639038 -0.4236783981323242
v -0.5361425876617432 1.7275937795639038 -0.4236783981323242
v -0.538316011428833 1.6220362186431885 -0.4296005070209503
v -0.5349571108818054 1.532835841178894 -0.44637981057167053
v -0.44565051794052124 1.5877954959869385 -0.4448992908000946
v -0.4960336685180664 1.5201863050460815 -0.4473668336868286
v -0.5349571108818054 1.532835841178894 -0.44637981057167053
v -0.6465904116630554 1.7949848175048828 0.3930789828300476
v -0.6509371399879456 1.7696858644485474 0.4226895272731781
v -0.659433126449585 1.73042893409729 0.44094938039779663
v -0.6509371399879456 1.7696858644485474 0.4226895272731781
v -0.659433126449585 1.73042893409729 0.44094938039779663
v -0.5796104073524475 1.7810267210006714 0.41281935572624207
v -0.6527153849601746 1.6926987171173096 0.36396196484565735
v -0.659433126449585 1.73042893409729 0.44094938039779663
v -0.665162980556488 1.5947744846343994 0.35458528995513916
v -0.48358607292175293 1.4316401481628418 0.45526114106178284
v -0.3014163672924042 1.6479893922805786 0.333857923746109
v -0.3237430453300476 1.4975045919418335 0.42219603061676025
v -0.5009731650352478 1.4645724296569824 0.4355207681655884
v -0.48358607292175293 1.4316401481628418 0.45526114106178284
v -0.4318198263645172 1.5367615222930908 0.3856763541698456
v -0.6467879414558411 1.6776502132415771 0.4463779628276825
v -0.659433126449585 1.73042893409729 0.44094938039779663
v -0.6432315111160278 1.5424319505691528 0.4261440932750702
v -0.3952673673629761 1.765105962753296 0.2884550988674164
v -0.5197433829307556 1.7197424173355103 0.32003965973854065
v -0.4071222245693207 1.6735063791275024 0.3230007290840149
v -0.5355498790740967 1.80828857421875 0.3042473793029785
v -0.5197433829307556 1.7197424173355103 0.32003965973854065
v -0.5809934735298157 1.8268264532089233 0.3274422883987427
v -0.4699529707431793 1.8045809268951416 0.29783177375793457
v -0.5355498790740967 1.80828857421875 0.3042473793029785
v -0.3952673673629761 1.765105962753296 0.2884550988674164
v -0.45849326252937317 1.6192010641098022 0.33533844351768494
v -0.4318198263645172 1.5367615222930908 0.3856763541698456
v -0.6319693922996521 1.5653318166732788 0.3052344024181366
v -0.4071222245693207 1.6735063791275024 0.3230007290840149
v -0.45849326252937317 1.6192010641098022 0.33533844351768494
v -0.4318198263645172 1.5367615222930908 0.3856763541698456
v -0.5197433829307556 1.7197424173355103 0.32003965973854065
v -0.6319693922996521 1.5653318166732788 0.3052344024181366
v -0.6525177955627441 1.5930297374725342 0.30819544196128845
v -0.4071222245693207 1.6735063791275024 0.3230007290840149
v -0.5197433829307556 1.7197424173355103 0.32003965973854065
v -0.45849326252937317 1.6192010641098022 0.33533844351768494
v -0.6228806376457214 1.4599924087524414 0.411832332611084
v -0.6272274255752563 1.5051379203796387 0.4394688308238983
v -0.6159653067588806 1.4765675067901611 0.43897533416748047
v -0.6228806376457214 1.4599924087524414 0.411832332611084
v -0.6272274255752563 1.5051379203796387 0.4394688308238983
v -0.6199169754981995 1.5062283277511597 0.4286116361618042
v -0.6228806376457214 1.4599924087524414 0.411832332611084
v -0.6131991744041443 1.535234808921814 0.4295986592769623
v -0.6199169754981995 1.5062283277511597 0.4286116361618042
v -0.3828197419643402 1.4028518199920654 -0.44786033034324646
v -0.40099719166755676 1.4521410465240479 -0.4236783981323242
v -0.4106786847114563 1.4488695859909058 -0.5110294818878174
v -0.43241259455680847 1.5317453145980835 -0.4676007032394409
v -0.40099719166755676 1.4521410465240479 -0.4236783981323242
v -0.3996141254901886 1.5805983543395996 -0.40295103192329407
v -0.43241259455680847 1.5317453145980835 -0.4676007032394409
v -0.4377472698688507 1.6405742168426514 -0.43009400367736816
v -0.6467879414558411 1.6776502132415771 0.4463779628276825
v -0.659433126449585 1.73042893409729 0.44094938039779663
v -0.4537513256072998 1.6706712245941162 0.4108453094959259
v -0.5796104073524475 1.7810267210006714 0.41281935572624207
v -0.3237430453300476 1.4975045919418335 0.42219603061676025
v -0.26071467995643616 1.6178925037384033 0.3713645935058594
v -0.3014163672924042 1.6479893922805786 0.333857923746109
v -0.2856099009513855 1.687246322631836 0.3239877223968506
v -0.3946745991706848 1.7675049304962158 0.3407670557498932
v -0.5851426720619202 1.8187570571899414 0.36889705061912537
v -0.4699529707431793 1.8045809268951416 0.29783177375793457
v -0.5809934735298157 1.8268264532089233 0.3274422883987427
v -0.26071467995643616 1.6178925037384033 0.3713645935058594
v -0.3474527597427368 1.6935710906982422 0.37926074862480164
v -0.31544461846351624 1.7254128456115723 0.3274422883987427
v -0.3946745991706848 1.7675049304962158 0.3407670557498932
v -0.31544461846351624 1.7254128456115723 0.3274422883987427
v -0.3946745991706848 1.7675049304962158 0.3407670557498932
v -0.3952673673629761 1.765105962753296 0.2884550988674164
v -0.4699529707431793 1.8045809268951416 0.29783177375793457
v -0.5349571108818054 1.532835841178894 -0.44637981057167053
v -0.538316011428833 1.6220362186431885 -0.4296005070209503
v -0.530017614364624 1.5382881164550781 -0.4296005070209503
v -0.5434530973434448 1.6464627981185913 -0.4128212034702301
v -0.3719528019428253 1.5561718940734863 -0.37679505348205566
v -0.4758804142475128 1.6093868017196655 -0.38222363591194153
v -0.3954649269580841 1.6992415189743042 -0.2919114828109741
v -0.457110196352005 1.7169071435928345 -0.30079466104507446
v -0.6258443593978882 1.812650442123413 0.3610009253025055
v -0.6527153849601746 1.6926987171173096 0.36396196484565735
v -0.5809934735298157 1.8268264532089233 0.3274422883987427
v -0.5960096716880798 1.7232319116592407 0.331390380859375
v -0.5851426720619202 1.8187570571899414 0.36889705061912537
v -0.5796104073524475 1.7810267210006714 0.41281935572624207
v -0.6465904116630554 1.7949848175048828 0.3930789828300476
v -0.6509371399879456 1.7696858644485474 0.4226895272731781
v -0.5809934735298157 1.8268264532089233 0.3274422883987427
v -0.5851426720619202 1.8187570571899414 0.36889705061912537
v -0.6258443593978882 1.812650442123413 0.3610009253025055
v -0.6465904116630554 1.7949848175048828 0.3930789828300476
v -0.6199169754981995 1.5062283277511597 0.4286116361618042
v -0.6272274255752563 1.5051379203796387 0.4394688308238983
v -0.6131991744041443 1.535234808921814 0.4295986592769623
v -0.6467879414558411 1.6776502132415771 0.4463779628276825
vn 0.5102154016494751 0.6605358123779297 0.5507928133010864
vn 0.5102154016494751 0.6605358123779297 0.5507928133010864
vn 0.5102154016494751 0.6605358123779297 0.5507928133010864
vn 0.020318694412708282 0.12472940236330032 0.9919826984405518
vn 0.020318694412708282 0.12472940236330032 0.9919826984405518
vn 0.020318694412708282 0.12472940236330032 0.9919826984405518
vn 0.7845431566238403 0.2382352501153946 -0.5724822878837585
vn 0.7845431566238403 0.2382352501153946 -0.5724822878837585
vn 0.7845431566238403 0.2382352501153946 -0.5724822878837585
vn -0.284441202878952 -0.9023066759109497 -0.3239381015300751
vn -0.284441202878952 -0.9023066759109497 -0.3239381015300751
vn -0.284441202878952 -0.9023066759109497 -0.3239381015300751
vn 0.5270711779594421 0.48169124126434326 -0.7001210451126099
vn 0.5270711779594421 0.48169124126434326 -0.7001210451126099
vn 0.5270711779594421 0.48169124126434326 -0.7001210451126099
vn 0.2302892804145813 0.24226418137550354 0.9424833655357361
vn 0.2302892804145813 0.24226418137550354 0.9424833655357361
vn 0.2302892804145813 0.24226418137550354 0.9424833655357361
vn 0.1720898449420929 -0.21579383313655853 0.961154580116272
vn 0.1720898449420929 -0.21579383313655853 0.961154580116272
vn 0.1720898449420929 -0.21579383313655853 0.961154580116272
vn 0.4310033321380615 -0.00756522873416543 -0.9023185968399048
vn 0.4310033321380615 -0.00756522873416543 -0.9023185968399048
vn 0.4310033321380615 -0.00756522873416543 -0.9023185968399048
vn -0.2490922063589096 -0.45153293013572693 0.8567795157432556
vn -0.2490922063589096 -0.45153293013572693 0.8567795157432556
vn -0.2490922063589096 -0.45153293013572693 0.8567795157432556
vn -0.9195622801780701 0.297195702791214 -0.25706008076667786
vn -0.9195622801780701 0.297195702791214 -0.25706008076667786
vn -0.9195622801780701 0.297195702791214 -0.25706008076667786
vn -0.7047881484031677 -0.21908926963806152 0.67473965883255
vn -0.7047881484031677 -0.21908926963806152 0.67473965883255
vn -0.7047881484031677 -0.21908926963806152 0.67473965883255
vn -0.19678999483585358 0.9736151695251465 0.11553031951189041
vn -0.19678999483585358 0.9736151695251465 0.11553031951189041
vn -0.19678999483585358 0.9736151695251465 0.11553031951189041
vn 0.47851255536079407 0.8514525890350342 -0.21460255980491638
vn 0.47851255536079407 0.8514525890350342 -0.21460255980491638
vn 0.47851255536079407 0.8514525890350342 -0.21460255980491638
vn 0.24743330478668213 0.8396373987197876 0.4835140109062195
vn 0.24743330478668213 0.8396373987197876 0.4835140109062195
vn 0.24743330478668213 0.8396373987197876 0.4835140109062195
vn 0.5099507570266724 0.7500340938568115 -0.42118772864341736
vn 0.5099507570266724 0.7500340938568115 -0.42118772864341736
vn 0.5099507570266724 0.7500340938568115 -0.42118772864341736
vn -0.005671550519764423 -0.41519561409950256 -0.9097144603729248
vn -0.005671550519764423 -0.41519561409950256 -0.9097144603729248
vn -0.005671550519764423 -0.41519561409950256 -0.9097144603729248
vn 0.10731950402259827 -0.28133663535118103 -0.953589141368866
vn 0.10731950402259827 -0.28133663535118103 -0.953589141368866
vn 0.10731950402259827 -0.28133663535118103 -0.953589141368866
vn -0.475797563791275 -0.8241055607795715 -0.30735430121421814
vn -0.475797563791275 -0.8241055607795715 -0.30735430121421814
vn -0.475797563791275 -0.8241055607795715 -0.30735430121421814
vn -0.6843336820602417 -0.45612138509750366 -0.5688942670822144
vn -0.6843336820602417 -0.45612138509750366 -0.5688942670822144
vn -0.6843336820602417 -0.45612138509750366 -0.5688942670822144
vn -0.5055860280990601 -0.815283477306366 -0.28230419754981995
vn -0.5055860280990601 -0.815283477306366 -0.28230419754981995
vn -0.5055860280990601 -0.815283477306366 -0.28230419754981995
vn -0.5895115733146667 -0.7452772259712219 -0.31150925159454346
vn -0.5895115733146667 -0.7452772259712219 -0.31150925159454346
vn -0.5895115733146667 -0.7452772259712219 -0.31150925159454346
vn -0.9404590129852295 -0.2318023294210434 -0.24860523641109467
vn -0.9404590129852295 -0.2318023294210434 -0.24860523641109467
vn -0.9404590129852295 -0.2318023294210434 -0.24860523641109467
vn -0.10724418610334396 -0.7507233619689941 -0.651853621006012
vn -0.10724418610334396 -0.7507233619689941 -0.651853621006012
vn -0.10724418610334396 -0.7507233619689941 -0.651853621006012
vn 0.33162903785705566 0.5894676446914673 0.736579954624176
vn 0.33162903785705566 0.5894676446914673 0.736579954624176
vn 0.33162903785705566 0.5894676446914673 0.736579954624176
vn -0.671220600605011 -0.19351546466350555 0.715552031993866
vn -0.671220600605011 -0.19351546466350555 0.715552031993866
vn -0.671220600605011 -0.19351546466350555 0.715552031993866
vn -0.6580655574798584 -0.45387738943099976 0.6007870435714722
vn -0.6580655574798584 -0.45387738943099976 0.6007870435714722
vn -0.6580655574798584 -0.45387738943099976 0.6007870435714722
vn -0.934877336025238 -0.31527161598205566 0.16312000155448914
vn -0.934877336025238 -0.31527161598205566 0.16312000155448914
vn -0.934877336025238 -0.31527161598205566 0.16312000155448914
vn -0.09724695235490799 -0.5178166627883911 0.8499464392662048
vn -0.09724695235490799 -0.5178166627883911 0.8499464392662048
vn -0.09724695235490799 -0.5178166627883911 0.8499464392662048
vn -0.13742975890636444 -0.48139795660972595 0.865661084651947
vn -0.13742975890636444 -0.48139795660972595 0.865661084651947
vn -0.13742975890636444 -0.48139795660972595 0.865661084651947
vn -0.2569352090358734 -0.15700982511043549 0.953589141368866
vn -0.2569352090358734 -0.15700982511043549 0.953589141368866
vn -0.2569352090358734 -0.15700982511043549 0.953589141368866
vn -0.32921504974365234 0.0781683698296547 0.9410139322280884
vn -0.32921504974365234 0.0781683698296547 0.9410139322280884
vn -0.32921504974365234 0.0781683698296547 0.9410139322280884
vn -0.28710460662841797 0.35743284225463867 0.888714075088501
vn -0.28710460662841797 0.35743284225463867 0.888714075088501
vn -0.28710460662841797 0.35743284225463867 0.888714075088501
vn -0.4872455298900604 -0.5005767941474915 0.715552031993866
vn -0.4872455298900604 -0.5005767941474915 0.715552031993866
vn -0.4872455298900604 -0.5005767941474915 0.715552031993866
vn -0.30879807472229004 0.3007737398147583 -0.9023185968399048
vn -0.30879807472229004 0.3007737398147583 -0.9023185968399048
vn -0.30879807472229004 0.3007737398147583 -0.9023185968399048
vn 0.3040134906768799 0.5038835406303406 -0.8085030317306519
vn 0.3040134906768799 0.5038835406303406 -0.8085030317306519
vn 0.3040134906768799 0.5038835406303406 -0.8085030317306519
vn -0.38038018345832825 0.3136972188949585 -0.8700028657913208
vn -0.38038018345832825 0.3136972188949585 -0.8700028657913208
vn -0.38038018345832825 0.3136972188949585 -0.8700028657913208
vn -0.5717331171035767 0.2393774688243866 -0.7847417593002319
vn -0.5717331171035767 0.2393774688243866 -0.7847417593002319
vn -0.5717331171035767 0.2393774688243866 -0.7847417593002319
vn 0.33603543043136597 0.43870654702186584 -0.8334367275238037
vn 0.33603543043136597 0.43870654702186584 -0.8334367275238037
vn 0.33603543043136597 0.43870654702186584 -0.8334367275238037
vn 0.253572940826416 0.5072463750839233 -0.8236515522003174
vn 0.253572940826416 0.5072463750839233 -0.8236515522003174
vn 0.253572940826416 0.5072463750839233 -0.8236515522003174
vn -0.362615168094635 0.05647580325603485 -0.9302261471748352
vn -0.362615168094635 0.05647580325603485 -0.9302261471748352
vn -0.362615168094635 0.05647580325603485 -0.9302261471748352
vn -0.8713043332099915 0.1800527125597 -0.456519216299057
vn -0.8713043332099915 0.1800527125597 -0.456519216299057
vn -0.8713043332099915 0.1800527125597 -0.456519216299057
vn -0.9856804013252258 0.09802975505590439 -0.1372016966342926
vn -0.9856804013252258 0.09802975505590439 -0.1372016966342926
vn -0.9856804013252258 0.09802975505590439 -0.1372016966342926
vn -0.9523013234138489 0.15044735372066498 -0.26549527049064636
vn -0.9523013234138489 0.15044735372066498 -0.26549527049064636
vn -0.9523013234138489 0.15044735372066498 -0.26549527049064636
vn -0.6089007258415222 0.39009127020835876 -0.6907016038894653
vn -0.6089007258415222 0.39009127020835876 -0.6907016038894653
vn -0.6089007258415222 0.39009127020835876 -0.6907016038894653
vn -0.9698610901832581 -0.09789151698350906 0.22312943637371063
vn -0.9698610901832581 -0.09789151698350906 0.22312943637371063
vn -0.9698610901832581 -0.09789151698350906 0.22312943637371063
vn 0.21847935020923615 -0.6088569164276123 -0.762600839138031
vn 0.21847935020923615 -0.6088569164276123 -0.762600839138031
vn 0.21847935020923615 -0.6088569164276123 -0.762600839138031
vn -0.24151912331581116 -0.0816522166132927 -0.9669547080993652
vn -0.24151912331581116 -0.0816522166132927 -0.9669547080993652
vn -0.24151912331581116 -0.0816522166132927 -0.9669547080993652
vn -0.7724705934524536 -0.11279719322919846 0.6249527335166931
vn -0.7724705934524536 -0.11279719322919846 0.6249527335166931
vn -0.7724705934524536 -0.11279719322919846 0.6249527335166931
vn -0.23985879123210907 0.0339648574590683 -0.9702134728431702
vn -0.23985879123210907 0.0339648574590683 -0.9702134728431702
vn -0.23985879123210907 0.0339648574590683 -0.9702134728431702
vn 0.29107388854026794 0.23659515380859375 0.926983654499054
vn 0.29107388854026794 0.23659515380859375 0.926983654499054
vn 0.29107388854026794 0.23659515380859375 0.926983654499054
vn -0.16881988942623138 -0.20217138528823853 -0.9646899104118347
vn -0.16881988942623138 -0.20217138528823853 -0.9646899104118347
vn -0.16881988942623138 -0.20217138528823853 -0.9646899104118347
vn -0.14680813252925873 -0.0188510213047266 -0.9889853596687317
vn -0.14680813252925873 -0.0188510213047266 -0.9889853596687317
vn -0.14680813252925873 -0.0188510213047266 -0.9889853596687317
vn -0.020775217562913895 0.7609022259712219 -0.6485338807106018
vn -0.020775217562913895 0.7609022259712219 -0.6485338807106018
vn -0.020775217562913895 0.7609022259712219 -0.6485338807106018
vn 0.1829569935798645 -0.037598617374897 -0.9824016690254211
vn 0.1829569935798645 -0.037598617374897 -0.9824016690254211
vn 0.1829569935798645 -0.037598617374897 -0.9824016690254211
vn 0.2649213969707489 -0.48911356925964355 -0.8310141563415527
vn 0.2649213969707489 -0.48911356925964355 -0.8310141563415527
vn 0.2649213969707489 -0.48911356925964355 -0.8310141563415527
vn -0.13169416785240173 0.2281010001897812 -0.9646899104118347
vn -0.13169416785240173 0.2281010001897812 -0.9646899104118347
vn -0.13169416785240173 0.2281010001897812 -0.9646899104118347
vn -0.8273531794548035 -0.29221439361572266 0.4796847105026245
vn -0.8273531794548035 -0.29221439361572266 0.4796847105026245
vn -0.8273531794548035 -0.29221439361572266 0.4796847105026245
vn -0.019215743988752365 -0.01782960444688797 -0.9996563792228699
vn -0.019215743988752365 -0.01782960444688797 -0.9996563792228699
vn -0.019215743988752365 -0.01782960444688797 -0.9996563792228699
vn -0.9002283215522766 -0.27147969603538513 0.34042292833328247
vn -0.9002283215522766 -0.27147969603538513 0.34042292833328247
vn -0.9002283215522766 -0.27147969603538513 0.34042292833328247
vn -0.23541799187660217 -0.18773958086967468 0.953589141368866
vn -0.23541799187660217 -0.18773958086967468 0.953589141368866
vn -0.23541799187660217 -0.18773958086967468 0.953589141368866
vn -0.5609509944915771 -0.40569114685058594 0.7216291427612305
vn -0.5609509944915771 -0.40569114685058594 0.7216291427612305
vn -0.5609509944915771 -0.40569114685058594 0.7216291427612305
vn 0.1821386218070984 -0.35079601407051086 -0.9185682535171509
vn 0.1821386218070984 -0.35079601407051086 -0.9185682535171509
vn 0.1821386218070984 -0.35079601407051086 -0.9185682535171509
vn 0.5317495465278625 0.16327229142189026 0.8310141563415527
vn 0.5317495465278625 0.16327229142189026 0.8310141563415527
vn 0.5317495465278625 0.16327229142189026 0.8310141563415527
vn 0.04974066838622093 0.15308603644371033 0.986960232257843
vn 0.04974066838622093 0.15308603644371033 0.986960232257843
vn 0.04974066838622093 0.15308603644371033 0.986960232257843
vn 0.2613407373428345 0.47022032737731934 0.8429672718048096
vn 0.2613407373428345 0.47022032737731934 0.8429672718048096
vn 0.2613407373428345 0.47022032737731934 0.8429672718048096
vn -0.8037443161010742 -0.03771476447582245 0.5937783122062683
vn -0.8037443161010742 -0.03771476447582245 0.5937783122062683
vn -0.8037443161010742 -0.03771476447582245 0.5937783122062683
vn -0.4669242203235626 0.21888507902622223 0.8567795157432556
vn -0.4669242203235626 0.21888507902622223 0.8567795157432556
vn -0.4669242203235626 0.21888507902622223 0.8567795157432556
vn 0.7929611802101135 0.12024623900651932 0.5972883701324463
vn 0.7929611802101135 0.12024623900651932 0.5972883701324463
vn 0.7929611802101135 0.12024623900651932 0.5972883701324463
vn 0.8851056098937988 0.06795356422662735 -0.46040233969688416
vn 0.8851056098937988 0.06795356422662735 -0.46040233969688416
vn 0.8851056098937988 0.06795356422662735 -0.46040233969688416
vn -0.16100649535655975 -0.06567858904600143 0.9847655892372131
vn -0.16100649535655975 -0.06567858904600143 0.9847655892372131
vn -0.16100649535655975 -0.06567858904600143 0.9847655892372131
vn 0.011248543858528137 0.25046828389167786 0.9680594801902771
vn 0.011248543858528137 0.25046828389167786 0.9680594801902771
vn 0.011248543858528137 0.25046828389167786 0.9680594801902771
vn 0.13118846714496613 0.6667793393135071 0.7336177229881287
vn 0.13118846714496613 0.6667793393135071 0.7336177229881287
vn 0.13118846714496613 0.6667793393135071 0.7336177229881287
vn 0.20860838890075684 -0.6860620379447937 -0.6969945430755615
vn 0.20860838890075684 -0.6860620379447937 -0.6969945430755615
vn 0.20860838890075684 -0.6860620379447937 -0.6969945430755615
vn 0.5474052429199219 0.5206838846206665 -0.6551609039306641
vn 0.5474052429199219 0.5206838846206665 -0.6551609039306641
vn 0.5474052429199219 0.5206838846206665 -0.6551609039306641
vn 0.5243203639984131 0.49361303448677063 -0.6938546895980835
vn 0.5243203639984131 0.49361303448677063 -0.6938546895980835
vn 0.5243203639984131 0.49361303448677063 -0.6938546895980835
vn 0.41649743914604187 0.21793848276138306 -0.882628321647644
vn 0.41649743914604187 0.21793848276138306 -0.882628321647644
vn 0.41649743914604187 0.21793848276138306 -0.882628321647644
vn 0.025556590408086777 0.0834510326385498 0.9961841106414795
vn 0.025556590408086777 0.0834510326385498 0.9961841106414795
vn 0.025556590408086777 0.0834510326385498 0.9961841106414795
vn 0.04974066838622093 0.15308603644371033 0.986960232257843
vn 0.04974066838622093 0.15308603644371033 0.986960232257843
vn 0.04974066838622093 0.15308603644371033 0.986960232257843
vn 0.2307662069797516 0.2360803633928299 0.9439348578453064
vn 0.2307662069797516 0.2360803633928299 0.9439348578453064
vn 0.2307662069797516 0.2360803633928299 0.9439348578453064
vn -0.29515090584754944 0.5867581367492676 -0.7540562748908997
vn -0.29515090584754944 0.5867581367492676 -0.7540562748908997
vn -0.29515090584754944 0.5867581367492676 -0.7540562748908997
vn -0.7361696362495422 0.5646847486495972 0.37307560443878174
vn -0.7361696362495422 0.5646847486495972 0.37307560443878174
vn -0.7361696362495422 0.5646847486495972 0.37307560443878174
vn 0.28440022468566895 0.909500002861023 -0.30319350957870483
vn 0.28440022468566895 0.909500002861023 -0.30319350957870483
vn 0.28440022468566895 0.909500002861023 -0.30319350957870483
vn -0.20686230063438416 0.6929208040237427 -0.6907016038894653
vn -0.20686230063438416 0.6929208040237427 -0.6907016038894653
vn -0.20686230063438416 0.6929208040237427 -0.6907016038894653
vn 0.5562527775764465 0.7874611616134644 -0.26549527049064636
vn 0.5562527775764465 0.7874611616134644 -0.26549527049064636
vn 0.5562527775764465 0.7874611616134644 -0.26549527049064636
vn 0.45955902338027954 0.67293381690979 0.5796254277229309
vn 0.45955902338027954 0.67293381690979 0.5796254277229309
vn 0.45955902338027954 0.67293381690979 0.5796254277229309
vn 0.38001129031181335 0.8767281174659729 -0.2948545813560486
vn 0.38001129031181335 0.8767281174659729 -0.2948545813560486
vn 0.38001129031181335 0.8767281174659729 -0.2948545813560486
vn -0.23720745742321014 -0.40583235025405884 0.882628321647644
vn -0.23720745742321014 -0.40583235025405884 0.882628321647644
vn -0.23720745742321014 -0.40583235025405884 0.882628321647644
vn 0.013247211463749409 -0.3504231572151184 -0.9364978075027466
vn 0.013247211463749409 -0.3504231572151184 -0.9364978075027466
vn 0.013247211463749409 -0.3504231572151184 -0.9364978075027466
vn 0.5677992701530457 0.49836552143096924 -0.6551609039306641
vn 0.5677992701530457 0.49836552143096924 -0.6551609039306641
vn 0.5677992701530457 0.49836552143096924 -0.6551609039306641
vn 0.7379097938537598 0.5426492094993591 0.401274174451828
vn 0.7379097938537598 0.5426492094993591 0.401274174451828
vn 0.7379097938537598 0.5426492094993591 0.401274174451828
vn -0.9179746508598328 -0.3965848386287689 0.006554040592163801
vn -0.9179746508598328 -0.3965848386287689 0.006554040592163801
vn -0.9179746508598328 -0.3965848386287689 0.006554040592163801
vn -0.5373707413673401 -0.6599970459938049 -0.5250110030174255
vn -0.5373707413673401 -0.6599970459938049 -0.5250110030174255
vn -0.5373707413673401 -0.6599970459938049 -0.5250110030174255
vn -0.9294984340667725 -0.3686642050743103 0.010923261754214764
vn -0.9294984340667725 -0.3686642050743103 0.010923261754214764
vn -0.9294984340667725 -0.3686642050743103 0.010923261754214764
vn -0.0678626298904419 -0.5299490094184875 -0.8453097939491272
vn -0.0678626298904419 -0.5299490094184875 -0.8453097939491272
vn -0.0678626298904419 -0.5299490094184875 -0.8453097939491272
vn 0.2874152362346649 0.7431319952011108 0.6042742133140564
vn 0.2874152362346649 0.7431319952011108 0.6042742133140564
vn 0.2874152362346649 0.7431319952011108 0.6042742133140564
vn -0.3747028112411499 -0.2964097857475281 0.8784868121147156
vn -0.3747028112411499 -0.2964097857475281 0.8784868121147156
vn -0.3747028112411499 -0.2964097857475281 0.8784868121147156
vn -0.6520693302154541 -0.4532611668109894 0.607749879360199
vn -0.6520693302154541 -0.4532611668109894 0.607749879360199
vn -0.6520693302154541 -0.4532611668109894 0.607749879360199
vn -0.9501164555549622 -0.3118877410888672 0.002184694167226553
vn -0.9501164555549622 -0.3118877410888672 0.002184694167226553
vn -0.9501164555549622 -0.3118877410888672 0.002184694167226553
vn 0.14340205490589142 -0.21588265895843506 0.9658315181732178
vn 0.14340205490589142 -0.21588265895843506 0.9658315181732178
vn 0.14340205490589142 -0.21588265895843506 0.9658315181732178
vn -0.1948828250169754 -0.35761508345603943 0.913308322429657
vn -0.1948828250169754 -0.35761508345603943 0.913308322429657
vn -0.1948828250169754 -0.35761508345603943 0.913308322429657
vn -0.26299068331718445 -0.43042245507240295 0.8634653687477112
vn -0.26299068331718445 -0.43042245507240295 0.8634653687477112
vn -0.26299068331718445 -0.43042245507240295 0.8634653687477112
vn -0.43227246403694153 -0.49886903166770935 0.7511792182922363
vn -0.43227246403694153 -0.49886903166770935 0.7511792182922363
vn -0.43227246403694153 -0.49886903166770935 0.7511792182922363
vn 0.5174556374549866 0.425428569316864 -0.7424622178077698
vn 0.5174556374549866 0.425428569316864 -0.7424622178077698
vn 0.5174556374549866 0.425428569316864 -0.7424622178077698
vn -0.6526471376419067 0.3382670283317566 -0.677958071231842
vn -0.6526471376419067 0.3382670283317566 -0.677958071231842
vn -0.6526471376419067 0.3382670283317566 -0.677958071231842
vn 0.15078555047512054 0.24605967104434967 -0.9574540853500366
vn 0.15078555047512054 0.24605967104434967 -0.9574540853500366
vn 0.15078555047512054 0.24605967104434967 -0.9574540853500366
vn -0.06034756079316139 0.4583852291107178 -0.8867024183273315
vn -0.06034756079316139 0.4583852291107178 -0.8867024183273315
vn -0.06034756079316139 0.4583852291107178 -0.8867024183273315
vn -0.04966796934604645 0.11620398610830307 -0.9919826984405518
vn -0.04966796934604645 0.11620398610830307 -0.9919826984405518
vn -0.04966796934604645 0.11620398610830307 -0.9919826984405518
vn -0.9220590591430664 0.03773894160985947 -0.3852050006389618
vn -0.9220590591430664 0.03773894160985947 -0.3852050006389618
vn -0.9220590591430664 0.03773894160985947 -0.3852050006389618
vn -0.007669857237488031 0.038558974862098694 -0.9992268681526184
vn -0.007669857237488031 0.038558974862098694 -0.9992268681526184
vn -0.007669857237488031 0.038558974862098694 -0.9992268681526184
vn -0.9703219532966614 0.2355741262435913 0.05459024757146835
vn -0.9703219532966614 0.2355741262435913 0.05459024757146835
vn -0.9703219532966614 0.2355741262435913 0.05459024757146835
vn 0.05627129226922989 0.4154113531112671 0.9078915119171143
vn 0.05627129226922989 0.4154113531112671 0.9078915119171143
vn 0.05627129226922989 0.4154113531112671 0.9078915119171143
vn -0.9775928258895874 0.14298424124717712 -0.15449213981628418
vn -0.9775928258895874 0.14298424124717712 -0.15449213981628418
vn -0.9775928258895874 0.14298424124717712 -0.15449213981628418
vn 0.03395300358533859 -0.5108072757720947 -0.8590245246887207
vn 0.03395300358533859 -0.5108072757720947 -0.8590245246887207
vn 0.03395300358533859 -0.5108072757720947 -0.8590245246887207
vn -0.06035660579800606 -0.5308562517166138 -0.8453097939491272
vn -0.06035660579800606 -0.5308562517166138 -0.8453097939491272
vn -0.06035660579800606 -0.5308562517166138 -0.8453097939491272
vn -0.7641469836235046 -0.1126362681388855 0.6351318359375
vn -0.7641469836235046 -0.1126362681388855 0.6351318359375
vn -0.7641469836235046 -0.1126362681388855 0.6351318359375
vn -0.11321432143449783 -0.3362121284008026 -0.9349566102027893
vn -0.11321432143449783 -0.3362121284008026 -0.9349566102027893
vn -0.11321432143449783 -0.3362121284008026 -0.9349566102027893
vn -0.5146278142929077 -0.23823589086532593 -0.8236515522003174
vn -0.5146278142929077 -0.23823589086532593 -0.8236515522003174
vn -0.5146278142929077 -0.23823589086532593 -0.8236515522003174
vn -0.09345868229866028 0.06415574997663498 -0.9935539960861206
vn -0.09345868229866028 0.06415574997663498 -0.9935539960861206
vn -0.09345868229866028 0.06415574997663498 -0.9935539960861206
vn 0.280385822057724 -0.4327963590621948 -0.8567795157432556
vn 0.280385822057724 -0.4327963590621948 -0.8567795157432556
vn 0.280385822057724 -0.4327963590621948 -0.8567795157432556
vn 0.26247820258140564 -0.4395248293876648 -0.8590245246887207
vn 0.26247820258140564 -0.4395248293876648 -0.8590245246887207
vn 0.26247820258140564 -0.4395248293876648 -0.8590245246887207
vn -0.0018985996721312404 0.10030896961688995 -0.994954526424408
vn -0.0018985996721312404 0.10030896961688995 -0.994954526424408
vn -0.0018985996721312404 0.10030896961688995 -0.994954526424408
vn -0.046816978603601456 -0.18081782758235931 -0.9824016690254211
vn -0.046816978603601456 -0.18081782758235931 -0.9824016690254211
vn -0.046816978603601456 -0.18081782758235931 -0.9824016690254211
vn 0.8431941866874695 0.3390432894229889 -0.417220801115036
vn 0.8431941866874695 0.3390432894229889 -0.417220801115036
vn 0.8431941866874695 0.3390432894229889 -0.417220801115036
vn 0.8125518560409546 -0.24537640810012817 0.528724730014801
vn 0.8125518560409546 -0.24537640810012817 0.528724730014801
vn 0.8125518560409546 -0.24537640810012817 0.528724730014801
vn 0.8670012950897217 -0.21668624877929688 0.4487268626689911
vn 0.8670012950897217 -0.21668624877929688 0.4487268626689911
vn 0.8670012950897217 -0.21668624877929688 0.4487268626689911
vn 0.9332569241523743 0.34012389183044434 -0.11553031951189041
vn 0.9332569241523743 0.34012389183044434 -0.11553031951189041
vn 0.9332569241523743 0.34012389183044434 -0.11553031951189041
vn 0.9332569241523743 0.34012389183044434 -0.11553031951189041
vn 0.8343337178230286 0.1428537219762802 -0.5324283838272095
vn 0.8343337178230286 0.1428537219762802 -0.5324283838272095
vn 0.8343337178230286 0.1428537219762802 -0.5324283838272095
vn 0.8343337178230286 0.1428537219762802 -0.5324283838272095
vn 0.1941821277141571 0.19019228219985962 0.962351381778717
vn 0.1941821277141571 0.19019228219985962 0.962351381778717
vn 0.1941821277141571 0.19019228219985962 0.962351381778717
vn 0.1941821277141571 0.19019228219985962 0.962351381778717
vn 0.3753778040409088 -0.4845501780509949 -0.790128231048584
vn 0.3753778040409088 -0.4845501780509949 -0.790128231048584
vn 0.3753778040409088 -0.4845501780509949 -0.790128231048584
vn 0.3753778040409088 -0.4845501780509949 -0.790128231048584
vn 0.27523425221443176 0.9251912236213684 0.2612801790237427
vn 0.27523425221443176 0.9251912236213684 0.2612801790237427
vn 0.27523425221443176 0.9251912236213684 0.2612801790237427
vn 0.27523425221443176 0.9251912236213684 0.2612801790237427
vn 0.4934428334236145 0.57208251953125 0.6551609039306641
vn 0.4934428334236145 0.57208251953125 0.6551609039306641
vn 0.4934428334236145 0.57208251953125 0.6551609039306641
vn 0.4934428334236145 0.57208251953125 0.6551609039306641
vn 0.46297892928123474 0.8849450349807739 -0.05022686347365379
vn 0.46297892928123474 0.8849450349807739 -0.05022686347365379
vn 0.46297892928123474 0.8849450349807739 -0.05022686347365379
vn 0.46297892928123474 0.8849450349807739 -0.05022686347365379
vn -0.9925763607025146 -0.09799733012914658 0.07203252613544464
vn -0.9925763607025146 -0.09799733012914658 0.07203252613544464
vn -0.9925763607025146 -0.09799733012914658 0.07203252613544464
vn -0.9925763607025146 -0.09799733012914658 0.07203252613544464
vn -0.2959960699081421 -0.5327816605567932 0.7927988767623901
vn -0.2959960699081421 -0.5327816605567932 0.7927988767623901
vn -0.2959960699081421 -0.5327816605567932 0.7927988767623901
vn -0.2959960699081421 -0.5327816605567932 0.7927988767623901
vn -0.5718638896942139 0.08291631937026978 -0.8161473870277405
vn -0.5718638896942139 0.08291631937026978 -0.8161473870277405
vn -0.5718638896942139 0.08291631937026978 -0.8161473870277405
vn -0.5718638896942139 0.08291631937026978 -0.8161473870277405
vn -0.030149146914482117 0.7577452659606934 0.651853621006012
vn -0.030149146914482117 0.7577452659606934 0.651853621006012
vn -0.030149146914482117 0.7577452659606934 0.651853621006012
vn -0.030149146914482117 0.7577452659606934 0.651853621006012
vn -0.19663609564304352 0.9438466429710388 0.26549527049064636
vn -0.19663609564304352 0.9438466429710388 0.26549527049064636
vn -0.19663609564304352 0.9438466429710388 0.26549527049064636
vn -0.19663609564304352 0.9438466429710388 0.26549527049064636
vn 0.5598769187927246 0 0.8285757899284363
vn 0.5598769187927246 0 0.8285757899284363
vn 0.5598769187927246 0 0.8285757899284363
vn 0.5598769187927246 0 0.8285757899284363
s on
f 1//1 2//2 3//3
f 4//4 6//6 5//5
f 7//7 8//8 9//9
f 10//10 12//12 11//11
f 13//13 14//14 15//15
f 16//16 18//18 17//17
f 19//19 20//20 21//21
f 22//22 24//24 23//23
f 25//25 26//26 27//27
f 28//28 30//30 29//29
f 31//31 32//32 33//33
f 34//34 36//36 35//35
f 37//37 38//38 39//39
f 40//40 42//42 41//41
f 43//43 44//44 45//45
f 46//46 48//48 47//47
f 49//49 50//50 51//51
f 52//52 54//54 53//53
f 55//55 56//56 57//57
f 58//58 60//60 59//59
f 61//61 62//62 63//63
f 64//64 66//66 65//65
f 67//67 68//68 69//69
f 70//70 72//72 71//71
f 73//73 74//74 75//75
f 76//76 78//78 77//77
f 79//79 80//80 81//81
f 82//82 84//84 83//83
f 85//85 86//86 87//87
f 88//88 90//90 89//89
f 91//91 92//92 93//93
f 94//94 96//96 95//95
f 97//97 98//98 99//99
f 100//100 102//102 101//101
f 103//103 104//104 105//105
f 106//106 108//108 107//107
f 109//109 110//110 111//111
f 112//112 114//114 113//113
f 115//115 116//116 117//117
f 118//118 120//120 119//119
f 121//121 122//122 123//123
f 124//124 126//126 125//125
f 127//127 128//128 129//129
f 130//130 132//132 131//131
f 133//133 134//134 135//135
f 136//136 138//138 137//137
f 139//139 140//140 141//141
f 142//142 144//144 143//143
f 145//145 146//146 147//147
f 148//148 150//150 149//149
f 151//151 152//152 153//153
f 154//154 156//156 155//155
f 157//157 158//158 159//159
f 160//160 162//162 161//161
f 163//163 164//164 165//165
f 166//166 168//168 167//167
f 169//169 170//170 171//171
f 172//172 174//174 173//173
f 175//175 176//176 177//177
f 178//178 180//180 179//179
f 181//181 182//182 183//183
f 184//184 186//186 185//185
f 187//187 188//188 189//189
f 190//190 192//192 191//191
f 193//193 194//194 195//195
f 196//196 198//198 197//197
f 199//199 200//200 201//201
f 202//202 204//204 203//203
f 205//205 206//206 207//207
f 208//208 210//210 209//209
f 211//211 212//212 213//213
f 214//214 216//216 215//215
f 217//217 218//218 219//219
f 220//220 222//222 221//221
f 223//223 224//224 225//225
f 226//226 228//228 227//227
f 229//229 230//230 231//231
f 232//232 234//234 233//233
f 235//235 236//236 237//237
f 238//238 240//240 239//239
f 241//241 242//242 243//243
f 244//244 246//246 245//245
f 247//247 248//248 249//249
f 250//250 252//252 251//251
f 253//253 254//254 255//255
f 256//256 258//258 257//257
f 259//259 260//260 261//261
f 262//262 264//264 263//263
f 265//265 266//266 267//267
f 268//268 270//270 269//269
f 271//271 272//272 273//273
f 274//274 276//276 275//275
f 277//277 278//278 279//279
f 280//280 282//282 281//281
f 283//283 284//284 285//285
f 286//286 288//288 287//287
f 289//289 290//290 291//291
f 292//292 294//294 293//293
f 295//295 296//296 297//297
f 298//298 300//300 299//299
f 301//301 302//302 303//303
f 304//304 306//306 305//305
f 307//307 308//308 309//309
f 310//310 312//312 311//311
f 313//313 314//314 315//315
f 316//316 318//318 317//317
f 319//319 320//320 321//321
f 322//322 324//324 323//323
f 325//325 326//326 327//327
f 328//328 330//330 329//329
f 331//331 332//332 333//333
f 334//334 336//336 335//335
f 337//337 338//338 339//339
f 340//340 342//342 341//341
f 343//343 344//344 345//345
f 346//346 348//348 347//347
f 349//349 350//350 351//351
f 352//352 354//354 353//353
f 355//355 356//356 357//357
f 358//358 360//360 359//359
f 361//361 362//362 363//363
f 364//364 366//366 365//365
f 367//367 368//368 369//369
f 370//370 372//372 371//371
f 373//373 374//374 375//375
f 376//376 378//378 377//377
f 377//377 378//378 379//379
f 380//380 382//382 381//381
f 381//381 382//382 383//383
f 384//384 386//386 385//385
f 385//385 386//386 387//387
f 388//388 390//390 389//389
f 389//389 390//390 391//391
f 392//392 394//394 393//393
f 393//393 394//394 395//395
f 396//396 398//398 397//397
f 397//397 398//398 399//399
f 400//400 402//402 401//401
f 401//401 402//402 403//403
f 404//404 406//406 405//405
f 405//405 406//406 407//407
f 408//408 410//410 409//409
f 409//409 410//410 411//411
f 412//412 414//414 413//413
f 413//413 414//414 415//415
f 416//416 418//418 417//417
f 417//417 418//418 419//419
f 420//420 422//422 421//421
f 421//421 422//422 423//423
f 424//424 426//426 425//425
f 425//425 426//426 427//427

