# Exported by Sketchfab Model Ripper robust edition
o model_5
v 2.2694084644317627 -3.237318277359009 14.230493545532227
v 2.1725316047668457 -3.4075143337249756 14.403754234313965
v 2.131647825241089 -3.748506546020508 13.399347305297852
v 2.0325491428375244 -3.9559237957000732 13.526937484741211
v 1.9214520454406738 -4.0931010246276855 12.280762672424316
v 1.8361294269561768 -4.310723781585693 12.365218162536621
v 1.7601388692855835 -4.097903728485107 11.078808784484863
v 1.682370901107788 -4.3218302726745605 11.132091522216797
v 1.9183412790298462 -3.881181240081787 9.511484146118164
v 1.8272416591644287 -4.122817516326904 9.631462097167969
v 2.336066722869873 -3.7307965755462646 7.820557117462158
v 2.234745979309082 -3.976935625076294 8.017378807067871
v 2.3556196689605713 -3.584914207458496 7.2043561935424805
v 2.2151927947998047 -3.86167049407959 7.40009069442749
v 1.9929986000061035 -3.596620798110962 6.909304618835449
v 2.0814318656921387 -3.9217045307159424 7.0412445068359375
v 1.7748037576675415 -3.6770660877227783 6.955338478088379
v 1.9934430122375488 -3.8892860412597656 7.231541633605957
v 1.7325868606567383 -3.8412587642669678 7.768723487854004
v 1.8912335634231567 -4.0414719581604 8.006141662597656
v 1.2939752340316772 -3.985940456390381 9.51474666595459
v 1.4797296524047852 -4.189455509185791 9.666983604431152
v 1.1397724151611328 -4.215570449829102 11.082796096801758
v 1.3330814838409424 -4.4037766456604 11.13680362701416
v 1.300196647644043 -4.195758819580078 12.311572074890137
v 1.476619005203247 -4.381563663482666 12.355793952941895
v 1.516169548034668 -3.84546160697937 13.4577054977417
v 1.677927017211914 -4.029465198516846 13.533824920654297
v 1.6632622480392456 -3.3087587356567383 14.337422370910645
v 1.8227977752685547 -3.4681484699249268 14.455950736999512
v 1.7596945762634277 -2.7090203762054443 14.766950607299805
v 1.9210076332092285 -2.8032734394073486 14.932600021362305
v 1.7370307445526123 -1.9243777990341187 14.90831470489502
v 1.9103423357009888 -1.9853122234344482 15.089550018310547
v 1.7641384601593018 -0.9524296522140503 14.864092826843262
v 1.9267847537994385 -1.0319744348526 15.050765037536621
v 1.7632496356964111 -0.0011931320186704397 14.673433303833008
v 1.9156749248504639 -0.10295052081346512 14.872429847717285
v 1.7779145240783691 1.004974365234375 14.364607810974121
v 1.9303398132324219 0.8017597198486328 14.607462882995605
v 2.08320951461792 1.0584044456481934 14.292839050292969
v 2.0925416946411133 0.7846500873565674 14.501259803771973
v 2.369840145111084 0.9125221967697144 14.25912857055664
v 2.2178592681884766 0.7495302557945251 14.542581558227539
v 2.368506908416748 0.06904647499322891 14.540043830871582
v 2.2498552799224854 -0.026107193902134895 14.785799026489258
v 2.3631744384765625 -0.9122070074081421 14.715117454528809
v 2.2574098110198975 -0.9863487482070923 14.957972526550293
v 2.331622838973999 -1.916873574256897 14.751727104187012
v 2.2400786876678467 -1.9808095693588257 14.990595817565918
v 2.3556196689605713 -2.6723997592926025 14.621962547302246
v 2.2618536949157715 -2.775357723236084 14.845244407653809
v 2.22719144821167 -2.793668031692505 14.9072265625
v 2.1352028846740723 -3.445035696029663 14.45051383972168
v 1.9929986000061035 -4.004550933837891 13.553398132324219
v 1.7961344718933105 -4.363553524017334 12.373555183410645
v 1.6432647705078125 -4.376160621643066 11.128104209899902
v 1.7863578796386719 -4.175347328186035 9.629286766052246
v 2.1974174976348877 -4.028564929962158 8.006867408752441
v 2.216970443725586 -3.915100574493408 7.434525489807129
v 2.0312161445617676 -3.936112403869629 7.29642391204834
v 1.9596694707870483 -4.071788787841797 8.002154350280762
v 1.548609972000122 -4.2194719314575195 9.65900993347168
v 1.4010728597640991 -4.431992530822754 11.132091522216797
v 1.5450547933578491 -4.411580562591553 12.36231803894043
v 1.745474100112915 -4.055880069732666 13.5523099899292
v 1.8903448581695557 -3.4885599613189697 14.482772827148438
v 1.9885547161102295 -2.813479423522949 14.965584754943848
v 1.9778894186019897 -1.9868130683898926 15.12253475189209
v 1.9934430122375488 -1.0229694843292236 15.084837913513184
v 1.9814444780349731 -0.08554073423147202 14.9072265625
v 1.9858883619308472 0.7636381983757019 14.665821075439453
v 2.205416440963745 0.720413863658905 14.62232494354248
v 2.211193323135376 -0.026407357305288315 14.849231719970703
v 2.2209701538085938 -0.9878495931625366 15.023218154907227
v 2.2058608531951904 -1.9838114976882935 15.05620288848877
v 2.121426820755005 -1.985912561416626 15.103686332702637
v 2.141868829727173 -2.807175636291504 14.949636459350586
v 2.046769618988037 -3.4738516807556152 14.478424072265625
v 1.9010101556777954 -4.040271282196045 13.562822341918945
v 1.7032572031021118 -4.399874210357666 12.372830390930176
v 1.5521650314331055 -4.415782928466797 11.128104209899902
v 1.6921474933624268 -4.2110676765441895 9.639436721801758
v 2.1076509952545166 -4.063084125518799 8.001429557800293
v 2.1440908908843994 -3.9613265991210938 7.474034786224365
v 2.108539581298828 -3.9616270065307617 7.449748992919922
v 2.0623230934143066 -4.071188449859619 8.001067161560059
v 1.6543744802474976 -4.2179718017578125 9.64487361907959
v 1.5037267208099365 -4.426589012145996 11.128829956054688
v 1.6499305963516235 -4.4097795486450195 12.36956787109375
v 1.8490166664123535 -4.051077365875244 13.561735153198242
v 1.9912210702896118 -3.483757495880127 14.48494815826416
v 2.087653398513794 -2.811678409576416 14.962322235107422
v 2.0765438079833984 -1.9865128993988037 15.116372108459473
v 2.0925416946411133 -1.0073606967926025 15.08012580871582
v 2.080543279647827 -0.05852546542882919 14.903964042663574
v 2.079210042953491 0.6789904832839966 14.691919326782227
v 2.1294260025024414 0.6693850755691528 14.684669494628906
v 2.123204469680786 -0.04651873931288719 14.89309024810791
v 2.1343140602111816 -1.0001565217971802 15.068888664245605
vn 0.06565143913030624 -0.06082572788000107 0.04654093459248543
vn 0.08166729658842087 -0.03856610506772995 0.022066283971071243
vn 0.06364105641841888 -0.08022961765527725 0.02512715943157673
vn 0.08120877295732498 -0.0473334975540638 0.0083025973290205
vn 0.06468060612678528 -0.08416381478309631 0.002021621447056532
vn 0.08093174546957016 -0.04906867817044258 -0.0038179862312972546
vn 0.06500908732414246 -0.08346795290708542 -0.005164525005966425
vn 0.08165805041790009 -0.046519335359334946 -0.004715765826404095
vn 0.0651366338133812 -0.0834822878241539 0.0015724122058600187
vn 0.08238381147384644 -0.04302087426185608 0.008750327862799168
vn 0.06486829370260239 -0.08194809406995773 -0.014997130259871483
vn 0.08396250754594803 -0.03681224212050438 0.007854708470404148
vn 0.06287285685539246 -0.06468485295772552 -0.04813623055815697
vn 0.07454127073287964 -0.052305061370134354 -0.03373332694172859
vn 0.038593441247940063 -0.07669462263584137 -0.06702616810798645
vn 0.02146131545305252 -0.09148512780666351 -0.06461023539304733
vn -0.003329153638333082 -0.10879484564065933 -0.0489283949136734
vn -0.03199077770113945 -0.10945678502321243 -0.030318114906549454
vn -0.029997916892170906 -0.11323638260364532 -0.022504882887005806
vn -0.05736220255494118 -0.08991873264312744 -0.022943051531910896
vn -0.02656153403222561 -0.11593558639287949 -0.01854303479194641
vn -0.057820744812488556 -0.09040063619613647 -0.01986713893711567
vn -0.02862684056162834 -0.11668400466442108 -0.0083025973290205
vn -0.059941790997982025 -0.09072741121053696 -0.0038179862312972546
vn -0.03493208810687065 -0.11041509360074997 0.022504882887005806
vn -0.06086928769946098 -0.08575400710105896 0.021627264097332954
vn -0.036283962428569794 -0.0956685021519661 0.04971682280302048
vn -0.06099263206124306 -0.07372065633535385 0.042082056403160095
vn -0.03598152846097946 -0.07069279253482819 0.0732613354921341
vn -0.060198988765478134 -0.05515146628022194 0.0595993809401989
vn -0.03444397449493408 -0.03650354966521263 0.08967779576778412
vn -0.057987358421087265 -0.029288386926054955 0.07357589155435562
vn -0.028755968436598778 -0.0064859711565077305 0.09705911576747894
vn -0.05778384953737259 -0.006065973546355963 0.07753504812717438
vn -0.02945365011692047 0.013283749110996723 0.09629441052675247
vn -0.05818381533026695 0.00884813629090786 0.07694191485643387
vn -0.02821119874715805 0.028764884918928146 0.09445082396268845
vn -0.0609627328813076 0.017166711390018463 0.07294539362192154
vn 0.012098206207156181 0.054666828364133835 0.09117425233125687
vn -0.029018696397542953 0.06991538405418396 0.07782939821481705
vn 0.02536538802087307 0.061035189777612686 0.08443552255630493
vn 0.027733907103538513 0.09442280232906342 0.05812591686844826
vn 0.0350344181060791 0.049496885389089584 0.08494509011507034
vn 0.060706403106451035 0.062013283371925354 0.05398371070623398
vn 0.054896287620067596 0.020320814102888107 0.07870350778102875
vn 0.08078425377607346 0.01025725994259119 0.040435995906591415
vn 0.06038447469472885 0.005593323148787022 0.07481998205184937
vn 0.08091804385185242 0.0037370475474745035 0.040848687291145325
vn 0.06367243826389313 -0.005593860987573862 0.07102067023515701
vn 0.08182841539382935 -0.002800863469019532 0.03836110979318619
vn 0.06555316597223282 -0.02851693518459797 0.06461023539304733
vn 0.08240615576505661 -0.018600597977638245 0.03330859914422035
vn 0.06539740413427353 -0.030311807990074158 0.06426011025905609
vn 0.06305329501628876 -0.0630212053656578 0.049323081970214844
vn 0.06203734874725342 -0.08145002275705338 0.027732165530323982
vn 0.061757490038871765 -0.08815731108188629 0.005613185465335846
vn 0.06172562390565872 -0.08811183273792267 -0.0065101757645606995
vn 0.06190602481365204 -0.08820083737373352 0.001123173045925796
vn 0.06732425838708878 -0.07995817065238953 -0.002470791805535555
vn 0.06884242594242096 -0.066840261220932 -0.03245722874999046
vn 0.003997888416051865 -0.10288587957620621 -0.05700914189219475
vn -0.024307431653141975 -0.11647956073284149 -0.020307760685682297
vn -0.024481473490595818 -0.1169344112277031 -0.01810094714164734
vn -0.023363551124930382 -0.11905672401189804 -0.007406669203191996
vn -0.022383857518434525 -0.1172364205121994 0.020307760685682297
vn -0.02296214923262596 -0.10401777923107147 0.0489283949136734
vn -0.022697031497955322 -0.07872803509235382 0.07481998205184937
vn -0.020227141678333282 -0.03986351191997528 0.09445082396268845
vn -0.020246131345629692 -0.00781400315463543 0.09986907243728638
vn -0.02228355035185814 0.01094276737421751 0.09907394647598267
vn -0.027973609045147896 0.021858738735318184 0.09581350535154343
vn -0.009904853999614716 0.07107710093259811 0.08339708298444748
vn 0.05889485403895378 0.057858262211084366 0.0595993809401989
vn 0.06519794464111328 0.017634889110922813 0.06770502030849457
vn 0.06437116116285324 0.007460980676114559 0.07003992795944214
vn 0.06554646044969559 -0.00466508325189352 0.06871357560157776
vn 0.036691635847091675 -0.0065050628036260605 0.09335299581289291
vn 0.03559881076216698 -0.03975590318441391 0.0880974605679512
vn 0.03332735225558281 -0.07976513355970383 0.06837869435548782
vn 0.03189951926469803 -0.10395782440900803 0.04167172312736511
vn 0.03328867629170418 -0.11354885250329971 0.013217035681009293
vn 0.033431731164455414 -0.11418567597866058 -0.007854708470404148
vn 0.03220655024051666 -0.11492027342319489 -0.007406669203191996
vn 0.03298988565802574 -0.11406412720680237 -0.010986302979290485
vn 0.035222627222537994 -0.10926230996847153 -0.025562575086951256
vn 0.020450085401535034 -0.11493583768606186 -0.029888523742556572
vn 0.0111233564093709 -0.12140725553035736 -0.015441459603607655
vn 0.011624926701188087 -0.12183060497045517 -0.012325439602136612
vn 0.012937953695654869 -0.12210644036531448 -0.007854708470404148
vn 0.012776670046150684 -0.12082932144403458 0.016772644594311714
vn 0.011105798184871674 -0.10929636657238007 0.04654093459248543
vn 0.012227586470544338 -0.08357702940702438 0.0745110809803009
vn 0.01429406926035881 -0.04188571125268936 0.09531612694263458
vn 0.015640851110219955 -0.0072780498303473 0.10101442784070969
vn 0.013446491211652756 0.0114285284653306 0.10117840021848679
vn 0.009176855906844139 0.023541750386357307 0.10037986189126968
vn 0.013355443254113197 0.040837470442056656 0.09581350535154343
vn 0.03154883161187172 0.03850526735186577 0.09054327756166458
vn 0.031782444566488266 0.022439220920205116 0.09409205615520477
vn 0.0348321869969368 0.01016840711236 0.09409205615520477
vt 0.45202580094337463 0.6399062275886536
vt 0.4437547028064728 0.6370036005973816
vt 0.45451876521110535 0.586543083190918
vt 0.4457350969314575 0.5846080183982849
vt 0.45772233605384827 0.5254396796226501
vt 0.4491250813007355 0.524844229221344
vt 0.4646188020706177 0.465229332447052
vt 0.4559050500392914 0.465229332447052
vt 0.48719531297683716 0.38961294293403625
vt 0.4765128195285797 0.3924410939216614
vt 0.514315128326416 0.30997753143310547
vt 0.5035277605056763 0.31727126240730286
vt 0.520990252494812 0.2721693515777588
vt 0.5090495944023132 0.28735217452049255
vt 0.5086069107055664 0.25200000405311584
vt 0.5064750909805298 0.2710529565811157
vt 0.49995142221450806 0.2563166916370392
vt 0.5030268430709839 0.27723029255867004
vt 0.4891757369041443 0.2966553568840027
vt 0.4929850697517395 0.31288012862205505
vt 0.4593416154384613 0.3770350217819214
vt 0.4650964140892029 0.39020833373069763
vt 0.43746402859687805 0.45413991808891296
vt 0.44509440660476685 0.4611359238624573
vt 0.4306025505065918 0.5168063044548035
vt 0.4387454688549042 0.519634485244751
vt 0.4269213378429413 0.5797703266143799
vt 0.4353787899017334 0.5797703266143799
vt 0.425570011138916 0.6364082098007202
vt 0.43342170119285583 0.6341754794120789
vt 0.42650195956230164 0.6796494722366333
vt 0.43366631865501404 0.6773422956466675
vt 0.4283542037010193 0.7229651808738708
vt 0.4355185925960541 0.7197648882865906
vt 0.43436530232429504 0.771862804889679
vt 0.44081905484199524 0.7662808895111084
vt 0.44163453578948975 0.8092244863510132
vt 0.44722622632980347 0.8036425709724426
vt 0.449241578578949 0.8554427623748779
vt 0.4539945423603058 0.8353478312492371
vt 0.4604250192642212 0.8616200685501099
vt 0.4598192274570465 0.837952733039856
vt 0.4712938964366913 0.8503818511962891
vt 0.4630228281021118 0.8331151008605957
vt 0.4669603109359741 0.807810366153717
vt 0.4587474763393402 0.8040891289710999
vt 0.46014541387557983 0.7715651392936707
vt 0.4518626928329468 0.7675461173057556
vt 0.45428577065467834 0.7212533950805664
vt 0.44618943333625793 0.7189462184906006
vt 0.45210734009742737 0.6799471974372864
vt 0.44411584734916687 0.6778632998466492
vt 0.4420306086540222 0.6778632998466492
vt 0.4416927695274353 0.6366314888000488
vt 0.44366151094436646 0.5838637351989746
vt 0.4470398426055908 0.524025559425354
vt 0.453726589679718 0.46433624625205994
vt 0.4742761552333832 0.3916224241256714
vt 0.501442551612854 0.31622928380966187
vt 0.5070808529853821 0.2898082137107849
vt 0.5033646821975708 0.2823656499385834
vt 0.49504703283309937 0.31392210721969604
vt 0.46727484464645386 0.39095258712768555
vt 0.44710972905158997 0.4618801772594452
vt 0.4407375156879425 0.520453155040741
vt 0.43737083673477173 0.5804401636123657
vt 0.4353787899017334 0.6345475912094116
vt 0.43568167090415955 0.6774167418479919
vt 0.4375572204589844 0.7196160554885864
vt 0.44296255707740784 0.7663553357124329
vt 0.449474573135376 0.8036425709724426
vt 0.4555555582046509 0.8316265940666199
vt 0.46084439754486084 0.8293938040733337
vt 0.45644089579582214 0.8041635155677795
vt 0.44961437582969666 0.7674717307090759
vt 0.44401100277900696 0.7191694974899292
vt 0.441366583108902 0.7193183302879333
vt 0.4395259916782379 0.6777144074440002
vt 0.4392114579677582 0.6358128190040588
vt 0.44114524126052856 0.5825240612030029
vt 0.4445352256298065 0.5226114988327026
vt 0.45103558897972107 0.46329426765441895
vt 0.47131720185279846 0.3913247287273407
vt 0.4988563656806946 0.31526175141334534
vt 0.5046111941337585 0.29129672050476074
vt 0.5039471387863159 0.2898082137107849
vt 0.49767979979515076 0.3148896396160126
vt 0.4702337980270386 0.3912503123283386
vt 0.44975414872169495 0.4628477394580841
vt 0.4432537853717804 0.5217928290367126
vt 0.43987545371055603 0.5817798376083374
vt 0.43782517313957214 0.6353662610054016
vt 0.4381397068500519 0.6775655746459961
vt 0.4401550590991974 0.7194672226905823
vt 0.4456652104854584 0.7668018937110901
vt 0.4523053765296936 0.8040891289710999
vt 0.45727965235710144 0.8277564644813538
vt 0.458502858877182 0.8270866274833679
vt 0.45356351137161255 0.8040891289710999
vt 0.44687676429748535 0.7670251727104187
s on
f 1/1/1 2/2/2 3/3/3
f 2/2/2 4/4/4 3/3/3
f 3/3/3 4/4/4 5/5/5
f 4/4/4 6/6/6 5/5/5
f 5/5/5 6/6/6 7/7/7
f 6/6/6 8/8/8 7/7/7
f 7/7/7 8/8/8 9/9/9
f 8/8/8 10/10/10 9/9/9
f 9/9/9 10/10/10 11/11/11
f 10/10/10 12/12/12 11/11/11
f 11/11/11 12/12/12 13/13/13
f 12/12/12 14/14/14 13/13/13
f 13/13/13 14/14/14 15/15/15
f 14/14/14 16/16/16 15/15/15
f 15/15/15 16/16/16 17/17/17
f 16/16/16 18/18/18 17/17/17
f 17/17/17 18/18/18 19/19/19
f 18/18/18 20/20/20 19/19/19
f 19/19/19 20/20/20 21/21/21
f 20/20/20 22/22/22 21/21/21
f 21/21/21 22/22/22 23/23/23
f 22/22/22 24/24/24 23/23/23
f 23/23/23 24/24/24 25/25/25
f 24/24/24 26/26/26 25/25/25
f 25/25/25 26/26/26 27/27/27
f 26/26/26 28/28/28 27/27/27
f 27/27/27 28/28/28 29/29/29
f 28/28/28 30/30/30 29/29/29
f 29/29/29 30/30/30 31/31/31
f 30/30/30 32/32/32 31/31/31
f 31/31/31 32/32/32 33/33/33
f 32/32/32 34/34/34 33/33/33
f 33/33/33 34/34/34 35/35/35
f 34/34/34 36/36/36 35/35/35
f 35/35/35 36/36/36 37/37/37
f 36/36/36 38/38/38 37/37/37
f 37/37/37 38/38/38 39/39/39
f 38/38/38 40/40/40 39/39/39
f 39/39/39 40/40/40 41/41/41
f 40/40/40 42/42/42 41/41/41
f 41/41/41 42/42/42 43/43/43
f 42/42/42 44/44/44 43/43/43
f 43/43/43 44/44/44 45/45/45
f 44/44/44 46/46/46 45/45/45
f 45/45/45 46/46/46 47/47/47
f 46/46/46 48/48/48 47/47/47
f 47/47/47 48/48/48 49/49/49
f 48/48/48 50/50/50 49/49/49
f 49/49/49 50/50/50 51/51/51
f 50/50/50 52/52/52 51/51/51
f 51/51/51 52/52/52 1/1/1
f 52/52/52 2/2/2 1/1/1
f 52/52/52 53/53/53 2/2/2
f 53/53/53 54/54/54 2/2/2
f 2/2/2 54/54/54 4/4/4
f 54/54/54 55/55/55 4/4/4
f 4/4/4 55/55/55 6/6/6
f 55/55/55 56/56/56 6/6/6
f 6/6/6 56/56/56 8/8/8
f 56/56/56 57/57/57 8/8/8
f 8/8/8 57/57/57 10/10/10
f 57/57/57 58/58/58 10/10/10
f 10/10/10 58/58/58 12/12/12
f 58/58/58 59/59/59 12/12/12
f 12/12/12 59/59/59 14/14/14
f 59/59/59 60/60/60 14/14/14
f 14/14/14 60/60/60 18/18/18
f 60/60/60 61/61/61 18/18/18
f 18/18/18 61/61/61 20/20/20
f 61/61/61 62/62/62 20/20/20
f 20/20/20 62/62/62 22/22/22
f 62/62/62 63/63/63 22/22/22
f 22/22/22 63/63/63 24/24/24
f 63/63/63 64/64/64 24/24/24
f 24/24/24 64/64/64 26/26/26
f 64/64/64 65/65/65 26/26/26
f 26/26/26 65/65/65 28/28/28
f 65/65/65 66/66/66 28/28/28
f 28/28/28 66/66/66 30/30/30
f 66/66/66 67/67/67 30/30/30
f 30/30/30 67/67/67 32/32/32
f 67/67/67 68/68/68 32/32/32
f 32/32/32 68/68/68 34/34/34
f 68/68/68 69/69/69 34/34/34
f 34/34/34 69/69/69 36/36/36
f 69/69/69 70/70/70 36/36/36
f 36/36/36 70/70/70 38/38/38
f 70/70/70 71/71/71 38/38/38
f 38/38/38 71/71/71 40/40/40
f 71/71/71 72/72/72 40/40/40
f 40/40/40 72/72/72 44/44/44
f 72/72/72 73/73/73 44/44/44
f 44/44/44 73/73/73 46/46/46
f 73/73/73 74/74/74 46/46/46
f 46/46/46 74/74/74 48/48/48
f 74/74/74 75/75/75 48/48/48
f 48/48/48 75/75/75 50/50/50
f 75/75/75 76/76/76 50/50/50
f 50/50/50 76/76/76 52/52/52
f 76/76/76 53/53/53 52/52/52
f 76/76/76 77/77/77 53/53/53
f 77/77/77 78/78/78 53/53/53
f 53/53/53 78/78/78 54/54/54
f 78/78/78 79/79/79 54/54/54
f 54/54/54 79/79/79 55/55/55
f 79/79/79 80/80/80 55/55/55
f 55/55/55 80/80/80 56/56/56
f 80/80/80 81/81/81 56/56/56
f 56/56/56 81/81/81 57/57/57
f 81/81/81 82/82/82 57/57/57
f 57/57/57 82/82/82 58/58/58
f 82/82/82 83/83/83 58/58/58
f 58/58/58 83/83/83 59/59/59
f 83/83/83 84/84/84 59/59/59
f 59/59/59 84/84/84 60/60/60
f 84/84/84 85/85/85 60/60/60
f 60/60/60 85/85/85 61/61/61
f 85/85/85 86/86/86 61/61/61
f 61/61/61 86/86/86 62/62/62
f 86/86/86 87/87/87 62/62/62
f 62/62/62 87/87/87 63/63/63
f 87/87/87 88/88/88 63/63/63
f 63/63/63 88/88/88 64/64/64
f 88/88/88 89/89/89 64/64/64
f 64/64/64 89/89/89 65/65/65
f 89/89/89 90/90/90 65/65/65
f 65/65/65 90/90/90 66/66/66
f 90/90/90 91/91/91 66/66/66
f 66/66/66 91/91/91 67/67/67
f 91/91/91 92/92/92 67/67/67
f 67/67/67 92/92/92 68/68/68
f 92/92/92 93/93/93 68/68/68
f 68/68/68 93/93/93 69/69/69
f 93/93/93 94/94/94 69/69/69
f 69/69/69 94/94/94 70/70/70
f 94/94/94 95/95/95 70/70/70
f 70/70/70 95/95/95 71/71/71
f 95/95/95 96/96/96 71/71/71
f 71/71/71 96/96/96 72/72/72
f 96/96/96 97/97/97 72/72/72
f 72/72/72 97/97/97 73/73/73
f 97/97/97 98/98/98 73/73/73
f 73/73/73 98/98/98 74/74/74
f 98/98/98 99/99/99 74/74/74
f 74/74/74 99/99/99 75/75/75
f 99/99/99 100/100/100 75/75/75
f 75/75/75 100/100/100 76/76/76
f 100/100/100 77/77/77 76/76/76
f 98/98/98 97/97/97 99/99/99
f 97/97/97 96/96/96 99/99/99
f 99/99/99 96/96/96 100/100/100
f 96/96/96 95/95/95 100/100/100
f 100/100/100 95/95/95 77/77/77
f 95/95/95 94/94/94 77/77/77
f 77/77/77 94/94/94 78/78/78
f 94/94/94 93/93/93 78/78/78
f 78/78/78 93/93/93 79/79/79
f 93/93/93 92/92/92 79/79/79
f 79/79/79 92/92/92 80/80/80
f 92/92/92 91/91/91 80/80/80
f 80/80/80 91/91/91 81/81/81
f 91/91/91 90/90/90 81/81/81
f 81/81/81 90/90/90 82/82/82
f 90/90/90 89/89/89 82/82/82
f 82/82/82 89/89/89 83/83/83
f 89/89/89 88/88/88 83/83/83
f 83/83/83 88/88/88 84/84/84
f 88/88/88 87/87/87 84/84/84
f 84/84/84 87/87/87 85/85/85
f 87/87/87 86/86/86 85/85/85
f 40/40/40 44/44/44 42/42/42
f 14/14/14 18/18/18 16/16/16

