# Exported by Sketchfab Model Ripper robust edition
o model_14
v -3.104647397994995 -1.5943504571914673 2.397477388381958
v -3.009596586227417 -1.5964676141738892 2.428208112716675
v -3.1680145263671875 -1.6980903148651123 2.4992728233337402
v -3.079056739807129 -1.71714448928833 2.5472896099090576
v -3.2740328311920166 -1.7626631259918213 2.6145131587982178
v -3.198479652404785 -1.7901859283447266 2.683657169342041
v -3.3544604778289795 -1.8251186609268188 2.8123421669006348
v -3.2935304641723633 -1.8505244255065918 2.902613639831543
v -3.428795099258423 -1.7012659311294556 3.0082504749298096
v -3.230163335800171 -1.8685200214385986 2.989043712615967
v -3.387362480163574 -1.7150274515151978 3.102363348007202
v -3.1643588542938232 -1.880164384841919 3.0754737854003906
v -3.3447115421295166 -1.7234959602355957 3.1945552825927734
v -3.2935304641723633 -1.7129102945327759 3.279064893722534
v -2.9096715450286865 -1.5911747217178345 2.4666213989257812
v -2.986443281173706 -1.7256131172180176 2.6029889583587646
v -3.1192705631256104 -1.808181643486023 2.7566425800323486
v -3.0388429164886475 -1.8187673091888428 2.827707529067993
v -2.9584155082702637 -1.8230016231536865 2.900692939758301
v -3.0985543727874756 -1.8833400011062622 3.1599833965301514
v -3.2472236156463623 -1.7033830881118774 3.3578124046325684
v -2.892611026763916 -1.7287888526916504 2.658688545227051
v -2.798778772354126 -1.7245545387268066 2.718229293823242
v -2.7086024284362793 -1.7139688730239868 2.783531904220581
v -2.609895706176758 -1.5445976257324219 2.6145131587982178
v -2.517282247543335 -1.5181334018707275 2.6798157691955566
v -2.8073089122772217 -1.581647515296936 2.5107967853546143
v -2.707383871078491 -1.565769076347351 2.5588135719299316
v -3.196042537689209 -1.581647515296936 2.3801913261413574
v -3.253316640853882 -1.6663331985473633 2.4589388370513916
v -3.2703769207000732 -1.5625933408737183 2.376349925994873
v -3.3288698196411133 -1.6112875938415527 2.4224460124969482
v -3.3459300994873047 -1.718203067779541 2.551131010055542
v -3.4141716957092285 -1.6515132188796997 2.497352123260498
v -3.45438551902771 -1.7319644689559937 2.6433231830596924
v -3.5043482780456543 -1.6652746200561523 2.5780203342437744
v -3.409297466278076 -1.7870101928710938 2.7239911556243896
v -3.465353012084961 -1.6853874921798706 2.9102962017059326
v -3.4945993423461914 -1.6631574630737305 2.8181040287017822
v -3.51287841796875 -1.6324589252471924 2.7355153560638428
v -3.5201900005340576 -1.5996432304382324 2.672133207321167
v -2.3515524864196777 -1.4472092390060425 2.846914052963257
v -2.274780750274658 -1.4027493000030518 2.9525508880615234
v -2.47341251373291 -1.639868974685669 3.0197744369506836
v -2.4039523601531982 -1.6007018089294434 3.121569871902466
v -2.6744816303253174 -1.7647801637649536 3.213762044906616
v -2.6147701740264893 -1.7309058904647827 3.307874917984009
v -2.8731133937835693 -1.81559157371521 3.496100664138794
v -2.8194949626922607 -1.7721902132034302 3.594054698944092
v -3.100991725921631 -1.670567512512207 3.705453634262085
v -2.764657974243164 -1.7129102945327759 3.705453634262085
v -3.053466320037842 -1.6366932392120361 3.816852569580078
v -2.7098209857940674 -1.6419860124588013 3.8245351314544678
v -3.0022850036621094 -1.5943504571914673 3.937854766845703
v -2.948666572570801 -1.5456562042236328 4.064619064331055
v -2.200446128845215 -1.3519378900527954 3.077394485473633
v -2.3369293212890625 -1.5530661344528198 3.2387309074401855
v -2.555058717727661 -1.687504529953003 3.4154324531555176
v -2.495347499847412 -1.6356346607208252 3.540276050567627
v -2.436854600906372 -1.576354742050171 3.674722909927368
v -2.656202554702759 -1.565769076347351 3.947458028793335
v -2.8962669372558594 -1.4916691780090332 4.187541961669922
v -2.2699062824249268 -1.4990791082382202 3.3731777667999268
v -2.2065391540527344 -1.439799189567566 3.519148588180542
v -2.1492650508880615 -1.3762849569320679 3.6689608097076416
v -1.995721459388733 -1.1730395555496216 3.532593250274658
v -1.9518518447875977 -1.1084667444229126 3.6920089721679688
v -2.1261115074157715 -1.295833706855774 3.2176034450531006
v -2.0566513538360596 -1.2354952096939087 3.3712570667266846
v -3.138768196105957 -1.6843289136886597 3.6036581993103027
v -2.92551326751709 -1.847348690032959 3.4058291912078857
v -2.9791316986083984 -1.8685200214385986 3.323240280151367
v -2.7378487586975098 -1.7912445068359375 3.1273319721221924
v -3.0364058017730713 -1.880164384841919 3.242572069168091
v -2.8048717975616455 -1.8092401027679443 3.0505051612854004
v -2.879206418991089 -1.8198258876800537 2.9736783504486084
v -2.623300313949585 -1.6970317363739014 2.8526761531829834
v -3.1704518795013428 -1.6832703351974487 3.5114660263061523
v -3.207009792327881 -1.6938560009002686 3.432718515396118
v -2.4319801330566406 -1.4863762855529785 2.7566425800323486
v -2.5453100204467773 -1.6716259717941284 2.9314236640930176
v -2.0103445053100586 -0.3992248475551605 5.468628883361816
v -1.9774423837661743 -0.398166298866272 5.55505895614624
v -2.017656087875366 -0.4553290605545044 5.591551780700684
v -1.984753966331482 -0.4585047662258148 5.677981853485107
v -2.0444653034210205 -0.49555471539497375 5.714474678039551
v -1.9530704021453857 -0.4627390503883362 5.760570526123047
v -2.011563301086426 -0.500847578048706 5.795142650604248
v -1.9262611865997314 -0.4659147560596466 5.829714775085449
v -1.9835354089736938 -0.5050818920135498 5.86428689956665
v -1.962819218635559 -0.5050818920135498 5.918065547943115
v -2.051776885986328 -0.5199018716812134 5.895017623901367
v -2.028623580932617 -0.5241361260414124 5.950716972351074
v -2.117581367492676 -0.5071989893913269 5.916144847869873
v -2.094428062438965 -0.5146089792251587 5.9756855964660645
v -1.9457588195800781 -0.4013420045375824 5.643409729003906
v -1.91529381275177 -0.4045177102088928 5.725998401641846
v -1.8884845972061157 -0.4066348373889923 5.79706335067749
v -1.9067635536193848 -0.4637976288795471 5.881572723388672
v -1.9457588195800781 -0.501906156539917 5.960319995880127
v -2.0103445053100586 -0.5241361260414124 5.99681282043457
v -2.07371187210083 -0.5199018716812134 6.025622844696045
v -1.8702056407928467 -0.40557628870010376 5.847000598907471
v -1.8909218311309814 -0.4585047662258148 5.919986248016357
v -1.8775172233581543 -0.4500362277030945 5.950716972351074
v -1.9299169778823853 -0.4944961667060852 5.99681282043457
v -1.862894058227539 -0.4373333752155304 5.981447696685791
v -1.9104194641113281 -0.48285189270973206 6.0313849449157715
v -1.88604736328125 -0.46485620737075806 6.073639869689941
v -1.967693567276001 -0.5082575678825378 6.079401969909668
v -1.9360100030899048 -0.49026188254356384 6.127418518066406
v -2.024967908859253 -0.5103747248649597 6.117815017700195
v -1.9884097576141357 -0.49237900972366333 6.17159366607666
v -1.855582356452942 -0.40028342604637146 5.881572723388672
v -1.8433964252471924 -0.39181485772132874 5.9103827476501465
v -1.8312103748321533 -0.3801705837249756 5.937272071838379
v -1.8433964252471924 -0.4225133955478668 6.017940521240234
v -1.855582356452942 -0.44368478655815125 6.117815017700195
v -1.8994519710540771 -0.4659147560596466 6.177355766296387
v -1.94454026222229 -0.46485620737075806 6.225372791290283
v -1.816587209701538 -0.3674677610397339 5.969923496246338
v -1.820243000984192 -0.4034591317176819 6.056353569030762
v -1.7934337854385376 -0.3812291622161865 6.094767093658447
v -1.82146155834198 -0.41616198420524597 6.161990642547607
v -1.7641874551773071 -0.35370633006095886 6.131259918212891
v -1.7836849689483643 -0.3833463191986084 6.202324390411377
v -1.7434712648391724 -0.3441792130470276 6.23881721496582
v -1.8117128610610962 -0.39499056339263916 6.271468639373779
v -1.7654060125350952 -0.35053062438964844 6.311802864074707
v -1.8446149826049805 -0.3865220248699188 6.327167987823486
v -1.7934337854385376 -0.3367692232131958 6.369422912597656
v -1.7995268106460571 -0.3515892028808594 6.004495620727539
v -1.7800291776657104 -0.3335935175418854 6.03906774520874
v -1.7568758726119995 -0.3103049695491791 6.073639869689941
v -1.7312852144241333 -0.3219492435455322 6.16391134262085
v -1.7020388841629028 -0.30183640122413635 6.2637858390808105
v -1.7178806066513062 -0.3007778525352478 6.336771488189697
v -1.7398154735565186 -0.28066501021385193 6.396312236785889
v -1.7288479804992676 -0.28384071588516235 6.102449893951416
v -1.6947271823883057 -0.2848992943763733 6.186959266662598
v -1.65695059299469 -0.24573218822479248 6.192721366882324
v -1.6581692695617676 -0.25525933504104614 6.269547939300537
v -1.6179554462432861 -0.20444798469543457 6.177355766296387
v -1.6106438636779785 -0.20656514167785645 6.252262115478516
v -1.5606812238693237 -0.15681231021881104 6.206165790557861
v -1.6118624210357666 -0.19174516201019287 6.325247287750244
v -1.552151083946228 -0.13669949769973755 6.275310039520264
v -1.622829794883728 -0.16104662418365479 6.382867813110352
v -1.5558068752288818 -0.10070813447237015 6.3290886878967285
v -1.6983829736709595 -0.25314220786094666 6.123577117919922
v -1.6666994094848633 -0.21926796436309814 6.127418518066406
v -1.6337971687316895 -0.18327659368515015 6.112052917480469
v -1.5765230655670166 -0.16104662418365479 6.133180618286133
v -1.5082814693450928 -0.107059545814991 6.135101318359375
v -1.4912210702896118 -0.08059532195329666 6.202324390411377
v -1.487565279006958 -0.04142821207642555 6.254182815551758
v -1.6008950471878052 -0.14516806602478027 6.069798469543457
v -1.5338720083236694 -0.11658669263124466 6.067877769470215
v -1.488783836364746 -0.07212675362825394 5.987209796905518
v -1.4546630382537842 -0.057306770235300064 6.050591468811035
v -1.440039873123169 -0.026608234271407127 5.898858547210693
v -1.3998260498046875 -0.009671097621321678 5.958399295806885
v -1.346207618713379 0.03584742173552513 5.866207599639893
v -1.3705796003341675 0.022086018696427345 6.016019821166992
v -1.3169611692428589 0.06866305321455002 5.9219069480896
v -1.359612226486206 0.06654595583677292 6.062115669250488
v -1.3059937953948975 0.11206447333097458 5.9660820960998535
v -1.5667742490768433 -0.10600096732378006 6.008337020874023
v -1.5302162170410156 -0.06471676379442215 5.931509971618652
v -1.4863466024398804 -0.022373920306563377 5.848921298980713
v -1.3876399993896484 0.018910283222794533 5.808587074279785
v -1.295026421546936 0.07819020003080368 5.777856349945068
v -1.2682172060012817 0.1099473163485527 5.829714775085449
v -1.259687066078186 0.15229010581970215 5.873889923095703
v -1.4351654052734375 0.022086018696427345 5.762491226196289
v -1.3340215682983398 0.06231164559721947 5.722157001495361
v -1.282840371131897 0.10359590500593185 5.645330429077148
v -1.247501015663147 0.11735730618238449 5.697188377380371
v -1.2377521991729736 0.1406458616256714 5.581948280334473
v -1.2060686349868774 0.15229010581970215 5.633806228637695
v -1.1719478368759155 0.18404722213745117 5.587710380554199
v -1.1877896785736084 0.17981290817260742 5.683743953704834
v -1.1561061143875122 0.20945286750793457 5.63764762878418
v -1.1853524446487427 0.21898001432418823 5.727919101715088
v -1.1561061143875122 0.24756139516830444 5.681823253631592
v -1.3803284168243408 0.06548737734556198 5.677981853485107
v -1.3254914283752441 0.10783015936613083 5.6030755043029785
v -1.276747465133667 0.14699727296829224 5.541614055633545
v -1.2011942863464355 0.17240291833877563 5.5377726554870605
v -1.142701506614685 0.2105114459991455 5.556979656219482
v -1.1280782222747803 0.23485857248306274 5.606916904449463
v -1.130515456199646 0.27190858125686646 5.649171829223633
v -1.2377521991729736 0.17981290817260742 5.497438907623291
v -1.1707292795181274 0.19992578029632568 5.507041931152344
v -1.1451386213302612 0.22427284717559814 5.48783540725708
v -1.118329405784607 0.2337999939918518 5.535851955413818
v -1.1207666397094727 0.24544429779052734 5.470549583435059
v -1.095176100730896 0.25391286611557007 5.520486831665039
v -1.0732412338256836 0.27190858125686646 5.505121231079102
v -1.0817714929580688 0.27825993299484253 5.5704240798950195
v -1.061055302619934 0.295197069644928 5.556979656219482
v -1.084208607673645 0.31319278478622437 5.6126790046691895
v -1.0634924173355103 0.33118849992752075 5.599234104156494
v -1.207287311553955 0.2083943486213684 5.466708183288574
v -1.1792594194412231 0.23274141550064087 5.447501182556152
v -1.1548874378204346 0.25285428762435913 5.430215358734131
v -1.096394658088684 0.262381374835968 5.455183982849121
v -1.0525250434875488 0.28672856092453003 5.4916768074035645
v -1.0415576696395874 0.3110756278038025 5.543534755706787
v -1.0439949035644531 0.3460084795951843 5.585789680480957
v -1.129296898841858 0.2708500027656555 5.414849758148193
v -1.0744599103927612 0.27825993299484253 5.441739082336426
v -1.0561808347702026 0.29202133417129517 5.430215358734131
v -1.0354646444320679 0.30048996210098267 5.480152606964111
v -1.0427762269973755 0.3036655783653259 5.422532558441162
v -1.0232787132263184 0.31319278478622437 5.470549583435059
v -1.1061434745788574 0.2856699824333191 5.401405334472656
v -1.0854272842407227 0.29943138360977173 5.391801834106445
v -1.0708039999008179 0.3110756278038025 5.384119033813477
v -2.0810234546661377 -0.5135504007339478 5.825873374938965
v -2.1151442527770996 -0.5071989893913269 5.745204925537109
v -2.1504836082458496 -0.501906156539917 5.66261625289917
v -2.2211623191833496 -0.4839104413986206 5.685664176940918
v -2.2565019130706787 -0.4817933142185211 5.604996204376221
v -2.1492650508880615 -0.49767187237739563 5.8450798988342285
v -2.1846044063568115 -0.4892033040523529 5.766332626342773
v -1.9908469915390015 -0.5188432931900024 6.03906774520874
v -2.051776885986328 -0.5188432931900024 6.071719169616699
v -1.1049247980117798 0.25814706087112427 5.585789680480957
v -1.1061434745788574 0.29413849115371704 5.628044128417969
v -1.2255662679672241 0.14699727296829224 5.750967025756836
v -1.2206918001174927 0.18828147649765015 5.793221950531006
v -1.8568010330200195 -0.43309909105300903 6.227293491363525
v -1.8957961797714233 -0.4299233853816986 6.279151439666748
v -1.4302910566329956 -0.027666812762618065 6.113973617553711
v -1.4217607975006104 0.014676028862595558 6.161990642547607
v -1.014748454093933 0.33542269468307495 5.520486831665039
v -1.0257158279418945 0.3237784504890442 5.53009033203125
v -1.019622802734375 0.3703555464744568 5.564661979675293
v -1.0293716192245483 0.358711302280426 5.574265480041504
v -1.6666994094848633 -0.24784934520721436 6.344454288482666
v -1.6825412511825562 -0.22244364023208618 6.402074337005615
v -1.967693567276001 -0.7242058515548706 4.613930702209473
v -2.049339771270752 -0.6913901567459106 4.73685359954834
v -2.084679126739502 -0.8480585217475891 4.673471450805664
v -2.14439058303833 -0.8057157397270203 4.794473648071289
v -2.2418785095214844 -0.918982744216919 4.729170799255371
v -2.2552831172943115 -0.8639370799064636 4.867458820343018
v -2.379580497741699 -0.8480585217475891 4.917396545410156
v -2.352771282196045 -0.7686657905578613 5.042240142822266
v -2.47341251373291 -0.741142988204956 5.072970867156982
v -2.3332736492156982 -0.6903316378593445 5.1286702156066895
v -2.435636043548584 -0.6670430898666382 5.159400939941406
v -2.3162131309509277 -0.6331688165664673 5.201655387878418
v -2.4063897132873535 -0.6109388470649719 5.230465412139893
v -2.3807990550994873 -0.5685960650444031 5.291926860809326
v -2.1638882160186768 -0.6765701770782471 4.804076671600342
v -2.2321298122406006 -0.7686657905578613 4.859776496887207
v -2.2772181034088135 -0.781368613243103 4.959650993347168
v -2.2443158626556396 -0.67445307970047 5.069129467010498
v -2.227255344390869 -0.6204659938812256 5.157480239868164
v -2.3003714084625244 -0.5897674560546875 5.263116836547852
v -2.3588643074035645 -0.537897527217865 5.349547386169434
v -2.1931345462799072 -0.6448131203651428 4.9865403175354
v -2.154139518737793 -0.5760060548782349 5.105622291564941
v -2.1504836082458496 -0.5400146842002869 5.176686763763428
v -2.106614112854004 -0.47755903005599976 5.130590915679932
v -2.1005210876464844 -0.4532119333744049 5.193973064422607
v -2.1370790004730225 -0.5675374865531921 4.93660306930542
v -2.1053953170776367 -0.5071989893913269 5.057605266571045
v -1.9530704021453857 -0.7877200245857239 4.446832180023193
v -2.061525821685791 -0.9369783997535706 4.5236592292785645
v -1.9079822301864624 -0.8607614040374756 4.297019958496094
v -1.9908469915390015 -1.0671825408935547 4.408418655395508
v -1.992065668106079 -1.1444581747055054 4.26052713394165
v -2.2321298122406006 -1.253490924835205 4.350798606872559
v -2.2686877250671387 -1.3064193725585938 4.208669185638428
v -2.4904730319976807 -1.2788965702056885 4.421863555908203
v -2.5258123874664307 -1.3519378900527954 4.300861358642578
v -2.750034809112549 -1.2873650789260864 4.5236592292785645
v -2.798778772354126 -1.364640712738037 4.412260055541992
v -2.2101950645446777 -1.0692996978759766 4.625454425811768
v -2.1992275714874268 -1.197386622428894 4.506372928619385
v -2.4514777660369873 -1.2270265817642212 4.573596477508545
v -2.6976349353790283 -1.197386622428894 4.638899326324463
v -2.4173569679260254 -1.1370481252670288 4.717646598815918
v -2.6415793895721436 -1.092588186264038 4.76182222366333
v -2.4039523601531982 -0.9592083692550659 4.792552947998047
v -2.585523843765259 -0.9814383387565613 4.8866658210754395
v -2.53190541267395 -0.8734642267227173 5.005747318267822
v -1.8348661661148071 -0.9443883895874023 4.156811237335205
v -2.0310606956481934 -1.192093849182129 4.106873512268066
v -1.8507080078125 -1.0036683082580566 3.9993162155151367
v -1.9043264389038086 -1.0523625612258911 3.8456625938415527
v -2.0688374042510986 -1.2460808753967285 3.960902690887451
v -2.1017396450042725 -1.3117122650146484 3.8187732696533203
v -2.2979342937469482 -1.3762849569320679 4.081904888153076
v -2.3344922065734863 -1.4450920820236206 3.9512994289398193
v -2.6074585914611816 -1.4980205297470093 4.072301387786865
v -2.3820176124572754 -1.511781930923462 3.814931869506836
v -2.563589096069336 -1.4281549453735352 4.189462661743164
v -2.847522735595703 -1.432389259338379 4.30278205871582
v -2.283310890197754 -0.5580103397369385 5.322657585144043
v -2.2187252044677734 -0.5791817903518677 5.222783088684082
v -2.2065391540527344 -0.5484832525253296 5.282323837280273
v -2.141953468322754 -0.5114333033561707 5.238148212432861
v -2.189478874206543 -0.5241361260414124 5.343785285949707
v -2.1273303031921387 -0.4892033040523529 5.299609661102295
v -2.167543888092041 -0.506140410900116 5.405246734619141
v -2.106614112854004 -0.47226619720458984 5.362991809844971
v -2.0798048973083496 -0.4606219232082367 5.432136058807373
v -2.0408096313476562 -0.40557628870010376 5.391801834106445
v -2.0871164798736572 -0.43309909105300903 5.257355213165283
v -2.0664002895355225 -0.41616198420524597 5.322657585144043
v -2.262594699859619 -0.533663272857666 5.382198333740234
v -2.3369293212890625 -0.5135504007339478 5.407167434692383
v -2.2406599521636963 -0.5156675577163696 5.443659782409668
v -2.213850736618042 -0.5050818920135498 5.508962631225586
v -2.141953468322754 -0.49555471539497375 5.472469806671143
v -2.1846044063568115 -0.4997889995574951 5.581948280334473
v -2.1114883422851562 -0.49026188254356384 5.5473761558532715
v -2.0785861015319824 -0.4913204312324524 5.629964828491211
v -2.05055832862854 -0.4553290605545044 5.507041931152344
v -2.285748243331909 -0.4860275983810425 5.533931255340576
v -2.3125574588775635 -0.4966132938861847 5.468628883361816
vn 0.1278456598520279 -0.729884922504425 -0.6715083718299866
vn 0.23799335956573486 -0.7520269155502319 -0.6146662831306458
vn 0.06034789979457855 -0.8100979924201965 -0.5831804275512695
vn 0.1687568873167038 -0.8411423563957214 -0.5138099193572998
vn -0.07166201621294022 -0.8985215425491333 -0.43303996324539185
vn 0.030194716528058052 -0.9367752075195312 -0.34862664341926575
vn -0.4068293571472168 -0.9106597900390625 -0.07203252613544464
vn -0.34040287137031555 -0.9401553273200989 -0.0152922747656703
vn -0.6458953022956848 -0.7338796257972717 0.2103329300880432
vn -0.27576643228530884 -0.9611030220985413 0.0152922747656703
vn -0.582434892654419 -0.7778988480567932 0.23588760197162628
vn -0.20607350766658783 -0.9755502343177795 0.0763898640871048
vn -0.514471173286438 -0.8005327582359314 0.30735430121421814
vn -0.46471109986305237 -0.8049032092094421 0.3690181374549866
vn 0.29871419072151184 -0.7581584453582764 -0.5796254277229309
vn 0.23334088921546936 -0.8501583337783813 -0.4719987213611603
vn 0.0942368283867836 -0.9495800733566284 -0.2990269064903259
vn 0.1392461508512497 -0.9540035724639893 -0.26549527049064636
vn 0.19318002462387085 -0.9554552435874939 -0.22312943637371063
vn -0.15588639676570892 -0.9781999588012695 0.1372016966342926
vn -0.4578903317451477 -0.8031479120254517 0.3811691105365753
vn 0.2802305221557617 -0.8526885509490967 -0.4409002661705017
vn 0.33564117550849915 -0.8522464632987976 -0.401274174451828
vn 0.40551140904426575 -0.8432971835136414 -0.3527185618877411
vn 0.48042723536491394 -0.7440677285194397 -0.4642767012119293
vn 0.5583485960960388 -0.7261032462120056 -0.401274174451828
vn 0.3479720950126648 -0.7586452960968018 -0.5507928133010864
vn 0.4091905653476715 -0.7540308237075806 -0.5138099193572998
vn -0.02077905274927616 -0.6792446374893188 -0.7336177229881287
vn -0.0828719511628151 -0.7451410889625549 -0.661737859249115
vn -0.10719667375087738 -0.6345401406288147 -0.7654199600219727
vn -0.15925562381744385 -0.6928919553756714 -0.7032341957092285
vn -0.20933878421783447 -0.8201812505722046 -0.5324283838272095
vn -0.28098854422569275 -0.7621981501579285 -0.5831804275512695
vn -0.6120468378067017 -0.749315083026886 -0.25283506512641907
vn -0.6607665419578552 -0.6954796314239502 -0.28230419754981995
vn -0.5102837681770325 -0.8435508012771606 -0.16742929816246033
vn -0.7088887095451355 -0.6861987113952637 0.16312000155448914
vn -0.785178005695343 -0.6133950352668762 0.08510008454322815
vn -0.8553218245506287 -0.5170600414276123 0.03276457265019417
vn -0.8881745934486389 -0.4576285779476166 0.04149730131030083
vn 0.6883736252784729 -0.6750214695930481 -0.26549527049064636
vn 0.7270280718803406 -0.6549578309059143 -0.2060592919588089
vn 0.6002873182296753 -0.7838592529296875 -0.15880759060382843
vn 0.6394020318984985 -0.7620096802711487 -0.10250037163496017
vn 0.4309397339820862 -0.9023146033287048 0.010923261754214764
vn 0.4613412618637085 -0.8846380710601807 0.06767380982637405
vn 0.05471991002559662 -0.9659607410430908 0.25283506512641907
vn 0.12794946134090424 -0.9429540038108826 0.30735430121421814
vn -0.17255336046218872 -0.9013341665267944 0.3972681760787964
vn 0.17265792191028595 -0.9212213158607483 0.34862664341926575
vn -0.06785894185304642 -0.9007056355476379 0.42909738421440125
vn 0.1984005868434906 -0.9079993367195129 0.3690181374549866
vn 0.022638607770204544 -0.9029744863510132 0.42909738421440125
vn 0.09418467432260513 -0.9057356715202332 0.41324591636657715
vn 0.7536013126373291 -0.6389188170433044 -0.15449213981628418
vn 0.6613727807998657 -0.7480681538581848 -0.05459024757146835
vn 0.4810571074485779 -0.8684557676315308 0.11986933648586273
vn 0.4852992594242096 -0.858167827129364 0.16742929816246033
vn 0.47348758578300476 -0.8553183674812317 0.2103329300880432
vn 0.21851526200771332 -0.9017015099525452 0.37307560443878174
vn 0.14458927512168884 -0.8972294926643372 0.417220801115036
vn 0.6742730736732483 -0.7383237481117249 -0.0152922747656703
vn 0.685229480266571 -0.7279307246208191 0.024029340595006943
vn 0.6931555271148682 -0.7171797156333923 0.07203252613544464
vn 0.7962542176246643 -0.6046426296234131 -0.01966099627315998
vn 0.7961781620979309 -0.6045848727226257 0.024029340595006943
vn 0.7703831195831299 -0.6278111338615417 -0.1111890971660614
vn 0.7794641256332397 -0.6222917437553406 -0.07203252613544464
vn -0.30012232065200806 -0.8895094394683838 0.34452807903289795
vn -0.009430485777556896 -0.9737589359283447 0.22738653421401978
vn -0.06409692764282227 -0.9755263328552246 0.2103329300880432
vn 0.3738146424293518 -0.9258955121040344 -0.05459024757146835
vn -0.11297958344221115 -0.9786432385444641 0.17173540592193604
vn 0.3169785141944885 -0.9413699507713318 -0.11553031951189041
vn 0.2520406246185303 -0.9515703320503235 -0.1760382205247879
vn 0.4762287735939026 -0.8298875093460083 -0.29067665338516235
vn -0.3896520137786865 -0.8507413864135742 0.3527185618877411
vn -0.4297441840171814 -0.8147497773170471 0.3892335295677185
vn 0.6348628401756287 -0.697564959526062 -0.33219319581985474
vn 0.546068549156189 -0.8074790239334106 -0.22312943637371063
vn 0.7060402035713196 -0.6646729707717896 -0.24437066912651062
vn 0.6958970427513123 -0.6638527512550354 -0.27391019463539124
vn 0.567221999168396 -0.7890603542327881 -0.23588760197162628
vn 0.5655862092971802 -0.7836021780967712 -0.25706008076667786
vn 0.27021118998527527 -0.9488824009895325 -0.16312000155448914
vn 0.5822325944900513 -0.7698947191238403 -0.2612801790237427
vn 0.28834742307662964 -0.9412047266960144 -0.1760382205247879
vn 0.607772707939148 -0.7569341063499451 -0.2401314377784729
vn 0.3206323981285095 -0.9330523610115051 -0.16312000155448914
vn 0.37884825468063354 -0.9170860648155212 -0.1242060661315918
vn -0.011321731843054295 -0.9970137476921082 -0.0763898640871048
vn 0.043397206813097 -0.9975653290748596 -0.05459024757146835
vn -0.195033997297287 -0.9805020689964294 -0.024029340595006943
vn -0.14297764003276825 -0.9896077513694763 -0.0152922747656703
vn 0.7001753449440002 -0.65212082862854 -0.29067665338516235
vn 0.7088415026664734 -0.6407843232154846 -0.2948545813560486
vn 0.7249220013618469 -0.6301928758621216 -0.2781098484992981
vn 0.642168402671814 -0.7395294904708862 -0.2017817199230194
vn 0.44113361835479736 -0.8948862552642822 -0.06767380982637405
vn 0.12053639441728592 -0.9927064776420593 -0.002184694167226553
vn -0.0603460818529129 -0.9976396560668945 0.03276457265019417
vn 0.7508448362350464 -0.613608181476593 -0.24437066912651062
vn 0.6767290830612183 -0.7207534909248352 -0.15017375349998474
vn 0.7100248336791992 -0.6953428983688354 -0.1111890971660614
vn 0.5042562484741211 -0.8633302450180054 -0.01966099627315998
vn 0.7362735271453857 -0.6681955456733704 -0.10684575140476227
vn 0.5492739677429199 -0.835639476776123 -0.002184694167226553
vn 0.5804283022880554 -0.8143084645271301 -0.002184694167226553
vn 0.293832391500473 -0.9483110308647156 0.11986933648586273
vn 0.3579399585723877 -0.9208751916885376 0.15449213981628418
vn 0.14484670758247375 -0.9712498784065247 0.18892620503902435
vn 0.22441218793392181 -0.9444448351860046 0.2401314377784729
vn 0.7777265310287476 -0.5967705249786377 -0.1975002884864807
vn 0.7986248135566711 -0.5793015956878662 -0.16312000155448914
vn 0.8127046823501587 -0.5606168508529663 -0.15880759060382843
vn 0.744252622127533 -0.6562475562095642 -0.1242060661315918
vn 0.6107551455497742 -0.7918164730072021 0.002184694167226553
vn 0.41326066851615906 -0.8916983604431152 0.18463370203971863
vn 0.29319247603416443 -0.9121183156967163 0.2864931523799896
vn 0.8165234327316284 -0.5484230518341064 -0.18033768236637115
vn 0.7610223889350891 -0.6330992579460144 -0.1415284425020218
vn 0.7675210237503052 -0.6210407614707947 -0.15880759060382843
vn 0.6401990652084351 -0.7681810855865479 0.006554040592163801
vn 0.773140549659729 -0.6093145608901978 -0.1760382205247879
vn 0.6686270833015442 -0.7433379292488098 0.01966099627315998
vn 0.6958663463592529 -0.7172107696533203 0.03713129088282585
vn 0.5171416401863098 -0.8177034854888916 0.25283506512641907
vn 0.5734708309173584 -0.7674977779388428 0.2864931523799896
vn 0.4199642837047577 -0.8254731893539429 0.37712597846984863
vn 0.4973970055580139 -0.7584174871444702 0.42118772864341736
vn 0.8231998085975647 -0.5290383696556091 -0.2060592919588089
vn 0.8225225806236267 -0.5155516266822815 -0.2401314377784729
vn 0.8120368123054504 -0.5153342485427856 -0.27391019463539124
vn 0.7655606865882874 -0.614998996257782 -0.18892620503902435
vn 0.7110204696655273 -0.7016741037368774 0.04586252197623253
vn 0.6328393816947937 -0.7088556289672852 0.31150925159454346
vn 0.5792178511619568 -0.6831133365631104 0.44481781125068665
vn 0.7880628108978271 -0.5333763360977173 -0.30735430121421814
vn 0.7395136952400208 -0.6435162425041199 -0.1975002884864807
vn 0.6946197152137756 -0.6879415512084961 -0.2103329300880432
vn 0.7213978171348572 -0.6906970739364624 0.05022686347365379
vn 0.6302706599235535 -0.7436209917068481 -0.22312943637371063
vn 0.7224454283714294 -0.690430223941803 0.03713129088282585
vn 0.7017048001289368 -0.712384045124054 0.010923261754214764
vn 0.7484146356582642 -0.5940843820571899 0.2948545813560486
vn 0.7818387150764465 -0.5717723965644836 0.24860523641109467
vn 0.7383300065994263 -0.5299015045166016 0.417220801115036
vn 0.7913765907287598 -0.4873896539211273 0.3690181374549866
vn 0.7341241240501404 -0.587515115737915 -0.34042292833328247
vn 0.6414459347724915 -0.6748006939888 -0.3649536371231079
vn 0.5048986077308655 -0.7764363288879395 -0.37712597846984863
vn 0.5424389243125916 -0.8062983751296997 -0.23588760197162628
vn 0.6742730736732483 -0.7383237481117249 -0.0152922747656703
vn 0.7894321084022522 -0.578218400478363 0.2060592919588089
vn 0.8196009993553162 -0.4753749966621399 0.3198012113571167
vn 0.38804513216018677 -0.8480477929115295 -0.36088213324546814
vn 0.4721558690071106 -0.8505363464355469 -0.23163928091526031
vn 0.4268878400325775 -0.8752497434616089 -0.22738653421401978
vn 0.6399546265602112 -0.7678877711296082 -0.028397228568792343
vn 0.40284398198127747 -0.8887144923210144 -0.21886809170246124
vn 0.6223116517066956 -0.7820835709571838 -0.03276457265019417
vn 0.6163877248764038 -0.7867608666419983 -0.03276457265019417
vn 0.7821010947227478 -0.6036969423294067 0.15449213981628418
vn 0.78669273853302 -0.5977011919021606 0.15449213981628418
vn 0.838202178478241 -0.48320960998535156 0.25283506512641907
vn 0.8517674207687378 -0.4634384512901306 0.24437066912651062
vn 0.3181544542312622 -0.8863816857337952 -0.3363112509250641
vn 0.2827117145061493 -0.9043236374855042 -0.3198012113571167
vn 0.2662326693534851 -0.9121853709220886 -0.31150925159454346
vn 0.3890427052974701 -0.8948422074317932 -0.21886809170246124
vn 0.616540789604187 -0.7869561910629272 -0.024029340595006943
vn 0.7986248135566711 -0.5793015956878662 0.16312000155448914
vn 0.8633391261100769 -0.4367150068283081 0.25283506512641907
vn 0.24832236766815186 -0.9158034324645996 -0.31565824151039124
vn 0.38043615221977234 -0.8974862694740295 -0.22312943637371063
vn 0.3836187720298767 -0.892857015132904 -0.23588760197162628
vn 0.6284160614013672 -0.7776288986206055 -0.01966099627315998
vn 0.4078426957130432 -0.874869704246521 -0.2612801790237427
vn 0.6400279998779297 -0.7679757475852966 -0.024029340595006943
vn 0.657185971736908 -0.7531933188438416 -0.028397228568792343
vn 0.8118674159049988 -0.5478644967079163 0.2017817199230194
vn 0.8056056499481201 -0.547078549861908 0.22738653421401978
vn 0.8687102198600769 -0.3884274661540985 0.30735430121421814
vn 0.8483687043190002 -0.39479121565818787 0.3527185618877411
vn 0.24455906450748444 -0.9139228463172913 -0.3239381015300751
vn 0.24622556567192078 -0.9043408632278442 -0.34862664341926575
vn 0.2678837180137634 -0.8830942511558533 -0.3852050006389618
vn 0.44135981798171997 -0.8475035429000854 -0.2948545813560486
vn 0.6684866547584534 -0.7431817650794983 -0.028397228568792343
vn 0.7849449515342712 -0.5656287670135498 0.25283506512641907
vn 0.8138447403907776 -0.42779383063316345 0.3932546079158783
vn 0.30201831459999084 -0.8512698411941528 -0.42909738421440125
vn 0.4693738520145416 -0.8230524659156799 -0.3198012113571167
vn 0.4853454828262329 -0.8104385733604431 -0.3280687630176544
vn 0.6629945039749146 -0.7483660578727722 -0.01966099627315998
vn 0.4644268751144409 -0.8320946097373962 -0.30319350957870483
vn 0.6401990652084351 -0.7681810855865479 0.006554040592163801
vn 0.6163877248764038 -0.7867608666419983 0.03276457265019417
vn 0.7273890972137451 -0.611446738243103 0.31150925159454346
vn 0.712748110294342 -0.6221368312835693 0.3239381015300751
vn 0.7375356554985046 -0.4976257383823395 0.456519216299057
vn 0.7244320511817932 -0.5095540881156921 0.4642767012119293
vn 0.3423287272453308 -0.8190486431121826 -0.46040233969688416
vn 0.36599352955818176 -0.7997618913650513 -0.4758462607860565
vn 0.3492894768714905 -0.8161044716835022 -0.46040233969688416
vn 0.4433445334434509 -0.8534745573997498 -0.27391019463539124
vn 0.6279961466789246 -0.7771092653274536 0.04149730131030083
vn 0.7225783467292786 -0.6106919050216675 0.3239381015300751
vn 0.739281415939331 -0.4914190471172333 0.46040233969688416
vn 0.3232872188091278 -0.8434220552444458 -0.42909738421440125
vn 0.44675859808921814 -0.8543530106544495 -0.26549527049064636
vn 0.5038930773735046 -0.8148702383041382 -0.2864931523799896
vn 0.685229480266571 -0.7279307246208191 0.024029340595006943
vn 0.6647737622261047 -0.6540947556495667 -0.36088213324546814
vn 0.8254086971282959 -0.5614491105079651 -0.058952588587999344
vn 0.3300158977508545 -0.8448020219802856 -0.42118772864341736
vn 0.3820202350616455 -0.8100602626800537 -0.44481781125068665
vn 0.5407761335372925 -0.666003406047821 -0.5138099193572998
vn -0.049073055386543274 -0.9964998960494995 -0.06767380982637405
vn -0.062259066849946976 -0.9967954158782959 -0.05022686347365379
vn -0.060371436178684235 -0.9980588555335999 -0.0152922747656703
vn -0.2263367474079132 -0.9722634553909302 0.058952588587999344
vn -0.211560919880867 -0.9705126285552979 0.11553031951189041
vn -0.22462347149848938 -0.9744431972503662 -0.002184694167226553
vn -0.23190946877002716 -0.9724405407905579 0.024029340595006943
vn 0.21358729898929596 -0.9745771884918213 0.06767380982637405
vn 0.05091783404350281 -0.991998016834259 0.11553031951189041
vn 0.7575296759605408 -0.5886027216911316 0.28230419754981995
vn 0.7693645358085632 -0.47323745489120483 0.42909738421440125
vn 0.812692403793335 -0.554084300994873 0.18033768236637115
vn 0.8736284971237183 -0.4021771252155304 0.27391019463539124
vn 0.4586446285247803 -0.8623171448707581 0.21460255980491638
vn 0.3552767038345337 -0.8737425804138184 0.33219319581985474
vn 0.7823982238769531 -0.5973805785179138 0.1760382205247879
vn 0.8292236328125 -0.4823820888996124 0.28230419754981995
vn 0.9074221849441528 -0.37535569071769714 0.18892620503902435
vn 0.7800813913345337 -0.5518457889556885 0.2948545813560486
vn 0.9116548895835876 -0.2680436074733734 0.31150925159454346
vn 0.7943266034126282 -0.4339304566383362 0.42514660954475403
vn 0.6941887140274048 -0.6448482275009155 0.3198012113571167
vn 0.6657443642616272 -0.5991005897521973 0.44481781125068665
vn 0.7851473689079285 -0.4540313482284546 0.42118772864341736
vn 0.7044728994369507 -0.27291426062583923 0.6551609039306641
vn 0.7047427296638489 -0.5082971453666687 0.4949462115764618
vn 0.6592445373535156 -0.3748113214969635 0.651853621006012
vn 0.5076519846916199 -0.6141189932823181 0.6042742133140564
vn 0.5106865167617798 -0.6317434906959534 0.5831804275512695
vn 0.3107984960079193 -0.7614220976829529 0.5688942670822144
vn 0.285806804895401 -0.7380596399307251 0.6112139225006104
vn 0.1515754759311676 -0.7342532873153687 0.661737859249115
vn 0.22139541804790497 -0.7789343595504761 0.5867242813110352
vn 0.00942970346659422 -0.7695634961128235 0.6385006904602051
vn 0.18521258234977722 -0.8187355399131775 0.5434780716896057
vn -0.003772845258936286 -0.8046198487281799 0.5937783122062683
vn -0.03958805277943611 -0.8478696346282959 0.528724730014801
vn 0.7515921592712402 -0.2303323745727539 0.6181069612503052
vn 0.7908264398574829 -0.2668723165988922 0.5507928133010864
vn 0.5725486874580383 -0.6418959498405457 0.5100564956665039
vn 0.5997008085250854 -0.703611433506012 0.3811691105365753
vn 0.5251832604408264 -0.7588146328926086 0.3852050006389618
vn 0.14832797646522522 -0.8605256080627441 0.48733407258987427
vn -0.07538192719221115 -0.8904839754104614 0.4487268626689911
vn 0.8025929927825928 -0.5598071813583374 0.2060592919588089
vn 0.7672604918479919 -0.6087655425071716 0.2017817199230194
vn 0.7535102367401123 -0.6136606335639954 0.23588760197162628
vn 0.8559947609901428 -0.49057602882385254 0.16312000155448914
vn 0.8409187197685242 -0.5363460183143616 0.07203252613544464
vn 0.8418592214584351 -0.5230850577354431 0.1328723281621933
vn 0.8436187505722046 -0.523391604423523 0.11986933648586273
vn 0.8361430168151855 -0.3315393626689911 0.43697428703308105
vn 0.7503238916397095 -0.39183419942855835 0.5324283838272095
vn 0.8591486811637878 -0.2529835104942322 0.44481781125068665
vn 0.7564758062362671 -0.4527267813682556 0.4719987213611603
vn 0.6956049203872681 -0.6755862236022949 0.24437066912651062
vn 0.3658105432987213 -0.8868409991264343 0.28230419754981995
vn 0.40216147899627686 -0.8624380826950073 0.30735430121421814
vn 0.19091425836086273 -0.8993901014328003 0.3932546079158783
vn 0.25114962458610535 -0.8656790852546692 0.43303996324539185
vn 0.16686390340328217 -0.8739259839057922 0.456519216299057
vn 0.21653911471366882 -0.8567109704017639 0.46814218163490295
vn 0.5320791006088257 -0.524077296257019 0.6650074124336243
vn 0.4559604227542877 -0.75453120470047 0.4719987213611603
vn 0.16510382294654846 -0.8638929724693298 0.4758462607860565
vn 0.06033504381775856 -0.858022153377533 0.5100564956665039
vn 0.26130935549736023 -0.6677694320678711 0.6969945430755615
vn 0.12196668982505798 -0.7158346772193909 0.6875353455543518
vn 0.3489097058773041 -0.6470199823379517 0.677958071231842
vn 0.3208344578742981 -0.6711841225624084 0.6682642698287964
vn 0.350237637758255 -0.7272759675979614 0.590256929397583
vn 0.8379448056221008 -0.4961289167404175 0.22738653421401978
vn 0.6419764161109924 -0.756597101688385 0.1242060661315918
vn 0.7577873468399048 -0.6511806845664978 0.04149730131030083
vn 0.7680490612983704 -0.6400890946388245 0.01966099627315998
vn 0.6747279167175293 -0.7267871499061584 0.12854042649269104
vn 0.6990288496017456 -0.7056992053985596 0.11553031951189041
vn 0.44888612627983093 -0.8328056931495667 0.3239381015300751
vn 0.45440420508384705 -0.8448793888092041 0.28230419754981995
vn 0.23688951134681702 -0.8901576399803162 0.3892335295677185
vn 0.4617796540260315 -0.8526678681373596 0.24437066912651062
vn 0.25664734840393066 -0.8679760694503784 0.42514660954475403
vn 0.18728040158748627 -0.8738250732421875 0.4487268626689911
vn 0.1109824925661087 -0.9092094898223877 0.401274174451828
vn 0.4841735064983368 -0.7933483719825745 0.3690181374549866
vn 0.44278860092163086 -0.8524043560028076 0.2781098484992981
vn 0.7261618971824646 -0.6727990508079529 0.1415284425020218
vn 0.40141937136650085 -0.8988175988197327 0.1760382205247879
vn 0.6850594282150269 -0.7277500033378601 0.03276457265019417
vn 0.3508528172969818 -0.9333096146583557 0.0763898640871048
vn 0.6382905840873718 -0.7675347924232483 -0.058952588587999344
vn 0.6040026545524597 -0.7850837111473083 -0.1372016966342926
vn 0.7295162677764893 -0.6548279523849487 -0.1975002884864807
vn 0.8048956990242004 -0.5922535061836243 -0.03713129088282585
vn 0.7629163265228271 -0.6335898041725159 -0.12854042649269104
vn 0.06788601726293564 -0.9491705894470215 0.30735430121421814
vn -0.11845827102661133 -0.9250577092170715 0.36088213324546814
vn 0.018864398822188377 -0.9774478077888489 0.2103329300880432
vn -0.018878648057579994 -0.9926101565361023 0.11986933648586273
vn 0.31186988949775696 -0.9500620365142822 -0.010923261754214764
vn -0.04525691270828247 -0.9981130957603455 0.04149730131030083
vn 0.2775801718235016 -0.9569259285926819 -0.08510008454322815
vn 0.261231929063797 -0.9554755687713623 -0.1372016966342926
vn 0.572537362575531 -0.795735239982605 -0.1975002884864807
vn -0.1857868880033493 -0.964256227016449 0.18892620503902435
vn -0.15585139393806458 -0.9490435123443604 0.27391019463539124
vt 0.38673728704452515 0.03557984530925751
vt 0.3973357081413269 0.03926817700266838
vt 0.3777516782283783 0.0557643361389637
vt 0.3872748911380768 0.0624924972653389
vt 0.3656940460205078 0.07481395453214645
vt 0.37406525015830994 0.08458194881677628
vt 0.3587820529937744 0.1059013083577156
vt 0.36630845069885254 0.11802010238170624
vt 0.34895163774490356 0.1417713314294815
vt 0.3742188513278961 0.12912562489509583
vt 0.35601723194122314 0.15551136434078217
vt 0.3822060823440552 0.13925839960575104
vt 0.3633900582790375 0.16791388392448425
vt 0.3707628548145294 0.17897887527942657
vt 0.4079340994358063 0.04279438406229019
vt 0.39687490463256836 0.06889641284942627
vt 0.3826668858528137 0.09386356920003891
vt 0.3913452923297882 0.1023750975728035
vt 0.4001004993915558 0.11019760370254517
vt 0.39027008414268494 0.14829683303833008
vt 0.37798207998275757 0.1885036826133728
vt 0.40647491812705994 0.07485448569059372
vt 0.4160749316215515 0.08040724694728851
vt 0.4257517457008362 0.08563575893640518
vt 0.4399597644805908 0.052927158772945404
vt 0.4506349563598633 0.05653442442417145
vt 0.4186093211174011 0.04619899392127991
vt 0.42928454279899597 0.04952254518866539
vt 0.3761388659477234 0.031769923865795135
vt 0.3682284653186798 0.04875245317816734
vt 0.3656172454357147 0.027960000559687614
vt 0.3587052524089813 0.041659511625766754
vt 0.3573228418827057 0.06464064866304398
vt 0.34895163774490356 0.0543457455933094
vt 0.3444972336292267 0.0798398107290268
vt 0.3374316096305847 0.066261887550354
vt 0.35156282782554626 0.09309347718954086
vt 0.3425004184246063 0.12685588002204895
vt 0.33643320202827454 0.11104875802993774
vt 0.3306732177734375 0.09459313005208969
vt 0.32499000430107117 0.07789431512355804
vt 0.4724462032318115 0.06492436677217484
vt 0.4840430021286011 0.07007181644439697
vt 0.4545517563819885 0.10055120289325714
vt 0.464919775724411 0.1059013083577156
vt 0.43466055393218994 0.135286346077919
vt 0.44410696625709534 0.1409607082605362
vt 0.4221421182155609 0.1755337417125702
vt 0.43220293521881104 0.1818971186876297
vt 0.4092397093772888 0.2164701521396637
vt 0.4443373680114746 0.18899005651474
vt 0.4214509129524231 0.22384680807590485
vt 0.4580077826976776 0.19644778966903687
vt 0.43542852997779846 0.23142611980438232
vt 0.4505581557750702 0.23872171342372894
vt 0.4964078366756439 0.07611094415187836
vt 0.4762862026691437 0.11189990490674973
vt 0.4547053575515747 0.1470808982849121
vt 0.46699339151382446 0.15401172637939453
vt 0.4803566038608551 0.16138838231563568
vt 0.4725230038166046 0.20374338328838348
vt 0.46630218625068665 0.24520669877529144
vt 0.4888814091682434 0.11879019439220428
vt 0.5023982524871826 0.12628844380378723
vt 0.5163758397102356 0.13407042622566223
vt 0.5382638573646545 0.09945686161518097
vt 0.5522415041923523 0.10817104578018188
vt 0.5098478198051453 0.08316335827112198
vt 0.5239790678024292 0.09106691926717758
vt 0.39956289529800415 0.20982304215431213
vt 0.4134637117385864 0.16945406794548035
vt 0.40570691227912903 0.16321228444576263
vt 0.42598211765289307 0.12969306111335754
vt 0.3981036841869354 0.15632198750972748
vt 0.41753411293029785 0.12381605058908463
vt 0.40885570645332336 0.11733107268810272
vt 0.4352749288082123 0.09066161513328552
vt 0.39165249466896057 0.20333807170391083
vt 0.3846636712551117 0.1964072585105896
vt 0.4613869786262512 0.06050647422671318
vt 0.44479814171791077 0.09556587785482407
vt 0.7342577576637268 0.24686847627162933
vt 0.7430897355079651 0.2552989423274994
vt 0.7356401085853577 0.2667692303657532
vt 0.7445489168167114 0.2750781178474426
vt 0.737252950668335 0.28602150082588196
vt 0.7527665495872498 0.2829006314277649
vt 0.7456241250038147 0.2935197651386261
vt 0.7598321437835693 0.28954771161079407
vt 0.7528433799743652 0.29996421933174133
vt 0.758372962474823 0.3047468960285187
vt 0.7458545565605164 0.3102591037750244
vt 0.7514609694480896 0.31528496742248535
vt 0.7387889623641968 0.3205540180206299
vt 0.7446257472038269 0.32578253746032715
vt 0.7518449425697327 0.26397258043289185
vt 0.7599089741706848 0.2721598744392395
vt 0.7668209671974182 0.2790096402168274
vt 0.7652081847190857 0.2942493259906769
vt 0.7628273963928223 0.30835413932800293
vt 0.7562225461006165 0.31929755210876465
vt 0.7494641542434692 0.3303219974040985
vt 0.7719665765762329 0.28379231691360474
vt 0.7694321870803833 0.2976134121417999
vt 0.7732721567153931 0.30008581280708313
vt 0.7669745683670044 0.31127238273620605
vt 0.7772657871246338 0.30235555768013
vt 0.7714290022850037 0.3139474391937256
vt 0.7768049836158752 0.3168656826019287
vt 0.7655153870582581 0.32602569460868835
vt 0.7715826034545898 0.32943031191825867
vt 0.7596017718315125 0.3383471667766571
vt 0.7663601636886597 0.34227868914604187
vt 0.7760369777679443 0.28707531094551086
vt 0.779492974281311 0.28942611813545227
vt 0.7831025719642639 0.2914121448993683
vt 0.7820274233818054 0.3048684895038605
vt 0.7829489707946777 0.31990551948547363
vt 0.7784945964813232 0.3329159915447235
vt 0.7741169929504395 0.34621021151542664
vt 0.787403404712677 0.29368188977241516
vt 0.7874801754951477 0.3075435161590576
vt 0.7935473918914795 0.3102996349334717
vt 0.7897074222564697 0.3229858875274658
vt 0.8000754117965698 0.3129746913909912
vt 0.7969266176223755 0.3259446620941162
vt 0.8044530153274536 0.32874128222465515
vt 0.7940850257873535 0.3395631015300751
vt 0.8022258281707764 0.34260293841362
vt 0.7913970351219177 0.35350579023361206
vt 0.8000754117965698 0.3567888140678406
vt 0.7922418117523193 0.29607322812080383
vt 0.7976946234703064 0.29854562878608704
vt 0.803608238697052 0.3009369671344757
vt 0.8069874048233032 0.3154876232147217
vt 0.8125170469284058 0.3308083713054657
vt 0.8107506036758423 0.3448321521282196
vt 0.8092146515846252 0.359139621257782
vt 0.8099058270454407 0.30312564969062805
vt 0.8145138621330261 0.31739258766174316
vt 0.8228082656860352 0.3181626796722412
vt 0.821349024772644 0.3316595256328583
vt 0.8322546482086182 0.31743311882019043
vt 0.8314098715782166 0.33072730898857117
vt 0.8428530693054199 0.3274848163127899
vt 0.8307954668998718 0.3445079028606415
vt 0.8430066704750061 0.3408195674419403
vt 0.8303346633911133 0.35857218503952026
vt 0.8432371020317078 0.35435694456100464
vt 0.8168946504592896 0.3048279583454132
vt 0.8246514797210693 0.30551695823669434
vt 0.8334066867828369 0.3048684895038605
vt 0.8429298996925354 0.3146364688873291
vt 0.8551411032676697 0.32270216941833496
vt 0.8559858798980713 0.3353073298931122
vt 0.8569843173027039 0.348155677318573
vt 0.8433138728141785 0.3024771511554718
vt 0.8544498682022095 0.31046175956726074
vt 0.8665075302124023 0.30559802055358887
vt 0.8678131103515625 0.3170278072357178
vt 0.8787187337875366 0.3006127178668976
vt 0.8804083466529846 0.3112318515777588
vt 0.8923123478889465 0.3060033321380615
vt 0.882251501083374 0.3221752643585205
vt 0.8941555619239807 0.3160550594329834
vt 0.8841715455055237 0.33324024081230164
vt 0.8960755467414856 0.3262283504009247
vt 0.8541426658630371 0.2989104092121124
vt 0.8655090928077698 0.2946951687335968
vt 0.8772594928741455 0.2904393970966339
vt 0.8905459642410278 0.29615429043769836
vt 0.9032947421073914 0.30146387219429016
vt 0.9049075841903687 0.31070494651794434
vt 0.9065203666687012 0.32002711296081543
vt 0.8889331221580505 0.2866699993610382
vt 0.9016819596290588 0.2923443615436554
vt 0.911819577217102 0.2891829311847687
vt 0.9130483865737915 0.29769447445869446
vt 0.9204211831092834 0.28679159283638
vt 0.9213427901268005 0.2948167622089386
vt 0.9278708100318909 0.29299286007881165
vt 0.9221875667572021 0.30288246273994446
vt 0.9284083843231201 0.3008153736591339
vt 0.9230324029922485 0.3109886646270752
vt 0.9289459586143494 0.3085973262786865
vt 0.9002227783203125 0.2834680676460266
vt 0.9105139374732971 0.28083354234695435
vt 0.9193459749221802 0.27880698442459106
vt 0.92710280418396 0.28521087765693665
vt 0.9329395890235901 0.29197958111763
vt 0.9334003925323486 0.2996399700641632
vt 0.9337843656539917 0.3073408603668213
vt 0.9262579679489136 0.27738839387893677
vt 0.9324020147323608 0.28423815965652466
vt 0.9367027878761292 0.28375178575515747
vt 0.9371635913848877 0.29145267605781555
vt 0.9403892159461975 0.28354912996292114
vt 0.9406964182853699 0.2912905514240265
vt 0.9440755844116211 0.2911689579486847
vt 0.940850019454956 0.2990320026874542
vt 0.9440755844116211 0.2989509403705597
vt 0.9409267902374268 0.3067328929901123
vt 0.9439219832420349 0.30669236183166504
vt 0.9316340088844299 0.2765372395515442
vt 0.9360116124153137 0.27601033449172974
vt 0.9397748112678528 0.2758076786994934
vt 0.9439219832420349 0.28342753648757935
vt 0.9473780393600464 0.2911284267902374
vt 0.9471476078033447 0.2989104092121124
vt 0.9467636346817017 0.3066518306732178
vt 0.9434611797332764 0.2756860852241516
vt 0.9473780393600464 0.2833870053291321
vt 0.9507572054862976 0.2833870053291321
vt 0.9505268335342407 0.2911284267902374
vt 0.9540596008300781 0.28342753648757935
vt 0.9536756277084351 0.2911689579486847
vt 0.9469940066337585 0.27564555406570435
vt 0.9505268335342407 0.2756860852241516
vt 0.9539828300476074 0.2757266163825989
vt 0.7384817600250244 0.30397680401802063
vt 0.7299569249153137 0.29688385128974915
vt 0.72104811668396 0.28958824276924133
vt 0.7137520909309387 0.3009369671344757
vt 0.7049201130867004 0.2944925129413605
vt 0.7313393354415894 0.3143932819366455
vt 0.722737729549408 0.3077056407928467
vt 0.7606001496315002 0.3227832317352295
vt 0.7542257308959961 0.3344561755657196
vt 0.9373940229415894 0.299153596162796
vt 0.9376243948936462 0.3068544864654541
vt 0.914277195930481 0.3062465190887451
vt 0.9155059456825256 0.3148796558380127
vt 0.7860978245735168 0.3363206088542938
vt 0.7825649976730347 0.3499390482902527
vt 0.8693491220474243 0.3288223445415497
vt 0.8708851337432861 0.3408195674419403
vt 0.9529843926429749 0.2989104092121124
vt 0.9500660300254822 0.2989104092121124
vt 0.9521396160125732 0.3066518306732178
vt 0.9495283961296082 0.3066518306732178
vt 0.8201970458030701 0.3456427752971649
vt 0.8191986680030823 0.3599502444267273
vt 0.6367983818054199 0.17050787806510925
vt 0.6516976356506348 0.18246455490589142
vt 0.6218223571777344 0.19235414266586304
vt 0.6389487981796265 0.20179788768291473
vt 0.6083823442459106 0.2154163420200348
vt 0.6276592016220093 0.22222556173801422
vt 0.6173679828643799 0.24342332780361176
vt 0.6364144086837769 0.24735485017299652
vt 0.6283503770828247 0.2664855122566223
vt 0.6513136029243469 0.2509215772151947
vt 0.6444016098976135 0.26822835206985474
vt 0.662987232208252 0.2543667256832123
vt 0.656766414642334 0.270254909992218
vt 0.6664432287216187 0.2727273106575012
vt 0.6652144193649292 0.19320529699325562
vt 0.6543088555335999 0.2103499472141266
vt 0.6448624134063721 0.2285078763961792
vt 0.6586096286773682 0.23389852046966553
vt 0.6696688532829285 0.23868118226528168
vt 0.6725104451179504 0.2578524053096771
vt 0.6745072603225708 0.2757266163825989
vt 0.6668272614479065 0.21748341619968414
vt 0.6771184802055359 0.22352255880832672
vt 0.6859504580497742 0.22895371913909912
vt 0.694091260433197 0.215294748544693
vt 0.7018480896949768 0.22100962698459625
vt 0.676350474357605 0.20191948115825653
vt 0.685796856880188 0.20909348130226135
vt 0.6212847828865051 0.1581864207983017
vt 0.604158341884613 0.18266721069812775
vt 0.6061551570892334 0.1462702751159668
vt 0.5870319604873657 0.17326399683952332
vt 0.5715951323509216 0.164792999625206
vt 0.5523951053619385 0.19506973028182983
vt 0.5371118783950806 0.1888684630393982
vt 0.5340398550033569 0.22607602179050446
vt 0.5175278782844543 0.22145546972751617
vt 0.5161454677581787 0.25748762488365173
vt 0.4983278214931488 0.2543667256832123
vt 0.5884911417961121 0.20836392045021057
vt 0.5693679451942444 0.2014736384153366
vt 0.5525487065315247 0.23049390316009521
vt 0.536267101764679 0.25991949439048767
vt 0.5737455487251282 0.23491179943084717
vt 0.5595375299453735 0.2618649899959564
vt 0.5959407687187195 0.2392486184835434
vt 0.5839599370956421 0.26348623633384705
vt 0.6076143383979797 0.2649858593940735
vt 0.5921007394790649 0.13561059534549713
vt 0.557387113571167 0.15692995488643646
vt 0.5787375569343567 0.12592366337776184
vt 0.5656046867370605 0.1168852299451828
vt 0.5437934994697571 0.14939117431640625
vt 0.5302766561508179 0.14185239374637604
vt 0.5227502584457397 0.18262667953968048
vt 0.5086958408355713 0.17602011561393738
vt 0.4874221980571747 0.21055260300636292
vt 0.49441102147102356 0.16884610056877136
vt 0.5022446513175964 0.21638908982276917
vt 0.48196941614151 0.250354140996933
vt 0.6806512475013733 0.2616623342037201
vt 0.6788848638534546 0.24322067201137543
vt 0.6870256662368774 0.24776016175746918
vt 0.6940144896507263 0.23414170742034912
vt 0.6950128674507141 0.25262388586997986
vt 0.702001690864563 0.239491805434227
vt 0.7028464674949646 0.25793346762657166
vt 0.7099888920783997 0.2452472299337387
vt 0.718206524848938 0.25157007575035095
vt 0.7257329225540161 0.23945127427577972
vt 0.7096816897392273 0.22676505148410797
vt 0.7175921201705933 0.23284471035003662
vt 0.6884080767631531 0.26595860719680786
vt 0.6821104884147644 0.2793744206428528
vt 0.6960880756378174 0.27078181505203247
vt 0.7039216756820679 0.2762940526008606
vt 0.7109104990959167 0.2638915479183197
vt 0.7121393084526062 0.2825358510017395
vt 0.719358503818512 0.27057915925979614
vt 0.7282673120498657 0.2781990170478821
vt 0.7267313003540039 0.25866302847862244
vt 0.6969329118728638 0.28873708844184875
vt 0.6894832849502563 0.2837112545967102
s on
f 1/1/1 2/2/2 3/3/3
f 2/2/2 4/4/4 3/3/3
f 3/3/3 4/4/4 5/5/5
f 4/4/4 6/6/6 5/5/5
f 5/5/5 6/6/6 7/7/7
f 6/6/6 8/8/8 7/7/7
f 7/7/7 8/8/8 9/9/9
f 8/8/8 10/10/10 9/9/9
f 9/9/9 10/10/10 11/11/11
f 10/10/10 12/12/12 11/11/11
f 11/11/11 12/12/12 13/13/13
f 12/12/12 14/14/14 13/13/13
f 2/2/2 15/15/15 4/4/4
f 15/15/15 16/16/16 4/4/4
f 4/4/4 16/16/16 6/6/6
f 16/16/16 17/17/17 6/6/6
f 6/6/6 17/17/17 8/8/8
f 17/17/17 18/18/18 8/8/8
f 8/8/8 18/18/18 10/10/10
f 18/18/18 19/19/19 10/10/10
f 10/10/10 19/19/19 12/12/12
f 19/19/19 20/20/20 12/12/12
f 12/12/12 20/20/20 14/14/14
f 20/20/20 21/21/21 14/14/14
f 17/17/17 16/16/16 18/18/18
f 16/16/16 22/22/22 18/18/18
f 18/18/18 22/22/22 19/19/19
f 22/22/22 23/23/23 19/19/19
f 19/19/19 23/23/23 24/24/24
f 23/23/23 25/25/25 24/24/24
f 24/24/24 25/25/25 26/26/26
f 16/16/16 15/15/15 22/22/22
f 15/15/15 27/27/27 22/22/22
f 22/22/22 27/27/27 23/23/23
f 27/27/27 28/28/28 23/23/23
f 23/23/23 28/28/28 25/25/25
f 1/1/1 3/3/3 29/29/29
f 3/3/3 30/30/30 29/29/29
f 29/29/29 30/30/30 31/31/31
f 30/30/30 32/32/32 31/31/31
f 3/3/3 5/5/5 30/30/30
f 5/5/5 33/33/33 30/30/30
f 30/30/30 33/33/33 32/32/32
f 33/33/33 34/34/34 32/32/32
f 5/5/5 35/35/35 33/33/33
f 35/35/35 36/36/36 33/33/33
f 33/33/33 36/36/36 34/34/34
f 35/35/35 5/5/5 37/37/37
f 5/5/5 7/7/7 37/37/37
f 37/37/37 7/7/7 38/38/38
f 7/7/7 9/9/9 38/38/38
f 38/38/38 39/39/39 37/37/37
f 39/39/39 40/40/40 37/37/37
f 37/37/37 40/40/40 35/35/35
f 40/40/40 41/41/41 35/35/35
f 35/35/35 41/41/41 36/36/36
f 42/42/42 43/43/43 44/44/44
f 43/43/43 45/45/45 44/44/44
f 44/44/44 45/45/45 46/46/46
f 45/45/45 47/47/47 46/46/46
f 46/46/46 47/47/47 48/48/48
f 47/47/47 49/49/49 48/48/48
f 48/48/48 49/49/49 50/50/50
f 49/49/49 51/51/51 50/50/50
f 50/50/50 51/51/51 52/52/52
f 51/51/51 53/53/53 52/52/52
f 52/52/52 53/53/53 54/54/54
f 53/53/53 55/55/55 54/54/54
f 43/43/43 56/56/56 45/45/45
f 56/56/56 57/57/57 45/45/45
f 45/45/45 57/57/57 47/47/47
f 57/57/57 58/58/58 47/47/47
f 47/47/47 58/58/58 49/49/49
f 58/58/58 59/59/59 49/49/49
f 49/49/49 59/59/59 51/51/51
f 59/59/59 60/60/60 51/51/51
f 51/51/51 60/60/60 53/53/53
f 60/60/60 61/61/61 53/53/53
f 53/53/53 61/61/61 55/55/55
f 61/61/61 62/62/62 55/55/55
f 58/58/58 57/57/57 59/59/59
f 57/57/57 63/63/63 59/59/59
f 59/59/59 63/63/63 60/60/60
f 63/63/63 64/64/64 60/60/60
f 60/60/60 64/64/64 65/65/65
f 64/64/64 66/66/66 65/65/65
f 65/65/65 66/66/66 67/67/67
f 57/57/57 56/56/56 63/63/63
f 56/56/56 68/68/68 63/63/63
f 63/63/63 68/68/68 64/64/64
f 68/68/68 69/69/69 64/64/64
f 64/64/64 69/69/69 66/66/66
f 50/50/50 70/70/70 48/48/48
f 70/70/70 71/71/71 48/48/48
f 48/48/48 71/71/71 46/46/46
f 71/71/71 72/72/72 46/46/46
f 46/46/46 72/72/72 73/73/73
f 72/72/72 74/74/74 73/73/73
f 73/73/73 74/74/74 75/75/75
f 74/74/74 76/76/76 75/75/75
f 75/75/75 76/76/76 77/77/77
f 76/76/76 24/24/24 77/77/77
f 77/77/77 24/24/24 26/26/26
f 70/70/70 78/78/78 71/71/71
f 78/78/78 79/79/79 71/71/71
f 71/71/71 79/79/79 72/72/72
f 79/79/79 21/21/21 72/72/72
f 72/72/72 21/21/21 74/74/74
f 21/21/21 20/20/20 74/74/74
f 74/74/74 20/20/20 76/76/76
f 20/20/20 19/19/19 76/76/76
f 76/76/76 19/19/19 24/24/24
f 42/42/42 44/44/44 80/80/80
f 44/44/44 81/81/81 80/80/80
f 80/80/80 81/81/81 26/26/26
f 81/81/81 77/77/77 26/26/26
f 44/44/44 46/46/46 81/81/81
f 46/46/46 73/73/73 81/81/81
f 81/81/81 73/73/73 77/77/77
f 73/73/73 75/75/75 77/77/77
f 82/82/82 83/83/83 84/84/84
f 83/83/83 85/85/85 84/84/84
f 84/84/84 85/85/85 86/86/86
f 85/85/85 87/87/87 86/86/86
f 86/86/86 87/87/87 88/88/88
f 87/87/87 89/89/89 88/88/88
f 88/88/88 89/89/89 90/90/90
f 89/89/89 91/91/91 90/90/90
f 90/90/90 91/91/91 92/92/92
f 91/91/91 93/93/93 92/92/92
f 92/92/92 93/93/93 94/94/94
f 93/93/93 95/95/95 94/94/94
f 83/83/83 96/96/96 85/85/85
f 96/96/96 97/97/97 85/85/85
f 85/85/85 97/97/97 87/87/87
f 97/97/97 98/98/98 87/87/87
f 87/87/87 98/98/98 89/89/89
f 98/98/98 99/99/99 89/89/89
f 89/89/89 99/99/99 91/91/91
f 99/99/99 100/100/100 91/91/91
f 91/91/91 100/100/100 93/93/93
f 100/100/100 101/101/101 93/93/93
f 93/93/93 101/101/101 95/95/95
f 101/101/101 102/102/102 95/95/95
f 98/98/98 103/103/103 99/99/99
f 103/103/103 104/104/104 99/99/99
f 99/99/99 104/104/104 100/100/100
f 104/104/104 105/105/105 100/100/100
f 100/100/100 105/105/105 106/106/106
f 105/105/105 107/107/107 106/106/106
f 106/106/106 107/107/107 108/108/108
f 107/107/107 109/109/109 108/108/108
f 108/108/108 109/109/109 110/110/110
f 109/109/109 111/111/111 110/110/110
f 110/110/110 111/111/111 112/112/112
f 111/111/111 113/113/113 112/112/112
f 103/103/103 114/114/114 104/104/104
f 114/114/114 115/115/115 104/104/104
f 104/104/104 115/115/115 105/105/105
f 115/115/115 116/116/116 105/105/105
f 105/105/105 116/116/116 107/107/107
f 116/116/116 117/117/117 107/107/107
f 107/107/107 117/117/117 109/109/109
f 117/117/117 118/118/118 109/109/109
f 109/109/109 118/118/118 111/111/111
f 118/118/118 119/119/119 111/111/111
f 111/111/111 119/119/119 113/113/113
f 119/119/119 120/120/120 113/113/113
f 116/116/116 121/121/121 117/117/117
f 121/121/121 122/122/122 117/117/117
f 117/117/117 122/122/122 118/118/118
f 122/122/122 123/123/123 118/118/118
f 118/118/118 123/123/123 124/124/124
f 123/123/123 125/125/125 124/124/124
f 124/124/124 125/125/125 126/126/126
f 125/125/125 127/127/127 126/126/126
f 126/126/126 127/127/127 128/128/128
f 127/127/127 129/129/129 128/128/128
f 128/128/128 129/129/129 130/130/130
f 129/129/129 131/131/131 130/130/130
f 121/121/121 132/132/132 122/122/122
f 132/132/132 133/133/133 122/122/122
f 122/122/122 133/133/133 123/123/123
f 133/133/133 134/134/134 123/123/123
f 123/123/123 134/134/134 125/125/125
f 134/134/134 135/135/135 125/125/125
f 125/125/125 135/135/135 127/127/127
f 135/135/135 136/136/136 127/127/127
f 127/127/127 136/136/136 129/129/129
f 136/136/136 137/137/137 129/129/129
f 129/129/129 137/137/137 131/131/131
f 137/137/137 138/138/138 131/131/131
f 134/134/134 139/139/139 135/135/135
f 139/139/139 140/140/140 135/135/135
f 135/135/135 140/140/140 136/136/136
f 140/140/140 141/141/141 136/136/136
f 136/136/136 141/141/141 142/142/142
f 141/141/141 143/143/143 142/142/142
f 142/142/142 143/143/143 144/144/144
f 143/143/143 145/145/145 144/144/144
f 144/144/144 145/145/145 146/146/146
f 145/145/145 147/147/147 146/146/146
f 146/146/146 147/147/147 148/148/148
f 147/147/147 149/149/149 148/148/148
f 139/139/139 150/150/150 140/140/140
f 150/150/150 151/151/151 140/140/140
f 140/140/140 151/151/151 141/141/141
f 151/151/151 152/152/152 141/141/141
f 141/141/141 152/152/152 143/143/143
f 152/152/152 153/153/153 143/143/143
f 143/143/143 153/153/153 145/145/145
f 153/153/153 154/154/154 145/145/145
f 145/145/145 154/154/154 147/147/147
f 154/154/154 155/155/155 147/147/147
f 147/147/147 155/155/155 149/149/149
f 155/155/155 156/156/156 149/149/149
f 152/152/152 157/157/157 153/153/153
f 157/157/157 158/158/158 153/153/153
f 153/153/153 158/158/158 154/154/154
f 158/158/158 159/159/159 154/154/154
f 154/154/154 159/159/159 160/160/160
f 159/159/159 161/161/161 160/160/160
f 160/160/160 161/161/161 162/162/162
f 161/161/161 163/163/163 162/162/162
f 162/162/162 163/163/163 164/164/164
f 163/163/163 165/165/165 164/164/164
f 164/164/164 165/165/165 166/166/166
f 165/165/165 167/167/167 166/166/166
f 157/157/157 168/168/168 158/158/158
f 168/168/168 169/169/169 158/158/158
f 158/158/158 169/169/169 159/159/159
f 169/169/169 170/170/170 159/159/159
f 159/159/159 170/170/170 161/161/161
f 170/170/170 171/171/171 161/161/161
f 161/161/161 171/171/171 163/163/163
f 171/171/171 172/172/172 163/163/163
f 163/163/163 172/172/172 165/165/165
f 172/172/172 173/173/173 165/165/165
f 165/165/165 173/173/173 167/167/167
f 173/173/173 174/174/174 167/167/167
f 170/170/170 175/175/175 171/171/171
f 175/175/175 176/176/176 171/171/171
f 171/171/171 176/176/176 172/172/172
f 176/176/176 177/177/177 172/172/172
f 172/172/172 177/177/177 178/178/178
f 177/177/177 179/179/179 178/178/178
f 178/178/178 179/179/179 180/180/180
f 179/179/179 181/181/181 180/180/180
f 180/180/180 181/181/181 182/182/182
f 181/181/181 183/183/183 182/182/182
f 182/182/182 183/183/183 184/184/184
f 183/183/183 185/185/185 184/184/184
f 175/175/175 186/186/186 176/176/176
f 186/186/186 187/187/187 176/176/176
f 176/176/176 187/187/187 177/177/177
f 187/187/187 188/188/188 177/177/177
f 177/177/177 188/188/188 179/179/179
f 188/188/188 189/189/189 179/179/179
f 179/179/179 189/189/189 181/181/181
f 189/189/189 190/190/190 181/181/181
f 181/181/181 190/190/190 183/183/183
f 190/190/190 191/191/191 183/183/183
f 183/183/183 191/191/191 185/185/185
f 191/191/191 192/192/192 185/185/185
f 188/188/188 193/193/193 189/189/189
f 193/193/193 194/194/194 189/189/189
f 189/189/189 194/194/194 190/190/190
f 194/194/194 195/195/195 190/190/190
f 190/190/190 195/195/195 196/196/196
f 195/195/195 197/197/197 196/196/196
f 196/196/196 197/197/197 198/198/198
f 197/197/197 199/199/199 198/198/198
f 198/198/198 199/199/199 200/200/200
f 199/199/199 201/201/201 200/200/200
f 200/200/200 201/201/201 202/202/202
f 201/201/201 203/203/203 202/202/202
f 193/193/193 204/204/204 194/194/194
f 204/204/204 205/205/205 194/194/194
f 194/194/194 205/205/205 195/195/195
f 205/205/205 206/206/206 195/195/195
f 195/195/195 206/206/206 197/197/197
f 206/206/206 207/207/207 197/197/197
f 197/197/197 207/207/207 199/199/199
f 207/207/207 208/208/208 199/199/199
f 199/199/199 208/208/208 201/201/201
f 208/208/208 209/209/209 201/201/201
f 201/201/201 209/209/209 203/203/203
f 209/209/209 210/210/210 203/203/203
f 206/206/206 211/211/211 207/207/207
f 211/211/211 212/212/212 207/207/207
f 207/207/207 212/212/212 208/208/208
f 212/212/212 213/213/213 208/208/208
f 208/208/208 213/213/213 214/214/214
f 213/213/213 215/215/215 214/214/214
f 214/214/214 215/215/215 216/216/216
f 211/211/211 217/217/217 212/212/212
f 217/217/217 218/218/218 212/212/212
f 212/212/212 218/218/218 213/213/213
f 218/218/218 219/219/219 213/213/213
f 213/213/213 219/219/219 215/215/215
f 90/90/90 92/92/92 88/88/88
f 92/92/92 220/220/220 88/88/88
f 88/88/88 220/220/220 86/86/86
f 220/220/220 221/221/221 86/86/86
f 86/86/86 221/221/221 222/222/222
f 221/221/221 223/223/223 222/222/222
f 222/222/222 223/223/223 224/224/224
f 92/92/92 94/94/94 220/220/220
f 94/94/94 225/225/225 220/220/220
f 220/220/220 225/225/225 221/221/221
f 225/225/225 226/226/226 221/221/221
f 221/221/221 226/226/226 223/223/223
f 108/108/108 110/110/110 106/106/106
f 110/110/110 227/227/227 106/106/106
f 106/106/106 227/227/227 100/100/100
f 227/227/227 101/101/101 100/100/100
f 110/110/110 112/112/112 227/227/227
f 112/112/112 228/228/228 227/227/227
f 227/227/227 228/228/228 101/101/101
f 228/228/228 102/102/102 101/101/101
f 198/198/198 200/200/200 196/196/196
f 200/200/200 229/229/229 196/196/196
f 196/196/196 229/229/229 190/190/190
f 229/229/229 191/191/191 190/190/190
f 200/200/200 202/202/202 229/229/229
f 202/202/202 230/230/230 229/229/229
f 229/229/229 230/230/230 191/191/191
f 230/230/230 192/192/192 191/191/191
f 180/180/180 182/182/182 178/178/178
f 182/182/182 231/231/231 178/178/178
f 178/178/178 231/231/231 172/172/172
f 231/231/231 173/173/173 172/172/172
f 182/182/182 184/184/184 231/231/231
f 184/184/184 232/232/232 231/231/231
f 231/231/231 232/232/232 173/173/173
f 232/232/232 174/174/174 173/173/173
f 126/126/126 128/128/128 124/124/124
f 128/128/128 233/233/233 124/124/124
f 124/124/124 233/233/233 118/118/118
f 233/233/233 119/119/119 118/118/118
f 128/128/128 130/130/130 233/233/233
f 130/130/130 234/234/234 233/233/233
f 233/233/233 234/234/234 119/119/119
f 234/234/234 120/120/120 119/119/119
f 162/162/162 164/164/164 160/160/160
f 164/164/164 235/235/235 160/160/160
f 160/160/160 235/235/235 154/154/154
f 235/235/235 155/155/155 154/154/154
f 164/164/164 166/166/166 235/235/235
f 166/166/166 236/236/236 235/235/235
f 235/235/235 236/236/236 155/155/155
f 236/236/236 156/156/156 155/155/155
f 216/216/216 237/237/237 214/214/214
f 237/237/237 238/238/238 214/214/214
f 214/214/214 238/238/238 208/208/208
f 238/238/238 209/209/209 208/208/208
f 237/237/237 239/239/239 238/238/238
f 239/239/239 240/240/240 238/238/238
f 238/238/238 240/240/240 209/209/209
f 240/240/240 210/210/210 209/209/209
f 144/144/144 146/146/146 142/142/142
f 146/146/146 241/241/241 142/142/142
f 142/142/142 241/241/241 136/136/136
f 241/241/241 137/137/137 136/136/136
f 146/146/146 148/148/148 241/241/241
f 148/148/148 242/242/242 241/241/241
f 241/241/241 242/242/242 137/137/137
f 242/242/242 138/138/138 137/137/137
f 243/243/243 244/244/244 245/245/245
f 244/244/244 246/246/246 245/245/245
f 245/245/245 246/246/246 247/247/247
f 246/246/246 248/248/248 247/247/247
f 247/247/247 248/248/248 249/249/249
f 248/248/248 250/250/250 249/249/249
f 249/249/249 250/250/250 251/251/251
f 250/250/250 252/252/252 251/251/251
f 251/251/251 252/252/252 253/253/253
f 252/252/252 254/254/254 253/253/253
f 253/253/253 254/254/254 255/255/255
f 254/254/254 256/256/256 255/255/255
f 244/244/244 257/257/257 246/246/246
f 257/257/257 258/258/258 246/246/246
f 246/246/246 258/258/258 248/248/248
f 258/258/258 259/259/259 248/248/248
f 248/248/248 259/259/259 250/250/250
f 259/259/259 260/260/260 250/250/250
f 250/250/250 260/260/260 252/252/252
f 260/260/260 261/261/261 252/252/252
f 252/252/252 261/261/261 254/254/254
f 261/261/261 262/262/262 254/254/254
f 254/254/254 262/262/262 256/256/256
f 262/262/262 263/263/263 256/256/256
f 259/259/259 258/258/258 260/260/260
f 258/258/258 264/264/264 260/260/260
f 260/260/260 264/264/264 261/261/261
f 264/264/264 265/265/265 261/261/261
f 261/261/261 265/265/265 266/266/266
f 265/265/265 267/267/267 266/266/266
f 266/266/266 267/267/267 268/268/268
f 258/258/258 257/257/257 264/264/264
f 257/257/257 269/269/269 264/264/264
f 264/264/264 269/269/269 265/265/265
f 269/269/269 270/270/270 265/265/265
f 265/265/265 270/270/270 267/267/267
f 243/243/243 245/245/245 271/271/271
f 245/245/245 272/272/272 271/271/271
f 271/271/271 272/272/272 273/273/273
f 272/272/272 274/274/274 273/273/273
f 273/273/273 274/274/274 275/275/275
f 274/274/274 276/276/276 275/275/275
f 275/275/275 276/276/276 277/277/277
f 276/276/276 278/278/278 277/277/277
f 277/277/277 278/278/278 279/279/279
f 278/278/278 280/280/280 279/279/279
f 279/279/279 280/280/280 281/281/281
f 245/245/245 247/247/247 272/272/272
f 247/247/247 282/282/282 272/272/272
f 272/272/272 282/282/282 274/274/274
f 282/282/282 283/283/283 274/274/274
f 274/274/274 283/283/283 276/276/276
f 283/283/283 284/284/284 276/276/276
f 276/276/276 284/284/284 278/278/278
f 284/284/284 285/285/285 278/278/278
f 278/278/278 285/285/285 280/280/280
f 283/283/283 282/282/282 284/284/284
f 282/282/282 286/286/286 284/284/284
f 284/284/284 286/286/286 285/285/285
f 286/286/286 287/287/287 285/285/285
f 282/282/282 247/247/247 286/286/286
f 247/247/247 288/288/288 286/286/286
f 286/286/286 288/288/288 287/287/287
f 288/288/288 289/289/289 287/287/287
f 289/289/289 288/288/288 290/290/290
f 288/288/288 249/249/249 290/290/290
f 290/290/290 249/249/249 251/251/251
f 273/273/273 275/275/275 291/291/291
f 275/275/275 292/292/292 291/291/291
f 291/291/291 292/292/292 293/293/293
f 292/292/292 294/294/294 293/293/293
f 275/275/275 277/277/277 292/292/292
f 277/277/277 295/295/295 292/292/292
f 292/292/292 295/295/295 294/294/294
f 295/295/295 67/67/67 294/294/294
f 67/67/67 295/295/295 296/296/296
f 295/295/295 297/297/297 296/296/296
f 296/296/296 297/297/297 298/298/298
f 297/297/297 299/299/299 298/298/298
f 298/298/298 299/299/299 300/300/300
f 299/299/299 61/61/61 300/300/300
f 300/300/300 61/61/61 60/60/60
f 295/295/295 277/277/277 297/297/297
f 277/277/277 301/301/301 297/297/297
f 297/297/297 301/301/301 299/299/299
f 301/301/301 62/62/62 299/299/299
f 299/299/299 62/62/62 61/61/61
f 62/62/62 301/301/301 302/302/302
f 301/301/301 279/279/279 302/302/302
f 302/302/302 279/279/279 281/281/281
f 298/298/298 300/300/300 296/296/296
f 300/300/300 65/65/65 296/296/296
f 296/296/296 65/65/65 67/67/67
f 263/263/263 262/262/262 303/303/303
f 262/262/262 304/304/304 303/303/303
f 303/303/303 304/304/304 305/305/305
f 304/304/304 306/306/306 305/305/305
f 305/305/305 306/306/306 307/307/307
f 306/306/306 308/308/308 307/307/307
f 307/307/307 308/308/308 309/309/309
f 308/308/308 310/310/310 309/309/309
f 309/309/309 310/310/310 311/311/311
f 310/310/310 312/312/312 311/311/311
f 311/311/311 312/312/312 82/82/82
f 262/262/262 261/261/261 304/304/304
f 261/261/261 266/266/266 304/304/304
f 304/304/304 266/266/266 306/306/306
f 266/266/266 268/268/268 306/306/306
f 306/306/306 268/268/268 308/308/308
f 268/268/268 313/313/313 308/308/308
f 308/308/308 313/313/313 310/310/310
f 313/313/313 314/314/314 310/310/310
f 310/310/310 314/314/314 312/312/312
f 305/305/305 307/307/307 303/303/303
f 307/307/307 315/315/315 303/303/303
f 303/303/303 315/315/315 263/263/263
f 315/315/315 316/316/316 263/263/263
f 316/316/316 315/315/315 317/317/317
f 315/315/315 309/309/309 317/317/317
f 317/317/317 309/309/309 318/318/318
f 309/309/309 319/319/319 318/318/318
f 318/318/318 319/319/319 320/320/320
f 319/319/319 321/321/321 320/320/320
f 320/320/320 321/321/321 322/322/322
f 321/321/321 323/323/323 322/322/322
f 322/322/322 323/323/323 84/84/84
f 323/323/323 82/82/82 84/84/84
f 84/84/84 86/86/86 322/322/322
f 86/86/86 222/222/222 322/322/322
f 322/322/322 222/222/222 320/320/320
f 222/222/222 224/224/224 320/320/320
f 320/320/320 224/224/224 318/318/318
f 224/224/224 324/324/324 318/318/318
f 318/318/318 324/324/324 317/317/317
f 324/324/324 325/325/325 317/317/317
f 317/317/317 325/325/325 316/316/316
f 309/309/309 311/311/311 319/319/319
f 311/311/311 323/323/323 319/319/319
f 319/319/319 323/323/323 321/321/321
f 60/60/60 65/65/65 300/300/300
f 277/277/277 279/279/279 301/301/301
f 247/247/247 249/249/249 288/288/288
f 309/309/309 315/315/315 307/307/307
f 311/311/311 82/82/82 323/323/323

