# Exported by Sketchfab Model Ripper robust edition
o model_17
v -155.75181579589844 57.65427780151367 63.415523529052734
v -155.75181579589844 62.12297821044922 36.464576721191406
v 70.427734375 77.04873657226562 66.63129425048828
v 70.427734375 81.51744079589844 39.68035125732422
v 90.08699798583984 -146.08480834960938 29.633970260620117
v 90.08699798583984 -141.61611938476562 2.683025360107422
v -155.59701538085938 61.30300521850586 30.52225685119629
v 68.80158996582031 80.54475402832031 33.71270751953125
v 88.3060531616211 -140.83184814453125 -2.9932994842529297
v -155.28741455078125 58.65399932861328 24.723308563232422
v 65.54930114746094 77.51824951171875 28.29781150817871
v 84.74417114257812 -140.27235412597656 -8.26025390625
v -154.82302856445312 54.103885650634766 19.502429962158203
v 60.67087173461914 72.3658447265625 23.87035369873047
v 79.4013442993164 -140.00973510742188 -12.683143615722656
v -154.20384216308594 47.94096755981445 13.120847702026367
v 54.166297912597656 65.44792938232422 18.256874084472656
v 72.277587890625 -139.75567626953125 -18.00074005126953
v -153.4298553466797 39.804866790771484 7.752026557922363
v 46.03557586669922 56.54826354980469 12.76144790649414
v 63.37287902832031 -139.8705596923828 -22.039579391479492
v -152.50106811523438 29.695573806762695 3.395965337753296
v 36.278709411621094 45.81100082397461 6.5146894454956055
v 52.68722915649414 -140.3543701171875 -24.799659729003906
v -151.57228088378906 19.37006378173828 0.3439830243587494
v 26.5218505859375 34.641292572021484 2.8760881423950195
v 42.001583099365234 -141.05442810058594 -26.255664825439453
v -136.09254455566406 -156.32565307617188 -28.787769317626953
vn 0.0007628145394846797 -0.008660008199512959 -0.0014232497196644545
vn 0.000769164296798408 -0.008693058043718338 -0.0004965441767126322
vn -0.005666312761604786 -0.006656275130808353 -0.0010910134296864271
vn -0.0055688489228487015 -0.0066901263780891895 0.00005949948899797164
vn -0.00877619069069624 -0.0007545823464170098 -0.00011246185749769211
vn -0.008661481551826 -0.0008622411405667663 0.0008018729276955128
vn 0.0006586836534552276 -0.0077913315035402775 0.0018348433077335358
vn -0.004519052337855101 -0.005916202906519175 0.002478715730831027
vn -0.007384775672107935 -0.001170701114460826 0.002932600909844041
vn 0.0004380661412142217 -0.005562111269682646 0.00390526931732893
vn -0.002756922272965312 -0.004042070358991623 0.004393870942294598
vn -0.004846880212426186 -0.0012274847831577063 0.004623987711966038
vn 0.00028195022605359554 -0.004248972050845623 0.004626058973371983
vn -0.0016652317717671394 -0.0028366404585540295 0.00506816478446126
vn -0.003430623561143875 -0.0011871609603986144 0.005133734084665775
vn 0.00020942026458214968 -0.0036398149095475674 0.004888636525720358
vn -0.0014494787901639938 -0.002642989857122302 0.005156155209988356
vn -0.0027819680981338024 -0.0011902883416041732 0.005294789094477892
vn 0.0000989973486866802 -0.0029740016907453537 0.0051327296532690525
vn -0.001014948938973248 -0.0021488897036761045 0.005338733550161123
vn -0.0020857008639723063 -0.0011194718535989523 0.005440226756036282
vn 0.00011620191799011081 -0.00224270299077034 0.005352839361876249
vn -0.0007776434067636728 -0.0018142365152016282 0.005438428837805986
vn -0.0013369097141548991 -0.001038440503180027 0.00555251631885767
vn 0.00005277245145407505 -0.0013479138724505901 0.005562114994972944
vn -0.00030308932764455676 -0.0012770019238814712 0.005572601221501827
vn -0.0004176091169938445 -0.0010015246225520968 0.0056195491924881935
vn -4.190837676887327e-10 -0.0009347121231257915 0.00563731649890542
s on
f 1//1 2//2 3//3
f 2//2 4//4 3//3
f 3//3 4//4 5//5
f 4//4 6//6 5//5
f 2//2 7//7 4//4
f 7//7 8//8 4//4
f 4//4 8//8 6//6
f 8//8 9//9 6//6
f 7//7 10//10 8//8
f 10//10 11//11 8//8
f 8//8 11//11 9//9
f 11//11 12//12 9//9
f 10//10 13//13 11//11
f 13//13 14//14 11//11
f 11//11 14//14 12//12
f 14//14 15//15 12//12
f 13//13 16//16 14//14
f 16//16 17//17 14//14
f 14//14 17//17 15//15
f 17//17 18//18 15//15
f 16//16 19//19 17//17
f 19//19 20//20 17//17
f 17//17 20//20 18//18
f 20//20 21//21 18//18
f 19//19 22//22 20//20
f 22//22 23//23 20//20
f 20//20 23//23 21//21
f 23//23 24//24 21//21
f 22//22 25//25 23//23
f 25//25 26//26 23//23
f 23//23 26//26 24//24
f 26//26 27//27 24//24
f 27//27 26//26 28//28
f 26//26 25//25 28//28

