# Exported by Sketchfab Model Ripper robust edition
o model_3
v 9606.541015625 2913.66162109375 16629.69921875
v 9724.6748046875 2879.364501953125 16629.69921875
v 9606.541015625 2913.66162109375 16851.244140625
v 9724.6748046875 2879.364501953125 16851.244140625
v 9812.3232421875 2791.716064453125 16629.69921875
v 9846.6201171875 2669.7705078125 16629.69921875
v 9812.3232421875 2791.716064453125 16851.244140625
v 9846.6201171875 2669.7705078125 16851.244140625
v 9724.6748046875 2463.987060546875 16629.69921875
v 9606.541015625 2429.68994140625 16629.69921875
v 9724.6748046875 2463.987060546875 16851.244140625
v 9606.541015625 2429.68994140625 16851.244140625
v 9362.650390625 2669.7705078125 16851.244140625
v 9396.947265625 2551.635498046875 16851.244140625
v 9362.650390625 2669.7705078125 16629.69921875
v 9396.947265625 2551.635498046875 16629.69921875
v 9396.947265625 2791.716064453125 16851.244140625
v 9362.650390625 2669.7705078125 16851.244140625
v 9396.947265625 2791.716064453125 16629.69921875
v 9362.650390625 2669.7705078125 16629.69921875
v 9724.6748046875 2463.987060546875 16851.244140625
v 9812.3232421875 2551.635498046875 16851.244140625
v 9724.6748046875 2463.987060546875 16629.69921875
v 9812.3232421875 2551.635498046875 16629.69921875
v 9606.541015625 2913.66162109375 16851.244140625
v 9484.595703125 2879.364501953125 16851.244140625
v 9606.541015625 2913.66162109375 16629.69921875
v 9484.595703125 2879.364501953125 16629.69921875
v 9484.595703125 2463.987060546875 16851.244140625
v 9606.541015625 2429.68994140625 16851.244140625
v 9484.595703125 2463.987060546875 16629.69921875
v 9606.541015625 2429.68994140625 16629.69921875
v 9812.3232421875 2791.716064453125 16851.244140625
v 9724.6748046875 2879.364501953125 16851.244140625
v 9812.3232421875 2791.716064453125 16629.69921875
v 9724.6748046875 2879.364501953125 16629.69921875
v 9812.3232421875 2551.635498046875 16851.244140625
v 9846.6201171875 2669.7705078125 16851.244140625
v 9812.3232421875 2551.635498046875 16629.69921875
v 9846.6201171875 2669.7705078125 16629.69921875
v 9484.595703125 2463.987060546875 16629.69921875
v 9396.947265625 2551.635498046875 16629.69921875
v 9484.595703125 2463.987060546875 16851.244140625
v 9396.947265625 2551.635498046875 16851.244140625
v 9484.595703125 2879.364501953125 16851.244140625
v 9396.947265625 2791.716064453125 16851.244140625
v 9484.595703125 2879.364501953125 16629.69921875
v 9396.947265625 2791.716064453125 16629.69921875
v 9724.6748046875 2879.364501953125 16629.69921875
v 9606.541015625 2669.7705078125 16629.69921875
v 9812.3232421875 2791.716064453125 16629.69921875
v 9606.541015625 2913.66162109375 16629.69921875
v 9606.541015625 2669.7705078125 16629.69921875
v 9724.6748046875 2879.364501953125 16629.69921875
v 9484.595703125 2879.364501953125 16629.69921875
v 9606.541015625 2669.7705078125 16629.69921875
v 9606.541015625 2913.66162109375 16629.69921875
v 9396.947265625 2791.716064453125 16629.69921875
v 9606.541015625 2669.7705078125 16629.69921875
v 9484.595703125 2879.364501953125 16629.69921875
v 9362.650390625 2669.7705078125 16629.69921875
v 9606.541015625 2669.7705078125 16629.69921875
v 9396.947265625 2791.716064453125 16629.69921875
v 9396.947265625 2551.635498046875 16629.69921875
v 9606.541015625 2669.7705078125 16629.69921875
v 9362.650390625 2669.7705078125 16629.69921875
v 9484.595703125 2463.987060546875 16629.69921875
v 9606.541015625 2669.7705078125 16629.69921875
v 9396.947265625 2551.635498046875 16629.69921875
v 9606.541015625 2429.68994140625 16629.69921875
v 9606.541015625 2669.7705078125 16629.69921875
v 9484.595703125 2463.987060546875 16629.69921875
v 9724.6748046875 2463.987060546875 16629.69921875
v 9606.541015625 2669.7705078125 16629.69921875
v 9606.541015625 2429.68994140625 16629.69921875
v 9812.3232421875 2551.635498046875 16629.69921875
v 9606.541015625 2669.7705078125 16629.69921875
v 9724.6748046875 2463.987060546875 16629.69921875
v 9846.6201171875 2669.7705078125 16629.69921875
v 9606.541015625 2669.7705078125 16629.69921875
v 9812.3232421875 2551.635498046875 16629.69921875
v 9812.3232421875 2791.716064453125 16629.69921875
v 9606.541015625 2669.7705078125 16629.69921875
v 9846.6201171875 2669.7705078125 16629.69921875
v 3193.46044921875 2913.66162109375 16629.69921875
v 3315.406005859375 2879.364501953125 16629.69921875
v 3193.46044921875 2913.66162109375 16851.244140625
v 3315.406005859375 2879.364501953125 16851.244140625
v 3403.054443359375 2791.716064453125 16629.69921875
v 3437.3515625 2669.7705078125 16629.69921875
v 3403.054443359375 2791.716064453125 16851.244140625
v 3437.3515625 2669.7705078125 16851.244140625
v 3315.406005859375 2463.987060546875 16629.69921875
v 3193.46044921875 2429.68994140625 16629.69921875
v 3315.406005859375 2463.987060546875 16851.244140625
v 3193.46044921875 2429.68994140625 16851.244140625
v 2953.380126953125 2669.7705078125 16851.244140625
v 2987.67724609375 2551.635498046875 16851.244140625
v 2953.380126953125 2669.7705078125 16629.69921875
v 2987.67724609375 2551.635498046875 16629.69921875
v 2987.67724609375 2791.716064453125 16851.244140625
v 2953.380126953125 2669.7705078125 16851.244140625
v 2987.67724609375 2791.716064453125 16629.69921875
v 2953.380126953125 2669.7705078125 16629.69921875
v 3315.406005859375 2463.987060546875 16851.244140625
v 3403.054443359375 2551.635498046875 16851.244140625
v 3315.406005859375 2463.987060546875 16629.69921875
v 3403.054443359375 2551.635498046875 16629.69921875
v 3193.46044921875 2913.66162109375 16851.244140625
v 3075.32568359375 2879.364501953125 16851.244140625
v 3193.46044921875 2913.66162109375 16629.69921875
v 3075.32568359375 2879.364501953125 16629.69921875
v 3075.32568359375 2463.987060546875 16851.244140625
v 3193.46044921875 2429.68994140625 16851.244140625
v 3075.32568359375 2463.987060546875 16629.69921875
v 3193.46044921875 2429.68994140625 16629.69921875
v 3403.054443359375 2791.716064453125 16851.244140625
v 3315.406005859375 2879.364501953125 16851.244140625
v 3403.054443359375 2791.716064453125 16629.69921875
v 3315.406005859375 2879.364501953125 16629.69921875
v 3403.054443359375 2551.635498046875 16851.244140625
v 3437.3515625 2669.7705078125 16851.244140625
v 3403.054443359375 2551.635498046875 16629.69921875
v 3437.3515625 2669.7705078125 16629.69921875
v 3075.32568359375 2463.987060546875 16629.69921875
v 2987.67724609375 2551.635498046875 16629.69921875
v 3075.32568359375 2463.987060546875 16851.244140625
v 2987.67724609375 2551.635498046875 16851.244140625
v 3075.32568359375 2879.364501953125 16851.244140625
v 2987.67724609375 2791.716064453125 16851.244140625
v 3075.32568359375 2879.364501953125 16629.69921875
v 2987.67724609375 2791.716064453125 16629.69921875
v 3315.406005859375 2879.364501953125 16629.69921875
v 3193.46044921875 2669.7705078125 16629.69921875
v 3403.054443359375 2791.716064453125 16629.69921875
v 3193.46044921875 2913.66162109375 16629.69921875
v 3193.46044921875 2669.7705078125 16629.69921875
v 3315.406005859375 2879.364501953125 16629.69921875
v 3075.32568359375 2879.364501953125 16629.69921875
v 3193.46044921875 2669.7705078125 16629.69921875
v 3193.46044921875 2913.66162109375 16629.69921875
v 2987.67724609375 2791.716064453125 16629.69921875
v 3193.46044921875 2669.7705078125 16629.69921875
v 3075.32568359375 2879.364501953125 16629.69921875
v 2953.380126953125 2669.7705078125 16629.69921875
v 3193.46044921875 2669.7705078125 16629.69921875
v 2987.67724609375 2791.716064453125 16629.69921875
v 2987.67724609375 2551.635498046875 16629.69921875
v 3193.46044921875 2669.7705078125 16629.69921875
v 2953.380126953125 2669.7705078125 16629.69921875
v 3075.32568359375 2463.987060546875 16629.69921875
v 3193.46044921875 2669.7705078125 16629.69921875
v 2987.67724609375 2551.635498046875 16629.69921875
v 3193.46044921875 2429.68994140625 16629.69921875
v 3193.46044921875 2669.7705078125 16629.69921875
v 3075.32568359375 2463.987060546875 16629.69921875
v 3315.406005859375 2463.987060546875 16629.69921875
v 3193.46044921875 2669.7705078125 16629.69921875
v 3193.46044921875 2429.68994140625 16629.69921875
v 3403.054443359375 2551.635498046875 16629.69921875
v 3193.46044921875 2669.7705078125 16629.69921875
v 3315.406005859375 2463.987060546875 16629.69921875
v 3437.3515625 2669.7705078125 16629.69921875
v 3193.46044921875 2669.7705078125 16629.69921875
v 3403.054443359375 2551.635498046875 16629.69921875
v 3403.054443359375 2791.716064453125 16629.69921875
v 3193.46044921875 2669.7705078125 16629.69921875
v 3437.3515625 2669.7705078125 16629.69921875
vn -0.002612491138279438 -0.009652689099311829 0.00002184694130846765
vn -0.002612491138279438 -0.009652689099311829 0.00002184694130846765
vn -0.002612491138279438 -0.009652689099311829 0.00002184694130846765
vn -0.002612491138279438 -0.009652689099311829 0.00002184694130846765
vn -0.009652689099311829 -0.002612491138279438 0.00002184694130846765
vn -0.009652689099311829 -0.002612491138279438 0.00002184694130846765
vn -0.009652689099311829 -0.002612491138279438 0.00002184694130846765
vn -0.009652689099311829 -0.002612491138279438 0.00002184694130846765
vn -0.002612491138279438 0.009652689099311829 0.00002184694130846765
vn -0.002612491138279438 0.009652689099311829 0.00002184694130846765
vn -0.002612491138279438 0.009652689099311829 0.00002184694130846765
vn -0.002612491138279438 0.009652689099311829 0.00002184694130846765
vn 0.009652689099311829 0.002612491138279438 0.00002184694130846765
vn 0.009652689099311829 0.002612491138279438 0.00002184694130846765
vn 0.009652689099311829 0.002612491138279438 0.00002184694130846765
vn 0.009652689099311829 0.002612491138279438 0.00002184694130846765
vn 0.009652689099311829 -0.002612491138279438 0.00002184694130846765
vn 0.009652689099311829 -0.002612491138279438 0.00002184694130846765
vn 0.009652689099311829 -0.002612491138279438 0.00002184694130846765
vn 0.009652689099311829 -0.002612491138279438 0.00002184694130846765
vn -0.007071050815284252 0.007071050815284252 0.00002184694130846765
vn -0.007071050815284252 0.007071050815284252 0.00002184694130846765
vn -0.007071050815284252 0.007071050815284252 0.00002184694130846765
vn -0.007071050815284252 0.007071050815284252 0.00002184694130846765
vn 0.002612491138279438 -0.009652689099311829 0.00002184694130846765
vn 0.002612491138279438 -0.009652689099311829 0.00002184694130846765
vn 0.002612491138279438 -0.009652689099311829 0.00002184694130846765
vn 0.002612491138279438 -0.009652689099311829 0.00002184694130846765
vn 0.002612491138279438 0.009652689099311829 0.00002184694130846765
vn 0.002612491138279438 0.009652689099311829 0.00002184694130846765
vn 0.002612491138279438 0.009652689099311829 0.00002184694130846765
vn 0.002612491138279438 0.009652689099311829 0.00002184694130846765
vn -0.007071050815284252 -0.007071050815284252 0.00002184694130846765
vn -0.007071050815284252 -0.007071050815284252 0.00002184694130846765
vn -0.007071050815284252 -0.007071050815284252 0.00002184694130846765
vn -0.007071050815284252 -0.007071050815284252 0.00002184694130846765
vn -0.009652689099311829 0.002612491138279438 0.00002184694130846765
vn -0.009652689099311829 0.002612491138279438 0.00002184694130846765
vn -0.009652689099311829 0.002612491138279438 0.00002184694130846765
vn -0.009652689099311829 0.002612491138279438 0.00002184694130846765
vn 0.007071050815284252 0.007071050815284252 0.00002184694130846765
vn 0.007071050815284252 0.007071050815284252 0.00002184694130846765
vn 0.007071050815284252 0.007071050815284252 0.00002184694130846765
vn 0.007071050815284252 0.007071050815284252 0.00002184694130846765
vn 0.007071050815284252 -0.007071050815284252 0.00002184694130846765
vn 0.007071050815284252 -0.007071050815284252 0.00002184694130846765
vn 0.007071050815284252 -0.007071050815284252 0.00002184694130846765
vn 0.007071050815284252 -0.007071050815284252 0.00002184694130846765
vn 0 0 0.009999999776482582
vn 0 0 0.009999999776482582
vn 0 0 0.009999999776482582
vn 0 0 0.009999999776482582
vn 0 0 0.009999999776482582
vn 0 0 0.009999999776482582
vn 0 0 0.009999999776482582
vn 0 0 0.009999999776482582
vn 0 0 0.009999999776482582
vn 0 0 0.009999999776482582
vn 0 0 0.009999999776482582
vn 0 0 0.009999999776482582
vn 0 0 0.009999999776482582
vn 0 0 0.009999999776482582
vn 0 0 0.009999999776482582
vn 0 0 0.009999999776482582
vn 0 0 0.009999999776482582
vn 0 0 0.009999999776482582
vn 0 0 0.009999999776482582
vn 0 0 0.009999999776482582
vn 0 0 0.009999999776482582
vn 0 0 0.009999999776482582
vn 0 0 0.009999999776482582
vn 0 0 0.009999999776482582
vn 0 0 0.009999999776482582
vn 0 0 0.009999999776482582
vn 0 0 0.009999999776482582
vn 0 0 0.009999999776482582
vn 0 0 0.009999999776482582
vn 0 0 0.009999999776482582
vn 0 0 0.009999999776482582
vn 0 0 0.009999999776482582
vn 0 0 0.009999999776482582
vn 0 0 0.009999999776482582
vn 0 0 0.009999999776482582
vn 0 0 0.009999999776482582
vn -0.002612491138279438 -0.009652689099311829 0.00002184694130846765
vn -0.002612491138279438 -0.009652689099311829 0.00002184694130846765
vn -0.002612491138279438 -0.009652689099311829 0.00002184694130846765
vn -0.002612491138279438 -0.009652689099311829 0.00002184694130846765
vn -0.009652689099311829 -0.002612491138279438 0.00002184694130846765
vn -0.009652689099311829 -0.002612491138279438 0.00002184694130846765
vn -0.009652689099311829 -0.002612491138279438 0.00002184694130846765
vn -0.009652689099311829 -0.002612491138279438 0.00002184694130846765
vn -0.002612491138279438 0.009652689099311829 0.00002184694130846765
vn -0.002612491138279438 0.009652689099311829 0.00002184694130846765
vn -0.002612491138279438 0.009652689099311829 0.00002184694130846765
vn -0.002612491138279438 0.009652689099311829 0.00002184694130846765
vn 0.009652689099311829 0.002612491138279438 0.00002184694130846765
vn 0.009652689099311829 0.002612491138279438 0.00002184694130846765
vn 0.009652689099311829 0.002612491138279438 0.00002184694130846765
vn 0.009652689099311829 0.002612491138279438 0.00002184694130846765
vn 0.009652689099311829 -0.002612491138279438 0.00002184694130846765
vn 0.009652689099311829 -0.002612491138279438 0.00002184694130846765
vn 0.009652689099311829 -0.002612491138279438 0.00002184694130846765
vn 0.009652689099311829 -0.002612491138279438 0.00002184694130846765
vn -0.007071050815284252 0.007071050815284252 0.00002184694130846765
vn -0.007071050815284252 0.007071050815284252 0.00002184694130846765
vn -0.007071050815284252 0.007071050815284252 0.00002184694130846765
vn -0.007071050815284252 0.007071050815284252 0.00002184694130846765
vn 0.002612491138279438 -0.009652689099311829 0.00002184694130846765
vn 0.002612491138279438 -0.009652689099311829 0.00002184694130846765
vn 0.002612491138279438 -0.009652689099311829 0.00002184694130846765
vn 0.002612491138279438 -0.009652689099311829 0.00002184694130846765
vn 0.002612491138279438 0.009652689099311829 0.00002184694130846765
vn 0.002612491138279438 0.009652689099311829 0.00002184694130846765
vn 0.002612491138279438 0.009652689099311829 0.00002184694130846765
vn 0.002612491138279438 0.009652689099311829 0.00002184694130846765
vn -0.007071050815284252 -0.007071050815284252 0.00002184694130846765
vn -0.007071050815284252 -0.007071050815284252 0.00002184694130846765
vn -0.007071050815284252 -0.007071050815284252 0.00002184694130846765
vn -0.007071050815284252 -0.007071050815284252 0.00002184694130846765
vn -0.009652689099311829 0.002612491138279438 0.00002184694130846765
vn -0.009652689099311829 0.002612491138279438 0.00002184694130846765
vn -0.009652689099311829 0.002612491138279438 0.00002184694130846765
vn -0.009652689099311829 0.002612491138279438 0.00002184694130846765
vn 0.007071050815284252 0.007071050815284252 0.00002184694130846765
vn 0.007071050815284252 0.007071050815284252 0.00002184694130846765
vn 0.007071050815284252 0.007071050815284252 0.00002184694130846765
vn 0.007071050815284252 0.007071050815284252 0.00002184694130846765
vn 0.007071050815284252 -0.007071050815284252 0.00002184694130846765
vn 0.007071050815284252 -0.007071050815284252 0.00002184694130846765
vn 0.007071050815284252 -0.007071050815284252 0.00002184694130846765
vn 0.007071050815284252 -0.007071050815284252 0.00002184694130846765
vn 0 0 0.009999999776482582
vn 0 0 0.009999999776482582
vn 0 0 0.009999999776482582
vn 0 0 0.009999999776482582
vn 0 0 0.009999999776482582
vn 0 0 0.009999999776482582
vn 0 0 0.009999999776482582
vn 0 0 0.009999999776482582
vn 0 0 0.009999999776482582
vn 0 0 0.009999999776482582
vn 0 0 0.009999999776482582
vn 0 0 0.009999999776482582
vn 0 0 0.009999999776482582
vn 0 0 0.009999999776482582
vn 0 0 0.009999999776482582
vn 0 0 0.009999999776482582
vn 0 0 0.009999999776482582
vn 0 0 0.009999999776482582
vn 0 0 0.009999999776482582
vn 0 0 0.009999999776482582
vn 0 0 0.009999999776482582
vn 0 0 0.009999999776482582
vn 0 0 0.009999999776482582
vn 0 0 0.009999999776482582
vn 0 0 0.009999999776482582
vn 0 0 0.009999999776482582
vn 0 0 0.009999999776482582
vn 0 0 0.009999999776482582
vn 0 0 0.009999999776482582
vn 0 0 0.009999999776482582
vn 0 0 0.009999999776482582
vn 0 0 0.009999999776482582
vn 0 0 0.009999999776482582
vn 0 0 0.009999999776482582
vn 0 0 0.009999999776482582
vn 0 0 0.009999999776482582
s on
f 1//1 2//2 3//3
f 2//2 4//4 3//3
f 5//5 6//6 7//7
f 6//6 8//8 7//7
f 9//9 10//10 11//11
f 10//10 12//12 11//11
f 13//13 14//14 15//15
f 14//14 16//16 15//15
f 17//17 18//18 19//19
f 18//18 20//20 19//19
f 21//21 22//22 23//23
f 22//22 24//24 23//23
f 25//25 26//26 27//27
f 26//26 28//28 27//27
f 29//29 30//30 31//31
f 30//30 32//32 31//31
f 33//33 34//34 35//35
f 34//34 36//36 35//35
f 37//37 38//38 39//39
f 38//38 40//40 39//39
f 41//41 42//42 43//43
f 42//42 44//44 43//43
f 45//45 46//46 47//47
f 46//46 48//48 47//47
f 85//85 86//86 87//87
f 86//86 88//88 87//87
f 89//89 90//90 91//91
f 90//90 92//92 91//91
f 93//93 94//94 95//95
f 94//94 96//96 95//95
f 97//97 98//98 99//99
f 98//98 100//100 99//99
f 101//101 102//102 103//103
f 102//102 104//104 103//103
f 105//105 106//106 107//107
f 106//106 108//108 107//107
f 109//109 110//110 111//111
f 110//110 112//112 111//111
f 113//113 114//114 115//115
f 114//114 116//116 115//115
f 117//117 118//118 119//119
f 118//118 120//120 119//119
f 121//121 122//122 123//123
f 122//122 124//124 123//123
f 125//125 126//126 127//127
f 126//126 128//128 127//127
f 129//129 130//130 131//131
f 130//130 132//132 131//131
f 49//49 50//50 51//51
f 52//52 53//53 54//54
f 55//55 56//56 57//57
f 58//58 59//59 60//60
f 61//61 62//62 63//63
f 64//64 65//65 66//66
f 67//67 68//68 69//69
f 70//70 71//71 72//72
f 73//73 74//74 75//75
f 76//76 77//77 78//78
f 79//79 80//80 81//81
f 82//82 83//83 84//84
f 133//133 134//134 135//135
f 136//136 137//137 138//138
f 139//139 140//140 141//141
f 142//142 143//143 144//144
f 145//145 146//146 147//147
f 148//148 149//149 150//150
f 151//151 152//152 153//153
f 154//154 155//155 156//156
f 157//157 158//158 159//159
f 160//160 161//161 162//162
f 163//163 164//164 165//165
f 166//166 167//167 168//168

