# Exported by Sketchfab Model Ripper robust edition
o model_18
v 1.9198479652404785 0.13931500911712646 0.38924235105514526
v 1.9176523685455322 0.14632795751094818 0.39727410674095154
v 1.9237686395645142 0.13671761751174927 0.3919101059436798
v 1.9249448776245117 0.14054876565933228 0.40251004695892334
v 1.9423530101776123 0.16587330400943756 0.44197872281074524
v 1.9282382726669312 0.12970466911792755 0.4040822386741638
v 1.9091835021972656 0.14399030804634094 0.3881467878818512
v 1.8980486392974854 0.15924996137619019 0.3846466839313507
v 1.8934221267700195 0.13821111619472504 0.373299777507782
v 1.9062821865081787 0.1339903622865677 0.3828468322753906
v 1.9094971418380737 0.12275665998458862 0.3830389082431793
v 1.899538516998291 0.11132815480232239 0.37214019894599915
v 1.9183580875396729 0.08788672834634781 0.3868876099586487
v 1.9175739288330078 0.1171073392033577 0.38928502798080444
v 1.9251017570495605 0.11957485973834991 0.39753732085227966
v 1.943842887878418 0.0827568843960762 0.4160124957561493
v 1.955212950706482 0.11996446549892426 0.4428039491176605
v 1.961721420288086 0.11054893583059311 0.47807538509368896
v 1.942117691040039 0.17976932227611542 0.47595539689064026
v 1.916632890701294 0.1656785011291504 0.4770793914794922
v 1.8989111185073853 0.2180158644914627 0.4322609603404999
v 1.9130258560180664 0.19002901017665863 0.4133731722831726
v 1.9474499225616455 0.05080901086330414 0.4404990077018738
v 1.921024203300476 0.06048428267240524 0.448047012090683
v 1.906438946723938 0.037107788026332855 0.382434219121933
v 1.8612720966339111 0.07684782892465591 0.3377794027328491
v 1.8433934450149536 0.14470458030700684 0.3365557789802551
v 1.855704665184021 0.201912060379982 0.37221845984458923
v 1.849666714668274 0.18515890836715698 0.39449962973594666
v 1.879307508468628 0.18905498087406158 0.4413526952266693
v 1.8695056438446045 0.11931511759757996 0.4320688843727112
v 1.9251800775527954 0.10950998216867447 0.4764035642147064
v 1.884874939918518 0.056068722158670425 0.40474385023117065
v 1.853979468345642 0.08106858283281326 0.3659225404262543
v 1.840256929397583 0.13489945232868195 0.3712865114212036
v 1.9304338693618774 -0.583992600440979 0.37265241146087646
v 1.9392948150634766 -0.5856809020042419 0.3703901469707489
v 1.929649829864502 -0.5791225433349609 0.37330690026283264
v 1.938118577003479 -0.5719147324562073 0.3711940348148346
v 1.928708791732788 -0.5884730815887451 0.374117910861969
v 1.935295581817627 -0.5967198014259338 0.37509962916374207
v 1.9261995553970337 -0.5978886485099792 0.3827899098396301
v 1.9243175983428955 -0.5895770192146301 0.3763730525970459
v 1.9207104444503784 -0.5872393250465393 0.3789767920970917
v 1.918985366821289 -0.5921744108200073 0.3888510763645172
v 1.9164761304855347 -0.5812004208564758 0.39126986265182495
v 1.8993031978607178 -0.6205508708953857 0.42498329281806946
v 1.9280815124511719 -0.6436675786972046 0.39476996660232544
v 1.986108422279358 -0.656329870223999 0.3560695946216583
v 2.0051631927490234 -0.5947718024253845 0.32715100049972534
v 1.9940283298492432 -0.6418494582176208 0.37974509596824646
v 1.9395300149917603 -0.6743167638778687 0.4111962914466858
v 1.9920679330825806 -0.5261358022689819 0.33611470460891724
v 1.9341977834701538 -0.5220448970794678 0.3765651285648346
v 1.9289439916610718 -0.5663952827453613 0.37913331389427185
v 1.9258859157562256 -0.5766549706459045 0.375526487827301
v 1.9216514825820923 -0.5777589082717896 0.37821558117866516
v 1.9203968048095703 -0.5708758234977722 0.386083722114563
v 1.9051059484481812 -0.5343175530433655 0.4093395173549652
v 1.8899718523025513 -0.5739277601242065 0.4307883381843567
v 1.8826009035110474 -0.5681485533714294 0.4664866030216217
v 1.8971076011657715 -0.6380832195281982 0.45705339312553406
v 1.9233765602111816 -0.6263949871063232 0.46132892370224
v 1.9610941410064697 -0.6487324833869934 0.4249548316001892
v 1.976698637008667 -0.5788627862930298 0.42460623383522034
v 1.9190638065338135 -0.569771945476532 0.46682095527648926
v 1.92839515209198 -0.5182137489318848 0.44457536935806274
v 1.9033024311065674 -0.5058761835098267 0.4368993043899536
v 1.9482340812683105 -0.4889931380748749 0.38293930888175964
v 1.9988116025924683 -0.534447431564331 0.36332589387893677
v 2.0086917877197266 -0.5899665951728821 0.36284926533699036
v 1.9673672914505005 -0.511460542678833 0.40379056334495544
v -0.07463251054286957 0.21567821502685547 0.26663899421691895
v -0.020526301115751266 0.21710677444934845 0.2524820566177368
v -0.06710468977689743 0.2206132560968399 0.27363207936286926
v -0.06530115008354187 0.22204181551933289 0.28588956594467163
v -0.0164487324655056 0.2206132560968399 0.30065831542015076
v -0.07322105020284653 0.22093792259693146 0.2947821319103241
v -0.04389391094446182 0.21126265823841095 0.33920931816101074
v -0.08866876363754272 0.19373027980327606 0.3433994650840759
v -0.08404228836297989 0.2173665165901184 0.2944619953632355
v -0.12489639967679977 0.17756155133247375 0.3146018385887146
v -0.0921190157532692 0.21275615692138672 0.2879170775413513
v -0.09251108765602112 0.2109379768371582 0.27763018012046814
v -0.12748408317565918 0.17489922046661377 0.2665465176105499
v -0.08584582805633545 0.21139252185821533 0.26796218752861023
v -0.09996049106121063 0.18399007618427277 0.2278319001197815
v -0.055107228457927704 0.20178218185901642 0.22361327707767487
v -0.03934585303068161 0.18463942408561707 0.1951500028371811
v 0.012799988500773907 0.2064574807882309 0.2388800084590912
v 0.018681099638342857 0.2109379768371582 0.309728741645813
v -0.0224082563072443 0.1961328685283661 0.366000771522522
v -0.0882766917347908 0.17028886079788208 0.37326422333717346
v -0.14018729329109192 0.14827600121498108 0.3299112617969513
v -0.14646047353744507 0.14392536878585815 0.2590198516845703
v -0.10544952750205994 0.15840581059455872 0.20248457789421082
v -0.08984498679637909 0.13678255677223206 0.2145072966814041
v -0.11744699627161026 0.1216527670621872 0.26490315794944763
v -0.11995626986026764 0.12723715603351593 0.32420578598976135
v -0.07133909314870834 0.1417175978422165 0.35558584332466125
v -0.017938612028956413 0.16840575635433197 0.35558584332466125
v 0.013270477764308453 0.17431481182575226 0.3050263524055481
v 0.01185901090502739 0.17782127857208252 0.24566680192947388
v -0.03307266905903816 0.15418505668640137 0.21469226479530334
v -0.04475647583603859 0.129380002617836 0.285163938999176
v -0.43306657671928406 0.46833914518356323 0.2950453460216522
v -0.46451088786125183 0.45996254682540894 0.3375944197177887
v -0.42851850390434265 0.45911839604377747 0.2919009327888489
v -0.44584816694259644 0.4194433093070984 0.3199373781681061
v -0.4302436411380768 0.47918322682380676 0.2948532700538635
v -0.4512588083744049 0.506131112575531 0.3353534936904907
v -0.42146116495132446 0.48678058385849 0.29177290201187134
v -0.41565847396850586 0.532105028629303 0.3155764639377594
v -0.37762731313705444 0.5193778276443481 0.28862136602401733
v -0.4110319912433624 0.4834689199924469 0.28584688901901245
v -0.40444517135620117 0.4731442928314209 0.2817847728729248
v -0.35825884342193604 0.478923499584198 0.27055883407592773
v -0.3720598518848419 0.43256011605262756 0.2731696665287018
v -0.40954211354255676 0.46100151538848877 0.2826099991798401
v -0.41879507899284363 0.4545080363750458 0.287312388420105
v -0.4076601564884186 0.4065212905406952 0.29322415590286255
v -0.4508667290210724 0.3926902115345001 0.34505704045295715
v -0.3420269787311554 0.4122355580329895 0.27378860116004944
v -0.3948001563549042 0.3746383488178253 0.3044928014278412
v -0.32226645946502686 0.48113125562667847 0.27082204818725586
v -0.34963321685791016 0.5413906574249268 0.29807594418525696
v -0.40562137961387634 0.5589879751205444 0.3389461040496826
v -0.4582377076148987 0.5215206742286682 0.36910250782966614
v -0.47776299715042114 0.4529496133327484 0.3724176585674286
v -0.4518077075481415 0.4516509175300598 0.38666707277297974
v -0.42812642455101013 0.505936324596405 0.3845542073249817
v -0.3900168240070343 0.542494535446167 0.35784098505973816
v -0.34343844652175903 0.5211959481239319 0.32812562584877014
v -0.3197571635246277 0.4758066236972809 0.29912880063056946
v -0.338106244802475 0.420742005109787 0.30887505412101746
v -0.38123437762260437 0.38535258173942566 0.32776281237602234
v -0.3719814419746399 0.46061190962791443 0.36200979351997375
v -0.42240214347839355 0.4050278067588806 0.364983469247818
v 0.34347519278526306 0.8412591218948364 0.5154383182525635
v 0.31163880228996277 0.8485967516899109 0.5561804175376892
v 0.3525713086128235 0.8348954916000366 0.518532931804657
v 0.34959155321121216 0.8217787146568298 0.569320023059845
v 0.3410443365573883 0.8502200841903687 0.5087226629257202
v 0.303326815366745 0.8798303008079529 0.5215207934379578
v 0.34700387716293335 0.8565837144851685 0.4994032680988312
v 0.32763540744781494 0.8983367085456848 0.48398715257644653
v 0.3725670874118805 0.8904796242713928 0.4676888585090637
v 0.3590013384819031 0.8535317778587341 0.49566128849983215
v 0.36896002292633057 0.8468434810638428 0.4985567033290863
v 0.4112255871295929 0.8639213442802429 0.4796404540538788
v 0.41875341534614563 0.8323630690574646 0.5155165791511536
v 0.36927366256713867 0.8380773067474365 0.506858766078949
v 0.3631573021411896 0.8332721590995789 0.5153600573539734
v 0.3945232331752777 0.8141813278198242 0.5532209873199463
v 0.3512382507324219 0.8211942911148071 0.6066616177558899
v 0.45388323068618774 0.836064338684082 0.5259315371513367
v 0.417420357465744 0.8104151487350464 0.5818336606025696
v 0.4415721297264099 0.8823627829551697 0.4727185070514679
v 0.3847998082637787 0.921972930431366 0.4539516568183899
v 0.31861770153045654 0.933076798915863 0.47918516397476196
v 0.2821548283100128 0.9069080948829651 0.5349592566490173
v 0.29485803842544556 0.860934317111969 0.5882718563079834
v 0.31438329815864563 0.8820381164550781 0.5944681763648987
v 0.31148195266723633 0.9220378994941711 0.5511223077774048
v 0.33477115631103516 0.942816972732544 0.5012315511703491
v 0.3912298083305359 0.9332066774368286 0.487985223531723
v 0.4389844238758087 0.8997652530670166 0.4957466423511505
v 0.44525760412216187 0.8668434023857117 0.544058084487915
v 0.4189886450767517 0.8388565182685852 0.5889405608177185
v 0.3848782181739807 0.908791184425354 0.5581580996513367
v 0.3654313385486603 0.8554798364639282 0.607558012008667
v 0.12642303109169006 -1.212365746498108 0.3508051931858063
v 0.17535386979579926 -1.208339810371399 0.34411799907684326
v 0.1220318078994751 -1.2015866041183472 0.3462308645248413
v 0.15277040004730225 -1.1696386337280273 0.3258633613586426
v 0.10893653333187103 -1.1508725881576538 0.33427926898002625
v 0.11034800112247467 -1.197300910949707 0.3482725918292999
v 0.07129742950201035 -1.1605478525161743 0.3618461787700653
v 0.101095050573349 -1.201326847076416 0.3540136218070984
v 0.12391375750303268 -1.221066951751709 0.3582322597503662
v 0.16664983332157135 -1.243209719657898 0.3765224516391754
v 0.128148153424263 -1.2524954080581665 0.4042814373970032
v 0.11419032514095306 -1.2232098579406738 0.36359623074531555
v 0.08462794870138168 -1.2332746982574463 0.41222071647644043
v 0.10407481342554092 -1.2190539836883545 0.3651186525821686
v 0.06204448267817497 -1.194898247718811 0.39405855536460876
v 0.09889943897724152 -1.2098982334136963 0.3610067367553711
v 0.04228395223617554 -1.1797035932540894 0.4220665395259857
v 0.05592812970280647 -1.1286648511886597 0.37381911277770996
v 0.11191629618406296 -1.114509105682373 0.33144789934158325
v 0.17660850286483765 -1.1432102918624878 0.3195105195045471
v 0.2109541893005371 -1.2000930309295654 0.34622374176979065
v 0.19731001555919647 -1.250872015953064 0.39488378167152405
v 0.141086608171463 -1.2650927305221558 0.43679970502853394
v 0.07686488330364227 -1.2362617254257202 0.44895049929618835
v 0.0943513810634613 -1.2143787145614624 0.45797109603881836
v 0.07286572456359863 -1.1641842126846313 0.4355476498603821
v 0.076629638671875 -1.1230804920196533 0.39354634284973145
v 0.12705035507678986 -1.1139895915985107 0.3646419942378998
v 0.17888253927230835 -1.1356778144836426 0.34736910462379456
v 0.20397527515888214 -1.1803529262542725 0.37615251541137695
v 0.19683952629566193 -1.2269110679626465 0.4115591049194336
v 0.1500258892774582 -1.2308071851730347 0.4471435248851776
v 0.14602673053741455 -1.1612621545791626 0.4191782474517822
v 1.3409898281097412 -0.790095329284668 0.39870402216911316
v 1.3360497951507568 -0.8019134402275085 0.3986755609512329
v 1.3845100402832031 -0.7927576899528503 0.4217464029788971
v 1.36427903175354 -0.8369132876396179 0.4212270677089691
v 1.31801438331604 -0.8511989116668701 0.41819649934768677
v 1.324130654335022 -0.8039264678955078 0.3957374691963196
v 1.2738667726516724 -0.8311989903450012 0.4152655005455017
v 1.3144856691360474 -0.7987965941429138 0.3937668800354004
v 1.338323712348938 -0.7768486738204956 0.39937275648117065
v 1.3701602220535278 -0.7463293671607971 0.42015284299850464
v 1.3260910511016846 -0.7262645363807678 0.41670966148376465
v 1.3259341716766357 -0.7727577686309814 0.39674055576324463
v 1.281080961227417 -0.7413293719291687 0.4134941101074219
v 1.3157403469085693 -0.7776928544044495 0.39378821849823
v 1.2603009939193726 -0.7846408486366272 0.41313841938972473
v 1.311192274093628 -0.7880174517631531 0.39321911334991455
v 1.228307843208313 -0.782433032989502 0.43404656648635864
v 1.2503423690795898 -0.8502249121665955 0.4365364909172058
v 1.3146425485610962 -0.8810039162635803 0.4403994083404541
v 1.3824713230133057 -0.8589910864830017 0.44382837414741516
v 1.413366675376892 -0.7943161129951477 0.4441413879394531
v 1.391175389289856 -0.7262645363807678 0.44197872281074524
v 1.326640009880066 -0.6956803202629089 0.437802791595459
v 1.2588895559310913 -0.7180178165435791 0.43469396233558655
v 1.266417384147644 -0.7274982929229736 0.461627721786499
v 1.3239738941192627 -0.7151607275009155 0.4688200056552887
v 1.3795700073242188 -0.7349658012390137 0.46706995368003845
v 1.3915674686431885 -0.7924979329109192 0.4732520580291748
v 1.3722773790359497 -0.8481469750404358 0.46877020597457886
v 1.3144856691360474 -0.8604845404624939 0.471053808927536
v 1.2589679956436157 -0.8410691022872925 0.4633350670337677
v 1.2464215755462646 -0.7831473350524902 0.46660754084587097
v 1.3185632228851318 -0.7874330282211304 0.4892515242099762
v 1.6170099973678589 1.3485289812088013 0.424001544713974
v 1.6212443113327026 1.3380095958709717 0.4251255691051483
v 1.581958532333374 1.3577497005462646 0.45996302366256714
v 1.5999155044555664 1.3130097389221191 0.46288689970970154
v 1.6203033924102783 1.3588535785675049 0.41999635100364685
v 1.596935749053955 1.3974248170852661 0.43790239095687866
v 1.6301052570343018 1.3641133308410645 0.4135083556175232
v 1.6341043710708618 1.4111909866333008 0.41036394238471985
v 1.6723707914352417 1.3869702816009521 0.39375975728034973
v 1.6401423215866089 1.3567756414413452 0.4093751013278961
v 1.6455529928207397 1.3452173471450806 0.41009360551834106
v 1.6908767223358154 1.3424900770187378 0.3964844346046448
v 1.675350546836853 1.3026201725006104 0.41869446635246277
v 1.6399855613708496 1.335282325744629 0.41545048356056213
v 1.6305757761001587 1.3318407535552979 0.42203807830810547
v 1.6383388042449951 1.2889838218688965 0.446510374546051
v 1.59215247631073 1.2998279333114624 0.49640825390815735
v 1.7047561407089233 1.283789038658142 0.4293299615383148
v 1.6495521068572998 1.2647632360458374 0.47125300765037537
v 1.7267906665802002 1.3436589241027832 0.3961500823497772
v 1.700051188468933 1.4103468656539917 0.39136946201324463
v 1.642808437347412 1.4455413818359375 0.4171009361743927
v 1.5873692035675049 1.4261908531188965 0.45858290791511536
v 1.5658050775527954 1.3664510250091553 0.49210426211357117
v 1.591681957244873 1.3711262941360474 0.5043901801109314
v 1.6164610385894775 1.4171000719070435 0.47861602902412415
v 1.6560605764389038 1.4369051456451416 0.4411819577217102
v 1.7020900249481201 1.404632568359375 0.4270250201225281
v 1.7259280681610107 1.3519705533981323 0.4236600697040558
v 1.705932378768921 1.308334469795227 0.45608586072921753
v 1.6618632078170776 1.285931944847107 0.48674026131629944
v 1.6706457138061523 1.3674249649047852 0.48161816596984863
v 1.6200681924819946 1.320412278175354 0.5079116821289062
v 0.767620861530304 1.2167764902114868 0.40067461133003235
v 0.7393131256103516 1.2574905157089233 0.4275158941745758
v 0.7568780183792114 1.2143089771270752 0.40401822328567505
v 0.7506832480430603 1.2050882577896118 0.4079451560974121
v 0.7148476839065552 1.218269944190979 0.44200006127357483
v 0.75232994556427 1.1935948133468628 0.4084858298301697
v 0.7217481732368469 1.1704131364822388 0.4437501132488251
v 0.7589952349662781 1.1426860094070435 0.4300413727760315
v 0.7615044713020325 1.1871662139892578 0.40518492460250854
v 0.7726393938064575 1.1878156661987305 0.40137889981269836
v 0.8029075264930725 1.148335337638855 0.4105275571346283
v 0.8269808292388916 1.1877506971359253 0.3960789442062378
v 0.7785205245018005 1.1977505683898926 0.3979143798351288
v 0.777971625328064 1.2102830410003662 0.3977009356021881
v 0.8200803399085999 1.2356724739074707 0.394606351852417
v 0.7827548980712891 1.2633346319198608 0.40803053975105286
v 0.7967127561569214 1.2946981191635132 0.42131245136260986
v 0.732255756855011 1.2852826118469238 0.45099934935569763
v 0.6958712935447693 1.2275556325912476 0.4725264310836792
v 0.7070846557617188 1.1569067239761353 0.4746535122394562
v 0.7615044713020325 1.1150238513946533 0.45447811484336853
v 0.8261182904243469 1.1243743896484375 0.4251682460308075
v 0.862424373626709 1.1820363998413086 0.4032072126865387
v 0.8513678312301636 1.2528152465820312 0.4014429450035095
v 0.8507405519485474 1.2478152513504028 0.43003425002098083
v 0.856072723865509 1.189828634262085 0.43832921981811523
v 0.8294117450714111 1.13872492313385 0.4502594769001007
v 0.7777363657951355 1.1376210451126099 0.4784879982471466
v 0.7282566428184509 1.1663222312927246 0.492652028799057
v 0.7266098856925964 1.225282907485962 0.4926947355270386
v 0.7496638894081116 1.2755423784255981 0.4723556935787201
v 0.8051031231880188 1.2774255275726318 0.4524790644645691
v 0.7991436123847961 1.2092440128326416 0.4825999140739441
v 1.0019242763519287 0.25334033370018005 0.5967873334884644
v 1.0128239393234253 0.2187950760126114 0.6395427584648132
v 1.0089031457901 0.2515870928764343 0.58869868516922
v 1.0413669347763062 0.21061331033706665 0.6016319990158081
v 1.0149410963058472 0.2571065425872803 0.5805317759513855
v 1.0608137845993042 0.2354833036661148 0.5651014447212219
v 1.0575988292694092 0.2821063995361328 0.5525593757629395
v 1.0143922567367554 0.2685999870300293 0.5775154232978821
v 1.0364267826080322 0.32249578833580017 0.5685019493103027
v 1.0084327459335327 0.27788564562797546 0.5810653567314148
v 0.9966704845428467 0.2626259922981262 0.6003443598747253
v 0.9911814332008362 0.2589896619319916 0.655428409576416
v 0.995964765548706 0.27398958802223206 0.5986085534095764
v 0.9881232976913452 0.3054828941822052 0.6431068778038025
v 1.0074917078018188 0.330223023891449 0.6061280965805054
v 1.0176856517791748 0.36405399441719055 0.6206905245780945
v 1.0596375465393066 0.3508722484111786 0.5647954940795898
v 1.091395616531372 0.29217129945755005 0.540131151676178
v 1.0956299304962158 0.2238599807024002 0.5595453381538391
v 1.0680279731750488 0.18645760416984558 0.6133701801300049
v 1.0263112783432007 0.19983415305614471 0.6692509651184082
v 0.9944748878479004 0.25840523838996887 0.6936805844306946
v 0.9903188943862915 0.32658669352531433 0.6744584441184998
v 1.0194891691207886 0.32574254274368286 0.682397723197937
v 1.0492868423461914 0.35295015573501587 0.6379278302192688
v 1.0793981552124023 0.34658655524253845 0.5865644812583923
v 1.10770583152771 0.29541802406311035 0.5735030770301819
v 1.1106855869293213 0.2361975759267807 0.5820043683052063
v 1.0894352197647095 0.21106785535812378 0.6320516467094421
v 1.0508551597595215 0.21515873074531555 0.6778233647346497
v 1.0309377908706665 0.2685999870300293 0.6966755986213684
v 1.08614182472229 0.28632715344429016 0.6462939381599426
v 1.0011401176452637 0.2795739471912384 0.5894385576248169
v 0.8376452922821045 0.5617801547050476 0.35329511761665344
v 0.8414875864982605 0.6095721125602722 0.38192200660705566
v 0.8277649879455566 0.566974937915802 0.35614073276519775
v 0.816708505153656 0.5641827583312988 0.3590148091316223
v 0.7959285974502563 0.5964552760124207 0.39205241203308105
v 0.8100432753562927 0.5545724034309387 0.3585239350795746
v 0.7688754796981812 0.5564554929733276 0.3892921507358551
v 0.7789909839630127 0.5117155313491821 0.3738119900226593
v 0.8128662109375 0.543793261051178 0.35478904843330383
v 0.821962296962738 0.5369101762771606 0.3513174057006836
v 0.8167869448661804 0.4874299466609955 0.35596999526023865
v 0.8621106743812561 0.5011311769485474 0.3460032045841217
v 0.8332540392875671 0.5405465364456177 0.3489840030670166
v 0.841095507144928 0.5502867102622986 0.34993016719818115
v 0.8892422318458557 0.5411309599876404 0.3490409255027771
v 0.8790482878684998 0.5858709216117859 0.36422228813171387
v 0.9092379808425903 0.5989877581596375 0.3804991841316223
v 0.8527793288230896 0.6337927579879761 0.4076748192310333
v 0.7854210138320923 0.6145720481872559 0.4225858449935913
v 0.7462920546531677 0.5547671914100647 0.4180328845977783
v 0.7600930333137512 0.48833900690078735 0.39501896500587463
v 0.8166301250457764 0.45327427983283997 0.3682488203048706
v 0.8839100003242493 0.472624808549881 0.3528682589530945
v 0.9232742190361023 0.5324296951293945 0.3578552007675171
v 0.916608989238739 0.5276244878768921 0.38563552498817444
v 0.8811655044555664 0.48106634616851807 0.3882037103176117
v 0.8265103697776794 0.4607417583465576 0.3944498300552368
v 0.7854210138320923 0.49301430583000183 0.4210349917411804
v 0.7669151425361633 0.5464555621147156 0.4368850886821747
v 0.8050246834754944 0.5908059477806091 0.4426189959049225
v 0.8572489619255066 0.6134681701660156 0.4280351996421814
v 0.9008476138114929 0.5787281394004822 0.409702330827713
v 0.8484665155410767 0.531001091003418 0.4324459135532379
v 0.9547969698905945 -1.0299640893936157 0.5144708156585693
v 0.9726755619049072 -0.9985357522964478 0.5550421476364136
v 0.9450735449790955 -1.0351588726043701 0.51771479845047
v 0.9315862059593201 -1.0206785202026367 0.5677122473716736
v 0.9642067551612854 -1.0326265096664429 0.5085803866386414
v 1.007805347442627 -1.0098344087600708 0.5244446992874146
v 0.9682843089103699 -1.0419120788574219 0.5013453960418701
v 1.018312931060791 -1.0456783771514893 0.4937049150466919
v 0.9946317076683044 -1.0862624645233154 0.4821445941925049
v 0.9612269997596741 -1.0519770383834839 0.4984997808933258
v 0.9510330557823181 -1.0580159425735474 0.5015019178390503
v 0.9535423517227173 -1.1088597774505615 0.4944661259651184
v 0.9183341264724731 -1.0970417261123657 0.5255046486854553
v 0.9421721696853638 -1.0536003112792969 0.5083669424057007
v 0.9394276738166809 -1.0448341369628906 0.515495240688324
v 0.9080617427825928 -1.061327576637268 0.5563938617706299
v 0.9274302124977112 -1.016003131866455 0.6049969792366028
v 0.9074344635009766 -1.1289246082305908 0.5418171882629395
v 0.8933981657028198 -1.0759378671646118 0.5874039530754089
v 0.9595018625259399 -1.145093321800232 0.49588891863822937
v 1.0201948881149292 -1.1125611066818237 0.4768802225589752
v 1.0543837547302246 -1.0524964332580566 0.4947506785392761
v 1.0400338172912598 -0.9995097517967224 0.5402378439903259
v 0.9880448579788208 -0.9836007356643677 0.5862727761268616
v 0.9992581605911255 -1.0077564716339111 0.5994835495948792
v 1.0417590141296387 -1.0286654233932495 0.5631948709487915
v 1.0561089515686035 -1.0671716928482056 0.5201833844184875
v 1.0256839990615845 -1.1177558898925781 0.5129697322845459
v 0.974479079246521 -1.1468466520309448 0.521165132522583
v 0.9368399977684021 -1.1310025453567505 0.5644540190696716
v 0.9174715280532837 -1.0876260995864868 0.6004652976989746
v 0.9991013407707214 -1.0897040367126465 0.5781058669090271
v 0.9527581930160522 -1.041782259941101 0.6148499250411987
v 0.9021806716918945 -1.4910653829574585 0.4013504385948181
v 0.892065167427063 -1.495481014251709 0.40635162591934204
v 0.9262539744377136 -1.526909351348877 0.37888431549072266
v 0.8865761160850525 -1.544831395149231 0.40000590682029724
v 0.8585820198059082 -1.5278834104537964 0.43565434217453003
v 0.8851646184921265 -1.4898966550827026 0.41399919986724854
v 0.8569353222846985 -1.4893771409988403 0.4648574888706207
v 0.8845373392105103 -1.480545997619629 0.4198896288871765
v 0.9106494784355164 -1.4815200567245483 0.40209031105041504
v 0.9547185897827148 -1.4879485368728638 0.3827543556690216
v 0.9527581930160522 -1.449312448501587 0.4118080735206604
v 0.9090027213096619 -1.4713252782821655 0.4093039333820343
v 0.9246857166290283 -1.4334033727645874 0.44650325179100037
v 0.9008476138114929 -1.4674941301345825 0.416297048330307
v 0.8853998780250549 -1.4504812955856323 0.46790939569473267
v 0.891281008720398 -1.4715200662612915 0.4207291007041931
v 0.8873602747917175 -1.4420397281646729 0.5048384070396423
v 0.8461140394210815 -1.5000264644622803 0.49854958057403564
v 0.8474470973014832 -1.5571039915084839 0.4554171562194824
v 0.8890069723129272 -1.5809999704360962 0.4022112488746643
v 0.9475044012069702 -1.5550910234451294 0.3698779344558716
v 0.989142656326294 -1.4970394372940063 0.3764868676662445
v 0.9874175190925598 -1.4398319721221924 0.4195054769515991
v 0.9460145235061646 -1.416325569152832 0.472981721162796
v 0.9566789269447327 -1.4410008192062378 0.48462027311325073
v 0.989299476146698 -1.4675590991973877 0.4433232843875885
v 0.9927497506141663 -1.5095069408416748 0.4023606479167938
v 0.9580119848251343 -1.5568442344665527 0.40470826625823975
v 0.9079049229621887 -1.580740213394165 0.42420074343681335
v 0.8805381655693054 -1.5589221715927124 0.4714237451553345
v 0.8715988993644714 -1.5124289989471436 0.5065955519676208
v 0.9117472767829895 -1.469312310218811 0.5103161931037903
v 0.9458577036857605 -1.5224288702011108 0.469645231962204
vn 0.418179988861084 0.8826501369476318 -0.21460255980491638
vn 0.6655679941177368 0.48729899525642395 -0.5652954578399658
vn 0.7618318796157837 0.6458246111869812 -0.05022686347365379
vn 0.8273280262947083 0.38046836853027344 -0.41324591636657715
vn 0.8687320351600647 0.3746582567691803 -0.3239381015300751
vn 0.9087247252464294 0.12805210053920746 -0.3972681760787964
vn 0.48749881982803345 0.45945045351982117 -0.7424622178077698
vn 0.592544674873352 0.32609933614730835 -0.736579954624176
vn 0.5941357612609863 0.2292151302099228 -0.7710143327713013
vn 0.36558061838150024 0.23576031625270844 -0.9004265069961548
vn 0.4806501865386963 -0.030239945277571678 -0.8763908743858337
vn 0.626737654209137 0.11285756528377533 -0.7710143327713013
vn 0.7251688838005066 -0.03775234892964363 -0.6875353455543518
vn 0.6706056594848633 -0.1718703955411911 -0.7216291427612305
vn 0.849341094493866 -0.08294136822223663 -0.5212872624397278
vn 0.8656444549560547 -0.07541823387145996 -0.4949462115764618
vn 0.9411810040473938 0.12057441473007202 -0.31565824151039124
vn 0.7548791170120239 -0.1499144285917282 0.6385006904602051
vn 0.5260929465293884 0.5767670273780823 0.6249527335166931
vn -0.3782057762145996 0.17140580713748932 0.9097144603729248
vn 0.07921096682548523 0.9848135709762573 0.15449213981628418
vn 0.6948118209838867 0.4954756498336792 -0.5212872624397278
vn 0.5989165306091309 -0.7665782570838928 0.23163928091526031
vn -0.34703612327575684 -0.6412665843963623 0.6843559741973877
vn 0.19117707014083862 -0.8957847952842712 -0.401274174451828
vn -0.2605639100074768 -0.4664308726787567 -0.8453097939491272
vn -0.4315681755542755 0.22223082184791565 -0.87427818775177
vn -0.33308571577072144 0.79302978515625 -0.5100564956665039
vn -0.9035100936889648 0.311014860868454 0.2948545813560486
vn -0.6842760443687439 0.3522544205188751 0.6385006904602051
vn -0.7852746248245239 -0.1977331042289734 0.5867242813110352
vn -0.31797945499420166 -0.26080670952796936 0.9115201234817505
vn -0.6466699242591858 -0.6719985604286194 0.36088213324546814
vn -0.8712552785873413 -0.48414289951324463 0.08074574917554855
vn -0.9879657626152039 -0.07917430251836777 0.1328723281621933
vn 0.334360808134079 -0.11857037246227264 -0.9349566102027893
vn -0.43744292855262756 -0.10841824114322662 -0.8926864862442017
vn 0.13964569568634033 0.46888747811317444 -0.872148871421814
vn -0.5127881765365601 0.0827474296092987 -0.8545181155204773
vn 0.03210613131523132 -0.678803563117981 -0.7336177229881287
vn -0.5105915665626526 -0.2926073670387268 -0.8085030317306519
vn -0.6592537760734558 -0.36898326873779297 -0.6551609039306641
vn -0.34319987893104553 -0.8705190420150757 -0.3527185618877411
vn -0.8245471715927124 -0.5617314577102661 -0.06767380982637405
vn -0.8422842025756836 -0.24588586390018463 -0.4796847105026245
vn -0.8955494165420532 -0.01132993958890438 -0.44481781125068665
vn -0.8808730840682983 -0.2750994563102722 -0.3852050006389618
vn -0.6986314654350281 -0.39390432834625244 -0.5972883701324463
vn 0.28461161255836487 -0.76356440782547 -0.5796254277229309
vn 0.4500223696231842 -0.1486051231622696 -0.8805659413337708
vn 0.8625997304916382 -0.4225832521915436 0.2781098484992981
vn -0.16526459157466888 -0.985550045967102 0.03713129088282585
vn 0.3414537012577057 0.5335346460342407 -0.7737894654273987
vn -0.6741182804107666 0.24446511268615723 -0.6969945430755615
vn -0.6252942681312561 0.21151086688041687 -0.7511792182922363
vn -0.21642033755779266 0.7882372140884399 -0.5760593414306641
vn -0.7301514744758606 0.6553981304168701 -0.19321508705615997
vn -0.7972450852394104 0.20188988745212555 -0.5688942670822144
vn -0.8480613231658936 0.21680915355682373 -0.4835140109062195
vn -0.9372312426567078 -0.007549903821200132 -0.34862664341926575
vn -0.7723060250282288 0.1312883347272873 0.6215357780456543
vn -0.6024816632270813 -0.6011483073234558 0.5250110030174255
vn 0.30425167083740234 -0.3109067976474762 0.9004265069961548
vn 0.6133593916893005 -0.482932984828949 0.6249527335166931
vn 0.7638233304023743 0.06777198612689972 0.641857385635376
vn 0.2803970277309418 0.13086631894111633 0.9509214162826538
vn 0.3473096489906311 0.533772349357605 0.7710143327713013
vn -0.5409935712814331 0.7812092900276184 0.31150925159454346
vn -0.07544605433940887 0.9634459018707275 -0.25706008076667786
vn 0.901337206363678 0.4029533565044403 0.15880759060382843
vn 0.9863461852073669 -0.02264976315200329 0.16312000155448914
vn 0.6686861515045166 0.5807804465293884 0.4642767012119293
vn -0.14651575684547424 0.7583802938461304 -0.6351318359375
vn 0.08862830698490143 0.9564517140388489 -0.2781098484992981
vn 0.1652023196220398 0.9079236388206482 -0.3852050006389618
vn 0.18951962888240814 0.9781821370124817 0.08510008454322815
vn 0.148562490940094 0.9826322793960571 0.1111890971660614
vn -0.07538215070962906 0.900107204914093 0.42909738421440125
vn -0.08660635352134705 0.900971531867981 0.42514660954475403
vn -0.45387130975723267 0.7509350180625916 0.4796847105026245
vn -0.4825710356235504 0.7251909971237183 0.4911448359489441
vn -0.7429470419883728 0.6310648918151855 0.22312943637371063
vn -0.7981546521186829 0.5761594176292419 0.1760382205247879
vn -0.8297106623649597 0.5059024095535278 -0.23588760197162628
vn -0.7695431113243103 0.6150693893432617 -0.17173540592193604
vn -0.5558589696884155 0.6226139664649963 -0.5507928133010864
vn -0.5360592603683472 0.7024837136268616 -0.46814218163490295
vn -0.1892932951450348 0.8390532732009888 -0.5100564956665039
vn 0.18430176377296448 0.25881561636924744 -0.9481810927391052
vn 0.7355409264564514 0.4784162640571594 -0.4796847105026245
vn 0.8028067946434021 0.5338665843009949 0.26549527049064636
vn 0.3679521381855011 0.366619735956192 0.8545181155204773
vn -0.32640475034713745 0.1036820113658905 0.9395264387130737
vn -0.869051456451416 -0.13535113632678986 0.4758462607860565
vn -0.9447199702262878 -0.18021497130393982 -0.27391019463539124
vn -0.5037136077880859 -0.026461629197001457 -0.8634653687477112
vn -0.03966716304421425 -0.8062402009963989 -0.590256929397583
vn -0.2791445255279541 -0.9470261335372925 -0.15880759060382843
vn -0.3072679340839386 -0.8822003602981567 0.3568037748336792
vn 0.12020394951105118 -0.7685814499855042 0.6283578276634216
vn 0.5728586316108704 -0.5222296714782715 0.6317508816719055
vn 0.8507438898086548 -0.49045053124427795 0.18892620503902435
vn 0.8325235843658447 -0.4494091868400574 -0.3239381015300751
vn 0.4518530070781708 -0.6719996333122253 -0.5867242813110352
vn 0.36861494183540344 -0.9293742179870605 0.01966099627315998
vn -0.9030606746673584 -0.0188912283629179 -0.42909738421440125
vn -0.8911883234977722 0.030197540298104286 -0.45262736082077026
vn -0.7384949922561646 -0.37840211391448975 -0.5580654144287109
vn -0.7470993399620056 -0.2844248414039612 -0.6007870435714722
vn -0.7992861866950989 0.40407758951187134 -0.44481781125068665
vn -0.7917951941490173 0.3968721330165863 -0.4642767012119293
vn -0.49405959248542786 0.5901033878326416 -0.6385006904602051
vn -0.5102184414863586 0.5835820436477661 -0.6317508816719055
vn -0.2182198315858841 0.48362481594085693 -0.8476362228393555
vn -0.13649456202983856 0.5203608274459839 -0.8429672718048096
vn -0.028206590563058853 0.16722051799297333 -0.9855159521102905
vn -0.09763146936893463 0.17414021492004395 -0.97986900806427
vn -0.19552960991859436 -0.17011067271232605 -0.9658315181732178
vn -0.07108740508556366 -0.2579861283302307 -0.9635298252105713
vn -0.42135360836982727 -0.43070414662361145 -0.7980946898460388
vn -0.4557366967201233 -0.36101943254470825 -0.8136147856712341
vn -0.6378635764122009 -0.7644153833389282 0.09380380809307098
vn 0.5117794275283813 -0.5518314838409424 -0.6584556698799133
vn -0.039642803370952606 -0.9452473521232605 -0.3239381015300751
vn 0.7146350145339966 0.1722489297389984 -0.677958071231842
vn 0.43157142400741577 0.8079140782356262 -0.401274174451828
vn -0.15781717002391815 0.98676997423172 0.03713129088282585
vn -0.7170798182487488 0.6011540293693542 0.3527185618877411
vn -0.9127373695373535 -0.12412820011377335 0.3892335295677185
vn -0.1561889946460724 -0.1906871795654297 0.9691457152366638
vn 0.057860568165779114 0.2655785381793976 0.962351381778717
vn 0.37458333373069763 0.5784236192703247 0.7246471047401428
vn 0.7798315286636353 0.39289724826812744 0.48733407258987427
vn 0.9717510342597961 0.0075473603792488575 0.23588760197162628
vn 0.8258139491081238 -0.45571810007095337 0.33219319581985474
vn 0.45277491211891174 -0.7540326118469238 0.4758462607860565
vn 0.5673611164093018 -0.1270131766796112 0.8136147856712341
vn 0.11061828583478928 -0.5887371897697449 0.8007197380065918
vn -0.7309673428535461 -0.6615543365478516 -0.16742929816246033
vn -0.675759494304657 -0.706476628780365 -0.2103329300880432
vn -0.3773123025894165 -0.9244757294654846 -0.05459024757146835
vn -0.38257911801338196 -0.9186943173408508 -0.0981530249118805
vn -0.7867268323898315 -0.39323171973228455 -0.4758462607860565
vn -0.7371217608451843 -0.4720865786075592 -0.4835140109062195
vn -0.5548003315925598 -0.2839575707912445 -0.7820260524749756
vn -0.5438095331192017 -0.3503015637397766 -0.762600839138031
vn -0.21601323783397675 -0.40438294410705566 -0.888714075088501
vn -0.14825685322284698 -0.26685670018196106 -0.9522643685340881
vn 0.14587776362895966 -0.5517303347587585 -0.8211658596992493
vn 0.06785198301076889 -0.6022030115127563 -0.7954543828964233
vn 0.1465647667646408 -0.8360435962677002 -0.528724730014801
vn 0.26367050409317017 -0.8163805603981018 -0.5138099193572998
vn -0.0037766152527183294 -0.9785321950912476 -0.2060592919588089
vn -0.03584219142794609 -0.9711191058158875 -0.23588760197162628
vn -0.23849423229694366 -0.673016369342804 0.7001210451126099
vn 0.8460322618484497 -0.5102564096450806 -0.15449213981628418
vn 0.45854923129081726 -0.7715824842453003 0.4409002661705017
vn 0.7107975482940674 -0.015115891583263874 -0.7032341957092285
vn 0.11573107540607452 0.3904794454574585 -0.913308322429657
vn -0.5785379409790039 0.5117630362510681 -0.6351318359375
vn -0.9700809121131897 0.23551560938358307 -0.058952588587999344
vn -0.8266522884368896 -0.2455870360136032 0.5062933564186096
vn -0.27847886085510254 0.47731831669807434 0.8334367275238037
vn -0.296082079410553 0.828194260597229 0.4758462607860565
vn -0.09988941997289658 0.9937300086021423 0.05022686347365379
vn 0.38089191913604736 0.9232543706893921 -0.05022686347365379
vn 0.7729938626289368 0.6343796849250793 0.006554040592163801
vn 0.8346730470657349 0.3595103621482849 0.417220801115036
vn 0.6060552000999451 0.11238954961299896 0.7874425053596497
vn 0.33869504928588867 0.7548474669456482 0.5616858005523682
vn 0.15588274598121643 0.26247507333755493 0.9522643685340881
vn 0.2068723887205124 -0.5241440534591675 -0.8261215686798096
vn 0.08478092402219772 -0.5534206032752991 -0.8285757899284363
vn -0.046957261860370636 -0.22030982375144958 -0.9742990136146545
vn -0.09835153073072433 -0.27575185894966125 -0.9561840295791626
vn -0.41620829701423645 -0.12650197744369507 -0.9004265069961548
vn -0.3869253396987915 -0.015107817947864532 -0.9219872951507568
vn -0.695564866065979 -0.19778968393802643 -0.6907016038894653
vn -0.7139337658882141 -0.0941498875617981 -0.6938546895980835
vn 0.07546036690473557 -0.8287992477416992 -0.5544344186782837
vn 0.01887759193778038 -0.814664363861084 -0.5796254277229309
vn -0.2663170397281647 -0.8954140543937683 -0.3568037748336792
vn -0.22254863381385803 -0.9265774488449097 -0.30319350957870483
vn -0.5974885821342468 -0.7440364956855774 -0.2990269064903259
vn -0.6016938090324402 -0.7562305927276611 -0.25706008076667786
vn -0.780223548412323 -0.4475541412830353 -0.43697428703308105
vn -0.8235145211219788 -0.4049713909626007 -0.3972681760787964
vn -0.9641047716140747 0.0037719053216278553 0.26549527049064636
vn -0.8102951049804688 0.5382983088493347 -0.23163928091526031
vn -0.22848953306674957 0.6860931515693665 -0.6907016038894653
vn 0.4513104557991028 0.3885621428489685 -0.8033295273780823
vn 0.8182802796363831 -0.21665044128894806 -0.5324283838272095
vn 0.6743116974830627 -0.7383660078048706 -0.010923261754214764
vn 0.0790955126285553 -0.9016619324684143 0.42514660954475403
vn -0.5891402363777161 -0.5878063440322876 0.5544344186782837
vn -0.06900918483734131 0.08993452042341232 0.9935539960861206
vn -0.2461860328912735 0.5267099738121033 0.8136147856712341
vn -0.21832220256328583 0.8645599484443665 0.45262736082077026
vn 0.21691091358661652 0.9503488540649414 0.22312943637371063
vn 0.6486768126487732 0.7580492496490479 0.06767380982637405
vn 0.8612200617790222 0.39500272274017334 0.3198012113571167
vn 0.7967407703399658 -0.007539486512541771 0.6042742133140564
vn 0.40953168272972107 -0.037614915519952774 0.9115201234817505
vn 0.39237409830093384 0.5817185044288635 0.7124928832054138
vn 0.6965588331222534 -0.05283117666840553 -0.715552031993866
vn 0.44724372029304504 -0.44857877492904663 -0.7737894654273987
vn 0.5580379366874695 -0.04534139484167099 -0.8285757899284363
vn 0.39198943972587585 -0.39466404914855957 -0.8310141563415527
vn 0.02267533540725708 -0.5337949991226196 -0.8453097939491272
vn 0.03213245049118996 -0.6360065937042236 -0.7710143327713013
vn -0.3431459069252014 -0.3645296096801758 -0.865661084651947
vn -0.37734708189964294 -0.4281306564807892 -0.8211658596992493
vn 0.49174708127975464 0.36007606983184814 -0.7927988767623901
vn 0.4337104856967926 0.3244569003582001 -0.8406086564064026
vn 0.08658753335475922 0.5007450580596924 -0.8612531423568726
vn 0.11633697897195816 0.6017998456954956 -0.790128231048584
vn -0.28524789214134216 0.37846696376800537 -0.8805659413337708
vn -0.31745120882987976 0.4742482602596283 -0.8211658596992493
vn -0.473381370306015 0.022664574906229973 -0.8805659413337708
vn -0.5407983660697937 0.030235322192311287 -0.8406086564064026
vn -0.9701321721076965 0.056573767215013504 -0.23588760197162628
vn -0.7307986617088318 -0.6520870327949524 -0.2017817199230194
vn -0.05285446345806122 -0.9844662547111511 -0.16742929816246033
vn 0.6590734720230103 -0.7417513132095337 -0.1242060661315918
vn 0.9893755316734314 -0.06792200356721878 -0.12854042649269104
vn 0.7463419437408447 0.6503409743309021 -0.1415284425020218
vn 0.07540857046842575 0.977398157119751 -0.1975002884864807
vn -0.6431230306625366 0.7338184118270874 -0.21886809170246124
vn -0.48742854595184326 0.5300745964050293 0.6938546895980835
vn 0.0018851198256015778 0.6300530433654785 0.7765498161315918
vn 0.4750337600708008 0.46304237842559814 0.7482877969741821
vn 0.5738275647163391 -0.02259286493062973 0.8186644315719604
vn 0.41499680280685425 -0.4962032437324524 0.762600839138031
vn -0.07519174367189407 -0.6048274040222168 0.7927988767623901
vn -0.5544476509094238 -0.440091073513031 0.7063339352607727
vn -0.6609670519828796 0.05646103620529175 0.7482877969741821
vn -0.04456167668104172 0.017959969118237495 0.9988451600074768
vn -0.8652783036231995 -0.15768253803253174 -0.4758462607860565
vn -0.7265304327011108 -0.5203822255134583 -0.4487268626689911
vn -0.8365318775177002 -0.1798688769340515 -0.5175535082817078
vn -0.7177890539169312 -0.4935135841369629 -0.4911448359489441
vn -0.7469714879989624 0.14641523361206055 -0.6485338807106018
vn -0.735453188419342 0.09047152101993561 -0.6715083718299866
vn -0.47337618470191956 0.1848188191652298 -0.8612531423568726
vn -0.48275938630104065 0.17035330832004547 -0.8590245246887207
vn -0.22923408448696136 0.01132060494273901 -0.9733054637908936
vn -0.14502371847629547 0.06983973830938339 -0.986960232257843
vn -0.06935662031173706 -0.28443238139152527 -0.9561840295791626
vn -0.1091819778084755 -0.28953027725219727 -0.9509214162826538
vn -0.20011243224143982 -0.5571728348731995 -0.8059239983558655
vn -0.12025135010480881 -0.6045444011688232 -0.7874425053596497
vn -0.44092226028442383 -0.6730637550354004 -0.5937783122062683
vn -0.45103785395622253 -0.6503709554672241 -0.6112139225006104
vn -0.6609774231910706 -0.628977358341217 0.40926313400268555
vn 0.5242491960525513 -0.7973366379737854 -0.2990269064903259
vn -0.047156549990177155 -0.9875343441963196 0.15017375349998474
vn 0.7545688152313232 -0.1650255173444748 -0.6351318359375
vn 0.47681403160095215 0.5355809926986694 -0.6969945430755615
vn -0.12415856122970581 0.9021155834197998 -0.41324591636657715
vn -0.712384045124054 0.7017048001289368 0.010923261754214764
vn -0.9263615012168884 0.07536589354276657 0.3690181374549866
vn -0.15451264381408691 0.27763015031814575 0.9481810927391052
vn 0.06209134683012962 0.660461962223053 0.7482877969741821
vn 0.3817480504512787 0.8144457936286926 0.43697428703308105
vn 0.7592219114303589 0.5572044849395752 0.3363112509250641
vn 0.9469519853591919 0.12783843278884888 0.2948545813560486
vn 0.7893864512443542 -0.2307126671075821 0.5688942670822144
vn 0.4217716157436371 -0.4204407036304474 0.8033295273780823
vn 0.5271415114402771 0.2616192698478699 0.8085030317306519
vn 0.08469151705503464 -0.13178256154060364 0.9876541495323181
vn -0.20891205966472626 0.4673677682876587 -0.8590245246887207
vn -0.588861882686615 0.33270350098609924 -0.736579954624176
vn -0.5892393589019775 0.4243726134300232 -0.6875353455543518
vn -0.8226751089096069 0.0603882297873497 -0.5652954578399658
vn -0.7847883701324463 0.045288436114788055 -0.6181069612503052
vn -0.741044819355011 -0.3508797883987427 -0.5724822878837585
vn -0.722629189491272 -0.32283830642700195 -0.6112139225006104
vn -0.4421195983886719 -0.5448707342147827 -0.7124928832054138
vn -0.4267711341381073 -0.62340247631073 -0.6551609039306641
vn -0.06224526837468147 -0.534351646900177 -0.8429672718048096
vn -0.11055804789066315 -0.4843864440917969 -0.8678402304649353
vn 0.07572747021913528 -0.19393602013587952 -0.9780870079994202
vn 0.19813862442970276 -0.21553005278110504 -0.9561840295791626
vn 0.06875468045473099 0.19198063015937805 -0.9789873361587524
vn 0.009469754062592983 0.16500352323055267 -0.9862475395202637
vn -0.26311811804771423 0.38016802072525024 -0.8867024183273315
vn 0.11488692462444305 0.9317196011543274 -0.34452807903289795
vn -0.5617249011993408 0.8270904421806335 -0.01966099627315998
vn -0.9542641043663025 0.22444087266921997 0.1975002884864807
vn -0.824185311794281 -0.5186654925346375 0.22738653421401978
vn -0.26124414801597595 -0.9652504920959473 0.006554040592163801
vn 0.4229089915752411 -0.8582861423492432 -0.29067665338516235
vn 0.8055112361907959 -0.26013776659965515 -0.5324283838272095
vn 0.6854361891746521 0.4886590540409088 -0.5398051738739014
vn 0.8142605423927307 0.40768563747406006 0.41324591636657715
vn 0.8656535148620605 -0.07531432807445526 0.4949462115764618
vn 0.6359241604804993 -0.509543776512146 0.5796254277229309
vn 0.20588980615139008 -0.5167444348335266 0.8310141563415527
vn -0.21695980429649353 -0.28068581223487854 0.9349566102027893
vn -0.2256898730993271 0.2177138477563858 0.949560284614563
vn -0.03769692778587341 0.642426073551178 0.7654199600219727
vn 0.4360682964324951 0.6572897434234619 0.6146662831306458
vn 0.4054705798625946 0.0895162969827652 0.9097144603729248
vn -0.7243325710296631 -0.6789504289627075 -0.11986933648586273
vn -0.7680531144142151 -0.6214712858200073 -0.15449213981628418
vn -0.4154057204723358 -0.779923677444458 -0.46814218163490295
vn -0.5187501907348633 -0.7024270296096802 -0.48733407258987427
vn -0.2636715769767761 -0.5020711421966553 -0.8236515522003174
vn -0.3666478097438812 -0.46928781270980835 -0.8033295273780823
vn -0.3846648037433624 -0.07145367562770844 -0.9202865362167358
vn -0.24299460649490356 -0.041354864835739136 -0.9691457152366638
vn -0.5711795687675476 0.2738681137561798 -0.7737894654273987
vn -0.47537338733673096 0.3528550863265991 -0.8059239983558655
vn -0.9567109942436218 -0.28306248784065247 0.06767380982637405
vn -0.9612131118774414 -0.2757980227470398 0.002184694167226553
vn -0.9813355803489685 0.16536776721477509 -0.0981530249118805
vn -0.9829697608947754 0.13543733954429626 -0.1242060661315918
vn -0.8187018036842346 0.36313146352767944 -0.44481781125068665
vn -0.427534818649292 0.9014622569084167 -0.06767380982637405
vn 0.028310501947999 0.7578161954879761 -0.651853621006012
vn 0.3565016984939575 0.14049756526947021 -0.9236704111099243
vn 0.4013201892375946 -0.5793660879135132 -0.7094202041625977
vn 0.11116923391819 -0.9830403923988342 -0.1458524912595749
vn -0.324485719203949 -0.8326783180236816 0.4487268626689911
vn -0.6699405312538147 -0.21886670589447021 0.7094202041625977
vn -0.7038559913635254 0.5020555853843689 0.5025205612182617
vn 0.1597393900156021 0.5403762459754944 0.8261215686798096
vn 0.43687885999679565 0.7818401455879211 0.44481781125068665
vn 0.690825879573822 0.7228594422340393 -0.0152922747656703
vn 0.9543148875236511 0.2755644917488098 -0.11553031951189041
vn 0.9675878882408142 -0.2465636432170868 -0.05459024757146835
vn 0.7918136715888977 -0.4673134982585907 0.3932546079158783
vn 0.43718212842941284 -0.4345181882381439 0.7874425053596497
vn 0.27346208691596985 0.037421755492687225 0.961154580116272
vn 0.8080435991287231 0.20902840793132782 0.5507928133010864
vn -0.7686986923217773 0.467071533203125 -0.43697428703308105
vn 0.20856401324272156 0.5195798873901367 -0.8285757899284363
vn -0.15720032155513763 0.674195408821106 -0.7216291427612305
vn -0.09985197335481644 0.7282873392105103 -0.677958071231842
vn -0.5072309970855713 0.6178767085075378 -0.6007870435714722
vn -0.4964313805103302 0.5844441652297974 -0.641857385635376
vn -0.7137506604194641 0.2803196609020233 -0.641857385635376
vn -0.6878367066383362 0.2833787798881531 -0.6682642698287964
vn -0.6210005283355713 -0.052854932844638824 -0.7820260524749756
vn -0.6623082160949707 -0.12019121646881104 -0.7395281791687012
vn -0.3343116044998169 -0.2783304750919342 -0.9004265069961548
vn -0.33662986755371094 -0.21470576524734497 -0.916832447052002
vn -0.005691899918019772 -0.12190518528223038 -0.9925254583358765
vn 0.06527592241764069 -0.21559326350688934 -0.9742990136146545
vn 0.2369939386844635 0.15721598267555237 -0.9587059020996094
vn 0.1825600564479828 0.17185087502002716 -0.9680594801902771
vn 0.12157686054706573 0.501146674156189 -0.8567795157432556
vn 0.7363089323043823 0.6309770941734314 -0.24437066912651062
vn 0.14111587405204773 0.9887181520462036 0.05022686347365379
vn -0.5680322647094727 0.7978869080543518 0.2017817199230194
vn -0.9746171236038208 0.157802551984787 0.15880759060382843
vn -0.8373240232467651 -0.5393391251564026 -0.08945280313491821
vn -0.23894540965557098 -0.9014816284179688 -0.36088213324546814
vn 0.4670144021511078 -0.7031862139701843 -0.5361219048500061
vn 0.8783623576164246 -0.07547708600759506 -0.4719987213611603
vn 0.833440899848938 -0.27436986565589905 0.4796847105026245
vn 0.5416035652160645 -0.665330708026886 0.5138099193572998
vn 0.0809878557920456 -0.8307034969329834 0.5507928133010864
vn -0.25405293703079224 -0.5653648972511292 0.7847417593002319
vn -0.4163813591003418 -0.11156905442476273 0.9023185968399048
vn -0.09543225169181824 0.2500058710575104 0.9635298252105713
vn 0.3414536714553833 0.4437021315097809 0.8285757899284363
vn 0.707493782043457 0.14961211383342743 0.6907016038894653
vn 0.2861591577529907 -0.26086854934692383 0.9219872951507568
vn -0.26824986934661865 0.9184492826461792 -0.29067665338516235
vn -0.33394336700439453 0.8690745830535889 -0.3649536371231079
vn -0.6890669465065002 0.7050915956497192 -0.16742929816246033
vn -0.6782006621360779 0.6915484666824341 -0.24860523641109467
vn 0.07913821190595627 0.8059105277061462 -0.5867242813110352
vn -0.03773200511932373 0.782476544380188 -0.6215357780456543
vn 0.1288207471370697 0.4600719213485718 -0.8784868121147156
vn 0.030239945277571678 0.4806501865386963 -0.8763908743858337
vn -0.15550434589385986 0.14477968215942383 -0.9771679639816284
vn -0.037828002125024796 0.021840007975697517 -0.9990455508232117
vn -0.4722934067249298 -0.14154142141342163 -0.8700028657913208
vn -0.4921206533908844 -0.03020452708005905 -0.8700028657913208
vn -0.7874851226806641 0.04530520364642143 -0.6146662831306458
vn -0.8214309215545654 -0.07544728368520737 -0.5652954578399658
vn -0.9021427631378174 0.31495901942253113 -0.2948545813560486
vn -0.8661088347434998 0.35006648302078247 -0.3568037748336792
vn -0.5851483345031738 0.6051543951034546 0.5398051738739014
vn -0.7933340072631836 -0.595061719417572 -0.12854042649269104
vn -0.9334178566932678 -0.037712257355451584 0.3568037748336792
vn -0.23974531888961792 -0.75985187292099 -0.6042742133140564
vn 0.39776140451431274 -0.4191530644893646 -0.8161473870277405
vn 0.7578228116035461 0.20892196893692017 -0.6181069612503052
vn 0.6083500981330872 0.7801520228385925 -0.1458524912595749
vn 0.06406433880329132 0.9365875124931335 0.34452807903289795
vn 0.4580036401748657 0.25282204151153564 0.8522403836250305
vn 0.8324600458145142 0.06031240150332451 0.5507928133010864
vn 0.947899580001831 -0.26831570267677307 0.17173540592193604
vn 0.6926013827323914 -0.7112908363342285 0.11986933648586273
vn 0.24453946948051453 -0.9527217745780945 0.18033768236637115
vn -0.07346533983945847 -0.8240824937820435 0.5616858005523682
vn -0.25191110372543335 -0.44134318828582764 0.8612531423568726
vn 0.4890699088573456 -0.49439695477485657 0.7185974717140198
vn 0.06223861500620842 -0.047950852662324905 0.9969087839126587
vn -0.27012941241264343 0.030164683237671852 -0.962351381778717
vn -0.6373251676559448 -0.06039685755968094 -0.7682244777679443
vn -0.350827693939209 0.14378274977207184 -0.9253358840942383
vn -0.6434312462806702 0.011336119845509529 -0.7654199600219727
vn -0.861052393913269 0.11669190227985382 -0.4949462115764618
vn -0.8850384950637817 0.033970363438129425 -0.4642767012119293
vn -0.8699089288711548 0.4129377007484436 -0.26970529556274414
vn -0.8950764536857605 0.3784114420413971 -0.23588760197162628
vn -0.08271060138940811 0.4109647274017334 -0.9078915119171143
vn -0.15383924543857574 0.43188053369522095 -0.888714075088501
vn -0.15197324752807617 0.7192197442054749 -0.677958071231842
vn -0.04340748488903046 0.7308433651924133 -0.681163489818573
vn -0.35482853651046753 0.8405952453613281 -0.40926313400268555
vn -0.2750994563102722 0.8808730840682983 -0.3852050006389618
vn -0.6585680842399597 0.7159827947616577 -0.23163928091526031
vn -0.6529028415679932 0.7356603741645813 -0.18033768236637115
vn -0.4230552017688751 0.6874743700027466 0.590256929397583
vn -0.8480809926986694 0.0715685710310936 0.5250110030174255
vn -0.8452133536338806 -0.5301270484924316 0.06767380982637405
vn -0.4000847041606903 -0.7785540819168091 -0.4835140109062195
vn 0.21357016265392303 -0.5057209730148315 -0.8358433246612549
vn 0.6494737863540649 0.09789242595434189 -0.7540562748908997
vn 0.6328393816947937 0.7088556289672852 -0.31150925159454346
vn 0.1966189593076706 0.946182370185852 0.25706008076667786
vn 0.6303549408912659 0.23611602187156677 0.7395281791687012
vn 0.9141958951950073 0 0.405272513628006
vn 0.9361209869384766 -0.34741532802581787 0.05459024757146835
vn 0.6527445316314697 -0.7527831792831421 0.08510008454322815
vn 0.2262154072523117 -0.9450839161872864 0.23588760197162628
vn 0.0018859859555959702 -0.7696189284324646 0.6385006904602051
vn -0.08750535547733307 -0.36891239881515503 0.9253358840942383
vn 0.2587362825870514 -0.015000071376562119 0.9658315181732178
vn 0.5781990885734558 -0.4862612783908844 0.6551609039306641
s on
f 1//1 2//2 3//3
f 3//3 2//2 4//4
f 2//2 5//5 4//4
f 4//4 5//5 6//6
f 1//1 7//7 2//2
f 2//2 7//7 8//8
f 8//8 7//7 9//9
f 7//7 10//10 9//9
f 10//10 11//11 9//9
f 9//9 11//11 12//12
f 12//12 11//11 13//13
f 11//11 14//14 13//13
f 14//14 15//15 13//13
f 13//13 15//15 16//16
f 15//15 6//6 16//16
f 16//16 6//6 17//17
f 6//6 5//5 17//17
f 17//17 5//5 18//18
f 5//5 19//19 18//18
f 18//18 19//19 20//20
f 20//20 19//19 21//21
f 19//19 5//5 21//21
f 21//21 5//5 22//22
f 5//5 2//2 22//22
f 22//22 2//2 8//8
f 17//17 18//18 16//16
f 16//16 18//18 23//23
f 18//18 24//24 23//23
f 24//24 25//25 23//23
f 23//23 25//25 16//16
f 16//16 25//25 13//13
f 25//25 26//26 13//13
f 13//13 26//26 12//12
f 12//12 26//26 9//9
f 26//26 27//27 9//9
f 9//9 27//27 28//28
f 27//27 29//29 28//28
f 28//28 29//29 21//21
f 29//29 30//30 21//21
f 21//21 30//30 20//20
f 30//30 31//31 20//20
f 20//20 31//31 32//32
f 31//31 24//24 32//32
f 24//24 18//18 32//32
f 32//32 18//18 20//20
f 9//9 28//28 8//8
f 8//8 28//28 22//22
f 28//28 21//21 22//22
f 29//29 31//31 30//30
f 31//31 33//33 24//24
f 24//24 33//33 25//25
f 33//33 34//34 25//25
f 25//25 34//34 26//26
f 26//26 34//34 27//27
f 34//34 35//35 27//27
f 27//27 35//35 29//29
f 29//29 35//35 31//31
f 35//35 34//34 31//31
f 31//31 34//34 33//33
f 36//36 38//38 37//37
f 37//37 38//38 39//39
f 36//36 37//37 40//40
f 37//37 41//41 40//40
f 41//41 42//42 40//40
f 40//40 42//42 43//43
f 43//43 42//42 44//44
f 42//42 45//45 44//44
f 44//44 45//45 46//46
f 46//46 45//45 47//47
f 45//45 42//42 47//47
f 47//47 42//42 48//48
f 42//42 41//41 48//48
f 48//48 41//41 49//49
f 41//41 50//50 49//49
f 50//50 51//51 49//49
f 51//51 52//52 49//49
f 49//49 52//52 48//48
f 52//52 47//47 48//48
f 41//41 37//37 50//50
f 37//37 39//39 50//50
f 50//50 39//39 53//53
f 53//53 39//39 54//54
f 54//54 39//39 55//55
f 39//39 38//38 55//55
f 38//38 56//56 55//55
f 56//56 57//57 55//55
f 55//55 57//57 58//58
f 57//57 46//46 58//58
f 58//58 46//46 59//59
f 46//46 60//60 59//59
f 59//59 60//60 61//61
f 60//60 47//47 61//61
f 61//61 47//47 62//62
f 47//47 52//52 62//62
f 62//62 52//52 63//63
f 52//52 64//64 63//63
f 63//63 64//64 65//65
f 65//65 64//64 51//51
f 64//64 52//52 51//51
f 58//58 59//59 55//55
f 59//59 54//54 55//55
f 60//60 46//46 47//47
f 62//62 63//63 61//61
f 61//61 63//63 66//66
f 63//63 65//65 66//66
f 65//65 67//67 66//66
f 66//66 67//67 61//61
f 67//67 68//68 61//61
f 61//61 68//68 59//59
f 68//68 69//69 59//59
f 59//59 69//69 54//54
f 54//54 69//69 53//53
f 69//69 70//70 53//53
f 53//53 70//70 50//50
f 70//70 71//71 50//50
f 50//50 71//71 51//51
f 51//51 71//71 65//65
f 71//71 70//70 65//65
f 65//65 70//70 72//72
f 70//70 69//69 72//72
f 72//72 69//69 67//67
f 69//69 68//68 67//67
f 65//65 72//72 67//67
f 73//73 75//75 74//74
f 75//75 76//76 74//74
f 74//74 76//76 77//77
f 76//76 78//78 77//77
f 77//77 78//78 79//79
f 79//79 78//78 80//80
f 78//78 81//81 80//80
f 80//80 81//81 82//82
f 81//81 83//83 82//82
f 83//83 84//84 82//82
f 82//82 84//84 85//85
f 84//84 86//86 85//85
f 85//85 86//86 87//87
f 86//86 88//88 87//87
f 87//87 88//88 89//89
f 88//88 74//74 89//89
f 89//89 74//74 90//90
f 90//90 74//74 91//91
f 74//74 77//77 91//91
f 77//77 79//79 91//91
f 91//91 79//79 92//92
f 92//92 79//79 93//93
f 79//79 80//80 93//93
f 80//80 82//82 93//93
f 93//93 82//82 94//94
f 94//94 82//82 95//95
f 82//82 85//85 95//95
f 85//85 87//87 95//95
f 95//95 87//87 96//96
f 87//87 89//89 96//96
f 89//89 97//97 96//96
f 96//96 97//97 95//95
f 97//97 98//98 95//95
f 98//98 99//99 95//95
f 95//95 99//99 94//94
f 94//94 99//99 93//93
f 99//99 100//100 93//93
f 100//100 101//101 93//93
f 93//93 101//101 92//92
f 92//92 101//101 91//91
f 101//101 102//102 91//91
f 102//102 103//103 91//91
f 91//91 103//103 90//90
f 90//90 103//103 89//89
f 103//103 104//104 89//89
f 89//89 104//104 97//97
f 97//97 104//104 105//105
f 104//104 103//103 105//105
f 103//103 102//102 105//105
f 102//102 101//101 105//105
f 101//101 100//100 105//105
f 100//100 99//99 105//105
f 99//99 98//98 105//105
f 105//105 98//98 97//97
f 86//86 73//73 88//88
f 88//88 73//73 74//74
f 106//106 108//108 107//107
f 107//107 108//108 109//109
f 106//106 107//107 110//110
f 107//107 111//111 110//110
f 110//110 111//111 112//112
f 111//111 113//113 112//112
f 113//113 114//114 112//112
f 112//112 114//114 115//115
f 115//115 114//114 116//116
f 114//114 117//117 116//116
f 117//117 118//118 116//116
f 116//116 118//118 119//119
f 119//119 118//118 120//120
f 118//118 121//121 120//120
f 120//120 121//121 109//109
f 121//121 122//122 109//109
f 109//109 122//122 107//107
f 120//120 109//109 108//108
f 118//118 123//123 121//121
f 123//123 124//124 121//121
f 121//121 124//124 122//122
f 118//118 117//117 123//123
f 123//123 117//117 125//125
f 125//125 117//117 126//126
f 117//117 114//114 126//126
f 114//114 113//113 126//126
f 126//126 113//113 127//127
f 127//127 113//113 128//128
f 113//113 111//111 128//128
f 111//111 107//107 128//128
f 128//128 107//107 129//129
f 107//107 122//122 129//129
f 122//122 130//130 129//129
f 129//129 130//130 128//128
f 130//130 131//131 128//128
f 131//131 132//132 128//128
f 128//128 132//132 127//127
f 127//127 132//132 126//126
f 132//132 133//133 126//126
f 133//133 134//134 126//126
f 126//126 134//134 125//125
f 125//125 134//134 123//123
f 134//134 135//135 123//123
f 123//123 135//135 136//136
f 135//135 137//137 136//136
f 136//136 137//137 138//138
f 137//137 130//130 138//138
f 130//130 122//122 138//138
f 138//138 122//122 136//136
f 122//122 124//124 136//136
f 136//136 124//124 123//123
f 135//135 134//134 137//137
f 134//134 133//133 137//137
f 133//133 132//132 137//137
f 132//132 131//131 137//137
f 137//137 131//131 130//130
f 139//139 141//141 140//140
f 140//140 141//141 142//142
f 139//139 140//140 143//143
f 140//140 144//144 143//143
f 143//143 144//144 145//145
f 144//144 146//146 145//145
f 146//146 147//147 145//145
f 145//145 147//147 148//148
f 148//148 147//147 149//149
f 147//147 150//150 149//149
f 150//150 151//151 149//149
f 149//149 151//151 152//152
f 152//152 151//151 153//153
f 151//151 154//154 153//153
f 153//153 154//154 142//142
f 154//154 155//155 142//142
f 142//142 155//155 140//140
f 153//153 142//142 141//141
f 151//151 156//156 154//154
f 156//156 157//157 154//154
f 154//154 157//157 155//155
f 151//151 150//150 156//156
f 156//156 150//150 158//158
f 158//158 150//150 159//159
f 150//150 147//147 159//159
f 147//147 146//146 159//159
f 159//159 146//146 160//160
f 160//160 146//146 161//161
f 146//146 144//144 161//161
f 144//144 140//140 161//161
f 161//161 140//140 162//162
f 140//140 155//155 162//162
f 155//155 163//163 162//162
f 162//162 163//163 161//161
f 163//163 164//164 161//161
f 164//164 165//165 161//161
f 161//161 165//165 160//160
f 160//160 165//165 159//159
f 165//165 166//166 159//159
f 166//166 167//167 159//159
f 159//159 167//167 158//158
f 158//158 167//167 156//156
f 167//167 168//168 156//156
f 156//156 168//168 169//169
f 168//168 170//170 169//169
f 169//169 170//170 171//171
f 170//170 163//163 171//171
f 163//163 155//155 171//171
f 171//171 155//155 169//169
f 155//155 157//157 169//169
f 169//169 157//157 156//156
f 168//168 167//167 170//170
f 167//167 166//166 170//170
f 166//166 165//165 170//170
f 165//165 164//164 170//170
f 170//170 164//164 163//163
f 172//172 174//174 173//173
f 173//173 174//174 175//175
f 175//175 174//174 176//176
f 174//174 177//177 176//176
f 176//176 177//177 178//178
f 177//177 179//179 178//178
f 172//172 173//173 180//180
f 173//173 181//181 180//180
f 181//181 182//182 180//180
f 180//180 182//182 183//183
f 182//182 184//184 183//183
f 183//183 184//184 185//185
f 184//184 186//186 185//185
f 185//185 186//186 187//187
f 187//187 186//186 179//179
f 179//179 186//186 178//178
f 186//186 188//188 178//178
f 188//188 189//189 178//178
f 189//189 190//190 178//178
f 178//178 190//190 176//176
f 176//176 190//190 175//175
f 190//190 191//191 175//175
f 191//191 192//192 175//175
f 175//175 192//192 173//173
f 173//173 192//192 181//181
f 192//192 193//193 181//181
f 193//193 194//194 181//181
f 181//181 194//194 182//182
f 182//182 194//194 184//184
f 194//194 195//195 184//184
f 184//184 195//195 188//188
f 195//195 196//196 188//188
f 196//196 197//197 188//188
f 197//197 198//198 188//188
f 188//188 198//198 189//189
f 189//189 198//198 190//190
f 198//198 199//199 190//190
f 199//199 200//200 190//190
f 190//190 200//200 191//191
f 191//191 200//200 192//192
f 200//200 201//201 192//192
f 201//201 202//202 192//192
f 192//192 202//202 193//193
f 193//193 202//202 194//194
f 202//202 203//203 194//194
f 194//194 203//203 196//196
f 196//196 203//203 204//204
f 203//203 202//202 204//204
f 202//202 201//201 204//204
f 201//201 200//200 204//204
f 200//200 199//199 204//204
f 199//199 198//198 204//204
f 198//198 197//197 204//204
f 204//204 197//197 196//196
f 184//184 188//188 186//186
f 194//194 196//196 195//195
f 205//205 207//207 206//206
f 207//207 208//208 206//206
f 208//208 209//209 206//206
f 206//206 209//209 210//210
f 209//209 211//211 210//210
f 210//210 211//211 212//212
f 205//205 213//213 207//207
f 207//207 213//213 214//214
f 214//214 213//213 215//215
f 213//213 216//216 215//215
f 215//215 216//216 217//217
f 216//216 218//218 217//217
f 217//217 218//218 219//219
f 218//218 220//220 219//219
f 220//220 212//212 219//219
f 212//212 211//211 219//219
f 219//219 211//211 221//221
f 221//221 211//211 222//222
f 222//222 211//211 223//223
f 211//211 209//209 223//223
f 209//209 208//208 223//223
f 223//223 208//208 224//224
f 224//224 208//208 225//225
f 208//208 207//207 225//225
f 207//207 214//214 225//225
f 225//225 214//214 226//226
f 226//226 214//214 227//227
f 214//214 215//215 227//227
f 215//215 217//217 227//227
f 227//227 217//217 228//228
f 217//217 221//221 228//228
f 221//221 229//229 228//228
f 228//228 229//229 227//227
f 229//229 230//230 227//227
f 230//230 231//231 227//227
f 227//227 231//231 226//226
f 226//226 231//231 225//225
f 231//231 232//232 225//225
f 232//232 233//233 225//225
f 225//225 233//233 224//224
f 224//224 233//233 223//223
f 233//233 234//234 223//223
f 234//234 235//235 223//223
f 223//223 235//235 222//222
f 222//222 235//235 221//221
f 235//235 236//236 221//221
f 221//221 236//236 229//229
f 229//229 236//236 237//237
f 236//236 235//235 237//237
f 235//235 234//234 237//237
f 234//234 233//233 237//237
f 233//233 232//232 237//237
f 232//232 231//231 237//237
f 231//231 230//230 237//237
f 237//237 230//230 229//229
f 217//217 219//219 221//221
f 238//238 239//239 240//240
f 239//239 241//241 240//240
f 238//238 240//240 242//242
f 240//240 243//243 242//242
f 242//242 243//243 244//244
f 243//243 245//245 244//244
f 245//245 246//246 244//244
f 244//244 246//246 247//247
f 247//247 246//246 248//248
f 246//246 249//249 248//248
f 249//249 250//250 248//248
f 248//248 250//250 251//251
f 251//251 250//250 252//252
f 250//250 253//253 252//252
f 252//252 253//253 241//241
f 253//253 254//254 241//241
f 241//241 254//254 240//240
f 252//252 241//241 239//239
f 250//250 255//255 253//253
f 255//255 256//256 253//253
f 253//253 256//256 254//254
f 250//250 249//249 255//255
f 255//255 249//249 257//257
f 257//257 249//249 258//258
f 249//249 246//246 258//258
f 246//246 245//245 258//258
f 258//258 245//245 259//259
f 259//259 245//245 260//260
f 245//245 243//243 260//260
f 243//243 240//240 260//260
f 260//260 240//240 261//261
f 240//240 254//254 261//261
f 254//254 262//262 261//261
f 261//261 262//262 260//260
f 262//262 263//263 260//260
f 263//263 264//264 260//260
f 260//260 264//264 259//259
f 259//259 264//264 258//258
f 264//264 265//265 258//258
f 265//265 266//266 258//258
f 258//258 266//266 257//257
f 257//257 266//266 255//255
f 266//266 267//267 255//255
f 255//255 267//267 268//268
f 267//267 269//269 268//268
f 268//268 269//269 270//270
f 269//269 262//262 270//270
f 262//262 254//254 270//270
f 270//270 254//254 268//268
f 254//254 256//256 268//268
f 268//268 256//256 255//255
f 267//267 266//266 269//269
f 266//266 265//265 269//269
f 265//265 264//264 269//269
f 264//264 263//263 269//269
f 269//269 263//263 262//262
f 271//271 273//273 272//272
f 273//273 274//274 272//272
f 272//272 274//274 275//275
f 274//274 276//276 275//275
f 275//275 276//276 277//277
f 277//277 276//276 278//278
f 276//276 279//279 278//278
f 279//279 280//280 278//278
f 278//278 280//280 281//281
f 281//281 280//280 282//282
f 280//280 283//283 282//282
f 283//283 284//284 282//282
f 282//282 284//284 285//285
f 284//284 286//286 285//285
f 285//285 286//286 287//287
f 286//286 272//272 287//287
f 287//287 272//272 288//288
f 288//288 272//272 289//289
f 272//272 275//275 289//289
f 275//275 277//277 289//289
f 289//289 277//277 290//290
f 290//290 277//277 291//291
f 277//277 278//278 291//291
f 278//278 281//281 291//291
f 291//291 281//281 292//292
f 292//292 281//281 293//293
f 281//281 282//282 293//293
f 282//282 285//285 293//293
f 293//293 285//285 294//294
f 285//285 287//287 294//294
f 287//287 295//295 294//294
f 294//294 295//295 293//293
f 295//295 296//296 293//293
f 296//296 297//297 293//293
f 293//293 297//297 292//292
f 292//292 297//297 291//291
f 297//297 298//298 291//291
f 298//298 299//299 291//291
f 291//291 299//299 290//290
f 290//290 299//299 289//289
f 299//299 300//300 289//289
f 300//300 301//301 289//289
f 289//289 301//301 288//288
f 288//288 301//301 287//287
f 301//301 302//302 287//287
f 287//287 302//302 295//295
f 295//295 302//302 303//303
f 302//302 301//301 303//303
f 301//301 300//300 303//303
f 300//300 299//299 303//303
f 299//299 298//298 303//303
f 298//298 297//297 303//303
f 297//297 296//296 303//303
f 303//303 296//296 295//295
f 284//284 271//271 286//286
f 286//286 271//271 272//272
f 304//304 306//306 305//305
f 305//305 306//306 307//307
f 306//306 308//308 307//307
f 307//307 308//308 309//309
f 309//309 308//308 310//310
f 308//308 311//311 310//310
f 310//310 311//311 312//312
f 311//311 313//313 312//312
f 304//304 305//305 314//314
f 305//305 315//315 314//314
f 314//314 315//315 316//316
f 315//315 317//317 316//316
f 316//316 317//317 318//318
f 317//317 319//319 318//318
f 318//318 319//319 312//312
f 319//319 320//320 312//312
f 320//320 321//321 312//312
f 312//312 321//321 310//310
f 310//310 321//321 309//309
f 321//321 322//322 309//309
f 322//322 323//323 309//309
f 309//309 323//323 307//307
f 307//307 323//323 305//305
f 323//323 324//324 305//305
f 324//324 325//325 305//305
f 305//305 325//325 315//315
f 315//315 325//325 317//317
f 325//325 326//326 317//317
f 317//317 326//326 319//319
f 326//326 327//327 319//319
f 327//327 328//328 319//319
f 328//328 329//329 319//319
f 319//319 329//329 320//320
f 320//320 329//329 321//321
f 329//329 330//330 321//321
f 330//330 331//331 321//321
f 321//321 331//331 322//322
f 322//322 331//331 323//323
f 331//331 332//332 323//323
f 332//332 333//333 323//323
f 323//323 333//333 324//324
f 324//324 333//333 325//325
f 333//333 334//334 325//325
f 325//325 334//334 327//327
f 327//327 334//334 335//335
f 334//334 333//333 335//335
f 333//333 332//332 335//335
f 332//332 331//331 335//335
f 331//331 330//330 335//335
f 330//330 329//329 335//335
f 329//329 328//328 335//335
f 335//335 328//328 327//327
f 316//316 318//318 336//336
f 336//336 318//318 313//313
f 318//318 312//312 313//313
f 325//325 327//327 326//326
f 337//337 339//339 338//338
f 339//339 340//340 338//338
f 338//338 340//340 341//341
f 340//340 342//342 341//341
f 341//341 342//342 343//343
f 343//343 342//342 344//344
f 342//342 345//345 344//344
f 345//345 346//346 344//344
f 344//344 346//346 347//347
f 347//347 346//346 348//348
f 346//346 349//349 348//348
f 349//349 350//350 348//348
f 348//348 350//350 351//351
f 350//350 352//352 351//351
f 351//351 352//352 353//353
f 352//352 338//338 353//353
f 353//353 338//338 354//354
f 354//354 338//338 355//355
f 338//338 341//341 355//355
f 341//341 343//343 355//355
f 355//355 343//343 356//356
f 356//356 343//343 357//357
f 343//343 344//344 357//357
f 344//344 347//347 357//357
f 357//357 347//347 358//358
f 358//358 347//347 359//359
f 347//347 348//348 359//359
f 348//348 351//351 359//359
f 359//359 351//351 360//360
f 351//351 353//353 360//360
f 353//353 361//361 360//360
f 360//360 361//361 359//359
f 361//361 362//362 359//359
f 362//362 363//363 359//359
f 359//359 363//363 358//358
f 358//358 363//363 357//357
f 363//363 364//364 357//357
f 364//364 365//365 357//357
f 357//357 365//365 356//356
f 356//356 365//365 355//355
f 365//365 366//366 355//355
f 366//366 367//367 355//355
f 355//355 367//367 354//354
f 354//354 367//367 353//353
f 367//367 368//368 353//353
f 353//353 368//368 361//361
f 361//361 368//368 369//369
f 368//368 367//367 369//369
f 367//367 366//366 369//369
f 366//366 365//365 369//369
f 365//365 364//364 369//369
f 364//364 363//363 369//369
f 363//363 362//362 369//369
f 369//369 362//362 361//361
f 350//350 337//337 352//352
f 352//352 337//337 338//338
f 370//370 372//372 371//371
f 371//371 372//372 373//373
f 370//370 371//371 374//374
f 371//371 375//375 374//374
f 374//374 375//375 376//376
f 375//375 377//377 376//376
f 377//377 378//378 376//376
f 376//376 378//378 379//379
f 379//379 378//378 380//380
f 378//378 381//381 380//380
f 381//381 382//382 380//380
f 380//380 382//382 383//383
f 383//383 382//382 384//384
f 382//382 385//385 384//384
f 384//384 385//385 373//373
f 385//385 386//386 373//373
f 373//373 386//386 371//371
f 384//384 373//373 372//372
f 382//382 387//387 385//385
f 387//387 388//388 385//385
f 385//385 388//388 386//386
f 382//382 381//381 387//387
f 387//387 381//381 389//389
f 389//389 381//381 390//390
f 381//381 378//378 390//390
f 378//378 377//377 390//390
f 390//390 377//377 391//391
f 391//391 377//377 392//392
f 377//377 375//375 392//392
f 375//375 371//371 392//392
f 392//392 371//371 393//393
f 371//371 386//386 393//393
f 386//386 394//394 393//393
f 393//393 394//394 392//392
f 394//394 395//395 392//392
f 395//395 396//396 392//392
f 392//392 396//396 391//391
f 391//391 396//396 390//390
f 396//396 397//397 390//390
f 397//397 398//398 390//390
f 390//390 398//398 389//389
f 389//389 398//398 387//387
f 398//398 399//399 387//387
f 387//387 399//399 400//400
f 399//399 401//401 400//400
f 400//400 401//401 402//402
f 401//401 394//394 402//402
f 394//394 386//386 402//402
f 402//402 386//386 400//400
f 386//386 388//388 400//400
f 400//400 388//388 387//387
f 399//399 398//398 401//401
f 398//398 397//397 401//401
f 397//397 396//396 401//401
f 396//396 395//395 401//401
f 401//401 395//395 394//394
f 403//403 405//405 404//404
f 405//405 406//406 404//404
f 406//406 407//407 404//404
f 404//404 407//407 408//408
f 407//407 409//409 408//408
f 408//408 409//409 410//410
f 403//403 411//411 405//405
f 405//405 411//411 412//412
f 412//412 411//411 413//413
f 411//411 414//414 413//413
f 413//413 414//414 415//415
f 414//414 416//416 415//415
f 415//415 416//416 417//417
f 416//416 418//418 417//417
f 418//418 410//410 417//417
f 410//410 409//409 417//417
f 417//417 409//409 419//419
f 419//419 409//409 420//420
f 420//420 409//409 421//421
f 409//409 407//407 421//421
f 407//407 406//406 421//421
f 421//421 406//406 422//422
f 422//422 406//406 423//423
f 406//406 405//405 423//423
f 405//405 412//412 423//423
f 423//423 412//412 424//424
f 424//424 412//412 425//425
f 412//412 413//413 425//425
f 413//413 415//415 425//425
f 425//425 415//415 426//426
f 415//415 419//419 426//426
f 419//419 427//427 426//426
f 426//426 427//427 425//425
f 427//427 428//428 425//425
f 428//428 429//429 425//425
f 425//425 429//429 424//424
f 424//424 429//429 423//423
f 429//429 430//430 423//423
f 430//430 431//431 423//423
f 423//423 431//431 422//422
f 422//422 431//431 421//421
f 431//431 432//432 421//421
f 432//432 433//433 421//421
f 421//421 433//433 420//420
f 420//420 433//433 419//419
f 433//433 434//434 419//419
f 419//419 434//434 427//427
f 427//427 434//434 435//435
f 434//434 433//433 435//435
f 433//433 432//432 435//435
f 432//432 431//431 435//435
f 431//431 430//430 435//435
f 430//430 429//429 435//435
f 429//429 428//428 435//435
f 435//435 428//428 427//427
f 415//415 417//417 419//419

