# Exported by Sketchfab Model Ripper robust edition
o model_16
v 0.9826017022132874 -0.9960918426513672 -0.38644492626190186
v 0.9835655093193054 -0.9970688819885254 -0.38056886196136475
v 0.9758550524711609 -1 -0.38056886196136475
v 0.9758550524711609 -1 -0.1146075576543808
v -0.9758540987968445 -1 -0.1146075576543808
v -0.9758540987968445 -1 -0.38056886196136475
v -0.983564555644989 -0.9970688819885254 -0.1146075576543808
v -0.983564555644989 -0.9970688819885254 -0.38056886196136475
v -0.982600748538971 -0.9960918426513672 -0.38644492626190186
v -0.9758540987968445 -0.9970688819885254 -0.3878439664840698
v 0.9758550524711609 -0.9970688819885254 -0.3878439664840698
v -0.982600748538971 -0.9960918426513672 -0.10873150080442429
v -0.9758540987968445 -0.9970688819885254 -0.10733244568109512
v 0.9758550524711609 -0.9970688819885254 -0.10733244568109512
v 0.9826017022132874 -0.9960918426513672 -0.10873150080442429
v 0.9835655093193054 -0.9970688819885254 -0.1146075576543808
v 0.9826017022132874 0.9960927367210388 -0.38644492626190186
v 0.9835655093193054 0.997069776058197 -0.38056886196136475
v 0.9864569306373596 0.9902305006980896 -0.38056886196136475
v 0.9864569306373596 0.9902305006980896 -0.1146075576543808
v 0.9864569306373596 -0.990229606628418 -0.1146075576543808
v 0.9864569306373596 -0.990229606628418 -0.38056886196136475
v 0.9835655093193054 -0.9970688819885254 -0.1146075576543808
v 0.9835655093193054 -0.9970688819885254 -0.38056886196136475
v 0.9826017022132874 -0.9960918426513672 -0.38644492626190186
v 0.9835655093193054 -0.990229606628418 -0.3878439664840698
v 0.9835655093193054 0.9902305006980896 -0.3878439664840698
v 0.9826017022132874 -0.9960918426513672 -0.10873150080442429
v 0.9835655093193054 -0.990229606628418 -0.10733244568109512
v 0.9835655093193054 0.9902305006980896 -0.10733244568109512
v 0.9826017022132874 0.9960927367210388 -0.10873150080442429
v 0.9835655093193054 0.997069776058197 -0.1146075576543808
v 0.9826017022132874 0.9960927367210388 -0.10873150080442429
v 0.9758550524711609 0.997069776058197 -0.10733244568109512
v 0.9758550524711609 0.9902305006980896 -0.10439442098140717
v -0.9758540987968445 0.9902305006980896 -0.10439442098140717
v -0.9758540987968445 -0.990229606628418 -0.10439442098140717
v 0.9758550524711609 -0.990229606628418 -0.10439442098140717
v -0.9758540987968445 -0.9970688819885254 -0.10733244568109512
v 0.9758550524711609 -0.9970688819885254 -0.10733244568109512
v 0.9826017022132874 -0.9960918426513672 -0.10873150080442429
v 0.9835655093193054 -0.990229606628418 -0.10733244568109512
v 0.9835655093193054 0.9902305006980896 -0.10733244568109512
v -0.982600748538971 -0.9960918426513672 -0.10873150080442429
v -0.983564555644989 -0.990229606628418 -0.10733244568109512
v -0.983564555644989 0.9902305006980896 -0.10733244568109512
v -0.982600748538971 0.9960927367210388 -0.10873150080442429
v -0.9758540987968445 0.997069776058197 -0.10733244568109512
v -0.982600748538971 -0.9960918426513672 -0.38644492626190186
v -0.983564555644989 -0.9970688819885254 -0.38056886196136475
v -0.9864559769630432 -0.990229606628418 -0.38056886196136475
v -0.9864559769630432 -0.990229606628418 -0.1146075576543808
v -0.9864559769630432 0.9902305006980896 -0.1146075576543808
v -0.9864559769630432 0.9902305006980896 -0.38056886196136475
v -0.983564555644989 0.997069776058197 -0.1146075576543808
v -0.983564555644989 0.997069776058197 -0.38056886196136475
v -0.982600748538971 0.9960927367210388 -0.38644492626190186
v -0.983564555644989 0.9902305006980896 -0.3878439664840698
v -0.983564555644989 -0.990229606628418 -0.3878439664840698
v -0.982600748538971 0.9960927367210388 -0.10873150080442429
v -0.983564555644989 0.9902305006980896 -0.10733244568109512
v -0.983564555644989 -0.990229606628418 -0.10733244568109512
v -0.982600748538971 -0.9960918426513672 -0.10873150080442429
v -0.983564555644989 -0.9970688819885254 -0.1146075576543808
v -0.982600748538971 0.9960927367210388 -0.38644492626190186
v -0.983564555644989 0.997069776058197 -0.38056886196136475
v -0.9758540987968445 1.0000008344650269 -0.38056886196136475
v -0.9758540987968445 1.0000008344650269 -0.1146075576543808
v 0.9758550524711609 1.0000008344650269 -0.1146075576543808
v 0.9758550524711609 1.0000008344650269 -0.38056886196136475
v 0.9835655093193054 0.997069776058197 -0.1146075576543808
v 0.9835655093193054 0.997069776058197 -0.38056886196136475
v 0.9826017022132874 0.9960927367210388 -0.38644492626190186
v 0.9758550524711609 0.997069776058197 -0.3878439664840698
v -0.9758540987968445 0.997069776058197 -0.3878439664840698
v 0.9826017022132874 0.9960927367210388 -0.10873150080442429
v 0.9758550524711609 0.997069776058197 -0.10733244568109512
v -0.9758540987968445 0.997069776058197 -0.10733244568109512
v -0.982600748538971 0.9960927367210388 -0.10873150080442429
v -0.983564555644989 0.997069776058197 -0.1146075576543808
v -0.982600748538971 -0.9960918426513672 -0.38644492626190186
v -0.9758540987968445 -0.990229606628418 -0.3907819986343384
v -0.9758540987968445 -0.9970688819885254 -0.3878439664840698
v 0.9758550524711609 -0.9970688819885254 -0.3878439664840698
v 0.9758550524711609 -0.990229606628418 -0.3907819986343384
v 0.9826017022132874 -0.9960918426513672 -0.38644492626190186
v 0.9835655093193054 -0.990229606628418 -0.3878439664840698
v 0.9835655093193054 0.9902305006980896 -0.3878439664840698
v 0.9758550524711609 0.9902305006980896 -0.3907819986343384
v 0.9826017022132874 0.9960927367210388 -0.38644492626190186
v 0.9758550524711609 0.997069776058197 -0.3878439664840698
v -0.9758540987968445 0.997069776058197 -0.3878439664840698
v -0.9758540987968445 0.9902305006980896 -0.3907819986343384
v -0.982600748538971 0.9960927367210388 -0.38644492626190186
v -0.983564555644989 0.9902305006980896 -0.3878439664840698
v -0.983564555644989 -0.990229606628418 -0.3878439664840698
vn 0.5779946446418762 -0.5779946446418762 -0.5760593414306641
vn 0.6939274668693542 -0.6992650628089905 -0.17173540592193604
vn 0.1765850931406021 -0.9676238894462585 -0.18033768236637115
vn 0.17822742462158203 -0.9673227667808533 0.18033768236637115
vn -0.18193665146827698 -0.9666319489479065 0.18033768236637115
vn -0.1765850931406021 -0.9676238894462585 -0.18033768236637115
vn -0.6939274668693542 -0.6992650628089905 0.17173540592193604
vn -0.6939274668693542 -0.6992650628089905 -0.17173540592193604
vn -0.5779946446418762 -0.5779946446418762 -0.5760593414306641
vn -0.1721721738576889 -0.696100115776062 -0.6969945430755615
vn 0.1721721738576889 -0.696100115776062 -0.6969945430755615
vn -0.5759913921356201 -0.5799909830093384 0.5760593414306641
vn -0.1752629280090332 -0.6953283548355103 0.6969945430755615
vn 0.1752629280090332 -0.6953283548355103 0.6969945430755615
vn 0.5786608457565308 -0.5773276686668396 0.5760593414306641
vn 0.6939274668693542 -0.6992650628089905 0.17173540592193604
vn 0.5779946446418762 0.5779946446418762 -0.5760593414306641
vn 0.6939274668693542 0.6992650628089905 -0.17173540592193604
vn 0.9669385552406311 0.1803000271320343 -0.18033768236637115
vn 0.9669791460037231 0.18008236587047577 0.18033768236637115
vn 0.9669791460037231 -0.18008236587047577 0.18033768236637115
vn 0.9669385552406311 -0.1803000271320343 -0.18033768236637115
vn 0.6939274668693542 -0.6992650628089905 0.17173540592193604
vn 0.6939274668693542 -0.6992650628089905 -0.17173540592193604
vn 0.5779946446418762 -0.5779946446418762 -0.5760593414306641
vn 0.696100115776062 -0.1721721738576889 -0.6969945430755615
vn 0.696100115776062 0.1721721738576889 -0.6969945430755615
vn 0.5786608457565308 -0.5773276686668396 0.5760593414306641
vn 0.6962394714355469 -0.1716076284646988 0.6969945430755615
vn 0.6962394714355469 0.1716076284646988 0.6969945430755615
vn 0.5786608457565308 0.5773276686668396 0.5760593414306641
vn 0.6939274668693542 0.6992650628089905 0.17173540592193604
vn 0.5786608457565308 0.5773276686668396 0.5760593414306641
vn 0.1752629280090332 0.6953283548355103 0.6969945430755615
vn 0.1782703995704651 0.1822587102651596 0.9669547080993652
vn -0.18093909323215485 0.17960962653160095 0.9669547080993652
vn -0.18093909323215485 -0.17960962653160095 0.9669547080993652
vn 0.1782703995704651 -0.1822587102651596 0.9669547080993652
vn -0.1752629280090332 -0.6953283548355103 0.6969945430755615
vn 0.1752629280090332 -0.6953283548355103 0.6969945430755615
vn 0.5786608457565308 -0.5773276686668396 0.5760593414306641
vn 0.6962394714355469 -0.1716076284646988 0.6969945430755615
vn 0.6962394714355469 0.1716076284646988 0.6969945430755615
vn -0.5759913921356201 -0.5799909830093384 0.5760593414306641
vn -0.6962394714355469 -0.1716076284646988 0.6969945430755615
vn -0.6962394714355469 0.1716076284646988 0.6969945430755615
vn -0.5759913921356201 0.5799909830093384 0.5760593414306641
vn -0.1752629280090332 0.6953283548355103 0.6969945430755615
vn -0.5779946446418762 -0.5779946446418762 -0.5760593414306641
vn -0.6939274668693542 -0.6992650628089905 -0.17173540592193604
vn -0.9669385552406311 -0.1803000271320343 -0.18033768236637115
vn -0.9676628112792969 -0.17637182772159576 0.18033768236637115
vn -0.9676628112792969 0.17637182772159576 0.18033768236637115
vn -0.9669385552406311 0.1803000271320343 -0.18033768236637115
vn -0.6939274668693542 0.6992650628089905 0.17173540592193604
vn -0.6939274668693542 0.6992650628089905 -0.17173540592193604
vn -0.5779946446418762 0.5779946446418762 -0.5760593414306641
vn -0.696100115776062 0.1721721738576889 -0.6969945430755615
vn -0.696100115776062 -0.1721721738576889 -0.6969945430755615
vn -0.5759913921356201 0.5799909830093384 0.5760593414306641
vn -0.6962394714355469 0.1716076284646988 0.6969945430755615
vn -0.6962394714355469 -0.1716076284646988 0.6969945430755615
vn -0.5759913921356201 -0.5799909830093384 0.5760593414306641
vn -0.6939274668693542 -0.6992650628089905 0.17173540592193604
vn -0.5779946446418762 0.5779946446418762 -0.5760593414306641
vn -0.6939274668693542 0.6992650628089905 -0.17173540592193604
vn -0.1765850931406021 0.9676238894462585 -0.18033768236637115
vn -0.18193665146827698 0.9666319489479065 0.18033768236637115
vn 0.17822742462158203 0.9673227667808533 0.18033768236637115
vn 0.1765850931406021 0.9676238894462585 -0.18033768236637115
vn 0.6939274668693542 0.6992650628089905 0.17173540592193604
vn 0.6939274668693542 0.6992650628089905 -0.17173540592193604
vn 0.5779946446418762 0.5779946446418762 -0.5760593414306641
vn 0.1721721738576889 0.696100115776062 -0.6969945430755615
vn -0.1721721738576889 0.696100115776062 -0.6969945430755615
vn 0.5786608457565308 0.5773276686668396 0.5760593414306641
vn 0.1752629280090332 0.6953283548355103 0.6969945430755615
vn -0.1752629280090332 0.6953283548355103 0.6969945430755615
vn -0.5759913921356201 0.5799909830093384 0.5760593414306641
vn -0.6939274668693542 0.6992650628089905 0.17173540592193604
vn -0.5779946446418762 -0.5779946446418762 -0.5760593414306641
vn -0.1775844246149063 -0.1829271763563156 -0.9669547080993652
vn -0.1721721738576889 -0.696100115776062 -0.6969945430755615
vn 0.1721721738576889 -0.696100115776062 -0.6969945430755615
vn 0.1775844246149063 -0.1829271763563156 -0.9669547080993652
vn 0.5779946446418762 -0.5779946446418762 -0.5760593414306641
vn 0.696100115776062 -0.1721721738576889 -0.6969945430755615
vn 0.696100115776062 0.1721721738576889 -0.6969945430755615
vn 0.1775844246149063 0.1829271763563156 -0.9669547080993652
vn 0.5779946446418762 0.5779946446418762 -0.5760593414306641
vn 0.1721721738576889 0.696100115776062 -0.6969945430755615
vn -0.1721721738576889 0.696100115776062 -0.6969945430755615
vn -0.1775844246149063 0.1829271763563156 -0.9669547080993652
vn -0.5779946446418762 0.5779946446418762 -0.5760593414306641
vn -0.696100115776062 0.1721721738576889 -0.6969945430755615
vn -0.696100115776062 -0.1721721738576889 -0.6969945430755615
vt 0.2823457419872284 0.9815400242805481
vt 0.28079015016555786 0.9817826747894287
vt 0.28079015016555786 0.9798417091369629
vt 0.214617058634758 0.9798417091369629
vt 0.214617058634758 0.5016376972198486
vt 0.28079015016555786 0.5016376972198486
vt 0.214617058634758 0.5000606775283813
vt 0.28079015016555786 0.5000606775283813
vt 0.2823457419872284 0.5004245638847351
vt 0.282585084438324 0.5017589926719666
vt 0.282585084438324 0.9800843596458435
vt 0.21306145191192627 0.5004245638847351
vt 0.21282212436199188 0.5017589926719666
vt 0.21282212436199188 0.9800843596458435
vt 0.21306145191192627 0.9815400242805481
vt 0.214617058634758 0.9817826747894287
vt 0.07269792258739471 0.9964611530303955
vt 0.07126197963953018 0.996825098991394
vt 0.07126197963953018 0.9950054883956909
vt 0.00496922992169857 0.9950054883956909
vt 0.00496922992169857 0.5017589926719666
vt 0.07126197963953018 0.5017589926719666
vt 0.00496922992169857 0.5000606775283813
vt 0.07126197963953018 0.5000606775283813
vt 0.07269792258739471 0.5003032684326172
vt 0.0730569064617157 0.5017589926719666
vt 0.0730569064617157 0.9950054883956909
vt 0.003533286042511463 0.5003032684326172
vt 0.0031743000727146864 0.5017589926719666
vt 0.0031743000727146864 0.9950054883956909
vt 0.003533286042511463 0.9964611530303955
vt 0.00496922992169857 0.996825098991394
vt 0.4929508566856384 0.4996967315673828
vt 0.4913952648639679 0.49993935227394104
vt 0.4913952648639679 0.49824100732803345
vt 0.00496922992169857 0.49824100732803345
vt 0.00496922992169857 0.004994549788534641
vt 0.4913952648639679 0.004994549788534641
vt 0.00496922992169857 0.0031749000772833824
vt 0.4913952648639679 0.0031749000772833824
vt 0.4929508566856384 0.0035388299729675055
vt 0.4933098554611206 0.004994549788534641
vt 0.4933098554611206 0.49824100732803345
vt 0.003533286042511463 0.0035388299729675055
vt 0.0031743000727146864 0.004994549788534641
vt 0.0031743000727146864 0.49824100732803345
vt 0.003533286042511463 0.4996967315673828
vt 0.00496922992169857 0.49993935227394104
vt 0.1425805240869522 0.9964611530303955
vt 0.14114458858966827 0.996825098991394
vt 0.14114458858966827 0.9950054883956909
vt 0.07485184073448181 0.9950054883956909
vt 0.07485184073448181 0.5017589926719666
vt 0.14114458858966827 0.5017589926719666
vt 0.07485184073448181 0.5000606775283813
vt 0.14114458858966827 0.5000606775283813
vt 0.1425805240869522 0.5003032684326172
vt 0.1429395228624344 0.5017589926719666
vt 0.1429395228624344 0.9950054883956909
vt 0.07341589033603668 0.5003032684326172
vt 0.0730569064617157 0.5017589926719666
vt 0.0730569064617157 0.9950054883956909
vt 0.07341589033603668 0.9964611530303955
vt 0.07485184073448181 0.996825098991394
vt 0.2124631404876709 0.9814187288284302
vt 0.21102719008922577 0.9817826747894287
vt 0.21102719008922577 0.9802056550979614
vt 0.1447344422340393 0.9802056550979614
vt 0.1447344422340393 0.5018802881240845
vt 0.21102719008922577 0.5018802881240845
vt 0.1447344422340393 0.49993935227394104
vt 0.21102719008922577 0.49993935227394104
vt 0.2124631404876709 0.5003032684326172
vt 0.21282212436199188 0.5017589926719666
vt 0.21282212436199188 0.9800843596458435
vt 0.14317883551120758 0.5003032684326172
vt 0.1429395228624344 0.5017589926719666
vt 0.1429395228624344 0.9800843596458435
vt 0.14317883551120758 0.9814187288284302
vt 0.1447344422340393 0.9817826747894287
vt 0.9829667806625366 0.0035388299729675055
vt 0.9815307855606079 0.004994549788534641
vt 0.9815307855606079 0.0031749000772833824
vt 0.4951047897338867 0.0031749000772833824
vt 0.4951047897338867 0.004994549788534641
vt 0.4935491681098938 0.0035388299729675055
vt 0.4933098554611206 0.004994549788534641
vt 0.4933098554611206 0.49824100732803345
vt 0.4951047897338867 0.49824100732803345
vt 0.4935491681098938 0.4996967315673828
vt 0.4951047897338867 0.49993935227394104
vt 0.9815307855606079 0.49993935227394104
vt 0.9815307855606079 0.49824100732803345
vt 0.9829667806625366 0.4996967315673828
vt 0.983325719833374 0.49824100732803345
vt 0.983325719833374 0.004994549788534641
s on
f 1/1/1 2/2/2 3/3/3
f 2/2/2 4/4/4 3/3/3
f 4/4/4 5/5/5 3/3/3
f 3/3/3 5/5/5 6/6/6
f 5/5/5 7/7/7 6/6/6
f 7/7/7 8/8/8 6/6/6
f 8/8/8 9/9/9 6/6/6
f 9/9/9 10/10/10 6/6/6
f 6/6/6 10/10/10 3/3/3
f 10/10/10 11/11/11 3/3/3
f 3/3/3 11/11/11 1/1/1
f 7/7/7 5/5/5 12/12/12
f 12/12/12 5/5/5 13/13/13
f 13/13/13 5/5/5 14/14/14
f 5/5/5 4/4/4 14/14/14
f 14/14/14 4/4/4 15/15/15
f 15/15/15 4/4/4 16/16/16
f 4/4/4 2/2/2 16/16/16
f 17/17/17 18/18/18 19/19/19
f 18/18/18 20/20/20 19/19/19
f 20/20/20 21/21/21 19/19/19
f 19/19/19 21/21/21 22/22/22
f 21/21/21 23/23/23 22/22/22
f 23/23/23 24/24/24 22/22/22
f 24/24/24 25/25/25 22/22/22
f 25/25/25 26/26/26 22/22/22
f 22/22/22 26/26/26 19/19/19
f 26/26/26 27/27/27 19/19/19
f 19/19/19 27/27/27 17/17/17
f 23/23/23 21/21/21 28/28/28
f 28/28/28 21/21/21 29/29/29
f 29/29/29 21/21/21 30/30/30
f 21/21/21 20/20/20 30/30/30
f 30/30/30 20/20/20 31/31/31
f 31/31/31 20/20/20 32/32/32
f 20/20/20 18/18/18 32/32/32
f 33/33/33 34/34/34 35/35/35
f 34/34/34 36/36/36 35/35/35
f 36/36/36 37/37/37 35/35/35
f 35/35/35 37/37/37 38/38/38
f 37/37/37 39/39/39 38/38/38
f 39/39/39 40/40/40 38/38/38
f 40/40/40 41/41/41 38/38/38
f 41/41/41 42/42/42 38/38/38
f 38/38/38 42/42/42 35/35/35
f 42/42/42 43/43/43 35/35/35
f 35/35/35 43/43/43 33/33/33
f 39/39/39 37/37/37 44/44/44
f 44/44/44 37/37/37 45/45/45
f 45/45/45 37/37/37 46/46/46
f 37/37/37 36/36/36 46/46/46
f 46/46/46 36/36/36 47/47/47
f 47/47/47 36/36/36 48/48/48
f 36/36/36 34/34/34 48/48/48
f 49/49/49 50/50/50 51/51/51
f 50/50/50 52/52/52 51/51/51
f 52/52/52 53/53/53 51/51/51
f 51/51/51 53/53/53 54/54/54
f 53/53/53 55/55/55 54/54/54
f 55/55/55 56/56/56 54/54/54
f 56/56/56 57/57/57 54/54/54
f 57/57/57 58/58/58 54/54/54
f 54/54/54 58/58/58 51/51/51
f 58/58/58 59/59/59 51/51/51
f 51/51/51 59/59/59 49/49/49
f 55/55/55 53/53/53 60/60/60
f 60/60/60 53/53/53 61/61/61
f 61/61/61 53/53/53 62/62/62
f 53/53/53 52/52/52 62/62/62
f 62/62/62 52/52/52 63/63/63
f 63/63/63 52/52/52 64/64/64
f 52/52/52 50/50/50 64/64/64
f 65/65/65 66/66/66 67/67/67
f 66/66/66 68/68/68 67/67/67
f 68/68/68 69/69/69 67/67/67
f 67/67/67 69/69/69 70/70/70
f 69/69/69 71/71/71 70/70/70
f 71/71/71 72/72/72 70/70/70
f 72/72/72 73/73/73 70/70/70
f 73/73/73 74/74/74 70/70/70
f 70/70/70 74/74/74 67/67/67
f 74/74/74 75/75/75 67/67/67
f 67/67/67 75/75/75 65/65/65
f 71/71/71 69/69/69 76/76/76
f 76/76/76 69/69/69 77/77/77
f 77/77/77 69/69/69 78/78/78
f 69/69/69 68/68/68 78/78/78
f 78/78/78 68/68/68 79/79/79
f 79/79/79 68/68/68 80/80/80
f 68/68/68 66/66/66 80/80/80
f 81/81/81 82/82/82 83/83/83
f 83/83/83 82/82/82 84/84/84
f 82/82/82 85/85/85 84/84/84
f 84/84/84 85/85/85 86/86/86
f 86/86/86 85/85/85 87/87/87
f 87/87/87 85/85/85 88/88/88
f 85/85/85 89/89/89 88/88/88
f 88/88/88 89/89/89 90/90/90
f 90/90/90 89/89/89 91/91/91
f 91/91/91 89/89/89 92/92/92
f 89/89/89 93/93/93 92/92/92
f 92/92/92 93/93/93 94/94/94
f 94/94/94 93/93/93 95/95/95
f 95/95/95 93/93/93 96/96/96
f 93/93/93 82/82/82 96/96/96
f 96/96/96 82/82/82 81/81/81
f 89/89/89 85/85/85 93/93/93
f 93/93/93 85/85/85 82/82/82

