# Exported by Sketchfab Model Ripper robust edition
o model_1
v 0.12865564227104187 -0.15239080786705017 3.2239251136779785
v 0.0720009133219719 -0.060859788209199905 3.3238468170166016
v 0.09088581800460815 -0.09311357885599136 3.1690382957458496
v 0.07028409838676453 -0.022068070247769356 3.225332260131836
v 0.1790153980255127 -0.04734806716442108 3.1183736324310303
v 0.16299183666706085 -0.008120485581457615 3.2379984855651855
v 0.09832532703876495 -0.05693703144788742 3.3463644981384277
v 0.16585318744182587 -0.130161851644516 3.2844409942626953
v 0.20305073261260986 -0.06609012931585312 3.280219078063965
v 0.38732168078422546 -0.19423356652259827 3.1113369464874268
v 0.3260887861251831 -0.20251493155956268 2.9551210403442383
v 0.12865564227104187 -0.15239080786705017 3.2239251136779785
v 0.6190910339355469 -0.5647162795066833 0.969350278377533
v 0.6734566688537598 -0.5974059104919434 0.9383885860443115
v 0.621380090713501 -0.606123149394989 0.9003901481628418
v 0.6190910339355469 -0.5647162795066833 0.969350278377533
v 0.7587249279022217 -0.6531962752342224 1.0411251783370972
v 0.6734566688537598 -0.5974059104919434 0.9383885860443115
v 0.78619384765625 -0.6941672563552856 0.9932752251625061
v 0.621380090713501 -0.606123149394989 0.9003901481628418
v 0.879473865032196 -0.6837065815925598 1.0946044921875
v 0.9109487533569336 -0.7233700156211853 1.0664573907852173
v 0.9933556318283081 -0.6340183019638062 1.1227514743804932
v 1.0173909664154053 -0.6579907536506653 1.1297881603240967
v 1.0889246463775635 -0.4949783384799957 1.176230788230896
v 1.0408539772033691 -0.48713281750679016 1.1790454387664795
v 1.0563052892684937 -0.2944818139076233 1.2057851552963257
v 1.0872079133987427 -0.2800983786582947 1.2100071907043457
v 1.0019396543502808 -0.11970115453004837 1.2226732969284058
v 1.0110960006713867 -0.1149066761136055 1.2803746461868286
v 0.8428485989570618 -0.05388599634170532 1.2648937702178955
v 0.8354091048240662 -0.09398529678583145 1.2240806818008423
v 0.9813379645347595 -0.14803218841552734 1.2339321374893188
v 1.0820574760437012 -0.30145561695098877 1.270523190498352
v 0.8354091048240662 -0.09398529678583145 1.2240806818008423
v 0.9813379645347595 -0.14803218841552734 1.2339321374893188
v 0.8336922526359558 -0.10618943721055984 1.2916334867477417
v 0.981910228729248 -0.15021149814128876 1.283189296722412
v 1.0402817726135254 -0.3018914759159088 1.246598243713379
v 1.039709448814392 -0.4945424795150757 1.2283027172088623
v 1.0408539772033691 -0.48713281750679016 1.1790454387664795
v 1.0563052892684937 -0.2944818139076233 1.2057851552963257
v 1.0729011297225952 -0.5093618035316467 1.2283027172088623
v 1.005373239517212 -0.6754252314567566 1.169193983078003
v 0.8949251770973206 -0.7438555359840393 1.0889750719070435
v 0.7455626726150513 -0.7020127773284912 1.0157928466796875
v 0.6190910339355469 -0.5647162795066833 0.969350278377533
v 0.7587249279022217 -0.6531962752342224 1.0411251783370972
v 0.8686007261276245 -0.7224982976913452 1.1199367046356201
v 0.9721816182136536 -0.6370693445205688 1.1818602085113525
v 0.9933556318283081 -0.6340183019638062 1.1227514743804932
v 0.879473865032196 -0.6837065815925598 1.0946044921875
v 0.6700230836868286 -0.15762114524841309 1.2268953323364258
v 0.6585776805877686 -0.1423659771680832 1.2874114513397217
v 0.5349673628807068 -0.25612595677375793 1.257857084274292
v 0.5269555449485779 -0.24740871787071228 1.1959336996078491
v 0.44626548886299133 -0.3842693865299225 1.172008752822876
v 0.45713862776756287 -0.39429423213005066 1.2240806818008423
v 0.4353923499584198 -0.5342059135437012 1.160749912261963
v 0.4256637692451477 -0.5437948703765869 1.2085998058319092
v 0.4851798415184021 -0.6457865834236145 1.1452690362930298
v 0.6436986327171326 -0.10618943721055984 1.2325247526168823
v 0.6700230836868286 -0.15762114524841309 1.2268953323364258
v 0.5269555449485779 -0.24740871787071228 1.1959336996078491
v 0.4903302788734436 -0.2190776914358139 1.2212659120559692
v 0.44626548886299133 -0.3842693865299225 1.172008752822876
v 0.42223015427589417 -0.39211490750312805 1.2395615577697754
v 0.5017756819725037 -0.2343328595161438 1.2634865045547485
v 0.40162843465805054 -0.3703218102455139 1.1945263147354126
v 0.39476120471954346 -0.5276679992675781 1.1410470008850098
v 0.4353923499584198 -0.5342059135437012 1.160749912261963
v 0.4851798415184021 -0.6457865834236145 1.1452690362930298
v 0.4405427873134613 -0.6575548648834229 1.0974191427230835
v 0.5715926289558411 -0.6693231463432312 1.0720868110656738
v 0.3861771523952484 -0.5542555451393127 1.184674859046936
v 0.4508436620235443 -0.6902444958686829 1.1523058414459229
v 0.550990879535675 -0.7107300162315369 1.0453472137451172
v 0.6883357167243958 -0.6518886685371399 0.9876458644866943
v 0.6957752108573914 -0.6375052332878113 1.0270516872406006
v 0.790772020816803 -0.5773562788963318 0.9271298050880432
v 0.7970669865608215 -0.5625369548797607 0.969350278377533
v 0.8520049452781677 -0.45967352390289307 0.8975754380226135
v 0.8319754600524902 -0.5878169536590576 0.9116489291191101
v 0.8914915323257446 -0.36029699444770813 0.7990609407424927
v 0.878329336643219 -0.3415549099445343 0.8398740887641907
v 0.8388426899909973 -0.2600487172603607 0.7723212838172913
v 0.887485682964325 -0.24697285890579224 0.7329155206680298
v 0.7570080757141113 -0.22561562061309814 0.6808435320854187
v 0.7427013516426086 -0.2260514795780182 0.7230640649795532
v 0.6190910339355469 -0.26048457622528076 0.6625480055809021
v 0.5956279635429382 -0.22779493033885956 0.6935096979141235
v 0.5109320282936096 -0.3385038673877716 0.6259568929672241
v 0.45198819041252136 -0.32455629110336304 0.638623058795929
v 0.4159351885318756 -0.45749419927597046 0.602031946182251
v 0.36500313878059387 -0.6100459098815918 0.5823290348052979
v 0.39476120471954346 -0.6065590381622314 0.5415158867835999
v 0.4250915050506592 -0.7434197068214417 0.5626261234283447
v 0.4336755573749542 -0.7303438186645508 0.4992954134941101
v 0.5790321230888367 -0.7726224064826965 0.528849720954895
v 0.5778875946998596 -0.7979024052619934 0.565440833568573
v 0.7667366862297058 -0.7682638168334961 0.5907731652259827
v 0.7627307772636414 -0.7447272539138794 0.5429232716560364
v 0.9201050400733948 -0.6767327785491943 0.638623058795929
v 0.729539155960083 -0.19074666500091553 0.7357301712036133
v 0.4285251200199127 -0.4579300582408905 0.561218798160553
v 0.3661476969718933 -0.5965341925621033 0.5063321590423584
v 0.40735113620758057 -0.753444492816925 0.4950733482837677
v 0.5876162052154541 -0.7918003797531128 0.4950733482837677
v 0.5641531348228455 -0.832771360874176 0.528849720954895
v 0.7867661118507385 -0.7861341834068298 0.524627685546875
v 0.9441403746604919 -0.664964497089386 0.5766996741294861
v 1.045432209968567 -0.5233093500137329 0.6709920763969421
v 1.0311254262924194 -0.5468459129333496 0.7174346446990967
v 1.0711842775344849 -0.5682031512260437 0.7230640649795532
v 1.0729011297225952 -0.3934224843978882 0.8286153078079224
v 1.106665015220642 -0.3672707676887512 0.7751359939575195
v 1.0832020044326782 -0.547281801700592 0.6738067865371704
v 0.9630252718925476 -0.714216947555542 0.6118834018707275
v 0.7724593877792358 -0.8031327724456787 0.5752922892570496
v 0.5778875946998596 -0.7979024052619934 0.565440833568573
v 0.4250915050506592 -0.7434197068214417 0.5626261234283447
v 0.7667366862297058 -0.7682638168334961 0.5907731652259827
v 0.9201050400733948 -0.6767327785491943 0.638623058795929
v 1.0711842775344849 -0.5682031512260437 0.7230640649795532
v 1.1312726736068726 -0.38296180963516235 0.8229858875274658
v 1.0872079133987427 -0.2077452838420868 0.8609843254089355
v 1.0351313352584839 -0.2334611415863037 0.8919460773468018
v 0.9000756144523621 -0.11054805666208267 0.817356526851654
v 1.0729011297225952 -0.3934224843978882 0.8286153078079224
v 0.39647799730300903 -0.767392098903656 0.5358865261077881
v 0.33753418922424316 -0.6161479949951172 0.5443305969238281
v 1.048865795135498 -0.22997424006462097 0.8314300179481506
v 1.0351313352584839 -0.2334611415863037 0.8919460773468018
v 0.9069428443908691 -0.14105840027332306 0.7934315204620361
v 0.9000756144523621 -0.11054805666208267 0.817356526851654
v 0.7604417204856873 -0.08962667733430862 0.6822509169578552
v 0.7987838387489319 -0.08962667733430862 0.6611406207084656
v 0.9418513178825378 -0.11141978204250336 0.7666919231414795
v 0.8142350912094116 -0.047783929854631424 0.6484745144844055
v 0.9447126388549805 -0.09049840271472931 0.7849874496459961
v 0.7701703310012817 -0.0464763417840004 0.6667700409889221
v 0.7604417204856873 -0.08962667733430862 0.6822509169578552
v 0.710081934928894 -0.08657564967870712 0.5541820526123047
v 0.7501408457756042 -0.07044874876737595 0.5429232716560364
v 0.7621585130691528 -0.19946390390396118 0.49366599321365356
v 0.8108015060424805 -0.1802859753370285 0.48240721225738525
v 0.9470017552375793 -0.3467852473258972 0.4655190110206604
v 0.9063705801963806 -0.3659631907939911 0.4866292476654053
v 1.0019396543502808 -0.5198224782943726 0.49225863814353943
v 1.0425708293914795 -0.5289755463600159 0.4866292476654053
v 0.949863076210022 -0.6292238235473633 0.5119615793228149
v 0.9796211123466492 -0.6562472581863403 0.520405650138855
v 1.0574498176574707 -0.5246169567108154 0.5401085615158081
v 0.971609354019165 -0.36945009231567383 0.524627685546875
v 0.8296864032745361 -0.18813149631023407 0.5133689045906067
v 0.7713148593902588 -0.09093426913022995 0.5584040880203247
v 0.7215273380279541 -0.12188047170639038 0.5823290348052979
v 0.7947779297828674 -0.21733424067497253 0.5358865261077881
v 0.7621585130691528 -0.19946390390396118 0.49366599321365356
v 0.9063705801963806 -0.3659631907939911 0.4866292476654053
v 0.9235386848449707 -0.36334800720214844 0.5260350704193115
v 1.0019396543502808 -0.5198224782943726 0.49225863814353943
v 1.017963171005249 -0.5141562819480896 0.5443305969238281
v 0.9538689851760864 -0.6152762770652771 0.5584040880203247
v 0.949863076210022 -0.6292238235473633 0.5119615793228149
v 0.8085123896598816 -0.6614776253700256 0.5541820526123047
v 0.8142350912094116 -0.6706307530403137 0.606253981590271
v 0.981910228729248 -0.6370693445205688 0.5766996741294861
v 0.710081934928894 -0.08657564967870712 0.5541820526123047
v 0.8256804943084717 -0.7063714265823364 0.5992172360420227
v 0.806795597076416 -0.7120376229286194 0.5471453070640564
v 0.8085123896598816 -0.6614776253700256 0.5541820526123047
v 0.6482768058776855 -0.6710665822029114 0.5752922892570496
v 0.6459877490997314 -0.7094224691390991 0.6076613664627075
v 0.6677339673042297 -0.6946031451225281 0.6456598043441772
v 0.6654449105262756 -0.6492735147476196 0.6259568929672241
v 0.6482768058776855 -0.6710665822029114 0.5752922892570496
v 0.5349673628807068 -0.5886886715888977 0.6400303840637207
v 0.5372564196586609 -0.6074307560920715 0.6906949877738953
v 0.45198819041252136 -0.49105557799339294 0.7005464434623718
v 0.4348200857639313 -0.51851487159729 0.7413595914840698
v 0.40906792879104614 -0.40649834275245667 0.7962462306022644
v 0.4256637692451477 -0.3812183439731598 0.7385448813438416
v 0.4153629243373871 -0.4888762831687927 0.6738067865371704
v 0.5052093267440796 -0.6422997117042542 0.6681774258613586
v 0.5063538551330566 -0.6091741919517517 0.6245495676994324
v 0.5349673628807068 -0.5886886715888977 0.6400303840637207
v 0.4153629243373871 -0.4888762831687927 0.6738067865371704
v 0.39933934807777405 -0.5193865895271301 0.7146199345588684
v 0.3707258403301239 -0.3855769634246826 0.7709139585494995
v 0.39132755994796753 -0.36988595128059387 0.7371375560760498
v 0.4256637692451477 -0.3812183439731598 0.7385448813438416
v 0.49204710125923157 -0.2822776734828949 0.7976536154747009
v 0.45713862776756287 -0.2744321823120117 0.8159491419792175
v 0.44683775305747986 -0.3027631938457489 0.8511329293251038
v 0.4857521057128906 -0.3306583762168884 0.8328373432159424
v 0.49204710125923157 -0.2822776734828949 0.7976536154747009
v 0.6173742413520813 -0.24305009841918945 0.8595770001411438
v 0.6036397218704224 -0.2866362929344177 0.8820946216583252
v 0.7278223037719727 -0.29099491238594055 0.9383885860443115
v 0.714660108089447 -0.2783549129962921 0.9792017340660095
v 0.8331199884414673 -0.34329837560653687 1.0242369174957275
v 0.868028461933136 -0.3232487142086029 0.9848311543464661
v 0.7484240531921387 -0.23999907076358795 0.9271298050880432
v 0.576170802116394 -0.2600487172603607 0.9229077696800232
v 0.5916220545768738 -0.22343631088733673 0.8891313672065735
v 0.6173742413520813 -0.24305009841918945 0.8595770001411438
v 0.7484240531921387 -0.23999907076358795 0.9271298050880432
v 0.7232441902160645 -0.23302528262138367 0.9749796986579895
v 0.8262527585029602 -0.28184181451797485 1.0383104085922241
v 0.9275445342063904 -0.4069342017173767 1.10727059841156
v 0.9292613863945007 -0.43003490567207336 1.0580133199691772
v 0.9407067894935608 -0.526796281337738 1.1171220541000366
v 0.970464825630188 -0.4213176667690277 1.0481618642807007
v 0.9945001602172852 -0.5455383062362671 1.10727059841156
v 0.884052038192749 -0.6505810618400574 1.1410470008850098
v 0.9155268669128418 -0.644478976726532 1.193118929862976
v 0.7547190189361572 -0.7194472551345825 1.2198586463928223
v 0.7381231784820557 -0.7015769481658936 1.1677865982055664
v 0.570448100566864 -0.7242417335510254 1.2170438766479492
v 0.872606635093689 -0.6170197129249573 1.1537131071090698
v 0.8789016008377075 -0.6104817986488342 1.1987483501434326
v 0.981910228729248 -0.5115410685539246 1.1635645627975464
v 0.9664589166641235 -0.39429423213005066 1.0946044921875
v 0.8714621067047119 -0.29012319445610046 1.0115708112716675
v 0.868028461933136 -0.3232487142086029 0.9848311543464661
v 0.970464825630188 -0.4213176667690277 1.0481618642807007
v 0.9945001602172852 -0.5455383062362671 1.10727059841156
v 0.9155268669128418 -0.644478976726532 1.193118929862976
v 0.7386954426765442 -0.6780403852462769 1.2409688234329224
v 0.735261857509613 -0.6627852320671082 1.2015630006790161
v 0.7547190189361572 -0.7194472551345825 1.2198586463928223
v 0.5796043872833252 -0.7007052302360535 1.2648937702178955
v 0.570448100566864 -0.7242417335510254 1.2170438766479492
v 0.3987670838832855 -0.6497093439102173 1.262079119682312
v 0.4285251200199127 -0.6069948673248291 1.2803746461868286
v 0.2957584857940674 -0.491491436958313 1.2972629070281982
v 0.25798866152763367 -0.49933695793151855 1.270523190498352
v 0.228802889585495 -0.32586389780044556 1.2874114513397217
v 0.2734399437904358 -0.33370938897132874 1.2775599956512451
v 0.37644854187965393 -0.1863880455493927 1.274745225906372
v 0.34154006838798523 -0.16982528567314148 1.246598243713379
v 0.5784598588943481 -0.09137012809515 1.2423762083053589
v 0.554424524307251 -0.08134530484676361 1.184674859046936
v 0.7947779297828674 -0.07349978387355804 1.160749912261963
v 0.802217423915863 -0.09616460651159286 1.2001557350158691
v 1.0254027843475342 -0.18377287685871124 1.1452690362930298
v 0.7867661118507385 -0.13190528750419617 1.193118929862976
v 0.5710203647613525 -0.13582804799079895 1.2114144563674927
v 0.3781653642654419 -0.21036045253276825 1.2297101020812988
v 0.5681589841842651 -0.1149066761136055 1.173416018486023
v 0.7879106998443604 -0.12144460529088974 1.1326029300689697
v 0.306059330701828 -0.4762362837791443 1.2494128942489624
v 0.2556995749473572 -0.33370938897132874 1.2226732969284058
v 0.35756364464759827 -0.18333700299263 1.2001557350158691
v 0.554424524307251 -0.08134530484676361 1.184674859046936
v 0.42966964840888977 -0.5965341925621033 1.2395615577697754
v 0.5824657678604126 -0.6571189761161804 1.2437835931777954
v 0.5773153305053711 -0.6832707524299622 1.197340965270996
v 0.41707971692085266 -0.6231217384338379 1.2128218412399292
v 0.2763012945652008 -0.49846524000167847 1.2226732969284058
v 0.3987670838832855 -0.6497093439102173 1.262079119682312
v 0.25798866152763367 -0.49933695793151855 1.270523190498352
v 0.22536927461624146 -0.3284790515899658 1.2325247526168823
v 0.228802889585495 -0.32586389780044556 1.2874114513397217
v 0.34154006838798523 -0.16982528567314148 1.246598243713379
v 0.7947779297828674 -0.07349978387355804 1.160749912261963
v 1.0036565065383911 -0.1842087358236313 1.0931971073150635
v 0.9887774586677551 -0.21951355040073395 1.09882652759552
v 0.9910665154457092 -0.22343631088733673 1.1508984565734863
v 1.1867828369140625 -0.3877562880516052 1.1044559478759766
v 1.1982282400131226 -0.36552733182907104 1.0664573907852173
v 1.0254027843475342 -0.18377287685871124 1.1452690362930298
v 1.1690424680709839 -0.3598611056804657 1.0411251783370972
v 1.1982282400131226 -0.36552733182907104 1.0664573907852173
v 1.2314199209213257 -0.5642803907394409 0.9763870239257812
v 1.1890718936920166 -0.5786638259887695 1.0242369174957275
v 1.14557945728302 -0.39734524488449097 1.079123616218567
v 1.2417207956314087 -0.5947907567024231 1.0326811075210571
v 1.2314199209213257 -0.5642803907394409 0.9763870239257812
v 1.115821361541748 -0.7503934502601624 0.9116489291191101
v 1.0889246463775635 -0.7643410563468933 0.9580914974212646
v 0.8760402798652649 -0.8580513596534729 0.8258005976676941
v 0.8479990363121033 -0.8231824040412903 0.8722431659698486
v 0.6122238039970398 -0.8423603773117065 0.7596551775932312
v 0.6494213342666626 -0.8227465748786926 0.7047684788703918
v 0.41936880350112915 -0.7416762113571167 0.6259568929672241
v 0.4079234004020691 -0.7120376229286194 0.6808435320854187
v 0.2711508572101593 -0.5603576302528381 0.5499600172042847
v 1.0706120729446411 -0.7281644940376282 0.9496474266052246
v 1.0860633850097656 -0.7220624685287476 0.8975754380226135
v 0.8651671409606934 -0.8009534478187561 0.8117271065711975
v 0.6299641728401184 -0.7861341834068298 0.7582477927207947
v 1.115821361541748 -0.7503934502601624 0.9116489291191101
v 0.8760402798652649 -0.8580513596534729 0.8258005976676941
v 0.6494213342666626 -0.8227465748786926 0.7047684788703918
v 0.44683775305747986 -0.7011410593986511 0.6245495676994324
v 0.4376814365386963 -0.6924238204956055 0.6695847511291504
v 0.308920681476593 -0.5455383062362671 0.5598114728927612
v 0.41936880350112915 -0.7416762113571167 0.6259568929672241
v 0.2711508572101593 -0.5603576302528381 0.5499600172042847
v 0.2791626453399658 -0.397781103849411 0.5049247741699219
v 0.2837408185005188 -0.391679048538208 0.5766996741294861
v 0.45198819041252136 -0.3376321494579315 0.5119615793228149
v 0.29804757237434387 -0.5359493494033813 0.6048466563224792
v 0.2660004496574402 -0.5359493494033813 0.6090686917304993
v 0.25283822417259216 -0.3751162886619568 0.5584040880203247
v 0.2791626453399658 -0.397781103849411 0.5049247741699219
v 0.4359646439552307 -0.30319905281066895 0.5302571058273315
v 0.45198819041252136 -0.3376321494579315 0.5119615793228149
v 0.43653690814971924 -0.3097369968891144 0.5809217095375061
v 0.44683775305747986 -0.34199076890945435 0.5626261234283447
v 0.6557163000106812 -0.3607328534126282 0.5879584550857544
v 0.6602944731712341 -0.3581176698207855 0.5457379221916199
v 0.7970669865608215 -0.4313424825668335 0.5837364196777344
v 0.7993561029434204 -0.4139080047607422 0.6442524790763855
v 0.6557163000106812 -0.32891491055488586 0.6090686917304993
v 0.6814684867858887 -0.3149673342704773 0.5584040880203247
v 0.6602944731712341 -0.3581176698207855 0.5457379221916199
v 0.7970669865608215 -0.4313424825668335 0.5837364196777344
v 0.8388426899909973 -0.40344732999801636 0.5949952006340027
v 0.8800461292266846 -0.538128674030304 0.6259568929672241
v 0.8857688307762146 -0.5071824789047241 0.6864729523658752
v 0.8714621067047119 -0.6553755402565002 0.7174346446990967
v 0.8291141390800476 -0.6601700186729431 0.6766214966773987
v 0.7695980668067932 -0.7455989718437195 0.765284538269043
v 0.7392677068710327 -0.7281644940376282 0.7343228459358215
v 0.637403666973114 -0.726421058177948 0.8201711773872375
v 0.6671617031097412 -0.7159603834152222 0.8525402545928955
v 0.5252387523651123 -0.6396844983100891 0.8947607278823853
v 0.8256804943084717 -0.3925507664680481 0.6372156739234924
v 0.8348368406295776 -0.5289755463600159 0.6611406207084656
v 0.8411318063735962 -0.6257369518280029 0.7371375560760498
v 0.7793266177177429 -0.7185755372047424 0.7948389053344727
v 0.8800461292266846 -0.538128674030304 0.6259568929672241
v 0.8291141390800476 -0.6601700186729431 0.6766214966773987
v 0.8159518837928772 -0.6335824728012085 0.7005464434623718
v 0.7392677068710327 -0.7281644940376282 0.7343228459358215
v 0.7552912831306458 -0.6876293420791626 0.769506573677063
v 0.6688784956932068 -0.679783821105957 0.8455035090446472
v 0.5733094215393066 -0.6065590381622314 0.9186856746673584
v 0.6539995074272156 -0.6719383001327515 0.8117271065711975
v 0.6242414712905884 -0.6941672563552856 0.7990609407424927
v 0.637403666973114 -0.726421058177948 0.8201711773872375
v 0.5252387523651123 -0.6396844983100891 0.8947607278823853
v 0.4846075773239136 -0.5342059135437012 0.9003901481628418
v 0.4559940695762634 -0.5132845640182495 0.9651282429695129
v 0.44168731570243835 -0.3598611056804657 1.0157928466796875
v 0.4685840308666229 -0.3428625166416168 0.9862384796142578
v 0.5029202103614807 -0.20513011515140533 1.0509766340255737
v 0.4897580146789551 -0.2434859722852707 1.10727059841156
v 0.5824657678604126 -0.12667495012283325 1.1466764211654663
v 0.6093624234199524 -0.13757149875164032 1.09882652759552
v 0.7478517889976501 -0.15544183552265167 1.1438616514205933
v 0.7198105454444885 -0.15195494890213013 1.2015630006790161
v 0.8760402798652649 -0.24217838048934937 1.2156364917755127
v 0.862305760383606 -0.270945280790329 1.169193983078003
v 0.9618807435035706 -0.40824180841445923 1.2085998058319092
v 0.9595916867256165 -0.39734524488449097 1.253635048866272
v 0.9876329302787781 -0.5878169536590576 1.2339321374893188
v 0.9727538824081421 -0.5886886715888977 1.278967261314392
v 0.9292613863945007 -0.7848265767097473 1.2719305753707886
v 0.9000756144523621 -0.7560597062110901 1.2944481372833252
v 0.79191654920578 -0.9003300070762634 1.2733378410339355
v 0.8027896881103516 -0.893356204032898 1.2100071907043457
v 0.9252554774284363 -0.7695714235305786 1.2226732969284058
v 0.939562201499939 -0.5886886715888977 1.2184512615203857
v 0.9286891222000122 -0.4213176667690277 1.197340965270996
v 0.8348368406295776 -0.2896873354911804 1.197340965270996
v 0.7272500395774841 -0.19161838293075562 1.1508984565734863
v 0.7158046364784241 -0.19336183369159698 1.1959336996078491
v 0.6116515398025513 -0.17287632822990417 1.1143074035644531
v 0.9086596369743347 -0.4200100898742676 1.2564496994018555
v 0.8417040705680847 -0.2805342376232147 1.2381541728973389
v 0.9349840879440308 -0.5834583044052124 1.2775599956512451
v 0.887485682964325 -0.7551879286766052 1.2451908588409424
v 0.9000756144523621 -0.7560597062110901 1.2944481372833252
v 0.7758930325508118 -0.8523851633071899 1.255042314529419
v 0.79191654920578 -0.9003300070762634 1.2733378410339355
v 0.9727538824081421 -0.5886886715888977 1.278967261314392
v 0.9595916867256165 -0.39734524488449097 1.253635048866272
v 0.8760402798652649 -0.24217838048934937 1.2156364917755127
v 0.7198105454444885 -0.15195494890213013 1.2015630006790161
v 0.5939111709594727 -0.17244045436382294 1.1579351425170898
v 0.5401177406311035 -0.24392183125019073 1.0706795454025269
v 0.5080706477165222 -0.36334800720214844 1.017200231552124
v 0.5132210850715637 -0.48277419805526733 0.9355738759040833
v 0.5630085468292236 -0.5917397141456604 0.8694284558296204
v 0.5132210850715637 -0.49846524000167847 0.9763870239257812
v 0.46114450693130493 -0.40039628744125366 1.0397177934646606
v 0.4897580146789551 -0.2434859722852707 1.10727059841156
v 0.5824657678604126 -0.12667495012283325 1.1466764211654663
v 0.4559940695762634 -0.5132845640182495 0.9651282429695129
v 0.44168731570243835 -0.3598611056804657 1.0157928466796875
v 0.5927665829658508 -0.699397623538971 1.10727059841156
v 0.5715926289558411 -0.6693231463432312 1.0720868110656738
v 0.5755985379219055 -0.7281644940376282 1.09038245677948
v 0.7106542587280273 -0.699397623538971 1.0031267404556274
v 0.8439931273460388 -0.6000210642814636 0.9707576632499695
v 0.9029369354248047 -0.4945424795150757 0.8694284558296204
v 0.9086596369743347 -0.4670831859111786 0.9158710241317749
v 0.9384176731109619 -0.34940043091773987 0.810319721698761
v 0.7501408457756042 -0.647094190120697 1.034088373184204
v 0.8520049452781677 -0.45967352390289307 0.8975754380226135
v 0.9069428443908691 -0.3219411373138428 0.8553549647331238
v 0.878329336643219 -0.3415549099445343 0.8398740887641907
v 0.8388426899909973 -0.2600487172603607 0.7723212838172913
v 0.869172990322113 -0.21166804432868958 0.7863947749137878
v 0.7661644220352173 -0.17549149692058563 0.6906949877738953
v 0.6219523549079895 -0.24392183125019073 0.6259568929672241
v 0.4331032931804657 -0.3759880065917969 0.5541820526123047
v 0.36729222536087036 -0.4365728199481964 0.5809217095375061
v 0.36500313878059387 -0.6100459098815918 0.5823290348052979
v 0.6957752108573914 -0.6375052332878113 1.0270516872406006
v 0.7970669865608215 -0.5625369548797607 0.969350278377533
v 0.45198819041252136 -0.32455629110336304 0.638623058795929
v 0.47144538164138794 -0.29012319445610046 0.5935878753662109
v 0.5956279635429382 -0.22779493033885956 0.6935096979141235
v 0.6053565740585327 -0.2016432136297226 0.6414377689361572
v 0.729539155960083 -0.19074666500091553 0.7357301712036133
v 0.41650745272636414 -0.7782886624336243 1.1283808946609497
v 0.6185187697410583 -0.8916127681732178 1.176230788230896
v 0.5944834351539612 -0.867204487323761 1.2297101020812988
v 0.6225246787071228 -0.8589231371879578 1.164971947669983
v 0.6208078265190125 -0.8353865742683411 1.2015630006790161
v 0.5944834351539612 -0.867204487323761 1.2297101020812988
v 0.44225960969924927 -0.7355741858482361 1.1593425273895264
v 0.41650745272636414 -0.7782886624336243 1.1283808946609497
v 0.3289501368999481 -0.6069948673248291 1.0931971073150635
v 0.37244266271591187 -0.6100459098815918 1.0425324440002441
v 0.46171677112579346 -0.7517010569572449 1.0974191427230835
v 0.3180769979953766 -0.6231217384338379 1.0312737226486206
v 0.3289501368999481 -0.6069948673248291 1.0931971073150635
v 0.3037702739238739 -0.46446800231933594 1.0354957580566406
v 0.32666105031967163 -0.47187766432762146 0.9749796986579895
v 0.3827435076236725 -0.34024733304977417 1.0369031429290771
v 0.36443087458610535 -0.48103076219558716 1.017200231552124
v 0.3037702739238739 -0.46446800231933594 1.0354957580566406
v 0.4250915050506592 -0.3842693865299225 1.0453472137451172
v 0.3827435076236725 -0.34024733304977417 1.0369031429290771
v 0.4994865953922272 -0.3127880096435547 1.1917115449905396
v 0.5561413168907166 -0.3302225172519684 1.1748234033584595
v 0.4302419424057007 -0.3611687123775482 0.9960899353027344
v 0.5149378776550293 -0.27268871665000916 1.1621572971343994
v 0.4994865953922272 -0.3127880096435547 1.1917115449905396
v 0.5944834351539612 -0.2896873354911804 1.5069580078125
v 0.6396927237510681 -0.28707215189933777 1.4717742204666138
v 0.5527077317237854 -0.29709699749946594 1.1494910717010498
v 0.6528549790382385 -0.34111905097961426 1.4830330610275269
v 0.6013506650924683 -0.34199076890945435 1.4886624813079834
v 0.5944834351539612 -0.2896873354911804 1.5069580078125
v 0.6402650475502014 -0.36334800720214844 1.8967939615249634
v 0.6517103910446167 -0.3149673342704773 1.9080528020858765
v 0.6339700222015381 -0.34809285402297974 2.3189990520477295
v 0.6511381268501282 -0.39211490750312805 2.311962127685547
v 0.5372564196586609 -0.33370938897132874 2.686317205429077
v 0.548701822757721 -0.26833009719848633 2.6820952892303467
v 0.3260887861251831 -0.20251493155956268 2.9551210403442383
v 0.3352451026439667 -0.2657149136066437 2.998749017715454
v 0.09088581800460815 -0.09311357885599136 3.1690382957458496
v 0.12865564227104187 -0.15239080786705017 3.2239251136779785
v 0.3678644895553589 -0.25438252091407776 3.0691165924072266
v 0.16585318744182587 -0.130161851644516 3.2844409942626953
v 0.38732168078422546 -0.19423356652259827 3.1113369464874268
v 0.6265305280685425 -0.31801837682724 2.7566847801208496
v 0.5715926289558411 -0.36465561389923096 2.71868634223938
v 0.6923415660858154 -0.39734524488449097 2.34010910987854
v 0.6820407509803772 -0.39124318957328796 1.9122748374938965
v 0.7158046364784241 -0.35419490933418274 1.8982013463974
v 0.7243887186050415 -0.3589893877506256 2.3415164947509766
v 0.6202355623245239 -0.2456652820110321 2.6905393600463867
v 0.4233746826648712 -0.130161851644516 3.039562225341797
v 0.20305073261260986 -0.06609012931585312 3.280219078063965
v 0.16299183666706085 -0.008120485581457615 3.2379984855651855
v 0.1790153980255127 -0.04734806716442108 3.1183736324310303
v 0.38217124342918396 -0.136263906955719 2.953713893890381
v 0.3260887861251831 -0.20251493155956268 2.9551210403442383
v 0.548701822757721 -0.26833009719848633 2.6820952892303467
v 0.6643003821372986 -0.30712181329727173 2.320406198501587
v 0.6339700222015381 -0.34809285402297974 2.3189990520477295
v 0.6517103910446167 -0.3149673342704773 1.9080528020858765
v 0.7243887186050415 -0.324120432138443 2.203596353530884
vn -0.5597607493400574 -0.8186240196228027 0.12854042649269104
vn -0.8393481373786926 0.0640714168548584 0.5398051738739014
vn -0.8482065200805664 -0.1982988715171814 -0.4911448359489441
vn -0.7761482000350952 0.6124065518379211 -0.15017375349998474
vn -0.23819811642169952 0.7575629949569702 -0.607749879360199
vn 0.19862471520900726 0.9671237468719482 0.15880759060382843
vn -0.20973846316337585 0.1858120709657669 0.9599394202232361
vn 0.11993789672851562 -0.6753803491592407 0.7276512384414673
vn 0.6241114735603333 0.29218393564224243 0.7246471047401428
vn 0.6752226948738098 -0.22256676852703094 0.7032341957092285
vn -0.7379012703895569 -0.015104292891919613 -0.67473965883255
vn -0.5597607493400574 -0.8186240196228027 0.12854042649269104
vn -0.5506247282028198 -0.5172780752182007 0.6551609039306641
vn 0.7824943661689758 0.4474135935306549 -0.43303996324539185
vn -0.47724002599716187 -0.8618288040161133 0.17173540592193604
vn -0.5506247282028198 -0.5172780752182007 0.6551609039306641
vn -0.0640181228518486 0.7293270230293274 0.681163489818573
vn 0.7824943661689758 0.4474135935306549 -0.43303996324539185
vn 0.47337618470191956 -0.1848188191652298 -0.8612531423568726
vn -0.47724002599716187 -0.8618288040161133 0.17173540592193604
vn -0.20248714089393616 0.9792630076408386 0.006554040592163801
vn 0.48452532291412354 -0.32772865891456604 -0.8110666871070862
vn -0.10711417347192764 0.5421344637870789 -0.8334367275238037
vn 0.7705449461936951 -0.34472280740737915 -0.5361219048500061
vn 0.831369936466217 -0.037769097834825516 -0.5544344186782837
vn -0.639643669128418 0.33078935742378235 -0.6938546895980835
vn -0.4688430726528168 0.033962611109018326 -0.882628321647644
vn 0.7900616526603699 0.2455843836069107 -0.5616858005523682
vn 0.3891664743423462 0.5208678841590881 -0.7597671151161194
vn 0.5725840926170349 0.6005917191505432 0.5580654144287109
vn 0.018865788355469704 0.987129271030426 0.15880759060382843
vn 0.020790621638298035 -0.1421787589788437 -0.9896226525306702
vn -0.5411586761474609 -0.5104607343673706 -0.6682642698287964
vn 0.5366485118865967 -0.03760996833443642 0.8429672718048096
vn 0.020790621638298035 -0.1421787589788437 -0.9896226525306702
vn -0.5411586761474609 -0.5104607343673706 -0.6682642698287964
vn -0.015059401281177998 -0.45042651891708374 0.8926864862442017
vn -0.34210532903671265 -0.45228537917137146 0.8236515522003174
vn -0.9062949419021606 -0.23893284797668457 0.34862664341926575
vn -0.6742949485778809 -0.052690260112285614 0.736579954624176
vn -0.639643669128418 0.33078935742378235 -0.6938546895980835
vn -0.4688430726528168 0.033962611109018326 -0.882628321647644
vn 0.5857366919517517 -0.3381752371788025 0.736579954624176
vn 0.467998743057251 -0.7025315165519714 0.5361219048500061
vn 0.0979495495557785 -0.9944984316825867 0.03713129088282585
vn -0.5165954232215881 -0.8444517850875854 0.1415284425020218
vn -0.5506247282028198 -0.5172780752182007 0.6551609039306641
vn -0.0640181228518486 0.7293270230293274 0.681163489818573
vn -0.453732430934906 -0.39111989736557007 0.8007197380065918
vn -0.6499449014663696 0.1751278191804886 0.7395281791687012
vn -0.10711417347192764 0.5421344637870789 -0.8334367275238037
vn -0.20248714089393616 0.9792630076408386 0.006554040592163801
vn 0.38781410455703735 -0.6314085125923157 -0.6715083718299866
vn -0.049104612320661545 -0.05564229190349579 0.9972425103187561
vn 0.5060092806816101 -0.608582079410553 0.6112139225006104
vn 0.31132951378822327 -0.13253967463970184 -0.9410139322280884
vn 0.43368101119995117 0.06773205101490021 -0.8985171914100647
vn 0.8055548071861267 -0.3729760944843292 0.46040233969688416
vn 0.8689665198326111 0.2168739289045334 -0.44481781125068665
vn 0.3409755527973175 -0.20773519575595856 0.916832447052002
vn 0.7224952578544617 0.49041417241096497 0.48733407258987427
vn -0.3756694495677948 0.8465509414672852 -0.37712597846984863
vn 0.38781410455703735 -0.6314085125923157 -0.6715083718299866
vn 0.31132951378822327 -0.13253967463970184 -0.9410139322280884
vn -0.709659218788147 0.6682791709899902 -0.22312943637371063
vn 0.43368101119995117 0.06773205101490021 -0.8985171914100647
vn -0.4181249439716339 -0.03007635846734047 0.9078915119171143
vn -0.4421343207359314 0.2654169201850891 0.8567795157432556
vn -0.882188081741333 0.3889170289039612 -0.26549527049064636
vn -0.5432056188583374 0.10154272615909576 -0.8334367275238037
vn 0.8689665198326111 0.2168739289045334 -0.44481781125068665
vn 0.7224952578544617 0.49041417241096497 0.48733407258987427
vn -0.5706394910812378 -0.007564649451524019 -0.8211658596992493
vn -0.0396418422460556 0.9885118007659912 -0.1458524912595749
vn -0.8808730840682983 -0.2750994563102722 0.3852050006389618
vn -0.41252273321151733 -0.754763126373291 0.5100564956665039
vn -0.42472395300865173 -0.40734800696372986 -0.8085030317306519
vn -0.537117063999176 0.27303874492645264 -0.7980946898460388
vn -0.2590722143650055 0.9170361161231995 0.30319350957870483
vn -0.6857519745826721 0.17560340464115143 -0.7063339352607727
vn -0.5222128033638 0.7437880039215088 0.417220801115036
vn -0.8239835500717163 0.45901936292648315 0.33219319581985474
vn 0.18066547811031342 -0.6000488996505737 -0.7792953848838806
vn -0.41176271438598633 -0.4678533375263214 -0.7820260524749756
vn -0.9339736104011536 0.13168497383594513 0.33219319581985474
vn -0.746394693851471 -0.5945400595664978 0.2990269064903259
vn 0.6464723944664001 0.0226593054831028 -0.762600839138031
vn 0.30018308758735657 -0.5878944396972656 -0.7511792182922363
vn -0.25838592648506165 -0.8318734765052795 0.4911448359489441
vn 0.28966060280799866 -0.9207765460014343 0.2612801790237427
vn -0.4151837229728699 0.24405229091644287 0.8763908743858337
vn 0.5174859762191772 -0.7681043148040771 0.37712597846984863
vn -0.5586137175559998 0.25228577852249146 0.790128231048584
vn 0.8220864534378052 -0.4078625738620758 0.3972681760787964
vn -0.11239319294691086 -0.15978917479515076 0.9807319641113281
vn 0.993730366230011 0.10545703768730164 -0.03713129088282585
vn 0.13856233656406403 -0.014939761720597744 0.9902410507202148
vn 0.4465407431125641 0.5079874992370605 -0.736579954624176
vn 0.11115313321352005 0.992533266544342 0.05022686347365379
vn -0.08805679529905319 0.05659066513180733 0.9945066571235657
vn -0.26229315996170044 0.1203492283821106 0.9574540853500366
vn -0.2096284180879593 0.9087464213371277 -0.36088213324546814
vn -0.5608791708946228 0.21038639545440674 0.8007197380065918
vn -0.3363051414489746 0.4872221350669861 0.8059239983558655
vn 0.9218193292617798 -0.30427953600883484 -0.2401314377784729
vn -0.20714205503463745 0.1486295610666275 -0.9669547080993652
vn -0.4248111844062805 -0.3646884262561798 -0.8285757899284363
vn 0.08407367020845413 0.07604014128446579 -0.9935539960861206
vn -0.14296671748161316 -0.9895321726799011 -0.01966099627315998
vn 0.31769847869873047 -0.4295567274093628 -0.8453097939491272
vn 0.09198905527591705 0.4491384029388428 -0.888714075088501
vn -0.34475934505462646 0.642493486404419 -0.6843559741973877
vn -0.8059455156326294 0.04526092857122421 0.590256929397583
vn 0.47466838359832764 -0.636655330657959 0.607749879360199
vn -0.7083587050437927 -0.314831405878067 0.6317508816719055
vn 0.18969008326530457 0.44682803750038147 -0.87427818775177
vn 0.8287992477416992 -0.07546036690473557 -0.5544344186782837
vn 0.6091157793998718 -0.7914892435073853 0.05022686347365379
vn 0.1855653077363968 -0.9123455286026001 0.3649536371231079
vn -0.08805679529905319 0.05659066513180733 0.9945066571235657
vn 0.13856233656406403 -0.014939761720597744 0.9902410507202148
vn -0.26229315996170044 0.1203492283821106 0.9574540853500366
vn -0.5608791708946228 0.21038639545440674 0.8007197380065918
vn 0.47466838359832764 -0.636655330657959 0.607749879360199
vn 0.8899566531181335 -0.16500763595104218 0.42514660954475403
vn 0.8111287951469421 0.5473660826683044 0.2060592919588089
vn -0.36408549547195435 -0.1538638174533844 0.9185682535171509
vn -0.43255239725112915 0.3198508322238922 0.8429672718048096
vn -0.7083587050437927 -0.314831405878067 0.6317508816719055
vn -0.6860237717628479 -0.7100362777709961 0.15880759060382843
vn -0.9924222230911255 -0.12050187587738037 0.024029340595006943
vn -0.21116577088832855 -0.17773833870887756 -0.961154580116272
vn -0.36408549547195435 -0.1538638174533844 0.9185682535171509
vn -0.46788159012794495 -0.8808507919311523 -0.07203252613544464
vn -0.43255239725112915 0.3198508322238922 0.8429672718048096
vn -0.7233213782310486 -0.4212401509284973 0.5471406579017639
vn 0.4073255956172943 -0.8539027571678162 -0.3239381015300751
vn 0.5521041750907898 -0.11271286755800247 -0.8261215686798096
vn 0.5768433809280396 0.7406430244445801 -0.34452807903289795
vn 0.5026352405548096 0.8630383014678955 0.05022686347365379
vn -0.5137940645217896 0.7944052815437317 0.3239381015300751
vn -0.7233213782310486 -0.4212401509284973 0.5471406579017639
vn -0.8517356514930725 0.4017973244190216 -0.3363112509250641
vn 0.09236683696508408 0.7751789689064026 -0.6249527335166931
vn -0.7580572366714478 -0.33750882744789124 -0.5580654144287109
vn 0.25764304399490356 0.4336446225643158 -0.8634653687477112
vn 0.4119252860546112 0.2777964770793915 -0.8678402304649353
vn -0.7333394885063171 -0.5458638668060303 -0.405272513628006
vn -0.7107176184654236 -0.17577458918094635 -0.681163489818573
vn 0.6524031162261963 -0.12014782428741455 -0.7482877969741821
vn -0.40955737233161926 0.1972324252128601 -0.8907088041305542
vn 0.45068684220314026 -0.7378038167953491 -0.5025205612182617
vn 0.899356484413147 0.060285236686468124 0.43303996324539185
vn 0.6847997903823853 0.46862801909446716 0.5580654144287109
vn 0.7892702221870422 0.5137580037117004 0.3363112509250641
vn 0.9873526692390442 0.11301179975271225 -0.1111890971660614
vn -0.632906973361969 -0.6195772290229797 0.4642767012119293
vn -0.2527519464492798 -0.4277496635913849 0.8678402304649353
vn -0.7580572366714478 -0.33750882744789124 -0.5580654144287109
vn -0.7333394885063171 -0.5458638668060303 -0.405272513628006
vn -0.43669748306274414 -0.3265869617462158 0.838234007358551
vn -0.7107176184654236 -0.17577458918094635 -0.681163489818573
vn -0.3486871123313904 0.17745403945446014 0.9202865362167358
vn -0.4720395803451538 0.742124617099762 0.4758462607860565
vn -0.40955737233161926 0.1972324252128601 -0.8907088041305542
vn -0.2434365302324295 0.7614417672157288 -0.6007870435714722
vn 0.1343233287334442 0.5546565651893616 0.8211658596992493
vn 0.48092183470726013 -0.3391711115837097 0.8085030317306519
vn -0.8517356514930725 0.4017973244190216 -0.3363112509250641
vn 0.27467265725135803 -0.7037891149520874 0.6551609039306641
vn -0.02076341025531292 -0.7748933434486389 -0.6317508816719055
vn -0.2434365302324295 0.7614417672157288 -0.6007870435714722
vn -0.2755092978477478 0.13148091733455658 -0.9522643685340881
vn -0.308258593082428 -0.9340529441833496 -0.18033768236637115
vn 0.1504420042037964 -0.4971579611301422 0.8545181155204773
vn 0.34297940135002136 0.8847174644470215 0.31565824151039124
vn -0.2755092978477478 0.13148091733455658 -0.9522643685340881
vn 0.40940308570861816 0.8072418570518494 -0.42514660954475403
vn 0.4361037611961365 0.09705660492181778 0.8946471214294434
vn 0.8355587720870972 0.5361649394035339 -0.11986933648586273
vn 0.14366206526756287 -0.3063560724258423 0.9410139322280884
vn 0.08069540560245514 -0.5540310740470886 0.8285757899284363
vn 0.7455042004585266 0.17956221103668213 -0.641857385635376
vn -0.3957333564758301 0.20736822485923767 -0.8946471214294434
vn -0.5465458631515503 -0.8158397674560547 0.18892620503902435
vn -0.44100335240364075 -0.07157174497842789 -0.8946471214294434
vn 0.40940308570861816 0.8072418570518494 -0.42514660954475403
vn -0.3957333564758301 0.20736822485923767 -0.8946471214294434
vn -0.8729469776153564 -0.4778384268283844 0.0981530249118805
vn -0.9734874367713928 0.07917056232690811 0.21460255980491638
vn -0.5058490633964539 0.5125254988670349 -0.6938546895980835
vn 0.7455042004585266 0.17956221103668213 -0.641857385635376
vn 0.3645296096801758 0.3431459069252014 -0.865661084651947
vn -0.49900737404823303 0.8542357087135315 -0.1458524912595749
vn -0.5947791934013367 0.11614677309989929 0.7954543828964233
vn 0.49782368540763855 -0.8345829248428345 0.23588760197162628
vn 0.3645296096801758 0.3431459069252014 -0.865661084651947
vn 0.37015238404273987 0.33142197132110596 -0.8678402304649353
vn 0.26301226019859314 -0.9365723729133606 -0.23163928091526031
vn 2.719484793606286e-13 -0.8753366470336914 -0.4835140109062195
vn -0.36955752968788147 -0.8158212900161743 0.44481781125068665
vn -0.6172053813934326 -0.77827388048172 0.11553031951189041
vn 0.42004671692848206 -0.18370641767978668 -0.888714075088501
vn 0.46200406551361084 0.5793347358703613 -0.6715083718299866
vn -0.4671158790588379 -0.05263131856918335 0.882628321647644
vn -0.20231705904006958 0.9784404635429382 0.04149730131030083
vn 0.37015238404273987 0.33142197132110596 -0.8678402304649353
vn 0.46200406551361084 0.5793347358703613 -0.6715083718299866
vn -0.073427215218544 0.852494478225708 0.5175535082817078
vn -0.10115472972393036 0.5833131670951843 0.8059239983558655
vn -0.5311844944953918 0.15240176022052765 0.8334367275238037
vn -0.6293672323226929 -0.6173443794250488 -0.4719987213611603
vn -0.8818376064300537 0.05661585181951523 -0.46814218163490295
vn 0.6757137775421143 -0.09784664213657379 -0.7306414246559143
vn 0.7637569308280945 -0.3857637941837311 -0.5175535082817078
vn 0.10529059916734695 -0.5535675883293152 -0.8261215686798096
vn 0.6242780089378357 -0.5949319005012512 0.5062933564186096
vn 0.2875167429447174 -0.8751179575920105 0.3892335295677185
vn -0.06384622305631638 -0.35725855827331543 -0.931820809841156
vn -0.23185521364212036 -0.9333897233009338 -0.27391019463539124
vn -0.6111199855804443 0.5577108860015869 -0.5616858005523682
vn -0.1786699742078781 0.6182308197021484 0.7654199600219727
vn 0.4685553014278412 0.29298320412635803 0.8334367275238037
vn 0.6946235299110413 0.5773851275444031 0.42909738421440125
vn 0.637680172920227 0.7615882754325867 -0.11553031951189041
vn 0.42004671692848206 -0.18370641767978668 -0.888714075088501
vn 0.6757137775421143 -0.09784664213657379 -0.7306414246559143
vn 0.7637569308280945 -0.3857637941837311 -0.5175535082817078
vn 0.6242780089378357 -0.5949319005012512 0.5062933564186096
vn 0.13923248648643494 0.3262980282306671 0.9349566102027893
vn -0.22280123829841614 0.9519031643867493 -0.2103329300880432
vn 0.2875167429447174 -0.8751179575920105 0.3892335295677185
vn 0.033824577927589417 -0.3938124179840088 0.9185682535171509
vn -0.23185521364212036 -0.9333897233009338 -0.27391019463539124
vn -0.5305423140525818 -0.7931631803512573 0.2990269064903259
vn 0.25310760736465454 0.303593248128891 0.9185682535171509
vn 0.16107167303562164 0.037037238478660583 0.9862475395202637
vn -0.840060293674469 -0.43205270171165466 0.3280687630176544
vn -0.7676043510437012 0.2232452929019928 0.6007870435714722
vn 0.7520018815994263 -0.1349364072084427 0.6452018022537231
vn 0.159397691488266 0.022401884198188782 0.986960232257843
vn -0.5876806974411011 0.7671710848808289 0.25706008076667786
vn 0.05442723259329796 0.44344577193260193 0.8946471214294434
vn -0.2532958388328552 0.8528959155082703 -0.456519216299057
vn 0.14296682178974152 0.9557617902755737 -0.25706008076667786
vn 0.28084510564804077 0.4588378369808197 0.8429672718048096
vn 0.5890163779258728 0.6143477559089661 0.5250110030174255
vn -0.003769757691770792 -0.7751623392105103 0.6317508816719055
vn 0.21711178123950958 -0.9609211087226868 0.17173540592193604
vn 0.5772209167480469 -0.7912648916244507 -0.2017817199230194
vn -0.09858185797929764 -0.3107416331768036 -0.9453682899475098
vn -0.25148266553878784 -0.3049406111240387 -0.9185682535171509
vn 0.8380634188652039 0.43591347336769104 -0.3280687630176544
vn 0.25898393988609314 -0.11751727759838104 -0.9587059020996094
vn -0.32685980200767517 0.20761051774024963 -0.9219872951507568
vn -0.2532958388328552 0.8528959155082703 -0.456519216299057
vn 0.5008386373519897 0.8196435570716858 -0.2781098484992981
vn 0.25916653871536255 0.934406578540802 0.24437066912651062
vn -0.10175131261348724 0.19136638939380646 -0.976230263710022
vn -0.18258588016033173 -0.0807410329580307 -0.97986900806427
vn -0.42413991689682007 -0.2114448994398117 -0.8805659413337708
vn -0.5305423140525818 -0.7931631803512573 0.2990269064903259
vn -0.840060293674469 -0.43205270171165466 0.3280687630176544
vn -0.7997083067893982 0.14271390438079834 -0.5831804275512695
vn -0.7676043510437012 0.2232452929019928 0.6007870435714722
vn -0.5876806974411011 0.7671710848808289 0.25706008076667786
vn 0.14296682178974152 0.9557617902755737 -0.25706008076667786
vn 0.2072688192129135 0.5694664120674133 -0.7954543828964233
vn -0.5417993068695068 -0.4924122095108032 -0.681163489818573
vn -0.26787760853767395 -0.6245371699333191 0.7336177229881287
vn 0.4444003701210022 -0.07496101409196854 0.8926864862442017
vn 0.8734856843948364 0.4846847951412201 -0.04586252197623253
vn 0.5890163779258728 0.6143477559089661 0.5250110030174255
vn 0.07139778137207031 0.35166922211647034 -0.933397650718689
vn 0.8734856843948364 0.4846847951412201 -0.04586252197623253
vn 0.47416383028030396 0.2541157007217407 -0.8429672718048096
vn -0.8749383687973022 0.026401560753583908 0.4835140109062195
vn -0.8156881332397461 -0.5609122514724731 0.1415284425020218
vn 0.7371418476104736 -0.3914705216884613 0.5507928133010864
vn 0.47416383028030396 0.2541157007217407 -0.8429672718048096
vn 0.6672492623329163 -0.5566027760505676 -0.4949462115764618
vn 0.1497841626405716 -0.695000946521759 0.7032341957092285
vn 0.2827152907848358 -0.914100170135498 -0.29067665338516235
vn -0.3741762638092041 0.026332689449191093 0.926983654499054
vn -0.40995657444000244 -0.7804824113845825 0.4719987213611603
vn 0.3284643292427063 -0.23396871984004974 -0.9150791168212891
vn -0.3717512786388397 -0.7445827722549438 -0.5544344186782837
vn -0.5732746720314026 -0.18547527492046356 0.7980946898460388
vn -0.5886707901954651 -0.47807273268699646 -0.651853621006012
vn -0.6404731869697571 0.4783816635608673 0.6007870435714722
vn -0.06228630989789963 0.5636652708053589 -0.8236515522003174
vn 0.21582993865013123 0.7179975509643555 -0.661737859249115
vn 0.007544659543782473 0.8645323514938354 0.5025205612182617
vn 0.6672492623329163 -0.5566027760505676 -0.4949462115764618
vn 0.2827152907848358 -0.914100170135498 -0.29067665338516235
vn 0.3284643292427063 -0.23396871984004974 -0.9150791168212891
vn 0.5912633538246155 0.36609476804733276 -0.7185974717140198
vn 0.34822431206703186 0.7889276742935181 0.5062933564186096
vn 0.7744878530502319 0.0979929268360138 -0.6249527335166931
vn -0.3717512786388397 -0.7445827722549438 -0.5544344186782837
vn -0.5886707901954651 -0.47807273268699646 -0.651853621006012
vn -0.1695406585931778 0.0037781267892569304 -0.9855159521102905
vn 0.2264479249715805 0.037386704236269 0.9733054637908936
vn 0.12296940386295319 -0.38826072216033936 -0.913308322429657
vn 0.5660216808319092 0.45964810252189636 0.6843559741973877
vn -0.7104341983795166 -0.07151065021753311 0.7001210451126099
vn -0.8216922879219055 0.5447836518287659 0.16742929816246033
vn -0.1695406585931778 0.0037781267892569304 -0.9855159521102905
vn -0.11861798912286758 0.8877313137054443 -0.44481781125068665
vn 0.12296940386295319 -0.38826072216033936 -0.913308322429657
vn -0.11771763861179352 0.5399312973022461 0.8334367275238037
vn 0.07727720588445663 -0.8676433563232422 0.4911448359489441
vn -0.3441738486289978 -0.8469347953796387 0.405272513628006
vn 0.0037813500966876745 -0.5416297316551208 -0.8406086564064026
vn -0.271471232175827 -0.5456861257553101 -0.7927988767623901
vn -0.4745001494884491 -0.08239327371120453 0.8763908743858337
vn -0.0969695895910263 0.4200214147567749 0.9023185968399048
vn 0.3228347599506378 0.8225695490837097 -0.46814218163490295
vn 0.0037813500966876745 -0.5416297316551208 -0.8406086564064026
vn -0.271471232175827 -0.5456861257553101 -0.7927988767623901
vn 0.7065680027008057 0.4442848265171051 -0.5507928133010864
vn 0.5318859219551086 -0.28309404850006104 -0.7980946898460388
vn 0.6479119658470154 0.3472506105899811 0.677958071231842
vn 0.8894413709640503 -0.4373088777065277 0.1328723281621933
vn -0.10498658567667007 -0.4502629041671753 -0.8867024183273315
vn 0.32619577646255493 -0.9452795386314392 0.006554040592163801
vn -0.35865893959999084 -0.41076454520225525 -0.838234007358551
vn -0.439400851726532 -0.8968858122825623 -0.05022686347365379
vn 0.22446884214878082 -0.5591588616371155 0.7980946898460388
vn -0.697109043598175 -0.6904396414756775 0.19321508705615997
vn 0.4551241397857666 0.7053322792053223 0.5434780716896057
vn -0.9900084137916565 -0.08671978116035461 0.1111890971660614
vn 0.02633250504732132 0.48088008165359497 0.8763908743858337
vn 0.5609552264213562 -0.17791035771369934 0.8085030317306519
vn 0.5318859219551086 -0.28309404850006104 -0.7980946898460388
vn -0.10498658567667007 -0.4502629041671753 -0.8867024183273315
vn -0.893347442150116 0.4134500026702881 -0.1760382205247879
vn -0.35865893959999084 -0.41076454520225525 -0.838234007358551
vn -0.23733463883399963 0.9622978568077087 0.1328723281621933
vn 0.6068161129951477 0.5868113040924072 0.5361219048500061
vn 0.6163420677185059 0.007534599397331476 0.7874425053596497
vn 0.18190190196037292 0.8866577744483948 -0.42514660954475403
vn -0.5255144834518433 -0.0377577468752861 -0.8499464392662048
vn -0.439400851726532 -0.8968858122825623 -0.05022686347365379
vn -0.697109043598175 -0.6904396414756775 0.19321508705615997
vn -0.5962256193161011 0.14217035472393036 -0.790128231048584
vn -0.8620712757110596 -0.40916505455970764 0.2990269064903259
vn -0.9951253533363342 0.09801129251718521 -0.010923261754214764
vn -0.20505551993846893 0.43576517701148987 -0.8763908743858337
vn -0.40458887815475464 0.6101836562156677 -0.681163489818573
vn -0.574078381061554 -0.11227152496576309 0.8110666871070862
vn -0.4105818569660187 0.8066429495811462 0.42514660954475403
vn 0.20603607594966888 0.609656810760498 -0.7654199600219727
vn 0.43656137585639954 0.6304230690002441 -0.641857385635376
vn 0.015066036023199558 0.6952630877494812 0.7185974717140198
vn 0.6699679493904114 0.6659682989120483 0.3280687630176544
vn 0.3079540729522705 0.030212054029107094 -0.9509214162826538
vn 0.8107078075408936 0.1651117205619812 -0.5616858005523682
vn 0.7046340107917786 0.3423217833042145 0.6215357780456543
vn 0.9068366885185242 -0.08291599899530411 -0.41324591636657715
vn 0.6196397542953491 0.015064132399857044 0.7847417593002319
vn 0.7512944936752319 -0.5113544464111328 0.417220801115036
vn -0.25589582324028015 0.15063714981079102 0.9548956751823425
vn 0.11452599614858627 -0.7170627117156982 0.6875353455543518
vn 0.35176900029182434 -0.4584342837333679 -0.8161473870277405
vn 0.4553969204425812 -0.30656084418296814 -0.8358433246612549
vn -0.5263813138008118 -0.022667087614536285 -0.8499464392662048
vn -0.3198431432247162 -0.2585177719593048 -0.9115201234817505
vn -0.6822120547294617 -0.6595048308372498 -0.31565824151039124
vn -0.12221579998731613 -0.7003748416900635 -0.7032341957092285
vn -0.5148447751998901 -0.5868295431137085 0.6249527335166931
vn 0.46355050802230835 -0.7349483966827393 -0.4949462115764618
vn -0.7137288451194763 -0.11628583818674088 0.6907016038894653
vn -0.40702345967292786 -0.12948349118232727 0.9041935205459595
vn -0.6630081534385681 0.11626828461885452 0.7395281791687012
vn -0.7600466012954712 0.4700780510902405 -0.4487268626689911
vn -0.25589582324028015 0.15063714981079102 0.9548956751823425
vn -0.36398932337760925 0.8762828707695007 0.31565824151039124
vn 0.11452599614858627 -0.7170627117156982 0.6875353455543518
vn 0.6196397542953491 0.015064132399857044 0.7847417593002319
vn 0.7046340107917786 0.3423217833042145 0.6215357780456543
vn 0.6699679493904114 0.6659682989120483 0.3280687630176544
vn 0.015066036023199558 0.6952630877494812 0.7185974717140198
vn -0.20588980615139008 -0.5167444348335266 0.8310141563415527
vn 0.8526226282119751 -0.4704572558403015 -0.22738653421401978
vn 0.9974815249443054 -0.04528277367353439 0.05459024757146835
vn 0.7394922375679016 0.43931034207344055 -0.5100564956665039
vn 0.4641730785369873 0.713377058506012 -0.5250110030174255
vn 0.9238244295120239 0.3826605975627899 -0.010923261754214764
vn -0.29109784960746765 -0.36416247487068176 0.8846737742424011
vn -0.574078381061554 -0.11227152496576309 0.8110666871070862
vn -0.4105818569660187 0.8066429495811462 0.42514660954475403
vn -0.8620712757110596 -0.40916505455970764 0.2990269064903259
vn -0.9951253533363342 0.09801129251718521 -0.010923261754214764
vn 0.46136096119880676 -0.03008206933736801 0.8867024183273315
vn -0.0396418422460556 0.9885118007659912 -0.1458524912595749
vn 0.08474871516227722 -0.962672233581543 0.25706008076667786
vn 0.2518686354160309 -0.9217499494552612 -0.2948545813560486
vn 0.7876307368278503 -0.48088976740837097 0.3852050006389618
vn 0.7130415439605713 -0.4965883493423462 -0.4949462115764618
vn 0.6822469234466553 0.1347472071647644 0.7185974717140198
vn 0.9372389912605286 -0.07546740770339966 -0.34042292833328247
vn 0.45738813281059265 -0.06749048829078674 0.8867024183273315
vn -0.8239835500717163 0.45901936292648315 0.33219319581985474
vn 0.2408045083284378 0.5173972249031067 0.8211658596992493
vn -0.9339736104011536 0.13168497383594513 0.33219319581985474
vn -0.746394693851471 -0.5945400595664978 0.2990269064903259
vn 0.30737581849098206 0.7654809951782227 0.5652954578399658
vn 0.23877650499343872 0.8570740818977356 -0.456519216299057
vn 0.39921700954437256 -0.21740201115608215 -0.8907088041305542
vn -0.03953859955072403 0.29429733753204346 -0.9548956751823425
vn -0.9443925619125366 0.3187520205974579 0.08074574917554855
vn -0.11239319294691086 -0.15978917479515076 0.9807319641113281
vn -0.2590722143650055 0.9170361161231995 0.30319350957870483
vn -0.5222128033638 0.7437880039215088 0.417220801115036
vn -0.5586137175559998 0.25228577852249146 0.790128231048584
vn -0.47087305784225464 0.7501504421234131 -0.4642767012119293
vn -0.4151837229728699 0.24405229091644287 0.8763908743858337
vn -0.2223030924797058 0.8867555856704712 -0.405272513628006
vn -0.3363051414489746 0.4872221350669861 0.8059239983558655
vn -0.6962651014328003 -0.7176218032836914 0.0152922747656703
vn -0.14848847687244415 -0.8928614258766174 -0.42514660954475403
vn -0.3858358860015869 -0.30081063508987427 0.872148871421814
vn 0.37496650218963623 0.19614139199256897 -0.9060511589050293
vn 0.279192715883255 0.9423172473907471 0.18463370203971863
vn -0.3858358860015869 -0.30081063508987427 0.872148871421814
vn 0.0037625895347446203 0.5006163716316223 0.865661084651947
vn -0.6962651014328003 -0.7176218032836914 0.0152922747656703
vn -0.4328339099884033 0.18336330354213715 0.882628321647644
vn 0.8880425691604614 0.14294704794883728 -0.43697428703308105
vn 0.503620445728302 0.06789279729127884 -0.8612531423568726
vn -0.6698861718177795 -0.45498037338256836 -0.5867242813110352
vn -0.4328339099884033 0.18336330354213715 0.882628321647644
vn -0.8196274042129517 0.2885120213031769 0.4949462115764618
vn -0.31737062335014343 0.01511822547763586 -0.9481810927391052
vn -0.7105233669281006 0.6985087990760803 0.08510008454322815
vn 0.9480860829353333 -0.2755230665206909 0.15880759060382843
vn -0.8196274042129517 0.2885120213031769 0.4949462115764618
vn 0.3313429057598114 -0.814728319644928 0.4758462607860565
vn -0.7105233669281006 0.6985087990760803 0.08510008454322815
vn -0.8195439577102661 -0.3134489953517914 0.4796847105026245
vn 0.6209478974342346 -0.7648076415061951 -0.17173540592193604
vn 0.4399001896381378 0.20524480938911438 -0.87427818775177
vn -0.16356690227985382 0.983222246170044 -0.08074574917554855
vn -0.8195439577102661 -0.3134489953517914 0.4796847105026245
vn -0.7552022337913513 0.6325950622558594 0.17173540592193604
vn 0.5934041142463684 0.7994200587272644 -0.09380380809307098
vn 0.7759346961975098 0.3862454891204834 -0.4987381398677826
vn 0.7877988815307617 -0.5789067149162292 -0.2103329300880432
vn -0.6266950368881226 -0.7746039628982544 0.08510008454322815
vn -0.7552022337913513 0.6325950622558594 0.17173540592193604
vn -0.917361319065094 -0.3963198661804199 0.03713129088282585
vn -0.6427230834960938 0.7627046704292297 0.07203252613544464
vn -0.9799349308013916 0.12044760584831238 -0.15880759060382843
vn -0.5879594087600708 -0.8073295950889587 -0.05022686347365379
vn -0.8443342447280884 -0.4329659938812256 -0.31565824151039124
vn -0.6347604393959045 0.5933864116668701 -0.4949462115764618
vn -0.7379012703895569 -0.015104292891919613 -0.67473965883255
vn -0.5168473124504089 -0.8499191403388977 -0.10250037163496017
vn -0.8482065200805664 -0.1982988715171814 -0.4911448359489441
vn -0.5597607493400574 -0.8186240196228027 0.12854042649269104
vn 0.19084225594997406 -0.8409793376922607 0.5062933564186096
vn 0.11993789672851562 -0.6753803491592407 0.7276512384414673
vn 0.6752226948738098 -0.22256676852703094 0.7032341957092285
vn 0.8493095636367798 -0.29618701338768005 0.43697428703308105
vn -0.024528197944164276 -0.988355278968811 0.15017375349998474
vn 0.3789486587047577 -0.9222594499588013 0.0763898640871048
vn 0.1484767496585846 -0.9868870377540588 -0.0633138045668602
vn 0.9777923226356506 -0.18029476702213287 -0.10684575140476227
vn 0.9699274301528931 -0.19485342502593994 0.1458524912595749
vn 0.5234245657920837 0.8512625694274902 -0.03713129088282585
vn 0.6917340159416199 0.6810587048530579 0.2401314377784729
vn 0.6241114735603333 0.29218393564224243 0.7246471047401428
vn 0.19862471520900726 0.9671237468719482 0.15880759060382843
vn -0.23819811642169952 0.7575629949569702 -0.607749879360199
vn -0.1576620191335678 0.8410000205039978 -0.5175535082817078
vn -0.7379012703895569 -0.015104292891919613 -0.67473965883255
vn -0.6347604393959045 0.5933864116668701 -0.4949462115764618
vn -0.42198848724365234 0.8918057680130005 -0.16312000155448914
vn -0.9799349308013916 0.12044760584831238 -0.15880759060382843
vn -0.6427230834960938 0.7627046704292297 0.07203252613544464
vn 0.8185122013092041 0.5741525888442993 -0.01966099627315998
s on
f 1//1 2//2 3//3
f 2//2 4//4 3//3
f 3//3 4//4 5//5
f 5//5 4//4 6//6
f 4//4 2//2 6//6
f 6//6 2//2 7//7
f 2//2 8//8 7//7
f 7//7 8//8 9//9
f 8//8 10//10 9//9
f 5//5 11//11 3//3
f 6//6 7//7 9//9
f 2//2 12//12 8//8
f 13//13 15//15 14//14
f 16//16 17//17 18//18
f 17//17 19//19 18//18
f 18//18 19//19 20//20
f 17//17 21//21 19//19
f 19//19 21//21 22//22
f 21//21 23//23 22//22
f 22//22 23//23 24//24
f 24//24 23//23 25//25
f 23//23 26//26 25//25
f 26//26 27//27 25//25
f 25//25 27//27 28//28
f 27//27 29//29 28//28
f 28//28 29//29 30//30
f 30//30 29//29 31//31
f 31//31 29//29 32//32
f 32//32 29//29 33//33
f 29//29 27//27 33//33
f 30//30 34//34 28//28
f 34//34 25//25 28//28
f 35//35 36//36 37//37
f 36//36 38//38 37//37
f 37//37 38//38 30//30
f 30//30 38//38 34//34
f 38//38 39//39 34//34
f 34//34 39//39 40//40
f 40//40 39//39 41//41
f 41//41 39//39 42//42
f 42//42 39//39 36//36
f 39//39 38//38 36//36
f 31//31 37//37 30//30
f 40//40 43//43 34//34
f 34//34 43//43 25//25
f 43//43 44//44 25//25
f 25//25 44//44 24//24
f 24//24 44//44 22//22
f 44//44 45//45 22//22
f 22//22 45//45 19//19
f 45//45 46//46 19//19
f 19//19 46//46 20//20
f 20//20 46//46 47//47
f 47//47 46//46 48//48
f 48//48 46//46 49//49
f 46//46 45//45 49//49
f 45//45 44//44 49//49
f 49//49 44//44 50//50
f 44//44 43//43 50//50
f 43//43 40//40 50//50
f 40//40 41//41 50//50
f 41//41 51//51 50//50
f 51//51 52//52 50//50
f 50//50 52//52 49//49
f 52//52 48//48 49//49
f 35//35 37//37 53//53
f 37//37 54//54 53//53
f 54//54 55//55 53//53
f 53//53 55//55 56//56
f 56//56 55//55 57//57
f 55//55 58//58 57//57
f 57//57 58//58 59//59
f 58//58 60//60 59//59
f 59//59 60//60 61//61
f 37//37 31//31 54//54
f 54//54 31//31 62//62
f 31//31 32//32 62//62
f 32//32 63//63 62//62
f 63//63 64//64 62//62
f 62//62 64//64 65//65
f 64//64 66//66 65//65
f 60//60 58//58 67//67
f 58//58 55//55 67//67
f 67//67 55//55 68//68
f 55//55 54//54 68//68
f 54//54 62//62 68//68
f 62//62 65//65 68//68
f 68//68 65//65 69//69
f 65//65 66//66 69//69
f 69//69 66//66 70//70
f 66//66 71//71 70//70
f 71//71 72//72 70//70
f 70//70 72//72 73//73
f 72//72 74//74 73//73
f 68//68 69//69 67//67
f 69//69 75//75 67//67
f 67//67 75//75 60//60
f 75//75 76//76 60//60
f 60//60 76//76 61//61
f 69//69 70//70 75//75
f 70//70 73//73 75//75
f 75//75 73//73 76//76
f 76//76 73//73 77//77
f 73//73 74//74 77//77
f 77//77 74//74 78//78
f 74//74 79//79 78//78
f 78//78 79//79 80//80
f 79//79 81//81 80//80
f 81//81 82//82 80//80
f 80//80 82//82 83//83
f 83//83 82//82 84//84
f 82//82 85//85 84//84
f 85//85 86//86 84//84
f 84//84 86//86 87//87
f 87//87 86//86 88//88
f 86//86 89//89 88//88
f 88//88 89//89 90//90
f 89//89 91//91 90//90
f 90//90 91//91 92//92
f 91//91 93//93 92//92
f 92//92 93//93 94//94
f 93//93 95//95 94//94
f 94//94 95//95 96//96
f 95//95 97//97 96//96
f 96//96 97//97 98//98
f 98//98 97//97 99//99
f 97//97 100//100 99//99
f 100//100 101//101 99//99
f 99//99 101//101 102//102
f 101//101 103//103 102//102
f 86//86 104//104 89//89
f 104//104 91//91 89//89
f 96//96 105//105 94//94
f 105//105 92//92 94//94
f 105//105 96//96 106//106
f 96//96 98//98 106//106
f 106//106 98//98 107//107
f 98//98 108//108 107//107
f 107//107 108//108 109//109
f 109//109 108//108 110//110
f 108//108 102//102 110//110
f 110//110 102//102 111//111
f 102//102 103//103 111//111
f 111//111 103//103 112//112
f 112//112 103//103 113//113
f 103//103 114//114 113//113
f 114//114 115//115 113//113
f 113//113 115//115 112//112
f 115//115 116//116 112//112
f 116//116 117//117 112//112
f 112//112 117//117 111//111
f 117//117 118//118 111//111
f 111//111 118//118 110//110
f 118//118 119//119 110//110
f 110//110 119//119 109//109
f 119//119 120//120 109//109
f 109//109 120//120 121//121
f 102//102 108//108 99//99
f 99//99 108//108 98//98
f 120//120 119//119 122//122
f 122//122 119//119 123//123
f 119//119 118//118 123//123
f 123//123 118//118 124//124
f 118//118 117//117 124//124
f 124//124 117//117 125//125
f 117//117 116//116 125//125
f 116//116 126//126 125//125
f 125//125 126//126 127//127
f 126//126 128//128 127//127
f 124//124 125//125 129//129
f 125//125 127//127 129//129
f 109//109 130//130 107//107
f 130//130 131//131 107//107
f 107//107 131//131 106//106
f 126//126 116//116 132//132
f 116//116 115//115 132//132
f 115//115 133//133 132//132
f 132//132 133//133 134//134
f 133//133 135//135 134//134
f 135//135 136//136 134//134
f 136//136 137//137 134//134
f 134//134 137//137 138//138
f 137//137 139//139 138//138
f 138//138 139//139 140//140
f 139//139 128//128 140//140
f 128//128 126//126 140//140
f 140//140 126//126 138//138
f 126//126 132//132 138//138
f 138//138 132//132 134//134
f 139//139 141//141 128//128
f 128//128 141//141 142//142
f 142//142 141//141 143//143
f 141//141 144//144 143//143
f 143//143 144//144 145//145
f 144//144 146//146 145//145
f 146//146 147//147 145//145
f 145//145 147//147 148//148
f 148//148 147//147 149//149
f 147//147 150//150 149//149
f 149//149 150//150 151//151
f 151//151 150//150 152//152
f 152//152 150//150 153//153
f 150//150 147//147 153//153
f 153//153 147//147 154//154
f 154//154 147//147 155//155
f 147//147 146//146 155//155
f 155//155 146//146 156//156
f 146//146 144//144 156//156
f 156//156 144//144 139//139
f 144//144 141//141 139//139
f 139//139 137//137 156//156
f 137//137 157//157 156//156
f 156//156 157//157 158//158
f 157//157 159//159 158//158
f 159//159 160//160 158//158
f 158//158 160//160 161//161
f 160//160 162//162 161//161
f 156//156 158//158 155//155
f 155//155 158//158 154//154
f 158//158 161//161 154//154
f 154//154 161//161 163//163
f 161//161 162//162 163//163
f 163//163 162//162 164//164
f 162//162 165//165 164//164
f 165//165 166//166 164//164
f 166//166 167//167 164//164
f 167//167 168//168 164//164
f 164//164 168//168 163//163
f 168//168 153//153 163//163
f 163//163 153//153 154//154
f 137//137 136//136 157//157
f 136//136 169//169 157//157
f 157//157 169//169 159//159
f 153//153 168//168 152//152
f 152//152 168//168 170//170
f 168//168 167//167 170//170
f 170//170 171//171 152//152
f 152//152 171//171 151//151
f 151//151 171//171 172//172
f 172//172 171//171 173//173
f 173//173 171//171 174//174
f 174//174 171//171 175//175
f 171//171 170//170 175//175
f 170//170 167//167 175//175
f 175//175 167//167 176//176
f 167//167 166//166 176//176
f 166//166 177//177 176//176
f 177//177 178//178 176//176
f 176//176 178//178 179//179
f 178//178 180//180 179//179
f 179//179 180//180 181//181
f 181//181 180//180 182//182
f 182//182 180//180 183//183
f 183//183 180//180 184//184
f 180//180 178//178 184//184
f 176//176 179//179 175//175
f 179//179 185//185 175//175
f 175//175 185//185 174//174
f 174//174 185//185 173//173
f 185//185 186//186 173//173
f 173//173 186//186 187//187
f 187//187 186//186 188//188
f 186//186 189//189 188//188
f 188//188 189//189 190//190
f 190//190 189//189 182//182
f 182//182 189//189 181//181
f 189//189 185//185 181//181
f 181//181 185//185 179//179
f 186//186 185//185 189//189
f 190//190 191//191 188//188
f 188//188 191//191 192//192
f 192//192 191//191 193//193
f 193//193 191//191 194//194
f 191//191 190//190 194//194
f 194//194 190//190 195//195
f 190//190 182//182 195//195
f 195//195 182//182 196//196
f 182//182 183//183 196//196
f 183//183 197//197 196//196
f 197//197 198//198 196//196
f 196//196 198//198 199//199
f 198//198 200//200 199//199
f 199//199 200//200 201//201
f 201//201 200//200 202//202
f 202//202 200//200 203//203
f 203//203 200//200 204//204
f 200//200 198//198 204//204
f 201//201 205//205 199//199
f 199//199 205//205 196//196
f 196//196 205//205 195//195
f 195//195 205//205 194//194
f 205//205 206//206 194//194
f 194//194 206//206 193//193
f 193//193 206//206 207//207
f 207//207 206//206 208//208
f 206//206 209//209 208//208
f 208//208 209//209 210//210
f 209//209 205//205 210//210
f 205//205 201//201 210//210
f 201//201 202//202 210//210
f 210//210 202//202 211//211
f 202//202 212//212 211//211
f 211//211 212//212 213//213
f 212//212 214//214 213//213
f 214//214 215//215 213//213
f 213//213 215//215 216//216
f 215//215 217//217 216//216
f 217//217 218//218 216//216
f 216//216 218//218 219//219
f 218//218 220//220 219//219
f 209//209 206//206 205//205
f 202//202 203//203 212//212
f 212//212 203//203 214//214
f 219//219 221//221 216//216
f 216//216 221//221 213//213
f 221//221 222//222 213//213
f 222//222 223//223 213//213
f 213//213 223//223 211//211
f 223//223 224//224 211//211
f 211//211 224//224 210//210
f 224//224 225//225 210//210
f 210//210 225//225 208//208
f 208//208 225//225 226//226
f 226//226 225//225 227//227
f 225//225 224//224 227//227
f 224//224 223//223 227//227
f 227//227 223//223 228//228
f 228//228 223//223 229//229
f 223//223 222//222 229//229
f 229//229 222//222 230//230
f 230//230 222//222 231//231
f 222//222 221//221 231//231
f 231//231 221//221 219//219
f 229//229 230//230 232//232
f 230//230 233//233 232//232
f 232//232 233//233 234//234
f 234//234 233//233 235//235
f 233//233 236//236 235//235
f 236//236 237//237 235//235
f 235//235 237//237 238//238
f 238//238 237//237 239//239
f 237//237 240//240 239//239
f 240//240 241//241 239//239
f 239//239 241//241 242//242
f 241//241 243//243 242//242
f 242//242 243//243 244//244
f 244//244 243//243 245//245
f 243//243 246//246 245//245
f 245//245 246//246 247//247
f 247//247 246//246 248//248
f 246//246 243//243 248//248
f 248//248 243//243 249//249
f 243//243 241//241 249//249
f 249//249 241//241 250//250
f 241//241 240//240 250//250
f 250//250 251//251 249//249
f 251//251 252//252 249//249
f 249//249 252//252 248//248
f 237//237 253//253 240//240
f 253//253 254//254 240//240
f 240//240 254//254 250//250
f 254//254 255//255 250//250
f 250//250 255//255 251//251
f 255//255 256//256 251//251
f 251//251 256//256 252//252
f 237//237 236//236 253//253
f 253//253 236//236 257//257
f 236//236 258//258 257//257
f 257//257 258//258 259//259
f 258//258 219//219 259//259
f 219//219 220//220 259//259
f 220//220 260//260 259//259
f 259//259 260//260 257//257
f 257//257 260//260 253//253
f 260//260 261//261 253//253
f 253//253 261//261 254//254
f 236//236 233//233 258//258
f 233//233 230//230 258//258
f 230//230 231//231 258//258
f 258//258 231//231 219//219
f 220//220 262//262 260//260
f 260//260 262//262 261//261
f 262//262 263//263 261//261
f 261//261 263//263 264//264
f 263//263 265//265 264//264
f 265//265 266//266 264//264
f 264//264 266//266 255//255
f 266//266 256//256 255//255
f 261//261 264//264 254//254
f 264//264 255//255 254//254
f 256//256 267//267 252//252
f 267//267 268//268 252//252
f 268//268 269//269 252//252
f 252//252 269//269 248//248
f 269//269 270//270 248//248
f 248//248 270//270 247//247
f 270//270 271//271 247//247
f 247//247 271//271 272//272
f 267//267 273//273 268//268
f 268//268 273//273 274//274
f 273//273 275//275 274//274
f 275//275 276//276 274//274
f 276//276 277//277 274//274
f 274//274 277//277 278//278
f 277//277 271//271 278//278
f 271//271 270//270 278//278
f 270//270 269//269 278//278
f 278//278 269//269 274//274
f 269//269 268//268 274//274
f 277//277 279//279 271//271
f 271//271 279//279 272//272
f 272//272 279//279 280//280
f 280//280 279//279 281//281
f 279//279 282//282 281//281
f 281//281 282//282 283//283
f 282//282 284//284 283//283
f 284//284 285//285 283//283
f 283//283 285//285 286//286
f 286//286 285//285 287//287
f 285//285 288//288 287//287
f 287//287 288//288 289//289
f 279//279 277//277 282//282
f 282//282 277//277 290//290
f 277//277 291//291 290//290
f 291//291 292//292 290//290
f 290//290 292//292 284//284
f 292//292 293//293 284//284
f 284//284 293//293 285//285
f 293//293 288//288 285//285
f 290//290 284//284 282//282
f 277//277 276//276 291//291
f 276//276 294//294 291//291
f 294//294 295//295 291//291
f 291//291 295//295 292//292
f 295//295 296//296 292//292
f 292//292 296//296 293//293
f 296//296 297//297 293//293
f 293//293 297//297 298//298
f 298//298 297//297 299//299
f 297//297 300//300 299//299
f 300//300 301//301 299//299
f 301//301 302//302 299//299
f 299//299 302//302 303//303
f 302//302 304//304 303//303
f 296//296 300//300 297//297
f 293//293 298//298 288//288
f 288//288 298//298 305//305
f 298//298 299//299 305//305
f 299//299 303//303 305//305
f 305//305 303//303 306//306
f 303//303 307//307 306//306
f 306//306 307//307 289//289
f 289//289 307//307 308//308
f 307//307 309//309 308//308
f 308//308 309//309 310//310
f 305//305 306//306 288//288
f 288//288 306//306 289//289
f 309//309 307//307 311//311
f 307//307 303//303 311//311
f 311//311 303//303 312//312
f 303//303 304//304 312//312
f 312//312 304//304 313//313
f 304//304 314//314 313//313
f 314//314 315//315 313//313
f 315//315 316//316 313//313
f 316//316 317//317 313//313
f 313//313 317//317 312//312
f 312//312 317//317 311//311
f 317//317 318//318 311//311
f 311//311 318//318 309//309
f 309//309 318//318 310//310
f 310//310 318//318 319//319
f 319//319 318//318 320//320
f 318//318 321//321 320//320
f 320//320 321//321 322//322
f 321//321 323//323 322//322
f 323//323 324//324 322//322
f 322//322 324//324 325//325
f 324//324 326//326 325//325
f 325//325 326//326 327//327
f 327//327 326//326 328//328
f 326//326 329//329 328//328
f 328//328 329//329 330//330
f 321//321 318//318 331//331
f 318//318 317//317 331//331
f 317//317 316//316 331//331
f 331//331 316//316 323//323
f 316//316 332//332 323//323
f 332//332 333//333 323//323
f 323//323 333//333 324//324
f 333//333 334//334 324//324
f 324//324 334//334 326//326
f 334//334 329//329 326//326
f 323//323 321//321 331//331
f 316//316 315//315 332//332
f 315//315 335//335 332//332
f 335//335 336//336 332//332
f 332//332 336//336 337//337
f 336//336 338//338 337//337
f 338//338 339//339 337//337
f 337//337 339//339 333//333
f 333//333 339//339 334//334
f 339//339 340//340 334//334
f 334//334 340//340 329//329
f 340//340 341//341 329//329
f 329//329 341//341 330//330
f 332//332 337//337 333//333
f 341//341 340//340 342//342
f 340//340 339//339 342//342
f 342//342 339//339 343//343
f 339//339 338//338 343//343
f 338//338 344//344 343//343
f 344//344 345//345 343//343
f 343//343 345//345 346//346
f 345//345 347//347 346//346
f 347//347 348//348 346//346
f 346//346 348//348 349//349
f 349//349 348//348 350//350
f 348//348 351//351 350//350
f 351//351 352//352 350//350
f 350//350 352//352 353//353
f 353//353 352//352 354//354
f 352//352 355//355 354//354
f 355//355 356//356 354//354
f 354//354 356//356 357//357
f 357//357 356//356 358//358
f 356//356 359//359 358//358
f 358//358 359//359 360//360
f 359//359 361//361 360//360
f 360//360 361//361 362//362
f 361//361 363//363 362//362
f 363//363 364//364 362//362
f 364//364 365//365 362//362
f 365//365 366//366 362//362
f 362//362 366//366 360//360
f 366//366 367//367 360//360
f 367//367 368//368 360//360
f 360//360 368//368 358//358
f 358//358 368//368 357//357
f 368//368 369//369 357//357
f 357//357 369//369 370//370
f 369//369 371//371 370//370
f 371//371 372//372 370//370
f 370//370 372//372 354//354
f 372//372 353//353 354//354
f 342//342 343//343 346//346
f 357//357 370//370 354//354
f 368//368 373//373 369//369
f 373//373 374//374 369//369
f 369//369 374//374 371//371
f 368//368 367//367 373//373
f 373//373 367//367 375//375
f 367//367 376//376 375//375
f 375//375 376//376 377//377
f 376//376 378//378 377//377
f 377//377 378//378 379//379
f 367//367 366//366 376//376
f 376//376 366//366 378//378
f 366//366 365//365 378//378
f 377//377 380//380 375//375
f 375//375 380//380 373//373
f 380//380 381//381 373//373
f 373//373 381//381 374//374
f 381//381 382//382 374//374
f 382//382 383//383 374//374
f 374//374 383//383 371//371
f 383//383 384//384 371//371
f 371//371 384//384 372//372
f 384//384 385//385 372//372
f 372//372 385//385 353//353
f 353//353 385//385 350//350
f 350//350 385//385 349//349
f 385//385 386//386 349//349
f 386//386 387//387 349//349
f 349//349 387//387 346//346
f 387//387 388//388 346//346
f 346//346 388//388 342//342
f 342//342 388//388 341//341
f 388//388 387//387 341//341
f 341//341 387//387 389//389
f 387//387 386//386 389//389
f 389//389 386//386 390//390
f 386//386 385//385 390//390
f 390//390 385//385 391//391
f 385//385 384//384 391//391
f 391//391 384//384 392//392
f 384//384 383//383 392//392
f 389//389 390//390 341//341
f 341//341 390//390 330//330
f 330//330 390//390 393//393
f 393//393 390//390 394//394
f 390//390 391//391 394//394
f 76//76 395//395 61//61
f 395//395 396//396 61//61
f 395//395 76//76 397//397
f 76//76 77//77 397//397
f 397//397 77//77 398//398
f 77//77 78//78 398//398
f 78//78 80//80 398//398
f 80//80 83//83 398//398
f 398//398 83//83 399//399
f 83//83 400//400 399//399
f 399//399 400//400 401//401
f 401//401 400//400 402//402
f 400//400 84//84 402//402
f 402//402 84//84 87//87
f 397//397 398//398 395//395
f 395//395 398//398 403//403
f 398//398 399//399 403//403
f 399//399 401//401 403//403
f 403//403 401//401 404//404
f 401//401 405//405 404//404
f 404//404 405//405 406//406
f 406//406 405//405 407//407
f 407//407 405//405 408//408
f 405//405 402//402 408//408
f 402//402 87//87 408//408
f 408//408 87//87 409//409
f 87//87 88//88 409//409
f 409//409 88//88 410//410
f 88//88 90//90 410//410
f 90//90 92//92 410//410
f 410//410 92//92 411//411
f 92//92 105//105 411//411
f 105//105 106//106 411//411
f 411//411 106//106 412//412
f 106//106 131//131 412//412
f 412//412 131//131 413//413
f 131//131 130//130 413//413
f 413//413 130//130 121//121
f 130//130 109//109 121//121
f 400//400 83//83 84//84
f 395//395 403//403 396//396
f 396//396 403//403 414//414
f 414//414 403//403 415//415
f 403//403 404//404 415//415
f 402//402 405//405 401//401
f 413//413 416//416 412//412
f 412//412 416//416 417//417
f 416//416 418//418 417//417
f 417//417 418//418 419//419
f 418//418 420//420 419//419
f 419//419 420//420 409//409
f 409//409 420//420 408//408
f 420//420 407//407 408//408
f 412//412 417//417 411//411
f 417//417 419//419 411//411
f 411//411 419//419 410//410
f 419//419 409//409 410//410
f 421//421 422//422 423//423
f 423//423 422//422 364//364
f 364//364 422//422 365//365
f 422//422 424//424 365//365
f 365//365 424//424 378//378
f 424//424 425//425 378//378
f 378//378 425//425 426//426
f 425//425 427//427 426//426
f 426//426 427//427 428//428
f 428//428 427//427 429//429
f 429//429 427//427 430//430
f 427//427 431//431 430//430
f 430//430 431//431 432//432
f 431//431 421//421 432//432
f 421//421 433//433 432//432
f 433//433 434//434 432//432
f 432//432 434//434 435//435
f 434//434 436//436 435//435
f 421//421 431//431 422//422
f 422//422 431//431 424//424
f 424//424 431//431 425//425
f 431//431 427//427 425//425
f 378//378 426//426 379//379
f 432//432 435//435 430//430
f 435//435 437//437 430//430
f 430//430 437//437 429//429
f 429//429 437//437 438//438
f 437//437 439//439 438//438
f 438//438 439//439 440//440
f 440//440 439//439 441//441
f 441//441 439//439 442//442
f 442//442 439//439 443//443
f 439//439 437//437 443//443
f 437//437 435//435 443//443
f 435//435 436//436 443//443
f 443//443 436//436 444//444
f 436//436 445//445 444//444
f 445//445 446//446 444//444
f 446//446 447//447 444//444
f 444//444 447//447 448//448
f 447//447 449//449 448//448
f 448//448 449//449 442//442
f 442//442 449//449 441//441
f 449//449 450//450 441//441
f 441//441 450//450 451//451
f 450//450 452//452 451//451
f 451//451 452//452 453//453
f 453//453 452//452 454//454
f 452//452 455//455 454//454
f 455//455 456//456 454//454
f 454//454 456//456 457//457
f 457//457 456//456 458//458
f 456//456 459//459 458//458
f 458//458 459//459 460//460
f 460//460 459//459 461//461
f 459//459 462//462 461//461
f 461//461 462//462 463//463
f 463//463 462//462 464//464
f 464//464 462//462 465//465
f 462//462 466//466 465//465
f 465//465 466//466 467//467
f 466//466 455//455 467//467
f 467//467 455//455 468//468
f 455//455 452//452 468//468
f 452//452 450//450 468//468
f 450//450 449//449 468//468
f 449//449 469//469 468//468
f 469//469 470//470 468//468
f 468//468 470//470 467//467
f 467//467 470//470 465//465
f 470//470 471//471 465//465
f 471//471 472//472 465//465
f 465//465 472//472 464//464
f 464//464 472//472 473//473
f 473//473 472//472 474//474
f 474//474 472//472 475//475
f 472//472 476//476 475//475
f 475//475 476//476 477//477
f 477//477 476//476 478//478
f 476//476 471//471 478//478
f 471//471 479//479 478//478
f 478//478 479//479 480//480
f 480//480 479//479 481//481
f 481//481 479//479 482//482
f 479//479 471//471 482//482
f 471//471 470//470 482//482
f 470//470 469//469 482//482
f 469//469 449//449 482//482
f 449//449 447//447 482//482
f 447//447 446//446 482//482
f 482//482 446//446 481//481
f 444//444 448//448 443//443
f 443//443 448//448 442//442
f 462//462 459//459 466//466
f 459//459 456//456 466//466
f 466//466 456//456 455//455
f 476//476 472//472 471//471

