# Exported by Sketchfab Model Ripper robust edition
o model_12
v 6.669553279876709 37.88745880126953 -2.395711898803711
v 6.241644382476807 39.50640869140625 -2.6659886837005615
v 7.5603814125061035 37.840999603271484 -3.868720531463623
v 7.249175071716309 39.56359100341797 -4.250486373901367
v 8.984150886535645 39.62077331542969 -4.013994216918945
v 9.1203031539917 37.96250915527344 -3.831557273864746
v 10.357349395751953 40.02104187011719 -3.095053195953369
v 10.104494094848633 38.19123458862305 -2.7504501342773438
v 10.318448066711426 40.20688247680664 -1.7301552295684814
v 9.902209281921387 38.39494705200195 -1.5342046022415161
v 5.510309219360352 40.84302520751953 -3.1592438220977783
v 6.0627007484436035 40.69292449951172 -4.476843357086182
v 4.401636600494385 42.1188850402832 -3.946424961090088
v 7.610952377319336 41.028865814208984 -4.777526378631592
v 8.727405548095703 41.0860481262207 -4.345083236694336
v 9.820517539978027 41.232574462890625 -4.101834297180176
v 10.909740447998047 41.41484069824219 -3.132216215133667
v 10.933080673217773 41.54349899291992 -2.122056484222412
v 9.96445083618164 40.64646530151367 -0.3044451177120209
v 9.801067352294922 38.509307861328125 -0.21998362243175507
v 8.88300895690918 40.45347595214844 0.4354376196861267
v 8.925799369812012 38.46999740600586 0.3239484429359436
v 7.669303894042969 38.2877311706543 -0.6558049321174622
v 7.249175071716309 40.41059112548828 -0.7335095405578613
v 6.241644382476807 39.50640869140625 -2.6659886837005615
v 6.05103063583374 41.67573165893555 -1.6693429946899414
v 5.510309219360352 40.84302520751953 -3.1592438220977783
v 4.852885723114014 42.81221008300781 -2.355170249938965
v 4.401636600494385 42.1188850402832 -3.946424961090088
v 4.230473041534424 43.891510009765625 -2.9024808406829834
v 4.082650184631348 43.36615753173828 -4.524141788482666
v 6.669553279876709 37.88745880126953 -2.395711898803711
v 5.813735485076904 43.494815826416016 -1.1220324039459229
v 6.424478054046631 42.526302337646484 -0.8889186978340149
v 7.4864702224731445 42.122459411621094 -0.24025438725948334
v 8.847997665405273 42.0438346862793 0.38476070761680603
v 9.933330535888672 42.101016998291016 -0.08822368085384369
v 9.812737464904785 43.57344055175781 -0.45985427498817444
v 8.610703468322754 43.55914306640625 -0.2503897547721863
v 7.2452850341796875 43.60203170776367 -0.5206665396690369
v 5.276904582977295 44.40256881713867 -1.5342046022415161
v 5.2574543952941895 44.70634841918945 -2.142327308654785
v 4.4988884925842285 44.22745132446289 -3.291003704071045
v 4.436647415161133 43.78429412841797 -4.628873825073242
v 4.747853755950928 43.058807373046875 -5.862011909484863
v 4.946247577667236 43.58773422241211 -5.7471442222595215
v 6.004349708557129 43.083824157714844 -6.480269908905029
v 5.872087001800537 43.698524475097656 -6.331617832183838
v 7.54871129989624 43.266090393066406 -6.3248610496521
v 5.144641876220703 43.684226989746094 -5.473488807678223
v 4.84121561050415 43.81288528442383 -4.608603000640869
v 4.884006500244141 44.17026901245117 -3.4565482139587402
v 5.315805435180664 44.613426208496094 -2.5680134296417236
v 5.872087001800537 44.80284118652344 -2.4261178970336914
v 5.448068141937256 44.184566497802734 -3.4768190383911133
v 5.393607139587402 43.866493225097656 -4.632252216339111
v 5.7164835929870605 43.78786849975586 -5.743765830993652
v 6.801815986633301 43.930824279785156 -6.294454574584961
v 7.669303894042969 43.68065643310547 -5.723495006561279
v 8.606813430786133 43.24464797973633 -5.818091869354248
v 8.34228801727295 43.82718276977539 -5.622141361236572
v 9.594893455505371 43.59845733642578 -5.514030456542969
v 7.5603814125061035 44.120235443115234 -5.260645866394043
v 7.113022327423096 43.948692321777344 -5.804577827453613
v 6.323336124420166 43.93796920776367 -5.757279396057129
v 5.953778266906738 43.99515151977539 -4.669415473937988
v 6.00823974609375 44.25246810913086 -3.54776668548584
v 6.315556049346924 44.89575958251953 -2.6693670749664307
v 6.331116199493408 44.80641555786133 -1.689613699913025
v 6.941858768463135 44.649166107177734 -0.9598663449287415
v 8.369518280029297 44.49549102783203 -0.7841864228248596
v 9.567663192749023 44.65631103515625 -0.9429740309715271
v 10.866949081420898 43.5770149230957 -0.8618910312652588
v 10.664665222167969 42.48341751098633 -0.5544511675834656
v 11.532153129577637 43.251792907714844 -1.6389368772506714
v 10.80081844329834 41.897308349609375 -1.142303228378296
v 10.793038368225098 44.645591735839844 -1.2639278173446655
v 11.62551498413086 44.556243896484375 -2.095028877258301
v 12.01063346862793 44.29535675048828 -3.172757625579834
v 11.823908805847168 42.92657470703125 -2.6490962505340576
v 11.578834533691406 42.7264404296875 -3.726824998855591
v 10.769697189331055 42.66568374633789 -4.493735313415527
v 11.026442527770996 43.698524475097656 -5.301187515258789
v 9.594893455505371 43.59845733642578 -5.514030456542969
v 9.62601375579834 42.61207580566406 -4.767390727996826
v 10.559633255004883 41.690025329589844 -3.8923697471618652
v 12.04564380645752 43.9915771484375 -4.429544925689697
v 8.606813430786133 43.24464797973633 -5.818091869354248
v 8.680724143981934 42.397647857666016 -5.182941436767578
v 7.680974006652832 42.136756896972656 -5.831605911254883
v 6.681223392486572 41.175392150878906 -5.0714521408081055
v 6.288325309753418 41.933048248291016 -6.0241780281066895
v 7.54871129989624 43.266090393066406 -6.3248610496521
v 6.004349708557129 43.083824157714844 -6.480269908905029
v 5.179652690887451 41.91160202026367 -5.233618259429932
v 4.747853755950928 43.058807373046875 -5.862011909484863
v 4.082650184631348 43.36615753173828 -4.524141788482666
v 6.782365322113037 44.92435073852539 -2.040973663330078
v 7.323086738586426 44.92435073852539 -1.5747461318969727
v 8.194464683532715 44.73136520385742 -1.4463646411895752
v 8.369518280029297 44.49549102783203 -0.7841864228248596
v 8.991930961608887 44.7671012878418 -1.5747461318969727
v 9.567663192749023 44.65631103515625 -0.9429740309715271
v 6.552850723266602 44.90290832519531 -3.0680253505706787
v 6.397247791290283 44.40971755981445 -3.726824998855591
v 6.373907089233398 44.184566497802734 -4.659279823303223
v 6.646212577819824 44.095218658447266 -5.520787239074707
v 7.124692440032959 44.148826599121094 -5.264024257659912
v 7.3814377784729 44.78139877319336 -4.676172256469727
v 8.104992866516113 44.30607604980469 -5.226861476898193
v 7.91826868057251 44.75638198852539 -4.578197002410889
v 8.696285247802734 44.581260681152344 -5.125507354736328
v 8.532901763916016 44.881465911865234 -4.507249355316162
v 8.855777740478516 44.849300384521484 -4.432923316955566
v 9.104743003845215 44.64201736450195 -4.858609199523926
v 9.019161224365234 44.152400970458984 -5.456596851348877
v 9.50931167602539 44.40256881713867 -5.189698219299316
v 9.96445083618164 44.19528579711914 -5.345107555389404
v 11.026442527770996 43.698524475097656 -5.301187515258789
v 10.746356964111328 44.33824157714844 -5.017396926879883
v 12.04564380645752 43.9915771484375 -4.429544925689697
v 11.473801612854004 44.64201736450195 -4.318055629730225
v 12.01063346862793 44.29535675048828 -3.172757625579834
v 11.613844871520996 44.86716842651367 -3.2774899005889893
v 11.62551498413086 44.556243896484375 -2.095028877258301
v 11.368769645690918 44.95294189453125 -2.4058473110198975
v 10.793038368225098 44.645591735839844 -1.2639278173446655
v 10.672445297241211 44.9994010925293 -1.8247520923614502
v 9.832188606262207 44.90290832519531 -1.5679891109466553
v 9.365378379821777 44.856449127197266 -1.8179951906204224
v 8.75074577331543 44.79926681518555 -2.253816604614258
v 8.066091537475586 44.72779083251953 -2.2301673889160156
v 7.377547740936279 44.97080993652344 -2.402468681335449
v 6.891287803649902 45.03156661987305 -2.693016290664673
v 6.704564094543457 44.885040283203125 -3.409249782562256
v 6.949638843536377 44.95294189453125 -3.3214099407196045
v 7.346426963806152 44.860023498535156 -3.1828930377960205
v 7.9416093826293945 44.795692443847656 -3.0612685680389404
v 8.579582214355469 44.87431716918945 -3.0004560947418213
v 9.237006187438965 44.845726013183594 -2.358548879623413
v 9.886649131774902 44.813560485839844 -2.3247642517089844
v 10.773587226867676 44.877891540527344 -2.713287115097046
v 10.606313705444336 44.65631103515625 -3.7606096267700195
v 10.069482803344727 44.48834228515625 -4.618738651275635
v 9.380938529968262 44.65631103515625 -4.186295509338379
v 9.719375610351562 44.6741828918457 -3.2774899005889893
v 9.026941299438477 44.817134857177734 -3.0612685680389404
v 8.470660209655762 45.15665054321289 -3.7775020599365234
v 7.879368305206299 44.88861083984375 -3.8416926860809326
v 7.315306663513184 44.91720199584961 -3.9160189628601074
v 8.871338844299316 44.94221878051758 -3.8180434703826904
v 6.976869583129883 44.71706771850586 -4.669415473937988
v 6.794035911560059 44.25246810913086 -5.2099690437316895
v 6.685113430023193 44.43830871582031 -4.615360260009766
v 6.665663242340088 44.6884765625 -3.9193973541259766
v 6.918518543243408 44.97438430786133 -3.9835879802703857
vn -0.9026256799697876 -0.39278164505958557 -0.1760382205247879
vn -0.951066792011261 -0.1429864913225174 -0.27391019463539124
vn -0.7525815963745117 0.007553943432867527 -0.6584556698799133
vn -0.5051923990249634 -0.39320704340934753 -0.7682244777679443
vn 0.09205947071313858 -0.4882400631904602 -0.8678402304649353
vn 0.5323516726493835 0.04530980810523033 -0.8453097939491272
vn 0.5970312356948853 -0.7036837935447693 -0.3852050006389618
vn 0.8553681969642639 0.4902169406414032 0.16742929816246033
vn 0.9975475072860718 0.037730224430561066 0.058952588587999344
vn 0.9442294836044312 0.19478939473628998 0.26549527049064636
vn -0.6425694823265076 -0.6452381610870361 -0.41324591636657715
vn -0.13168618083000183 -0.8241881132125854 -0.5507928133010864
vn -0.8564929962158203 -0.5104746222496033 0.0763898640871048
vn 0.03208034113049507 -0.6494033932685852 -0.7597671151161194
vn 0.20007038116455078 -0.3818284273147583 -0.9023185968399048
vn 0.4523509442806244 -0.5603073239326477 -0.6938546895980835
vn 0.6218222975730896 -0.6725444793701172 -0.401274174451828
vn 0.9940179586410522 0.022632893174886703 0.10684575140476227
vn 0.37183475494384766 0.37848615646362305 0.8476362228393555
vn 0.9647424817085266 -0.18756966292858124 0.18463370203971863
vn 0.08343441784381866 -0.2762613594532013 0.9574540853500366
vn 0.09084530919790268 -0.30878421664237976 0.946783721446991
vn -0.7340056300163269 -0.10154908895492554 0.6715083718299866
vn -0.5813180208206177 0.5746520757675171 0.5760593414306641
vn -0.951066792011261 -0.1429864913225174 -0.27391019463539124
vn -0.6312547922134399 -0.20391835272312164 0.7482877969741821
vn -0.6425694823265076 -0.6452381610870361 -0.41324591636657715
vn -0.33507874608039856 -0.7510536313056946 0.5688942670822144
vn -0.8564929962158203 -0.5104746222496033 0.0763898640871048
vn -0.7449018955230713 0.6064454913139343 0.2781098484992981
vn -0.8370503187179565 -0.5261127352714539 -0.15017375349998474
vn -0.9026256799697876 -0.39278164505958557 -0.1760382205247879
vn -0.5322558283805847 0.3848413825035095 0.7540562748908997
vn -0.39962443709373474 -0.5917184948921204 0.7001210451126099
vn -0.5118662118911743 -0.24411287903785706 0.8236515522003174
vn -0.3910824954509735 0.011274882592260838 0.9202865362167358
vn 0.5129212141036987 -0.35404396057128906 0.7820260524749756
vn -0.18826663494110107 0.2661473751068115 0.9453682899475098
vn -0.13498377799987793 0.7462347149848938 0.651853621006012
vn -0.24493514001369476 -0.08471272140741348 0.9658315181732178
vn -0.6302011609077454 0.36674708127975464 0.6843559741973877
vn -0.1354432851076126 0.9902431964874268 -0.03276457265019417
vn -0.8437669277191162 0.4900551736354828 -0.21886809170246124
vn -0.23197147250175476 0.9727005362510681 0.006554040592163801
vn -0.8868778347969055 0.4235069155693054 -0.18463370203971863
vn -0.8001315593719482 0.4881075322628021 -0.34862664341926575
vn 0.357903391122818 -0.0601264089345932 -0.931820809841156
vn -0.6524211168289185 0.19013608992099762 -0.7336177229881287
vn 0.16033971309661865 0.5326411724090576 -0.8310141563415527
vn -0.2773641347885132 0.9196325540542603 -0.2781098484992981
vn -0.2628745436668396 0.9287785887718201 -0.2612801790237427
vn -0.23931750655174255 0.9515224695205688 -0.19321508705615997
vn -0.38116592168807983 0.8511618971824646 -0.36088213324546814
vn -0.13546140491962433 0.9903755784034729 0.028397228568792343
vn -0.3127090334892273 0.8769389390945435 -0.3649536371231079
vn -0.07359446585178375 0.9700139760971069 -0.23163928091526031
vn -0.27726632356643677 0.9144310355186462 -0.2948545813560486
vn -0.09710697829723358 0.19852183759212494 -0.9752739667892456
vn -0.003777019213885069 0.7526100873947144 -0.6584556698799133
vn 0.2728908956050873 0.30232173204421997 -0.913308322429657
vn 0.003776367986574769 0.7140141725540161 -0.7001210451126099
vn 0.16790977120399475 0.41402027010917664 -0.8946471214294434
vn -0.09987938404083252 0.9069331884384155 -0.40926313400268555
vn 0.2318582832813263 0.5523492097854614 -0.8007197380065918
vn 0.15418757498264313 0.9807433485984802 -0.11986933648586273
vn -0.36278316378593445 0.889406144618988 -0.2781098484992981
vn -0.23161228001117706 0.8984265923500061 -0.37307560443878174
vn -0.48764926195144653 0.8647713661193848 -0.11986933648586273
vn -0.07726728916168213 0.994998037815094 -0.0633138045668602
vn 0.2691778838634491 0.8284443616867065 0.4911448359489441
vn 0.06785906851291656 0.8910888433456421 0.4487268626689911
vn -0.33688706159591675 0.5483059287071228 0.7654199600219727
vn 0.7319759726524353 0.015081282705068588 0.681163489818573
vn 0.6795205473899841 -0.007543690502643585 0.7336177229881287
vn 0.8879379630088806 -0.238572895526886 0.3932546079158783
vn 0.9991703629493713 -0.037746138870716095 -0.0152922747656703
vn 0.6971713304519653 0.6571710705757141 0.2864931523799896
vn 0.9585250616073608 -0.2171178162097931 0.18463370203971863
vn 0.9148731827735901 -0.24644309282302856 -0.3198012113571167
vn 0.7486955523490906 -0.644660472869873 -0.15449213981628418
vn 0.5270900130271912 -0.759530246257782 -0.3811691105365753
vn 0.3587897717952728 -0.17518030107021332 -0.916832447052002
vn 0.44629696011543274 -0.10491098463535309 -0.888714075088501
vn 0.16790977120399475 0.41402027010917664 -0.8946471214294434
vn 0.47189122438430786 -0.3334997594356537 -0.8161473870277405
vn 0.36639827489852905 -0.6799705028533936 -0.6351318359375
vn 0.797661304473877 -0.05283341556787491 -0.6007870435714722
vn 0.2728908956050873 0.30232173204421997 -0.913308322429657
vn 0.16620774567127228 -0.34077638387680054 -0.9253358840942383
vn 0.33094894886016846 -0.16777737438678741 -0.9286137819290161
vn -0.3118762969970703 -0.29183429479599 -0.9041935205459595
vn -0.429421603679657 -0.38665294647216797 -0.8161473870277405
vn 0.16033971309661865 0.5326411724090576 -0.8310141563415527
vn 0.357903391122818 -0.0601264089345932 -0.931820809841156
vn -0.8360810875892639 -0.545883059501648 -0.05459024757146835
vn -0.8868778347969055 0.4235069155693054 -0.18463370203971863
vn -0.8370503187179565 -0.5261127352714539 -0.15017375349998474
vn -0.13720497488975525 0.9494625329971313 0.28230419754981995
vn 0.4099847078323364 0.9010450839996338 0.1415284425020218
vn 0.2612341642379761 0.9652136564254761 0.010923261754214764
vn 0.06785906851291656 0.8910888433456421 0.4487268626689911
vn -0.07544567435979843 0.9971283674240112 0.006554040592163801
vn -0.33688706159591675 0.5483059287071228 0.7654199600219727
vn -0.07544779777526855 0.9538421034812927 -0.29067665338516235
vn -0.608464777469635 0.693821132183075 -0.3852050006389618
vn -0.3093588352203369 0.891035795211792 -0.33219319581985474
vn -0.5217816829681396 0.8433393239974976 -0.12854042649269104
vn -0.3004847466945648 0.7464155554771423 -0.5937783122062683
vn 0.06230144202709198 0.6337628960609436 -0.7710143327713013
vn 0.039661653339862823 0.7796543836593628 -0.6249527335166931
vn -0.1670367270708084 0.9159190058708191 -0.3649536371231079
vn 0.10156573355197906 0.6388461589813232 -0.762600839138031
vn 0.3266200125217438 0.8538580536842346 -0.405272513628006
vn 0.04340911656618118 0.9545556306838989 -0.2948545813560486
vn 0.2448509931564331 0.9636555314064026 -0.10684575140476227
vn 0.14086781442165375 0.7650638818740845 -0.6283578276634216
vn 0.12566113471984863 0.6208535432815552 -0.7737894654273987
vn 0.40706801414489746 0.6296019554138184 -0.661737859249115
vn 0.44629696011543274 -0.10491098463535309 -0.888714075088501
vn 0.018906360492110252 0.3583453893661499 -0.933397650718689
vn 0.797661304473877 -0.05283341556787491 -0.6007870435714722
vn -0.22082911431789398 0.9092987179756165 -0.3527185618877411
vn 0.9148731827735901 -0.24644309282302856 -0.3198012113571167
vn 0.3158341944217682 0.8597835898399353 0.401274174451828
vn 0.9585250616073608 -0.2171178162097931 0.18463370203971863
vn 0.8629016876220703 0.5040059089660645 -0.03713129088282585
vn 0.6971713304519653 0.6571710705757141 0.2864931523799896
vn 0.5858651995658875 0.7017949819564819 0.405272513628006
vn -0.33137139678001404 0.9392503499984741 -0.08945280313491821
vn 0.035844795405864716 0.9303354024887085 0.3649536371231079
vn 0.07542550563812256 0.9968618750572205 -0.024029340595006943
vn 0.12796491384506226 0.9816285967826843 0.1415284425020218
vn 0.27382752299308777 0.9599703550338745 0.058952588587999344
vn 0.2209010273218155 0.9629822969436646 0.15449213981628418
vn -0.41716712713241577 0.9085120558738708 -0.024029340595006943
vn 0.0830044224858284 0.9776390790939331 -0.19321508705615997
vn 0.2464790642261505 0.9587584733963013 -0.1415284425020218
vn 0.06033686175942421 0.9974871873855591 -0.03713129088282585
vn -0.2951892614364624 0.906055748462677 0.30319350957870483
vn -0.1224282830953598 0.9914171695709229 0.04586252197623253
vn -0.08294198662042618 0.9961497187614441 0.028397228568792343
vn 0.08481182157993317 0.9730121493339539 -0.21460255980491638
vn 0.10359328985214233 0.9832172989845276 -0.15017375349998474
vn 0.24764931201934814 0.830620288848877 -0.4987381398677826
vn 0.38180094957351685 0.8773455023765564 -0.29067665338516235
vn 0.1578412801027298 0.9869207739830017 0.03276457265019417
vn 0.20236089825630188 0.9641353487968445 -0.17173540592193604
vn -0.07354990392923355 0.9838609099388123 0.16312000155448914
vn 0.043386075645685196 0.9300142526626587 -0.3649536371231079
vn 0.0904986634850502 0.995894193649292 -0.002184694167226553
vn 0.35391414165496826 0.888961136341095 -0.29067665338516235
vn -0.5955435633659363 0.6663122773170471 -0.4487268626689911
vn -0.011341414414346218 0.6858535408973694 -0.7276512384414673
vn -0.37665849924087524 0.8082430362701416 -0.45262736082077026
vn -0.5916703939437866 0.6303960680961609 -0.5025205612182617
vn -0.09236767143011093 0.9510672688484192 -0.2948545813560486
vt 0.672661304473877 0.41971418261528015
vt 0.6656227707862854 0.39278140664100647
vt 0.7013305425643921 0.41536039113998413
vt 0.6953219771385193 0.37891003489494324
vt 0.7294847369194031 0.3797200322151184
vt 0.7308580875396729 0.413436621427536
vt 0.7614157199859619 0.37415122985839844
vt 0.7584972977638245 0.4132341146469116
vt 0.7895699143409729 0.3822513222694397
vt 0.7833897471427917 0.4160691499710083
vt 0.6537773609161377 0.36969617009162903
vt 0.6740346550941467 0.3558247983455658
vt 0.6391852498054504 0.3432696759700775
vt 0.702875554561615 0.3488384783267975
vt 0.7262229323387146 0.35005348920822144
vt 0.7481969594955444 0.3460034430027008
vt 0.7748061418533325 0.346712201833725
vt 0.7938617467880249 0.3529897630214691
vt 0.8163507580757141 0.3839725852012634
vt 0.805878758430481 0.4208279252052307
vt 0.8395264744758606 0.3990589678287506
vt 0.8271660804748535 0.42923176288604736
vt 0.8508568406105042 0.44128063321113586
vt 0.868882417678833 0.41050034761428833
vt 0.893088161945343 0.4349018335342407
vt 0.8965215682983398 0.3988564610481262
vt 0.913002073764801 0.41768914461135864
vt 0.915233850479126 0.38549134135246277
vt 0.9377228617668152 0.3988564610481262
vt 0.9277659058570862 0.37101244926452637
vt 0.9499115943908691 0.3753662407398224
vt 0.8759209513664246 0.4570758044719696
vt 0.8980666399002075 0.37344247102737427
vt 0.8877663016319275 0.3846813440322876
vt 0.8711141347885132 0.3821500539779663
vt 0.8505134582519531 0.3745562434196472
vt 0.8338612914085388 0.3634186089038849
vt 0.8448483347892761 0.3459022045135498
vt 0.8615005016326904 0.355318546295166
vt 0.8805561065673828 0.36372238397598267
vt 0.9105986952781677 0.36149483919143677
vt 0.921242356300354 0.35420477390289307
vt 0.9346327781677246 0.3601785898208618
vt 0.9505982398986816 0.3601785898208618
vt 0.9734306335449219 0.3582548201084137
vt 0.9643320441246033 0.3515722453594208
vt 0.9823575615882874 0.33557459712028503
vt 0.9705122113227844 0.3382071256637573
vt 0.9782374501228333 0.31329938769340515
vt 0.9600402116775513 0.3486359715461731
vt 0.9507699608802795 0.35207849740982056
vt 0.9377228617668152 0.35248351097106934
vt 0.9279375672340393 0.3505597412586212
vt 0.9262208342552185 0.3442821800708771
vt 0.9384095668792725 0.34509217739105225
vt 0.9511132836341858 0.3442821800708771
vt 0.9619286060333252 0.341143399477005
vt 0.9693105220794678 0.3262594938278198
vt 0.9655337333679199 0.3120843768119812
vt 0.9724006056785583 0.29659295082092285
vt 0.9626153111457825 0.30175676941871643
vt 0.9631302952766418 0.28262031078338623
vt 0.9560917615890503 0.31329938769340515
vt 0.963645339012146 0.32079195976257324
vt 0.9612419009208679 0.33263832330703735
vt 0.9507699608802795 0.336688369512558
vt 0.9385812282562256 0.33790338039398193
vt 0.927250862121582 0.336688369512558
vt 0.9147188067436218 0.34438344836235046
vt 0.8953198790550232 0.3459022045135498
vt 0.8714574575424194 0.34013089537620544
vt 0.8551486134529114 0.3286895155906677
vt 0.8299128413200378 0.33729586005210876
vt 0.8249343633651733 0.35217976570129395
vt 0.8144623637199402 0.3318282961845398
vt 0.8124023079872131 0.35471102595329285
vt 0.8366080522537231 0.3189694285392761
vt 0.8196125030517578 0.3095530867576599
vt 0.8015869855880737 0.302769273519516
vt 0.7972951531410217 0.3270695209503174
vt 0.7790979146957397 0.3223107159137726
vt 0.7609006762504578 0.3200832009315491
vt 0.7598706483840942 0.29608669877052307
vt 0.7365232706069946 0.30074426531791687
vt 0.7420167922973633 0.322614461183548
vt 0.761587381362915 0.3383083641529083
vt 0.7820163369178772 0.2958841919898987
vt 0.719184398651123 0.3053005337715149
vt 0.7224462032318115 0.3250444829463959
vt 0.7018455266952515 0.3250444829463959
vt 0.6863950490951538 0.3438771665096283
vt 0.6814165711402893 0.3266645073890686
vt 0.7001287937164307 0.30185800790786743
vt 0.6745496988296509 0.3045918047428131
vt 0.6616742610931396 0.3340558409690857
vt 0.6529189944267273 0.31117311120033264
vt 0.6309450268745422 0.3222094774246216
vt 0.9174655675888062 0.3340558409690857
vt 0.9085386395454407 0.32798078656196594
vt 0.9033884406089783 0.3149193823337555
vt 0.8905130624771118 0.3144131302833557
vt 0.9025301337242126 0.302668035030365
vt 0.8898263573646545 0.2952767014503479
vt 0.9305126667022705 0.3310182988643646
vt 0.939439594745636 0.3320308029651642
vt 0.9495682120323181 0.33061328530311584
vt 0.9583234786987305 0.326867014169693
vt 0.9562634229660034 0.3198806941509247
vt 0.9466497898101807 0.31552690267562866
vt 0.9538600444793701 0.30570554733276367
vt 0.9445897340774536 0.30894559621810913
vt 0.949739933013916 0.29861798882484436
vt 0.9421863555908203 0.3023642599582672
vt 0.9401262998580933 0.2978079617023468
vt 0.9442464113235474 0.2932516932487488
vt 0.9566068053245544 0.2926441729068756
vt 0.9490532279014587 0.28636661171913147
vt 0.9524866342544556 0.27978530526161194
vt 0.9545467495918274 0.26237010955810547
vt 0.9452764391899109 0.27178648114204407
vt 0.9375512003898621 0.24981500208377838
vt 0.9325727224349976 0.26530641317367554
vt 0.9178088903427124 0.2522450387477875
vt 0.9184955954551697 0.26469889283180237
vt 0.9023584127426147 0.2613576054573059
vt 0.9081952571868896 0.26743265986442566
vt 0.8917147517204285 0.2758364975452423
vt 0.9040751457214355 0.27684903144836426
vt 0.9025301337242126 0.28869539499282837
vt 0.904933512210846 0.2958841919898987
vt 0.9128304123878479 0.3043892979621887
vt 0.9145471453666687 0.31340062618255615
vt 0.9184955954551697 0.3219057023525238
vt 0.9238174557685852 0.32767701148986816
vt 0.933431088924408 0.32777827978134155
vt 0.9308559894561768 0.3246394991874695
vt 0.9277659058570862 0.3193744421005249
vt 0.9250191450119019 0.3122868537902832
vt 0.9231307506561279 0.3045918047428131
vt 0.9126587510108948 0.29618796706199646
vt 0.9131737947463989 0.28707537055015564
vt 0.9155771732330322 0.2760390043258667
vt 0.9282808899879456 0.27684903144836426
vt 0.9399545788764954 0.2808990478515625
vt 0.9358344674110413 0.28980913758277893
vt 0.9248474836349487 0.2875816226005554
vt 0.9231307506561279 0.29669421911239624
vt 0.9332593679428101 0.30408552289009094
vt 0.9349761009216309 0.31097060441970825
vt 0.9372078776359558 0.3175519108772278
vt 0.9332593679428101 0.2974029779434204
vt 0.9476798176765442 0.321298211812973
vt 0.9550617337226868 0.3242344856262207
vt 0.9483665227890015 0.3260570168495178
vt 0.9397829174995422 0.3273732662200928
vt 0.9389245510101318 0.32291823625564575
s on
f 1/1/1 2/2/2 3/3/3
f 2/2/2 4/4/4 3/3/3
f 4/4/4 5/5/5 3/3/3
f 3/3/3 5/5/5 6/6/6
f 5/5/5 7/7/7 6/6/6
f 6/6/6 7/7/7 8/8/8
f 7/7/7 9/9/9 8/8/8
f 8/8/8 9/9/9 10/10/10
f 2/2/2 11/11/11 4/4/4
f 4/4/4 11/11/11 12/12/12
f 11/11/11 13/13/13 12/12/12
f 12/12/12 14/14/14 4/4/4
f 4/4/4 14/14/14 5/5/5
f 14/14/14 15/15/15 5/5/5
f 5/5/5 15/15/15 7/7/7
f 15/15/15 16/16/16 7/7/7
f 16/16/16 17/17/17 7/7/7
f 7/7/7 17/17/17 9/9/9
f 17/17/17 18/18/18 9/9/9
f 18/18/18 19/19/19 9/9/9
f 9/9/9 19/19/19 10/10/10
f 10/10/10 19/19/19 20/20/20
f 19/19/19 21/21/21 20/20/20
f 20/20/20 21/21/21 22/22/22
f 22/22/22 21/21/21 23/23/23
f 21/21/21 24/24/24 23/23/23
f 23/23/23 24/24/24 25/25/25
f 24/24/24 26/26/26 25/25/25
f 25/25/25 26/26/26 27/27/27
f 26/26/26 28/28/28 27/27/27
f 27/27/27 28/28/28 29/29/29
f 28/28/28 30/30/30 29/29/29
f 29/29/29 30/30/30 31/31/31
f 23/23/23 25/25/25 32/32/32
f 30/30/30 28/28/28 33/33/33
f 28/28/28 26/26/26 33/33/33
f 33/33/33 26/26/26 34/34/34
f 26/26/26 35/35/35 34/34/34
f 34/34/34 35/35/35 33/33/33
f 26/26/26 24/24/24 35/35/35
f 35/35/35 24/24/24 36/36/36
f 24/24/24 21/21/21 36/36/36
f 36/36/36 21/21/21 37/37/37
f 21/21/21 19/19/19 37/37/37
f 37/37/37 38/38/38 36/36/36
f 38/38/38 39/39/39 36/36/36
f 36/36/36 39/39/39 35/35/35
f 39/39/39 40/40/40 35/35/35
f 35/35/35 40/40/40 33/33/33
f 40/40/40 41/41/41 33/33/33
f 33/33/33 41/41/41 30/30/30
f 41/41/41 42/42/42 30/30/30
f 42/42/42 43/43/43 30/30/30
f 30/30/30 43/43/43 31/31/31
f 43/43/43 44/44/44 31/31/31
f 31/31/31 44/44/44 45/45/45
f 44/44/44 46/46/46 45/45/45
f 45/45/45 46/46/46 47/47/47
f 46/46/46 48/48/48 47/47/47
f 47/47/47 48/48/48 49/49/49
f 48/48/48 46/46/46 50/50/50
f 50/50/50 46/46/46 51/51/51
f 46/46/46 44/44/44 51/51/51
f 51/51/51 44/44/44 52/52/52
f 44/44/44 43/43/43 52/52/52
f 52/52/52 43/43/43 53/53/53
f 43/43/43 42/42/42 53/53/53
f 42/42/42 54/54/54 53/53/53
f 53/53/53 54/54/54 52/52/52
f 54/54/54 55/55/55 52/52/52
f 52/52/52 55/55/55 51/51/51
f 55/55/55 56/56/56 51/51/51
f 51/51/51 56/56/56 50/50/50
f 56/56/56 57/57/57 50/50/50
f 50/50/50 57/57/57 48/48/48
f 57/57/57 58/58/58 48/48/48
f 48/48/48 58/58/58 49/49/49
f 58/58/58 59/59/59 49/49/49
f 49/49/49 59/59/59 60/60/60
f 59/59/59 61/61/61 60/60/60
f 60/60/60 61/61/61 62/62/62
f 61/61/61 59/59/59 63/63/63
f 63/63/63 59/59/59 64/64/64
f 59/59/59 58/58/58 64/64/64
f 64/64/64 58/58/58 65/65/65
f 58/58/58 57/57/57 65/65/65
f 65/65/65 57/57/57 66/66/66
f 57/57/57 56/56/56 66/66/66
f 66/66/66 56/56/56 67/67/67
f 56/56/56 55/55/55 67/67/67
f 67/67/67 55/55/55 68/68/68
f 55/55/55 54/54/54 68/68/68
f 68/68/68 54/54/54 69/69/69
f 54/54/54 42/42/42 69/69/69
f 42/42/42 41/41/41 69/69/69
f 69/69/69 41/41/41 70/70/70
f 41/41/41 40/40/40 70/70/70
f 70/70/70 40/40/40 71/71/71
f 40/40/40 39/39/39 71/71/71
f 71/71/71 39/39/39 72/72/72
f 39/39/39 38/38/38 72/72/72
f 72/72/72 38/38/38 73/73/73
f 38/38/38 74/74/74 73/73/73
f 73/73/73 74/74/74 75/75/75
f 75/75/75 74/74/74 76/76/76
f 74/74/74 19/19/19 76/76/76
f 76/76/76 19/19/19 18/18/18
f 72/72/72 73/73/73 77/77/77
f 73/73/73 75/75/75 77/77/77
f 77/77/77 75/75/75 78/78/78
f 78/78/78 75/75/75 79/79/79
f 79/79/79 75/75/75 80/80/80
f 75/75/75 76/76/76 80/80/80
f 76/76/76 18/18/18 80/80/80
f 80/80/80 18/18/18 81/81/81
f 18/18/18 17/17/17 81/81/81
f 17/17/17 82/82/82 81/81/81
f 81/81/81 82/82/82 83/83/83
f 83/83/83 82/82/82 84/84/84
f 84/84/84 82/82/82 85/85/85
f 85/85/85 82/82/82 86/86/86
f 82/82/82 17/17/17 86/86/86
f 38/38/38 37/37/37 74/74/74
f 37/37/37 19/19/19 74/74/74
f 79/79/79 80/80/80 87/87/87
f 80/80/80 81/81/81 87/87/87
f 87/87/87 81/81/81 83/83/83
f 84/84/84 85/85/85 88/88/88
f 88/88/88 85/85/85 89/89/89
f 85/85/85 16/16/16 89/89/89
f 16/16/16 15/15/15 89/89/89
f 89/89/89 15/15/15 90/90/90
f 15/15/15 14/14/14 90/90/90
f 90/90/90 14/14/14 91/91/91
f 14/14/14 12/12/12 91/91/91
f 12/12/12 92/92/92 91/91/91
f 91/91/91 92/92/92 90/90/90
f 92/92/92 93/93/93 90/90/90
f 90/90/90 93/93/93 89/89/89
f 93/93/93 88/88/88 89/89/89
f 85/85/85 86/86/86 16/16/16
f 86/86/86 17/17/17 16/16/16
f 93/93/93 92/92/92 94/94/94
f 92/92/92 95/95/95 94/94/94
f 94/94/94 95/95/95 96/96/96
f 96/96/96 95/95/95 97/97/97
f 97/97/97 95/95/95 13/13/13
f 13/13/13 95/95/95 12/12/12
f 95/95/95 92/92/92 12/12/12
f 69/69/69 70/70/70 98/98/98
f 98/98/98 70/70/70 99/99/99
f 99/99/99 70/70/70 100/100/100
f 70/70/70 101/101/101 100/100/100
f 100/100/100 101/101/101 102/102/102
f 101/101/101 103/103/103 102/102/102
f 69/69/69 98/98/98 68/68/68
f 98/98/98 104/104/104 68/68/68
f 68/68/68 104/104/104 67/67/67
f 104/104/104 105/105/105 67/67/67
f 67/67/67 105/105/105 66/66/66
f 105/105/105 106/106/106 66/66/66
f 66/66/66 106/106/106 65/65/65
f 106/106/106 107/107/107 65/65/65
f 65/65/65 107/107/107 64/64/64
f 107/107/107 108/108/108 64/64/64
f 64/64/64 108/108/108 63/63/63
f 108/108/108 109/109/109 63/63/63
f 63/63/63 109/109/109 110/110/110
f 109/109/109 111/111/111 110/110/110
f 110/110/110 111/111/111 112/112/112
f 111/111/111 113/113/113 112/112/112
f 113/113/113 114/114/114 112/112/112
f 114/114/114 115/115/115 112/112/112
f 112/112/112 115/115/115 116/116/116
f 115/115/115 117/117/117 116/116/116
f 116/116/116 117/117/117 62/62/62
f 117/117/117 118/118/118 62/62/62
f 62/62/62 118/118/118 119/119/119
f 118/118/118 120/120/120 119/119/119
f 119/119/119 120/120/120 121/121/121
f 120/120/120 122/122/122 121/121/121
f 121/121/121 122/122/122 123/123/123
f 122/122/122 124/124/124 123/123/123
f 123/123/123 124/124/124 125/125/125
f 124/124/124 126/126/126 125/125/125
f 125/125/125 126/126/126 127/127/127
f 126/126/126 128/128/128 127/127/127
f 127/127/127 128/128/128 103/103/103
f 128/128/128 129/129/129 103/103/103
f 103/103/103 129/129/129 102/102/102
f 129/129/129 130/130/130 102/102/102
f 130/130/130 131/131/131 102/102/102
f 102/102/102 131/131/131 100/100/100
f 131/131/131 132/132/132 100/100/100
f 100/100/100 132/132/132 99/99/99
f 132/132/132 133/133/133 99/99/99
f 99/99/99 133/133/133 98/98/98
f 133/133/133 134/134/134 98/98/98
f 98/98/98 134/134/134 104/104/104
f 134/134/134 135/135/135 104/104/104
f 104/104/104 135/135/135 105/105/105
f 63/63/63 110/110/110 61/61/61
f 61/61/61 110/110/110 116/116/116
f 110/110/110 112/112/112 116/116/116
f 61/61/61 116/116/116 62/62/62
f 120/120/120 118/118/118 117/117/117
f 135/135/135 134/134/134 136/136/136
f 134/134/134 133/133/133 136/136/136
f 136/136/136 133/133/133 137/137/137
f 133/133/133 132/132/132 137/137/137
f 137/137/137 132/132/132 138/138/138
f 138/138/138 132/132/132 139/139/139
f 132/132/132 131/131/131 139/139/139
f 139/139/139 131/131/131 140/140/140
f 131/131/131 130/130/130 140/140/140
f 130/130/130 129/129/129 140/140/140
f 140/140/140 129/129/129 141/141/141
f 129/129/129 128/128/128 141/141/141
f 141/141/141 128/128/128 142/142/142
f 128/128/128 126/126/126 142/142/142
f 126/126/126 124/124/124 142/142/142
f 142/142/142 124/124/124 143/143/143
f 124/124/124 122/122/122 143/143/143
f 143/143/143 122/122/122 144/144/144
f 122/122/122 120/120/120 144/144/144
f 120/120/120 117/117/117 144/144/144
f 117/117/117 115/115/115 144/144/144
f 144/144/144 115/115/115 145/145/145
f 115/115/115 114/114/114 145/145/145
f 144/144/144 145/145/145 143/143/143
f 145/145/145 146/146/146 143/143/143
f 143/143/143 146/146/146 142/142/142
f 142/142/142 146/146/146 141/141/141
f 146/146/146 147/147/147 141/141/141
f 141/141/141 147/147/147 140/140/140
f 140/140/140 147/147/147 139/139/139
f 147/147/147 148/148/148 139/139/139
f 139/139/139 148/148/148 138/138/138
f 148/148/148 149/149/149 138/138/138
f 138/138/138 149/149/149 137/137/137
f 137/137/137 149/149/149 150/150/150
f 150/150/150 149/149/149 111/111/111
f 149/149/149 148/148/148 111/111/111
f 111/111/111 148/148/148 113/113/113
f 148/148/148 151/151/151 113/113/113
f 113/113/113 151/151/151 114/114/114
f 114/114/114 151/151/151 145/145/145
f 145/145/145 151/151/151 146/146/146
f 146/146/146 151/151/151 147/147/147
f 151/151/151 148/148/148 147/147/147
f 111/111/111 109/109/109 150/150/150
f 150/150/150 109/109/109 152/152/152
f 109/109/109 108/108/108 152/152/152
f 152/152/152 108/108/108 153/153/153
f 108/108/108 107/107/107 153/153/153
f 153/153/153 107/107/107 154/154/154
f 107/107/107 106/106/106 154/154/154
f 154/154/154 106/106/106 155/155/155
f 106/106/106 105/105/105 155/155/155
f 105/105/105 135/135/135 155/155/155
f 135/135/135 136/136/136 155/155/155
f 155/155/155 136/136/136 156/156/156
f 136/136/136 137/137/137 156/156/156
f 137/137/137 150/150/150 156/156/156
f 150/150/150 152/152/152 156/156/156
f 156/156/156 152/152/152 154/154/154
f 152/152/152 153/153/153 154/154/154
f 156/156/156 154/154/154 155/155/155

