# Exported by Sketchfab Model Ripper robust edition
o model_2
v 8.378609657287598 46.47532272338867 -3.4163951873779297
v 8.42695426940918 46.33148193359375 -3.2891592979431152
v 8.439677238464355 46.44758224487305 -3.35776686668396
v 8.54654598236084 46.2564811706543 -3.2242941856384277
v 8.57283878326416 46.365386962890625 -3.295396566390991
v 8.683948516845703 46.13113784790039 -3.2242941856384277
v 8.665288925170898 46.04380416870117 -3.20184063911438
v 8.538064002990723 46.14860153198242 -3.2080776691436768
v 8.479540824890137 46.55134963989258 -3.5049612522125244
v 8.621184349060059 46.44449996948242 -3.4850027561187744
v 8.676314353942871 46.5051155090332 -3.72824764251709
v 8.526189804077148 46.6458740234375 -3.6908254623413086
v 8.375216484069824 46.56779098510742 -3.51369309425354
v 8.408294677734375 46.6756706237793 -3.632197141647339
v 8.349771499633789 46.38799285888672 -3.3789730072021484
v 8.431195259094238 46.22154998779297 -3.2542319297790527
v 8.543152809143066 46.07462692260742 -3.179387331008911
v 8.659351348876953 45.984214782714844 -3.171902894973755
v 8.77554988861084 45.88044738769531 -3.189366579055786
v 8.79505729675293 45.930789947509766 -3.2305312156677246
v 8.828136444091797 45.9975700378418 -3.267953395843506
v 8.71872329711914 46.218467712402344 -3.3028810024261475
v 8.767916679382324 46.279083251953125 -3.507456064224243
v 8.823046684265137 46.323265075683594 -3.7631752490997314
v 8.957056999206543 46.14346694946289 -3.771907091140747
v 8.912952423095703 46.1085319519043 -3.5411362648010254
v 9.069014549255371 46.00681686401367 -3.7344846725463867
v 9.047810554504395 45.9852409362793 -3.5610947608947754
v 9.123297691345215 45.899967193603516 -3.6646296977996826
v 9.1241455078125 45.89072036743164 -3.5523629188537598
v 9.080888748168945 45.81058120727539 -3.5773110389709473
v 9.089370727539062 45.80647277832031 -3.5024664402008057
v 8.999464988708496 45.73249816894531 -3.4750235080718994
v 9.0096435546875 45.731468200683594 -3.421384811401367
v 8.935853004455566 45.66160583496094 -3.35776686668396
v 8.949423789978027 45.66468811035156 -3.3190972805023193
v 8.89005184173584 45.60304260253906 -3.2442526817321777
v 8.905319213867188 45.610233306884766 -3.2168095111846924
v 8.859518051147461 45.56399917602539 -3.1531918048858643
v 8.873936653137207 45.57221984863281 -3.131985664367676
v 8.811172485351562 45.52290344238281 -3.0284507274627686
v 8.823046684265137 45.531124114990234 -3.0084922313690186
v 8.711089134216309 45.45817565917969 -2.8101539611816406
v 8.71872329711914 45.469478607177734 -2.7926902770996094
v 8.598283767700195 45.383174896240234 -2.573146104812622
v 8.603372573852539 45.39653015136719 -2.5581772327423096
v 8.514315605163574 45.31022644042969 -2.394766330718994
v 8.51516342163086 45.321529388427734 -2.377302646636963
v 8.460881233215332 45.229061126708984 -2.232603073120117
v 8.45833683013916 45.23830795288086 -2.211397171020508
v 8.441373825073242 45.130428314208984 -2.046739101409912
v 8.436284065246582 45.13762283325195 -2.0242855548858643
v 8.432891845703125 45.01638412475586 -1.8820809125900269
v 8.426106452941895 45.021522521972656 -1.8596274852752686
v 8.399813652038574 44.825286865234375 -1.768566608428955
v 8.393876075744629 44.825286865234375 -1.7448657751083374
v 8.346379280090332 44.71843338012695 -1.7348865270614624
v 8.34383487701416 44.71535110473633 -1.6999590396881104
v 8.243751525878906 44.67219924926758 -1.6812479496002197
v 8.239510536193848 44.677337646484375 -1.7498555183410645
v 8.093626022338867 44.67939376831055 -1.6750109195709229
v 8.082599639892578 44.68658447265625 -1.77854585647583
v 7.894307613372803 44.72151565551758 -1.667526364326477
v 7.87819242477417 44.73384475708008 -1.7835354804992676
v 7.694140911102295 44.76774978637695 -1.653804898262024
v 7.676329612731934 44.78418731689453 -1.7623295783996582
v 7.544864177703857 44.7862434387207 -1.6313514709472656
v 7.527052402496338 44.8037109375 -1.7111856937408447
v 7.451565742492676 44.82014846801758 -1.6113929748535156
v 7.435451030731201 44.83453369140625 -1.6600419282913208
v 7.404916763305664 44.916725158691406 -1.6388360261917114
v 7.42188024520874 44.910560607910156 -1.6064033508300781
v 7.439691543579102 45.10371780395508 -1.6999590396881104
v 7.487188816070557 44.836585998535156 -1.5839499235153198
v 7.56097936630249 44.806793212890625 -1.5727232694625854
v 7.468529224395752 44.90645217895508 -1.5789602994918823
v 7.456655025482178 45.107826232910156 -1.6775057315826416
v 7.507544994354248 45.23830795288086 -1.8434112071990967
v 7.521115303039551 45.24447250366211 -1.824700117111206
v 7.616109848022461 45.377010345458984 -2.0380072593688965
v 7.5033040046691895 45.11090850830078 -1.6562997102737427
v 7.5728535652160645 44.904396057128906 -1.5614964962005615
v 7.7128005027771 44.7913818359375 -1.5739706754684448
v 7.912118911743164 44.75233840942383 -1.5839499235153198
v 7.729763984680176 44.89514923095703 -1.5590016841888428
v 7.610172748565674 45.11501693725586 -1.643825650215149
v 7.564371585845947 45.25063705444336 -1.8084837198257446
v 7.625439643859863 45.38214874267578 -2.0217907428741455
v 7.758601188659668 45.50338363647461 -2.242582321166992
v 7.768779277801514 45.50851821899414 -2.2301082611083984
v 7.925689697265625 45.63283920288086 -2.4758481979370117
v 7.663607120513916 45.38831329345703 -2.0093166828155518
v 7.666999816894531 45.25474548339844 -1.8009992837905884
v 7.769627571105957 45.111934661865234 -1.6450730562210083
v 7.933322906494141 44.87049102783203 -1.5752180814743042
v 8.108893394470215 44.71637725830078 -1.6051559448242188
v 8.253081321716309 44.70918655395508 -1.6400834321975708
v 8.131793975830078 44.84480667114258 -1.6088981628417969
v 7.971490383148193 45.09755325317383 -1.6700211763381958
v 7.817972660064697 45.25166320800781 -1.8072363138198853
v 7.7569050788879395 45.39036560058594 -2.0043270587921143
v 7.802705764770508 45.51365661621094 -2.2201290130615234
v 7.937563896179199 45.63900375366211 -2.4646213054656982
v 8.118223190307617 45.789005279541016 -2.7402989864349365
v 8.106348991394043 45.78181457519531 -2.755267858505249
v 8.264955520629883 45.92565155029297 -2.98728609085083
v 8.253081321716309 45.916404724121094 -3.009739637374878
v 8.31923770904541 46.004764556884766 -3.1644184589385986
v 8.3302640914917 46.017093658447266 -3.139470100402832
v 8.337897300720215 46.08079147338867 -3.2629637718200684
v 8.295489311218262 45.928733825683594 -2.963585376739502
v 8.148756980895996 45.79208755493164 -2.7228353023529053
v 7.968097686767578 45.64413833618164 -2.4521472454071045
v 7.883281230926514 45.517765045166016 -2.212644577026367
v 7.894307613372803 45.385231018066406 -2.01305890083313
v 8.006265640258789 45.237281799316406 -1.8371741771697998
v 8.168264389038086 45.074947357177734 -1.713680624961853
v 8.273436546325684 44.831451416015625 -1.6600419282913208
v 8.324326515197754 44.7420654296875 -1.6800005435943604
v 8.360797882080078 44.82733917236328 -1.7124332189559937
v 8.393028259277344 45.03076934814453 -1.824700117111206
v 8.404902458190918 45.15303421020508 -1.9918529987335205
v 8.430347442626953 45.25782775878906 -2.182706832885742
v 8.491415023803711 45.346187591552734 -2.351107120513916
v 8.584712982177734 45.42427062988281 -2.5357236862182617
v 8.706000328063965 45.500301361083984 -2.771484136581421
v 8.813716888427734 45.56399917602539 -2.9860386848449707
v 8.868000030517578 45.605098724365234 -3.1082849502563477
v 8.898533821105957 45.64311218261719 -3.1881191730499268
v 8.937549591064453 45.69448471069336 -3.277932643890381
v 8.990983963012695 45.756126403808594 -3.361509084701538
v 9.063925743103027 45.825992584228516 -3.423879623413086
v 9.079193115234375 45.88661193847656 -3.4625494480133057
v 9.017276763916016 45.95030975341797 -3.4163951873779297
v 8.868847846984863 46.06229782104492 -3.354024648666382
v 8.96553897857666 45.89277648925781 -3.3390557765960693
v 8.911255836486816 45.82804870605469 -3.2904067039489746
v 8.873936653137207 45.774620056152344 -3.2292838096618652
v 8.845099449157715 45.72941589355469 -3.1581814289093018
v 8.758586883544922 45.838321685791016 -3.1344804763793945
v 8.817957878112793 45.690372467041016 -3.08333683013916
v 8.761979103088379 45.641056060791016 -2.9585957527160645
v 8.649173736572266 45.56913757324219 -2.741546392440796
v 8.521100997924805 45.48283386230469 -2.5020437240600586
v 8.42016887664795 45.39242172241211 -2.311189889907837
v 8.351468086242676 45.29378890991211 -2.1340577602386475
v 8.321782112121582 45.1807746887207 -1.9394618272781372
v 8.307363510131836 45.05131912231445 -1.7710614204406738
v 8.188620567321777 45.212623596191406 -1.8820809125900269
v 8.227636337280273 45.33488464355469 -2.082913875579834
v 8.30566692352295 45.44584655761719 -2.267530679702759
v 8.417624473571777 45.549617767333984 -2.467116117477417
v 8.555875778198242 45.65030288696289 -2.711608648300171
v 8.677163124084473 45.73558044433594 -2.933647632598877
v 8.734838485717773 45.79414367675781 -3.0621306896209717
v 8.653414726257324 45.936954498291016 -3.12325382232666
v 8.544849395751953 46.01811981201172 -3.129490852355957
v 8.632210731506348 45.88661193847656 -3.0509040355682373
v 8.524493217468262 45.959556579589844 -3.053398847579956
v 8.567749977111816 45.81880187988281 -2.917431116104126
v 8.443069458007812 46.138328552246094 -3.215562105178833
v 8.447310447692871 46.06949234008789 -3.159428834915161
v 8.359950065612793 46.27086639404297 -3.31784987449646
v 8.339593887329102 46.45580291748047 -3.457559823989868
v 8.358253479003906 46.525665283203125 -3.536146640777588
v 8.340441703796387 46.29963302612305 -3.3764781951904297
v 8.34553050994873 46.31915283203125 -3.431364059448242
v 8.372672080993652 46.17428970336914 -3.2629637718200684
v 8.376913070678711 46.09312057495117 -3.1980984210968018
v 8.430347442626953 46.002708435058594 -3.0770998001098633
v 8.456640243530273 45.881473541259766 -2.917431116104126
v 8.311604499816895 45.76640319824219 -2.689155101776123
v 8.434588432312012 45.71811294555664 -2.692897319793701
v 8.281070709228516 45.60201644897461 -2.443415403366089
v 8.155542373657227 45.48591613769531 -2.235097885131836
v 8.063092231750488 45.36570739746094 -2.0405020713806152
v 8.0037202835083 45.511600494384766 -2.215139389038086
v 8.143668174743652 45.635921478271484 -2.433436155319214
v 8.038495063781738 45.64619445800781 -2.4396731853485107
v 8.214913368225098 45.78797912597656 -2.701629400253296
v 8.362494468688965 45.916404724121094 -2.9361424446105957
v 8.361645698547363 46.02017593383789 -3.1107797622680664
v 8.347227096557617 46.09312057495117 -3.2330260276794434
v 8.346379280090332 46.183536529541016 -3.3066232204437256
v 8.342986106872559 46.17839813232422 -3.3465402126312256
v 8.358253479003906 46.525665283203125 -3.536146640777588
v 8.365886688232422 46.59039306640625 -3.6234652996063232
v 8.34553050994873 46.31915283203125 -3.431364059448242
v 8.348923683166504 46.33662033081055 -3.486250162124634
v 8.342986106872559 46.17839813232422 -3.3465402126312256
v 8.339593887329102 46.17325973510742 -3.3827152252197266
v 8.337897300720215 46.08079147338867 -3.2629637718200684
v 8.3302640914917 46.06949234008789 -3.291654109954834
v 8.31923770904541 46.004764556884766 -3.1644184589385986
v 8.309060096740723 45.99346160888672 -3.1881191730499268
v 8.253081321716309 45.916404724121094 -3.009739637374878
v 8.24205493927002 45.90715789794922 -3.029698133468628
v 8.095322608947754 45.774620056152344 -2.7702367305755615
v 8.106348991394043 45.78181457519531 -2.755267858505249
v 7.915511608123779 45.62770080566406 -2.4858274459838867
v 7.925689697265625 45.63283920288086 -2.4758481979370117
v 7.758601188659668 45.50338363647461 -2.242582321166992
v 7.750119686126709 45.49721908569336 -2.255056619644165
v 7.616109848022461 45.377010345458984 -2.0380072593688965
v 7.606780052185059 45.370845794677734 -2.052976131439209
v 7.507544994354248 45.23830795288086 -1.8434112071990967
v 7.495670318603516 45.23316955566406 -1.860874891281128
v 7.439691543579102 45.10371780395508 -1.6999590396881104
v 7.424424648284912 45.10063552856445 -1.7224124670028687
v 7.404916763305664 44.916725158691406 -1.6388360261917114
v 7.389649868011475 44.922889709472656 -1.667526364326477
v 7.435451030731201 44.83453369140625 -1.6600419282913208
v 7.421031951904297 44.8478889465332 -1.7049486637115479
v 7.510937213897705 44.82014846801758 -1.784782886505127
v 7.527052402496338 44.8037109375 -1.7111856937408447
v 7.659366130828857 44.7985725402832 -1.8633698225021362
v 7.676329612731934 44.78418731689453 -1.7623295783996582
v 7.8629255294799805 44.744117736816406 -1.8920601606369019
v 7.87819242477417 44.73384475708008 -1.7835354804992676
v 8.07242202758789 44.69377517700195 -1.8745964765548706
v 8.082599639892578 44.68658447265625 -1.77854585647583
v 8.236117362976074 44.68144607543945 -1.8134733438491821
v 8.239510536193848 44.677337646484375 -1.7498555183410645
v 8.348923683166504 44.72151565551758 -1.7660717964172363
v 8.346379280090332 44.71843338012695 -1.7348865270614624
v 8.399813652038574 44.825286865234375 -1.768566608428955
v 8.405750274658203 44.825286865234375 -1.789772629737854
v 8.432891845703125 45.01638412475586 -1.8820809125900269
v 8.326870918273926 44.74822998046875 -1.8159681558609009
v 8.240358352661133 44.719459533691406 -1.8683594465255737
v 8.071574211120605 44.73076248168945 -1.9469462633132935
v 7.858684539794922 44.779052734375 -1.9693995714187622
v 7.651732444763184 44.830421447753906 -1.930729866027832
v 7.501607418060303 44.85199737548828 -1.8334319591522217
v 7.436298847198486 44.87049102783203 -1.7511029243469238
v 7.410853862762451 44.923919677734375 -1.723659873008728
v 7.448173522949219 45.09241485595703 -1.7710614204406738
v 7.5228118896484375 45.22187042236328 -1.9020395278930664
v 7.634769439697266 45.358516693115234 -2.086656093597412
v 7.774716377258301 45.48386001586914 -2.277509927749634
v 7.935019493103027 45.610233306884766 -2.503291130065918
v 8.108893394470215 45.752017974853516 -2.787700653076172
v 8.013050079345703 45.57016372680664 -2.5319814682006836
v 7.866318225860596 45.45201110839844 -2.32491135597229
v 7.735701084136963 45.33283233642578 -2.1577584743499756
v 7.626287937164307 45.19926834106445 -1.9943478107452393
v 7.549104690551758 45.07392120361328 -1.87584388256073
v 7.505848407745361 44.917755126953125 -1.834679365158081
v 7.662758827209473 44.898231506347656 -1.9432040452957153
v 7.711952209472656 45.050289154052734 -1.9856159687042236
v 7.78574275970459 45.17255401611328 -2.0916457176208496
v 7.8849778175354 45.29995346069336 -2.2363452911376953
v 8.001175880432129 45.41194152832031 -2.3785500526428223
v 8.130097389221191 45.517765045166016 -2.565661668777466
v 8.17165756225586 45.69859313964844 -2.815143585205078
v 8.251384735107422 45.879417419433594 -3.0521514415740967
v 8.316693305969238 45.96058654785156 -3.215562105178833
v 8.340441703796387 46.03763961791992 -3.325334310531616
v 8.359950065612793 46.14963150024414 -3.430116653442383
v 8.380305290222168 46.328399658203125 -3.556105136871338
v 8.408294677734375 46.60477828979492 -3.725752830505371
v 8.460881233215332 46.729095458984375 -3.8292880058288574
v 8.426106452941895 46.77532958984375 -3.764422655105591
v 8.560964584350586 46.73115158081055 -3.8766894340515137
v 8.526189804077148 46.6458740234375 -3.6908254623413086
v 8.676314353942871 46.5051155090332 -3.72824764251709
v 8.408294677734375 46.6756706237793 -3.632197141647339
v 8.566901206970215 46.72087478637695 -3.9627606868743896
v 8.529582023620605 46.525665283203125 -3.850493907928467
v 8.474452018737793 46.272918701171875 -3.6583926677703857
v 8.426106452941895 46.08798599243164 -3.5024664402008057
v 8.387090682983398 45.961612701416016 -3.371488571166992
v 8.359101295471191 45.88352966308594 -3.2504897117614746
v 8.29973030090332 45.81058120727539 -3.0845842361450195
v 8.26834774017334 45.628726959228516 -2.8425865173339844
v 8.266651153564453 45.462284088134766 -2.593104600906372
v 8.156390190124512 45.36878967285156 -2.4197146892547607
v 8.060547828674316 45.268104553222656 -2.291231393814087
v 7.981668472290039 45.14789581298828 -2.1540162563323975
v 7.921448707580566 45.025630950927734 -2.0454916954040527
v 7.873951435089111 44.862274169921875 -1.9931004047393799
v 8.09023380279541 44.82939529418945 -1.9831211566925049
v 8.132641792297363 45.007137298583984 -2.052976131439209
v 8.17335319519043 45.12940216064453 -2.172727346420288
v 8.229331970214844 45.24036407470703 -2.314932107925415
v 8.304819107055664 45.33077621459961 -2.443415403366089
v 8.398117065429688 45.41297149658203 -2.609320878982544
v 8.387090682983398 45.55886459350586 -2.8625452518463135
v 8.38115406036377 45.725303649902344 -3.1145219802856445
v 8.43204402923584 45.78797912597656 -3.281674861907959
v 8.464273452758789 45.862979888916016 -3.411405563354492
v 8.52194881439209 45.996543884277344 -3.5673317909240723
v 8.59743595123291 46.175315856933594 -3.748206377029419
v 8.682251930236816 46.38593673706055 -3.9565236568450928
v 8.737382888793945 46.54313278198242 -4.066295623779297
v 8.725508689880371 46.56059646606445 -3.9565236568450928
v 8.823046684265137 46.323265075683594 -3.7631752490997314
v 8.873936653137207 46.36436080932617 -3.9989356994628906
v 8.957056999206543 46.14346694946289 -3.771907091140747
v 8.884115219116211 46.347923278808594 -4.112450122833252
v 8.818806648254395 46.2194938659668 -3.9989356994628906
v 8.719571113586426 46.04277801513672 -3.784381151199341
v 8.631361961364746 45.88455581665039 -3.5910325050354004
v 8.564356803894043 45.76332092285156 -3.4263744354248047
v 8.531278610229492 45.697566986083984 -3.295396566390991
v 8.487174034118652 45.64311218261719 -3.1307382583618164
v 8.506682395935059 45.50132751464844 -2.8700296878814697
v 8.501592636108398 45.38214874267578 -2.609320878982544
v 8.417624473571777 45.30611801147461 -2.44092059135437
v 8.357404708862305 45.22392272949219 -2.301210641860962
v 8.323478698730469 45.12118148803711 -2.1415421962738037
v 8.29973030090332 45.00405502319336 -2.0018322467803955
v 8.26156234741211 44.82117462158203 -1.9120187759399414
v 8.371824264526367 44.824256896972656 -1.830937147140503
v 8.438828468322754 45.01227569580078 -1.9020395278930664
v 8.441373825073242 45.130428314208984 -2.046739101409912
v 8.446462631225586 45.124263763427734 -2.066697597503662
v 8.460881233215332 45.229061126708984 -2.232603073120117
v 8.406599044799805 45.0081672668457 -1.9369670152664185
v 8.417624473571777 45.120155334472656 -2.0941405296325684
v 8.463425636291504 45.21981430053711 -2.2500667572021484
v 8.514315605163574 45.31022644042969 -2.394766330718994
v 8.514315605163574 45.298927307128906 -2.410982847213745
v 8.598283767700195 45.383174896240234 -2.573146104812622
v 8.437980651855469 45.216732025146484 -2.2725203037261963
v 8.489718437194824 45.29481506347656 -2.4259517192840576
v 8.569446563720703 45.36776351928711 -2.6005890369415283
v 8.606765747070312 45.463314056396484 -2.8600504398345947
v 8.598283767700195 45.57632827758789 -3.1282434463500977
v 8.638995170593262 45.62461853027344 -3.285417079925537
v 8.671225547790527 45.68009948730469 -3.411405563354492
v 8.73823070526123 45.77975845336914 -3.573568820953369
v 8.828136444091797 45.910240173339844 -3.7631752490997314
v 8.929915428161621 46.05510711669922 -3.9714927673339844
v 9.001161575317383 46.16196060180664 -4.083759784698486
v 8.997769355773926 46.17634201049805 -3.9852142333984375
v 9.069014549255371 46.00681686401367 -3.7344846725463867
v 9.09106731414795 46.027366638183594 -3.894153356552124
v 9.123297691345215 45.899967193603516 -3.6646296977996826
v 8.594890594482422 45.370845794677734 -2.5881149768829346
v 9.081737518310547 46.01195526123047 -3.9615132808685303
v 9.008794784545898 45.92770767211914 -3.861720561981201
v 8.912104606628418 45.81263732910156 -3.682093620300293
v 8.828984260559082 45.708866119384766 -3.5111982822418213
v 8.76876449584961 45.62770080566406 -3.361509084701538
v 8.73823070526123 45.579410552978516 -3.2467474937438965
v 8.697519302368164 45.53523254394531 -3.102047920227051
v 8.675466537475586 45.446876525878906 -2.841339111328125
v 8.703455924987793 45.44790267944336 -2.825122833251953
v 8.711089134216309 45.45817565917969 -2.8101539611816406
v 8.80014705657959 45.51468276977539 -3.0459144115448
v 8.811172485351562 45.52290344238281 -3.0284507274627686
v 8.859518051147461 45.56399917602539 -3.1531918048858643
v 8.845947265625 45.55680847167969 -3.1743977069854736
v 8.89005184173584 45.60304260253906 -3.2442526817321777
v 8.769613265991211 45.51571273803711 -3.0683677196502686
v 8.812021255493164 45.55886459350586 -3.20184063911438
v 8.874785423278809 45.59687805175781 -3.2692008018493652
v 8.935853004455566 45.66160583496094 -3.35776686668396
v 8.92313003540039 45.65852355957031 -3.3926944732666016
v 8.999464988708496 45.73249816894531 -3.4750235080718994
v 8.841707229614258 45.60201644897461 -3.304128408432007
v 8.894292831420898 45.66982650756836 -3.4388484954833984
v 8.990135192871094 45.73249816894531 -3.5249199867248535
v 9.080888748168945 45.81058120727539 -3.5773110389709473
v 9.074952125549316 45.813663482666016 -3.645918607711792
v 8.966386795043945 45.75304412841797 -3.5872902870178223
v 9.056292533874512 45.84346008300781 -3.7332372665405273
v 9.09785270690918 45.92154312133789 -3.8267931938171387
v 9.125842094421387 45.90921401977539 -3.7669174671173096
vn -0.37387099862098694 0.6727089285850525 0.6385006904602051
vn -0.3310922086238861 0.4332917034626007 0.838234007358551
vn 0.054576337337493896 0.7330718040466309 0.677958071231842
vn -0.003754435107111931 0.3465578556060791 0.9380210638046265
vn 0.25727084279060364 0.6358737349510193 0.7276512384414673
vn 0.44344785809516907 0.31101617217063904 0.8406086564064026
vn 0.3491338789463043 0.27876874804496765 0.8946471214294434
vn -0.02623797580599785 0.3166452944278717 0.9481810927391052
vn 0.2592907249927521 0.7589564323425293 0.5972883701324463
vn 0.6334171891212463 0.6734187602996826 0.3811691105365753
vn 0.7170923948287964 0.6104696393013 0.3363112509250641
vn 0.5753172039985657 0.7058597207069397 0.41324591636657715
vn -0.3186344504356384 0.7274009585380554 0.607749879360199
vn -0.5029943585395813 0.775697648525238 0.3811691105365753
vn -0.8244715332984924 0.2528115510940552 0.5062933564186096
vn -0.3606094717979431 0.2954879105091095 0.8846737742424011
vn 0.19352002441883087 0.517622709274292 0.8334367275238037
vn 0.45732611417770386 0.5026508569717407 0.7336177229881287
vn 0.6138092875480652 0.4254448413848877 0.6650074124336243
vn 0.5467678308486938 0.2692858576774597 0.7927988767623901
vn 0.5370959043502808 0.3093676269054413 0.7847417593002319
vn 0.6798064708709717 0.5004362463951111 0.5361219048500061
vn 0.7385841012001038 0.5934818387031555 0.3198012113571167
vn 0.775474488735199 0.5708751082420349 0.26970529556274414
vn 0.7555994987487793 0.6077436208724976 0.24437066912651062
vn 0.7249097228050232 0.6356242299079895 0.26549527049064636
vn 0.7746478319168091 0.5963898301124573 0.2103329300880432
vn 0.7449521422386169 0.631658136844635 0.21460255980491638
vn 0.9948101043701172 -0.08293058723211288 -0.058952588587999344
vn 0.9949074983596802 0.06032618507742882 0.08074574917554855
vn 0.7689114212989807 -0.6342360377311707 -0.08074574917554855
vn 0.8635291457176208 -0.48403212428092957 0.1415284425020218
vn 0.6127427816390991 -0.7804608345031738 -0.1242060661315918
vn 0.7887104749679565 -0.6038116216659546 0.11553031951189041
vn 0.6142883896827698 -0.7754849195480347 -0.1458524912595749
vn 0.7991433143615723 -0.5852739810943604 0.1372016966342926
vn 0.601982593536377 -0.7842606902122498 -0.15017375349998474
vn 0.8932101130485535 -0.4445176422595978 0.06767380982637405
vn 0.5922540426254272 -0.7997506260871887 -0.0981530249118805
vn 0.8171827793121338 -0.5414849519729614 0.1975002884864807
vn 0.6105102896690369 -0.7914990782737732 0.028397228568792343
vn 0.8946866393089294 -0.4027453362941742 0.19321508705615997
vn 0.7135365009307861 -0.689520537853241 0.1242060661315918
vn 0.8342293500900269 -0.39456111192703247 0.3852050006389618
vn 0.8272153735160828 -0.5291706919670105 0.18892620503902435
vn 0.9432539939880371 -0.13544608652591705 0.30319350957870483
vn 0.9067354798316956 -0.36792701482772827 0.2060592919588089
vn 0.8960485458374023 -0.09784352034330368 0.43303996324539185
vn 0.9822524785995483 -0.07541196793317795 0.17173540592193604
vn 0.9136922359466553 0.3040156364440918 0.26970529556274414
vn 0.9739441871643066 0.14297984540462494 0.1760382205247879
vn 0.8882965445518494 0.30369338393211365 0.34452807903289795
vn 0.968869686126709 0.09791284799575806 0.22738653421401978
vn 0.8343388438224792 0.3736748695373535 0.405272513628006
vn 0.9559639692306519 -0.21708647906780243 0.1975002884864807
vn 0.8913007378578186 -0.15758585929870605 0.42514660954475403
vn 0.6841404438018799 -0.7214816808700562 0.10684575140476227
vn 0.6845921874046326 -0.6379052400588989 0.3527185618877411
vn 0.15413285791873932 -0.9562627673149109 0.24860523641109467
vn 0.15046414732933044 -0.9886130690574646 -0.002184694167226553
vn -0.06409488618373871 -0.9706879258155823 0.23163928091526031
vn -0.1336394101381302 -0.9873694777488708 -0.08510008454322815
vn -0.23004332184791565 -0.9594122767448425 0.16312000155448914
vn -0.23559117317199707 -0.969179093837738 -0.07203252613544464
vn -0.14475643634796143 -0.9826995134353638 0.11553031951189041
vn -0.21354758739471436 -0.9695507884025574 -0.11986933648586273
vn -0.27385804057121277 -0.9430316090583801 0.18892620503902435
vn -0.3027229905128479 -0.939015805721283 -0.16312000155448914
vn -0.5930539965629578 -0.7315611243247986 0.3363112509250641
vn -0.6543496251106262 -0.7383890748023987 0.16312000155448914
vn -0.9132534861564636 -0.04149998351931572 0.405272513628006
vn -0.7131218910217285 0.07520466297864914 0.6969945430755615
vn -0.7719873189926147 0.4993860423564911 0.3932546079158783
vn -0.39154183864593506 -0.4487278461456299 0.8033295273780823
vn -0.2017972618341446 -0.6039989590644836 0.7710143327713013
vn -0.43225786089897156 0.04883906990289688 0.9004265069961548
vn -0.5478450059890747 0.5998053550720215 0.5831804275512695
vn -0.6634116172790527 0.710099995136261 0.23588760197162628
vn -0.47807061672210693 0.807928740978241 0.34452807903289795
vn -0.6289596557617188 0.7688059210777283 0.11553031951189041
vn -0.2251320779323578 0.6099749803543091 0.7597671151161194
vn -0.02773495949804783 0.14539174735546112 0.9889853596687317
vn -0.009420434944331646 -0.6128692030906677 0.790128231048584
vn -0.1085730716586113 -0.5675520300865173 0.8161473870277405
vn 0.0037324668373912573 0.13065338134765625 0.991421103477478
vn -0.03011268936097622 0.5841781497001648 0.8110666871070862
vn -0.18858283758163452 0.7875221371650696 0.5867242813110352
vn -0.4535560607910156 0.866052508354187 0.2103329300880432
vn -0.5770580768585205 0.8135203123092651 0.07203252613544464
vn -0.40639522671699524 0.8997905850410461 0.15880759060382843
vn -0.5584356188774109 0.8264145255088806 0.07203252613544464
vn -0.16863267123699188 0.8501901626586914 0.4987381398677826
vn -0.015086779370903969 0.801884651184082 0.5972883701324463
vn 0.06202399730682373 0.563694179058075 0.8236515522003174
vn 0.1725580394268036 0.14479339122772217 0.9742990136146545
vn 0.005652985069900751 -0.49301427602767944 0.8700028657913208
vn 0.26013264060020447 -0.3727853000164032 0.8907088041305542
vn 0.2301342636346817 0.18764978647232056 0.9548956751823425
vn 0.20287549495697021 0.5561727285385132 0.8059239983558655
vn 0.09960498660802841 0.7770277261734009 0.6215357780456543
vn -0.0018863547593355179 0.8394212126731873 0.5434780716896057
vn -0.16699856519699097 0.881883442401886 0.4409002661705017
vn -0.39978259801864624 0.9034965634346008 0.15449213981628418
vn -0.46666574478149414 0.8535609841346741 0.23163928091526031
vn -0.5996530055999756 0.7977516055107117 0.0633138045668602
vn -0.4918023645877838 0.8518267273902893 0.18033768236637115
vn -0.7027079463005066 0.7093809843063354 0.05459024757146835
vn -0.8490284085273743 0.5199534296989441 0.09380380809307098
vn -0.6383320689201355 0.7209655046463013 0.26970529556274414
vn -0.9442430138587952 0.2972789704799652 0.1415284425020218
vn -0.16696766018867493 0.9058802723884583 0.3892335295677185
vn -0.19842448830604553 0.8887381553649902 0.41324591636657715
vn -0.18007300794124603 0.9198006391525269 0.34862664341926575
vn -0.016979390755295753 0.8730505108833313 0.48733407258987427
vn 0.11838292330503464 0.8113257884979248 0.5724822878837585
vn 0.20492881536483765 0.7672315835952759 0.607749879360199
vn 0.3247720003128052 0.5399013757705688 0.7765498161315918
vn 0.45620328187942505 0.1767340898513794 0.872148871421814
vn 0.6221032738685608 -0.2001531422138214 0.7569189071655273
vn 0.5827448964118958 0.22100599110126495 0.7820260524749756
vn 0.6027914881706238 0.5003355741500854 0.6215357780456543
vn 0.6184628009796143 0.6477969884872437 0.44481781125068665
vn 0.6785680055618286 0.5321771502494812 0.5062933564186096
vn 0.7508246302604675 0.44583386182785034 0.48733407258987427
vn 0.8014902472496033 0.351891428232193 0.4835140109062195
vn 0.8524828553199768 0.2746089994907379 0.44481781125068665
vn 0.8915740847587585 0.20211343467235565 0.405272513628006
vn 0.9194730520248413 0.1651071310043335 0.3568037748336792
vn 0.9220198392868042 0.15023478865623474 0.3568037748336792
vn 0.9006028771400452 0.09035954624414444 0.42514660954475403
vn 0.7779802083969116 -0.1720450222492218 0.6042742133140564
vn 0.8353233337402344 -0.08286450058221817 0.5434780716896057
vn 0.8263134360313416 0.3244006633758545 0.46040233969688416
vn 0.7399907112121582 0.4250568449497223 0.5212872624397278
vn 0.7134585380554199 0.495989054441452 0.4949462115764618
vn 0.6523191928863525 0.17868869006633759 0.736579954624176
vn 0.6687721610069275 0.1788717806339264 0.7216291427612305
vn 0.7256250977516174 0.32912135124206543 0.6042742133140564
vn 0.7589299082756042 0.3852127194404602 0.5250110030174255
vn 0.652413547039032 0.5047748684883118 0.5652954578399658
vn 0.7583540678024292 0.4058836102485657 0.5100564956665039
vn 0.7347620725631714 0.42494094371795654 0.528724730014801
vn 0.6932106614112854 0.46914398670196533 0.5471406579017639
vn 0.6371557116508484 0.5160393714904785 0.5724822878837585
vn 0.5777352452278137 0.571071445941925 0.5831804275512695
vn 0.5238772630691528 0.6793761253356934 0.5138099193572998
vn 0.47723546624183655 0.6934383511543274 0.5398051738739014
vn 0.48181307315826416 0.5058077573776245 0.715552031993866
vn 0.3280840516090393 0.7514152526855469 0.5724822878837585
vn 0.3657853305339813 0.7365869879722595 0.5688942670822144
vn 0.41808220744132996 0.696496844291687 0.5831804275512695
vn 0.4846770167350769 0.6613261103630066 0.5724822878837585
vn 0.5622127056121826 0.6168826222419739 0.5507928133010864
vn 0.6147202253341675 0.5573886036872864 0.5580654144287109
vn 0.6596113443374634 0.530502438545227 0.5324283838272095
vn 0.5232073664665222 0.5938616394996643 0.6112139225006104
vn 0.3208344578742981 0.6711841225624084 0.6682642698287964
vn 0.5139449238777161 0.6323725581169128 0.5796254277229309
vn 0.3153305947780609 0.7317234873771667 0.6042742133140564
vn 0.4695673882961273 0.6751783490180969 0.5688942670822144
vn -0.1577322632074356 0.522000253200531 0.838234007358551
vn 0.03771103173494339 0.7099574208259583 0.7032341957092285
vn -0.7672345042228699 0.18312999606132507 0.6146662831306458
vn -0.9766322374343872 0.18391971290111542 0.1111890971660614
vn -0.9784404635429382 0.20231705904006958 0.04149730131030083
vn -0.9929527640342712 0.02641030214726925 0.11553031951189041
vn -0.9952404499053955 -0.026407256722450256 -0.09380380809307098
vn -0.5964005589485168 0.37553879618644714 0.7094202041625977
vn -0.35814064741134644 0.705799400806427 0.6112139225006104
vn 0.09588196873664856 0.8040903210639954 0.5867242813110352
vn 0.28613007068634033 0.7683707475662231 0.5724822878837585
vn 0.22545336186885834 0.8110371232032776 0.5398051738739014
vn 0.3960040211677551 0.7236172556877136 0.5652954578399658
vn 0.3175923824310303 0.7531870603561401 0.5760593414306641
vn 0.2666063606739044 0.7619171738624573 0.590256929397583
vn 0.23242753744125366 0.7836664319038391 0.5760593414306641
vn 0.13332374393939972 0.8140429258346558 0.5652954578399658
vn 0.16306465864181519 0.8282410502433777 0.5361219048500061
vn -0.0113105783239007 0.8856179714202881 0.4642767012119293
vn 0.018855741247534752 0.8665475845336914 0.4987381398677826
vn 0.07341514527797699 0.8547570109367371 0.5138099193572998
vn -0.2794240713119507 0.7940608263015747 0.5398051738739014
vn -0.831623911857605 0.4387640953063965 0.34042292833328247
vn -0.9456462860107422 0.16142331063747406 0.28230419754981995
vn -0.9927991628646851 0.10169181227684021 0.0633138045668602
vn -0.9784404635429382 0.20231705904006958 0.04149730131030083
vn -0.9756258130073547 0.07545751333236694 -0.2060592919588089
vn -0.9952404499053955 -0.026407256722450256 -0.09380380809307098
vn -0.979248583316803 -0.018875958397984505 -0.2017817199230194
vn -0.9927991628646851 0.10169181227684021 0.0633138045668602
vn -0.9881254434585571 -0.09044857323169708 -0.1242060661315918
vn -0.9442430138587952 0.2972789704799652 0.1415284425020218
vn -0.9986827969551086 0.030177012085914612 -0.04149730131030083
vn -0.8490284085273743 0.5199534296989441 0.09380380809307098
vn -0.9754154086112976 0.21350562572479248 -0.05459024757146835
vn -0.7027079463005066 0.7093809843063354 0.05459024757146835
vn -0.9276183247566223 0.3438768684864044 -0.1458524912595749
vn -0.80233234167099 0.47849127650260925 -0.3568037748336792
vn -0.5996530055999756 0.7977516055107117 0.0633138045668602
vn -0.8965862989425659 0.35758307576179504 -0.2612801790237427
vn -0.5584356188774109 0.8264145255088806 0.07203252613544464
vn -0.5770580768585205 0.8135203123092651 0.07203252613544464
vn -0.9020721912384033 0.34350892901420593 -0.2612801790237427
vn -0.6289596557617188 0.7688059210777283 0.11553031951189041
vn -0.7904894948005676 0.4978126585483551 -0.3568037748336792
vn -0.6634116172790527 0.710099995136261 0.23588760197162628
vn -0.9419687390327454 0.3223285377025604 -0.09380380809307098
vn -0.7719873189926147 0.4993860423564911 0.3932546079158783
vn -0.9608867764472961 0.26854580640792847 0.06767380982637405
vn -0.9132534861564636 -0.04149998351931572 0.405272513628006
vn -0.99288010597229 -0.0980273187160492 0.06767380982637405
vn -0.6543496251106262 -0.7383890748023987 0.16312000155448914
vn -0.8051580786705017 -0.5607035160064697 -0.19321508705615997
vn -0.35577788949012756 -0.8922314643859863 -0.2781098484992981
vn -0.3027229905128479 -0.939015805721283 -0.16312000155448914
vn -0.311529278755188 -0.9099025726318359 -0.27391019463539124
vn -0.21354758739471436 -0.9695507884025574 -0.11986933648586273
vn -0.22449883818626404 -0.9399576783180237 -0.25706008076667786
vn -0.23559117317199707 -0.969179093837738 -0.07203252613544464
vn -0.09426461160182953 -0.9594928026199341 -0.26549527049064636
vn -0.1336394101381302 -0.9873694777488708 -0.08510008454322815
vn 0.25731775164604187 -0.9043781161308289 -0.34042292833328247
vn 0.15046414732933044 -0.9886130690574646 -0.002184694167226553
vn 0.6935112476348877 -0.7055276036262512 -0.1458524912595749
vn 0.6841404438018799 -0.7214816808700562 0.10684575140476227
vn 0.9559639692306519 -0.21708647906780243 0.1975002884864807
vn 0.9647385478019714 -0.22462232410907745 -0.1372016966342926
vn 0.968869686126709 0.09791284799575806 0.22738653421401978
vn 0.5534579753875732 -0.5694947838783264 -0.607749879360199
vn 0.342863529920578 -0.6366913318634033 -0.6907016038894653
vn 0.11469561606645584 -0.6698133945465088 -0.7336177229881287
vn -0.20266437530517578 -0.6212897300720215 -0.7569189071655273
vn -0.414189875125885 -0.496876984834671 -0.762600839138031
vn -0.6389788389205933 -0.44370317459106445 -0.6283578276634216
vn -0.7654103636741638 -0.34464260935783386 -0.5434780716896057
vn -0.8441067337989807 -0.007555300369858742 -0.5361219048500061
vn -0.830506443977356 -0.08298415690660477 -0.5507928133010864
vn -0.769128143787384 -0.11665502935647964 -0.6283578276634216
vn -0.7050096392631531 -0.3155454695224762 -0.6351318359375
vn -0.6480861306190491 -0.26895764470100403 -0.7124928832054138
vn -0.6641886234283447 -0.2935108244419098 -0.6875353455543518
vn -0.7935492992401123 -0.34862563014030457 -0.4987381398677826
vn -0.5238132476806641 -0.5825057029724121 -0.6215357780456543
vn -0.504369854927063 -0.5097152590751648 -0.6969945430755615
vn -0.5382706522941589 -0.4302920699119568 -0.7246471047401428
vn -0.6002958416938782 -0.3633163273334503 -0.7124928832054138
vn -0.6420937776565552 -0.1792234629392624 -0.7453821301460266
vn -0.6782916784286499 -0.041538674384355545 -0.7336177229881287
vn -0.42398127913475037 -0.09732414036989212 -0.9004265069961548
vn -0.4649430811405182 -0.27061793208122253 -0.8429672718048096
vn -0.42401352524757385 -0.48409175872802734 -0.7654199600219727
vn -0.40777280926704407 -0.5355552434921265 -0.7395281791687012
vn -0.41312694549560547 -0.5898234844207764 -0.6938546895980835
vn -0.4443320035934448 -0.6739182472229004 -0.590256929397583
vn -0.6318532824516296 -0.5225183963775635 -0.5724822878837585
vn -0.8283241391181946 -0.12048306316137314 -0.5471406579017639
vn -0.8943616151809692 -0.13916778564453125 -0.42514660954475403
vn -0.8966348767280579 -0.1689661145210266 -0.40926313400268555
vn -0.8643432259559631 -0.18372182548046112 -0.46814218163490295
vn -0.8559731245040894 -0.17267155647277832 -0.48733407258987427
vn -0.8674739003181458 -0.07915687561035156 -0.4911448359489441
vn -0.7025588154792786 0.08662264049053192 -0.7063339352607727
vn -0.22269418835639954 0.9611446857452393 0.16312000155448914
vn 0.1541634500026703 0.9854161143302917 -0.07203252613544464
vn 0.5753172039985657 0.7058597207069397 0.41324591636657715
vn 0.7170923948287964 0.6104696393013 0.3363112509250641
vn -0.5029943585395813 0.775697648525238 0.3811691105365753
vn 0.05651448667049408 0.5088054537773132 -0.8590245246887207
vn -0.732427179813385 -0.2701563239097595 -0.6249527335166931
vn -0.7498916983604431 -0.29170140624046326 -0.5937783122062683
vn -0.774762749671936 -0.3168277144432068 -0.5471406579017639
vn -0.8170011639595032 -0.34198862314224243 -0.4642767012119293
vn -0.8109761476516724 -0.3977349102497101 -0.42909738421440125
vn -0.7590442299842834 -0.4563978910446167 -0.4642767012119293
vn -0.5517612099647522 -0.6598499417304993 -0.5100564956665039
vn -0.37535637617111206 -0.7508256435394287 -0.5434780716896057
vn -0.31826090812683105 -0.6820162534713745 -0.6584556698799133
vn -0.2688368856906891 -0.651498019695282 -0.7094202041625977
vn -0.22773388028144836 -0.629989743232727 -0.7424622178077698
vn -0.1664237380027771 -0.44374173879623413 -0.8805659413337708
vn -0.14173409342765808 -0.26566752791404724 -0.953589141368866
vn 0.14968879520893097 -0.38731488585472107 -0.9097144603729248
vn 0.06040111929178238 -0.5746782422065735 -0.8161473870277405
vn -0.030188797041773796 -0.7491272687911987 -0.661737859249115
vn -0.1297086626291275 -0.767034649848938 -0.6283578276634216
vn -0.21642033755779266 -0.7882372140884399 -0.5760593414306641
vn -0.29067543148994446 -0.8188626766204834 -0.4949462115764618
vn -0.4620177745819092 -0.7649730443954468 -0.4487268626689911
vn -0.6550133228302002 -0.613648533821106 -0.4409002661705017
vn -0.7016202807426453 -0.5471006631851196 -0.456519216299057
vn -0.7052691578865051 -0.4638628363609314 -0.5361219048500061
vn -0.6706567406654358 -0.39956676959991455 -0.6249527335166931
vn -0.6787453293800354 -0.36279693245887756 -0.6385006904602051
vn -0.6740345358848572 -0.30782127380371094 -0.6715083718299866
vn 0.42656251788139343 0.41052526235580444 -0.8059239983558655
vn 0.7951865792274475 0.5851994752883911 0.15880759060382843
vn 0.775474488735199 0.5708751082420349 0.26970529556274414
vn 0.7841002941131592 0.6097864508628845 0.11553031951189041
vn 0.7555994987487793 0.6077436208724976 0.24437066912651062
vn 0.11678831279277802 0.33498743176460266 -0.9349566102027893
vn -0.5622891783714294 -0.4197436273097992 -0.7124928832054138
vn -0.5871293544769287 -0.4844408631324768 -0.6485338807106018
vn -0.5520796179771423 -0.5240342020988464 -0.6485338807106018
vn -0.5632686614990234 -0.6060012578964233 -0.5616858005523682
vn -0.5549672245979309 -0.7054206728935242 -0.4409002661705017
vn -0.5290738940238953 -0.7455434203147888 -0.405272513628006
vn -0.3481327295303345 -0.8491063714027405 -0.3972681760787964
vn -0.16699856519699097 -0.881883442401886 -0.4409002661705017
vn -0.09417902678251266 -0.8527190089225769 -0.5138099193572998
vn 0.03020603023469448 -0.8505592346191406 -0.5250110030174255
vn 0.1464582085609436 -0.8016136288642883 -0.5796254277229309
vn 0.3234381377696991 -0.6156342029571533 -0.7185974717140198
vn 0.43382498621940613 -0.4231409430503845 -0.7954543828964233
vn 0.6118431091308594 -0.5144928693771362 -0.6007870435714722
vn 0.9892775416374207 -0.0075527760200202465 -0.1458524912595749
vn 0.9739441871643066 0.14297984540462494 0.1760382205247879
vn 0.9575539231300354 -0.18758249282836914 -0.21886809170246124
vn 0.9822524785995483 -0.07541196793317795 0.17173540592193604
vn 0.5469707250595093 -0.5683382749557495 -0.6146662831306458
vn 0.3684922456741333 -0.8267186880111694 -0.42514660954475403
vn 0.7432669401168823 -0.6685633063316345 -0.024029340595006943
vn 0.9067354798316956 -0.36792701482772827 0.2060592919588089
vn 0.7177301645278931 -0.684354305267334 -0.12854042649269104
vn 0.8272153735160828 -0.5291706919670105 0.18892620503902435
vn 0.2730638384819031 -0.8404040932655334 -0.46814218163490295
vn 0.114950992166996 -0.9418843388557434 -0.31565824151039124
vn 0.02265479601919651 -0.9661298394203186 -0.25706008076667786
vn -0.20611383020877838 -0.912746787071228 -0.3527185618877411
vn -0.3724614977836609 -0.8461574912071228 -0.3811691105365753
vn -0.3773772418498993 -0.8346049785614014 -0.401274174451828
vn -0.3583078682422638 -0.7564737796783447 -0.5471406579017639
vn -0.3652566075325012 -0.7081244587898254 -0.6042742133140564
vn -0.3813863694667816 -0.6454823613166809 -0.661737859249115
vn -0.40430504083633423 -0.599557101726532 -0.6907016038894653
vn 0.3245921730995178 -0.060223765671253204 -0.9439348578453064
vn 0.8748952746391296 0.47753357887268066 0.08074574917554855
vn 0.7746478319168091 0.5963898301124573 0.2103329300880432
vn 0.8669315576553345 0.49761760234832764 0.028397228568792343
vn 0.9948101043701172 -0.08293058723211288 -0.058952588587999344
vn 0.6040568351745605 -0.7903221249580383 -0.10250037163496017
vn 0.7754257321357727 -0.28848573565483093 -0.5616858005523682
vn 0.007555617485195398 -0.7695841789245605 -0.6385006904602051
vn -0.15027736127376556 -0.8135882019996643 -0.5616858005523682
vn -0.09800544381141663 -0.8264365792274475 -0.5544344186782837
vn -0.1167125478386879 -0.869644045829773 -0.4796847105026245
vn -0.1335659623146057 -0.9096763134002686 -0.3932546079158783
vn -0.18009155988693237 -0.9150579571723938 -0.36088213324546814
vn 0.049084313213825226 -0.9389904141426086 -0.34042292833328247
vn 0.4309644401073456 -0.9023662805557251 0.002184694167226553
vn 0.7135365009307861 -0.689520537853241 0.1242060661315918
vn 0.44755667448043823 -0.875883162021637 -0.18033768236637115
vn 0.6105102896690369 -0.7914990782737732 0.028397228568792343
vn 0.5922540426254272 -0.7997506260871887 -0.0981530249118805
vn 0.4417392611503601 -0.8632203936576843 -0.24437066912651062
vn 0.601982593536377 -0.7842606902122498 -0.15017375349998474
vn -0.011325903236865997 -0.9685386419296265 -0.24860523641109467
vn 0.026426011696457863 -0.9538787007331848 -0.2990269064903259
vn 0.4416235089302063 -0.8530085682868958 -0.2781098484992981
vn 0.6142883896827698 -0.7754849195480347 -0.1458524912595749
vn 0.4616224467754364 -0.8423536419868469 -0.2781098484992981
vn 0.6127427816390991 -0.7804608345031738 -0.1242060661315918
vn 0.08295398205518723 -0.9289147853851318 -0.36088213324546814
vn 0.08861025422811508 -0.9081034660339355 -0.40926313400268555
vn 0.41808485984802246 -0.8725132942199707 -0.25283506512641907
vn 0.7689114212989807 -0.6342360377311707 -0.08074574917554855
vn 0.6431230306625366 -0.7338184118270874 -0.21886809170246124
vn 0.08856283128261566 -0.8931761384010315 -0.4409002661705017
vn 0.1688648909330368 -0.8610384464263916 -0.4796847105026245
vn 0.7419124245643616 -0.5371637940406799 -0.401274174451828
vn 0.903203010559082 -0.36134132742881775 -0.23163928091526031
vt 0.9037388563156128 0.7983466386795044
vt 0.9122748970985413 0.7859499454498291
vt 0.9097501635551453 0.7961534261703491
vt 0.9232154488563538 0.7825170159339905
vt 0.9211716055870056 0.7922436594963074
vt 0.936680793762207 0.780133068561554
vt 0.939445972442627 0.7735532522201538
vt 0.9261008501052856 0.7746976017951965
vt 0.9067444801330566 0.809789776802063
vt 0.9205704927444458 0.8083593845367432
vt 0.9215322732925415 0.8283848166465759
vt 0.9043399691581726 0.8260008096694946
vt 0.898689329624176 0.8072150945663452
vt 0.8954432606697083 0.8194210529327393
vt 0.9038590788841248 0.7908132672309875
vt 0.9151602983474731 0.7775583267211914
vt 0.9294672012329102 0.7694528102874756
vt 0.941850483417511 0.7689760327339172
vt 0.9548348784446716 0.7695481777191162
vt 0.953632652759552 0.7746976017951965
vt 0.9521899223327637 0.78099125623703
vt 0.9355987310409546 0.7898597121238708
vt 0.9375223517417908 0.8073104023933411
vt 0.9406481981277466 0.8279080390930176
vt 0.9582012295722961 0.824761152267456
vt 0.9544742107391357 0.806452214717865
vt 0.9714260697364807 0.8189442753791809
vt 0.9684204459190369 0.8054986000061035
vt 0.9792407751083374 0.8107433319091797
vt 0.9768362641334534 0.8024470806121826
vt 0.9839295744895935 0.8003491759300232
vt 0.9800823330879211 0.7955812215805054
vt 0.984771192073822 0.7877618074417114
vt 0.9811643958091736 0.7849963903427124
vt 0.9829677939414978 0.7759372591972351
vt 0.9802025556564331 0.774316132068634
vt 0.9814048409461975 0.7656384706497192
vt 0.9790003299713135 0.7646848559379578
vt 0.9802025556564331 0.7578189969062805
vt 0.978038489818573 0.7572468519210815
vt 0.977918267250061 0.7473294734954834
vt 0.9759946465492249 0.7469480633735657
vt 0.9740710258483887 0.7287344336509705
vt 0.9723879098892212 0.7284483909606934
vt 0.9707047343254089 0.7079461216926575
vt 0.9691417813301086 0.7075647115707397
vt 0.9695024490356445 0.6913536190986633
vt 0.968059778213501 0.6905907392501831
vt 0.970344066619873 0.676191508769989
vt 0.9691417813301086 0.6750472187995911
vt 0.9737103581428528 0.6593129634857178
vt 0.9726283550262451 0.657882571220398
vt 0.9782789349555969 0.6432926058769226
vt 0.9770767092704773 0.6419575810432434
vt 0.9824868440628052 0.6300376653671265
vt 0.9811643958091736 0.6288933753967285
vt 0.9842902421951294 0.6191667318344116
vt 0.9818857312202454 0.6186899542808533
vt 0.9782789349555969 0.6109658479690552
vt 0.9828475713729858 0.6082004308700562
vt 0.970344066619873 0.6025742292404175
vt 0.9749126434326172 0.5958991050720215
vt 0.9563978314399719 0.5942779779434204
vt 0.9595236778259277 0.5856002569198608
vt 0.9410089254379272 0.5884610414505005
vt 0.9423313736915588 0.5799741148948669
vt 0.9289863109588623 0.5865538716316223
vt 0.9282649755477905 0.5801647901535034
vt 0.9214120507240295 0.5878888964653015
vt 0.9188873171806335 0.5846467018127441
vt 0.913236677646637 0.591607928276062
vt 0.9157614707946777 0.5924661755561829
vt 0.9086681008338928 0.6023834943771362
vt 0.9233356714248657 0.5906543135643005
vt 0.9289863109588623 0.5913218259811401
vt 0.9193682074546814 0.5942779779434204
vt 0.9108321666717529 0.6026695966720581
vt 0.9045804142951965 0.6197388768196106
vt 0.9063838124275208 0.6197388768196106
vt 0.9036186337471008 0.6417668461799622
vt 0.9143187403678894 0.6044813990592957
vt 0.9261008501052856 0.5981876850128174
vt 0.9395661950111389 0.5952315926551819
vt 0.953752875328064 0.6009531021118164
vt 0.9363200664520264 0.6030510067939758
vt 0.9214120507240295 0.6088679432868958
vt 0.9098703861236572 0.6210739016532898
vt 0.9050613045692444 0.6414808034896851
vt 0.9063838124275208 0.6646530628204346
vt 0.9077063202857971 0.6644623279571533
vt 0.910471498966217 0.6894464492797852
vt 0.908187210559845 0.6424343585968018
vt 0.9169636964797974 0.6252697110176086
vt 0.9316312670707703 0.6148755550384521
vt 0.9496651887893677 0.609630823135376
vt 0.9668574929237366 0.6078189611434937
vt 0.975393533706665 0.6141126751899719
vt 0.9624091386795044 0.6167827248573303
vt 0.9446156620979309 0.6225042939186096
vt 0.9271829128265381 0.6313726902008057
vt 0.9149198532104492 0.6458672881126404
vt 0.910471498966217 0.6651298403739929
vt 0.9117940068244934 0.6893510818481445
vt 0.9154007434844971 0.7175773978233337
vt 0.9138378500938416 0.7179588675498962
vt 0.9170839190483093 0.7426568865776062
vt 0.9150400757789612 0.7432290315628052
vt 0.912996232509613 0.7577236294746399
vt 0.9154007434844971 0.7573422193527222
vt 0.9090287685394287 0.7662106156349182
vt 0.920089602470398 0.7422754764556885
vt 0.9181659817695618 0.7175773978233337
vt 0.9144389629364014 0.689732551574707
vt 0.9166030287742615 0.6676092147827148
vt 0.924778401851654 0.6512073874473572
vt 0.9400470852851868 0.6389060616493225
vt 0.9576001167297363 0.6301330327987671
vt 0.9719069600105286 0.6227903962135315
vt 0.9791205525398254 0.6192620992660522
vt 0.9782789349555969 0.6268908381462097
vt 0.9741912484169006 0.6397643089294434
vt 0.9697428941726685 0.6556892991065979
vt 0.9662563800811768 0.6729493141174316
vt 0.9650540947914124 0.6890650391578674
vt 0.9661361575126648 0.7065157294273376
vt 0.9692620038986206 0.7276855111122131
vt 0.972989022731781 0.7463759183883667
vt 0.9747924208641052 0.756865382194519
vt 0.975513756275177 0.7640173435211182
vt 0.9762350916862488 0.7725996971130371
vt 0.9765958189964294 0.7817541360855103
vt 0.975513756275177 0.7907178997993469
vt 0.9733496904373169 0.7958673238754272
vt 0.9662563800811768 0.7937694191932678
vt 0.9520696997642517 0.7903364896774292
vt 0.9660159349441528 0.7851870656013489
vt 0.9667372703552246 0.7777490615844727
vt 0.9669777154922485 0.7707878351211548
vt 0.9670979380607605 0.7639219760894775
vt 0.9556764960289001 0.7640173435211182
vt 0.9668574929237366 0.7569607496261597
vt 0.9652945399284363 0.7458990812301636
vt 0.9620484709739685 0.7264457941055298
vt 0.9591630101203918 0.7044178247451782
vt 0.9583214521408081 0.6860135197639465
vt 0.9594034552574158 0.6692302823066711
vt 0.9630102515220642 0.6517795920372009
vt 0.9675788283348083 0.6358546018600464
vt 0.9529112577438354 0.6461533904075623
vt 0.9494247436523438 0.6641762852668762
vt 0.9485831260681152 0.6819130778312683
vt 0.9496651887893677 0.7013663649559021
vt 0.9523101449012756 0.7246339917182922
vt 0.9550753235816956 0.745231568813324
vt 0.956037163734436 0.7571514844894409
vt 0.9436538815498352 0.7640173435211182
vt 0.932352602481842 0.7642080783843994
vt 0.9447358846664429 0.756865382194519
vt 0.9340357780456543 0.7564839720726013
vt 0.9441347718238831 0.744087278842926
vt 0.9191277623176575 0.7711693048477173
vt 0.9227345585823059 0.764875590801239
vt 0.9071051478385925 0.7811819911003113
vt 0.8994107246398926 0.7973930835723877
vt 0.8954432606697083 0.8047357201576233
vt 0.9024163484573364 0.7842335104942322
vt 0.8983286619186401 0.7867128252983093
vt 0.9114332795143127 0.7731718420982361
vt 0.915520966053009 0.7657338380813599
vt 0.9252592921257019 0.7566747069358826
vt 0.9339155554771423 0.7429429888725281
vt 0.9313908219337463 0.7198660373687744
vt 0.9414898157119751 0.7222500443458557
vt 0.9386043548583984 0.6976473331451416
vt 0.936921238899231 0.676763653755188
vt 0.9370414614677429 0.6577872037887573
vt 0.9254997372627258 0.6716142892837524
vt 0.9280244708061218 0.6939283609390259
vt 0.919969379901886 0.6913536190986633
vt 0.9235761165618896 0.718340277671814
vt 0.9258604049682617 0.7423707842826843
vt 0.9187670946121216 0.7569607496261597
vt 0.9117940068244934 0.7662106156349182
vt 0.9072253704071045 0.7744114995002747
vt 0.9038590788841248 0.7747929096221924
vt 0 0.09898228943347931
vt 0.002284293994307518 0.09078139811754227
vt 0.005770848132669926 0.12034274637699127
vt 0.007454012054949999 0.11633766442537308
vt 0.012383278459310532 0.13474199175834656
vt 0.014306893572211266 0.1328348070383072
vt 0.01707209274172783 0.1459943652153015
vt 0.018995707854628563 0.14465934038162231
vt 0.019837290048599243 0.15686531364917755
vt 0.021760905161499977 0.1560070812702179
vt 0.021520454436540604 0.17259958386421204
vt 0.023323843255639076 0.1721227914094925
vt 0.02296316623687744 0.19825121760368347
vt 0.021520454436540604 0.1983465701341629
vt 0.01947661116719246 0.22666825354099274
vt 0.018154125660657883 0.22647753357887268
vt 0.012503503821790218 0.2501266300678253
vt 0.01382599025964737 0.2503173351287842
vt 0.006852881982922554 0.27129635214805603
vt 0.008295593783259392 0.2712010145187378
vt 0.002765198005363345 0.29179859161376953
vt 0.004568587988615036 0.29151251912117004
vt 0.0021640679333359003 0.3087725341320038
vt 0.0040876842103898525 0.30791428685188293
vt 0.007333786226809025 0.3184991776943207
vt 0.008536046370863914 0.3161151707172394
vt 0.014787797816097736 0.3211692273616791
vt 0.015028250403702259 0.31745022535324097
vt 0.0235642958432436 0.3132544159889221
vt 0.024165425449609756 0.31935739517211914
vt 0.03498576581478119 0.3070560693740845
vt 0.03690938279032707 0.3151615858078003
vt 0.050254467874765396 0.30257418751716614
vt 0.05313989147543907 0.3108704388141632
vt 0.06612429767847061 0.29990410804748535
vt 0.06937040388584137 0.30667462944984436
vt 0.07898848503828049 0.29885515570640564
vt 0.0817536786198616 0.3030509650707245
vt 0.08812566101551056 0.2959944009780884
vt 0.08980882167816162 0.2979969382286072
vt 0.09305492043495178 0.2883656620979309
vt 0.09161221235990524 0.2873167097568512
vt 0.09161221235990524 0.27539679408073425
vt 0.08475933223962784 0.29256147146224976
vt 0.07718509435653687 0.29389649629592896
vt 0.06371977925300598 0.29380112886428833
vt 0.04821062460541725 0.29618510603904724
vt 0.03330260142683983 0.30123916268348694
vt 0.022602487355470657 0.3087725341320038
vt 0.01623051054775715 0.313445121049881
vt 0.01142146997153759 0.3125869035720825
vt 0.007454012054949999 0.3048627972602844
vt 0.007934915833175182 0.2890331745147705
vt 0.01142146997153759 0.2691984474658966
vt 0.016470961272716522 0.24888694286346436
vt 0.021760905161499977 0.22581002116203308
vt 0.025487912818789482 0.19758370518684387
vt 0.028734013438224792 0.22333067655563354
vt 0.024165425449609756 0.24488186836242676
vt 0.020077742636203766 0.2635722756385803
vt 0.01707209274172783 0.28216731548309326
vt 0.016470961272716522 0.2970433533191681
vt 0.019356386736035347 0.3047674298286438
vt 0.031258758157491684 0.2960897386074066
vt 0.02945536933839321 0.2876981496810913
vt 0.030056500807404518 0.2734896242618561
vt 0.03210034221410751 0.25632497668266296
vt 0.03534644469618797 0.23954175412654877
vt 0.03907344862818718 0.22008846700191498
vt 0.032220568507909775 0.19605794548988342
vt 0.026329493150115013 0.1714552789926529
vt 0.025127233937382698 0.15553028881549835
vt 0.02284293994307518 0.14399182796478271
vt 0.018394578248262405 0.1312136948108673
vt 0.012383278459310532 0.11328616738319397
vt 0.008415820077061653 0.08744382113218307
vt 0.01142146997153759 0.07561928033828735
vt 0.006973107811063528 0.07495176792144775
vt 0.015629379078745842 0.06942093372344971
vt 0.00336632807739079 0.06408081948757172
vt 0.02272271364927292 0.0489187054336071
vt 0.00012022600276395679 0.081817626953125
vt 0.020077742636203766 0.0720909908413887
vt 0.021400228142738342 0.08763454109430313
vt 0.0235642958432436 0.11109290271997452
vt 0.027772206813097 0.129497230052948
vt 0.031258758157491684 0.14399182796478271
vt 0.03318237513303757 0.15543493628501892
vt 0.03354305401444435 0.17069239914417267
vt 0.041958872228860855 0.19405540823936462
vt 0.05073537304997444 0.21675090491771698
vt 0.04797017574310303 0.23448771238327026
vt 0.04580610617995262 0.24955447018146515
vt 0.04508474841713905 0.2654794454574585
vt 0.045325201004743576 0.27949726581573486
vt 0.04652746021747589 0.2894146144390106
vt 0.06263774633407593 0.28540951013565063
vt 0.061675939708948135 0.27406176924705505
vt 0.059992775321006775 0.2598532438278198
vt 0.059030964970588684 0.24450042843818665
vt 0.059992775321006775 0.23048262298107147
vt 0.06191638857126236 0.2137947678565979
vt 0.05326011776924133 0.1919575035572052
vt 0.043642036616802216 0.16973881423473358
vt 0.04388248920440674 0.1553395688533783
vt 0.0424397774040699 0.14380110800266266
vt 0.03991503268480301 0.12825755774974823
vt 0.03751051053404808 0.10909035801887512
vt 0.036188025027513504 0.0862041562795639
vt 0.034625086933374405 0.0714234784245491
vt 0.03101830743253231 0.06379473954439163
vt 0.05049492046236992 0.04729760065674782
vt 0.04833085089921951 0.06617872416973114
vt 0.07285695523023605 0.061220042407512665
vt 0.04821062460541725 0.07428425550460815
vt 0.04977356269955635 0.08763454109430313
vt 0.05157695338129997 0.1087089255452156
vt 0.05326011776924133 0.12768541276454926
vt 0.05446237698197365 0.14351503551006317
vt 0.05530396103858948 0.15486277639865875
vt 0.055063508450984955 0.16859450936317444
vt 0.06408045440912247 0.1902410387992859
vt 0.07069288939237595 0.2120783030986786
vt 0.06925017386674881 0.22848008573055267
vt 0.06949062645435333 0.24249787628650665
vt 0.07249628007411957 0.2580414414405823
vt 0.07586260885000229 0.27272674441337585
vt 0.07682441174983978 0.28474199771881104
vt 0.08752452582120895 0.28617238998413086
vt 0.08992905169725418 0.2746339440345764
vt 0.08608181774616241 0.26023468375205994
vt 0.08439864963293076 0.2594718337059021
vt 0.08067164570093155 0.24392826855182648
vt 0.08608181774616241 0.2735849916934967
vt 0.0811525508761406 0.2585182189941406
vt 0.07922893762588501 0.24316540360450745
vt 0.07898848503828049 0.2288615107536316
vt 0.07754576951265335 0.22809864580631256
vt 0.07995028793811798 0.2120783030986786
vt 0.07658395916223526 0.24249787628650665
vt 0.07526147365570068 0.2279079258441925
vt 0.07634350657463074 0.21131542325019836
vt 0.07297718524932861 0.18938280642032623
vt 0.06600407510995865 0.16773627698421478
vt 0.06624452769756317 0.15448133647441864
vt 0.06576362252235413 0.1436103880405426
vt 0.0655231699347496 0.1281622052192688
vt 0.06456135958433151 0.10966251790523529
vt 0.06215684115886688 0.0902092382311821
vt 0.059992775321006775 0.0784800574183464
vt 0.0633591040968895 0.0720909908413887
vt 0.08536045998334885 0.07933828979730606
vt 0.07441989332437515 0.08095939457416534
vt 0.08992905169725418 0.09497720003128052
vt 0.0786278024315834 0.2114107757806778
vt 0.07069288939237595 0.08343873918056488
vt 0.07285695523023605 0.09450040757656097
vt 0.07502102106809616 0.11290472745895386
vt 0.07538170367479324 0.13045081496238708
vt 0.07526147365570068 0.14513613283634186
vt 0.0755019262433052 0.1553395688533783
vt 0.07514125108718872 0.16792698204517365
vt 0.07886825501918793 0.1892874538898468
vt 0.08139300346374512 0.18976424634456635
vt 0.08283571153879166 0.19043175876140594
vt 0.08451887965202332 0.16954809427261353
vt 0.08608181774616241 0.17040632665157318
vt 0.08728407323360443 0.15858179330825806
vt 0.08560091257095337 0.1577235609292984
vt 0.08776497840881348 0.1496180146932602
vt 0.08163345605134964 0.1687852144241333
vt 0.08235480636358261 0.1566746085882187
vt 0.08584136515855789 0.14856907725334167
vt 0.08860655874013901 0.13750740885734558
vt 0.08632227033376694 0.13579094409942627
vt 0.08968859910964966 0.12348960340023041
vt 0.08235480636358261 0.14713868498802185
vt 0.0827154889702797 0.13359767198562622
vt 0.08692339807748795 0.12081954628229141
vt 0.0911313071846962 0.10861356556415558
vt 0.08716385066509247 0.10489455610513687
vt 0.08283571153879166 0.11748196929693222
vt 0.0817536786198616 0.10041267424821854
vt 0.07874803245067596 0.09011387825012207
vt 0.08319639414548874 0.0908767580986023
s on
f 1/1/1 2/2/2 3/3/3
f 2/2/2 4/4/4 3/3/3
f 3/3/3 4/4/4 5/5/5
f 5/5/5 4/4/4 6/6/6
f 6/6/6 4/4/4 7/7/7
f 7/7/7 4/4/4 8/8/8
f 4/4/4 2/2/2 8/8/8
f 1/1/1 3/3/3 9/9/9
f 3/3/3 10/10/10 9/9/9
f 10/10/10 11/11/11 9/9/9
f 11/11/11 12/12/12 9/9/9
f 9/9/9 12/12/12 13/13/13
f 12/12/12 14/14/14 13/13/13
f 10/10/10 3/3/3 5/5/5
f 9/9/9 13/13/13 1/1/1
f 13/13/13 15/15/15 1/1/1
f 1/1/1 15/15/15 2/2/2
f 15/15/15 16/16/16 2/2/2
f 2/2/2 16/16/16 8/8/8
f 16/16/16 17/17/17 8/8/8
f 17/17/17 18/18/18 8/8/8
f 8/8/8 18/18/18 7/7/7
f 18/18/18 19/19/19 7/7/7
f 19/19/19 20/20/20 7/7/7
f 7/7/7 20/20/20 6/6/6
f 20/20/20 21/21/21 6/6/6
f 21/21/21 22/22/22 6/6/6
f 6/6/6 22/22/22 5/5/5
f 22/22/22 23/23/23 5/5/5
f 5/5/5 23/23/23 10/10/10
f 23/23/23 24/24/24 10/10/10
f 10/10/10 24/24/24 11/11/11
f 24/24/24 23/23/23 25/25/25
f 25/25/25 23/23/23 26/26/26
f 23/23/23 22/22/22 26/26/26
f 25/25/25 26/26/26 27/27/27
f 26/26/26 28/28/28 27/27/27
f 27/27/27 28/28/28 29/29/29
f 28/28/28 30/30/30 29/29/29
f 29/29/29 30/30/30 31/31/31
f 30/30/30 32/32/32 31/31/31
f 31/31/31 32/32/32 33/33/33
f 32/32/32 34/34/34 33/33/33
f 33/33/33 34/34/34 35/35/35
f 34/34/34 36/36/36 35/35/35
f 35/35/35 36/36/36 37/37/37
f 36/36/36 38/38/38 37/37/37
f 37/37/37 38/38/38 39/39/39
f 38/38/38 40/40/40 39/39/39
f 39/39/39 40/40/40 41/41/41
f 40/40/40 42/42/42 41/41/41
f 41/41/41 42/42/42 43/43/43
f 42/42/42 44/44/44 43/43/43
f 43/43/43 44/44/44 45/45/45
f 44/44/44 46/46/46 45/45/45
f 45/45/45 46/46/46 47/47/47
f 46/46/46 48/48/48 47/47/47
f 47/47/47 48/48/48 49/49/49
f 48/48/48 50/50/50 49/49/49
f 49/49/49 50/50/50 51/51/51
f 50/50/50 52/52/52 51/51/51
f 51/51/51 52/52/52 53/53/53
f 52/52/52 54/54/54 53/53/53
f 53/53/53 54/54/54 55/55/55
f 54/54/54 56/56/56 55/55/55
f 55/55/55 56/56/56 57/57/57
f 56/56/56 58/58/58 57/57/57
f 58/58/58 59/59/59 57/57/57
f 57/57/57 59/59/59 60/60/60
f 59/59/59 61/61/61 60/60/60
f 60/60/60 61/61/61 62/62/62
f 61/61/61 63/63/63 62/62/62
f 62/62/62 63/63/63 64/64/64
f 63/63/63 65/65/65 64/64/64
f 64/64/64 65/65/65 66/66/66
f 65/65/65 67/67/67 66/66/66
f 66/66/66 67/67/67 68/68/68
f 67/67/67 69/69/69 68/68/68
f 68/68/68 69/69/69 70/70/70
f 70/70/70 69/69/69 71/71/71
f 69/69/69 72/72/72 71/71/71
f 71/71/71 72/72/72 73/73/73
f 72/72/72 69/69/69 74/74/74
f 69/69/69 67/67/67 74/74/74
f 74/74/74 67/67/67 75/75/75
f 67/67/67 65/65/65 75/75/75
f 75/75/75 76/76/76 74/74/74
f 74/74/74 76/76/76 72/72/72
f 76/76/76 77/77/77 72/72/72
f 72/72/72 77/77/77 73/73/73
f 73/73/73 77/77/77 78/78/78
f 77/77/77 79/79/79 78/78/78
f 78/78/78 79/79/79 80/80/80
f 79/79/79 77/77/77 81/81/81
f 77/77/77 76/76/76 81/81/81
f 81/81/81 76/76/76 82/82/82
f 76/76/76 75/75/75 82/82/82
f 82/82/82 75/75/75 83/83/83
f 75/75/75 65/65/65 83/83/83
f 65/65/65 63/63/63 83/83/83
f 83/83/83 63/63/63 84/84/84
f 63/63/63 61/61/61 84/84/84
f 84/84/84 85/85/85 83/83/83
f 83/83/83 85/85/85 82/82/82
f 85/85/85 86/86/86 82/82/82
f 82/82/82 86/86/86 81/81/81
f 86/86/86 87/87/87 81/81/81
f 81/81/81 87/87/87 79/79/79
f 87/87/87 88/88/88 79/79/79
f 79/79/79 88/88/88 80/80/80
f 80/80/80 88/88/88 89/89/89
f 88/88/88 90/90/90 89/89/89
f 89/89/89 90/90/90 91/91/91
f 90/90/90 88/88/88 92/92/92
f 88/88/88 87/87/87 92/92/92
f 92/92/92 87/87/87 93/93/93
f 87/87/87 86/86/86 93/93/93
f 93/93/93 86/86/86 94/94/94
f 86/86/86 85/85/85 94/94/94
f 94/94/94 85/85/85 95/95/95
f 85/85/85 84/84/84 95/95/95
f 95/95/95 84/84/84 96/96/96
f 84/84/84 61/61/61 96/96/96
f 61/61/61 59/59/59 96/96/96
f 96/96/96 59/59/59 97/97/97
f 59/59/59 58/58/58 97/97/97
f 97/97/97 98/98/98 96/96/96
f 96/96/96 98/98/98 95/95/95
f 98/98/98 99/99/99 95/95/95
f 95/95/95 99/99/99 94/94/94
f 99/99/99 100/100/100 94/94/94
f 94/94/94 100/100/100 93/93/93
f 100/100/100 101/101/101 93/93/93
f 93/93/93 101/101/101 92/92/92
f 101/101/101 102/102/102 92/92/92
f 92/92/92 102/102/102 90/90/90
f 102/102/102 103/103/103 90/90/90
f 90/90/90 103/103/103 91/91/91
f 103/103/103 104/104/104 91/91/91
f 91/91/91 104/104/104 105/105/105
f 104/104/104 106/106/106 105/105/105
f 105/105/105 106/106/106 107/107/107
f 107/107/107 106/106/106 108/108/108
f 106/106/106 109/109/109 108/108/108
f 108/108/108 109/109/109 110/110/110
f 109/109/109 106/106/106 111/111/111
f 106/106/106 104/104/104 111/111/111
f 111/111/111 104/104/104 112/112/112
f 104/104/104 103/103/103 112/112/112
f 112/112/112 103/103/103 113/113/113
f 103/103/103 102/102/102 113/113/113
f 113/113/113 102/102/102 114/114/114
f 102/102/102 101/101/101 114/114/114
f 114/114/114 101/101/101 115/115/115
f 101/101/101 100/100/100 115/115/115
f 115/115/115 100/100/100 116/116/116
f 100/100/100 99/99/99 116/116/116
f 116/116/116 99/99/99 117/117/117
f 99/99/99 98/98/98 117/117/117
f 117/117/117 98/98/98 118/118/118
f 98/98/98 97/97/97 118/118/118
f 118/118/118 97/97/97 119/119/119
f 97/97/97 58/58/58 119/119/119
f 119/119/119 58/58/58 120/120/120
f 58/58/58 56/56/56 120/120/120
f 120/120/120 56/56/56 121/121/121
f 56/56/56 54/54/54 121/121/121
f 121/121/121 54/54/54 122/122/122
f 54/54/54 52/52/52 122/122/122
f 122/122/122 52/52/52 123/123/123
f 52/52/52 50/50/50 123/123/123
f 123/123/123 50/50/50 124/124/124
f 50/50/50 48/48/48 124/124/124
f 124/124/124 48/48/48 125/125/125
f 48/48/48 46/46/46 125/125/125
f 125/125/125 46/46/46 126/126/126
f 46/46/46 44/44/44 126/126/126
f 126/126/126 44/44/44 127/127/127
f 44/44/44 42/42/42 127/127/127
f 127/127/127 42/42/42 128/128/128
f 42/42/42 40/40/40 128/128/128
f 128/128/128 40/40/40 129/129/129
f 40/40/40 38/38/38 129/129/129
f 129/129/129 38/38/38 130/130/130
f 38/38/38 36/36/36 130/130/130
f 130/130/130 36/36/36 131/131/131
f 36/36/36 34/34/34 131/131/131
f 131/131/131 34/34/34 132/132/132
f 34/34/34 32/32/32 132/132/132
f 132/132/132 32/32/32 133/133/133
f 32/32/32 30/30/30 133/133/133
f 133/133/133 30/30/30 134/134/134
f 30/30/30 28/28/28 134/134/134
f 134/134/134 28/28/28 135/135/135
f 28/28/28 26/26/26 135/135/135
f 26/26/26 22/22/22 135/135/135
f 22/22/22 21/21/21 135/135/135
f 135/135/135 21/21/21 136/136/136
f 21/21/21 137/137/137 136/136/136
f 136/136/136 137/137/137 131/131/131
f 131/131/131 137/137/137 130/130/130
f 130/130/130 137/137/137 138/138/138
f 138/138/138 137/137/137 20/20/20
f 137/137/137 21/21/21 20/20/20
f 119/119/119 120/120/120 118/118/118
f 133/133/133 134/134/134 132/132/132
f 132/132/132 134/134/134 136/136/136
f 134/134/134 135/135/135 136/136/136
f 131/131/131 132/132/132 136/136/136
f 130/130/130 138/138/138 129/129/129
f 129/129/129 138/138/138 139/139/139
f 138/138/138 19/19/19 139/139/139
f 139/139/139 19/19/19 140/140/140
f 19/19/19 18/18/18 140/140/140
f 138/138/138 20/20/20 19/19/19
f 129/129/129 139/139/139 128/128/128
f 128/128/128 139/139/139 141/141/141
f 139/139/139 140/140/140 141/141/141
f 128/128/128 141/141/141 127/127/127
f 141/141/141 142/142/142 127/127/127
f 127/127/127 142/142/142 126/126/126
f 142/142/142 143/143/143 126/126/126
f 126/126/126 143/143/143 125/125/125
f 143/143/143 144/144/144 125/125/125
f 125/125/125 144/144/144 124/124/124
f 144/144/144 145/145/145 124/124/124
f 124/124/124 145/145/145 123/123/123
f 145/145/145 146/146/146 123/123/123
f 123/123/123 146/146/146 122/122/122
f 146/146/146 147/147/147 122/122/122
f 122/122/122 147/147/147 121/121/121
f 147/147/147 148/148/148 121/121/121
f 121/121/121 148/148/148 120/120/120
f 120/120/120 148/148/148 118/118/118
f 118/118/118 148/148/148 117/117/117
f 148/148/148 149/149/149 117/117/117
f 117/117/117 149/149/149 116/116/116
f 148/148/148 147/147/147 149/149/149
f 149/149/149 147/147/147 150/150/150
f 147/147/147 146/146/146 150/150/150
f 150/150/150 146/146/146 151/151/151
f 146/146/146 145/145/145 151/151/151
f 151/151/151 145/145/145 152/152/152
f 145/145/145 144/144/144 152/152/152
f 152/152/152 144/144/144 153/153/153
f 144/144/144 143/143/143 153/153/153
f 153/153/153 143/143/143 154/154/154
f 143/143/143 142/142/142 154/154/154
f 154/154/154 142/142/142 155/155/155
f 142/142/142 141/141/141 155/155/155
f 141/141/141 140/140/140 155/155/155
f 155/155/155 140/140/140 156/156/156
f 140/140/140 18/18/18 156/156/156
f 18/18/18 17/17/17 156/156/156
f 17/17/17 157/157/157 156/156/156
f 156/156/156 157/157/157 158/158/158
f 157/157/157 159/159/159 158/158/158
f 159/159/159 160/160/160 158/158/158
f 160/160/160 154/154/154 158/158/158
f 154/154/154 155/155/155 158/158/158
f 158/158/158 155/155/155 156/156/156
f 17/17/17 161/161/161 157/157/157
f 161/161/161 162/162/162 157/157/157
f 157/157/157 162/162/162 159/159/159
f 17/17/17 16/16/16 161/161/161
f 161/161/161 16/16/16 163/163/163
f 16/16/16 15/15/15 163/163/163
f 163/163/163 15/15/15 164/164/164
f 15/15/15 13/13/13 164/164/164
f 13/13/13 14/14/14 164/164/164
f 14/14/14 165/165/165 164/164/164
f 164/164/164 165/165/165 166/166/166
f 165/165/165 167/167/167 166/166/166
f 164/164/164 166/166/166 163/163/163
f 166/166/166 168/168/168 163/163/163
f 163/163/163 168/168/168 161/161/161
f 161/161/161 168/168/168 162/162/162
f 168/168/168 169/169/169 162/162/162
f 169/169/169 170/170/170 162/162/162
f 162/162/162 170/170/170 159/159/159
f 170/170/170 171/171/171 159/159/159
f 159/159/159 171/171/171 160/160/160
f 171/171/171 172/172/172 160/160/160
f 172/172/172 173/173/173 160/160/160
f 160/160/160 173/173/173 154/154/154
f 154/154/154 173/173/173 153/153/153
f 173/173/173 174/174/174 153/153/153
f 153/153/153 174/174/174 152/152/152
f 152/152/152 174/174/174 151/151/151
f 174/174/174 175/175/175 151/151/151
f 151/151/151 175/175/175 150/150/150
f 175/175/175 176/176/176 150/150/150
f 150/150/150 176/176/176 149/149/149
f 149/149/149 176/176/176 116/116/116
f 116/116/116 176/176/176 115/115/115
f 176/176/176 177/177/177 115/115/115
f 115/115/115 177/177/177 114/114/114
f 176/176/176 175/175/175 177/177/177
f 177/177/177 175/175/175 178/178/178
f 175/175/175 174/174/174 178/178/178
f 174/174/174 173/173/173 178/178/178
f 173/173/173 172/172/172 178/178/178
f 178/178/178 172/172/172 179/179/179
f 172/172/172 180/180/180 179/179/179
f 180/180/180 113/113/113 179/179/179
f 113/113/113 114/114/114 179/179/179
f 114/114/114 177/177/177 179/179/179
f 179/179/179 177/177/177 178/178/178
f 172/172/172 171/171/171 180/180/180
f 180/180/180 171/171/171 181/181/181
f 171/171/171 170/170/170 181/181/181
f 181/181/181 170/170/170 182/182/182
f 170/170/170 169/169/169 182/182/182
f 182/182/182 169/169/169 183/183/183
f 169/169/169 184/184/184 183/183/183
f 183/183/183 184/184/184 185/185/185
f 185/185/185 184/184/184 167/167/167
f 167/167/167 184/184/184 166/166/166
f 166/166/166 184/184/184 168/168/168
f 184/184/184 169/169/169 168/168/168
f 185/185/185 110/110/110 183/183/183
f 110/110/110 109/109/109 183/183/183
f 183/183/183 109/109/109 182/182/182
f 109/109/109 111/111/111 182/182/182
f 182/182/182 111/111/111 181/181/181
f 111/111/111 112/112/112 181/181/181
f 181/181/181 112/112/112 180/180/180
f 112/112/112 113/113/113 180/180/180
f 186/186/186 187/187/187 188/188/188
f 187/187/187 189/189/189 188/188/188
f 188/188/188 189/189/189 190/190/190
f 189/189/189 191/191/191 190/190/190
f 190/190/190 191/191/191 192/192/192
f 191/191/191 193/193/193 192/192/192
f 192/192/192 193/193/193 194/194/194
f 193/193/193 195/195/195 194/194/194
f 194/194/194 195/195/195 196/196/196
f 195/195/195 197/197/197 196/196/196
f 197/197/197 198/198/198 196/196/196
f 196/196/196 198/198/198 199/199/199
f 198/198/198 200/200/200 199/199/199
f 199/199/199 200/200/200 201/201/201
f 201/201/201 200/200/200 202/202/202
f 200/200/200 203/203/203 202/202/202
f 202/202/202 203/203/203 204/204/204
f 203/203/203 205/205/205 204/204/204
f 204/204/204 205/205/205 206/206/206
f 205/205/205 207/207/207 206/206/206
f 206/206/206 207/207/207 208/208/208
f 207/207/207 209/209/209 208/208/208
f 208/208/208 209/209/209 210/210/210
f 209/209/209 211/211/211 210/210/210
f 210/210/210 211/211/211 212/212/212
f 211/211/211 213/213/213 212/212/212
f 213/213/213 214/214/214 212/212/212
f 212/212/212 214/214/214 215/215/215
f 214/214/214 216/216/216 215/215/215
f 215/215/215 216/216/216 217/217/217
f 216/216/216 218/218/218 217/217/217
f 217/217/217 218/218/218 219/219/219
f 218/218/218 220/220/220 219/219/219
f 219/219/219 220/220/220 221/221/221
f 220/220/220 222/222/222 221/221/221
f 221/221/221 222/222/222 223/223/223
f 222/222/222 224/224/224 223/223/223
f 223/223/223 224/224/224 225/225/225
f 225/225/225 224/224/224 226/226/226
f 224/224/224 227/227/227 226/226/226
f 226/226/226 227/227/227 228/228/228
f 227/227/227 224/224/224 229/229/229
f 224/224/224 222/222/222 229/229/229
f 229/229/229 222/222/222 230/230/230
f 222/222/222 220/220/220 230/230/230
f 230/230/230 220/220/220 231/231/231
f 220/220/220 218/218/218 231/231/231
f 231/231/231 218/218/218 232/232/232
f 218/218/218 216/216/216 232/232/232
f 232/232/232 216/216/216 233/233/233
f 216/216/216 214/214/214 233/233/233
f 233/233/233 214/214/214 234/234/234
f 214/214/214 213/213/213 234/234/234
f 234/234/234 213/213/213 235/235/235
f 235/235/235 213/213/213 236/236/236
f 213/213/213 211/211/211 236/236/236
f 236/236/236 211/211/211 237/237/237
f 211/211/211 209/209/209 237/237/237
f 237/237/237 209/209/209 238/238/238
f 209/209/209 207/207/207 238/238/238
f 238/238/238 207/207/207 239/239/239
f 207/207/207 205/205/205 239/239/239
f 239/239/239 205/205/205 240/240/240
f 205/205/205 203/203/203 240/240/240
f 240/240/240 203/203/203 241/241/241
f 203/203/203 200/200/200 241/241/241
f 200/200/200 198/198/198 241/241/241
f 241/241/241 198/198/198 242/242/242
f 198/198/198 197/197/197 242/242/242
f 242/242/242 243/243/243 241/241/241
f 241/241/241 243/243/243 240/240/240
f 243/243/243 244/244/244 240/240/240
f 240/240/240 244/244/244 239/239/239
f 244/244/244 245/245/245 239/239/239
f 239/239/239 245/245/245 238/238/238
f 245/245/245 246/246/246 238/238/238
f 238/238/238 246/246/246 237/237/237
f 246/246/246 247/247/247 237/237/237
f 237/237/237 247/247/247 236/236/236
f 247/247/247 248/248/248 236/236/236
f 236/236/236 248/248/248 235/235/235
f 235/235/235 248/248/248 234/234/234
f 248/248/248 249/249/249 234/234/234
f 234/234/234 249/249/249 233/233/233
f 249/249/249 248/248/248 250/250/250
f 248/248/248 247/247/247 250/250/250
f 250/250/250 247/247/247 251/251/251
f 247/247/247 246/246/246 251/251/251
f 251/251/251 246/246/246 252/252/252
f 246/246/246 245/245/245 252/252/252
f 252/252/252 245/245/245 253/253/253
f 245/245/245 244/244/244 253/253/253
f 253/253/253 244/244/244 254/254/254
f 244/244/244 243/243/243 254/254/254
f 254/254/254 243/243/243 255/255/255
f 243/243/243 242/242/242 255/255/255
f 255/255/255 242/242/242 256/256/256
f 242/242/242 197/197/197 256/256/256
f 256/256/256 197/197/197 257/257/257
f 197/197/197 195/195/195 257/257/257
f 257/257/257 195/195/195 258/258/258
f 195/195/195 193/193/193 258/258/258
f 258/258/258 193/193/193 259/259/259
f 193/193/193 191/191/191 259/259/259
f 259/259/259 191/191/191 260/260/260
f 191/191/191 189/189/189 260/260/260
f 260/260/260 189/189/189 261/261/261
f 189/189/189 187/187/187 261/261/261
f 261/261/261 187/187/187 262/262/262
f 187/187/187 263/263/263 262/262/262
f 262/262/262 263/263/263 264/264/264
f 263/263/263 265/265/265 264/264/264
f 264/264/264 265/265/265 266/266/266
f 187/187/187 186/186/186 263/263/263
f 186/186/186 267/267/267 263/263/263
f 263/263/263 267/267/267 265/265/265
f 264/264/264 268/268/268 262/262/262
f 262/262/262 268/268/268 261/261/261
f 268/268/268 269/269/269 261/261/261
f 261/261/261 269/269/269 260/260/260
f 269/269/269 270/270/270 260/260/260
f 260/260/260 270/270/270 259/259/259
f 270/270/270 271/271/271 259/259/259
f 259/259/259 271/271/271 258/258/258
f 271/271/271 272/272/272 258/258/258
f 258/258/258 272/272/272 257/257/257
f 272/272/272 273/273/273 257/257/257
f 257/257/257 273/273/273 256/256/256
f 273/273/273 274/274/274 256/256/256
f 256/256/256 274/274/274 255/255/255
f 274/274/274 275/275/275 255/255/255
f 255/255/255 275/275/275 254/254/254
f 275/275/275 276/276/276 254/254/254
f 254/254/254 276/276/276 253/253/253
f 276/276/276 277/277/277 253/253/253
f 253/253/253 277/277/277 252/252/252
f 277/277/277 278/278/278 252/252/252
f 252/252/252 278/278/278 251/251/251
f 278/278/278 279/279/279 251/251/251
f 251/251/251 279/279/279 250/250/250
f 279/279/279 280/280/280 250/250/250
f 250/250/250 280/280/280 249/249/249
f 280/280/280 281/281/281 249/249/249
f 249/249/249 281/281/281 233/233/233
f 233/233/233 281/281/281 232/232/232
f 281/281/281 282/282/282 232/232/232
f 232/232/232 282/282/282 231/231/231
f 282/282/282 281/281/281 283/283/283
f 281/281/281 280/280/280 283/283/283
f 283/283/283 280/280/280 284/284/284
f 280/280/280 279/279/279 284/284/284
f 284/284/284 279/279/279 285/285/285
f 279/279/279 278/278/278 285/285/285
f 285/285/285 278/278/278 286/286/286
f 278/278/278 277/277/277 286/286/286
f 286/286/286 277/277/277 287/287/287
f 277/277/277 276/276/276 287/287/287
f 287/287/287 276/276/276 288/288/288
f 276/276/276 275/275/275 288/288/288
f 288/288/288 275/275/275 289/289/289
f 275/275/275 274/274/274 289/289/289
f 289/289/289 274/274/274 290/290/290
f 274/274/274 273/273/273 290/290/290
f 290/290/290 273/273/273 291/291/291
f 273/273/273 272/272/272 291/291/291
f 291/291/291 272/272/272 292/292/292
f 272/272/272 271/271/271 292/292/292
f 292/292/292 271/271/271 293/293/293
f 271/271/271 270/270/270 293/293/293
f 293/293/293 270/270/270 294/294/294
f 270/270/270 269/269/269 294/294/294
f 294/294/294 269/269/269 295/295/295
f 269/269/269 268/268/268 295/295/295
f 295/295/295 268/268/268 296/296/296
f 268/268/268 264/264/264 296/296/296
f 264/264/264 266/266/266 296/296/296
f 266/266/266 297/297/297 296/296/296
f 296/296/296 297/297/297 298/298/298
f 297/297/297 299/299/299 298/298/298
f 296/296/296 298/298/298 295/295/295
f 298/298/298 300/300/300 295/295/295
f 295/295/295 300/300/300 294/294/294
f 300/300/300 301/301/301 294/294/294
f 294/294/294 301/301/301 293/293/293
f 301/301/301 302/302/302 293/293/293
f 293/293/293 302/302/302 292/292/292
f 302/302/302 303/303/303 292/292/292
f 292/292/292 303/303/303 291/291/291
f 303/303/303 304/304/304 291/291/291
f 291/291/291 304/304/304 290/290/290
f 304/304/304 305/305/305 290/290/290
f 290/290/290 305/305/305 289/289/289
f 305/305/305 306/306/306 289/289/289
f 289/289/289 306/306/306 288/288/288
f 306/306/306 307/307/307 288/288/288
f 288/288/288 307/307/307 287/287/287
f 307/307/307 308/308/308 287/287/287
f 287/287/287 308/308/308 286/286/286
f 308/308/308 309/309/309 286/286/286
f 286/286/286 309/309/309 285/285/285
f 309/309/309 310/310/310 285/285/285
f 285/285/285 310/310/310 284/284/284
f 310/310/310 311/311/311 284/284/284
f 284/284/284 311/311/311 283/283/283
f 311/311/311 312/312/312 283/283/283
f 283/283/283 312/312/312 282/282/282
f 312/312/312 313/313/313 282/282/282
f 282/282/282 313/313/313 231/231/231
f 231/231/231 313/313/313 230/230/230
f 313/313/313 314/314/314 230/230/230
f 230/230/230 314/314/314 229/229/229
f 229/229/229 314/314/314 227/227/227
f 314/314/314 315/315/315 227/227/227
f 227/227/227 315/315/315 228/228/228
f 228/228/228 315/315/315 316/316/316
f 315/315/315 317/317/317 316/316/316
f 316/316/316 317/317/317 318/318/318
f 317/317/317 315/315/315 319/319/319
f 315/315/315 314/314/314 319/319/319
f 314/314/314 313/313/313 319/319/319
f 313/313/313 312/312/312 319/319/319
f 319/319/319 312/312/312 320/320/320
f 312/312/312 311/311/311 320/320/320
f 319/319/319 320/320/320 317/317/317
f 320/320/320 321/321/321 317/317/317
f 317/317/317 321/321/321 318/318/318
f 318/318/318 321/321/321 322/322/322
f 321/321/321 323/323/323 322/322/322
f 322/322/322 323/323/323 324/324/324
f 323/323/323 321/321/321 325/325/325
f 321/321/321 320/320/320 325/325/325
f 320/320/320 311/311/311 325/325/325
f 311/311/311 310/310/310 325/325/325
f 325/325/325 310/310/310 326/326/326
f 310/310/310 309/309/309 326/326/326
f 326/326/326 309/309/309 327/327/327
f 309/309/309 308/308/308 327/327/327
f 327/327/327 308/308/308 328/328/328
f 308/308/308 307/307/307 328/328/328
f 328/328/328 307/307/307 329/329/329
f 307/307/307 306/306/306 329/329/329
f 329/329/329 306/306/306 330/330/330
f 306/306/306 305/305/305 330/330/330
f 330/330/330 305/305/305 331/331/331
f 305/305/305 304/304/304 331/331/331
f 331/331/331 304/304/304 332/332/332
f 304/304/304 303/303/303 332/332/332
f 332/332/332 303/303/303 333/333/333
f 303/303/303 302/302/302 333/333/333
f 333/333/333 302/302/302 334/334/334
f 302/302/302 301/301/301 334/334/334
f 334/334/334 301/301/301 335/335/335
f 301/301/301 300/300/300 335/335/335
f 335/335/335 300/300/300 336/336/336
f 300/300/300 298/298/298 336/336/336
f 298/298/298 299/299/299 336/336/336
f 299/299/299 337/337/337 336/336/336
f 336/336/336 337/337/337 338/338/338
f 337/337/337 339/339/339 338/338/338
f 325/325/325 326/326/326 323/323/323
f 326/326/326 340/340/340 323/323/323
f 323/323/323 340/340/340 324/324/324
f 326/326/326 327/327/327 340/340/340
f 336/336/336 338/338/338 335/335/335
f 338/338/338 341/341/341 335/335/335
f 335/335/335 341/341/341 334/334/334
f 341/341/341 342/342/342 334/334/334
f 334/334/334 342/342/342 333/333/333
f 342/342/342 343/343/343 333/333/333
f 333/333/333 343/343/343 332/332/332
f 343/343/343 344/344/344 332/332/332
f 332/332/332 344/344/344 331/331/331
f 344/344/344 345/345/345 331/331/331
f 331/331/331 345/345/345 330/330/330
f 345/345/345 346/346/346 330/330/330
f 330/330/330 346/346/346 329/329/329
f 346/346/346 347/347/347 329/329/329
f 329/329/329 347/347/347 328/328/328
f 347/347/347 348/348/348 328/328/328
f 328/328/328 348/348/348 327/327/327
f 327/327/327 348/348/348 340/340/340
f 348/348/348 349/349/349 340/340/340
f 340/340/340 349/349/349 324/324/324
f 324/324/324 349/349/349 350/350/350
f 349/349/349 351/351/351 350/350/350
f 350/350/350 351/351/351 352/352/352
f 352/352/352 351/351/351 353/353/353
f 351/351/351 354/354/354 353/353/353
f 353/353/353 354/354/354 355/355/355
f 354/354/354 351/351/351 356/356/356
f 351/351/351 349/349/349 356/356/356
f 349/349/349 348/348/348 356/356/356
f 348/348/348 347/347/347 356/356/356
f 356/356/356 347/347/347 357/357/357
f 347/347/347 346/346/346 357/357/357
f 356/356/356 357/357/357 354/354/354
f 357/357/357 358/358/358 354/354/354
f 354/354/354 358/358/358 355/355/355
f 355/355/355 358/358/358 359/359/359
f 358/358/358 360/360/360 359/359/359
f 359/359/359 360/360/360 361/361/361
f 360/360/360 358/358/358 362/362/362
f 358/358/358 357/357/357 362/362/362
f 357/357/357 346/346/346 362/362/362
f 346/346/346 345/345/345 362/362/362
f 362/362/362 345/345/345 363/363/363
f 345/345/345 344/344/344 363/363/363
f 362/362/362 363/363/363 360/360/360
f 363/363/363 364/364/364 360/360/360
f 360/360/360 364/364/364 361/361/361
f 361/361/361 364/364/364 365/365/365
f 364/364/364 366/366/366 365/365/365
f 365/365/365 366/366/366 339/339/339
f 366/366/366 364/364/364 367/367/367
f 364/364/364 363/363/363 367/367/367
f 363/363/363 344/344/344 367/367/367
f 344/344/344 343/343/343 367/367/367
f 367/367/367 343/343/343 368/368/368
f 343/343/343 342/342/342 368/368/368
f 368/368/368 342/342/342 369/369/369
f 342/342/342 341/341/341 369/369/369
f 369/369/369 341/341/341 370/370/370
f 341/341/341 338/338/338 370/370/370
f 338/338/338 339/339/339 370/370/370
f 339/339/339 366/366/366 370/370/370
f 370/370/370 366/366/366 368/368/368
f 366/366/366 367/367/367 368/368/368
f 368/368/368 369/369/369 370/370/370

