# Exported by Sketchfab Model Ripper robust edition
o model_9
v 10.739752769470215 47.80156326293945 1.3149563074111938
v 10.69113826751709 47.61440658569336 1.4768717288970947
v 11.10214614868164 47.32030487060547 1.2328583002090454
v 11.031435012817383 47.20924377441406 1.3799505233764648
v 11.190535545349121 46.65188980102539 1.2328581809997559
v 10.80604362487793 46.956275939941406 1.5737929344177246
v 10.916529655456543 46.427711486816406 1.3959137201309204
v 10.3817777633667 46.05751419067383 1.4552067518234253
v 10.277920722961426 46.563453674316406 1.7265863418579102
v 10.543087005615234 47.36760711669922 1.690098524093628
v 10.072417259216309 47.0076904296875 1.8930628299713135
v 10.291179656982422 47.58355712890625 1.7664952278137207
v 9.91331672668457 47.357322692871094 1.9557766914367676
v 10.308856964111328 47.83035659790039 1.6319457292556763
v 9.849235534667969 47.64525604248047 1.9056057929992676
v 9.637102127075195 47.84475326538086 1.7379889488220215
v 10.169644355773926 48.22523498535156 1.3993349075317383
v 8.903474807739258 47.88999938964844 1.530463457107544
v 9.17085075378418 48.26430892944336 1.2442609071731567
v 9.763055801391602 48.44735336303711 1.0823453664779663
v 9.234932899475098 48.50288391113281 0.9010456800460815
v 8.333367347717285 48.12445831298828 0.9512166380882263
v 8.616211891174316 48.40005111694336 0.6296660900115967
v 7.8074541091918945 47.82829666137695 0.6570320725440979
v 8.158799171447754 48.08743667602539 0.4837140738964081
v 7.4163336753845215 47.57121658325195 0.9181492328643799
v 7.986441135406494 47.79539108276367 1.221455693244934
v 7.694758415222168 47.51362991333008 1.505378007888794
v 6.981018543243408 47.233924865722656 1.1826872825622559
v 7.657193183898926 47.21952819824219 1.6638727188110352
v 7.031842231750488 47.03648376464844 1.4415239095687866
v 6.839596748352051 46.6827392578125 1.3400416374206543
v 6.746788501739502 46.76706314086914 1.1040098667144775
v 6.8307576179504395 46.117156982421875 1.1541807651519775
v 6.733530044555664 46.19325256347656 0.8828012347221375
v 7.084875583648682 45.576255798339844 0.8360509276390076
v 7.005325794219971 45.578311920166016 0.5042381882667542
v 7.68812894821167 44.98805236816406 0.36284708976745605
v 7.606369495391846 45.01067352294922 0.6490498185157776
v 8.348834991455078 44.64047622680664 0.33092001080513
v 8.240558624267578 44.63842010498047 0.5886165499687195
v 8.989654541015625 44.34843063354492 0.28759047389030457
v 8.881378173828125 44.34225845336914 0.5646712183952332
v 9.555342674255371 44.32786178588867 0.3674079477787018
v 9.561971664428711 44.29290008544922 0.6114214658737183
v 9.984027862548828 44.693946838378906 0.39249351620674133
v 10.114401817321777 44.712459564208984 0.6684340238571167
v 10.470166206359863 45.24924850463867 0.4403841197490692
v 10.596120834350586 45.15052795410156 0.6935195922851562
v 10.485634803771973 45.2348518371582 0.9500758647918701
v 10.032642364501953 44.83585739135742 0.9466550946235657
v 9.46032428741455 44.55615234375 0.8930632472038269
v 8.801828384399414 44.560264587402344 0.8292092680931091
v 8.282544136047363 44.743309020996094 0.7835992574691772
v 7.869326114654541 45.06209182739258 0.902185320854187
v 7.462737560272217 45.5598030090332 1.0857656002044678
v 7.288169860839844 46.07602310180664 1.3195170164108276
v 7.257233619689941 46.56550979614258 1.4871338605880737
v 7.290379524230957 46.85344314575195 1.5578293800354004
v 7.769888877868652 46.92131042480469 1.7186046838760376
v 8.50130558013916 47.211299896240234 1.8850812911987305
v 8.5830659866333 47.525970458984375 1.7334280014038086
v 9.17969036102295 47.54447937011719 1.8531543016433716
v 9.219465255737305 47.328529357910156 1.9717402458190918
v 8.554339408874512 46.92336654663086 1.9113068580627441
v 7.871535778045654 46.53877258300781 1.6866775751113892
v 7.993070602416992 46.032833099365234 1.5236217975616455
v 8.680293083190918 46.54905700683594 1.8463126420974731
v 9.274707794189453 47.04676818847656 1.9728803634643555
v 9.411710739135742 46.686851501464844 1.8919225931167603
v 8.846022605895996 46.053401947021484 1.638787031173706
v 8.176477432250977 45.493988037109375 1.3092546463012695
v 8.476999282836914 44.975711822509766 1.084625244140625
v 9.228303909301758 44.99627685546875 1.1427780389785767
v 9.013960838317871 45.514556884765625 1.3902124166488647
v 9.601746559143066 46.24261474609375 1.6809762716293335
v 9.756426811218262 45.72022247314453 1.4289809465408325
v 9.895639419555664 45.22456741333008 1.179266095161438
v 10.428181648254395 45.576255798339844 1.199790596961975
v 10.88559341430664 45.91354751586914 1.151900291442871
v 10.788366317749023 45.545406341552734 0.9637588858604431
v 10.909900665283203 45.56391525268555 0.7950019240379333
v 11.13750171661377 46.055458068847656 0.9899847507476807
v 11.219261169433594 46.123329162597656 0.8394717574119568
v 11.256826400756836 46.7382698059082 1.081204891204834
v 11.13087272644043 46.773231506347656 0.9352529048919678
v 11.10214614868164 47.32030487060547 1.2328583002090454
v 11.011548042297363 47.32030487060547 1.0458571910858154
v 10.7066068649292 47.79127883911133 1.104009985923767
v 10.739752769470215 47.80156326293945 1.3149563074111938
v 10.286759376525879 48.12445831298828 1.0675221681594849
v 10.169644355773926 48.22523498535156 1.3993349075317383
v 9.82050895690918 48.31778335571289 0.9295518398284912
v 9.763055801391602 48.44735336303711 1.0823453664779663
v 9.327741622924805 48.37742614746094 0.6900993585586548
v 9.234932899475098 48.50288391113281 0.9010456800460815
v 8.804038047790527 48.15736389160156 0.3651280999183655
v 8.616211891174316 48.40005111694336 0.6296660900115967
v 8.158799171447754 48.08743667602539 0.4837140738964081
v 8.216252326965332 47.8488655090332 0.2727678120136261
v 7.716855525970459 47.54859161376953 0.39933550357818604
v 7.8074541091918945 47.82829666137695 0.6570320725440979
v 7.310266971588135 47.39228820800781 0.702642023563385
v 7.4163336753845215 47.57121658325195 0.9181492328643799
v 6.992067337036133 47.102298736572266 0.9284114241600037
v 6.981018543243408 47.233924865722656 1.1826872825622559
v 6.850645065307617 46.76089096069336 0.9249906539916992
v 6.746788501739502 46.76706314086914 1.1040098667144775
v 6.8528547286987305 46.25083923339844 0.6878185272216797
v 6.733530044555664 46.19325256347656 0.8828012347221375
v 7.005325794219971 45.578311920166016 0.5042381882667542
v 7.058358669281006 45.792205810546875 0.39249369502067566
v 7.0119547843933105 46.294029235839844 0.5680923461914062
v 6.945662975311279 46.703304290771484 0.7801789045333862
v 7.07603645324707 46.90485763549805 0.7243066430091858
v 7.358880996704102 47.12903594970703 0.5281836986541748
v 7.635095596313477 47.24009323120117 0.37082919478416443
v 7.893632888793945 46.78145980834961 0.1484803706407547
v 8.07703971862793 46.966556549072266 0.1028704047203064
v 8.370932579040527 47.170166015625 0.07892518490552902
v 8.675873756408691 47.26888656616211 0.15532195568084717
v 9.062575340270996 47.89411163330078 0.44266507029533386
v 9.422759056091309 48.00105667114258 0.6593125462532043
v 9.873541831970215 47.97020721435547 0.8383318185806274
v 10.280130386352539 47.82829666137695 0.9466555714607239
v 10.593911170959473 47.64525604248047 1.0093692541122437
v 10.777318000793457 47.258602142333984 0.9945459365844727
v 10.896642684936523 46.76911926269531 0.8930636048316956
v 10.896642684936523 46.331050872802734 0.7619348168373108
v 11.071209907531738 46.217933654785156 0.7459712624549866
v 10.938627243041992 45.65646743774414 0.6365072131156921
v 10.812673568725586 45.808658599853516 0.5806349515914917
v 10.666831970214844 46.08219528198242 0.6661537885665894
v 10.57623291015625 46.66628646850586 0.8360511064529419
v 10.432600975036621 47.295623779296875 0.9284114241600037
v 9.986237525939941 47.31618881225586 0.8041241765022278
v 9.447066307067871 47.28739547729492 0.5863364338874817
v 8.978605270385742 47.24626541137695 0.30469468235969543
v 9.57522964477539 46.43593978881836 0.48713457584381104
v 10.143128395080566 46.53877258300781 0.7220260500907898
v 10.315485954284668 45.853904724121094 0.5122199654579163
v 10.425971984863281 45.51250076293945 0.4073169231414795
v 9.831557273864746 45.738731384277344 0.24654169380664825
v 9.104559898376465 46.3968620300293 0.1461998075246811
v 8.830554008483887 46.32693862915039 -0.060185451060533524
v 8.525612831115723 46.29814529418945 -0.15254570543766022
v 8.218461990356445 46.27140808105469 -0.1445639580488205
v 8.032845497131348 46.3022575378418 -0.06930746138095856
v 7.825131893157959 45.971134185791016 -0.0932527631521225
v 7.63067626953125 46.524375915527344 0.2339990884065628
v 7.277121067047119 46.35984420776367 0.40617677569389343
v 7.146747589111328 45.92794418334961 0.36056673526763916
v 8.006328582763672 45.666748046875 -0.3041990399360657
v 7.447269439697266 45.86007308959961 0.11997397243976593
v 8.607372283935547 45.58036804199219 -0.3612115681171417
v 9.237142562866211 45.483707427978516 -0.2152595967054367
v 9.405081748962402 45.786033630371094 0.0013879595790058374
v 9.864703178405762 45.352081298828125 0.13023613393306732
v 9.776314735412598 45.060035705566406 0.08690658956766129
v 9.39403247833252 44.64253234863281 0.0994492694735527
v 9.984027862548828 44.693946838378906 0.39249351620674133
v 8.989654541015625 44.34843063354492 0.28759047389030457
v 9.555342674255371 44.32786178588867 0.3674079477787018
v 9.139915466308594 45.105281829833984 -0.1764911562204361
v 8.503515243530273 45.253360748291016 -0.29165637493133545
v 7.9952802658081055 45.368534088134766 -0.27227210998535156
v 8.348834991455078 44.64047622680664 0.33092001080513
v 8.73995590209961 44.8420295715332 0.051558803766965866
v 7.68812894821167 44.98805236816406 0.36284708976745605
v 7.56659460067749 45.368534088134766 0.033314891159534454
v 7.478205680847168 45.60093688964844 0.026473430916666985
v 8.101346969604492 45.101165771484375 0.044717345386743546
vn 0.7009554505348206 0.6636219024658203 0.2612802982330322
vn 0.5902943015098572 0.38506555557250977 0.7094202637672424
vn 0.9051995873451233 0.41018372774124146 0.11118916422128677
vn 0.7194912433624268 0.1644953042268753 0.67473965883255
vn 0.8019059896469116 -0.11270063370466232 0.5867242813110352
vn 0.5225238800048828 -0.06752695143222809 0.8499464392662048
vn 0.536688506603241 -0.29607918858528137 0.7901281714439392
vn 0.28380048274993896 -0.3938210606575012 0.8742781281471252
vn 0.2798900604248047 -0.2958538830280304 0.9133082628250122
vn 0.48210427165031433 0.14833419024944305 0.8634653687477112
vn 0.25389763712882996 -0.13717754185199738 0.9574540853500366
vn 0.41194528341293335 0.26392683386802673 0.8721489310264587
vn 0.19721288979053497 0.051873233169317245 0.9789873361587524
vn 0.37152814865112305 0.4831528663635254 0.7927989363670349
vn 0.0969695895910263 0.42002126574516296 0.9023186564445496
vn -0.0545683354139328 0.610507607460022 0.7901283502578735
vn 0.33360859751701355 0.8657481074333191 0.3730757534503937
vn -0.22417901456356049 0.687513530254364 0.6907017230987549
vn -0.19419044256210327 0.7781622409820557 0.5972884893417358
vn 0.2972789704799652 0.9442430138587952 0.14152859151363373
vn -0.015102335251867771 0.9998263120651245 0.010923424735665321
vn -0.44497308135032654 0.8159806728363037 0.3690182566642761
vn -0.2828100621700287 0.9436765313148499 -0.1717352569103241
vn -0.6027413010597229 0.7731084227561951 -0.19750016927719116
vn -0.5436473488807678 0.7456974983215332 -0.38520488142967224
vn -0.616540789604187 0.7869561910629272 -0.024029212072491646
vn -0.3881067931652069 0.8028085231781006 0.4526274800300598
vn -0.36061200499534607 0.6799085736274719 0.6385008096694946
vn -0.7619603276252747 0.620746910572052 0.18463380634784698
vn -0.3615531623363495 0.3295991122722626 0.8721489310264587
vn -0.6208170652389526 0.2428818643093109 0.7453821897506714
vn -0.726141095161438 -0.0037707898300141096 0.6875353455543518
vn -0.9650846719741821 0.2611992359161377 0.019661039113998413
vn -0.7134326100349426 -0.39376187324523926 0.5796253681182861
vn -0.9807956218719482 -0.15037551522254944 -0.12420608848333359
vn -0.687679648399353 -0.6076798439025879 0.3972680866718292
vn -0.8340524435043335 -0.4662802815437317 -0.29485467076301575
vn -0.5259527564048767 -0.7701542973518372 -0.3608822524547577
vn -0.5640915632247925 -0.7712726593017578 0.29485446214675903
vn -0.3708869516849518 -0.7881748080253601 -0.49114495515823364
vn -0.44190239906311035 -0.876008152961731 0.19321493804454803
vn -0.16142182052135468 -0.8333024978637695 -0.5287248492240906
vn -0.2591628432273865 -0.94169020652771 0.21460241079330444
vn 0.2642352879047394 -0.8474723100662231 -0.4604024887084961
vn 0.2881367802619934 -0.9258835315704346 0.24437052011489868
vn 0.5888437032699585 -0.5915152430534363 -0.550792932510376
vn 0.637680172920227 -0.7615882754325867 0.11553019285202026
vn 0.5881137251853943 -0.3591778576374054 -0.7246471643447876
vn 0.7229284048080444 -0.6908918619155884 0.006553927902132273
vn 0.5119801163673401 -0.5746245384216309 0.6385005712509155
vn 0.3622596561908722 -0.5972883701324463 0.7155519127845764
vn 0.11430492997169495 -0.6434347629547119 0.7569187879562378
vn -0.17914588749408722 -0.6880178451538086 0.703234076499939
vn -0.3598969876766205 -0.7138131856918335 0.6007869243621826
vn -0.37413620948791504 -0.6429969668388367 0.6682641506195068
vn -0.3771596848964691 -0.5377265214920044 0.7540562152862549
vn -0.3487532138824463 -0.4192076623439789 0.8382339477539062
vn -0.34115520119667053 -0.23671241104602814 0.90971440076828
vn -0.3472723364830017 -0.04872171953320503 0.9364978075027466
vn -0.2717081308364868 -0.048544902354478836 0.961154580116272
vn -0.20609334111213684 0.24723678827285767 0.9467837810516357
vn -0.22100599110126495 0.5827447772026062 0.7820261716842651
vn -0.17393219470977783 0.5206854939460754 0.8358433842658997
vn -0.11817526817321777 0.24477404356002808 0.9623514413833618
vn -0.15614767372608185 -0.08584307134151459 0.9839963912963867
vn -0.23662544786930084 -0.2751699388027191 0.9318207502365112
vn -0.20995338261127472 -0.3987863063812256 0.8926864266395569
vn -0.08340532332658768 -0.29798007011413574 0.950921356678009
vn -0.0018595322035253048 -0.06982874125242233 0.9975572824478149
vn 0.06159388646483421 -0.28193601965904236 0.9574540257453918
vn -0.030077829957008362 -0.4061567485332489 0.9133082628250122
vn -0.19418711960315704 -0.4614351987838745 0.8656610250473022
vn -0.18856270611286163 -0.5462120771408081 0.8161473274230957
vn 0.016939448192715645 -0.4659028649330139 0.8846737146377563
vn -0.005648934282362461 -0.4231306314468384 0.9060510993003845
vn 0.10419677942991257 -0.39371439814567566 0.9133082628250122
vn 0.12989357113838196 -0.41927871108055115 0.8985171318054199
vn 0.19381946325302124 -0.440877765417099 0.876390814781189
vn 0.33662891387939453 -0.44282791018486023 0.831014096736908
vn 0.5544476509094238 -0.44009119272232056 0.7063338756561279
vn 0.597596287727356 -0.5309743285179138 0.6007869839668274
vn 0.8099226951599121 -0.5669859647750854 0.15017366409301758
vn 0.8182061314582825 -0.40779030323028564 0.4052724540233612
vn 0.9296793341636658 -0.15030328929424286 -0.3363112807273865
vn 0.9879775047302246 0.1429162621498108 -0.05895256623625755
vn 0.5137037634849548 0.24858632683753967 -0.8211658000946045
vn 0.9051995873451233 0.41018372774124146 0.11118916422128677
vn 0.5756212472915649 0.4172791540622711 -0.7032341361045837
vn 0.5601429343223572 0.6055419445037842 -0.5652953386306763
vn 0.7009554505348206 0.6636219024658203 0.2612802982330322
vn 0.5033388137817383 0.665790855884552 -0.5507926940917969
vn 0.33360859751701355 0.8657481074333191 0.3730757534503937
vn 0.41695457696914673 0.6265661716461182 -0.6584555506706238
vn 0.2972789704799652 0.9442430138587952 0.14152859151363373
vn 0.2798251807689667 0.5978526473045349 -0.7511790990829468
vn -0.015102335251867771 0.9998263120651245 0.010923424735665321
vn 0.11044356226921082 0.4766117334365845 -0.8721488118171692
vn -0.2828100621700287 0.9436765313148499 -0.1717352569103241
vn -0.5436473488807678 0.7456974983215332 -0.38520488142967224
vn -0.2708107531070709 0.43885141611099243 -0.8567794561386108
vn -0.518684983253479 0.4439921975135803 -0.7306413650512695
vn -0.6027413010597229 0.7731084227561951 -0.19750016927719116
vn -0.6814143061637878 0.5137452483177185 -0.521287202835083
vn -0.616540789604187 0.7869561910629272 -0.024029212072491646
vn -0.7551257014274597 0.462852418422699 -0.46427661180496216
vn -0.7619603276252747 0.620746910572052 0.18463380634784698
vn -0.7915122509002686 0.3309195339679718 -0.513809859752655
vn -0.9650846719741821 0.2611992359161377 0.019661039113998413
vn -0.7810601592063904 0.1279163807630539 -0.6112139225006104
vn -0.9807956218719482 -0.15037551522254944 -0.12420608848333359
vn -0.8340524435043335 -0.4662802815437317 -0.29485467076301575
vn -0.7406500577926636 0.02267102524638176 -0.6715083718299866
vn -0.6171227097511292 0.24336174130439758 -0.7482877373695374
vn -0.6703444719314575 0.28687146306037903 -0.6843559145927429
vn -0.6600330471992493 0.27237287163734436 -0.7001209855079651
vn -0.601601243019104 0.2466372698545456 -0.7597670555114746
vn -0.5051460266113281 0.22407759726047516 -0.8334366679191589
vn -0.4384470283985138 0.2255200892686844 -0.870002806186676
vn -0.3022315502166748 0.22893165051937103 -0.9253358244895935
vn -0.05439188331365585 0.25771111249923706 -0.9646898508071899
vn 0.2946609556674957 0.21875619888305664 -0.9302260875701904
vn 0.46201634407043457 0.14892469346523285 -0.87427818775177
vn 0.44100072979927063 0.16274423897266388 -0.882628321647644
vn 0.3570381700992584 0.19593796133995056 -0.9133082628250122
vn 0.3282639980316162 0.22729070484638214 -0.9168323874473572
vn 0.28414517641067505 0.2055077999830246 -0.9364977478981018
vn 0.1876688450574875 0.2023916244506836 -0.9611545205116272
vn 0.1310151219367981 0.25713178515434265 -0.9574540257453918
vn 0.09674464166164398 0.302643746137619 -0.9481810331344604
vn 0.3881079852581024 0.1964799463748932 -0.90042644739151
vn 0.7622101306915283 -0.29528167843818665 -0.5760594010353088
vn 0.30174520611763 0.15311014652252197 -0.9410139322280884
vn 0.12561312317848206 0.3230137526988983 -0.9380210041999817
vn 0.1624554991722107 0.24355779588222504 -0.9561839699745178
vn 0.22678452730178833 0.14982867240905762 -0.962351381778717
vn 0.31586238741874695 0.13236695528030396 -0.9395264387130737
vn 0.441847562789917 0.14873822033405304 -0.8846737742424011
vn 0.4920298755168915 0.17774413526058197 -0.8522403836250305
vn 0.43409961462020874 0.29857781529426575 -0.8499463796615601
vn 0.2753497064113617 0.26064565777778625 -0.9253358244895935
vn 0.2576417028903961 0.3456037640571594 -0.90231853723526
vn 0.34937629103660583 0.14727459847927094 -0.9253358840942383
vn 0.4223376214504242 0.3675503134727478 -0.8285757303237915
vn 0.49692076444625854 0.31526607275009155 -0.8085029721260071
vn 0.34257182478904724 0.31048914790153503 -0.8867023587226868
vn 0.06736896932125092 0.2806120812892914 -0.9574540257453918
vn -0.22062115371227264 0.2619473338127136 -0.939526379108429
vn -0.4142087399959564 0.287852019071579 -0.8634653091430664
vn -0.4676765203475952 0.28747984766960144 -0.8358432650566101
vn -0.5114040374755859 0.24507981538772583 -0.8236514925956726
vn -0.5665308237075806 0.2428521364927292 -0.7874424457550049
vn -0.5847405791282654 0.22533798217773438 -0.7792953252792358
vn -0.33053749799728394 0.10421822965145111 -0.9380210638046265
vn -0.5554491281509399 0.2423401027917862 -0.7954543232917786
vn 0.09385910630226135 0.07101976871490479 -0.9930492043495178
vn 0.3241729736328125 0.09697804600000381 -0.9410139322280884
vn 0.48267221450805664 0.3721526563167572 -0.7927988171577454
vn 0.4304710626602173 0.11958754807710648 -0.8946471214294434
vn 0.40323343873023987 -0.29670464992523193 -0.8656611442565918
vn 0.17798873782157898 -0.5037570595741272 -0.845309853553772
vn 0.5888437032699585 -0.5915152430534363 -0.550792932510376
vn -0.16142182052135468 -0.8333024978637695 -0.5287248492240906
vn 0.2642352879047394 -0.8474723100662231 -0.4604024887084961
vn 0.14226703345775604 -0.36446210741996765 -0.9202865958213806
vn -0.10670378059148788 -0.4578006863594055 -0.8826283812522888
vn -0.2828209400177002 -0.44452589750289917 -0.8499464988708496
vn -0.3708869516849518 -0.7881748080253601 -0.49114495515823364
vn -0.13119260966777802 -0.5844966173171997 -0.8007198572158813
vn -0.5259527564048767 -0.7701542973518372 -0.3608822524547577
vn -0.5601170659065247 -0.4573838710784912 -0.6907016634941101
vn -0.6328914165496826 -0.02642509900033474 -0.7737894654273987
vn -0.31706953048706055 -0.6951125264167786 -0.6452019214630127
vt 0.2078101933002472 0.43017783761024475
vt 0.20324380695819855 0.43108856678009033
vt 0.2007422298192978 0.42107027769088745
vt 0.19788327813148499 0.4233471751213074
vt 0.18918728828430176 0.41833803057670593
vt 0.19260214269161224 0.4271419644355774
vt 0.1852165162563324 0.42281588912010193
vt 0.17779117822647095 0.4285840094089508
vt 0.1846209019422531 0.4334413707256317
vt 0.19756561517715454 0.43336546421051025
vt 0.18982261419296265 0.43890589475631714
vt 0.1993524581193924 0.4383746087551117
vt 0.1937139630317688 0.4430042803287506
vt 0.20399825274944305 0.43913358449935913
vt 0.19744649529457092 0.44528117775917053
vt 0.20026573538780212 0.44968315958976746
vt 0.21162213385105133 0.44338375329971313
vt 0.19776415824890137 0.46182653307914734
vt 0.20701605081558228 0.4612193703651428
vt 0.21535466611385345 0.4532502591609955
vt 0.2142031341791153 0.46372395753860474
vt 0.20109960436820984 0.4760950207710266
vt 0.21058973670005798 0.4760950207710266
vt 0.19546110928058624 0.4873276650905609
vt 0.20411738753318787 0.4849748909473419
vt 0.1851768046617508 0.4881625175476074
vt 0.19137121737003326 0.4772334694862366
vt 0.18299289047718048 0.47685399651527405
vt 0.17334391176700592 0.4880107343196869
vt 0.1781088411808014 0.4742735028266907
vt 0.17076291143894196 0.48262208700180054
vt 0.1639728993177414 0.48284977674484253
vt 0.16301991045475006 0.48785895109176636
vt 0.1548798382282257 0.47943446040153503
vt 0.15186205506324768 0.4839123487472534
vt 0.14574706554412842 0.4725278913974762
vt 0.1400291621685028 0.4752601683139801
vt 0.13443036377429962 0.4591701626777649
vt 0.13983061909675598 0.46008092164993286
vt 0.13407300412654877 0.44505348801612854
vt 0.13871879875659943 0.447254478931427
vt 0.13617751002311707 0.43184754252433777
vt 0.14042623341083527 0.4353387653827667
vt 0.14261016249656677 0.42319536209106445
vt 0.14574706554412842 0.4258517324924469
vt 0.15067081153392792 0.41651651263237
vt 0.15519750118255615 0.4198559522628784
vt 0.1633772850036621 0.4108242988586426
vt 0.16512441635131836 0.41598522663116455
vt 0.16639506816864014 0.4203872084617615
vt 0.15801674127578735 0.4241820275783539
vt 0.15023402869701385 0.4301019310951233
vt 0.1449529081583023 0.43890589475631714
vt 0.14264985918998718 0.447709858417511
vt 0.1449131965637207 0.4564379155635834
vt 0.15031345188617706 0.4661526381969452
vt 0.15797702968120575 0.47214841842651367
vt 0.16556119918823242 0.4756396412849426
vt 0.17016729712486267 0.47708168625831604
vt 0.17473368346691132 0.4704028069972992
vt 0.1837870329618454 0.46182653307914734
vt 0.18930640816688538 0.4633444547653198
vt 0.19288010895252228 0.454540491104126
vt 0.18970349431037903 0.452415406703949
vt 0.18013393878936768 0.45924606919288635
vt 0.16992905735969543 0.46645620465278625
vt 0.16298019886016846 0.4615229666233063
vt 0.17560724914073944 0.45522356033325195
vt 0.1860503852367401 0.45006263256073
vt 0.18184135854244232 0.44611603021621704
vt 0.16913489997386932 0.44975903630256653
vt 0.15575340390205383 0.45522356033325195
vt 0.14963841438293457 0.4471026659011841
vt 0.155475452542305 0.43678078055381775
vt 0.1619478017091751 0.4436114430427551
vt 0.17636169493198395 0.44057559967041016
vt 0.1695716828107834 0.43488338589668274
vt 0.16309933364391327 0.4292670786380768
vt 0.1711599975824356 0.42448562383651733
vt 0.17779117822647095 0.4203113317489624
vt 0.17231151461601257 0.4185657203197479
vt 0.17282772064208984 0.41575753688812256
vt 0.18017363548278809 0.416744202375412
vt 0.1809280812740326 0.41446730494499207
vt 0.19073589146137238 0.4153021574020386
vt 0.1901005655527115 0.41196274757385254
vt 0.200901061296463 0.4108242988586426
vt 0.19883625209331512 0.4077884554862976
vt 0.20522919297218323 0.4005783200263977
vt 0.20848523080348969 0.40277931094169617
vt 0.2085249423980713 0.3919261395931244
vt 0.21515612304210663 0.39139485359191895
vt 0.20872347056865692 0.3825909197330475
vt 0.21233688294887543 0.3813006579875946
vt 0.20530861616134644 0.3734833598136902
vt 0.20947791635990143 0.3713582754135132
vt 0.1972082406282425 0.36589375138282776
vt 0.20244966447353363 0.36103639006614685
vt 0.19363455474376678 0.35488879680633545
vt 0.1888696253299713 0.35830411314964294
vt 0.18136486411094666 0.3511698842048645
vt 0.18779751658439636 0.34813404083251953
vt 0.1766793578863144 0.34304898977279663
vt 0.18144428730010986 0.3403167128562927
vt 0.17012758553028107 0.3374326825141907
vt 0.17278800904750824 0.33280301094055176
vt 0.1634169965982437 0.3371290862560272
vt 0.16294050216674805 0.3333342671394348
vt 0.1548798382282257 0.3425177037715912
vt 0.15285474061965942 0.33872291445732117
vt 0.14443671703338623 0.35003143548965454
vt 0.14892368018627167 0.35086628794670105
vt 0.15662696957588196 0.3457053601741791
vt 0.16301991045475006 0.34046852588653564
vt 0.16718922555446625 0.3418346345424652
vt 0.1724703460931778 0.3467679023742676
vt 0.17576608061790466 0.351549357175827
vt 0.169690802693367 0.3592148721218109
vt 0.17358216643333435 0.3613399565219879
vt 0.17846621572971344 0.36490708589553833
vt 0.18211930990219116 0.3691572844982147
vt 0.1951434463262558 0.37188953161239624
vt 0.19990836083889008 0.3775058686733246
vt 0.2028467357158661 0.38539907336235046
vt 0.20312468707561493 0.39306458830833435
vt 0.20193345844745636 0.3992880582809448
vt 0.1966126263141632 0.4042213261127472
vt 0.18910786509513855 0.40816792845726013
vt 0.182317852973938 0.40938225388526917
vt 0.18132516741752625 0.41196274757385254
vt 0.17362186312675476 0.4133288562297821
vt 0.17449544370174408 0.4105966091156006
vt 0.17767205834388733 0.4071812629699707
vt 0.18612979352474213 0.4035382568836212
vt 0.19538168609142303 0.39837732911109924
vt 0.1930389404296875 0.3910912871360779
vt 0.1888299137353897 0.3823632299900055
vt 0.18422383069992065 0.3744700253009796
vt 0.17656023800373077 0.38926976919174194
vt 0.18192078173160553 0.39754244685173035
vt 0.17191444337368011 0.4035382568836212
vt 0.16699068248271942 0.40748485922813416
vt 0.1661171168088913 0.3963281214237213
vt 0.17163647711277008 0.38137656450271606
vt 0.16802307963371277 0.3770504891872406
vt 0.1654817909002304 0.3725726008415222
vt 0.1632978618144989 0.3681706190109253
vt 0.16282136738300323 0.3649829924106598
vt 0.15666668117046356 0.3639204502105713
vt 0.16413173079490662 0.35595133900642395
vt 0.15940651297569275 0.3504868149757385
vt 0.15170322358608246 0.351549357175827
vt 0.1533709466457367 0.36908137798309326
vt 0.1527356207370758 0.3580005466938019
vt 0.15515778958797455 0.3776576519012451
vt 0.15714317560195923 0.38737237453460693
vt 0.1633375734090805 0.38881438970565796
vt 0.1597638875246048 0.3989085853099823
vt 0.15440334379673004 0.39943987131118774
vt 0.1448337882757187 0.3964040279388428
vt 0.14967812597751617 0.40771254897117615
vt 0.13554218411445618 0.39283689856529236
vt 0.13987033069133759 0.40300697088241577
vt 0.15090906620025635 0.3882831335067749
vt 0.149876669049263 0.37796124815940857
vt 0.1492413431406021 0.37037160992622375
vt 0.13458919525146484 0.37925148010253906
vt 0.1427689790725708 0.38441240787506104
vt 0.13689224421977997 0.36505889892578125
vt 0.14590589702129364 0.3630855977535248
vt 0.1491222232580185 0.3606569170951843
vt 0.14300723373889923 0.3725726008415222
s on
f 1/1/1 2/2/2 3/3/3
f 2/2/2 4/4/4 3/3/3
f 3/3/3 4/4/4 5/5/5
f 4/4/4 6/6/6 5/5/5
f 5/5/5 6/6/6 7/7/7
f 7/7/7 6/6/6 8/8/8
f 8/8/8 6/6/6 9/9/9
f 6/6/6 10/10/10 9/9/9
f 9/9/9 10/10/10 11/11/11
f 10/10/10 12/12/12 11/11/11
f 11/11/11 12/12/12 13/13/13
f 12/12/12 14/14/14 13/13/13
f 13/13/13 14/14/14 15/15/15
f 15/15/15 14/14/14 16/16/16
f 14/14/14 17/17/17 16/16/16
f 16/16/16 17/17/17 18/18/18
f 18/18/18 17/17/17 19/19/19
f 17/17/17 20/20/20 19/19/19
f 20/20/20 21/21/21 19/19/19
f 19/19/19 21/21/21 22/22/22
f 21/21/21 23/23/23 22/22/22
f 22/22/22 23/23/23 24/24/24
f 23/23/23 25/25/25 24/24/24
f 17/17/17 14/14/14 1/1/1
f 1/1/1 14/14/14 2/2/2
f 14/14/14 12/12/12 2/2/2
f 12/12/12 10/10/10 2/2/2
f 2/2/2 10/10/10 4/4/4
f 10/10/10 6/6/6 4/4/4
f 24/24/24 26/26/26 22/22/22
f 26/26/26 27/27/27 22/22/22
f 22/22/22 27/27/27 19/19/19
f 19/19/19 27/27/27 18/18/18
f 18/18/18 27/27/27 28/28/28
f 27/27/27 29/29/29 28/28/28
f 28/28/28 29/29/29 30/30/30
f 30/30/30 29/29/29 31/31/31
f 31/31/31 29/29/29 32/32/32
f 29/29/29 33/33/33 32/32/32
f 32/32/32 33/33/33 34/34/34
f 33/33/33 35/35/35 34/34/34
f 34/34/34 35/35/35 36/36/36
f 35/35/35 37/37/37 36/36/36
f 37/37/37 38/38/38 36/36/36
f 36/36/36 38/38/38 39/39/39
f 38/38/38 40/40/40 39/39/39
f 39/39/39 40/40/40 41/41/41
f 40/40/40 42/42/42 41/41/41
f 41/41/41 42/42/42 43/43/43
f 42/42/42 44/44/44 43/43/43
f 43/43/43 44/44/44 45/45/45
f 44/44/44 46/46/46 45/45/45
f 45/45/45 46/46/46 47/47/47
f 46/46/46 48/48/48 47/47/47
f 48/48/48 49/49/49 47/47/47
f 49/49/49 50/50/50 47/47/47
f 50/50/50 51/51/51 47/47/47
f 47/47/47 51/51/51 45/45/45
f 51/51/51 52/52/52 45/45/45
f 45/45/45 52/52/52 43/43/43
f 52/52/52 53/53/53 43/43/43
f 43/43/43 53/53/53 41/41/41
f 53/53/53 54/54/54 41/41/41
f 41/41/41 54/54/54 39/39/39
f 54/54/54 55/55/55 39/39/39
f 39/39/39 55/55/55 36/36/36
f 55/55/55 56/56/56 36/36/36
f 36/36/36 56/56/56 34/34/34
f 56/56/56 57/57/57 34/34/34
f 34/34/34 57/57/57 32/32/32
f 57/57/57 58/58/58 32/32/32
f 32/32/32 58/58/58 31/31/31
f 58/58/58 59/59/59 31/31/31
f 31/31/31 59/59/59 30/30/30
f 59/59/59 60/60/60 30/30/30
f 60/60/60 61/61/61 30/30/30
f 30/30/30 61/61/61 28/28/28
f 61/61/61 62/62/62 28/28/28
f 28/28/28 62/62/62 18/18/18
f 18/18/18 62/62/62 16/16/16
f 62/62/62 63/63/63 16/16/16
f 16/16/16 63/63/63 15/15/15
f 15/15/15 63/63/63 64/64/64
f 63/63/63 62/62/62 64/64/64
f 62/62/62 61/61/61 64/64/64
f 64/64/64 61/61/61 65/65/65
f 61/61/61 60/60/60 65/65/65
f 65/65/65 60/60/60 66/66/66
f 60/60/60 58/58/58 66/66/66
f 58/58/58 57/57/57 66/66/66
f 66/66/66 57/57/57 67/67/67
f 57/57/57 56/56/56 67/67/67
f 27/27/27 26/26/26 29/29/29
f 60/60/60 59/59/59 58/58/58
f 67/67/67 68/68/68 66/66/66
f 66/66/66 68/68/68 65/65/65
f 68/68/68 69/69/69 65/65/65
f 65/65/65 69/69/69 64/64/64
f 64/64/64 69/69/69 15/15/15
f 15/15/15 69/69/69 13/13/13
f 69/69/69 70/70/70 13/13/13
f 13/13/13 70/70/70 11/11/11
f 69/69/69 68/68/68 70/70/70
f 70/70/70 68/68/68 71/71/71
f 68/68/68 67/67/67 71/71/71
f 71/71/71 67/67/67 72/72/72
f 67/67/67 56/56/56 72/72/72
f 56/56/56 55/55/55 72/72/72
f 72/72/72 55/55/55 73/73/73
f 55/55/55 54/54/54 73/73/73
f 54/54/54 53/53/53 73/73/73
f 73/73/73 53/53/53 74/74/74
f 53/53/53 52/52/52 74/74/74
f 74/74/74 75/75/75 73/73/73
f 73/73/73 75/75/75 72/72/72
f 72/72/72 75/75/75 71/71/71
f 75/75/75 76/76/76 71/71/71
f 71/71/71 76/76/76 70/70/70
f 70/70/70 76/76/76 11/11/11
f 11/11/11 76/76/76 9/9/9
f 9/9/9 76/76/76 77/77/77
f 76/76/76 75/75/75 77/77/77
f 75/75/75 74/74/74 77/77/77
f 77/77/77 74/74/74 78/78/78
f 74/74/74 52/52/52 78/78/78
f 52/52/52 51/51/51 78/78/78
f 78/78/78 51/51/51 79/79/79
f 51/51/51 50/50/50 79/79/79
f 79/79/79 50/50/50 80/80/80
f 80/80/80 50/50/50 81/81/81
f 50/50/50 49/49/49 81/81/81
f 81/81/81 49/49/49 82/82/82
f 49/49/49 48/48/48 82/82/82
f 9/9/9 77/77/77 8/8/8
f 77/77/77 78/78/78 8/8/8
f 78/78/78 79/79/79 8/8/8
f 8/8/8 79/79/79 7/7/7
f 79/79/79 80/80/80 7/7/7
f 7/7/7 80/80/80 83/83/83
f 83/83/83 80/80/80 82/82/82
f 80/80/80 81/81/81 82/82/82
f 7/7/7 83/83/83 5/5/5
f 83/83/83 84/84/84 5/5/5
f 5/5/5 84/84/84 85/85/85
f 84/84/84 86/86/86 85/85/85
f 85/85/85 86/86/86 87/87/87
f 86/86/86 88/88/88 87/87/87
f 88/88/88 89/89/89 87/87/87
f 87/87/87 89/89/89 90/90/90
f 89/89/89 91/91/91 90/90/90
f 90/90/90 91/91/91 92/92/92
f 91/91/91 93/93/93 92/92/92
f 92/92/92 93/93/93 94/94/94
f 93/93/93 95/95/95 94/94/94
f 94/94/94 95/95/95 96/96/96
f 95/95/95 97/97/97 96/96/96
f 96/96/96 97/97/97 98/98/98
f 98/98/98 97/97/97 99/99/99
f 97/97/97 100/100/100 99/99/99
f 100/100/100 101/101/101 99/99/99
f 99/99/99 101/101/101 102/102/102
f 101/101/101 103/103/103 102/102/102
f 102/102/102 103/103/103 104/104/104
f 103/103/103 105/105/105 104/104/104
f 104/104/104 105/105/105 106/106/106
f 105/105/105 107/107/107 106/106/106
f 106/106/106 107/107/107 108/108/108
f 107/107/107 109/109/109 108/108/108
f 108/108/108 109/109/109 110/110/110
f 110/110/110 109/109/109 111/111/111
f 111/111/111 109/109/109 112/112/112
f 112/112/112 109/109/109 113/113/113
f 109/109/109 114/114/114 113/113/113
f 113/113/113 114/114/114 115/115/115
f 114/114/114 107/107/107 115/115/115
f 107/107/107 105/105/105 115/115/115
f 115/115/115 105/105/105 116/116/116
f 105/105/105 103/103/103 116/116/116
f 116/116/116 103/103/103 117/117/117
f 103/103/103 101/101/101 117/117/117
f 117/117/117 101/101/101 118/118/118
f 118/118/118 101/101/101 119/119/119
f 101/101/101 100/100/100 119/119/119
f 119/119/119 100/100/100 120/120/120
f 120/120/120 100/100/100 121/121/121
f 100/100/100 97/97/97 121/121/121
f 121/121/121 97/97/97 122/122/122
f 122/122/122 97/97/97 123/123/123
f 97/97/97 95/95/95 123/123/123
f 123/123/123 95/95/95 124/124/124
f 95/95/95 93/93/93 124/124/124
f 124/124/124 93/93/93 125/125/125
f 93/93/93 91/91/91 125/125/125
f 125/125/125 91/91/91 126/126/126
f 91/91/91 89/89/89 126/126/126
f 126/126/126 89/89/89 127/127/127
f 89/89/89 88/88/88 127/127/127
f 127/127/127 88/88/88 128/128/128
f 88/88/88 86/86/86 128/128/128
f 128/128/128 86/86/86 129/129/129
f 129/129/129 86/86/86 130/130/130
f 86/86/86 84/84/84 130/130/130
f 130/130/130 84/84/84 131/131/131
f 84/84/84 83/83/83 131/131/131
f 83/83/83 82/82/82 131/131/131
f 82/82/82 48/48/48 131/131/131
f 48/48/48 132/132/132 131/131/131
f 131/131/131 132/132/132 130/130/130
f 132/132/132 133/133/133 130/130/130
f 130/130/130 133/133/133 129/129/129
f 133/133/133 134/134/134 129/129/129
f 129/129/129 134/134/134 128/128/128
f 128/128/128 134/134/134 127/127/127
f 134/134/134 135/135/135 127/127/127
f 127/127/127 135/135/135 125/125/125
f 125/125/125 135/135/135 124/124/124
f 135/135/135 136/136/136 124/124/124
f 124/124/124 136/136/136 123/123/123
f 136/136/136 137/137/137 123/123/123
f 123/123/123 137/137/137 122/122/122
f 137/137/137 138/138/138 122/122/122
f 122/122/122 138/138/138 121/121/121
f 3/3/3 5/5/5 85/85/85
f 109/109/109 107/107/107 114/114/114
f 127/127/127 125/125/125 126/126/126
f 138/138/138 137/137/137 139/139/139
f 137/137/137 136/136/136 139/139/139
f 139/139/139 136/136/136 140/140/140
f 136/136/136 135/135/135 140/140/140
f 135/135/135 134/134/134 140/140/140
f 134/134/134 133/133/133 140/140/140
f 140/140/140 133/133/133 141/141/141
f 133/133/133 132/132/132 141/141/141
f 141/141/141 132/132/132 142/142/142
f 132/132/132 48/48/48 142/142/142
f 140/140/140 141/141/141 139/139/139
f 141/141/141 143/143/143 139/139/139
f 143/143/143 144/144/144 139/139/139
f 139/139/139 144/144/144 138/138/138
f 138/138/138 144/144/144 121/121/121
f 144/144/144 145/145/145 121/121/121
f 121/121/121 145/145/145 120/120/120
f 145/145/145 146/146/146 120/120/120
f 146/146/146 147/147/147 120/120/120
f 120/120/120 147/147/147 119/119/119
f 147/147/147 148/148/148 119/119/119
f 119/119/119 148/148/148 118/118/118
f 148/148/148 149/149/149 118/118/118
f 149/149/149 150/150/150 118/118/118
f 118/118/118 150/150/150 117/117/117
f 117/117/117 150/150/150 116/116/116
f 150/150/150 151/151/151 116/116/116
f 116/116/116 151/151/151 115/115/115
f 115/115/115 151/151/151 113/113/113
f 151/151/151 152/152/152 113/113/113
f 113/113/113 152/152/152 112/112/112
f 142/142/142 143/143/143 141/141/141
f 148/148/148 147/147/147 149/149/149
f 147/147/147 153/153/153 149/149/149
f 153/153/153 154/154/154 149/149/149
f 149/149/149 154/154/154 150/150/150
f 150/150/150 154/154/154 151/151/151
f 154/154/154 152/152/152 151/151/151
f 147/147/147 146/146/146 153/153/153
f 153/153/153 146/146/146 155/155/155
f 155/155/155 146/146/146 156/156/156
f 146/146/146 145/145/145 156/156/156
f 145/145/145 144/144/144 156/156/156
f 156/156/156 144/144/144 157/157/157
f 144/144/144 143/143/143 157/157/157
f 157/157/157 143/143/143 158/158/158
f 143/143/143 142/142/142 158/158/158
f 158/158/158 142/142/142 159/159/159
f 142/142/142 48/48/48 159/159/159
f 159/159/159 48/48/48 160/160/160
f 48/48/48 161/161/161 160/160/160
f 160/160/160 161/161/161 162/162/162
f 161/161/161 163/163/163 162/162/162
f 157/157/157 158/158/158 156/156/156
f 158/158/158 164/164/164 156/156/156
f 164/164/164 165/165/165 156/156/156
f 156/156/156 165/165/165 155/155/155
f 165/165/165 166/166/166 155/155/155
f 155/155/155 166/166/166 153/153/153
f 162/162/162 167/167/167 160/160/160
f 160/160/160 167/167/167 168/168/168
f 167/167/167 169/169/169 168/168/168
f 160/160/160 168/168/168 159/159/159
f 168/168/168 164/164/164 159/159/159
f 159/159/159 164/164/164 158/158/158
f 165/165/165 170/170/170 166/166/166
f 166/166/166 170/170/170 153/153/153
f 170/170/170 171/171/171 153/153/153
f 153/153/153 171/171/171 154/154/154
f 154/154/154 171/171/171 152/152/152
f 152/152/152 171/171/171 112/112/112
f 112/112/112 171/171/171 111/111/111
f 171/171/171 170/170/170 111/111/111
f 111/111/111 170/170/170 172/172/172
f 170/170/170 165/165/165 172/172/172
f 165/165/165 164/164/164 172/172/172
f 164/164/164 168/168/168 172/172/172
f 168/168/168 169/169/169 172/172/172
f 172/172/172 169/169/169 111/111/111

