# Exported by Sketchfab Model Ripper robust edition
o model_10
v 6.93398380279541 53.83686828613281 -0.28729361295700073
v 6.708372592926025 54.11980438232422 -1.589321255683899
v 6.583033084869385 52.52547073364258 -0.5626571774482727
v 6.3448872566223145 52.750022888183594 -2.0788564682006836
v 5.63880729675293 51.227542877197266 -2.238635301589966
v 5.9312663078308105 51.08382797241211 -0.9842013716697693
v 4.644445419311523 50.03291320800781 -2.755366802215576
v 7.790472030639648 52.188636779785156 0.22603845596313477
v 8.087109565734863 53.580875396728516 0.3824177384376526
v 9.582829475402832 52.04043197631836 0.3756186366081238
v 9.670567512512207 53.41919708251953 0.5251988768577576
v 10.915608406066895 53.51350784301758 -0.45387154817581177
v 10.91978645324707 52.24702072143555 -0.6544449925422668
v 10.911430358886719 52.503013610839844 -2.4494073390960693
v 10.936498641967773 53.79644775390625 -2.0176644325256348
v 9.361395835876465 53.01050567626953 -2.9151456356048584
v 9.549406051635742 54.03896713256836 -2.7655656337738037
v 7.878209590911865 53.05990982055664 -2.6771771907806396
v 7.991015434265137 54.14226150512695 -2.4800033569335938
v 6.708372592926025 54.11980438232422 -1.589321255683899
v 6.3448872566223145 52.750022888183594 -2.0788564682006836
v 7.878209590911865 52.10779571533203 -2.864152431488037
v 9.135785102844238 52.08085250854492 -3.061326503753662
v 8.96866512298584 51.20957946777344 -3.1565136909484863
v 9.737415313720703 51.088321685791016 -3.3978817462921143
v 9.875288963317871 50.486515045166016 -3.680044412612915
v 10.25130844116211 51.66318130493164 -3.299294948577881
v 10.77355670928955 50.82783508300781 -3.4930691719055176
v 11.279093742370605 51.0973014831543 -2.350820541381836
v 11.053482055664062 50.980533599853516 -0.797226071357727
v 10.080010414123535 50.66166687011719 0.14784879982471466
v 11.270737648010254 49.835304260253906 -0.8788152933120728
v 10.330689430236816 49.51643753051758 0.22603845596313477
v 9.039690971374512 50.297889709472656 0.14444924890995026
v 8.910173416137695 51.2050895690918 0.2600339353084564
v 8.229161262512207 51.23203659057617 0.19204294681549072
v 7.869853973388672 50.28441619873047 0.018665900453925133
v 7.573216438293457 49.30535888671875 -0.13091430068016052
v 6.8086442947387695 50.70657730102539 -0.21590304374694824
v 9.048047065734863 49.32332229614258 0.13425059616565704
v 10.593903541564941 48.40713882446289 0.44700920581817627
v 5.028820514678955 49.79488754272461 -1.3207567930221558
v 6.14016580581665 49.49398422241211 -0.42667514085769653
v 7.38102912902832 48.38917541503906 -0.13091430068016052
v 9.035512924194336 48.42510223388672 0.28383079171180725
v 3.6124820709228516 48.806846618652344 -3.1361165046691895
v 4.280960559844971 50.08680725097656 -3.4964687824249268
v 4.310206413269043 48.371212005615234 -1.52472984790802
v 5.697299003601074 48.317317962646484 -0.3994787633419037
v 4.748895168304443 48.63169479370117 -5.903350353240967
v 4.247536659240723 49.04487228393555 -4.5979228019714355
v 3.7837796211242676 47.396644592285156 -5.080658912658691
v 3.5957698822021484 47.01490020751953 -3.4250781536102295
v 4.306028366088867 46.902626037597656 -1.7864952087402344
v 4.406300067901611 50.14070129394531 -3.7956292629241943
v 4.118018627166748 49.8981819152832 -3.9758052825927734
v 3.9049413204193115 49.8981819152832 -3.656247615814209
v 4.464791774749756 47.74245834350586 -6.433680057525635
v 4.088772773742676 45.93254852294922 -5.284632205963135
v 4.6277337074279785 46.47148132324219 -6.341892242431641
v 4.949438571929932 45.84721755981445 -5.9407453536987305
v 4.811564922332764 45.339725494384766 -5.216640949249268
v 4.180688381195068 45.55080795288086 -3.724238634109497
v 4.874235153198242 44.96696472167969 -3.9112138748168945
v 4.652801513671875 45.53733444213867 -2.068657875061035
v 5.212652206420898 45.00738525390625 -2.527596950531006
v 5.801748752593994 45.75739669799805 -0.8074247241020203
v 5.705655097961426 45.281341552734375 -1.681109070777893
v 5.580315113067627 47.08675765991211 -0.4742688536643982
v 7.218087196350098 47.446044921875 0.1070541962981224
v 8.981199264526367 47.53586959838867 0.18524384498596191
v 10.781912803649902 47.12717819213867 0.4776051640510559
v 11.471281051635742 48.64516830444336 -0.9842013716697693
v 11.60915470123291 50.08680725097656 -2.483402967453003
v 11.091084480285645 50.127227783203125 -3.8398232460021973
v 9.904535293579102 49.87123489379883 -4.074392318725586
v 8.834969520568848 49.529911041259766 -3.5338637828826904
v 8.90599536895752 50.35627365112305 -3.2924957275390625
v 7.5648603439331055 49.53440475463867 -3.503268003463745
v 7.706912040710449 50.3472900390625 -3.2041075229644775
v 7.832252025604248 51.20957946777344 -3.013732671737671
v 6.691660404205322 51.81138610839844 -2.9389426708221436
v 5.63880729675293 51.227542877197266 -2.238635301589966
v 5.956334114074707 50.91316604614258 -3.19050931930542
v 7.0008320808410645 51.12873840332031 -3.125917911529541
v 6.70419454574585 50.432621002197266 -3.3400895595550537
v 6.374133586883545 49.660152435302734 -3.7514350414276123
v 4.280960559844971 50.08680725097656 -3.4964687824249268
v 4.406300067901611 50.14070129394531 -3.7956292629241943
v 4.644445419311523 50.03291320800781 -2.755366802215576
v 5.099846363067627 49.91165542602539 -3.659647226333618
v 4.247536659240723 49.04487228393555 -4.5979228019714355
v 6.261327743530273 49.0987663269043 -4.849489688873291
v 4.748895168304443 48.63169479370117 -5.903350353240967
v 5.801748752593994 48.676605224609375 -5.8999505043029785
v 4.464791774749756 47.74245834350586 -6.433680057525635
v 6.169411659240723 47.7918586730957 -6.379287242889404
v 4.6277337074279785 46.47148132324219 -6.341892242431641
v 4.118018627166748 49.8981819152832 -3.9758052825927734
v 7.472944736480713 48.83379364013672 -4.091390132904053
v 8.66784954071045 48.82032012939453 -4.074392318725586
v 9.653855323791504 49.341285705566406 -4.934478282928467
v 6.679126739501953 47.720001220703125 -5.209842205047607
v 7.401918888092041 47.93108367919922 -4.213773727416992
v 8.534153938293457 47.98048400878906 -4.264767169952393
v 6.695838451385498 45.963985443115234 -5.26083517074585
v 6.048250198364258 46.46249771118164 -6.3180952072143555
v 5.688942909240723 45.838233947753906 -5.933946132659912
v 4.949438571929932 45.84721755981445 -5.9407453536987305
v 4.811564922332764 45.339725494384766 -5.216640949249268
v 5.856062412261963 45.344215393066406 -5.223440170288086
v 4.874235153198242 44.96696472167969 -3.9112138748168945
v 5.902020454406738 44.95798110961914 -4.053995132446289
v 5.212652206420898 45.00738525390625 -2.527596950531006
v 6.0190043449401855 44.94900131225586 -2.8437552452087402
v 5.705655097961426 45.281341552734375 -1.681109070777893
v 6.633168697357178 45.24092102050781 -3.9996023178100586
v 7.301647186279297 47.032867431640625 -3.965606689453125
v 8.500730514526367 47.18107223510742 -3.9928030967712402
v 9.131607055664062 47.96701431274414 -5.464808464050293
v 9.892001152038574 48.10174560546875 -6.1413187980651855
v 10.046586990356445 49.01792907714844 -5.644984245300293
v 10.886362075805664 49.031402587890625 -5.5226006507873535
v 11.396077156066895 49.34577560424805 -4.4823384284973145
v 11.270737648010254 48.128692626953125 -5.974740982055664
v 11.270737648010254 48.128692626953125 -5.974740982055664
v 10.008984565734863 46.91160583496094 -6.151517391204834
v 11.379364967346191 46.82627487182617 -5.981539726257324
v 11.00334644317627 46.21548843383789 -5.723174095153809
v 10.222062110900879 46.33674621582031 -5.797964096069336
v 9.937958717346191 45.905601501464844 -5.175846576690674
v 11.124507904052734 45.716976165771484 -5.002469539642334
v 9.862754821777344 45.57775115966797 -4.009800910949707
v 11.057660102844238 45.339725494384766 -3.7344372272491455
v 9.779194831848145 45.42954635620117 -2.772364616394043
v 10.748488426208496 45.281341552734375 -2.3372223377227783
v 9.678923606872559 45.43852996826172 -1.8680843114852905
v 10.309800148010254 45.32176208496094 -1.4261428117752075
v 10.2847318649292 45.87865447998047 -0.3484854996204376
v 9.169208526611328 45.7933235168457 -1.5383280515670776
v 8.73051929473877 46.70950698852539 -0.2702958583831787
v 8.354500770568848 46.206504821777344 -1.2561653852462769
v 7.431164741516113 45.959495544433594 -1.283361792564392
v 7.238977432250977 46.48046112060547 -0.28729361295700073
v 5.801748752593994 45.75739669799805 -0.8074247241020203
v 6.628990650177002 45.49691390991211 -1.6607117652893066
v 6.169411659240723 45.21397399902344 -1.990468144416809
v 6.658236503601074 45.151100158691406 -2.796161413192749
v 7.35178279876709 46.23794174194336 -3.4522745609283447
v 8.446416854858398 46.64663314819336 -3.3298909664154053
v 9.227700233459473 46.543338775634766 -5.288031578063965
v 9.181742668151855 45.856201171875 -2.7179718017578125
v 9.14831829071045 45.89662170410156 -3.969006299972534
v 8.354500770568848 46.323272705078125 -2.4086127281188965
v 7.4269866943359375 45.84721755981445 -2.507199764251709
v 11.955927848815918 49.02690887451172 -2.683976411819458
v 11.559019088745117 47.32927703857422 -1.23916757106781
v 10.2847318649292 45.87865447998047 -0.3484854996204376
v 8.73051929473877 46.70950698852539 -0.2702958583831787
v 7.238977432250977 46.48046112060547 -0.28729361295700073
v 11.312517166137695 46.05830001831055 -1.721903681755066
v 10.309800148010254 45.32176208496094 -1.4261428117752075
v 10.748488426208496 45.281341552734375 -2.3372223377227783
v 11.709426879882812 46.21997833251953 -3.3094935417175293
v 11.057660102844238 45.339725494384766 -3.7344372272491455
v 11.792985916137695 46.46249771118164 -4.784898281097412
v 11.124507904052734 45.716976165771484 -5.002469539642334
v 11.379364967346191 46.82627487182617 -5.981539726257324
v 11.00334644317627 46.21548843383789 -5.723174095153809
v 11.997708320617676 47.86820983886719 -4.611521244049072
v 12.148115158081055 47.56281280517578 -2.9185452461242676
vn -0.8003095984458923 0.10536275804042816 0.590256929397583
vn -0.9007489681243896 0.264483779668808 -0.34452807903289795
vn -0.8028302192687988 0.15368549525737762 0.5760593414306641
vn -0.7952409982681274 0.47148895263671875 -0.3811691105365753
vn -0.8097911477088928 0.5734205842018127 -0.1242060661315918
vn -0.7661818265914917 0.305624783039093 0.5652954578399658
vn -0.6985135078430176 0.6785088181495667 0.22738653421401978
vn -0.3242573142051697 -0.03370359539985657 0.9453682899475098
vn -0.30917632579803467 -0.05239495635032654 0.949560284614563
vn 0.2606411576271057 -0.10287144780158997 0.9599394202232361
vn 0.2802962362766266 -0.11000817269086838 0.953589141368866
vn 0.8969116806983948 -0.06784479320049286 0.43697428703308105
vn 0.8931590914726257 0.03018290176987648 0.4487268626689911
vn 0.808027982711792 0.2673092484474182 -0.5250110030174255
vn 0.8673163056373596 0.05282668024301529 -0.4949462115764618
vn 0.08877336978912354 0.23899343609809875 -0.9669547080993652
vn 0.16089363396167755 0.15150552988052368 -0.9752739667892456
vn -0.27633583545684814 0.29371529817581177 -0.9150791168212891
vn -0.3624432384967804 0.22598443925380707 -0.9041935205459595
vn -0.9007489681243896 0.264483779668808 -0.34452807903289795
vn -0.7952409982681274 0.47148895263671875 -0.3811691105365753
vn -0.13571886718273163 0.24514636397361755 -0.9599394202232361
vn -0.06000140309333801 0.24343526363372803 -0.9680594801902771
vn -0.1824110597372055 0.19579699635505676 -0.9635298252105713
vn -0.17813630402088165 0.2580749988555908 -0.949560284614563
vn -0.17945928871631622 0.3962656557559967 -0.9004265069961548
vn 0.22103774547576904 0.3325064778327942 -0.916832447052002
vn 0.4577507972717285 0.46175551414489746 -0.7597671151161194
vn 0.9421899914741516 0.29025065898895264 -0.16742929816246033
vn 0.871571958065033 0.15751010179519653 0.4642767012119293
vn 0.387146919965744 0.007531959097832441 0.9219872951507568
vn 0.8697978258132935 0.1871950477361679 0.456519216299057
vn 0.3797668516635895 0.14712245762348175 0.913308322429657
vn -0.07910680770874023 -0.06854644417762756 0.9945066571235657
vn -0.05429752171039581 -0.11889498680830002 0.991421103477478
vn -0.14751672744750977 -0.1145676001906395 0.9824016690254211
vn -0.17443813383579254 -0.09709818661212921 0.97986900806427
vn -0.19406919181346893 0.022404342889785767 0.9807319641113281
vn -0.4263129234313965 0.026294080540537834 0.9041935205459595
vn -0.1314561665058136 0.06802400946617126 0.9889853596687317
vn 0.4159919321537018 0.09687510877847672 0.9041935205459595
vn -0.7423633933067322 0.3539150655269623 0.5688942670822144
vn -0.4181481599807739 0.13348765671253204 0.8985171914100647
vn -0.19527225196361542 0.09403815865516663 0.976230263710022
vn -0.14988896250724792 0.07931967079639435 0.9855159521102905
vn -0.9654746055603027 0.2355753779411316 0.1111890971660614
vn -0.3400263786315918 0.9145921468734741 0.21886809170246124
vn -0.7931427955627441 0.15007071197032928 0.590256929397583
vn -0.45167702436447144 0.07858213037252426 0.888714075088501
vn -0.40188297629356384 0.6910462975502014 -0.6007870435714722
vn -0.6823408007621765 0.5200099945068359 -0.5138099193572998
vn -0.9493364095687866 0.04150139167904854 -0.31150925159454346
vn -0.9854679703712463 -0.13544945418834686 0.10250037163496017
vn -0.8193156719207764 -0.21270114183425903 0.5324283838272095
vn 0.0641716718673706 0.9189011454582214 -0.3892335295677185
vn -0.48493289947509766 0.6288721561431885 -0.607749879360199
vn -0.8478095531463623 0.5265076756477356 -0.0633138045668602
vn -0.5164058208465576 0.2067376971244812 -0.8310141563415527
vn -0.8040374517440796 -0.48164641857147217 -0.34862664341926575
vn -0.48024797439575195 -0.3339652121067047 -0.8110666871070862
vn -0.19603224098682404 -0.7084802389144897 -0.677958071231842
vn -0.3498852849006653 -0.8521018624305725 -0.3892335295677185
vn -0.8146491050720215 -0.5769501328468323 0.058952588587999344
vn -0.3581339120864868 -0.931214451789856 -0.06767380982637405
vn -0.6780785918235779 -0.5821113586425781 0.4487268626689911
vn -0.2609543800354004 -0.9350078701972961 0.2401314377784729
vn -0.29284459352493286 -0.6478453874588013 0.7032341957092285
vn -0.09224230796098709 -0.9113014936447144 0.401274174451828
vn -0.47589483857154846 -0.15541885793209076 0.865661084651947
vn -0.14827872812747955 -0.13367922604084015 0.97986900806427
vn -0.14574946463108063 -0.18276405334472656 0.9722933769226074
vn 0.45014604926109314 -0.2591666579246521 0.8545181155204773
vn 0.9008029103279114 0.12033651769161224 0.417220801115036
vn 0.9421592354774475 0.33310237526893616 -0.03713129088282585
vn 0.5605750679969788 0.5699214935302734 -0.6007870435714722
vn -0.2192077487707138 0.6599739789962769 -0.7185974717140198
vn -0.289828360080719 0.5322141051292419 -0.7954543828964233
vn -0.23721390962600708 0.2853173613548279 -0.9286137819290161
vn 0.1383603811264038 0.5236730575561523 -0.8406086564064026
vn 0.04709986597299576 0.27196231484413147 -0.961154580116272
vn -0.016966329887509346 0.1903163343667984 -0.9815762042999268
vn -0.2446647733449936 0.3784838020801544 -0.8926864862442017
vn -0.8097911477088928 0.5734205842018127 -0.1242060661315918
vn -0.32926318049430847 0.545089602470398 -0.7710143327713013
vn 0.06166500970721245 0.23865044116973877 -0.9691457152366638
vn 0.08801540732383728 0.33944830298423767 -0.9364978075027466
vn 0.1367831528186798 0.635644793510437 -0.7597671151161194
vn -0.3400263786315918 0.9145921468734741 0.21886809170246124
vn 0.0641716718673706 0.9189011454582214 -0.3892335295677185
vn -0.6985135078430176 0.6785088181495667 0.22738653421401978
vn -0.018886569887399673 0.824672281742096 -0.5652954578399658
vn -0.6823408007621765 0.5200099945068359 -0.5138099193572998
vn 0.3610866963863373 0.7361252903938293 -0.5724822878837585
vn -0.40188297629356384 0.6910462975502014 -0.6007870435714722
vn 0.3031732439994812 0.7134261131286621 -0.6317508816719055
vn -0.5164058208465576 0.2067376971244812 -0.8310141563415527
vn 0.5376886129379272 0.2211829572916031 -0.8136147856712341
vn -0.48024797439575195 -0.3339652121067047 -0.8110666871070862
vn -0.48493289947509766 0.6288721561431885 -0.607749879360199
vn 0.27302542328834534 0.48045849800109863 -0.8334367275238037
vn -0.3981810212135315 0.5140095353126526 -0.7597671151161194
vn -0.4019594192504883 0.7314751744270325 -0.5507928133010864
vn 0.842577338218689 0.1353626847267151 -0.5212872624397278
vn 0.4451725482940674 0.03778715059161186 -0.8946471214294434
vn -0.5414808392524719 0.09035716950893402 -0.8358433246612549
vn 0.7703580856323242 -0.4200606644153595 -0.4796847105026245
vn 0.41126391291618347 -0.33522358536720276 -0.8476362228393555
vn 0.18323494493961334 -0.7057491540908813 -0.6843559741973877
vn -0.19603224098682404 -0.7084802389144897 -0.677958071231842
vn -0.3498852849006653 -0.8521018624305725 -0.3892335295677185
vn 0.2570106089115143 -0.8496912717819214 -0.46040233969688416
vn -0.3581339120864868 -0.931214451789856 -0.06767380982637405
vn 0.18028701841831207 -0.9644503593444824 -0.19321508705615997
vn -0.2609543800354004 -0.9350078701972961 0.2401314377784729
vn 0.1782628446817398 -0.977177083492279 0.11553031951189041
vn -0.09224230796098709 -0.9113014936447144 0.401274174451828
vn 0.648781955242157 -0.7288200855255127 -0.21886809170246124
vn 0.6202178001403809 -0.4263402819633484 -0.6584556698799133
vn -0.5251755118370056 -0.49711358547210693 -0.6907016038894653
vn -0.7937959432601929 0.14657685160636902 -0.590256929397583
vn -0.3349158763885498 0.22463645040988922 -0.9150791168212891
vn -0.20310042798519135 0.6813309192657471 -0.7032341957092285
vn 0.3701649308204651 0.6965366005897522 -0.6146662831306458
vn 0.6419656276702881 0.6272855401039124 -0.4409002661705017
vn 0.5641671419143677 0.256701797246933 -0.7847417593002319
vn 0.5641671419143677 0.256701797246933 -0.7847417593002319
vn -0.24865420162677765 -0.27540430426597595 -0.9286137819290161
vn 0.6119136214256287 -0.22942425310611725 -0.7569189071655273
vn 0.2878052592277527 -0.6467306017875671 -0.7063339352607727
vn -0.18273596465587616 -0.6308777332305908 -0.7540562748908997
vn -0.3227420449256897 -0.8247937560081482 -0.4642767012119293
vn 0.3966854512691498 -0.8405154943466187 -0.3690181374549866
vn -0.3168526291847229 -0.9238777756690979 -0.21460255980491638
vn 0.37707120180130005 -0.9214218258857727 -0.09380380809307098
vn -0.34909746050834656 -0.9352301955223083 -0.058952588587999344
vn 0.32428303360939026 -0.9394027590751648 0.1111890971660614
vn -0.3895394504070282 -0.9157646894454956 0.0981530249118805
vn 0.18372789025306702 -0.9309156537055969 0.31565824151039124
vn 0.24469205737113953 -0.7384390830993652 0.6283578276634216
vn -0.4437025189399719 -0.8741405606269836 0.1975002884864807
vn -0.1438034325838089 -0.6203688383102417 0.7710143327713013
vn -0.009429637342691422 -0.9640660285949707 0.26549527049064636
vn 0.2950766384601593 -0.9032672643661499 0.31150925159454346
vn 0.07150161266326904 -0.6225642561912537 0.7792953848838806
vn -0.29284459352493286 -0.6478453874588013 0.7032341957092285
vn 0.36360490322113037 -0.8655009269714355 0.34452807903289795
vn 0.18734440207481384 -0.9273436069488525 0.3239381015300751
vn 0.51573646068573 -0.8555188775062561 0.04586252197623253
vn 0.6570739150047302 -0.6170334815979004 -0.43303996324539185
vn -0.3012735843658447 -0.817319393157959 -0.4911448359489441
vn -0.723793089389801 -0.42515304684638977 -0.5434780716896057
vn -0.5706976056098938 -0.8175994157791138 -0.0763898640871048
vn -0.6605388522148132 -0.7099094390869141 -0.24437066912651062
vn -0.09429522603750229 -0.9790744185447693 -0.18033768236637115
vn 0.5586065053939819 -0.8266674280166626 -0.06767380982637405
vn 0.9696467518806458 0.2392956018447876 0.05022686347365379
vn 0.9132691621780396 -0.17252559959888458 0.3690181374549866
vn 0.24469205737113953 -0.7384390830993652 0.6283578276634216
vn -0.1438034325838089 -0.6203688383102417 0.7710143327713013
vn 0.07150161266326904 -0.6225642561912537 0.7792953848838806
vn 0.7895680069923401 -0.533531665802002 0.30319350957870483
vn 0.18372789025306702 -0.9309156537055969 0.31565824151039124
vn 0.32428303360939026 -0.9394027590751648 0.1111890971660614
vn 0.8873527646064758 -0.4578482210636139 0.05459024757146835
vn 0.37707120180130005 -0.9214218258857727 -0.09380380809307098
vn 0.901583194732666 -0.35403844714164734 -0.24860523641109467
vn 0.3966854512691498 -0.8405154943466187 -0.3690181374549866
vn 0.6119136214256287 -0.22942425310611725 -0.7569189071655273
vn 0.2878052592277527 -0.6467306017875671 -0.7063339352607727
vn 0.9555739760398865 0.12802574038505554 -0.26549527049064636
vn 0.9937611222267151 -0.06032954156398773 0.09380380809307098
vt 0.4695313274860382 0.1711634248495102
vt 0.44991058111190796 0.16498924791812897
vt 0.4740319550037384 0.14734874665737152
vt 0.45107367634773254 0.1421271711587906
vt 0.455776572227478 0.11640731990337372
vt 0.47529616951942444 0.12180531024932861
vt 0.4524390399456024 0.09093443304300308
vt 0.4998726546764374 0.15355820953845978
vt 0.49152880907058716 0.17959558963775635
vt 0.5278878211975098 0.1668238639831543
vt 0.5155996084213257 0.1918381005525589
vt 0.5403783321380615 0.20782038569450378
vt 0.5553973317146301 0.18626369535923004
vt 0.5866488814353943 0.20644442737102509
vt 0.5644491314888 0.22726021707057953
vt 0.6037917733192444 0.23689192533493042
vt 0.5848789811134338 0.25015759468078613
vt 0.6205300688743591 0.26077717542648315
vt 0.6026286482810974 0.2729138433933258
vt 0.618557870388031 0.29436469078063965
vt 0.6393417119979858 0.28378036618232727
vt 0.6365098357200623 0.24931085109710693
vt 0.6231091022491455 0.2284950613975525
vt 0.6399485468864441 0.2217210978269577
vt 0.6322115063667297 0.20700892806053162
vt 0.6407576203346252 0.19645990431308746
vt 0.6161811351776123 0.20602105557918549
vt 0.620985209941864 0.18608729541301727
vt 0.5952455997467041 0.17793738842010498
vt 0.5685452222824097 0.16498924791812897
vt 0.5464466214179993 0.15034763514995575
vt 0.5788612961769104 0.14600807428359985
vt 0.5569649338722229 0.13358916342258453
vt 0.5305173993110657 0.13754063844680786
vt 0.5231849551200867 0.14879527688026428
vt 0.5133745670318604 0.14417345821857452
vt 0.5142847895622253 0.12981410324573517
vt 0.5173695087432861 0.11277337372303009
vt 0.4959282875061035 0.1264623999595642
vt 0.5374453663825989 0.12247564643621445
vt 0.5648537278175354 0.11781855672597885
vt 0.4754478931427002 0.09763782471418381
vt 0.49668681621551514 0.10465874522924423
vt 0.5215667486190796 0.09724973142147064
vt 0.5433619022369385 0.10804571956396103
vt 0.4541078209877014 0.0695541501045227
vt 0.4421735405921936 0.08341958373785019
vt 0.478128045797348 0.0761164128780365
vt 0.5000243782997131 0.08588925004005432
vt 0.4160799980163574 0.04584531858563423
vt 0.4319586455821991 0.06228626146912575
vt 0.44136443734169006 0.03903608396649361
vt 0.46250224113464355 0.04722127690911293
vt 0.48414573073387146 0.05657074227929115
vt 0.43752121925354004 0.08324317634105682
vt 0.4374706447124481 0.07731597125530243
vt 0.4435894787311554 0.07699844241142273
vt 0.4196704030036926 0.029474932700395584
vt 0.4500117301940918 0.021360302343964577
vt 0.4317058026790619 0.013245672918856144
vt 0.4421735405921936 0.005378010217100382
vt 0.4564845561981201 0.007036217022687197
vt 0.4700370132923126 0.029086841270327568
vt 0.4763581156730652 0.01373960729688406
vt 0.4904668629169464 0.039106644690036774
vt 0.49506860971450806 0.024958964437246323
vt 0.5137791037559509 0.04923229292035103
vt 0.5077614188194275 0.03466124087572098
vt 0.505637526512146 0.0684957206249237
vt 0.5265730619430542 0.08243171125650406
vt 0.5485705137252808 0.09393332153558731
vt 0.5719333291053772 0.10180098563432693
vt 0.5875085592269897 0.12822645902633667
vt 0.6046008467674255 0.15789777040481567
vt 0.6310483813285828 0.16908185184001923
vt 0.6537032723426819 0.18407627940177917
vt 0.6714023947715759 0.204433411359787
vt 0.6551697850227356 0.21350063383579254
vt 0.6857133507728577 0.22761303186416626
vt 0.6674074530601501 0.23364607989788055
vt 0.6512759327888489 0.2401730716228485
vt 0.652894139289856 0.264199435710907
vt 0.6656374931335449 0.28600308299064636
vt 0.6734756827354431 0.27062055468559265
vt 0.6603277921676636 0.2529800534248352
vt 0.6749927401542664 0.25280365347862244
vt 0.6956754326820374 0.2520274817943573
vt 0.7023505568504333 0.29404714703559875
vt 0.7063454985618591 0.2909424304962158
vt 0.690011739730835 0.293870747089386
vt 0.6985073089599609 0.27781790494918823
vt 0.725966215133667 0.2830747663974762
vt 0.7219712734222412 0.2487463504076004
vt 0.7437664866447449 0.2711144983768463
vt 0.7402772307395935 0.2575666010379791
vt 0.7605553269386292 0.2718554139137268
vt 0.7531722784042358 0.25082793831825256
vt 0.7787095904350281 0.26084771752357483
vt 0.7128183245658875 0.2918950021266937
vt 0.7061432003974915 0.21978065371513367
vt 0.6901634335517883 0.1943783313035965
vt 0.6714023947715759 0.16901129484176636
vt 0.7426033616065979 0.2324112504720688
vt 0.727230429649353 0.20901994407176971
vt 0.7107449769973755 0.1838998645544052
vt 0.7672304511070251 0.2227795273065567
vt 0.7694554924964905 0.24412453174591064
vt 0.7801254987716675 0.24130205810070038
vt 0.7854858040809631 0.24955780804157257
vt 0.7975717782974243 0.24137261509895325
vt 0.785940945148468 0.23047079145908356
vt 0.8107196688652039 0.2236262708902359
vt 0.7966615557670593 0.21498243510723114
vt 0.8195186853408813 0.20238710939884186
vt 0.8065224885940552 0.19854149222373962
vt 0.8215920329093933 0.18605200946331024
vt 0.7832607626914978 0.204433411359787
vt 0.748469352722168 0.19832980632781982
vt 0.7312759757041931 0.17356254160404205
vt 0.6957260370254517 0.16124947369098663
vt 0.6850054264068604 0.14544357359409332
vt 0.673020601272583 0.15302899479866028
vt 0.6636147499084473 0.14667841792106628
vt 0.6442468762397766 0.15003010630607605
vt 0.6684693694114685 0.12988466024398804
vt 0.6727171540260315 0.1306961178779602
vt 0.6981027722358704 0.13517680764198303
vt 0.6900622844696045 0.11806552112102509
vt 0.7019965648651123 0.11873586475849152
vt 0.7054858207702637 0.12790893018245697
vt 0.7172178030014038 0.12861454486846924
vt 0.7145376205444336 0.11227943748235703
vt 0.7362822890281677 0.12618015706539154
vt 0.7349169254302979 0.10772819072008133
vt 0.7563581466674805 0.12279317528009415
vt 0.7579257488250732 0.10628166794776917
vt 0.7705174088478088 0.11912395060062408
vt 0.7743606567382812 0.10804571956396103
vt 0.7934251427650452 0.1026124432682991
vt 0.7798221111297607 0.12639184296131134
vt 0.8101128935813904 0.12610958516597748
vt 0.7923126220703125 0.14124514162540436
vt 0.803286075592041 0.1592031717300415
vt 0.8217942714691162 0.14717234671115875
vt 0.8302898406982422 0.17282164096832275
vt 0.8105679750442505 0.17642030119895935
vt 0.8131975531578064 0.18693403899669647
vt 0.7967627048492432 0.1888744980096817
vt 0.7677361369132996 0.186228409409523
vt 0.7522620558738708 0.16431891918182373
vt 0.715397298336029 0.14763100445270538
vt 0.7618701457977295 0.13722310960292816
vt 0.7404289245605469 0.1435031294822693
vt 0.7730458378791809 0.15408742427825928
vt 0.7856374979019165 0.17271579802036285
vt 0.6131975650787354 0.13891659677028656
vt 0.5954984426498413 0.11005673557519913
vt 0.5791141390800476 0.08243171125650406
vt 0.5516552329063416 0.08140856772661209
vt 0.5316299200057983 0.0689190924167633
vt 0.6038929224014282 0.09227511286735535
vt 0.5964592695236206 0.07385843247175217
vt 0.6124390363693237 0.0769631564617157
vt 0.6268512010574341 0.0989079400897026
vt 0.634992778301239 0.08126743882894516
vt 0.6484441161155701 0.10511739552021027
vt 0.6546134948730469 0.08899398148059845
vt 0.6683682203292847 0.10892774164676666
vt 0.6666994690895081 0.09664995968341827
vt 0.6446514129638672 0.12515699863433838
vt 0.6199232339859009 0.11827720701694489
s on
f 1/1/1 2/2/2 3/3/3
f 2/2/2 4/4/4 3/3/3
f 4/4/4 5/5/5 3/3/3
f 3/3/3 5/5/5 6/6/6
f 5/5/5 7/7/7 6/6/6
f 6/6/6 8/8/8 3/3/3
f 3/3/3 8/8/8 1/1/1
f 1/1/1 8/8/8 9/9/9
f 8/8/8 10/10/10 9/9/9
f 9/9/9 10/10/10 11/11/11
f 11/11/11 10/10/10 12/12/12
f 10/10/10 13/13/13 12/12/12
f 13/13/13 14/14/14 12/12/12
f 12/12/12 14/14/14 15/15/15
f 14/14/14 16/16/16 15/15/15
f 15/15/15 16/16/16 17/17/17
f 16/16/16 18/18/18 17/17/17
f 17/17/17 18/18/18 19/19/19
f 19/19/19 18/18/18 20/20/20
f 20/20/20 18/18/18 21/21/21
f 21/21/21 18/18/18 22/22/22
f 18/18/18 23/23/23 22/22/22
f 22/22/22 23/23/23 24/24/24
f 23/23/23 25/25/25 24/24/24
f 24/24/24 25/25/25 26/26/26
f 25/25/25 27/27/27 26/26/26
f 26/26/26 27/27/27 28/28/28
f 27/27/27 14/14/14 28/28/28
f 28/28/28 14/14/14 29/29/29
f 29/29/29 14/14/14 30/30/30
f 14/14/14 13/13/13 30/30/30
f 30/30/30 13/13/13 31/31/31
f 13/13/13 10/10/10 31/31/31
f 18/18/18 16/16/16 23/23/23
f 16/16/16 27/27/27 23/23/23
f 23/23/23 27/27/27 25/25/25
f 27/27/27 16/16/16 14/14/14
f 31/31/31 32/32/32 30/30/30
f 32/32/32 29/29/29 30/30/30
f 32/32/32 31/31/31 33/33/33
f 33/33/33 31/31/31 34/34/34
f 31/31/31 10/10/10 34/34/34
f 34/34/34 10/10/10 35/35/35
f 10/10/10 36/36/36 35/35/35
f 35/35/35 36/36/36 34/34/34
f 36/36/36 37/37/37 34/34/34
f 34/34/34 37/37/37 38/38/38
f 38/38/38 37/37/37 39/39/39
f 37/37/37 36/36/36 39/39/39
f 39/39/39 36/36/36 8/8/8
f 36/36/36 10/10/10 8/8/8
f 8/8/8 6/6/6 39/39/39
f 38/38/38 40/40/40 34/34/34
f 34/34/34 40/40/40 33/33/33
f 40/40/40 41/41/41 33/33/33
f 33/33/33 41/41/41 32/32/32
f 6/6/6 42/42/42 39/39/39
f 42/42/42 43/43/43 39/39/39
f 39/39/39 43/43/43 38/38/38
f 43/43/43 44/44/44 38/38/38
f 38/38/38 44/44/44 40/40/40
f 44/44/44 45/45/45 40/40/40
f 40/40/40 45/45/45 41/41/41
f 6/6/6 7/7/7 42/42/42
f 42/42/42 7/7/7 46/46/46
f 7/7/7 47/47/47 46/46/46
f 46/46/46 48/48/48 42/42/42
f 42/42/42 48/48/48 43/43/43
f 48/48/48 49/49/49 43/43/43
f 43/43/43 49/49/49 44/44/44
f 50/50/50 52/52/52 51/51/51
f 51/51/51 52/52/52 46/46/46
f 52/52/52 53/53/53 46/46/46
f 46/46/46 53/53/53 48/48/48
f 53/53/53 54/54/54 48/48/48
f 48/48/48 54/54/54 49/49/49
f 55/55/55 56/56/56 47/47/47
f 47/47/47 56/56/56 57/57/57
f 56/56/56 51/51/51 57/57/57
f 51/51/51 46/46/46 57/57/57
f 57/57/57 46/46/46 47/47/47
f 50/50/50 58/58/58 52/52/52
f 52/52/52 58/58/58 59/59/59
f 58/58/58 60/60/60 59/59/59
f 60/60/60 61/61/61 59/59/59
f 61/61/61 62/62/62 59/59/59
f 59/59/59 62/62/62 63/63/63
f 62/62/62 64/64/64 63/63/63
f 63/63/63 64/64/64 65/65/65
f 64/64/64 66/66/66 65/65/65
f 65/65/65 66/66/66 67/67/67
f 66/66/66 68/68/68 67/67/67
f 52/52/52 59/59/59 53/53/53
f 59/59/59 63/63/63 53/53/53
f 53/53/53 63/63/63 54/54/54
f 63/63/63 65/65/65 54/54/54
f 54/54/54 65/65/65 69/69/69
f 65/65/65 67/67/67 69/69/69
f 54/54/54 69/69/69 49/49/49
f 49/49/49 69/69/69 44/44/44
f 69/69/69 70/70/70 44/44/44
f 44/44/44 70/70/70 45/45/45
f 70/70/70 71/71/71 45/45/45
f 45/45/45 71/71/71 41/41/41
f 71/71/71 72/72/72 41/41/41
f 72/72/72 73/73/73 41/41/41
f 41/41/41 73/73/73 32/32/32
f 73/73/73 74/74/74 32/32/32
f 32/32/32 74/74/74 29/29/29
f 74/74/74 75/75/75 29/29/29
f 29/29/29 75/75/75 28/28/28
f 75/75/75 76/76/76 28/28/28
f 28/28/28 76/76/76 26/26/26
f 76/76/76 77/77/77 26/26/26
f 26/26/26 77/77/77 78/78/78
f 77/77/77 79/79/79 78/78/78
f 79/79/79 80/80/80 78/78/78
f 78/78/78 80/80/80 24/24/24
f 80/80/80 81/81/81 24/24/24
f 24/24/24 81/81/81 22/22/22
f 81/81/81 82/82/82 22/22/22
f 22/22/22 82/82/82 21/21/21
f 21/21/21 82/82/82 83/83/83
f 83/83/83 82/82/82 84/84/84
f 82/82/82 85/85/85 84/84/84
f 84/84/84 85/85/85 86/86/86
f 85/85/85 80/80/80 86/86/86
f 86/86/86 80/80/80 87/87/87
f 80/80/80 79/79/79 87/87/87
f 24/24/24 26/26/26 78/78/78
f 82/82/82 81/81/81 85/85/85
f 85/85/85 81/81/81 80/80/80
f 88/88/88 90/90/90 89/89/89
f 89/89/89 90/90/90 91/91/91
f 90/90/90 83/83/83 91/91/91
f 83/83/83 84/84/84 91/91/91
f 84/84/84 86/86/86 91/91/91
f 86/86/86 87/87/87 91/91/91
f 91/91/91 87/87/87 92/92/92
f 87/87/87 93/93/93 92/92/92
f 92/92/92 93/93/93 94/94/94
f 93/93/93 95/95/95 94/94/94
f 94/94/94 95/95/95 96/96/96
f 95/95/95 97/97/97 96/96/96
f 96/96/96 97/97/97 98/98/98
f 89/89/89 91/91/91 99/99/99
f 99/99/99 91/91/91 92/92/92
f 87/87/87 79/79/79 93/93/93
f 93/93/93 79/79/79 100/100/100
f 79/79/79 77/77/77 100/100/100
f 100/100/100 77/77/77 101/101/101
f 77/77/77 76/76/76 101/101/101
f 101/101/101 76/76/76 102/102/102
f 76/76/76 75/75/75 102/102/102
f 97/97/97 95/95/95 103/103/103
f 95/95/95 93/93/93 103/103/103
f 93/93/93 100/100/100 103/103/103
f 103/103/103 100/100/100 104/104/104
f 104/104/104 100/100/100 105/105/105
f 100/100/100 101/101/101 105/105/105
f 105/105/105 101/101/101 102/102/102
f 104/104/104 106/106/106 103/103/103
f 103/103/103 106/106/106 97/97/97
f 106/106/106 107/107/107 97/97/97
f 97/97/97 107/107/107 98/98/98
f 107/107/107 108/108/108 98/98/98
f 98/98/98 108/108/108 109/109/109
f 109/109/109 108/108/108 110/110/110
f 108/108/108 111/111/111 110/110/110
f 110/110/110 111/111/111 112/112/112
f 111/111/111 113/113/113 112/112/112
f 112/112/112 113/113/113 114/114/114
f 113/113/113 115/115/115 114/114/114
f 114/114/114 115/115/115 116/116/116
f 108/108/108 107/107/107 111/111/111
f 107/107/107 106/106/106 111/111/111
f 111/111/111 106/106/106 113/113/113
f 106/106/106 117/117/117 113/113/113
f 113/113/113 117/117/117 115/115/115
f 117/117/117 106/106/106 118/118/118
f 106/106/106 104/104/104 118/118/118
f 118/118/118 104/104/104 119/119/119
f 104/104/104 105/105/105 119/119/119
f 119/119/119 105/105/105 120/120/120
f 105/105/105 102/102/102 120/120/120
f 120/120/120 102/102/102 121/121/121
f 102/102/102 122/122/122 121/121/121
f 121/121/121 122/122/122 123/123/123
f 122/122/122 124/124/124 123/123/123
f 123/123/123 124/124/124 125/125/125
f 122/122/122 102/102/102 124/124/124
f 124/124/124 102/102/102 75/75/75
f 123/123/123 126/126/126 121/121/121
f 121/121/121 126/126/126 127/127/127
f 126/126/126 128/128/128 127/127/127
f 128/128/128 129/129/129 127/127/127
f 127/127/127 129/129/129 130/130/130
f 130/130/130 129/129/129 131/131/131
f 129/129/129 132/132/132 131/131/131
f 131/131/131 132/132/132 133/133/133
f 132/132/132 134/134/134 133/133/133
f 133/133/133 134/134/134 135/135/135
f 134/134/134 136/136/136 135/135/135
f 135/135/135 136/136/136 137/137/137
f 136/136/136 138/138/138 137/137/137
f 138/138/138 139/139/139 137/137/137
f 137/137/137 139/139/139 140/140/140
f 139/139/139 141/141/141 140/140/140
f 140/140/140 141/141/141 142/142/142
f 142/142/142 141/141/141 143/143/143
f 141/141/141 144/144/144 143/143/143
f 144/144/144 145/145/145 143/143/143
f 143/143/143 145/145/145 146/146/146
f 145/145/145 116/116/116 146/146/146
f 146/146/146 116/116/116 147/147/147
f 116/116/116 115/115/115 147/147/147
f 147/147/147 115/115/115 148/148/148
f 115/115/115 117/117/117 148/148/148
f 148/148/148 117/117/117 149/149/149
f 117/117/117 118/118/118 149/149/149
f 149/149/149 118/118/118 150/150/150
f 118/118/118 119/119/119 150/150/150
f 150/150/150 119/119/119 151/151/151
f 119/119/119 120/120/120 151/151/151
f 151/151/151 120/120/120 127/127/127
f 120/120/120 121/121/121 127/127/127
f 137/137/137 140/140/140 135/135/135
f 140/140/140 152/152/152 135/135/135
f 135/135/135 152/152/152 133/133/133
f 152/152/152 140/140/140 142/142/142
f 148/148/148 146/146/146 147/147/147
f 127/127/127 130/130/130 151/151/151
f 130/130/130 131/131/131 151/151/151
f 151/151/151 131/131/131 153/153/153
f 131/131/131 133/133/133 153/153/153
f 133/133/133 152/152/152 153/153/153
f 152/152/152 154/154/154 153/153/153
f 153/153/153 154/154/154 150/150/150
f 150/150/150 154/154/154 149/149/149
f 154/154/154 155/155/155 149/149/149
f 149/149/149 155/155/155 148/148/148
f 148/148/148 155/155/155 146/146/146
f 146/146/146 155/155/155 143/143/143
f 143/143/143 155/155/155 142/142/142
f 155/155/155 154/154/154 142/142/142
f 142/142/142 154/154/154 152/152/152
f 150/150/150 151/151/151 153/153/153
f 75/75/75 74/74/74 156/156/156
f 74/74/74 73/73/73 156/156/156
f 156/156/156 73/73/73 157/157/157
f 73/73/73 72/72/72 157/157/157
f 157/157/157 72/72/72 158/158/158
f 72/72/72 71/71/71 158/158/158
f 158/158/158 71/71/71 159/159/159
f 71/71/71 70/70/70 159/159/159
f 159/159/159 70/70/70 160/160/160
f 70/70/70 69/69/69 160/160/160
f 160/160/160 69/69/69 67/67/67
f 75/75/75 156/156/156 124/124/124
f 157/157/157 158/158/158 161/161/161
f 158/158/158 162/162/162 161/161/161
f 162/162/162 163/163/163 161/161/161
f 161/161/161 163/163/163 164/164/164
f 163/163/163 165/165/165 164/164/164
f 164/164/164 165/165/165 166/166/166
f 165/165/165 167/167/167 166/166/166
f 166/166/166 167/167/167 168/168/168
f 167/167/167 169/169/169 168/168/168
f 168/168/168 170/170/170 166/166/166
f 166/166/166 170/170/170 164/164/164
f 170/170/170 171/171/171 164/164/164
f 164/164/164 171/171/171 161/161/161
f 161/161/161 171/171/171 157/157/157
f 157/157/157 171/171/171 156/156/156
f 156/156/156 171/171/171 124/124/124
f 171/171/171 170/170/170 124/124/124
f 124/124/124 170/170/170 125/125/125
f 170/170/170 168/168/168 125/125/125

