# Exported by Sketchfab Model Ripper robust edition
o model_11
v 12.234406471252441 38.267154693603516 -5.142889499664307
v 12.25462532043457 39.484100341796875 -5.041341781616211
v 12.173749923706055 38.30641174316406 -4.655459403991699
v 12.295063018798828 39.52335739135742 -4.533601760864258
v 11.728934288024902 38.34566879272461 -4.147719383239746
v 11.749153137207031 38.227901458740234 -5.44753360748291
v 11.749153137207031 39.484100341796875 -5.3866047859191895
v 11.142585754394531 38.227901458740234 -5.224127769470215
v 11.081929206848145 39.484100341796875 -5.18350887298584
v 10.960616111755371 38.267154693603516 -4.817935943603516
v 10.798864364624023 39.484100341796875 -4.777316570281982
v 10.899959564208984 38.34566879272461 -4.391434192657471
v 10.798864364624023 39.52335739135742 -4.33050537109375
v 11.203242301940918 38.384925842285156 -4.046171188354492
v 11.16280460357666 39.56261444091797 -3.9040040969848633
v 11.122366905212402 40.42625427246094 -3.6196696758270264
v 10.738207817077637 40.46550750732422 -4.228957653045654
v 11.041491508483887 40.9758415222168 -3.2337872982025146
v 10.657332420349121 40.46550750732422 -4.797626495361328
v 11.041491508483887 40.54402160644531 -5.305366516113281
v 11.789590835571289 40.58327865600586 -5.44753360748291
v 12.396157264709473 40.504764556884766 -5.021031856536865
v 12.517471313476562 40.38699722290039 -4.371124744415283
v 11.809809684753418 39.56261444091797 -4.025861740112305
v 11.890685081481934 40.38699722290039 -3.782146453857422
v 11.16280460357666 39.56261444091797 -3.9040040969848633
v 11.122366905212402 40.42625427246094 -3.6196696758270264
v 11.991779327392578 41.015098571777344 -3.4368832111358643
v 11.041491508483887 40.9758415222168 -3.2337872982025146
v 11.203242301940918 38.384925842285156 -4.046171188354492
v 12.699440956115723 40.8973274230957 -4.208648204803467
v 12.921849250793457 41.250633239746094 -4.025861740112305
v 12.598346710205078 41.40766143798828 -3.457192897796631
v 13.083600044250488 41.5646858215332 -3.8836944103240967
v 12.921849250793457 41.76096725463867 -3.579050302505493
v 13.083600044250488 41.839481353759766 -4.168028831481934
v 12.982505798339844 42.11427307128906 -3.86338472366333
v 12.942068099975586 42.15353012084961 -4.432053565979004
v 12.840973854064941 42.389068603515625 -4.249267101287842
v 12.962286949157715 41.60394287109375 -4.553911209106445
v 12.618565559387207 41.40766143798828 -5.041341781616211
v 11.830028533935547 41.60394287109375 -5.549081802368164
v 10.9808349609375 41.60394287109375 -5.630320072174072
v 10.616894721984863 41.172122955322266 -4.858555316925049
v 10.697770118713379 41.13286590576172 -4.147719383239746
v 11.16280460357666 41.80022430419922 -3.1525487899780273
v 11.830028533935547 41.839481353759766 -3.0510008335113525
v 11.991779327392578 41.015098571777344 -3.4368832111358643
v 12.598346710205078 41.40766143798828 -3.457192897796631
v 12.436595916748047 41.99650573730469 -3.172858476638794
v 12.921849250793457 41.76096725463867 -3.579050302505493
v 12.73987865447998 42.075016021728516 -3.4165735244750977
v 12.982505798339844 42.11427307128906 -3.86338472366333
v 12.76009750366211 42.389068603515625 -3.680598497390747
v 12.840973854064941 42.389068603515625 -4.249267101287842
v 12.699440956115723 42.585350036621094 -4.086790561676025
v 12.679222106933594 42.78163146972656 -4.736697673797607
v 12.517471313476562 42.89939880371094 -4.3101959228515625
v 12.436595916748047 43.1741943359375 -5.081960678100586
v 12.456814765930176 42.585350036621094 -3.5993599891662598
v 11.97156047821045 42.62460708618164 -3.680598497390747
v 12.193968772888184 43.1741943359375 -4.472672939300537
v 11.668277740478516 43.1741943359375 -4.6351494789123535
v 11.850247383117676 43.21345138549805 -5.305366516113281
v 11.46608829498291 42.585350036621094 -3.822765588760376
v 11.061710357666016 42.46757888793945 -4.06648063659668
v 10.85952091217041 41.76096725463867 -3.782146453857422
v 10.556238174438477 41.525428771972656 -4.391434192657471
v 10.515800476074219 41.68245315551758 -4.878864765167236
v 10.697770118713379 41.95724868774414 -5.3866047859191895
v 11.223461151123047 42.585350036621094 -5.569391250610352
v 10.738207817077637 42.5068359375 -5.345985412597656
v 10.515800476074219 42.192787170410156 -4.817935943603516
v 10.616894721984863 41.917991638183594 -4.228957653045654
v 10.798864364624023 42.34981155395508 -4.289886474609375
v 10.758426666259766 42.62460708618164 -4.736697673797607
v 10.778645515441895 42.86014175415039 -5.163199424743652
v 11.203242301940918 43.05642318725586 -5.2850565910339355
v 11.870466232299805 42.585350036621094 -5.549081802368164
v 11.850247383117676 43.21345138549805 -5.305366516113281
v 12.436595916748047 43.1741943359375 -5.081960678100586
v 12.517471313476562 42.46757888793945 -5.325675964355469
v 12.679222106933594 42.78163146972656 -4.736697673797607
v 12.800536155700684 42.271297454833984 -4.878864765167236
v 11.16280460357666 42.938655853271484 -4.696078300476074
v 11.203242301940918 43.05642318725586 -5.2850565910339355
vn 0.897524356842041 0.0075494577176868916 -0.4409002661705017
vn 0.866267204284668 -0.0678926557302475 -0.4949462115764618
vn 0.9128540754318237 -0.07534248381853104 0.401274174451828
vn 0.9257972836494446 -0.1726098507642746 0.3363112509250641
vn 0.4886658489704132 -0.08977194130420685 0.8678402304649353
vn 0.09792270511388779 0.03698170185089111 -0.9945066571235657
vn 0.15157634019851685 -0.015167499892413616 -0.9883291721343994
vn -0.6664659380912781 -0.015120026655495167 -0.7453821301460266
vn -0.5967044234275818 -0.052837107330560684 -0.8007197380065918
vn -0.9608032703399658 -0.06415713578462601 -0.26970529556274414
vn -0.9543038606643677 -0.09802287817001343 -0.28230419754981995
vn -0.9512587189674377 -0.09037499129772186 0.2948545813560486
vn -0.933023989200592 -0.12790995836257935 0.3363112509250641
vn -0.3381502330303192 -0.09287776052951813 0.9364978075027466
vn -0.35986626148223877 -0.21501007676124573 0.9078915119171143
vn -0.42553600668907166 -0.39092519879341125 0.8161473870277405
vn -0.9415776133537292 -0.14664679765701294 0.30319350957870483
vn -0.49889621138572693 -0.284413605928421 0.8186644315719604
vn -0.9626293182373047 -0.11673810333013535 -0.24437066912651062
vn -0.5216301679611206 -0.1710786074399948 -0.8358433246612549
vn 0.22903971374034882 -0.13005472719669342 -0.9646899104118347
vn 0.8181406259536743 -0.16514596343040466 -0.5507928133010864
vn 0.9149320125579834 -0.3111583888530731 0.25706008076667786
vn 0.4636761248111725 -0.22568419575691223 0.8567795157432556
vn 0.4352836608886719 -0.41662096977233887 0.7980946898460388
vn -0.35986626148223877 -0.21501007676124573 0.9078915119171143
vn -0.42553600668907166 -0.39092519879341125 0.8161473870277405
vn 0.3306017518043518 -0.44734543561935425 0.8310141563415527
vn -0.49889621138572693 -0.284413605928421 0.8186644315719604
vn -0.3381502330303192 -0.09287776052951813 0.9364978075027466
vn 0.8379902243614197 -0.5165103673934937 0.1760382205247879
vn 0.8217491507530212 -0.548507571220398 0.15449213981628418
vn 0.52013099193573 -0.48016253113746643 0.7063339352607727
vn 0.9319316744804382 -0.27542757987976074 0.23588760197162628
vn 0.782480001449585 -0.07529164850711823 0.6181069612503052
vn 0.9948500990867615 0.07545536756515503 -0.06767380982637405
vn 0.9110312461853027 0.3467496633529663 0.22312943637371063
vn 0.9574487209320068 0.24645446240901947 -0.15017375349998474
vn 0.8921161890029907 0.4511665999889374 0.024029340595006943
vn 0.9151766300201416 -0.19504185020923615 -0.3527185618877411
vn 0.7564476728439331 -0.22354471683502197 -0.6146662831306458
vn 0.2545279860496521 -0.11718299984931946 -0.9599394202232361
vn -0.41728976368904114 -0.14830482006072998 -0.8965907096862793
vn -0.9552555084228516 -0.17269571125507355 -0.2401314377784729
vn -0.9466469287872314 -0.10923942923545837 0.30319350957870483
vn -0.4625183641910553 0.20125693082809448 0.8634653687477112
vn 0.022293653339147568 0.15505576133728027 0.9876541495323181
vn 0.3306017518043518 -0.44734543561935425 0.8310141563415527
vn 0.52013099193573 -0.48016253113746643 0.7063339352607727
vn 0.34923890233039856 0.12533408403396606 0.9286137819290161
vn 0.782480001449585 -0.07529164850711823 0.6181069612503052
vn 0.6572867035865784 0.23655761778354645 0.715552031993866
vn 0.9110312461853027 0.3467496633529663 0.22312943637371063
vn 0.7137910723686218 0.5344443321228027 0.45262736082077026
vn 0.8921161890029907 0.4511665999889374 0.024029340595006943
vn 0.7760226130485535 0.5899170637130737 0.22312943637371063
vn 0.8698117136955261 0.4774939715862274 -0.1242060661315918
vn 0.6017002463340759 0.7389387488365173 0.30319350957870483
vn 0.5387913584709167 0.7723979353904724 -0.3363112509250641
vn 0.3355857729911804 0.7018181085586548 0.6283578276634216
vn -0.06594965606927872 0.7526053786277771 0.6551609039306641
vn 0.20039594173431396 0.9288721680641174 0.31150925159454346
vn -0.24071471393108368 0.9335784316062927 0.26549527049064636
vn 0.018888995051383972 0.8392108082771301 -0.5434780716896057
vn -0.3952411413192749 0.7097077369689941 0.5831804275512695
vn -0.6352019906044006 0.5991860628128052 0.48733407258987427
vn -0.8346236944198608 0.24935919046401978 0.4911448359489441
vn -0.9719269871711731 -0.10544168204069138 0.2103329300880432
vn -0.9750227332115173 -0.11677990853786469 -0.18892620503902435
vn -0.7694728970527649 0.015110506676137447 -0.6385006904602051
vn -0.20002397894859314 0.23609085381031036 -0.9509214162826538
vn -0.7620916366577148 0.27380824089050293 -0.5867242813110352
vn -0.9743873476982117 0.2246105968952179 0.010923261754214764
vn -0.8945147395133972 0.17985281348228455 0.40926313400268555
vn -0.7371856570243835 0.49455738067626953 0.46040233969688416
vn -0.7780479192733765 0.5839389562606812 0.23163928091526031
vn -0.7199285626411438 0.6572032570838928 -0.22312943637371063
vn -0.34334683418273926 0.8005558848381042 -0.4911448359489441
vn 0.22427313029766083 0.1816127896308899 -0.9574540853500366
vn 0.018888995051383972 0.8392108082771301 -0.5434780716896057
vn 0.5387913584709167 0.7723979353904724 -0.3363112509250641
vn 0.652805745601654 0.09784892201423645 -0.7511792182922363
vn 0.8698117136955261 0.4774939715862274 -0.1242060661315918
vn 0.9116106033325195 0.10556569695472717 -0.3972681760787964
vn -0.4772988557815552 0.8216737508773804 0.31150925159454346
vn -0.34334683418273926 0.8005558848381042 -0.4911448359489441
vt 0.5170383453369141 0.8983020782470703
vt 0.513735830783844 0.9199886918067932
vt 0.5065699815750122 0.8974466919898987
vt 0.5021458864212036 0.9183282256126404
vt 0.4959770441055298 0.8960881233215332
vt 0.5275689363479614 0.8991071581840515
vt 0.5252634286880493 0.9209950566291809
vt 0.5377257466316223 0.9002141356468201
vt 0.536292552947998 0.9216994643211365
vt 0.5465739965438843 0.9014720320701599
vt 0.5460754632949829 0.9221020340919495
vt 0.5544875264167786 0.902780294418335
vt 0.5551106333732605 0.9227561354637146
vt 0.56146639585495 0.9049438834190369
vt 0.5635849833488464 0.9250203967094421
vt 0.5677598714828491 0.9395117163658142
vt 0.5566684007644653 0.9386563301086426
vt 0.5726824998855591 0.9503801465034485
vt 0.5462000966072083 0.9390588402748108
vt 0.5355448126792908 0.9401658177375793
vt 0.5236433148384094 0.9401155114173889
vt 0.5108695030212402 0.9386059641838074
vt 0.49772176146507263 0.9352347254753113
vt 0.49030667543411255 0.9157117605209351
vt 0.48407554626464844 0.9310081005096436
vt 0.4790283143520355 0.9140512943267822
vt 0.4710524380207062 0.9267311692237854
vt 0.47690969705581665 0.9440905451774597
vt 0.46276500821113586 0.9356372952461243
vt 0.4865056872367859 0.8954340219497681
vt 0.49379613995552063 0.9481661915779114
vt 0.49117904901504517 0.9568207263946533
vt 0.48077303171157837 0.9555628299713135
vt 0.4899328052997589 0.9618524312973022
vt 0.4841378331184387 0.9637141823768616
vt 0.4943569302558899 0.9656262397766113
vt 0.48937201499938965 0.9693496823310852
vt 0.49865642189979553 0.9699534773826599
vt 0.4966624677181244 0.9740291833877563
vt 0.4997157156467438 0.9621040225028992
vt 0.5083770155906677 0.9558144211769104
vt 0.5230202078819275 0.9566195011138916
vt 0.5358563661575317 0.9568710327148438
vt 0.5465116500854492 0.951738715171814
vt 0.557603120803833 0.9520406126976013
vt 0.5687568783760071 0.9634122848510742
vt 0.5766704082489014 0.9683936238288879
vt 0.5871387720108032 0.9583805799484253
vt 0.590316653251648 0.9707082509994507
vt 0.5813437700271606 0.974632978439331
vt 0.5888834595680237 0.9793124198913574
vt 0.5833377242088318 0.9790608286857605
vt 0.585394024848938 0.9861555695533752
vt 0.5799106359481812 0.9835894107818604
vt 0.5789136290550232 0.9920929670333862
vt 0.5764212012290955 0.9882185459136963
vt 0.5692553520202637 0.9974265694618225
vt 0.5710623860359192 0.9886714220046997
vt 0.5595970749855042 0.9984328746795654
vt 0.5752372741699219 0.9810735583305359
vt 0.5698784589767456 0.9777023196220398
vt 0.5642081499099731 0.9873631596565247
vt 0.5574784874916077 0.9834384322166443
vt 0.55006343126297 0.9938037395477295
vt 0.5637096166610718 0.9737272262573242
vt 0.557914674282074 0.9702553749084473
vt 0.5602824687957764 0.9617518186569214
vt 0.5526182055473328 0.9580786824226379
vt 0.5468855500221252 0.9594372510910034
vt 0.5412774682044983 0.9621040225028992
vt 0.5336132049560547 0.9698024988174438
vt 0.5411528944969177 0.9684942960739136
vt 0.5477578639984131 0.9656765460968018
vt 0.5538644194602966 0.9629594087600708
vt 0.5539267063140869 0.9681420922279358
vt 0.5491910576820374 0.9718152284622192
vt 0.5424613952636719 0.9759914875030518
vt 0.5352332592010498 0.9800671935081482
vt 0.5238302946090698 0.9706579446792603
vt 0.5250765085220337 0.9833378195762634
vt 0.5147951245307922 0.9838409423828125
vt 0.5132996439933777 0.9707082509994507
vt 0.5062584280967712 0.9793627262115479
vt 0.5045760273933411 0.9704566597938538
vt 0.5521820187568665 0.9777526259422302
vt 0.5438945889472961 0.984444797039032
s on
f 1/1/1 2/2/2 3/3/3
f 2/2/2 4/4/4 3/3/3
f 3/3/3 4/4/4 5/5/5
f 1/1/1 6/6/6 2/2/2
f 2/2/2 6/6/6 7/7/7
f 6/6/6 8/8/8 7/7/7
f 7/7/7 8/8/8 9/9/9
f 8/8/8 10/10/10 9/9/9
f 9/9/9 10/10/10 11/11/11
f 10/10/10 12/12/12 11/11/11
f 11/11/11 12/12/12 13/13/13
f 12/12/12 14/14/14 13/13/13
f 14/14/14 15/15/15 13/13/13
f 15/15/15 16/16/16 13/13/13
f 13/13/13 16/16/16 17/17/17
f 16/16/16 18/18/18 17/17/17
f 13/13/13 17/17/17 11/11/11
f 17/17/17 19/19/19 11/11/11
f 11/11/11 19/19/19 9/9/9
f 19/19/19 20/20/20 9/9/9
f 9/9/9 20/20/20 7/7/7
f 20/20/20 21/21/21 7/7/7
f 7/7/7 21/21/21 2/2/2
f 21/21/21 22/22/22 2/2/2
f 2/2/2 22/22/22 4/4/4
f 22/22/22 23/23/23 4/4/4
f 4/4/4 23/23/23 24/24/24
f 23/23/23 25/25/25 24/24/24
f 24/24/24 25/25/25 26/26/26
f 26/26/26 25/25/25 27/27/27
f 25/25/25 28/28/28 27/27/27
f 27/27/27 28/28/28 29/29/29
f 4/4/4 24/24/24 5/5/5
f 24/24/24 26/26/26 5/5/5
f 5/5/5 26/26/26 30/30/30
f 28/28/28 25/25/25 31/31/31
f 31/31/31 25/25/25 23/23/23
f 31/31/31 32/32/32 28/28/28
f 28/28/28 32/32/32 33/33/33
f 32/32/32 34/34/34 33/33/33
f 33/33/33 34/34/34 35/35/35
f 34/34/34 36/36/36 35/35/35
f 35/35/35 36/36/36 37/37/37
f 36/36/36 38/38/38 37/37/37
f 37/37/37 38/38/38 39/39/39
f 34/34/34 32/32/32 36/36/36
f 36/36/36 32/32/32 40/40/40
f 32/32/32 31/31/31 40/40/40
f 40/40/40 31/31/31 41/41/41
f 31/31/31 23/23/23 41/41/41
f 23/23/23 22/22/22 41/41/41
f 41/41/41 22/22/22 42/42/42
f 22/22/22 21/21/21 42/42/42
f 42/42/42 21/21/21 43/43/43
f 21/21/21 20/20/20 43/43/43
f 20/20/20 19/19/19 43/43/43
f 43/43/43 19/19/19 44/44/44
f 44/44/44 19/19/19 45/45/45
f 19/19/19 17/17/17 45/45/45
f 17/17/17 18/18/18 45/45/45
f 45/45/45 18/18/18 46/46/46
f 46/46/46 18/18/18 47/47/47
f 18/18/18 48/48/48 47/47/47
f 48/48/48 49/49/49 47/47/47
f 47/47/47 49/49/49 50/50/50
f 49/49/49 51/51/51 50/50/50
f 50/50/50 51/51/51 52/52/52
f 51/51/51 53/53/53 52/52/52
f 52/52/52 53/53/53 54/54/54
f 53/53/53 55/55/55 54/54/54
f 54/54/54 55/55/55 56/56/56
f 55/55/55 57/57/57 56/56/56
f 56/56/56 57/57/57 58/58/58
f 57/57/57 59/59/59 58/58/58
f 40/40/40 38/38/38 36/36/36
f 56/56/56 58/58/58 54/54/54
f 54/54/54 58/58/58 60/60/60
f 58/58/58 61/61/61 60/60/60
f 60/60/60 61/61/61 50/50/50
f 50/50/50 61/61/61 47/47/47
f 61/61/61 46/46/46 47/47/47
f 54/54/54 60/60/60 52/52/52
f 60/60/60 50/50/50 52/52/52
f 61/61/61 58/58/58 62/62/62
f 58/58/58 59/59/59 62/62/62
f 62/62/62 59/59/59 63/63/63
f 59/59/59 64/64/64 63/63/63
f 63/63/63 65/65/65 62/62/62
f 62/62/62 65/65/65 61/61/61
f 61/61/61 65/65/65 46/46/46
f 65/65/65 66/66/66 46/46/46
f 66/66/66 67/67/67 46/46/46
f 46/46/46 67/67/67 45/45/45
f 67/67/67 68/68/68 45/45/45
f 45/45/45 68/68/68 44/44/44
f 68/68/68 69/69/69 44/44/44
f 44/44/44 69/69/69 43/43/43
f 69/69/69 70/70/70 43/43/43
f 43/43/43 70/70/70 71/71/71
f 71/71/71 70/70/70 72/72/72
f 70/70/70 69/69/69 72/72/72
f 72/72/72 69/69/69 73/73/73
f 69/69/69 68/68/68 73/73/73
f 73/73/73 68/68/68 74/74/74
f 68/68/68 67/67/67 74/74/74
f 74/74/74 67/67/67 75/75/75
f 67/67/67 66/66/66 75/75/75
f 66/66/66 76/76/76 75/75/75
f 75/75/75 76/76/76 74/74/74
f 74/74/74 76/76/76 73/73/73
f 76/76/76 77/77/77 73/73/73
f 73/73/73 77/77/77 72/72/72
f 72/72/72 77/77/77 71/71/71
f 77/77/77 78/78/78 71/71/71
f 71/71/71 78/78/78 79/79/79
f 78/78/78 80/80/80 79/79/79
f 80/80/80 81/81/81 79/79/79
f 79/79/79 81/81/81 82/82/82
f 81/81/81 83/83/83 82/82/82
f 82/82/82 83/83/83 84/84/84
f 83/83/83 39/39/39 84/84/84
f 39/39/39 38/38/38 84/84/84
f 38/38/38 40/40/40 84/84/84
f 40/40/40 41/41/41 84/84/84
f 84/84/84 41/41/41 82/82/82
f 82/82/82 41/41/41 79/79/79
f 41/41/41 42/42/42 79/79/79
f 79/79/79 42/42/42 71/71/71
f 42/42/42 43/43/43 71/71/71
f 77/77/77 76/76/76 85/85/85
f 76/76/76 66/66/66 85/85/85
f 66/66/66 65/65/65 85/85/85
f 65/65/65 63/63/63 85/85/85
f 63/63/63 64/64/64 85/85/85
f 64/64/64 86/86/86 85/85/85
f 85/85/85 86/86/86 77/77/77

