# Exported by Sketchfab Model Ripper robust edition
o model_3
v 11.711320877075195 48.26736068725586 -4.864068984985352
v 11.78122615814209 48.28472137451172 -4.6628851890563965
v 11.688176155090332 48.377315521240234 -4.807711601257324
v 11.720294952392578 48.432289123535156 -4.6543660163879395
v 11.870970726013184 48.093753814697266 -4.668127536773682
v 11.800592422485352 48.090858459472656 -4.860792636871338
v 11.95693588256836 47.905677795410156 -4.657642364501953
v 11.90356159210205 47.905677795410156 -4.837201118469238
v 12.030147552490234 47.694454193115234 -4.6340508460998535
v 11.997556686401367 47.70024108886719 -4.793294429779053
v 12.061322212219238 47.448509216308594 -4.72841739654541
v 12.079743385314941 47.4398307800293 -4.598008155822754
v 12.097691535949707 47.14469528198242 -4.655676364898682
v 12.074546813964844 47.68577575683594 -4.426313400268555
v 12.024951934814453 47.89410400390625 -4.429590225219727
v 11.95740795135498 48.0850715637207 -4.425002574920654
v 11.868136405944824 48.29050827026367 -4.405343055725098
v 11.801064491271973 48.449649810791016 -4.386993885040283
v 11.919148445129395 48.25289535522461 -4.165494918823242
v 11.854910850524902 48.41203689575195 -4.132073402404785
v 12.002280235290527 48.050350189208984 -4.202848434448242
v 12.0608491897583 47.868064880371094 -4.217920780181885
v 12.101469993591309 47.66551971435547 -4.223818778991699
v 12.131227493286133 47.40510940551758 -4.234303951263428
v 12.109972953796387 47.42536163330078 -4.421070575714111
v 12.107138633728027 47.13022994995117 -4.554101467132568
v 12.113751411437988 46.7569694519043 -4.50757360458374
v 12.11138916015625 46.77143859863281 -4.5881781578063965
v 12.115168571472168 46.34609603881836 -4.46890926361084
v 12.118474960327148 46.363460540771484 -4.533786296844482
v 12.137368202209473 45.94969177246094 -4.499709606170654
v 12.127449035644531 45.929439544677734 -4.450560569763184
v 12.169014930725098 45.54171371459961 -4.489224433898926
v 12.123197555541992 46.325843811035156 -4.363402366638184
v 12.127921104431152 46.733821868896484 -4.3837175369262695
v 12.128393173217773 47.1099739074707 -4.4086198806762695
v 12.146342277526855 47.089717864990234 -4.238891124725342
v 12.143035888671875 46.716461181640625 -4.225784778594971
v 12.134533882141113 46.30558776855469 -4.216609954833984
v 12.134533882141113 45.8802490234375 -4.231682300567627
v 12.128393173217773 45.90050506591797 -4.363402366638184
v 12.153900146484375 45.512779235839844 -4.450560569763184
v 12.199243545532227 45.11058807373047 -4.46890926361084
v 12.215775489807129 45.14241409301758 -4.504296779632568
v 12.251673698425293 44.74311447143555 -4.497743606567383
v 12.266788482666016 44.77494430541992 -4.537063121795654
v 12.312131881713867 44.459556579589844 -4.58096981048584
v 12.300796508789062 44.424835205078125 -4.532475471496582
v 12.34614086151123 44.18178176879883 -4.631429672241211
v 12.247422218322754 44.702606201171875 -4.422381401062012
v 12.192631721496582 45.075862884521484 -4.398134708404541
v 12.149176597595215 45.48094940185547 -4.377164363861084
v 12.151537895202637 45.4520149230957 -4.257895469665527
v 12.194520950317383 45.044036865234375 -4.282142162322998
v 12.251200675964355 44.670780181884766 -4.3004913330078125
v 12.310242652893066 44.346710205078125 -4.309665679931641
v 12.301740646362305 44.38432693481445 -4.44531774520874
v 12.34094524383545 44.141273498535156 -4.569173812866211
v 12.365978240966797 43.86928939819336 -4.6052165031433105
v 12.364562034606934 43.915584564208984 -4.686476707458496
v 12.375425338745117 43.62913131713867 -4.639948844909668
v 12.369757652282715 43.68121337890625 -4.741523742675781
v 12.366923332214355 43.429481506347656 -4.670748710632324
v 12.366923332214355 43.48445510864258 -4.793949604034424
v 12.345667839050293 43.26455307006836 -4.699583053588867
v 12.356532096862793 43.31663513183594 -4.841132640838623
v 12.34141731262207 43.157493591308594 -4.8804521560668945
v 12.314494132995605 43.122772216796875 -4.72710657119751
v 12.33811092376709 43.062007904052734 -4.860792636871338
v 12.318272590637207 43.009925842285156 -4.748732089996338
v 12.303157806396484 43.062007904052734 -4.50626277923584
v 12.307881355285645 42.96073913574219 -4.523301124572754
v 12.316855430603027 42.88840103149414 -4.269035816192627
v 12.318272590637207 42.98099136352539 -4.2467546463012695
v 12.34094524383545 42.79581069946289 -4.024600505828857
v 12.351336479187012 43.18932342529297 -4.491190433502197
v 12.384872436523438 43.354251861572266 -4.486603260040283
v 12.427854537963867 42.65113830566406 -3.7408454418182373
v 12.375897407531738 42.68585968017578 -3.8286588191986084
v 12.453832626342773 42.72636795043945 -3.714632511138916
v 12.397624969482422 42.798702239990234 -3.823416233062744
v 12.509096145629883 42.91444396972656 -3.748054027557373
v 12.458084106445312 42.95784378051758 -3.840454578399658
v 12.352280616760254 42.88840103149414 -4.001664161682129
v 12.412739753723145 43.01860809326172 -3.9996981620788574
v 12.375425338745117 43.102516174316406 -4.237580299377441
v 12.414156913757324 43.27901840209961 -4.257239818572998
v 12.451471328735352 43.215362548828125 -4.0396728515625
v 12.493037223815918 43.17196273803711 -3.8922250270843506
v 12.537908554077148 43.1488151550293 -3.8076884746551514
v 12.49681568145752 43.429481506347656 -3.957102060317993
v 12.535075187683105 43.41501235961914 -3.876497268676758
v 12.463279724121094 43.710147857666016 -4.010183334350586
v 12.49539852142334 43.70146560668945 -3.939408302307129
v 12.407072067260742 44.005279541015625 -4.048847198486328
v 12.434467315673828 43.99949264526367 -3.9865915775299072
v 12.341889381408691 44.30620193481445 -4.069162368774414
v 12.365978240966797 44.29751968383789 -4.0088725090026855
v 12.275290489196777 44.630271911621094 -4.072439193725586
v 12.297017097473145 44.62448501586914 -4.010838508605957
v 12.214831352233887 45.00642013549805 -4.059332370758057
v 12.234196662902832 44.99774169921875 -3.9970767498016357
v 12.17184829711914 45.417293548583984 -4.032464027404785
v 12.190741539001465 45.40861511230469 -3.9702086448669434
v 12.158622741699219 45.851314544677734 -3.993800163269043
v 12.17798900604248 45.84552764892578 -3.930889129638672
v 12.163346290588379 46.282440185546875 -3.9616894721984863
v 12.183656692504883 46.27665328979492 -3.8961570262908936
v 12.175154685974121 46.69331359863281 -3.9544808864593506
v 12.195937156677246 46.684635162353516 -3.8830506801605225
v 12.180350303649902 47.06078338623047 -3.9492383003234863
v 12.201133728027344 47.05210494995117 -3.8699440956115723
v 12.16665267944336 47.37038803100586 -3.9243359565734863
v 12.187435150146484 47.35881423950195 -3.835867404937744
v 12.138312339782715 47.6163330078125 -3.894191026687622
v 12.159567832946777 47.59897232055664 -3.7965478897094727
v 12.100525856018066 47.79283142089844 -3.873220682144165
v 12.12225341796875 47.76389694213867 -3.767713785171509
v 12.05093002319336 47.94908142089844 -3.840454578399658
v 12.074546813964844 47.908573150634766 -3.7283942699432373
v 11.986692428588867 48.13426208496094 -3.7749223709106445
v 12.016921997070312 48.08796691894531 -3.656964063644409
v 11.938042640686035 48.281829833984375 -3.7159433364868164
v 11.975829124450684 48.206600189208984 -3.6418917179107666
v 11.896004676818848 48.34548568725586 -3.9033656120300293
v 11.95268440246582 48.19213104248047 -3.952514886856079
v 12.026369094848633 47.998268127441406 -4.006251335144043
v 12.080687522888184 47.830448150634766 -4.029842853546143
v 12.119891166687012 47.63948059082031 -4.0416388511657715
v 12.148703575134277 47.38774871826172 -4.061298370361328
v 12.162874221801758 47.075252532958984 -4.0750603675842285
v 12.158150672912598 46.701995849609375 -4.0704731941223145
v 12.148231506347656 46.29112243652344 -4.069162368774414
v 12.144925117492676 45.86288833618164 -4.095375061035156
v 12.159567832946777 45.4317626953125 -4.130762577056885
v 12.202077865600586 45.023780822753906 -4.156320095062256
v 12.261119842529297 44.64763259887695 -4.170737266540527
v 12.324413299560547 44.3206672668457 -4.170082092285156
v 12.3843994140625 44.01974868774414 -4.156320095062256
v 12.433995246887207 43.73040008544922 -4.131418228149414
v 12.460918426513672 43.45841598510742 -4.093409061431885
v 12.426910400390625 43.50181579589844 -4.28541898727417
v 12.407072067260742 43.76512145996094 -4.303112506866455
v 12.364562034606934 44.05157470703125 -4.31032133102417
v 11.711320877075195 48.26736068725586 -4.864068984985352
v 11.800592422485352 48.090858459472656 -4.860792636871338
v 11.712265968322754 48.26736068725586 -4.934844017028809
v 11.805788040161133 48.096649169921875 -4.929601669311523
v 11.90356159210205 47.905677795410156 -4.837201118469238
v 11.910646438598633 47.91146469116211 -4.902733325958252
v 11.997556686401367 47.70024108886719 -4.793294429779053
v 12.007002830505371 47.70024108886719 -4.851617813110352
v 12.061322212219238 47.448509216308594 -4.72841739654541
v 12.074546813964844 47.4514045715332 -4.776256084442139
v 12.097691535949707 47.14469528198242 -4.655676364898682
v 12.115168571472168 47.14759063720703 -4.693029880523682
v 12.11138916015625 46.77143859863281 -4.5881781578063965
v 12.131699562072754 46.777225494384766 -4.6176676750183105
v 12.118474960327148 46.363460540771484 -4.533786296844482
v 12.141618728637695 46.36924743652344 -4.557377815246582
v 12.137368202209473 45.94969177246094 -4.499709606170654
v 12.162402153015137 45.9583740234375 -4.518058776855469
v 12.169014930725098 45.54171371459961 -4.489224433898926
v 12.196410179138184 45.550392150878906 -4.502985954284668
v 12.215775489807129 45.14241409301758 -4.504296779632568
v 12.244115829467773 45.15109634399414 -4.516747951507568
v 12.266788482666016 44.77494430541992 -4.537063121795654
v 12.295600891113281 44.78362274169922 -4.551480293273926
v 12.312131881713867 44.459556579589844 -4.58096981048584
v 12.340472221374512 44.47113037109375 -4.599318504333496
v 12.34614086151123 44.18178176879883 -4.631429672241211
v 12.372591018676758 44.193355560302734 -4.655676364898682
v 12.364562034606934 43.915584564208984 -4.686476707458496
v 12.38723373413086 43.932945251464844 -4.717276573181152
v 12.369757652282715 43.68121337890625 -4.741523742675781
v 12.39054012298584 43.69857406616211 -4.780187606811523
v 12.366923332214355 43.48445510864258 -4.793949604034424
v 12.38912296295166 43.50471115112305 -4.8385114669799805
v 12.356532096862793 43.31663513183594 -4.841132640838623
v 12.38298225402832 43.33110046386719 -4.891592502593994
v 12.34141731262207 43.157493591308594 -4.8804521560668945
v 12.372591018676758 43.166175842285156 -4.93681001663208
v 12.33811092376709 43.062007904052734 -4.860792636871338
v 12.373536109924316 43.02439498901367 -4.9132184982299805
v 12.400459289550781 42.93180465698242 -4.761183261871338
v 12.318272590637207 43.009925842285156 -4.748732089996338
v 12.431632995605469 42.86525344848633 -4.5344414710998535
v 12.307881355285645 42.96073913574219 -4.523301124572754
v 12.44485855102539 42.79581069946289 -4.2880401611328125
v 12.316855430603027 42.88840103149414 -4.269035816192627
v 12.45052719116211 42.71768569946289 -4.048847198486328
v 12.34094524383545 42.79581069946289 -4.024600505828857
v 12.457139015197754 42.616416931152344 -3.8450419902801514
v 12.375897407531738 42.68585968017578 -3.8286588191986084
v 12.476977348327637 42.578800201416016 -3.710045337677002
v 12.427854537963867 42.65113830566406 -3.7408454418182373
v 12.453832626342773 42.72636795043945 -3.714632511138916
v 12.520432472229004 42.691646575927734 -3.677934408187866
v 12.509096145629883 42.91444396972656 -3.748054027557373
v 12.54310417175293 42.616416931152344 -3.755262613296509
v 12.562942504882812 42.62509536743164 -3.8620803356170654
v 12.579946517944336 42.706111907958984 -4.067851543426514
v 12.589393615722656 42.77555465698242 -4.3004913330078125
v 12.567666053771973 42.842105865478516 -4.539029121398926
v 12.491620063781738 42.93180465698242 -4.760528087615967
v 12.430215835571289 43.02149963378906 -4.869311809539795
v 12.426910400390625 43.13434600830078 -4.8929033279418945
v 12.522793769836426 43.05332946777344 -4.744800567626953
v 12.610176086425781 42.96073913574219 -4.535097122192383
v 12.637571334838867 42.88840103149414 -4.3044233322143555
v 12.630486488342285 42.82184982299805 -4.0757155418396
v 12.613954544067383 42.749515533447266 -3.8705995082855225
v 12.579474449157715 42.69743347167969 -3.7257730960845947
v 12.563887596130371 42.8970832824707 -3.7126667499542236
v 12.537908554077148 43.1488151550293 -3.8076884746551514
v 12.583252906799316 43.140132904052734 -3.776888370513916
v 12.535075187683105 43.41501235961914 -3.876497268676758
v 12.608758926391602 42.90576171875 -3.7532966136932373
v 12.630486488342285 42.952056884765625 -3.8909144401550293
v 12.618678092956543 43.1488151550293 -3.8168630599975586
v 12.574278831481934 43.40922546386719 -3.852250337600708
v 12.49539852142334 43.70146560668945 -3.939408302307129
v 12.532240867614746 43.69857406616211 -3.9197487831115723
v 12.434467315673828 43.99949264526367 -3.9865915775299072
v 12.604508399963379 43.41790771484375 -3.8922250270843506
v 12.633320808410645 43.183536529541016 -3.942685127258301
v 12.636627197265625 43.01571273803711 -4.0881667137146
v 12.634737968444824 43.079368591308594 -4.3090105056762695
v 12.633320808410645 43.232723236083984 -4.123554229736328
v 12.615371704101562 43.44105529785156 -4.004940509796143
v 12.561053276062012 43.70436096191406 -3.955791473388672
v 12.469420433044434 43.99660110473633 -3.968897819519043
v 12.365978240966797 44.29751968383789 -4.0088725090026855
v 12.39857006072998 44.29751968383789 -3.9911789894104004
v 12.297017097473145 44.62448501586914 -4.010838508605957
v 12.327719688415527 44.62158966064453 -3.9911789894104004
v 12.234196662902832 44.99774169921875 -3.9970767498016357
v 12.263954162597656 44.99484634399414 -3.976761817932129
v 12.190741539001465 45.40861511230469 -3.9702086448669434
v 12.21908187866211 45.40571975708008 -3.9498934745788574
v 12.17798900604248 45.84552764892578 -3.930889129638672
v 12.206329345703125 45.84263229370117 -3.910574197769165
v 12.183656692504883 46.27665328979492 -3.8961570262908936
v 12.211997032165527 46.27376174926758 -3.8758420944213867
v 12.195937156677246 46.684635162353516 -3.8830506801605225
v 12.22380542755127 46.681739807128906 -3.860769748687744
v 12.201133728027344 47.05210494995117 -3.8699440956115723
v 12.22852897644043 47.04631805419922 -3.8450419902801514
v 12.187435150146484 47.35881423950195 -3.835867404937744
v 12.21435832977295 47.35013198852539 -3.8089990615844727
v 12.159567832946777 47.59897232055664 -3.7965478897094727
v 12.185073852539062 47.59029006958008 -3.767713785171509
v 12.12225341796875 47.76389694213867 -3.767713785171509
v 12.146342277526855 47.752323150634766 -3.7362582683563232
v 12.074546813964844 47.908573150634766 -3.7283942699432373
v 12.097219467163086 47.89699935913086 -3.693662166595459
v 12.016921997070312 48.08796691894531 -3.656964063644409
v 12.038649559020996 48.07060623168945 -3.6196107864379883
v 11.975829124450684 48.206600189208984 -3.6418917179107666
v 12.112334251403809 47.905677795410156 -3.7369136810302734
v 12.16523551940918 47.75811004638672 -3.777543544769287
v 12.206329345703125 47.59318161010742 -3.807033061981201
v 12.23655891418457 47.35302734375 -3.8456971645355225
v 12.212942123413086 47.60765075683594 -3.9171273708343506
v 12.170431137084961 47.78415298461914 -3.892880439758301
v 12.252145767211914 47.04631805419922 -3.8791186809539795
v 12.244587898254395 47.3617057800293 -3.948582887649536
v 12.210107803344727 47.63079833984375 -4.074404716491699
v 12.247894287109375 46.681739807128906 -3.8922250270843506
v 12.237503051757812 46.27665328979492 -3.9046761989593506
v 12.232779502868652 45.84552764892578 -3.936131715774536
v 12.248367309570312 46.285335540771484 -3.9865915775299072
v 12.257813453674316 46.69042205810547 -3.980693817138672
v 12.260647773742676 47.054996490478516 -3.9741404056549072
v 12.242698669433594 47.37617492675781 -4.0960307121276855
v 12.200660705566406 47.65394592285156 -4.255274295806885
v 12.16523551940918 47.81887435913086 -4.057366371154785
v 12.11280632019043 47.940399169921875 -3.8574929237365723
v 12.046679496765137 48.0850715637207 -3.664828062057495
v 11.980552673339844 48.23263931274414 -3.5953638553619385
v 11.933791160583496 48.331016540527344 -3.702181577682495
v 11.938042640686035 48.281829833984375 -3.7159433364868164
v 11.89364242553711 48.39756774902344 -3.8948464393615723
v 11.896004676818848 48.34548568725586 -3.9033656120300293
v 11.854910850524902 48.46411895751953 -4.126830577850342
v 11.854910850524902 48.41203689575195 -4.132073402404785
v 11.802009582519531 48.501731872558594 -4.385027885437012
v 11.801064491271973 48.449649810791016 -4.386993885040283
v 11.720767974853516 48.48147964477539 -4.65371036529541
v 11.720294952392578 48.432289123535156 -4.6543660163879395
v 11.670700073242188 48.40335464477539 -4.861447811126709
v 11.688176155090332 48.377315521240234 -4.807711601257324
v 11.726907730102539 48.38020706176758 -4.812953948974609
v 11.766584396362305 48.278934478759766 -4.872588157653809
v 11.864830017089844 48.10532760620117 -4.872588157653809
v 11.962603569030762 47.91436004638672 -4.850307464599609
v 12.049040794372559 47.697349548339844 -4.805745601654053
v 12.11138916015625 47.44272232055664 -4.738902568817139
v 12.150593757629395 47.13890838623047 -4.664195537567139
v 12.165708541870117 46.7685432434082 -4.595386505126953
v 12.174210548400879 46.363460540771484 -4.539029121398926
v 12.194047927856445 45.94969177246094 -4.503641605377197
v 12.22711181640625 45.538818359375 -4.491190433502197
v 12.275290489196777 45.139522552490234 -4.50626277923584
v 12.328191757202148 44.77204895019531 -4.540339469909668
v 12.375425338745117 44.459556579589844 -4.586212158203125
v 12.411322593688965 44.178890228271484 -4.639948844909668
v 12.429743766784668 43.915584564208984 -4.696961879730225
v 12.437301635742188 43.67831802368164 -4.75331974029541
v 12.438718795776367 43.481563568115234 -4.805089950561523
v 12.43493938446045 43.307952880859375 -4.851617813110352
v 12.522793769836426 43.23851013183594 -4.719898223876953
v 12.519487380981445 43.420799255371094 -4.691719055175781
v 12.508624076843262 43.62334442138672 -4.660263538360596
v 12.486424446105957 43.86928939819336 -4.623565673828125
v 12.452888488769531 44.141273498535156 -4.583590984344482
v 12.407544136047363 44.424835205078125 -4.541650295257568
v 12.354642868041992 44.7402229309082 -4.502985954284668
v 12.298907279968262 45.11058807373047 -4.471530437469482
v 12.251200675964355 45.512779235839844 -4.453836917877197
v 12.222860336303711 45.929439544677734 -4.45645809173584
v 12.208690643310547 46.343204498291016 -4.478084087371826
v 12.204912185668945 46.751182556152344 -4.519369125366211
v 12.195465087890625 47.118656158447266 -4.56851863861084
v 12.164291381835938 47.42825698852539 -4.615046501159668
v 12.11280632019043 47.68866729736328 -4.653055191040039
v 12.042901039123535 47.905677795410156 -4.67730188369751
v 11.95740795135498 48.09954071044922 -4.685821056365967
v 11.857745170593262 48.29050827026367 -4.675991535186768
v 11.770834922790527 48.435184478759766 -4.661574363708496
v 11.855382919311523 48.44675827026367 -4.396823883056641
v 11.946544647216797 48.28761672973633 -4.421726226806641
v 12.044318199157715 48.07928466796875 -4.444662570953369
v 12.118001937866211 47.88542556762695 -4.452526092529297
v 12.172320365905762 47.67420196533203 -4.450560569763184
v 12.211997032165527 47.41089630126953 -4.44400691986084
v 12.234668731689453 47.0984001159668 -4.429590225219727
v 12.237975120544434 46.72803497314453 -4.402721881866455
v 12.236085891723633 46.32294845581055 -4.3791303634643555
v 12.243643760681152 45.90339660644531 -4.373232364654541
v 12.267260551452637 45.48094940185547 -4.382406711578369
v 12.313549041748047 45.075862884521484 -4.403377056121826
v 12.372118949890137 44.702606201171875 -4.43155574798584
v 12.431160926818848 44.38432693481445 -4.461045265197754
v 12.4873685836792 44.09497833251953 -4.487258434295654
v 12.536964416503906 43.81431198120117 -4.50626277923584
v 12.574750900268555 43.55968475341797 -4.518058776855469
v 12.594117164611816 43.3455696105957 -4.523956298828125
v 12.60356330871582 43.15170669555664 -4.527888298034668
v 12.626235961914062 43.28480529785156 -4.326048851013184
v 12.604508399963379 43.513389587402344 -4.344398021697998
v 12.561053276062012 43.776695251464844 -4.3542280197143555
v 12.503900527954102 44.063148498535156 -4.353572368621826
v 12.44155216217041 44.35539245605469 -4.339155197143555
v 12.509096145629883 44.037109375 -4.210056781768799
v 12.568611145019531 43.74776077270508 -4.194329261779785
v 12.61301040649414 43.47577667236328 -4.164184093475342
v 12.570972442626953 43.72172164916992 -4.054745197296143
v 12.50956916809082 44.01685333251953 -4.086855888366699
v 12.443441390991211 44.33224105834961 -4.207435607910156
v 12.378259658813477 44.67656707763672 -4.3168745040893555
v 12.317800521850586 45.04692840576172 -4.2919721603393555
v 12.27151107788086 45.45491027832031 -4.269035816192627
v 12.251200675964355 45.88314437866211 -4.251342296600342
v 12.268677711486816 45.43754959106445 -4.145179748535156
v 12.314494132995605 45.026676177978516 -4.170082092285156
v 12.376370429992676 44.653419494628906 -4.191707611083984
v 12.440608024597168 44.311988830566406 -4.095375061035156
v 12.49870491027832 44.00238800048828 -4.001008987426758
v 12.427854537963867 44.3004150390625 -4.018702507019043
v 12.356532096862793 44.62448501586914 -4.0160813331604
v 12.371173858642578 44.63605880737305 -4.086855888366699
v 12.307409286499023 45.009315490722656 -4.068507194519043
v 12.262064933776855 45.420188903808594 -4.042294025421143
v 12.250728607177734 45.86578369140625 -4.120277404785156
v 12.247894287109375 46.3084831237793 -4.245444297790527
v 12.253562927246094 46.71356964111328 -4.257239818572998
v 12.253562927246094 47.08103942871094 -4.269690990447998
v 12.23514175415039 47.39353561401367 -4.266414642333984
v 12.259702682495117 47.06657028198242 -4.111103057861328
v 12.257813453674316 46.699100494384766 -4.107826232910156
v 12.250256538391113 46.29401397705078 -4.105205059051514
v 12.246005058288574 45.854209899902344 -4.010838508605957
v 12.246950149536133 45.41150665283203 -3.973485231399536
v 12.2922945022583 44.99774169921875 -4.0003533363342285
v 12.153427124023438 47.85649108886719 -4.244789123535156
v 12.086355209350586 48.03877639770508 -4.225129127502441
v 11.992833137512207 48.247108459472656 -4.18580961227417
v 11.90497875213623 48.409141540527344 -4.146490573883057
v 11.936625480651855 48.342594146728516 -3.9204039573669434
v 11.968744277954102 48.278934478759766 -3.7290496826171875
v 11.997084617614746 48.206600189208984 -3.6491003036499023
v 12.036760330200195 48.128475189208984 -3.7919607162475586
v 12.016449928283691 48.186344146728516 -3.9741404056549072
v 12.102415084838867 47.98958969116211 -4.0285325050354
v 12.397624969482422 43.55968475341797 -4.484637260437012
v 12.383455276489258 43.81431198120117 -4.476773262023926
v 12.349447250366211 44.09208297729492 -4.463666915893555
vn -0.8839355707168579 -0.4508112370967865 0.1242060661315918
vn -0.8656014204025269 -0.39530691504478455 0.30735430121421814
vn -0.9647424817085266 -0.18756966292858124 0.18463370203971863
vn -0.912327766418457 -0.16873842477798462 0.37307560443878174
vn -0.8652821183204651 -0.4023304581642151 0.2990269064903259
vn -0.8406453132629395 -0.5361716151237488 0.0763898640871048
vn -0.9034410119056702 -0.3430953919887543 0.25706008076667786
vn -0.8589231967926025 -0.5104203224182129 0.04149730131030083
vn -0.9525076150894165 -0.2317819595336914 0.1975002884864807
vn -0.9149710536003113 -0.4035136103630066 -0.002184694167226553
vn -0.9546002149581909 -0.2867377698421478 -0.08074574917554855
vn -0.9808258414268494 -0.12421143800020218 0.15017375349998474
vn -0.9878785610198975 -0.015103424899280071 -0.15449213981628418
vn -0.9693141579627991 -0.18390728533267975 0.16312000155448914
vn -0.9362326860427856 -0.2934897840023041 0.19321508705615997
vn -0.9053105115890503 -0.3714194893836975 0.2060592919588089
vn -0.8882249593734741 -0.40620455145835876 0.21460255980491638
vn -0.9251338243484497 -0.1837800145149231 0.33219319581985474
vn -0.9185287356376648 -0.386086642742157 0.08510008454322815
vn -0.9484817385673523 -0.22063039243221283 0.22738653421401978
vn -0.9298098683357239 -0.35806649923324585 0.08510008454322815
vn -0.962134838104248 -0.25747761130332947 0.08945280313491821
vn -0.9815437197685242 -0.16902707517147064 0.08945280313491821
vn -0.9912695288658142 -0.08293622732162476 0.10250037163496017
vn -0.9860578775405884 -0.09415710717439651 0.1372016966342926
vn -0.9932184815406799 -0.0339704230427742 0.1111890971660614
vn -0.9973737001419067 0.007550365757197142 0.07203252613544464
vn -0.938482940196991 -0.17272154986858368 -0.2990269064903259
vn -0.9992275834083557 -0.0377483032643795 -0.010923261754214764
vn -0.887301504611969 -0.16903100907802582 -0.42909738421440125
vn -0.808570384979248 -0.1502438336610794 -0.5688942670822144
vn -0.987334132194519 -0.08669626712799072 -0.1328723281621933
vn -0.774941623210907 -0.018876219168305397 -0.6317508816719055
vn -0.9974023103713989 -2.0628583476817175e-13 0.07203252613544464
vn -0.9946184158325195 0.015096260234713554 0.10250037163496017
vn -0.9925311803817749 -0.02265377715229988 0.11986933648586273
vn -0.9949134588241577 -0.022653281688690186 0.0981530249118805
vn -0.9950567483901978 0.015102912671864033 0.0981530249118805
vn -0.9967061877250671 0.007545312400907278 0.08074574917554855
vn -0.997911274433136 -0.02641436643898487 0.058952588587999344
vn -0.99945467710495 -0.02264723740518093 0.024029340595006943
vn -0.9758192300796509 -0.041503340005874634 -0.21460255980491638
vn -0.9593535661697388 -0.06792587786912918 -0.27391019463539124
vn -0.6817840933799744 -0.07545984536409378 -0.7276512384414673
vn -0.9516997933387756 -0.14671942591667175 -0.26970529556274414
vn -0.7107909917831421 -0.0678723081946373 -0.7001210451126099
vn -0.7858583927154541 -0.0679110512137413 -0.6146662831306458
vn -0.9735976457595825 -0.15038138628005981 -0.17173540592193604
vn -0.9080865979194641 0.06787145882844925 -0.41324591636657715
vn -0.9887563586235046 -0.13921476900577545 -0.05459024757146835
vn -0.98798006772995 -0.13181622326374054 -0.08074574917554855
vn -0.9949647188186646 -0.08673229068517685 -0.05022686347365379
vn -0.9967476725578308 -0.07541686296463013 0.028397228568792343
vn -0.9916543364524841 -0.12801504135131836 0.0152922747656703
vn -0.9860395193099976 -0.1653466671705246 0.01966099627315998
vn -0.9827726483345032 -0.18009977042675018 0.04149730131030083
vn -0.9873354434967041 -0.1579076051712036 -0.0152922747656703
vn -0.990237295627594 -0.12418336421251297 -0.0633138045668602
vn -0.9974871873855591 -0.06033686175942421 0.03713129088282585
vn -0.9353162050247192 -0.060358088463544846 -0.34862664341926575
vn -0.9967347383499146 -2.0614777517403288e-13 0.08074574917554855
vn -0.9661298394203186 -0.02265479601919651 -0.25706008076667786
vn -0.9936231374740601 0.08293189108371735 0.0763898640871048
vn -0.9714213013648987 0.02641277387738228 -0.23588760197162628
vn -0.9860395193099976 0.1653466671705246 0.01966099627315998
vn -0.9590275883674622 0.0867474153637886 -0.26970529556274414
vn -0.9276780486106873 0.01510178204625845 -0.37307560443878174
vn -0.9919041395187378 0.09425559639930725 -0.08510008454322815
vn -0.9242733716964722 -0.2206369936466217 -0.31150925159454346
vn -0.8965061902999878 -0.4101756513118744 -0.16742929816246033
vn -0.9839930534362793 0.1541295200586319 0.08945280313491821
vn -0.9015911221504211 -0.43059423565864563 -0.04149730131030083
vn -0.8990345001220703 -0.43774157762527466 0.010923261754214764
vn -0.9608510136604309 0.1985781192779541 0.19321508705615997
vn -0.9351551532745361 -0.3403686285018921 -0.0981530249118805
vn -0.9565466642379761 0.25728216767311096 0.1372016966342926
vn -0.9828421473503113 0.11290869116783142 0.1458524912595749
vn -0.8254797458648682 -0.2781365215778351 0.4911448359489441
vn -0.9237608313560486 -0.3790591359138489 0.05459024757146835
vn -0.6307952404022217 0.1273958384990692 0.7654199600219727
vn -0.862159252166748 0.24957633018493652 0.4409002661705017
vn -0.6284099817276001 0.2501017153263092 0.736579954624176
vn -0.8225469589233398 0.31722816824913025 0.4719987213611603
vn -0.9354690313339233 0.2425238937139511 0.25706008076667786
vn -0.8912014365196228 0.3216942846775055 0.3198012113571167
vn -0.9262596964836121 0.30056339502334595 0.22738653421401978
vn -0.9712330102920532 0.15038876235485077 0.18463370203971863
vn -0.9492093324661255 0.16886070370674133 0.26549527049064636
vn -0.8973661661148071 0.1650383621454239 0.40926313400268555
vn -0.6587669849395752 0.2754206359386444 0.7001210451126099
vn -0.9344437718391418 0.049035102128982544 0.3527185618877411
vn -0.7131505608558655 0.19011232256889343 0.67473965883255
vn -0.9421284198760986 -0.11293314397335052 0.31565824151039124
vn -0.7265457510948181 0.09026385098695755 0.681163489818573
vn -0.9420925974845886 -0.18739387392997742 0.2781098484992981
vn -0.7306371927261353 -0.16814370453357697 0.661737859249115
vn -0.9478206634521484 -0.20969721674919128 0.2401314377784729
vn -0.7559475898742676 -0.060250621289014816 0.651853621006012
vn -0.9632494449615479 -0.16154344379901886 0.21460255980491638
vn -0.7752246856689453 -0.23405413329601288 0.5867242813110352
vn -0.9689880609512329 -0.15404561161994934 0.19321508705615997
vn -0.8078141808509827 -0.05648786947131157 0.5867242813110352
vn -0.9753956198692322 -0.09796429425477982 0.1975002884864807
vn -0.8146650195121765 -0.018849795684218407 0.5796254277229309
vn -0.9765815138816833 -0.04526118189096451 0.2103329300880432
vn -0.8093570470809937 0.026377765461802483 0.5867242813110352
vn -0.9754915833473206 0.022648874670267105 0.21886809170246124
vn -0.8136021494865417 -0.10156542807817459 0.5724822878837585
vn -0.9776298403739929 -2.0219644101399092e-13 0.2103329300880432
vn -0.8219811916351318 0.09410643577575684 0.5616858005523682
vn -0.9805689454078674 -0.03394860029220581 0.19321508705615997
vn -0.8565049171447754 0.04897672310471535 0.5138099193572998
vn -0.9798200726509094 -0.10917893797159195 0.16742929816246033
vn -0.8787185549736023 -0.0377359576523304 0.4758462607860565
vn -0.9771795868873596 -0.169107586145401 0.12854042649269104
vn -0.8688860535621643 -0.31089240312576294 0.3852050006389618
vn -0.9560322165489197 -0.27928590774536133 0.08945280313491821
vn -0.9178301692008972 -0.23519133031368256 0.3198012113571167
vn -0.9400877356529236 -0.3332362771034241 0.07203252613544464
vn -0.9088167548179626 -0.3182941675186157 0.26970529556274414
vn -0.9319749474525452 -0.3543829321861267 0.0763898640871048
vn -0.914596676826477 -0.32217371463775635 0.24437066912651062
vn -0.9401882290840149 -0.2610419690608978 0.21886809170246124
vn -0.9110312461853027 -0.3467496633529663 0.22312943637371063
vn -0.9533172249794006 -0.23556990921497345 0.18892620503902435
vn -0.9296002388000488 -0.3651309311389923 0.05022686347365379
vn -0.9394553303718567 -0.3401494026184082 0.04149730131030083
vn -0.9647293090820312 -0.2575214207172394 0.05459024757146835
vn -0.9829437732696533 -0.16523215174674988 0.08074574917554855
vn -0.9912695288658142 -0.08293622732162476 0.10250037163496017
vn -0.993124783039093 -0.018865590915083885 0.11553031951189041
vn -0.9925311803817749 0.02265377715229988 0.11986933648586273
vn -0.993124783039093 0.018865590915083885 0.11553031951189041
vn -0.9946184158325195 -0.015096260234713554 0.10250037163496017
vn -0.9932188987731934 -0.0792095959186554 0.08510008454322815
vn -0.9888328313827515 -0.12796181440353394 0.0763898640871048
vn -0.9829437732696533 -0.16523215174674988 0.08074574917554855
vn -0.9782817959785461 -0.18016226589679718 0.10250037163496017
vn -0.9747207760810852 -0.1763380914926529 0.1372016966342926
vn -0.9794802069664001 -0.10547756403684616 0.17173540592193604
vn -0.9765191674232483 0.018869662657380104 0.21460255980491638
vn -0.9879651665687561 0.0075519331730902195 0.15449213981628418
vn -0.9880837202072144 -0.1017017811536789 0.11553031951189041
vn -0.9845054149627686 -0.15784084796905518 0.0763898640871048
vn -0.8839355707168579 -0.4508112370967865 0.1242060661315918
vn -0.8406453132629395 -0.5361716151237488 0.0763898640871048
vn -0.39122670888900757 0.0037818870041519403 -0.9202865362167358
vn -0.29730546474456787 -0.1527564972639084 -0.9424833655357361
vn -0.8589231967926025 -0.5104203224182129 0.04149730131030083
vn -0.15624859929084778 -0.29081499576568604 -0.9439348578453064
vn -0.9149710536003113 -0.4035136103630066 -0.002184694167226553
vn -0.1628757119178772 -0.2871558666229248 -0.9439348578453064
vn -0.9546002149581909 -0.2867377698421478 -0.08074574917554855
vn -0.1904657781124115 -0.2846274971961975 -0.9395264387130737
vn -0.9878785610198975 -0.015103424899280071 -0.15449213981628418
vn -0.1964079588651657 -0.24975304305553436 -0.9481810927391052
vn -0.938482940196991 -0.17272154986858368 -0.2990269064903259
vn -0.18262283504009247 -0.2013174295425415 -0.962351381778717
vn -0.887301504611969 -0.16903100907802582 -0.42909738421440125
vn -0.1682307869195938 -0.09059009701013565 -0.9815762042999268
vn -0.808570384979248 -0.1502438336610794 -0.5688942670822144
vn -0.09263836592435837 -0.08595584332942963 -0.9919826984405518
vn -0.774941623210907 -0.018876219168305397 -0.6317508816719055
vn -0.05115484818816185 -0.01139522809535265 -0.9986256957054138
vn -0.6817840933799744 -0.07545984536409378 -0.7276512384414673
vn -0.03911028429865837 0.05253422632813454 -0.9978529810905457
vn -0.7107909917831421 -0.0678723081946373 -0.7001210451126099
vn -0.056584566831588745 0.10812705010175705 -0.9925254583358765
vn -0.7858583927154541 -0.0679110512137413 -0.6146662831306458
vn -0.0912494882941246 0.1429399996995926 -0.9855159521102905
vn -0.9080865979194641 0.06787145882844925 -0.41324591636657715
vn -0.13931511342525482 0.16602928936481476 -0.976230263710022
vn -0.9353162050247192 -0.060358088463544846 -0.34862664341926575
vn -0.19598831236362457 0.1759602427482605 -0.9646899104118347
vn -0.9661298394203186 -0.02265479601919651 -0.25706008076667786
vn -0.25148266553878784 0.3049406111240387 -0.9185682535171509
vn -0.9714213013648987 0.02641277387738228 -0.23588760197162628
vn -0.2190423309803009 0.22440074384212494 -0.949560284614563
vn -0.9590275883674622 0.0867474153637886 -0.26970529556274414
vn -0.193434938788414 0.34008172154426575 -0.9202865362167358
vn -0.9276780486106873 0.01510178204625845 -0.37307560443878174
vn -0.19906970858573914 0.01509863417595625 -0.97986900806427
vn -0.9242733716964722 -0.2206369936466217 -0.31150925159454346
vn -0.20105765759944916 -0.49898090958595276 -0.8429672718048096
vn -0.3880942463874817 -0.858066201210022 -0.3363112509250641
vn -0.8965061902999878 -0.4101756513118744 -0.16742929816246033
vn -0.3837333619594574 -0.8857095241546631 -0.2612801790237427
vn -0.9015911221504211 -0.43059423565864563 -0.04149730131030083
vn -0.3819218873977661 -0.892453134059906 -0.2401314377784729
vn -0.8990345001220703 -0.43774157762527466 0.010923261754214764
vn -0.37429141998291016 -0.8641762733459473 -0.3363112509250641
vn -0.9351551532745361 -0.3403686285018921 -0.0981530249118805
vn -0.30610302090644836 -0.9200999736785889 -0.24437066912651062
vn -0.9237608313560486 -0.3790591359138489 0.05459024757146835
vn -0.19623461365699768 -0.8161638975143433 0.5434780716896057
vn -0.8254797458648682 -0.2781365215778351 0.4911448359489441
vn -0.6307952404022217 0.1273958384990692 0.7654199600219727
vn 0.15693211555480957 -0.1556052565574646 0.9752739667892456
vn -0.6284099817276001 0.2501017153263092 0.736579954624176
vn 0.6627827882766724 -0.7308288812637329 0.16312000155448914
vn 0.5336999297142029 -0.8212481737136841 -0.2017817199230194
vn 0.514984130859375 -0.8064108490943909 -0.29067665338516235
vn 0.4987524449825287 -0.8135287165641785 -0.2990269064903259
vn 0.5107961893081665 -0.7840133309364319 -0.3527185618877411
vn 0.492598295211792 -0.652305543422699 -0.5760593414306641
vn 0.5566598176956177 -0.48461973667144775 -0.67473965883255
vn 0.6807155013084412 -0.05281586945056915 -0.7306414246559143
vn 0.8905491232872009 -0.045285481959581375 -0.45262736082077026
vn 0.9578794836997986 -0.12801159918308258 -0.25706008076667786
vn 0.9798935651779175 -0.18769358098506927 -0.06767380982637405
vn 0.9746013283729553 -0.2171916365623474 -0.05459024757146835
vn 0.9657946825027466 -0.2464158982038498 0.08074574917554855
vn 0.8136061429977417 -0.3170970380306244 0.48733407258987427
vn 0.1495504081249237 0.20647820830345154 0.9669547080993652
vn -0.6587669849395752 0.2754206359386444 0.7001210451126099
vn 0.1570713371038437 0.2519976496696472 0.9548956751823425
vn -0.7131505608558655 0.19011232256889343 0.67473965883255
vn 0.8904839754104614 -0.07538192719221115 0.4487268626689911
vn 0.9952759742736816 -0.037735216319561005 0.08945280313491821
vn 0.9174232482910156 0.0226394385099411 0.3972681760787964
vn 0.18096771836280823 0.25099635124206543 0.9509214162826538
vn -0.7265457510948181 0.09026385098695755 0.681163489818573
vn 0.1623021513223648 0.2585548460483551 0.9522643685340881
vn -0.7306371927261353 -0.16814370453357697 0.661737859249115
vn 0.9250349998474121 0.1054471805691719 0.3649536371231079
vn 0.9956784248352051 0.0528111569583416 0.0763898640871048
vn 0.9999118447303772 -0.007551383227109909 0.010923261754214764
vn 0.997736930847168 0.022635528817772865 -0.0633138045668602
vn 0.9989712238311768 0.04529581964015961 -0.002184694167226553
vn 0.9881570935249329 0.13548769056797028 0.07203252613544464
vn 0.9126323461532593 0.15772832930088043 0.37712597846984863
vn 0.14501553773880005 0.18873074650764465 0.9712626934051514
vn -0.7559475898742676 -0.060250621289014816 0.651853621006012
vn 0.10676009207963943 0.08958235383033752 0.9902410507202148
vn -0.7752246856689453 -0.23405413329601288 0.5867242813110352
vn 0.0663185864686966 -0.02193930558860302 0.9975572824478149
vn -0.8078141808509827 -0.05648786947131157 0.5867242813110352
vn 0.04014737904071808 -0.03368765115737915 0.9986256957054138
vn -0.8146650195121765 -0.018849795684218407 0.5796254277229309
vn 0.0402631014585495 -0.062339477241039276 0.9972425103187561
vn -0.8093570470809937 0.026377765461802483 0.5867242813110352
vn 0.06852200627326965 -0.06720591336488724 0.9953833818435669
vn -0.8136021494865417 -0.10156542807817459 0.5724822878837585
vn 0.10118548572063446 -0.0827389657497406 0.991421103477478
vn -0.8219811916351318 0.09410643577575684 0.5616858005523682
vn 0.12181100249290466 -0.007439921144396067 0.9925254583358765
vn -0.8565049171447754 0.04897672310471535 0.5138099193572998
vn 0.13887479901313782 -0.03688953071832657 0.9896226525306702
vn -0.8787185549736023 -0.0377359576523304 0.4758462607860565
vn 0.14155066013336182 -0.08531852811574936 0.9862475395202637
vn -0.8688860535621643 -0.31089240312576294 0.3852050006389618
vn 0.1351325809955597 -0.16945090889930725 0.976230263710022
vn -0.9178301692008972 -0.23519133031368256 0.3198012113571167
vn 0.12390050292015076 -0.10938238352537155 0.9862475395202637
vn -0.9088167548179626 -0.3182941675186157 0.26970529556274414
vn 0.11421435326337814 -0.32721784710884094 0.9380210638046265
vn -0.914596676826477 -0.32217371463775635 0.24437066912651062
vn 0.11053436994552612 -0.18145222961902618 0.9771679639816284
vn -0.9110312461853027 -0.3467496633529663 0.22312943637371063
vn 0.9566996097564697 0.20978568494319916 0.2017817199230194
vn 0.9567493796348572 0.15784040093421936 0.24437066912651062
vn 0.9614952206611633 0.05278206244111061 0.26970529556274414
vn 0.9547980427742004 -0.03770282492041588 0.2948545813560486
vn 0.9853806495666504 0.16523617506027222 0.04149730131030083
vn 0.9570833444595337 0.2828123867511749 0.0633138045668602
vn 0.9380937814712524 0.08291438221931458 0.3363112509250641
vn 0.9964621663093567 0.07539526373147964 0.03713129088282585
vn 0.9836175441741943 0.18025460839271545 -0.002184694167226553
vn 0.923203706741333 -0.1204318031668663 0.3649536371231079
vn 0.9015932083129883 -0.12789638340473175 0.41324591636657715
vn 0.8815379738807678 -0.12033688277006149 0.456519216299057
vn 0.9966209530830383 -0.030187318101525307 0.0763898640871048
vn 0.9984803199768066 -0.0075496467761695385 0.05459024757146835
vn 0.9984909296035767 0.030207542702555656 0.04586252197623253
vn 0.9957801103591919 0.09048829227685928 -0.0152922747656703
vn 0.9798935651779175 0.18769358098506927 -0.06767380982637405
vn 0.9590480327606201 0.2830328643321991 0.010923261754214764
vn 0.935888409614563 0.3473290205001831 0.058952588587999344
vn 0.9487433433532715 0.27571406960487366 0.15449213981628418
vn -4.467330368476685e-14 0.4310697019100189 0.9023185968399048
vn -0.10709460079669952 0.7593088150024414 0.641857385635376
vn -0.9401882290840149 -0.2610419690608978 0.21886809170246124
vn -0.3455069661140442 0.9241303205490112 0.16312000155448914
vn -0.9533172249794006 -0.23556990921497345 0.18892620503902435
vn -0.21838748455047607 0.874518871307373 0.43303996324539185
vn -0.9484817385673523 -0.22063039243221283 0.22738653421401978
vn -0.37039655447006226 0.9275147914886475 -0.05022686347365379
vn -0.9251338243484497 -0.1837800145149231 0.33219319581985474
vn -0.3349987864494324 0.9406358003616333 0.05459024757146835
vn -0.912327766418457 -0.16873842477798462 0.37307560443878174
vn -0.6147679090499878 0.502693235874176 -0.607749879360199
vn -0.9647424817085266 -0.18756966292858124 0.18463370203971863
vn 0.6896426677703857 0.5589478611946106 -0.46040233969688416
vn 0.6891440749168396 0.514706552028656 -0.5100564956665039
vn 0.7279806137084961 0.4319308400154114 -0.5324283838272095
vn 0.7761344909667969 0.3378390371799469 -0.5324283838272095
vn 0.830547034740448 0.05285929888486862 -0.5544344186782837
vn 0.8264365792274475 0.09800544381141663 -0.5544344186782837
vn 0.7990880012512207 0.02265637367963791 -0.6007870435714722
vn 0.7525815963745117 -0.007553943432867527 -0.6584556698799133
vn 0.6789778470993042 -0.13505709171295166 -0.7216291427612305
vn 0.6761615872383118 0.06790128350257874 -0.7336177229881287
vn 0.670129656791687 0.11283298581838608 -0.7336177229881287
vn 0.6738032102584839 0.17206667363643646 -0.7185974717140198
vn 0.6479207873344421 0.14235153794288635 -0.7482877969741821
vn 0.6761486530303955 0.2729099988937378 -0.6843559741973877
vn 0.6644219160079956 0.15718340873718262 -0.7306414246559143
vn 0.6942769289016724 0.25895190238952637 -0.6715083718299866
vn 0.7146839499473572 0.244930699467659 -0.6551609039306641
vn 0.7423046827316284 0.2233262062072754 -0.6317508816719055
vn 0.7488316893577576 0.07541393488645554 -0.6584556698799133
vn 0.8917697072029114 0.0829693004488945 -0.44481781125068665
vn 0.8850992918014526 0.09049569070339203 -0.456519216299057
vn 0.8829103112220764 0.1503545343875885 -0.44481781125068665
vn 0.8868104815483093 0.15040145814418793 -0.43697428703308105
vn 0.9047948718070984 0.17275269329547882 -0.3892335295677185
vn 0.9198006391525269 0.18007300794124603 -0.34862664341926575
vn 0.9361057877540588 0.20978622138500214 -0.28230419754981995
vn 0.9349542856216431 0.11293916404247284 -0.3363112509250641
vn 0.9306555986404419 0.06036776676774025 -0.36088213324546814
vn 0.924505352973938 0 -0.3811691105365753
vn 0.9260389804840088 0.015094655565917492 -0.37712597846984863
vn 0.9250550270080566 -0.04526792839169502 -0.37712597846984863
vn 0.935698926448822 -0.007556937634944916 -0.3527185618877411
vn 0.9401916265487671 0.07541459798812866 -0.33219319581985474
vn 0.9241828918457031 0.20236127078533173 -0.3239381015300751
vn 0.8928768038749695 0.30400437116622925 -0.33219319581985474
vn 0.8451862931251526 0.4153972268104553 -0.3363112509250641
vn 0.818413257598877 0.4688788652420044 -0.33219319581985474
vn 0.7351208329200745 0.6124577522277832 -0.29067665338516235
vn 0.7785428762435913 0.6160376071929932 -0.11986933648586273
vn 0.8618319630622864 0.4706936478614807 -0.18892620503902435
vn 0.898521363735199 0.3961896598339081 -0.18892620503902435
vn 0.934171736240387 0.2971814274787903 -0.1975002884864807
vn 0.9607231616973877 0.19494780898094177 -0.1975002884864807
vn 0.9754610657691956 0.105563685297966 -0.19321508705615997
vn 0.9808946847915649 0.02266264520585537 -0.19321508705615997
vn 0.981962263584137 -0.007551985792815685 -0.18892620503902435
vn 0.9851142168045044 0.0075485073029994965 -0.17173540592193604
vn 0.988524317741394 0.05281420797109604 -0.1415284425020218
vn 0.9914073348045349 0.07546807080507278 -0.10684575140476227
vn 0.9848255515098572 0.15789218246936798 -0.07203252613544464
vn 0.9792753458023071 0.18757516145706177 -0.0763898640871048
vn 0.9713968634605408 0.20982173085212708 -0.1111890971660614
vn 0.9677445292472839 0.18022491037845612 -0.1760382205247879
vn 0.9613120555877686 0.17269890010356903 -0.21460255980491638
vn 0.9612003564834595 0.12797223031520844 -0.24437066912651062
vn 0.96456378698349 0.07543938606977463 -0.25283506512641907
vn 0.9675455689430237 0.04528812691569328 -0.24860523641109467
vn 0.9952501654624939 0.06034696102142334 -0.0763898640871048
vn 0.989773154258728 0.12047266215085983 -0.0763898640871048
vn 0.9832040071487427 0.17272670567035675 -0.058952588587999344
vn 0.9786087274551392 0.20235185325145721 -0.03713129088282585
vn 0.9792630076408386 0.20248714089393616 -0.006554040592163801
vn 0.9775379300117493 0.2098405361175537 0.01966099627315998
vn 0.9836175441741943 0.18025460839271545 0.002184694167226553
vn 0.9927064776420593 0.12053639441728592 -0.002184694167226553
vn 0.9759871363639832 0.20230984687805176 0.08074574917554855
vn 0.9727919101715088 0.20986148715019226 0.0981530249118805
vn 0.9768847227096558 0.2097003161907196 0.04149730131030083
vn 0.984894335269928 0.17281144857406616 0.010923261754214764
vn 0.9905836582183838 0.13548985123634338 0.01966099627315998
vn 0.9965491890907288 0.08297525346279144 0.002184694167226553
vn 0.9991406798362732 0.0301908478140831 -0.028397228568792343
vn 0.9964263439178467 0.06791061162948608 0.05022686347365379
vn 0.9887651801109314 0.13540589809417725 0.0633138045668602
vn 0.9818699359893799 0.1801556944847107 0.058952588587999344
vn 0.9714022278785706 0.20236247777938843 0.1242060661315918
vn 0.841587483882904 0.3174649477005005 0.43697428703308105
vn 0.8764296174049377 0.1277429461479187 0.4642767012119293
vn 0.8640955686569214 0.06781664490699768 0.4987381398677826
vn 0.9741306900978088 0.1726166307926178 0.1458524912595749
vn 0.9761943817138672 0.14295609295368195 0.16312000155448914
vn 0.9864315986633301 0.07536375522613525 0.1458524912595749
vn 0.99945467710495 0.02264723740518093 0.024029340595006943
vn 0.9987378120422363 0 -0.05022686347365379
vn 0.9976789355278015 -0.007552676368504763 -0.06767380982637405
vn 0.9966209530830383 0.030187318101525307 -0.0763898640871048
vn 0.9919003844261169 0.09804949164390564 -0.08074574917554855
vn 0.9995501041412354 0.022649399936199188 -0.01966099627315998
vn 0.9997690320014954 -0.015101470053195953 -0.0152922747656703
vn 0.9999691247940063 -0.007551815826445818 0.002184694167226553
vn 0.9942469596862793 -0.007544876541942358 0.10684575140476227
vn 0.8458947539329529 0.11279037594795227 0.5212872624397278
vn 0.8578709363937378 0.0075388820841908455 0.5138099193572998
vn 0.9529523849487305 0.2973320484161377 -0.058952588587999344
vn 0.9196133017539978 0.3896006643772125 -0.05022686347365379
vn 0.8917584419250488 0.45098569989204407 -0.03713129088282585
vn 0.8226519823074341 0.5678356289863586 0.028397228568792343
vn 0.8397637009620667 0.5429477095603943 0.002184694167226553
vn 0.8705483675003052 0.49099084734916687 0.03276457265019417
vn 0.9059669375419617 0.4033624529838562 0.12854042649269104
vn 0.9201699495315552 0.38931387662887573 0.04149730131030083
vn 0.9085988402366638 0.4172069728374481 0.01966099627315998
vn 0.9292855262756348 0.3685797452926636 0.024029340595006943
vn -0.9916970729827881 -0.0037763919681310654 0.12854042649269104
vn -0.9911259412765503 -0.09418164938688278 0.09380380809307098
vn -0.9888709783554077 -0.1428711861371994 0.04149730131030083
vt 0.1689624935388565 0.42818397283554077
vt 0.1522984355688095 0.4273325204849243
vt 0.1650659292936325 0.4193499684333801
vt 0.1528787761926651 0.4148797392845154
vt 0.15072321891784668 0.44393622875213623
vt 0.1667240411043167 0.4437233507633209
vt 0.1481531411409378 0.46000775694847107
vt 0.16274456679821014 0.45979487895965576
vt 0.1445881873369217 0.4770371913909912
vt 0.1573556810617447 0.4770371913909912
vt 0.15072321891784668 0.49694034457206726
vt 0.1403599977493286 0.49725964665412903
vt 0.14351041615009308 0.5205686688423157
vt 0.12800703942775726 0.477356493473053
vt 0.12949933111667633 0.4606463611125946
vt 0.1306600123643875 0.445000559091568
vt 0.1309916377067566 0.4274389445781708
vt 0.1309916377067566 0.4139218330383301
vt 0.11167459189891815 0.4297804832458496
vt 0.1104310005903244 0.4162633717060089
vt 0.11283527314662933 0.4471292197704315
vt 0.11275236308574677 0.4621364176273346
vt 0.11200621724128723 0.4782079756259918
vt 0.11159168183803558 0.4985368549823761
vt 0.1262660175561905 0.49789825081825256
vt 0.13555146753787994 0.5214201807975769
vt 0.130411297082901 0.5503702163696289
vt 0.1367950439453125 0.5494123101234436
vt 0.1259343922138214 0.582087516784668
vt 0.13107454776763916 0.5810232162475586
vt 0.12692925333976746 0.6132727265357971
vt 0.12294977903366089 0.6146563291549683
vt 0.12469080090522766 0.6454157829284668
vt 0.11756090074777603 0.5834711790084839
vt 0.1207113191485405 0.5515409708023071
vt 0.12394464761018753 0.5224844813346863
vt 0.11051391065120697 0.5232295393943787
vt 0.1081925481557846 0.5522860288619995
vt 0.10603699833154678 0.5843226313591003
vt 0.10562247037887573 0.6177429556846619
vt 0.1159856915473938 0.6164657473564148
vt 0.12129165977239609 0.6472251415252686
vt 0.12112585455179214 0.6788360476493835
vt 0.12435917556285858 0.6768137812614441
vt 0.12187200039625168 0.7081053853034973
vt 0.1254369467496872 0.7059767246246338
vt 0.1273437887430191 0.7308822870254517
vt 0.1231984943151474 0.7332238554954529
vt 0.12999677658081055 0.7530205249786377
vt 0.11581987887620926 0.7107662558555603
vt 0.11540535092353821 0.6812840104103088
vt 0.11540535092353821 0.6494602560997009
vt 0.10595408827066422 0.6511632204055786
vt 0.10620281100273132 0.6831998229026794
vt 0.10611990094184875 0.7127885222434998
vt 0.10553956031799316 0.7385455369949341
vt 0.11623440682888031 0.7362039685249329
vt 0.12493951618671417 0.7557878494262695
vt 0.12668053805828094 0.7770746350288391
vt 0.13323010504245758 0.7737751603126526
vt 0.1287531852722168 0.7961263060569763
vt 0.1367950439453125 0.792188286781311
vt 0.13082583248615265 0.8116657137870789
vt 0.14052580296993256 0.807408332824707
vt 0.13306428492069244 0.8246506452560425
vt 0.14409075677394867 0.8206061124801636
vt 0.1473240852355957 0.8328460454940796
vt 0.13521984219551086 0.8359326124191284
vt 0.145914688706398 0.840509295463562
vt 0.13712666928768158 0.844660222530365
vt 0.11822415143251419 0.8409350514411926
vt 0.11963354796171188 0.8489176034927368
vt 0.0999019667506218 0.8545585870742798
vt 0.09816094487905502 0.847321093082428
vt 0.08083363622426987 0.8615832328796387
vt 0.11664893478155136 0.8303980827331543
vt 0.11623440682888031 0.8173066973686218
vt 0.056873857975006104 0.8718008995056152
vt 0.06516443938016891 0.8697786331176758
vt 0.05463540181517601 0.8657341599464417
vt 0.0646670013666153 0.8609446287155151
vt 0.0560447983443737 0.850088357925415
vt 0.0646670013666153 0.8475339412689209
vt 0.07900970429182053 0.8543457388877869
vt 0.07784902304410934 0.8430637121200562
vt 0.09666863828897476 0.8368905186653137
vt 0.09791222959756851 0.8227348327636719
vt 0.08050201088190079 0.8274179100990295
vt 0.06839776039123535 0.8302916288375854
vt 0.06068752333521843 0.8316752910614014
vt 0.07386954873800278 0.8101755976676941
vt 0.06682255119085312 0.8111335039138794
vt 0.0790926143527031 0.788250207901001
vt 0.07304048538208008 0.7888888120651245
vt 0.08348661661148071 0.7650476098060608
vt 0.07818064838647842 0.7654733061790466
vt 0.08647122979164124 0.7412063479423523
vt 0.08141397684812546 0.7417385578155518
vt 0.08812934160232544 0.715236485004425
vt 0.08298918604850769 0.7158750891685486
vt 0.08862677961587906 0.6854349374771118
vt 0.08356952667236328 0.6860735416412354
vt 0.08821225166320801 0.6530790328979492
vt 0.08307208865880966 0.6535047888755798
vt 0.08688575774431229 0.619126558303833
vt 0.08166269212961197 0.6193394660949707
vt 0.08589088916778564 0.5852805376052856
vt 0.08050201088190079 0.5853869915008545
vt 0.08671994507312775 0.5532439351081848
vt 0.08091653883457184 0.5534567832946777
vt 0.08763191103935242 0.5244002938270569
vt 0.08116525411605835 0.5249325037002563
vt 0.08705157041549683 0.5000269412994385
vt 0.0799216702580452 0.5007719993591309
vt 0.08589088916778564 0.48054951429367065
vt 0.07809773832559586 0.48172029852867126
vt 0.08531054854393005 0.4662873446941376
vt 0.0768541544675827 0.4682031571865082
vt 0.08390114456415176 0.45330241322517395
vt 0.07486441731452942 0.45596325397491455
vt 0.08025329560041428 0.4375501871109009
vt 0.07055331021547318 0.440849632024765
vt 0.07677125185728073 0.4249909520149231
vt 0.07030459493398666 0.43084484338760376
vt 0.09194301068782806 0.4204142987728119
vt 0.0945959985256195 0.43350568413734436
vt 0.09724897891283035 0.4501093924045563
vt 0.09782931953668594 0.46415868401527405
vt 0.0976635068655014 0.4792723059654236
vt 0.09791222959756851 0.4992818832397461
vt 0.0976635068655014 0.5238681435585022
vt 0.09592248499393463 0.552924633026123
vt 0.09443018585443497 0.5849612355232239
vt 0.09492761641740799 0.6185944080352783
vt 0.09592248499393463 0.6523339748382568
vt 0.09633702039718628 0.6845834851264954
vt 0.09592248499393463 0.7142785787582397
vt 0.09451308846473694 0.740248441696167
vt 0.0921088233590126 0.7639832496643066
vt 0.08887549489736557 0.7869729995727539
vt 0.08497892320156097 0.8083662390708923
vt 0.10039940476417542 0.8051732182502747
vt 0.10255495458841324 0.7846314311027527
vt 0.10429597645998001 0.762067437171936
vt 0.6297529339790344 0.008834022097289562
vt 0.6232033967971802 0.026395631954073906
vt 0.6329862475395203 0.013304250314831734
vt 0.6284264326095581 0.027247104793787003
vt 0.622042715549469 0.045234449207782745
vt 0.6270999312400818 0.044702280312776566
vt 0.6234520673751831 0.06524404138326645
vt 0.6278461217880249 0.06428613513708115
vt 0.6259392499923706 0.08759517967700958
vt 0.6296700239181519 0.08663727343082428
vt 0.628260612487793 0.1133522093296051
vt 0.631411075592041 0.11260717362165451
vt 0.628840982913971 0.14357946813106537
vt 0.631659746170044 0.1430473029613495
vt 0.6278461217880249 0.176041841506958
vt 0.6304161548614502 0.17572253942489624
vt 0.6256905794143677 0.2086106389760971
vt 0.6281777024269104 0.20829133689403534
vt 0.6221256256103516 0.24054084718227386
vt 0.6246127486228943 0.2404344081878662
vt 0.6166538000106812 0.27140671014785767
vt 0.6192238926887512 0.2715131342411041
vt 0.6097726225852966 0.2996117174625397
vt 0.6124256253242493 0.29993101954460144
vt 0.6023111343383789 0.32334649562835693
vt 0.6050469875335693 0.323878675699234
vt 0.5940205454826355 0.3441011309623718
vt 0.5969222187995911 0.3448461592197418
vt 0.5848180055618286 0.36357855796813965
vt 0.5879684090614319 0.36432358622550964
vt 0.5756154656410217 0.3811401426792145
vt 0.5792633295059204 0.3819916248321533
vt 0.567822277545929 0.39614734053611755
vt 0.5720505118370056 0.3969988226890564
vt 0.5617702007293701 0.41009020805358887
vt 0.5664129257202148 0.4105159342288971
vt 0.5585368275642395 0.4242459237575531
vt 0.5630966424942017 0.4235008955001831
vt 0.5592830181121826 0.43425071239471436
vt 0.5637599229812622 0.4329735040664673
vt 0.5694804191589355 0.444255530834198
vt 0.5608581900596619 0.4459584653377533
vt 0.5818333625793457 0.45841124653816223
vt 0.5714701414108276 0.4650101363658905
vt 0.5980829000473022 0.4712897539138794
vt 0.5900410413742065 0.4808688163757324
vt 0.6161563992500305 0.48129454255104065
vt 0.6116794943809509 0.491086483001709
vt 0.633815348148346 0.48640337586402893
vt 0.6328204274177551 0.4941730499267578
vt 0.6419401168823242 0.4845939874649048
vt 0.6440127491950989 0.4891706705093384
vt 0.6515571475028992 0.48246532678604126
vt 0.6469144225120544 0.47959160804748535
vt 0.6570289134979248 0.46437153220176697
vt 0.6395358443260193 0.48033663630485535
vt 0.6330691576004028 0.47842082381248474
vt 0.6195555329322815 0.4709704518318176
vt 0.6046324968338013 0.4611785113811493
vt 0.5897923111915588 0.4512801468372345
vt 0.5756154656410217 0.44127535820007324
vt 0.5685684680938721 0.4336121082305908
vt 0.5681539177894592 0.4254167079925537
vt 0.5796778202056885 0.4324413537979126
vt 0.5936059951782227 0.44223326444625854
vt 0.6078658103942871 0.4517059028148651
vt 0.622042715549469 0.46075278520584106
vt 0.634810209274292 0.46873533725738525
vt 0.6431007981300354 0.47554710507392883
vt 0.651971697807312 0.4644779860973358
vt 0.6576921939849854 0.4430847465991974
vt 0.6535468697547913 0.4440426528453827
vt 0.6566973328590393 0.4194563925266266
vt 0.6478263735771179 0.46149781346321106
vt 0.6388725638389587 0.4544731676578522
vt 0.6495674252510071 0.4420204162597656
vt 0.6532981991767883 0.4206271767616272
vt 0.6557024717330933 0.3945508301258087
vt 0.6526349186897278 0.395508736371994
vt 0.6555366516113281 0.3694324195384979
vt 0.6494016051292419 0.4192435145378113
vt 0.640779435634613 0.4362729787826538
vt 0.6261050701141357 0.4459584653377533
vt 0.6117624044418335 0.4370180070400238
vt 0.628260612487793 0.42871615290641785
vt 0.6411110162734985 0.4148797392845154
vt 0.6489870548248291 0.394763708114624
vt 0.6525520086288452 0.3701774477958679
vt 0.6571947336196899 0.34505903720855713
vt 0.6542930603027344 0.34548476338386536
vt 0.6605938673019409 0.31940844655036926
vt 0.6576921939849854 0.3195148706436157
vt 0.6655682325363159 0.2903519570827484
vt 0.6627494692802429 0.29024550318717957
vt 0.6721177697181702 0.2590603530406952
vt 0.6692990064620972 0.2587410509586334
vt 0.6798280477523804 0.22627867758274078
vt 0.6771750450134277 0.2257465124130249
vt 0.6879528164863586 0.19360344111919403
vt 0.685299813747406 0.19307127594947815
vt 0.6951656341552734 0.16263115406036377
vt 0.6924297213554382 0.16220541298389435
vt 0.7022954821586609 0.13474544882774353
vt 0.6993938088417053 0.1343197077512741
vt 0.7100886702537537 0.11122352629899979
vt 0.7070211172103882 0.11079779267311096
vt 0.7169698476791382 0.0923847109079361
vt 0.7138194441795349 0.09206540882587433
vt 0.7221099734306335 0.07897403091192245
vt 0.7187937498092651 0.0788675919175148
vt 0.7273330688476562 0.06694698333740234
vt 0.7237681150436401 0.06673412024974823
vt 0.7330535650253296 0.05108831822872162
vt 0.7296544313430786 0.05183335766196251
vt 0.7337167859077454 0.04012561962008476
vt 0.7199544310569763 0.06630837917327881
vt 0.7150629758834839 0.07844185829162598
vt 0.7102544903755188 0.09174610674381256
vt 0.7036219835281372 0.11037205904722214
vt 0.7017151713371277 0.08961743116378784
vt 0.7060262560844421 0.07578101009130478
vt 0.696243405342102 0.13368110358715057
vt 0.6956630349159241 0.10834981501102448
vt 0.6896108984947205 0.08621153980493546
vt 0.6893622279167175 0.1615668088197708
vt 0.6823981404304504 0.19232623279094696
vt 0.6743562817573547 0.22510790824890137
vt 0.6760972738265991 0.19072972238063812
vt 0.6825639009475708 0.15975743532180786
vt 0.6888647675514221 0.13187173008918762
vt 0.68430495262146 0.10536965727806091
vt 0.6757656335830688 0.08216704428195953
vt 0.6934245824813843 0.07152365148067474
vt 0.7104202508926392 0.06300892680883408
vt 0.7259236574172974 0.051407620310783386
vt 0.7307322025299072 0.04023205116391182
vt 0.7258407473564148 0.03193020075559616
vt 0.729571521282196 0.03065299242734909
vt 0.7132390737533569 0.022564008831977844
vt 0.7159749865531921 0.01958385668694973
vt 0.6959946751594543 0.014049287885427475
vt 0.6979843974113464 0.010430531576275826
vt 0.6764289140701294 0.007237512152642012
vt 0.6772579550743103 0.003193019889295101
vt 0.6552879214286804 0.0035123219713568687
vt 0.6542101502418518 0
vt 0.6398674249649048 0.005960303824394941
vt 0.6404477953910828 0.002341547980904579
vt 0.643598198890686 0.009898361749947071
vt 0.6380435228347778 0.01671013794839382
vt 0.6340640187263489 0.030972294509410858
vt 0.6324059367179871 0.047575999051332474
vt 0.6324059367179871 0.06662768125534058
vt 0.6335666179656982 0.08844665437936783
vt 0.634810209274292 0.11399081349372864
vt 0.6347272992134094 0.14411163330078125
vt 0.6333178877830505 0.17668044567108154
vt 0.6307477951049805 0.20946210622787476
vt 0.6269341111183167 0.24181804060935974
vt 0.6213794350624084 0.2730032205581665
vt 0.6146640777587891 0.30163395404815674
vt 0.6074512600898743 0.3257944881916046
vt 0.5996581315994263 0.3468683958053589
vt 0.5911188125610352 0.3666651248931885
vt 0.5829940438270569 0.38433316349983215
vt 0.5764445066452026 0.39923393726348877
vt 0.5714701414108276 0.41253817081451416
vt 0.5832427740097046 0.4187113642692566
vt 0.5868077278137207 0.4051942527294159
vt 0.5914504528045654 0.39008060097694397
vt 0.5974196791648865 0.3716675341129303
vt 0.6042179465293884 0.3511257767677307
vt 0.6109333038330078 0.3294132351875305
vt 0.6175658106803894 0.3048269748687744
vt 0.6241153478622437 0.27608978748321533
vt 0.6300016641616821 0.2445853352546692
vt 0.6347272992134094 0.21191009879112244
vt 0.6384580731391907 0.17912842333316803
vt 0.6411110162734985 0.1468789130449295
vt 0.6427691578865051 0.11750313639640808
vt 0.6437640190124512 0.0925975814461708
vt 0.6447588801383972 0.07173651456832886
vt 0.6463341116905212 0.05396203696727753
vt 0.6489870548248291 0.03789050504565239
vt 0.6529665589332581 0.02192540466785431
vt 0.6551221013069153 0.008940456435084343
vt 0.6753511428833008 0.013304250314831734
vt 0.6719520092010498 0.02756640687584877
vt 0.6672263741493225 0.04502158239483833
vt 0.663744330406189 0.0607738122344017
vt 0.6606767773628235 0.07737752050161362
vt 0.6572776436805725 0.09749354422092438
vt 0.6537126898765564 0.12165406346321106
vt 0.6502306461334229 0.1504976749420166
vt 0.6461682915687561 0.18221500515937805
vt 0.641028106212616 0.21520954370498657
vt 0.6352246999740601 0.24809765815734863
vt 0.6290897130966187 0.2797085642814636
vt 0.6228717565536499 0.3087650239467621
vt 0.6169854402542114 0.33367058634757996
vt 0.6115136742591858 0.35612815618515015
vt 0.6067051291465759 0.37762781977653503
vt 0.6028914451599121 0.3969988226890564
vt 0.6000726819038391 0.41328322887420654
vt 0.5973367691040039 0.427864670753479
vt 0.6142495274543762 0.4210529029369354
vt 0.616073489189148 0.4032784402370453
vt 0.6184777617454529 0.38263022899627686
vt 0.6218768954277039 0.360385537147522
vt 0.6262708902359009 0.3373957872390747
vt 0.6329862475395203 0.36411070823669434
vt 0.6307477951049805 0.3873133361339569
vt 0.6294212937355042 0.40913230180740356
vt 0.6414426565170288 0.3916771113872528
vt 0.6424375176429749 0.3675166070461273
vt 0.6364682912826538 0.34069523215293884
vt 0.6314939856529236 0.31217092275619507
vt 0.6374631524085999 0.2831144332885742
vt 0.6437640190124512 0.25139710307121277
vt 0.6502306461334229 0.2182961404323578
vt 0.6532981991767883 0.2542708218097687
vt 0.6468315124511719 0.2859881520271301
vt 0.6411110162734985 0.3152575194835663
vt 0.6450905203819275 0.3434625267982483
vt 0.6491528749465942 0.3697517216205597
vt 0.6510597467422485 0.34527188539505005
vt 0.6547075510025024 0.31919556856155396
vt 0.6491528749465942 0.3177054822444916
vt 0.6545417904853821 0.28832972049713135
vt 0.6610913276672363 0.2566123604774475
vt 0.6601793766021729 0.2211698591709137
vt 0.6562827825546265 0.18540802597999573
vt 0.6614229679107666 0.1539035588502884
vt 0.6660656929016113 0.12559212744235992
vt 0.6711229085922241 0.10175090283155441
vt 0.6783357262611389 0.1289980113506317
vt 0.6727810502052307 0.15709657967090607
vt 0.6669776439666748 0.18828174471855164
vt 0.6685528755187988 0.22351139783859253
vt 0.666563093662262 0.2581024467945099
vt 0.6599306464195251 0.28981977701187134
vt 0.679330587387085 0.06652124971151352
vt 0.6832271814346313 0.05151405557990074
vt 0.6887818574905396 0.034165315330028534
vt 0.6938391327857971 0.019796723499894142
vt 0.7100886702537537 0.027672840282320976
vt 0.7224416136741638 0.03576182574033737
vt 0.727001428604126 0.042147863656282425
vt 0.7163065671920776 0.04789530113339424
vt 0.7036219835281372 0.04118995741009712
vt 0.6974869966506958 0.05768722668290138
vt 0.11631731688976288 0.8010222911834717
vt 0.11640021950006485 0.7812255620956421
vt 0.11648312956094742 0.7591937184333801
s on
f 1/1/1 2/2/2 3/3/3
f 2/2/2 4/4/4 3/3/3
f 2/2/2 1/1/1 5/5/5
f 1/1/1 6/6/6 5/5/5
f 5/5/5 6/6/6 7/7/7
f 6/6/6 8/8/8 7/7/7
f 7/7/7 8/8/8 9/9/9
f 8/8/8 10/10/10 9/9/9
f 10/10/10 11/11/11 9/9/9
f 9/9/9 11/11/11 12/12/12
f 11/11/11 13/13/13 12/12/12
f 12/12/12 14/14/14 9/9/9
f 9/9/9 14/14/14 7/7/7
f 14/14/14 15/15/15 7/7/7
f 7/7/7 15/15/15 5/5/5
f 15/15/15 16/16/16 5/5/5
f 5/5/5 16/16/16 2/2/2
f 16/16/16 17/17/17 2/2/2
f 2/2/2 17/17/17 4/4/4
f 4/4/4 17/17/17 18/18/18
f 17/17/17 19/19/19 18/18/18
f 18/18/18 19/19/19 20/20/20
f 19/19/19 17/17/17 21/21/21
f 17/17/17 16/16/16 21/21/21
f 21/21/21 16/16/16 22/22/22
f 16/16/16 15/15/15 22/22/22
f 22/22/22 15/15/15 23/23/23
f 15/15/15 14/14/14 23/23/23
f 23/23/23 14/14/14 24/24/24
f 24/24/24 14/14/14 25/25/25
f 14/14/14 12/12/12 25/25/25
f 25/25/25 12/12/12 26/26/26
f 12/12/12 13/13/13 26/26/26
f 26/26/26 13/13/13 27/27/27
f 13/13/13 28/28/28 27/27/27
f 27/27/27 28/28/28 29/29/29
f 28/28/28 30/30/30 29/29/29
f 30/30/30 31/31/31 29/29/29
f 29/29/29 31/31/31 32/32/32
f 31/31/31 33/33/33 32/32/32
f 32/32/32 34/34/34 29/29/29
f 29/29/29 34/34/34 27/27/27
f 34/34/34 35/35/35 27/27/27
f 27/27/27 35/35/35 26/26/26
f 35/35/35 36/36/36 26/26/26
f 26/26/26 36/36/36 25/25/25
f 36/36/36 37/37/37 25/25/25
f 25/25/25 37/37/37 24/24/24
f 37/37/37 36/36/36 38/38/38
f 36/36/36 35/35/35 38/38/38
f 38/38/38 35/35/35 39/39/39
f 35/35/35 34/34/34 39/39/39
f 39/39/39 34/34/34 40/40/40
f 40/40/40 34/34/34 41/41/41
f 34/34/34 32/32/32 41/41/41
f 41/41/41 32/32/32 42/42/42
f 32/32/32 33/33/33 42/42/42
f 42/42/42 33/33/33 43/43/43
f 33/33/33 44/44/44 43/43/43
f 43/43/43 44/44/44 45/45/45
f 44/44/44 46/46/46 45/45/45
f 46/46/46 47/47/47 45/45/45
f 45/45/45 47/47/47 48/48/48
f 47/47/47 49/49/49 48/48/48
f 48/48/48 50/50/50 45/45/45
f 45/45/45 50/50/50 43/43/43
f 50/50/50 51/51/51 43/43/43
f 43/43/43 51/51/51 42/42/42
f 51/51/51 52/52/52 42/42/42
f 42/42/42 52/52/52 41/41/41
f 52/52/52 53/53/53 41/41/41
f 41/41/41 53/53/53 40/40/40
f 53/53/53 52/52/52 54/54/54
f 52/52/52 51/51/51 54/54/54
f 54/54/54 51/51/51 55/55/55
f 51/51/51 50/50/50 55/55/55
f 55/55/55 50/50/50 56/56/56
f 56/56/56 50/50/50 57/57/57
f 50/50/50 48/48/48 57/57/57
f 57/57/57 48/48/48 58/58/58
f 48/48/48 49/49/49 58/58/58
f 58/58/58 49/49/49 59/59/59
f 49/49/49 60/60/60 59/59/59
f 59/59/59 60/60/60 61/61/61
f 60/60/60 62/62/62 61/61/61
f 61/61/61 62/62/62 63/63/63
f 62/62/62 64/64/64 63/63/63
f 63/63/63 64/64/64 65/65/65
f 64/64/64 66/66/66 65/65/65
f 66/66/66 67/67/67 65/65/65
f 65/65/65 67/67/67 68/68/68
f 67/67/67 69/69/69 68/68/68
f 69/69/69 70/70/70 68/68/68
f 68/68/68 70/70/70 71/71/71
f 70/70/70 72/72/72 71/71/71
f 72/72/72 73/73/73 71/71/71
f 71/71/71 73/73/73 74/74/74
f 73/73/73 75/75/75 74/74/74
f 74/74/74 76/76/76 71/71/71
f 71/71/71 76/76/76 68/68/68
f 68/68/68 76/76/76 65/65/65
f 65/65/65 76/76/76 63/63/63
f 76/76/76 77/77/77 63/63/63
f 63/63/63 77/77/77 61/61/61
f 78/78/78 80/80/80 79/79/79
f 79/79/79 80/80/80 81/81/81
f 80/80/80 82/82/82 81/81/81
f 82/82/82 83/83/83 81/81/81
f 81/81/81 83/83/83 84/84/84
f 83/83/83 85/85/85 84/84/84
f 84/84/84 85/85/85 86/86/86
f 85/85/85 87/87/87 86/86/86
f 87/87/87 77/77/77 86/86/86
f 77/77/77 76/76/76 86/86/86
f 76/76/76 74/74/74 86/86/86
f 86/86/86 74/74/74 84/84/84
f 74/74/74 75/75/75 84/84/84
f 84/84/84 75/75/75 81/81/81
f 75/75/75 79/79/79 81/81/81
f 87/87/87 85/85/85 88/88/88
f 85/85/85 83/83/83 88/88/88
f 88/88/88 83/83/83 89/89/89
f 83/83/83 82/82/82 89/89/89
f 82/82/82 90/90/90 89/89/89
f 89/89/89 90/90/90 91/91/91
f 90/90/90 92/92/92 91/91/91
f 91/91/91 92/92/92 93/93/93
f 92/92/92 94/94/94 93/93/93
f 93/93/93 94/94/94 95/95/95
f 94/94/94 96/96/96 95/95/95
f 95/95/95 96/96/96 97/97/97
f 96/96/96 98/98/98 97/97/97
f 97/97/97 98/98/98 99/99/99
f 98/98/98 100/100/100 99/99/99
f 99/99/99 100/100/100 101/101/101
f 100/100/100 102/102/102 101/101/101
f 101/101/101 102/102/102 103/103/103
f 102/102/102 104/104/104 103/103/103
f 103/103/103 104/104/104 105/105/105
f 104/104/104 106/106/106 105/105/105
f 105/105/105 106/106/106 107/107/107
f 106/106/106 108/108/108 107/107/107
f 107/107/107 108/108/108 109/109/109
f 108/108/108 110/110/110 109/109/109
f 109/109/109 110/110/110 111/111/111
f 110/110/110 112/112/112 111/111/111
f 111/111/111 112/112/112 113/113/113
f 112/112/112 114/114/114 113/113/113
f 113/113/113 114/114/114 115/115/115
f 114/114/114 116/116/116 115/115/115
f 115/115/115 116/116/116 117/117/117
f 116/116/116 118/118/118 117/117/117
f 117/117/117 118/118/118 119/119/119
f 118/118/118 120/120/120 119/119/119
f 119/119/119 120/120/120 121/121/121
f 120/120/120 122/122/122 121/121/121
f 121/121/121 122/122/122 123/123/123
f 122/122/122 124/124/124 123/123/123
f 123/123/123 125/125/125 121/121/121
f 125/125/125 126/126/126 121/121/121
f 121/121/121 126/126/126 119/119/119
f 126/126/126 127/127/127 119/119/119
f 119/119/119 127/127/127 117/117/117
f 127/127/127 128/128/128 117/117/117
f 117/117/117 128/128/128 115/115/115
f 128/128/128 129/129/129 115/115/115
f 115/115/115 129/129/129 113/113/113
f 129/129/129 130/130/130 113/113/113
f 113/113/113 130/130/130 111/111/111
f 130/130/130 131/131/131 111/111/111
f 111/111/111 131/131/131 109/109/109
f 131/131/131 132/132/132 109/109/109
f 109/109/109 132/132/132 107/107/107
f 132/132/132 133/133/133 107/107/107
f 107/107/107 133/133/133 105/105/105
f 133/133/133 134/134/134 105/105/105
f 105/105/105 134/134/134 103/103/103
f 134/134/134 135/135/135 103/103/103
f 103/103/103 135/135/135 101/101/101
f 135/135/135 136/136/136 101/101/101
f 101/101/101 136/136/136 99/99/99
f 136/136/136 137/137/137 99/99/99
f 99/99/99 137/137/137 97/97/97
f 137/137/137 138/138/138 97/97/97
f 97/97/97 138/138/138 95/95/95
f 138/138/138 139/139/139 95/95/95
f 95/95/95 139/139/139 93/93/93
f 139/139/139 140/140/140 93/93/93
f 93/93/93 140/140/140 91/91/91
f 140/140/140 141/141/141 91/91/91
f 91/91/91 141/141/141 89/89/89
f 89/89/89 141/141/141 88/88/88
f 141/141/141 142/142/142 88/88/88
f 88/88/88 142/142/142 87/87/87
f 125/125/125 20/20/20 126/126/126
f 20/20/20 19/19/19 126/126/126
f 126/126/126 19/19/19 127/127/127
f 142/142/142 141/141/141 143/143/143
f 141/141/141 140/140/140 143/143/143
f 143/143/143 140/140/140 144/144/144
f 140/140/140 139/139/139 144/144/144
f 144/144/144 139/139/139 56/56/56
f 139/139/139 138/138/138 56/56/56
f 56/56/56 138/138/138 55/55/55
f 138/138/138 137/137/137 55/55/55
f 55/55/55 137/137/137 54/54/54
f 137/137/137 136/136/136 54/54/54
f 54/54/54 136/136/136 53/53/53
f 136/136/136 135/135/135 53/53/53
f 53/53/53 135/135/135 40/40/40
f 135/135/135 134/134/134 40/40/40
f 40/40/40 134/134/134 39/39/39
f 134/134/134 133/133/133 39/39/39
f 39/39/39 133/133/133 38/38/38
f 133/133/133 132/132/132 38/38/38
f 38/38/38 132/132/132 37/37/37
f 132/132/132 131/131/131 37/37/37
f 37/37/37 131/131/131 24/24/24
f 131/131/131 130/130/130 24/24/24
f 24/24/24 130/130/130 23/23/23
f 130/130/130 129/129/129 23/23/23
f 23/23/23 129/129/129 22/22/22
f 129/129/129 128/128/128 22/22/22
f 22/22/22 128/128/128 21/21/21
f 128/128/128 127/127/127 21/21/21
f 21/21/21 127/127/127 19/19/19
f 145/145/145 147/147/147 146/146/146
f 147/147/147 148/148/148 146/146/146
f 146/146/146 148/148/148 149/149/149
f 148/148/148 150/150/150 149/149/149
f 149/149/149 150/150/150 151/151/151
f 150/150/150 152/152/152 151/151/151
f 151/151/151 152/152/152 153/153/153
f 152/152/152 154/154/154 153/153/153
f 153/153/153 154/154/154 155/155/155
f 154/154/154 156/156/156 155/155/155
f 155/155/155 156/156/156 157/157/157
f 156/156/156 158/158/158 157/157/157
f 157/157/157 158/158/158 159/159/159
f 158/158/158 160/160/160 159/159/159
f 159/159/159 160/160/160 161/161/161
f 160/160/160 162/162/162 161/161/161
f 161/161/161 162/162/162 163/163/163
f 162/162/162 164/164/164 163/163/163
f 163/163/163 164/164/164 165/165/165
f 164/164/164 166/166/166 165/165/165
f 165/165/165 166/166/166 167/167/167
f 166/166/166 168/168/168 167/167/167
f 167/167/167 168/168/168 169/169/169
f 168/168/168 170/170/170 169/169/169
f 169/169/169 170/170/170 171/171/171
f 170/170/170 172/172/172 171/171/171
f 171/171/171 172/172/172 173/173/173
f 172/172/172 174/174/174 173/173/173
f 173/173/173 174/174/174 175/175/175
f 174/174/174 176/176/176 175/175/175
f 175/175/175 176/176/176 177/177/177
f 176/176/176 178/178/178 177/177/177
f 177/177/177 178/178/178 179/179/179
f 178/178/178 180/180/180 179/179/179
f 179/179/179 180/180/180 181/181/181
f 180/180/180 182/182/182 181/181/181
f 181/181/181 182/182/182 183/183/183
f 182/182/182 184/184/184 183/183/183
f 184/184/184 185/185/185 183/183/183
f 183/183/183 185/185/185 186/186/186
f 185/185/185 187/187/187 186/186/186
f 186/186/186 187/187/187 188/188/188
f 187/187/187 189/189/189 188/188/188
f 188/188/188 189/189/189 190/190/190
f 189/189/189 191/191/191 190/190/190
f 190/190/190 191/191/191 192/192/192
f 191/191/191 193/193/193 192/192/192
f 192/192/192 193/193/193 194/194/194
f 193/193/193 195/195/195 194/194/194
f 194/194/194 195/195/195 196/196/196
f 196/196/196 195/195/195 197/197/197
f 195/195/195 198/198/198 197/197/197
f 197/197/197 198/198/198 199/199/199
f 198/198/198 195/195/195 200/200/200
f 195/195/195 193/193/193 200/200/200
f 200/200/200 193/193/193 201/201/201
f 193/193/193 191/191/191 201/201/201
f 201/201/201 191/191/191 202/202/202
f 191/191/191 189/189/189 202/202/202
f 202/202/202 189/189/189 203/203/203
f 189/189/189 187/187/187 203/203/203
f 203/203/203 187/187/187 204/204/204
f 187/187/187 185/185/185 204/204/204
f 204/204/204 185/185/185 205/205/205
f 185/185/185 184/184/184 205/205/205
f 205/205/205 184/184/184 206/206/206
f 184/184/184 207/207/207 206/206/206
f 206/206/206 207/207/207 205/205/205
f 207/207/207 208/208/208 205/205/205
f 205/205/205 208/208/208 204/204/204
f 208/208/208 209/209/209 204/204/204
f 204/204/204 209/209/209 203/203/203
f 209/209/209 210/210/210 203/203/203
f 203/203/203 210/210/210 202/202/202
f 210/210/210 211/211/211 202/202/202
f 202/202/202 211/211/211 201/201/201
f 211/211/211 212/212/212 201/201/201
f 201/201/201 212/212/212 200/200/200
f 212/212/212 213/213/213 200/200/200
f 200/200/200 213/213/213 198/198/198
f 213/213/213 214/214/214 198/198/198
f 198/198/198 214/214/214 199/199/199
f 199/199/199 214/214/214 215/215/215
f 214/214/214 216/216/216 215/215/215
f 215/215/215 216/216/216 217/217/217
f 184/184/184 182/182/182 207/207/207
f 216/216/216 214/214/214 218/218/218
f 214/214/214 213/213/213 218/218/218
f 218/218/218 213/213/213 219/219/219
f 213/213/213 212/212/212 219/219/219
f 219/219/219 220/220/220 218/218/218
f 218/218/218 220/220/220 216/216/216
f 220/220/220 221/221/221 216/216/216
f 216/216/216 221/221/221 217/217/217
f 217/217/217 221/221/221 222/222/222
f 221/221/221 223/223/223 222/222/222
f 222/222/222 223/223/223 224/224/224
f 223/223/223 221/221/221 225/225/225
f 221/221/221 220/220/220 225/225/225
f 225/225/225 220/220/220 226/226/226
f 220/220/220 219/219/219 226/226/226
f 226/226/226 219/219/219 227/227/227
f 219/219/219 212/212/212 227/227/227
f 212/212/212 211/211/211 227/227/227
f 227/227/227 211/211/211 228/228/228
f 211/211/211 210/210/210 228/228/228
f 228/228/228 229/229/229 227/227/227
f 227/227/227 229/229/229 226/226/226
f 229/229/229 230/230/230 226/226/226
f 226/226/226 230/230/230 225/225/225
f 230/230/230 231/231/231 225/225/225
f 225/225/225 231/231/231 223/223/223
f 231/231/231 232/232/232 223/223/223
f 223/223/223 232/232/232 224/224/224
f 224/224/224 232/232/232 233/233/233
f 232/232/232 234/234/234 233/233/233
f 233/233/233 234/234/234 235/235/235
f 234/234/234 236/236/236 235/235/235
f 235/235/235 236/236/236 237/237/237
f 236/236/236 238/238/238 237/237/237
f 237/237/237 238/238/238 239/239/239
f 238/238/238 240/240/240 239/239/239
f 239/239/239 240/240/240 241/241/241
f 240/240/240 242/242/242 241/241/241
f 241/241/241 242/242/242 243/243/243
f 242/242/242 244/244/244 243/243/243
f 243/243/243 244/244/244 245/245/245
f 244/244/244 246/246/246 245/245/245
f 245/245/245 246/246/246 247/247/247
f 246/246/246 248/248/248 247/247/247
f 247/247/247 248/248/248 249/249/249
f 248/248/248 250/250/250 249/249/249
f 249/249/249 250/250/250 251/251/251
f 250/250/250 252/252/252 251/251/251
f 251/251/251 252/252/252 253/253/253
f 252/252/252 254/254/254 253/253/253
f 253/253/253 254/254/254 255/255/255
f 254/254/254 256/256/256 255/255/255
f 255/255/255 256/256/256 257/257/257
f 256/256/256 258/258/258 257/257/257
f 257/257/257 258/258/258 259/259/259
f 258/258/258 256/256/256 260/260/260
f 260/260/260 256/256/256 261/261/261
f 256/256/256 254/254/254 261/261/261
f 261/261/261 254/254/254 262/262/262
f 254/254/254 252/252/252 262/262/262
f 262/262/262 252/252/252 263/263/263
f 252/252/252 250/250/250 263/263/263
f 263/263/263 264/264/264 262/262/262
f 262/262/262 264/264/264 261/261/261
f 264/264/264 265/265/265 261/261/261
f 261/261/261 265/265/265 260/260/260
f 250/250/250 266/266/266 263/263/263
f 266/266/266 267/267/267 263/263/263
f 263/263/263 267/267/267 264/264/264
f 267/267/267 268/268/268 264/264/264
f 264/264/264 268/268/268 265/265/265
f 250/250/250 248/248/248 266/266/266
f 266/266/266 248/248/248 269/269/269
f 248/248/248 246/246/246 269/269/269
f 269/269/269 246/246/246 270/270/270
f 246/246/246 244/244/244 270/270/270
f 270/270/270 244/244/244 271/271/271
f 244/244/244 242/242/242 271/271/271
f 271/271/271 272/272/272 270/270/270
f 270/270/270 272/272/272 269/269/269
f 272/272/272 273/273/273 269/269/269
f 269/269/269 273/273/273 266/266/266
f 273/273/273 274/274/274 266/266/266
f 266/266/266 274/274/274 267/267/267
f 274/274/274 275/275/275 267/267/267
f 267/267/267 275/275/275 268/268/268
f 275/275/275 276/276/276 268/268/268
f 276/276/276 277/277/277 268/268/268
f 268/268/268 277/277/277 265/265/265
f 277/277/277 278/278/278 265/265/265
f 265/265/265 278/278/278 260/260/260
f 278/278/278 279/279/279 260/260/260
f 260/260/260 279/279/279 258/258/258
f 279/279/279 280/280/280 258/258/258
f 258/258/258 280/280/280 259/259/259
f 280/280/280 281/281/281 259/259/259
f 259/259/259 281/281/281 282/282/282
f 281/281/281 283/283/283 282/282/282
f 282/282/282 283/283/283 284/284/284
f 283/283/283 285/285/285 284/284/284
f 284/284/284 285/285/285 286/286/286
f 285/285/285 287/287/287 286/286/286
f 286/286/286 287/287/287 288/288/288
f 287/287/287 289/289/289 288/288/288
f 288/288/288 289/289/289 290/290/290
f 289/289/289 291/291/291 290/290/290
f 290/290/290 291/291/291 292/292/292
f 292/292/292 291/291/291 145/145/145
f 145/145/145 291/291/291 147/147/147
f 291/291/291 293/293/293 147/147/147
f 293/293/293 294/294/294 147/147/147
f 147/147/147 294/294/294 148/148/148
f 294/294/294 295/295/295 148/148/148
f 148/148/148 295/295/295 150/150/150
f 295/295/295 296/296/296 150/150/150
f 150/150/150 296/296/296 152/152/152
f 296/296/296 297/297/297 152/152/152
f 152/152/152 297/297/297 154/154/154
f 297/297/297 298/298/298 154/154/154
f 154/154/154 298/298/298 156/156/156
f 298/298/298 299/299/299 156/156/156
f 156/156/156 299/299/299 158/158/158
f 299/299/299 300/300/300 158/158/158
f 158/158/158 300/300/300 160/160/160
f 300/300/300 301/301/301 160/160/160
f 160/160/160 301/301/301 162/162/162
f 301/301/301 302/302/302 162/162/162
f 162/162/162 302/302/302 164/164/164
f 302/302/302 303/303/303 164/164/164
f 164/164/164 303/303/303 166/166/166
f 303/303/303 304/304/304 166/166/166
f 166/166/166 304/304/304 168/168/168
f 304/304/304 305/305/305 168/168/168
f 168/168/168 305/305/305 170/170/170
f 305/305/305 306/306/306 170/170/170
f 170/170/170 306/306/306 172/172/172
f 306/306/306 307/307/307 172/172/172
f 172/172/172 307/307/307 174/174/174
f 307/307/307 308/308/308 174/174/174
f 174/174/174 308/308/308 176/176/176
f 308/308/308 309/309/309 176/176/176
f 176/176/176 309/309/309 178/178/178
f 309/309/309 310/310/310 178/178/178
f 178/178/178 310/310/310 180/180/180
f 310/310/310 311/311/311 180/180/180
f 180/180/180 311/311/311 182/182/182
f 182/182/182 311/311/311 207/207/207
f 207/207/207 311/311/311 208/208/208
f 311/311/311 312/312/312 208/208/208
f 208/208/208 312/312/312 209/209/209
f 293/293/293 291/291/291 289/289/289
f 312/312/312 311/311/311 313/313/313
f 311/311/311 310/310/310 313/313/313
f 313/313/313 310/310/310 314/314/314
f 310/310/310 309/309/309 314/314/314
f 314/314/314 309/309/309 315/315/315
f 309/309/309 308/308/308 315/315/315
f 315/315/315 308/308/308 316/316/316
f 308/308/308 307/307/307 316/316/316
f 316/316/316 307/307/307 317/317/317
f 307/307/307 306/306/306 317/317/317
f 317/317/317 306/306/306 318/318/318
f 306/306/306 305/305/305 318/318/318
f 318/318/318 305/305/305 319/319/319
f 305/305/305 304/304/304 319/319/319
f 319/319/319 304/304/304 320/320/320
f 304/304/304 303/303/303 320/320/320
f 320/320/320 303/303/303 321/321/321
f 303/303/303 302/302/302 321/321/321
f 321/321/321 302/302/302 322/322/322
f 302/302/302 301/301/301 322/322/322
f 322/322/322 301/301/301 323/323/323
f 301/301/301 300/300/300 323/323/323
f 323/323/323 300/300/300 324/324/324
f 300/300/300 299/299/299 324/324/324
f 324/324/324 299/299/299 325/325/325
f 299/299/299 298/298/298 325/325/325
f 325/325/325 298/298/298 326/326/326
f 298/298/298 297/297/297 326/326/326
f 326/326/326 297/297/297 327/327/327
f 297/297/297 296/296/296 327/327/327
f 327/327/327 296/296/296 328/328/328
f 296/296/296 295/295/295 328/328/328
f 328/328/328 295/295/295 329/329/329
f 295/295/295 294/294/294 329/329/329
f 329/329/329 294/294/294 330/330/330
f 294/294/294 293/293/293 330/330/330
f 293/293/293 289/289/289 330/330/330
f 289/289/289 287/287/287 330/330/330
f 330/330/330 287/287/287 331/331/331
f 287/287/287 285/285/285 331/331/331
f 330/330/330 331/331/331 329/329/329
f 331/331/331 332/332/332 329/329/329
f 329/329/329 332/332/332 328/328/328
f 332/332/332 333/333/333 328/328/328
f 328/328/328 333/333/333 327/327/327
f 333/333/333 334/334/334 327/327/327
f 327/327/327 334/334/334 326/326/326
f 334/334/334 335/335/335 326/326/326
f 326/326/326 335/335/335 325/325/325
f 335/335/335 336/336/336 325/325/325
f 325/325/325 336/336/336 324/324/324
f 336/336/336 337/337/337 324/324/324
f 324/324/324 337/337/337 323/323/323
f 337/337/337 338/338/338 323/323/323
f 323/323/323 338/338/338 322/322/322
f 338/338/338 339/339/339 322/322/322
f 322/322/322 339/339/339 321/321/321
f 339/339/339 340/340/340 321/321/321
f 321/321/321 340/340/340 320/320/320
f 340/340/340 341/341/341 320/320/320
f 320/320/320 341/341/341 319/319/319
f 341/341/341 342/342/342 319/319/319
f 319/319/319 342/342/342 318/318/318
f 342/342/342 343/343/343 318/318/318
f 318/318/318 343/343/343 317/317/317
f 343/343/343 344/344/344 317/317/317
f 317/317/317 344/344/344 316/316/316
f 344/344/344 345/345/345 316/316/316
f 316/316/316 345/345/345 315/315/315
f 345/345/345 346/346/346 315/315/315
f 315/315/315 346/346/346 314/314/314
f 346/346/346 347/347/347 314/314/314
f 314/314/314 347/347/347 313/313/313
f 347/347/347 348/348/348 313/313/313
f 313/313/313 348/348/348 312/312/312
f 348/348/348 349/349/349 312/312/312
f 312/312/312 349/349/349 209/209/209
f 209/209/209 349/349/349 210/210/210
f 210/210/210 349/349/349 228/228/228
f 349/349/349 350/350/350 228/228/228
f 228/228/228 350/350/350 229/229/229
f 349/349/349 348/348/348 350/350/350
f 350/350/350 348/348/348 351/351/351
f 348/348/348 347/347/347 351/351/351
f 351/351/351 347/347/347 352/352/352
f 347/347/347 346/346/346 352/352/352
f 352/352/352 346/346/346 353/353/353
f 346/346/346 345/345/345 353/353/353
f 345/345/345 344/344/344 353/353/353
f 353/353/353 344/344/344 354/354/354
f 344/344/344 343/343/343 354/354/354
f 354/354/354 355/355/355 353/353/353
f 353/353/353 355/355/355 352/352/352
f 355/355/355 356/356/356 352/352/352
f 352/352/352 356/356/356 351/351/351
f 356/356/356 357/357/357 351/351/351
f 351/351/351 357/357/357 350/350/350
f 350/350/350 357/357/357 229/229/229
f 229/229/229 357/357/357 230/230/230
f 357/357/357 358/358/358 230/230/230
f 230/230/230 358/358/358 231/231/231
f 357/357/357 356/356/356 358/358/358
f 358/358/358 356/356/356 359/359/359
f 356/356/356 355/355/355 359/359/359
f 359/359/359 355/355/355 360/360/360
f 355/355/355 354/354/354 360/360/360
f 360/360/360 354/354/354 361/361/361
f 354/354/354 343/343/343 361/361/361
f 361/361/361 343/343/343 362/362/362
f 343/343/343 342/342/342 362/362/362
f 362/362/362 342/342/342 363/363/363
f 342/342/342 341/341/341 363/363/363
f 341/341/341 340/340/340 363/363/363
f 363/363/363 340/340/340 364/364/364
f 340/340/340 339/339/339 364/364/364
f 364/364/364 365/365/365 363/363/363
f 363/363/363 365/365/365 362/362/362
f 365/365/365 366/366/366 362/362/362
f 362/362/362 366/366/366 361/361/361
f 366/366/366 367/367/367 361/361/361
f 361/361/361 367/367/367 360/360/360
f 367/367/367 368/368/368 360/360/360
f 360/360/360 368/368/368 359/359/359
f 368/368/368 369/369/369 359/359/359
f 359/359/359 369/369/369 358/358/358
f 358/358/358 369/369/369 231/231/231
f 231/231/231 369/369/369 232/232/232
f 232/232/232 369/369/369 234/234/234
f 369/369/369 370/370/370 234/234/234
f 234/234/234 370/370/370 236/236/236
f 370/370/370 371/371/371 236/236/236
f 236/236/236 371/371/371 238/238/238
f 369/369/369 368/368/368 370/370/370
f 370/370/370 368/368/368 372/372/372
f 368/368/368 367/367/367 372/372/372
f 372/372/372 367/367/367 373/373/373
f 367/367/367 366/366/366 373/373/373
f 373/373/373 366/366/366 374/374/374
f 366/366/366 365/365/365 374/374/374
f 374/374/374 365/365/365 375/375/375
f 365/365/365 364/364/364 375/375/375
f 375/375/375 364/364/364 376/376/376
f 364/364/364 339/339/339 376/376/376
f 376/376/376 339/339/339 377/377/377
f 339/339/339 338/338/338 377/377/377
f 377/377/377 338/338/338 378/378/378
f 338/338/338 337/337/337 378/378/378
f 337/337/337 336/336/336 378/378/378
f 378/378/378 336/336/336 379/379/379
f 336/336/336 335/335/335 379/379/379
f 372/372/372 371/371/371 370/370/370
f 379/379/379 380/380/380 378/378/378
f 378/378/378 380/380/380 377/377/377
f 380/380/380 381/381/381 377/377/377
f 377/377/377 381/381/381 376/376/376
f 381/381/381 382/382/382 376/376/376
f 376/376/376 382/382/382 375/375/375
f 382/382/382 383/383/383 375/375/375
f 375/375/375 383/383/383 374/374/374
f 383/383/383 384/384/384 374/374/374
f 374/374/374 384/384/384 373/373/373
f 384/384/384 385/385/385 373/373/373
f 373/373/373 385/385/385 372/372/372
f 372/372/372 385/385/385 371/371/371
f 371/371/371 385/385/385 238/238/238
f 238/238/238 385/385/385 240/240/240
f 385/385/385 384/384/384 240/240/240
f 240/240/240 384/384/384 242/242/242
f 242/242/242 384/384/384 271/271/271
f 384/384/384 383/383/383 271/271/271
f 271/271/271 383/383/383 272/272/272
f 383/383/383 382/382/382 272/272/272
f 272/272/272 382/382/382 273/273/273
f 382/382/382 381/381/381 273/273/273
f 273/273/273 381/381/381 274/274/274
f 381/381/381 380/380/380 274/274/274
f 274/274/274 380/380/380 275/275/275
f 380/380/380 379/379/379 275/275/275
f 275/275/275 379/379/379 276/276/276
f 379/379/379 335/335/335 276/276/276
f 276/276/276 335/335/335 386/386/386
f 335/335/335 334/334/334 386/386/386
f 386/386/386 334/334/334 387/387/387
f 334/334/334 333/333/333 387/387/387
f 387/387/387 333/333/333 388/388/388
f 333/333/333 332/332/332 388/388/388
f 388/388/388 332/332/332 389/389/389
f 332/332/332 331/331/331 389/389/389
f 331/331/331 285/285/285 389/389/389
f 285/285/285 283/283/283 389/389/389
f 389/389/389 283/283/283 390/390/390
f 283/283/283 281/281/281 390/390/390
f 390/390/390 281/281/281 391/391/391
f 281/281/281 280/280/280 391/391/391
f 391/391/391 280/280/280 392/392/392
f 280/280/280 279/279/279 392/392/392
f 279/279/279 393/393/393 392/392/392
f 392/392/392 393/393/393 391/391/391
f 393/393/393 394/394/394 391/391/391
f 391/391/391 394/394/394 390/390/390
f 394/394/394 388/388/388 390/390/390
f 390/390/390 388/388/388 389/389/389
f 276/276/276 386/386/386 277/277/277
f 277/277/277 386/386/386 395/395/395
f 386/386/386 387/387/387 395/395/395
f 395/395/395 387/387/387 394/394/394
f 387/387/387 388/388/388 394/394/394
f 394/394/394 393/393/393 395/395/395
f 393/393/393 278/278/278 395/395/395
f 395/395/395 278/278/278 277/277/277
f 279/279/279 278/278/278 393/393/393
f 59/59/59 61/61/61 396/396/396
f 61/61/61 77/77/77 396/396/396
f 77/77/77 87/87/87 396/396/396
f 87/87/87 142/142/142 396/396/396
f 396/396/396 142/142/142 397/397/397
f 142/142/142 143/143/143 397/397/397
f 397/397/397 143/143/143 398/398/398
f 143/143/143 144/144/144 398/398/398
f 398/398/398 144/144/144 57/57/57
f 144/144/144 56/56/56 57/57/57
f 396/396/396 397/397/397 59/59/59
f 59/59/59 397/397/397 58/58/58
f 397/397/397 398/398/398 58/58/58
f 58/58/58 398/398/398 57/57/57

